<svg width="88" height="88" viewBox="0 0 88 88" fill="none" xmlns="http://www.w3.org/2000/svg">
<g clip-path="url(#clip0_14863_2303)">
<path fill-rule="evenodd" clip-rule="evenodd" d="M18.0358 31.5884C18.0358 31.5884 13.2495 36.3748 7.86478 41.7594C2.77925 46.845 0.0869141 53.4263 0.0869141 60.6058C0.0869141 67.4863 2.77925 74.3667 7.86478 79.1531C8.16393 79.4522 8.16393 79.4522 8.46308 79.7514C13.5486 84.8369 20.1299 87.5292 27.0103 87.5292C33.8907 87.5292 40.7712 84.8369 45.8567 79.7514C51.2414 74.3667 56.0278 69.5803 56.0278 69.5803C58.4209 67.1871 58.4209 63.5973 56.0278 61.2041C53.6346 58.8109 50.0448 58.8109 47.6516 61.2041C47.6516 61.2041 42.8652 65.9905 37.4805 71.3752C34.7882 74.0675 30.8992 75.5633 27.0103 75.5633C23.1214 75.5633 19.2324 74.0675 16.5401 71.3752L15.9418 70.7769C13.2495 68.0845 11.7537 64.1956 11.7537 60.3067C11.7537 56.4177 13.2495 52.5288 15.9418 49.8365C21.3265 44.4518 26.1129 39.6654 26.1129 39.6654C28.5061 37.2722 28.5061 33.6824 26.1129 31.2892C24.0188 29.4943 20.429 29.4943 18.0358 31.5884Z" fill="#FF7300"/>
<path fill-rule="evenodd" clip-rule="evenodd" d="M52.74 26.5006L26.1158 53.1249C23.7226 55.5181 23.7226 59.1079 26.1158 61.5011C28.509 63.8942 32.0987 63.8942 34.4919 61.5011L61.1162 34.8768C63.5094 32.4836 63.5094 28.8938 61.1162 26.5006C58.723 24.4066 55.1332 24.4066 52.74 26.5006Z" fill="white"/>
<path fill-rule="evenodd" clip-rule="evenodd" d="M69.1951 56.4147C69.1951 56.4147 73.9815 51.6283 79.3662 46.2436C84.4517 41.1581 87.144 34.5768 87.144 27.6964C87.144 20.8159 84.4517 13.9355 79.3662 9.14913C79.067 8.84998 79.067 8.84998 78.7679 8.55083C73.9815 3.16616 67.1011 0.473816 60.2206 0.473816C53.3402 0.473816 46.4598 3.16616 41.3743 8.25169C35.9896 13.6364 31.2032 18.4227 31.2032 18.4227C28.81 20.8159 28.81 24.4057 31.2032 26.7989C33.5964 29.1921 37.1862 29.1921 39.5794 26.7989C39.5794 26.7989 44.3658 22.0125 49.7504 16.6279C52.4428 13.9355 56.3317 12.4398 60.2206 12.4398C64.1096 12.4398 67.9985 13.9355 70.6909 16.6279L71.2892 17.2262C73.9815 19.9185 75.4772 23.8074 75.4772 27.6964C75.4772 31.5853 73.9815 35.4742 71.2892 38.1666C65.9045 43.5513 61.1181 48.3376 61.1181 48.3376C58.7249 50.7308 58.7249 54.3206 61.1181 56.7138C63.2121 58.8078 66.8019 58.8078 69.1951 56.4147Z" fill="#FF7300"/>
</g>
<defs>
<clipPath id="clip0_14863_2303">
<rect width="87.0523" height="87.0523" fill="white" transform="translate(0.0869141 0.473816)"/>
</clipPath>
</defs>
</svg>
