<svg width="242" height="35" viewBox="0 0 242 35" fill="none" xmlns="http://www.w3.org/2000/svg">
<path d="M50.9746 23.6924V7.3591H53.3109V21.6624H62.1655V23.6924H50.9746Z" fill="#051F39"/>
<path d="M64.5194 23.6924V11.3258H66.7622V23.6924H64.5194ZM65.6408 8.94577C65.2047 8.94577 64.8387 8.80577 64.5427 8.52577C64.2624 8.24577 64.1222 7.90355 64.1222 7.4991C64.1222 7.0791 64.2624 6.7291 64.5427 6.4491C64.8387 6.1691 65.2047 6.0291 65.6408 6.0291C66.0769 6.0291 66.4351 6.1691 66.7155 6.4491C67.0114 6.71355 67.1594 7.04799 67.1594 7.45244C67.1594 7.87244 67.0192 8.23021 66.7389 8.52577C66.4585 8.80577 66.0925 8.94577 65.6408 8.94577Z" fill="#051F39"/>
<path d="M77.6564 11.2091C78.6688 11.2091 79.5566 11.4035 80.3198 11.7924C81.0985 12.1813 81.706 12.7724 82.1421 13.5658C82.5782 14.3591 82.7963 15.3624 82.7963 16.5758V23.6924H80.5534V16.8324C80.5534 15.6347 80.2575 14.7324 79.6656 14.1258C79.0893 13.5191 78.2716 13.2158 77.2125 13.2158C76.4181 13.2158 75.725 13.3713 75.1332 13.6824C74.5413 13.9935 74.0818 14.4524 73.7547 15.0591C73.4432 15.6658 73.2875 16.4202 73.2875 17.3224V23.6924H71.0446V11.3258H73.194V14.6624L72.8436 13.7758C73.2485 12.9669 73.8715 12.3369 74.7126 11.8858C75.5537 11.4347 76.5349 11.2091 77.6564 11.2091Z" fill="#051F39"/>
<path d="M88.7694 20.7058L88.8161 17.8358L95.9418 11.3258H98.652L93.185 16.6924L91.9701 17.7191L88.7694 20.7058ZM86.947 23.6924V6.3791H89.1899V23.6924H86.947ZM96.4091 23.6924L91.5496 17.6724L92.9981 15.8758L99.1659 23.6924H96.4091Z" fill="#051F39"/>
<path d="M101.157 23.6924V7.3591H109.147C111.203 7.3591 112.745 7.74799 113.773 8.52577C114.816 9.30355 115.338 10.3302 115.338 11.6058C115.338 12.4613 115.128 13.208 114.707 13.8458C114.287 14.468 113.711 14.9502 112.978 15.2924C112.246 15.6347 111.405 15.8058 110.455 15.8058L110.899 14.8491C111.927 14.8491 112.838 15.0202 113.633 15.3624C114.427 15.6891 115.042 16.1791 115.478 16.8324C115.93 17.4858 116.156 18.2869 116.156 19.2358C116.156 20.6358 115.603 21.7324 114.497 22.5258C113.391 23.3035 111.764 23.6924 109.614 23.6924H101.157ZM104.918 20.8458H109.334C110.315 20.8458 111.055 20.6902 111.553 20.3791C112.067 20.0524 112.324 19.5391 112.324 18.8391C112.324 18.1547 112.067 17.6491 111.553 17.3224C111.055 16.9802 110.315 16.8091 109.334 16.8091H104.638V14.0558H108.68C109.599 14.0558 110.3 13.9002 110.782 13.5891C111.281 13.2624 111.53 12.7724 111.53 12.1191C111.53 11.4813 111.281 11.0069 110.782 10.6958C110.3 10.3691 109.599 10.2058 108.68 10.2058H104.918V20.8458Z" fill="#051F39"/>
<path d="M124.068 23.8791C123.024 23.8791 122.09 23.6769 121.264 23.2724C120.454 22.868 119.823 22.2535 119.372 21.4291C118.92 20.5891 118.694 19.5235 118.694 18.2324V11.1391H122.339V17.6958C122.339 18.738 122.557 19.508 122.993 20.0058C123.445 20.488 124.076 20.7291 124.885 20.7291C125.446 20.7291 125.945 20.6124 126.381 20.3791C126.817 20.1302 127.159 19.7569 127.409 19.2591C127.658 18.7458 127.782 18.108 127.782 17.3458V11.1391H131.427V23.6924H127.969V20.2391L128.6 21.2424C128.18 22.1135 127.557 22.7747 126.731 23.2258C125.921 23.6613 125.033 23.8791 124.068 23.8791Z" fill="#051F39"/>
<path d="M134.804 23.6924V11.1391H138.448V23.6924H134.804ZM136.626 9.3891C135.956 9.3891 135.411 9.19466 134.991 8.80577C134.57 8.41688 134.36 7.93466 134.36 7.3591C134.36 6.78355 134.57 6.30132 134.991 5.91244C135.411 5.52355 135.956 5.3291 136.626 5.3291C137.296 5.3291 137.841 5.51577 138.261 5.8891C138.682 6.24688 138.892 6.71355 138.892 7.2891C138.892 7.89577 138.682 8.40132 138.261 8.80577C137.856 9.19466 137.311 9.3891 136.626 9.3891Z" fill="#051F39"/>
<path d="M141.831 23.6924V6.3791H145.475V23.6924H141.831Z" fill="#051F39"/>
<path d="M154.255 23.8791C153.071 23.8791 152.004 23.6147 151.054 23.0858C150.104 22.5413 149.349 21.7869 148.788 20.8224C148.243 19.858 147.97 18.7224 147.97 17.4158C147.97 16.0935 148.243 14.9502 148.788 13.9858C149.349 13.0213 150.104 12.2747 151.054 11.7458C152.004 11.2169 153.071 10.9524 154.255 10.9524C155.314 10.9524 156.241 11.1858 157.035 11.6524C157.829 12.1191 158.445 12.8269 158.881 13.7758C159.317 14.7247 159.535 15.938 159.535 17.4158C159.535 18.878 159.325 20.0913 158.904 21.0558C158.484 22.0047 157.876 22.7124 157.082 23.1791C156.303 23.6458 155.361 23.8791 154.255 23.8791ZM154.886 20.8924C155.478 20.8924 156.015 20.7524 156.498 20.4724C156.981 20.1924 157.362 19.7958 157.643 19.2824C157.938 18.7535 158.086 18.1313 158.086 17.4158C158.086 16.6847 157.938 16.0624 157.643 15.5491C157.362 15.0358 156.981 14.6391 156.498 14.3591C156.015 14.0791 155.478 13.9391 154.886 13.9391C154.278 13.9391 153.733 14.0791 153.25 14.3591C152.767 14.6391 152.378 15.0358 152.082 15.5491C151.802 16.0624 151.662 16.6847 151.662 17.4158C151.662 18.1313 151.802 18.7535 152.082 19.2824C152.378 19.7958 152.767 20.1924 153.25 20.4724C153.733 20.7524 154.278 20.8924 154.886 20.8924ZM158.18 23.6924V21.1258L158.25 17.3924L158.016 13.6824V6.3791H161.661V23.6924H158.18Z" fill="#051F39"/>
<path d="M171.272 23.8791C169.839 23.8791 168.578 23.5991 167.487 23.0391C166.413 22.4791 165.579 21.7169 164.987 20.7524C164.396 19.7724 164.1 18.6602 164.1 17.4158C164.1 16.1558 164.388 15.0435 164.964 14.0791C165.556 13.0991 166.358 12.3369 167.371 11.7924C168.383 11.2324 169.528 10.9524 170.805 10.9524C172.035 10.9524 173.141 11.2169 174.122 11.7458C175.119 12.2591 175.906 13.0058 176.482 13.9858C177.058 14.9502 177.347 16.1091 177.347 17.4624C177.347 17.6024 177.339 17.7658 177.323 17.9524C177.308 18.1235 177.292 18.2869 177.276 18.4424H167.067V16.3191H175.361L173.959 16.9491C173.959 16.2958 173.827 15.728 173.562 15.2458C173.297 14.7635 172.931 14.3902 172.464 14.1258C171.996 13.8458 171.451 13.7058 170.828 13.7058C170.205 13.7058 169.652 13.8458 169.169 14.1258C168.702 14.3902 168.336 14.7713 168.071 15.2691C167.807 15.7513 167.674 16.3269 167.674 16.9958V17.5558C167.674 18.2402 167.822 18.8469 168.118 19.3758C168.43 19.8891 168.858 20.2858 169.403 20.5658C169.964 20.8302 170.618 20.9624 171.366 20.9624C172.035 20.9624 172.619 20.8613 173.118 20.6591C173.632 20.4569 174.099 20.1535 174.52 19.7491L176.459 21.8491C175.882 22.5024 175.158 23.008 174.286 23.3658C173.414 23.708 172.409 23.8791 171.272 23.8791Z" fill="#051F39"/>
<path d="M179.773 23.6924V11.1391H183.254V14.6858L182.764 13.6591C183.137 12.7724 183.737 12.1035 184.562 11.6524C185.388 11.1858 186.393 10.9524 187.576 10.9524V14.3124C187.421 14.2969 187.28 14.2891 187.156 14.2891C187.031 14.2735 186.899 14.2658 186.759 14.2658C185.762 14.2658 184.952 14.5535 184.329 15.1291C183.721 15.6891 183.418 16.568 183.418 17.7658V23.6924H179.773Z" fill="#051F39"/>
<path d="M189.955 23.6924V7.3591H197.034C198.498 7.3591 199.76 7.60021 200.819 8.08244C201.878 8.5491 202.695 9.22577 203.272 10.1124C203.848 10.9991 204.136 12.0569 204.136 13.2858C204.136 14.4991 203.848 15.5491 203.272 16.4358C202.695 17.3224 201.878 18.0069 200.819 18.4891C199.76 18.9558 198.498 19.1891 197.034 19.1891H192.057L193.74 17.4858V23.6924H189.955ZM193.74 17.9058L192.057 16.1091H196.824C197.992 16.1091 198.864 15.8602 199.44 15.3624C200.016 14.8647 200.305 14.1724 200.305 13.2858C200.305 12.3835 200.016 11.6835 199.44 11.1858C198.864 10.688 197.992 10.4391 196.824 10.4391H192.057L193.74 8.64244V17.9058Z" fill="#051F39"/>
<path d="M206.558 23.6924V11.1391H210.04V14.6858L209.549 13.6591C209.923 12.7724 210.522 12.1035 211.348 11.6524C212.173 11.1858 213.178 10.9524 214.362 10.9524V14.3124C214.206 14.2969 214.066 14.2891 213.941 14.2891C213.817 14.2735 213.684 14.2658 213.544 14.2658C212.547 14.2658 211.737 14.5535 211.114 15.1291C210.507 15.6891 210.203 16.568 210.203 17.7658V23.6924H206.558Z" fill="#051F39"/>
<path d="M222.419 23.8791C221.079 23.8791 219.888 23.5991 218.844 23.0391C217.816 22.4791 216.998 21.7169 216.391 20.7524C215.799 19.7724 215.503 18.6602 215.503 17.4158C215.503 16.1558 215.799 15.0435 216.391 14.0791C216.998 13.0991 217.816 12.3369 218.844 11.7924C219.888 11.2324 221.079 10.9524 222.419 10.9524C223.742 10.9524 224.926 11.2324 225.97 11.7924C227.013 12.3369 227.831 13.0913 228.423 14.0558C229.015 15.0202 229.311 16.1402 229.311 17.4158C229.311 18.6602 229.015 19.7724 228.423 20.7524C227.831 21.7169 227.013 22.4791 225.97 23.0391C224.926 23.5991 223.742 23.8791 222.419 23.8791ZM222.419 20.8924C223.026 20.8924 223.571 20.7524 224.054 20.4724C224.537 20.1924 224.918 19.7958 225.199 19.2824C225.479 18.7535 225.619 18.1313 225.619 17.4158C225.619 16.6847 225.479 16.0624 225.199 15.5491C224.918 15.0358 224.537 14.6391 224.054 14.3591C223.571 14.0791 223.026 13.9391 222.419 13.9391C221.811 13.9391 221.266 14.0791 220.783 14.3591C220.3 14.6391 219.911 15.0358 219.615 15.5491C219.335 16.0624 219.194 16.6847 219.194 17.4158C219.194 18.1313 219.335 18.7535 219.615 19.2824C219.911 19.7958 220.3 20.1924 220.783 20.4724C221.266 20.7524 221.811 20.8924 222.419 20.8924Z" fill="#051F39"/>
<path d="M235.976 23.8791C234.901 23.8791 233.865 23.7547 232.868 23.5058C231.887 23.2413 231.108 22.9147 230.532 22.5258L231.747 19.9124C232.323 20.2702 233.001 20.5658 233.779 20.7991C234.574 21.0169 235.353 21.1258 236.116 21.1258C236.957 21.1258 237.549 21.0247 237.891 20.8224C238.25 20.6202 238.429 20.3402 238.429 19.9824C238.429 19.6869 238.288 19.4691 238.008 19.3291C237.743 19.1735 237.385 19.0569 236.933 18.9791C236.482 18.9013 235.983 18.8235 235.438 18.7458C234.909 18.668 234.371 18.5669 233.826 18.4424C233.281 18.3024 232.783 18.1002 232.331 17.8358C231.879 17.5713 231.513 17.2135 231.233 16.7624C230.968 16.3113 230.836 15.728 230.836 15.0124C230.836 14.2191 231.061 13.5191 231.513 12.9124C231.98 12.3058 232.65 11.8313 233.522 11.4891C234.395 11.1313 235.438 10.9524 236.653 10.9524C237.51 10.9524 238.382 11.0458 239.27 11.2324C240.158 11.4191 240.897 11.6913 241.489 12.0491L240.274 14.6391C239.667 14.2813 239.052 14.0402 238.429 13.9158C237.821 13.7758 237.229 13.7058 236.653 13.7058C235.843 13.7058 235.251 13.8147 234.877 14.0324C234.504 14.2502 234.317 14.5302 234.317 14.8724C234.317 15.1835 234.449 15.4169 234.714 15.5724C234.994 15.728 235.36 15.8524 235.812 15.9458C236.264 16.0391 236.754 16.1247 237.284 16.2024C237.829 16.2647 238.374 16.3658 238.919 16.5058C239.464 16.6458 239.955 16.848 240.391 17.1124C240.843 17.3613 241.209 17.7113 241.489 18.1624C241.77 18.598 241.91 19.1735 241.91 19.8891C241.91 20.6669 241.676 21.3591 241.209 21.9658C240.742 22.5569 240.064 23.0235 239.176 23.3658C238.304 23.708 237.237 23.8791 235.976 23.8791Z" fill="#051F39"/>
<g clip-path="url(#clip0_15238_33152)">
<path fill-rule="evenodd" clip-rule="evenodd" d="M7.2257 12.5097C7.2257 12.5097 5.29885 14.434 3.13114 16.599C1.08386 18.6437 0 21.2897 0 24.1763C0 26.9426 1.08386 29.709 3.13114 31.6334C3.25157 31.7536 3.25157 31.7536 3.37199 31.8739C5.41928 33.9186 8.0687 35.0011 10.8386 35.0011C13.6084 35.0011 16.3783 33.9186 18.4255 31.8739C20.5933 29.709 22.5201 27.7846 22.5201 27.7846C23.4835 26.8224 23.4835 25.3791 22.5201 24.4169C21.5567 23.4547 20.1115 23.4547 19.1481 24.4169C19.1481 24.4169 17.2213 26.3413 15.0535 28.5062C13.9697 29.5887 12.4041 30.1901 10.8386 30.1901C9.27299 30.1901 7.70742 29.5887 6.62356 28.5062L6.3827 28.2657C5.29885 27.1832 4.69671 25.6196 4.69671 24.056C4.69671 22.4925 5.29885 20.9289 6.3827 19.8464C8.55042 17.6815 10.4773 15.7571 10.4773 15.7571C11.4407 14.7949 11.4407 13.3516 10.4773 12.3894C9.63427 11.6677 8.18913 11.6677 7.2257 12.5097Z" fill="#FF7300"/>
<path fill-rule="evenodd" clip-rule="evenodd" d="M21.1966 10.4645L10.4784 21.1689C9.515 22.1311 9.515 23.5744 10.4784 24.5366C11.4419 25.4988 12.887 25.4988 13.8504 24.5366L24.5686 13.8321C25.532 12.8699 25.532 11.4267 24.5686 10.4645C23.6051 9.62253 22.16 9.62253 21.1966 10.4645Z" fill="#0061BF"/>
<path fill-rule="evenodd" clip-rule="evenodd" d="M27.8217 22.4914C27.8217 22.4914 29.7485 20.567 31.9162 18.4021C33.9635 16.3574 35.0474 13.7113 35.0474 10.945C35.0474 8.17869 33.9635 5.41237 31.9162 3.48797C31.7958 3.3677 31.7958 3.3677 31.6754 3.24742C29.7485 1.08247 26.9787 0 24.2088 0C21.439 0 18.6691 1.08247 16.6218 3.12715C14.4541 5.2921 12.5273 7.21649 12.5273 7.21649C11.5638 8.17869 11.5638 9.62199 12.5273 10.5842C13.4907 11.5464 14.9358 11.5464 15.8993 10.5842C15.8993 10.5842 17.8261 8.65979 19.9938 6.49484C21.0777 5.41237 22.6432 4.811 24.2088 4.811C25.7744 4.811 27.34 5.41237 28.4238 6.49484L28.6647 6.73539C29.7485 7.81787 30.3507 9.38144 30.3507 10.945C30.3507 12.5086 29.7485 14.0722 28.6647 15.1546C26.497 17.3196 24.5701 19.244 24.5701 19.244C23.6067 20.2062 23.6067 21.6495 24.5701 22.6117C25.4131 23.4536 26.8582 23.4536 27.8217 22.4914Z" fill="#FF7300"/>
</g>
<defs>
<clipPath id="clip0_15238_33152">
<rect width="35.0447" height="35" fill="white"/>
</clipPath>
</defs>
</svg>
