<svg width="23" height="22" viewBox="0 0 23 22" fill="none" xmlns="http://www.w3.org/2000/svg">
<path opacity="0.58" d="M22.5 0H0.5V22H22.5V0Z" fill="white"/>
<path fill-rule="evenodd" clip-rule="evenodd" d="M18.008 17.5627C18.5488 16.7377 18.7505 16.316 19.163 15.3902C16.1197 14.2352 15.6339 9.89935 18.6405 8.24018C17.7239 7.08518 16.4314 6.41602 15.2122 6.41602C14.3322 6.41602 13.7272 6.64519 13.1863 6.85602C12.728 7.03019 12.3155 7.18601 11.8022 7.18601C11.2522 7.18601 10.7664 7.01185 10.253 6.82851C9.70302 6.62685 9.11635 6.41602 8.38302 6.41602C7.01718 6.41602 5.55969 7.25018 4.63385 8.68018C3.33219 10.6968 3.56135 14.4735 5.66051 17.7002C6.41218 18.8552 7.42052 20.1477 8.73135 20.166C9.28135 20.1752 9.63885 20.0102 10.033 19.836C10.4822 19.6343 10.968 19.4143 11.8205 19.4143C12.673 19.4052 13.1497 19.6343 13.5989 19.836C13.9839 20.0102 14.3322 20.1752 14.873 20.166C16.193 20.1477 17.2563 18.7177 18.008 17.5627Z" fill="#AAB4BE"/>
<path fill-rule="evenodd" clip-rule="evenodd" d="M15.0194 1.83398C15.1661 2.84232 14.7536 3.84148 14.2128 4.53815C13.6353 5.28981 12.6269 5.87649 11.6553 5.83982C11.4811 4.86815 11.9303 3.86898 12.4803 3.19982C13.0944 2.46648 14.1303 1.89815 15.0194 1.83398Z" fill="#AAB4BE"/>
</svg>
