<svg width="207" height="209" viewBox="0 0 207 209" fill="none" xmlns="http://www.w3.org/2000/svg">
<path fill-rule="evenodd" clip-rule="evenodd" d="M167.98 109.487C171.249 111.266 172.62 113.636 172.815 117.629C174.703 117.731 174.553 116.549 175.149 114.482C176.153 110.761 175.289 113.013 181.238 109.194C182.436 108.417 183.598 107.748 184.747 106.979C185.039 107.876 185.257 108.795 185.4 109.724L186.606 115.185C186.776 116.126 186.995 117.059 187.262 117.98C187.531 117.804 188.917 117.01 189.088 116.839C189.448 116.301 189.972 106.409 190.083 105.045C190.158 103.779 189.878 103.859 190.906 103.252C193.451 101.74 197.449 99.9582 197.751 97.4848C197.861 96.4707 196.601 96.3998 195.833 96.4287C194.205 96.4942 189.875 99.4421 188.221 100.416C186.81 99.9551 179.589 96.6717 177.335 95.6459C176.305 95.1488 176.497 95.1299 175.741 95.6092C175.252 95.9086 174.897 96.1453 174.454 96.4428C175.993 98.2432 181.934 102.408 182.743 103.783C181.218 104.991 177.829 106.689 175.82 108.25C173.585 109.936 174.83 109.507 172.003 108.891C168.788 108.263 169.153 108.077 167.993 109.496L167.98 109.487Z" fill="#0D1525"/>
<path fill-rule="evenodd" clip-rule="evenodd" d="M167.972 114.46C167.871 114.519 167.759 114.555 167.642 114.567C167.525 114.578 167.406 114.564 167.293 114.526C167.179 114.487 167.074 114.426 166.983 114.344C166.892 114.263 166.818 114.163 166.764 114.052C166.711 113.941 166.679 113.82 166.672 113.698C166.665 113.576 166.683 113.454 166.723 113.341C166.764 113.228 166.827 113.126 166.908 113.041C166.989 112.955 167.087 112.889 167.196 112.846L168.722 112.105C168.933 112.005 169.177 111.998 169.4 112.086C169.623 112.173 169.807 112.348 169.911 112.571C170.016 112.794 170.032 113.048 169.956 113.276C169.881 113.504 169.72 113.688 169.509 113.788L167.972 114.46Z" fill="#0D1525"/>
<path fill-rule="evenodd" clip-rule="evenodd" d="M1.88097 104.926C1.99079 104.98 2.08985 105.056 2.17218 105.15C2.25451 105.243 2.31842 105.352 2.36007 105.47C2.40171 105.588 2.42023 105.713 2.4145 105.837C2.40878 105.96 2.37892 106.081 2.32675 106.19C2.27457 106.3 2.20115 106.396 2.11089 106.474C2.02063 106.552 1.9154 106.609 1.80154 106.643C1.68767 106.677 1.56751 106.686 1.4483 106.67C1.32908 106.654 1.21327 106.613 1.10782 106.55L-0.387207 105.666C-0.588926 105.545 -0.740972 105.35 -0.811569 105.121C-0.882166 104.893 -0.865854 104.648 -0.766044 104.438C-0.666235 104.229 -0.49065 104.07 -0.275974 103.997C-0.061299 103.923 0.175858 103.939 0.38594 104.042L1.88097 104.926Z" fill="#0D1525"/>
<path fill-rule="evenodd" clip-rule="evenodd" d="M8.1892 108.333C8.39092 108.454 8.54296 108.649 8.61356 108.878C8.68416 109.107 8.66784 109.351 8.56803 109.561C8.46822 109.77 8.29264 109.929 8.07797 110.002C7.86329 110.076 7.62613 110.06 7.41605 109.957L5.83061 109.159C5.62889 109.039 5.47685 108.844 5.40625 108.615C5.33565 108.386 5.35197 108.141 5.45178 107.932C5.55159 107.722 5.72717 107.564 5.94185 107.49C6.15652 107.416 6.39368 107.433 6.60376 107.536L8.1892 108.333Z" fill="#0D1525"/>
<path fill-rule="evenodd" clip-rule="evenodd" d="M14.4731 111.522C15.611 112.142 14.774 113.692 13.8465 113.203L12.1891 112.417C11.1177 111.788 11.8881 110.246 12.8956 110.802L14.4731 111.522Z" fill="#0D1525"/>
<path fill-rule="evenodd" clip-rule="evenodd" d="M20.9397 114.544C21.9866 114.954 21.4266 116.627 20.3131 116.226L18.6557 115.439C18.4448 115.343 18.2758 115.166 18.1859 114.946C18.0961 114.726 18.0928 114.482 18.1767 114.267C18.2605 114.051 18.4248 113.883 18.6333 113.798C18.8417 113.714 19.0774 113.72 19.2883 113.815L20.9397 114.544Z" fill="#0D1525"/>
<path fill-rule="evenodd" clip-rule="evenodd" d="M27.4433 117.266C28.4849 117.679 28.0102 119.416 26.8912 118.943L25.2581 118.301C25.1505 118.259 25.0511 118.195 24.9656 118.114C24.8801 118.034 24.8101 117.937 24.7596 117.829C24.7092 117.721 24.6793 117.606 24.6716 117.488C24.664 117.37 24.6787 117.253 24.7149 117.143C24.7512 117.033 24.8083 116.932 24.8829 116.846C24.9576 116.761 25.0484 116.692 25.1501 116.644C25.2518 116.596 25.3625 116.569 25.4757 116.566C25.589 116.562 25.7027 116.582 25.8103 116.624L27.4433 117.266Z" fill="#0D1525"/>
<path fill-rule="evenodd" clip-rule="evenodd" d="M34.0648 119.835C35.1704 120.233 34.5517 121.918 33.5101 121.506L31.8717 120.866C31.7641 120.824 31.6647 120.761 31.5792 120.68C31.4937 120.599 31.4237 120.502 31.3732 120.394C31.3228 120.287 31.2929 120.171 31.2852 120.053C31.2776 119.935 31.2923 119.818 31.3285 119.708C31.3648 119.598 31.4219 119.497 31.4965 119.412C31.5712 119.326 31.662 119.257 31.7637 119.209C31.8654 119.161 31.9761 119.135 32.0893 119.131C32.2026 119.128 32.3163 119.148 32.4238 119.19L34.0648 119.835Z" fill="#0D1525"/>
<path fill-rule="evenodd" clip-rule="evenodd" d="M40.7168 122.103C41.8114 122.357 41.4113 124.163 40.2368 123.842L38.6092 123.272C38.4982 123.239 38.3936 123.185 38.3013 123.111C38.2091 123.037 38.131 122.946 38.0716 122.842C37.9515 122.633 37.9147 122.386 37.9692 122.156C38.0237 121.926 38.1651 121.731 38.3622 121.614C38.5593 121.498 38.796 121.47 39.0202 121.535L40.7168 122.103Z" fill="#0D1525"/>
<path fill-rule="evenodd" clip-rule="evenodd" d="M47.4711 124.062C47.6831 124.138 47.8624 124.294 47.9724 124.498C48.0825 124.702 48.1149 124.938 48.0631 125.16C48.0114 125.381 47.8793 125.57 47.6939 125.689C47.5085 125.807 47.2837 125.845 47.0655 125.796L45.3824 125.378C45.1493 125.314 44.9469 125.157 44.8196 124.942C44.6923 124.727 44.6506 124.471 44.7036 124.232C44.7567 123.992 44.9002 123.788 45.1025 123.665C45.3048 123.541 45.5494 123.508 45.7825 123.572L47.4711 124.062Z" fill="#0D1525"/>
<path fill-rule="evenodd" clip-rule="evenodd" d="M54.2567 125.784C55.2793 126.05 55.1451 127.835 53.9286 127.579L52.179 127.17C51.1644 126.982 51.2906 125.119 52.5071 125.375L54.2567 125.784Z" fill="#0D1525"/>
<path fill-rule="evenodd" clip-rule="evenodd" d="M61.1005 127.314C61.2265 127.311 61.3527 127.337 61.4698 127.391C61.5869 127.445 61.6919 127.524 61.7772 127.624C61.8624 127.725 61.9258 127.842 61.9625 127.969C61.9993 128.096 62.0086 128.228 61.9897 128.357C61.9708 128.486 61.9242 128.607 61.8534 128.713C61.7825 128.818 61.6891 128.905 61.5801 128.966C61.4711 129.028 61.3493 129.063 61.2234 129.069C61.0976 129.074 60.971 129.051 60.853 129L59.1089 128.662C58.985 128.663 58.8613 128.636 58.7466 128.582C58.6319 128.528 58.529 128.45 58.4451 128.352C58.3613 128.253 58.2985 128.138 58.2613 128.014C58.2242 127.89 58.2134 127.76 58.23 127.633C58.2465 127.506 58.2898 127.386 58.3569 127.28C58.424 127.175 58.5132 127.087 58.6181 127.023C58.7231 126.958 58.8414 126.92 58.9645 126.909C59.0876 126.898 59.2125 126.916 59.3304 126.96L61.1005 127.314Z" fill="#0D1525"/>
<path fill-rule="evenodd" clip-rule="evenodd" d="M67.9538 128.454C68.1836 128.49 68.394 128.618 68.5387 128.811C68.6834 129.004 68.7505 129.246 68.7253 129.483C68.7001 129.72 68.5847 129.934 68.4043 130.076C68.224 130.219 67.9936 130.279 67.7637 130.244L66.0384 129.979C65.8086 129.943 65.5982 129.815 65.4535 129.622C65.3088 129.429 65.2417 129.187 65.2669 128.95C65.2921 128.713 65.4075 128.499 65.5879 128.357C65.7682 128.214 65.9986 128.154 66.2285 128.189L67.9538 128.454Z" fill="#0D1525"/>
<path fill-rule="evenodd" clip-rule="evenodd" d="M74.8519 129.373C74.9692 129.373 75.0864 129.398 75.196 129.446C75.3056 129.494 75.4053 129.565 75.489 129.654C75.5727 129.743 75.6386 129.848 75.6826 129.963C75.7266 130.078 75.7478 130.2 75.7448 130.321C75.7418 130.443 75.7147 130.562 75.6652 130.67C75.6157 130.779 75.5449 130.874 75.4571 130.952C75.3693 131.029 75.2664 131.086 75.1548 131.12C75.0432 131.153 74.9252 131.162 74.8082 131.146L73.014 130.959C71.9438 130.849 71.9819 129.004 73.1212 129.111L74.8519 129.373Z" fill="#0D1525"/>
<path fill-rule="evenodd" clip-rule="evenodd" d="M80.0608 129.802C80.6303 129.818 81.2054 129.907 81.8416 129.915C83.0528 130.011 82.7962 131.809 81.8035 131.759C81.1324 131.686 80.5922 131.663 80.0146 131.569C79.7884 131.554 79.5738 131.446 79.4181 131.269C79.2624 131.092 79.1784 130.861 79.1845 130.627C79.1906 130.392 79.2864 130.174 79.4507 130.019C79.615 129.865 79.8345 129.786 80.0608 129.802Z" fill="#0D1525"/>
<path fill-rule="evenodd" clip-rule="evenodd" d="M88.7335 130.242C88.8476 130.242 88.9615 130.265 89.0685 130.311C89.1754 130.357 89.2733 130.425 89.3561 130.509C89.439 130.594 89.5052 130.695 89.5508 130.805C89.5965 130.916 89.6206 131.034 89.6218 131.152C89.623 131.271 89.6012 131.387 89.5577 131.495C89.5142 131.603 89.45 131.7 89.3687 131.779C89.2875 131.859 89.191 131.921 89.0849 131.96C88.9787 132 88.8652 132.016 88.751 132.009L87.0609 131.958C86.9449 131.963 86.8283 131.942 86.7183 131.899C86.6084 131.855 86.5074 131.788 86.4215 131.703C86.3356 131.618 86.2668 131.517 86.2191 131.405C86.1715 131.293 86.1461 131.172 86.1446 131.052C86.143 130.931 86.1653 130.812 86.21 130.703C86.2548 130.593 86.321 130.495 86.4048 130.415C86.4885 130.334 86.5878 130.273 86.6967 130.235C86.8057 130.197 86.9218 130.183 87.038 130.194L88.7335 130.242Z" fill="#0D1525"/>
<path fill-rule="evenodd" clip-rule="evenodd" d="M95.6462 130.203C95.8794 130.191 96.1111 130.276 96.2903 130.44C96.4696 130.603 96.5817 130.831 96.602 131.074C96.6224 131.317 96.5492 131.554 96.3987 131.734C96.2482 131.913 96.0327 132.021 95.7995 132.032L94.0376 132.067C93.8037 132.071 93.5742 131.978 93.3996 131.808C93.225 131.639 93.1196 131.408 93.1067 131.164C93.0938 130.921 93.1743 130.687 93.3306 130.512C93.4869 130.337 93.7062 130.237 93.9401 130.233L95.6462 130.203Z" fill="#0D1525"/>
<path fill-rule="evenodd" clip-rule="evenodd" d="M102.593 129.866C102.827 129.855 103.058 129.94 103.237 130.103C103.417 130.267 103.529 130.495 103.549 130.737C103.57 130.98 103.496 131.217 103.346 131.397C103.195 131.577 102.98 131.684 102.747 131.696L100.983 131.785C100.75 131.796 100.518 131.711 100.339 131.548C100.16 131.384 100.047 131.156 100.027 130.914C100.007 130.671 100.08 130.434 100.23 130.254C100.381 130.074 100.596 129.967 100.83 129.955L102.593 129.866Z" fill="#0D1525"/>
<path fill-rule="evenodd" clip-rule="evenodd" d="M107.766 129.488L109.504 129.308C110.693 129.191 110.788 131.019 109.742 131.128L108.002 131.302C107.771 131.325 107.538 131.251 107.352 131.097C107.167 130.943 107.045 130.722 107.014 130.481C106.983 130.241 107.044 130.001 107.186 129.815C107.327 129.628 107.535 129.511 107.766 129.488Z" fill="#0D1525"/>
<path fill-rule="evenodd" clip-rule="evenodd" d="M116.301 128.402C116.53 128.369 116.766 128.432 116.957 128.578C117.148 128.724 117.278 128.94 117.319 129.179C117.36 129.418 117.308 129.661 117.175 129.853C117.042 130.045 116.838 130.172 116.609 130.205L114.946 130.453C114.83 130.476 114.709 130.474 114.591 130.447C114.474 130.42 114.362 130.368 114.262 130.296C114.162 130.223 114.077 130.131 114.011 130.024C113.946 129.918 113.902 129.8 113.881 129.677C113.86 129.554 113.864 129.428 113.891 129.309C113.918 129.189 113.969 129.078 114.04 128.981C114.112 128.884 114.201 128.804 114.305 128.746C114.408 128.688 114.523 128.652 114.641 128.642L116.301 128.402Z" fill="#0D1525"/>
<path fill-rule="evenodd" clip-rule="evenodd" d="M123.138 127.262C123.247 127.241 123.359 127.243 123.468 127.267C123.578 127.291 123.683 127.337 123.777 127.403C123.871 127.468 123.952 127.552 124.016 127.649C124.08 127.745 124.125 127.854 124.15 127.967C124.174 128.081 124.177 128.197 124.158 128.31C124.139 128.423 124.099 128.53 124.039 128.625C123.98 128.72 123.902 128.801 123.812 128.864C123.721 128.926 123.618 128.969 123.51 128.99L121.788 129.31C121.68 129.331 121.568 129.33 121.458 129.305C121.349 129.281 121.244 129.235 121.15 129.17C121.056 129.104 120.975 129.021 120.911 128.924C120.847 128.827 120.801 128.719 120.777 128.605C120.752 128.492 120.749 128.375 120.768 128.262C120.787 128.15 120.828 128.043 120.887 127.948C120.947 127.853 121.024 127.771 121.115 127.709C121.206 127.646 121.308 127.603 121.417 127.582L123.138 127.262Z" fill="#0D1525"/>
<path fill-rule="evenodd" clip-rule="evenodd" d="M128.148 126.164C128.729 126.096 129.304 125.989 129.869 125.844C130.087 125.792 130.318 125.832 130.514 125.956C130.709 126.081 130.852 126.278 130.91 126.506C130.969 126.734 130.939 126.973 130.827 127.171C130.715 127.368 130.53 127.509 130.313 127.561L128.6 127.959C127.435 128.221 127.124 126.412 128.136 126.136L128.148 126.164Z" fill="#0D1525"/>
<path fill-rule="evenodd" clip-rule="evenodd" d="M136.566 124.131C136.777 124.087 137.001 124.129 137.19 124.248C137.379 124.368 137.52 124.556 137.585 124.774C137.649 124.993 137.632 125.225 137.537 125.424C137.442 125.624 137.276 125.775 137.073 125.848L135.36 126.32C135.25 126.36 135.133 126.376 135.015 126.367C134.897 126.358 134.781 126.324 134.675 126.267C134.569 126.21 134.474 126.131 134.397 126.036C134.319 125.94 134.261 125.83 134.226 125.712C134.191 125.594 134.179 125.471 134.191 125.35C134.204 125.229 134.241 125.112 134.299 125.009C134.357 124.905 134.436 124.815 134.53 124.746C134.625 124.677 134.733 124.629 134.847 124.605L136.566 124.131Z" fill="#0D1525"/>
<path fill-rule="evenodd" clip-rule="evenodd" d="M143.148 122.136C144.233 121.807 144.751 123.594 143.731 123.908L142.018 124.38C141.908 124.419 141.791 124.434 141.674 124.424C141.556 124.414 141.441 124.379 141.336 124.321C141.23 124.264 141.136 124.185 141.06 124.09C140.983 123.994 140.926 123.884 140.891 123.766C140.856 123.649 140.845 123.526 140.857 123.405C140.87 123.285 140.907 123.169 140.965 123.066C141.023 122.962 141.101 122.873 141.195 122.804C141.289 122.735 141.396 122.687 141.511 122.663L143.148 122.136Z" fill="#0D1525"/>
<path fill-rule="evenodd" clip-rule="evenodd" d="M149.634 120.008C149.848 119.928 150.088 119.941 150.3 120.044C150.513 120.147 150.68 120.331 150.766 120.557C150.852 120.783 150.849 121.031 150.759 121.248C150.668 121.464 150.496 121.631 150.282 121.711L148.657 122.24C148.448 122.302 148.22 122.278 148.021 122.174C147.821 122.069 147.664 121.891 147.581 121.676C147.499 121.461 147.497 121.225 147.576 121.015C147.654 120.805 147.808 120.637 148.006 120.545L149.634 120.008Z" fill="#0D1525"/>
<path fill-rule="evenodd" clip-rule="evenodd" d="M156.099 117.579C156.313 117.486 156.557 117.487 156.777 117.581C156.998 117.676 157.177 117.856 157.275 118.082C157.373 118.308 157.382 118.561 157.3 118.787C157.217 119.012 157.051 119.191 156.837 119.283L155.154 119.898C154.944 119.96 154.716 119.936 154.516 119.831C154.316 119.726 154.16 119.547 154.078 119.331C153.996 119.116 153.994 118.879 154.074 118.669C154.154 118.459 154.309 118.292 154.508 118.201L156.099 117.579Z" fill="#0D1525"/>
<path fill-rule="evenodd" clip-rule="evenodd" d="M162.461 114.945C162.675 114.852 162.919 114.853 163.14 114.947C163.36 115.041 163.539 115.221 163.637 115.447C163.735 115.673 163.744 115.927 163.662 116.152C163.58 116.378 163.413 116.556 163.199 116.649L161.585 117.349C161.371 117.441 161.126 117.44 160.906 117.346C160.685 117.252 160.506 117.072 160.408 116.846C160.31 116.62 160.301 116.366 160.384 116.141C160.466 115.916 160.632 115.737 160.846 115.644L162.461 114.945Z" fill="#0D1525"/>
</svg>
