<svg width="510" height="450" viewBox="0 0 510 450" fill="none" xmlns="http://www.w3.org/2000/svg">
<g clip-path="url(#clip0_15053_26268)">
<path opacity="0.08" fill-rule="evenodd" clip-rule="evenodd" d="M225.981 13.4085C345.664 9.04062 425.435 26.8738 467.868 152.365C512.908 285.568 473.54 353.742 367.77 432.737C277.598 500.083 179.56 394.355 90.6855 324.877C-3.53623 251.219 -2.3895 214.988 39.485 95.0991C76.457 -10.7534 124.604 17.1083 225.981 13.4085Z" fill="url(#paint0_linear_15053_26268)"/>
<path d="M328.958 248.978C328.827 248.978 328.696 248.943 328.576 248.87L325.961 247.255C325.616 247.043 325.508 246.589 325.719 246.242C325.931 245.895 326.381 245.787 326.726 245.999L329.341 247.614C329.686 247.826 329.794 248.28 329.582 248.627C329.445 248.853 329.204 248.978 328.958 248.978Z" fill="black"/>
<path d="M338.112 254.631C337.981 254.631 337.849 254.595 337.73 254.522L335.114 252.908C334.77 252.695 334.661 252.242 334.873 251.895C335.084 251.548 335.535 251.439 335.879 251.652L338.495 253.266C338.839 253.479 338.947 253.932 338.736 254.279C338.598 254.506 338.358 254.631 338.112 254.631Z" fill="black"/>
<path d="M328.655 256.94C328.526 256.94 328.395 256.906 328.277 256.834C327.931 256.623 327.82 256.17 328.03 255.822L329.618 253.18C329.827 252.832 330.277 252.72 330.622 252.931C330.968 253.141 331.079 253.594 330.87 253.942L329.282 256.585C329.144 256.813 328.903 256.94 328.655 256.94Z" fill="black"/>
<path d="M334.212 247.696C334.083 247.696 333.952 247.661 333.834 247.589C333.488 247.379 333.377 246.926 333.586 246.578L335.174 243.936C335.383 243.587 335.833 243.476 336.179 243.687C336.525 243.897 336.636 244.35 336.426 244.698L334.838 247.34C334.701 247.569 334.459 247.696 334.212 247.696Z" fill="black"/>
<g filter="url(#filter0_d_15053_26268)">
<path d="M156.346 112.76H434.137C440.269 112.76 444.368 117.763 443.292 123.934L409.89 315.643C408.814 321.815 402.972 326.818 396.841 326.818H119.05C112.919 326.818 108.82 321.815 109.895 315.643L143.297 123.934C144.373 117.763 150.215 112.76 156.346 112.76Z" fill="white"/>
</g>
<path opacity="0.8" d="M163.194 120.156H425.731C431.525 120.156 435.399 124.814 434.383 130.559L402.815 309.029C401.798 314.774 396.277 319.432 390.482 319.432H127.946C122.151 319.432 118.277 314.774 119.294 309.029L150.862 130.559C151.878 124.814 157.4 120.156 163.194 120.156Z" fill="#EBEFF2"/>
<path d="M432.489 140.383H149.94C151.265 122.292 158.329 120.164 162.743 120.164C167.158 120.164 413.947 119.632 426.75 120.164C436.992 120.59 434.844 133.821 432.489 140.383Z" fill="#0061BF"/>
<ellipse cx="167.169" cy="130.154" rx="3.09243" ry="3.11276" fill="white"/>
<ellipse cx="177.771" cy="130.154" rx="3.09243" ry="3.11276" fill="white"/>
<ellipse cx="188.374" cy="130.154" rx="3.09243" ry="3.11276" fill="white"/>
<path d="M151.302 178.552L155.448 158.762C156.099 155.653 158.841 153.426 162.018 153.426H189.939C194.237 153.426 197.428 157.408 196.49 161.603L192.068 181.392C191.383 184.46 188.66 186.641 185.517 186.641H157.873C153.611 186.641 150.428 182.722 151.302 178.552Z" fill="white"/>
<path d="M291.798 242.753C291.159 247.783 286.88 251.554 281.809 251.554H199.363C193.299 251.554 188.61 246.233 189.374 240.216L195.399 192.764C196.037 187.734 200.317 183.963 205.388 183.963H287.833C293.898 183.963 298.587 189.284 297.823 195.301L291.798 242.753Z" fill="white"/>
<path d="M397.363 242.683C396.756 247.745 392.463 251.554 387.365 251.554H310.611C304.574 251.554 299.894 246.279 300.613 240.286L306.303 192.834C306.91 187.772 311.203 183.963 316.301 183.963H393.055C399.092 183.963 403.772 189.238 403.053 195.231L397.363 242.683Z" fill="white"/>
<path d="M391.222 268.459C390.601 271.062 388.275 272.9 385.598 272.9H195.255C191.52 272.9 188.766 269.411 189.632 265.779C190.252 263.175 192.578 261.338 195.255 261.338H385.598C389.333 261.338 392.087 264.826 391.222 268.459Z" fill="white"/>
<path d="M406.888 173.216C406.389 174.343 405.273 175.069 404.041 175.069H208.62C206.37 175.069 204.863 172.755 205.774 170.697C206.273 169.57 207.389 168.844 208.62 168.844H404.041C406.292 168.844 407.798 171.158 406.888 173.216Z" fill="white"/>
<path d="M386.82 288.012C386.204 290.621 383.875 292.464 381.195 292.464H192.589C188.859 292.464 186.105 288.984 186.963 285.354C187.579 282.745 189.908 280.902 192.589 280.902H381.194C384.924 280.902 387.678 284.382 386.82 288.012Z" fill="white"/>
<path d="M402.598 160.799C402.045 162.419 400.522 163.508 398.81 163.508H206.782C204.038 163.508 202.108 160.81 202.994 158.213C203.547 156.593 205.07 155.504 206.782 155.504H398.81C401.554 155.504 403.484 158.202 402.598 160.799Z" fill="white"/>
<path d="M384.174 306.26C383.543 309.111 381.016 311.14 378.096 311.14H188.619C184.639 311.14 181.681 307.456 182.541 303.57C183.172 300.719 185.699 298.689 188.619 298.689H378.096C382.076 298.689 385.034 302.374 384.174 306.26Z" fill="white"/>
<path d="M168.319 305.535C167.707 308.667 164.975 310.936 161.783 310.96L130.483 311.205C127.813 311.226 125.798 308.773 126.32 306.137L146.796 198.118C147.397 194.944 150.174 192.649 153.404 192.655L182.226 192.711C186.444 192.719 189.61 196.57 188.801 200.711L168.319 305.535Z" fill="white"/>
<path d="M249.917 214.004L254.199 214.004C255.974 214.004 257.412 215.522 257.411 217.396C257.411 219.271 255.974 220.789 254.2 220.789L245.634 220.789C243.86 220.789 242.423 219.271 242.423 217.397C242.423 216.772 241.943 216.266 241.352 216.266C240.761 216.266 240.281 216.772 240.281 217.397C240.281 220.52 242.678 223.051 245.634 223.051L254.2 223.051C257.156 223.051 259.553 220.52 259.553 217.397C259.553 214.273 257.157 211.742 254.199 211.742H249.917C249.326 211.742 248.846 212.248 248.846 212.873C248.846 213.497 249.326 214.004 249.917 214.004Z" fill="#FF7300"/>
<path d="M227.65 217.396C227.65 220.519 230.047 223.051 233.003 223.051H238.141C238.732 223.051 239.212 222.545 239.212 221.92C239.212 221.295 238.732 220.789 238.141 220.789H233.003C231.229 220.789 229.791 219.269 229.791 217.396C229.791 215.522 231.229 214.003 233.003 214.003L242.424 214.003C244.198 214.003 245.635 215.522 245.635 217.396C245.635 218.02 246.114 218.527 246.706 218.527C247.297 218.527 247.776 218.02 247.776 217.396C247.776 214.272 245.38 211.741 242.424 211.741H233.003C230.046 211.741 227.65 214.272 227.65 217.396Z" fill="#FF7300"/>
<path d="M357.708 214.004L361.99 214.004C363.765 214.004 365.203 215.522 365.202 217.396C365.202 219.271 363.765 220.789 361.991 220.789L353.425 220.789C351.651 220.789 350.214 219.271 350.214 217.397C350.214 216.772 349.734 216.266 349.143 216.266C348.552 216.266 348.072 216.772 348.072 217.397C348.072 220.52 350.469 223.051 353.425 223.051L361.991 223.051C364.947 223.051 367.344 220.52 367.344 217.397C367.345 214.273 364.948 211.742 361.99 211.742H357.708C357.117 211.742 356.637 212.248 356.637 212.873C356.637 213.497 357.117 214.004 357.708 214.004Z" fill="#0061BF"/>
<path d="M335.441 217.396C335.441 220.519 337.838 223.051 340.794 223.051H345.932C346.523 223.051 347.003 222.545 347.003 221.92C347.003 221.295 346.523 220.789 345.932 220.789H340.794C339.021 220.789 337.582 219.269 337.582 217.396C337.582 215.522 339.02 214.003 340.794 214.003L350.215 214.003C351.989 214.003 353.426 215.522 353.426 217.396C353.426 218.02 353.905 218.527 354.497 218.527C355.088 218.527 355.567 218.02 355.567 217.396C355.567 214.272 353.171 211.741 350.215 211.741H340.794C337.837 211.741 335.441 214.272 335.441 217.396Z" fill="#0061BF"/>
<ellipse opacity="0.2" cx="107.425" cy="420.46" rx="55.234" ry="4.8075" fill="#FF7300"/>
<path d="M147.641 226.782C147.641 226.782 152.147 229.375 153.649 229.877C155.151 230.379 171.676 206.288 171.676 206.288C171.676 206.288 174.68 192.738 176.182 191.734C177.684 190.73 178.184 200.266 178.184 200.266C178.184 200.266 184.227 199.463 188.033 198.192C190.929 197.224 182.19 211.307 177.684 210.805C177.684 210.805 160.158 247.443 154.651 246.439C149.143 245.435 139.63 240.416 139.63 240.416L147.641 226.782Z" fill="#FFC6AD"/>
<path d="M74.9378 406.099C74.9378 406.099 72.1171 415.994 74.6482 418.291C76.2234 419.719 89.1682 421.302 94.1765 421.302C99.1834 421.302 105.692 417.789 97.6814 413.774C89.6703 409.759 87.6675 407.752 86.6661 405.242L74.9378 406.099Z" fill="#FFB156"/>
<path d="M113.014 406.099C113.014 406.099 110.193 415.994 112.724 418.291C114.3 419.719 127.244 421.302 132.253 421.302C137.26 421.302 143.769 417.789 135.758 413.774C127.746 409.759 125.744 407.752 124.742 405.242L113.014 406.099Z" fill="#FFB156"/>
<path d="M74.0342 404.861C74.0342 404.861 75.1859 406.557 77.7445 407.662C80.248 408.746 84.1087 409.263 89.557 407.075L102.575 301.408C102.575 301.408 116.094 335.712 118.098 347.882C118.819 352.269 111.088 405.117 111.088 405.117C111.088 405.117 118.098 412.866 128.112 408.439C128.112 408.439 138.967 355.315 139.627 346.22C140.629 332.388 126.109 277.623 126.109 277.623L75.5376 271.535L75.448 279.365L74.0342 404.861Z" fill="#3A67B3"/>
<path d="M82.5425 233.396C82.548 233.39 82.548 233.39 82.548 233.39C82.548 233.39 81.046 251.961 74.537 263.002C68.028 274.043 81.046 285.587 100.574 286.089C120.103 286.591 127.613 282.074 129.115 274.546C129.336 273.447 129.296 272.422 129.09 271.384C127.893 265.337 120.963 258.666 124.995 233.111C125.03 232.875 125.07 232.63 125.111 232.388L140.632 243.931C140.632 243.931 141.934 242.521 143.421 239.796C145.139 236.664 147.107 231.8 147.642 225.362C147.642 225.362 133.122 210.808 127.613 207.295C122.105 203.782 112.592 206.291 112.592 206.291L104.115 202.402C104.115 202.402 90.5605 195.25 64.0225 221.85C64.0225 221.85 68.5287 234.899 75.0377 237.911L82.5425 233.396Z" fill="url(#paint1_linear_15053_26268)"/>
<path opacity="0.25" d="M100.572 286.089C120.1 286.591 127.61 282.074 129.112 274.546C129.333 273.447 129.293 272.423 129.087 271.384C126.479 277.201 120.54 282.797 107.082 276.052C84.0487 264.509 95.0653 228.373 92.0598 227.872C89.0556 227.37 82.5466 233.392 82.5466 233.392C82.5466 233.392 81.0446 251.962 74.5356 263.003C68.0252 274.043 81.0432 285.587 100.572 286.089Z" fill="#FE7E15"/>
<path d="M124.992 233.112C125.027 232.875 125.067 232.631 125.108 232.389L140.629 243.932C140.629 243.932 141.932 242.521 143.418 239.796C134.035 236.123 128.282 223.968 127.111 224.359C125.609 224.861 124.992 233.112 124.992 233.112Z" fill="#FF7300"/>
<path d="M81.4652 296.296L119.144 254.2C122.251 250.728 121.96 245.338 118.496 242.223L102.767 228.08C99.3039 224.965 93.9259 225.257 90.8183 228.73L53.1396 270.826C50.032 274.299 50.323 279.688 53.7865 282.803L69.5148 296.946C72.981 300.061 78.3576 299.769 81.4652 296.296Z" fill="url(#paint2_linear_15053_26268)"/>
<path d="M90.2989 251.863L92.513 249.505C93.4309 248.528 95.0022 248.521 96.0239 249.491C97.0459 250.46 97.1306 252.037 96.2135 253.013L91.7844 257.73C90.8673 258.707 89.2959 258.713 88.2742 257.744C87.9336 257.421 87.4096 257.423 87.1038 257.749C86.7981 258.074 86.8263 258.6 87.1669 258.923C88.8699 260.538 91.4892 260.527 93.0179 258.9L97.4469 254.183C98.9756 252.555 98.8343 249.927 97.1313 248.312C95.4285 246.696 92.809 246.707 91.2795 248.336L89.0654 250.693C88.7596 251.019 88.7879 251.545 89.1285 251.868C89.4691 252.191 89.9931 252.189 90.2989 251.863Z" fill="#0061BF"/>
<path d="M80.6327 265.878C82.3357 267.493 84.9558 267.482 86.4845 265.855L89.141 263.026C89.4467 262.7 89.4185 262.174 89.0779 261.851C88.7373 261.528 88.2133 261.53 87.9075 261.856L85.2511 264.685C84.3339 265.662 82.7617 265.668 81.7399 264.699C80.7182 263.73 80.6335 262.153 81.5506 261.177L86.422 255.989C87.3392 255.012 88.9105 255.006 89.9322 255.975C90.2728 256.298 90.7968 256.296 91.1026 255.97C91.4083 255.645 91.3801 255.119 91.0395 254.796C89.3365 253.181 86.7172 253.192 85.1885 254.819L80.3172 260.007C78.7885 261.635 78.9297 264.263 80.6327 265.878Z" fill="#0061BF"/>
<path d="M72.3812 236.067L67.526 240.919C67.526 240.919 78.5412 255.974 93.0626 264.508C93.0626 264.508 99.0709 260.493 100.573 261.496C102.075 262.5 97.0902 266.863 97.0902 266.863C97.0902 266.863 103.076 269.526 104.078 269.526C105.079 269.526 106.581 268.021 106.581 268.021C106.581 268.021 108.083 270.53 106.581 272.035C105.079 273.541 102.576 277.054 99.5716 277.054C96.5675 277.054 93.0626 274.545 90.0585 272.035C90.0585 272.035 65.5232 258.485 60.0156 254.47C54.508 250.455 51.5039 246.942 52.5053 242.425C53.5066 237.909 64.3274 222.676 64.3274 222.676C64.3274 222.676 68.2239 232.721 72.3812 236.067Z" fill="#FFC6AD"/>
<path d="M105.81 195.161C105.81 195.161 100.072 184.205 101.574 177.179C103.076 170.153 107.582 171.157 107.582 171.157C107.582 171.157 108.584 161.622 119.098 163.127C129.613 164.633 131.615 158.61 134.119 161.12C136.622 163.629 137.624 171.157 132.116 176.176C132.116 176.176 134.62 182.7 127.61 189.224L105.81 195.161Z" fill="#292466"/>
<path d="M106.58 187.717C106.58 187.717 106.079 199.26 103.075 204.78C103.075 204.78 110.085 214.817 116.594 213.312C123.103 211.806 115.092 207.29 118.096 200.765L106.58 187.717Z" fill="#FFCBC2"/>
<path d="M129.114 176.676C129.114 176.676 130.867 202.522 120.852 204.028C110.838 205.534 106.332 188.47 106.332 188.47C106.332 188.47 103.077 188.219 103.579 184.204C104.08 180.189 107.084 181.694 108.085 186.211C108.085 186.211 112.091 184.706 110.589 178.181C110.589 178.181 112.754 178.002 120.602 179.687C127.612 181.194 129.114 176.676 129.114 176.676Z" fill="#FFC6AD"/>
<path d="M319.168 275.904C317.542 282.221 314.013 288.088 312.206 294.452C310.263 301.295 308.032 308.492 308.603 315.698C309.206 323.313 314.181 326.913 321.32 328.282C328.35 329.629 335.488 330.397 342.641 330.575C348.698 330.726 355.547 330.087 359.389 325.372C360.362 324.177 361.088 322.739 361.243 321.203C361.53 318.352 359.801 315.614 357.551 313.857C353.435 310.64 350.852 311.993 346.338 312.154C340.716 312.354 335.016 311.281 329.49 310.382C328.345 310.196 327.047 309.907 326.478 308.889C326.17 308.336 326.147 307.672 326.147 307.039C326.143 301.935 325.475 296.63 326.072 291.564C326.379 288.957 326.686 286.351 326.993 283.744C327.413 280.179 327.825 276.503 326.85 273.05C325.875 269.597 323.149 266.387 319.605 265.998C318.47 265.873 317.249 266.069 316.371 266.802C314.998 267.951 314.866 270.116 315.581 271.763C316.252 273.31 317.58 275.171 319.236 275.642C319.213 275.729 319.19 275.816 319.168 275.904Z" fill="#FFCBC2"/>
<path opacity="0.3" d="M432.689 407.957H309.474" stroke="#FF7300" stroke-width="0.839127" stroke-miterlimit="10"/>
<path opacity="0.3" d="M294.875 403.998H288.663" stroke="#FF7300" stroke-width="0.839127" stroke-miterlimit="10"/>
<path opacity="0.3" d="M439.162 403.998C393.101 404.032 346.804 404.032 300.802 403.998" stroke="#FF7300" stroke-width="0.839127" stroke-miterlimit="10"/>
<path d="M442.04 407.957H437.16" stroke="#EBEFF2" stroke-width="0.419564" stroke-miterlimit="10"/>
<path d="M359.321 317.553C359.263 317.238 359.213 316.92 359.167 316.604C358.709 313.446 358.282 309.497 361.696 308.499C363.948 307.841 367.893 308.133 369.395 306.025C369.877 305.349 370.014 304.491 370.137 303.668C370.313 302.493 370.49 301.317 370.666 300.141C364.12 301.273 361.389 295.374 360.563 289.855C359.72 284.226 359.895 277.199 364.822 273.428C367.962 271.024 372.361 270.45 376.05 271.854C379.74 273.258 382.633 276.557 383.677 280.386C384.449 283.219 383.533 284.251 383.366 287.174C383.177 290.484 383.471 296.205 383.288 299.515C383.165 301.741 383.354 304.336 384.552 306.28C385.097 307.163 385.773 307.917 386.704 308.399C387.378 308.748 389.139 308.56 389.559 309.024C391.956 311.676 394.197 314.485 396.803 316.92C390.661 319.513 384.237 321.369 377.673 322.503C373.068 323.298 363.77 326.041 360.592 321.11C359.905 320.047 359.551 318.81 359.321 317.553Z" fill="#FFCBC2"/>
<path d="M413.739 333.154C413.082 324.985 409.449 316.625 402.057 312.54C399.335 311.035 396.351 310.138 393.343 309.418C391.796 309.048 390.239 308.724 388.688 308.371C386.95 307.974 386.6 308.388 385.421 309.704C382.98 312.431 379.119 313.641 375.491 313.263C373.192 313.024 370.987 312.192 369.015 310.995C366.875 309.697 366.129 308.1 363.422 308.253C355.223 308.718 347.039 309.465 338.891 310.489C339.489 317.638 339.97 327.78 341.452 334.797C345.764 334.362 355.308 333.406 355.298 334.719C355.282 336.734 355.326 338.75 355.394 340.765C355.527 344.696 355.772 348.623 355.93 352.553C356.098 356.728 356.404 360.894 356.775 365.055C357.196 369.789 357.919 374.441 358.967 379.046C369.629 382.62 381.793 381.749 393.225 380.711C396.484 380.415 399.866 380.081 402.685 378.407C410.616 373.698 410.953 359.781 412.086 351.681C412.961 345.416 414.254 339.553 413.739 333.154Z" fill="#80BFFE"/>
<path d="M331.963 414.508C332.101 414.302 332.247 414.102 332.398 413.907C335.159 410.343 339.929 408.019 343.826 405.925C348.125 403.615 352.947 401.714 357.906 402.002C362.377 402.261 368.589 405.315 369.515 410.08C369.619 410.618 369.664 411.194 369.45 411.698C368.918 412.95 367.237 413.062 365.884 413.075C360.111 413.126 354.555 414.914 349.169 416.844C346.394 417.839 343.635 418.886 340.829 419.791C338.321 420.601 332.227 424.15 330.471 420.466C329.51 418.452 330.849 416.154 331.963 414.508Z" fill="#292466"/>
<path d="M306.925 366.626C309.259 364.025 312.581 362.342 315.989 361.699C320.771 360.798 325.711 361.671 330.401 362.972C340.338 365.726 349.657 370.37 359.647 372.953C364.077 374.099 366.965 373.674 371.294 373.322C376.783 372.876 382.419 373.421 387.942 373.092C393.105 372.785 398.691 372.382 403.516 373.814C404.153 373.392 404.788 372.97 405.421 372.552C410.819 368.987 416.196 365.438 422.965 366.736C428.287 367.757 433.419 370.473 436.716 374.883C440.218 379.568 439.167 385.685 436.029 390.355C433.43 394.222 429.591 397.068 425.614 399.47C411.895 407.753 396.91 412.83 380.721 411.699C378.554 411.547 375.999 411.523 374.439 413.275C373.852 413.933 373.512 417.543 372.209 417.387C370.606 417.196 367.518 416.744 366.004 416.193C357.823 413.218 349.643 410.244 341.462 407.27C334.275 404.656 327.035 402.018 320.487 398.052C314.824 394.622 309.695 389.984 306.688 383.974C304.519 379.641 302.74 373.932 305.004 369.431C305.52 368.403 306.171 367.467 306.925 366.626Z" fill="#3A67B3"/>
<path d="M408.462 379.082C403.863 381.396 399.048 382.875 394.643 385.616C390.239 388.356 386.074 391.548 381.291 393.619C378.19 394.963 373.687 395.486 370.712 396.974" stroke="#24529F" stroke-width="0.419564" stroke-miterlimit="10"/>
<path d="M374.558 412.619C374.989 411.618 375.419 410.617 375.85 409.616C376.703 407.63 377.557 405.643 378.411 403.656C380.335 404.626 382.185 405.404 384.414 405.219C385.598 405.121 386.762 404.782 387.95 404.802C390.312 404.842 391.332 406.693 392.315 408.568C394.051 411.882 397.177 414.297 399.714 416.957C402.892 420.29 404.733 423.426 404.223 428.193C404.043 429.874 403.367 431.803 401.751 432.262C400.26 432.685 398.79 431.634 397.59 430.646C394.34 427.969 391.09 425.292 387.839 422.614C386.356 421.393 384.85 419.766 383.163 418.849C381.777 418.096 380.129 417.624 378.814 416.741C377.976 416.386 377.118 416.077 376.245 415.82C375.681 415.653 374.219 415.595 373.813 415.197C373.31 414.704 374.313 413.189 374.542 412.659C374.547 412.646 374.553 412.633 374.558 412.619Z" fill="#292466"/>
<path d="M366.135 381.259C365.542 380.957 365.092 380.422 364.739 379.406C364.15 377.706 364.496 375.691 365.445 374.193C366.671 372.259 368.928 370.766 371.151 370.297C373.445 369.812 375.671 368.987 378.008 368.511C379.689 368.168 381.343 367.702 382.994 367.236C386.485 366.252 389.976 365.267 393.468 364.283C394.317 364.044 395.208 363.86 396.037 363.559C396.826 363.273 396.787 363.348 396.855 362.583C396.931 361.726 396.636 360.802 396.577 359.945C396.491 358.695 396.408 357.446 396.329 356.196C396.174 353.767 396.03 351.336 395.898 348.905C395.641 344.152 395.904 339.502 396.741 334.8C398.146 326.913 407.525 322.385 412.826 329.914C416.521 335.161 417.277 342.276 417.537 348.518C417.821 355.374 417.425 362.253 414.808 368.691C408.282 384.742 382.654 383.05 368.751 381.746C367.657 381.643 366.805 381.6 366.135 381.259Z" fill="#FFCBC2"/>
<path d="M370.274 269.008C364.49 269.54 359.389 274.735 357.934 280.219C358.278 280.362 358.623 280.505 358.968 280.649C359.443 279.548 360.047 278.502 360.763 277.54C360.729 278.618 360.556 279.691 360.25 280.724C360.92 280.954 362.028 280.698 362.753 280.736C363.831 280.793 364.908 280.883 365.981 281.008C367.992 281.24 369.991 281.59 371.962 282.056C372.143 282.098 372.345 282.138 372.504 282.041C372.604 281.979 372.667 281.872 372.725 281.769C373.229 280.877 373.735 278.5 374.882 279.214C375.42 279.549 375.629 282.022 375.611 282.657C375.568 284.239 375.143 285.123 376.688 286.144C377.911 286.952 379.001 287.919 379.486 289.318C380.001 290.804 380.235 292.432 381.151 293.754C381.385 294.092 381.653 294.404 381.921 294.716C382.413 295.289 382.906 295.862 383.398 296.435C383.7 296.206 383.848 295.83 383.98 295.472C385.538 291.255 389.837 281.05 385.35 277.446C387.447 279.129 390.938 278.571 392.412 276.316C393.886 274.061 393.015 270.612 390.649 269.341C393.062 268.121 393.757 264.431 391.955 262.406C390.153 260.381 386.434 260.673 384.965 262.954C383.164 260.621 379.642 259.685 377.092 261.148C373.713 263.085 374.25 266.765 376.123 269.352C374.163 269.089 372.27 268.824 370.274 269.008Z" fill="#292466"/>
<path d="M329.211 371.059C338.42 375.251 345.832 382.534 354.216 388.214C362.047 393.52 370.717 397.417 379.338 401.287C378.888 402.282 378.704 403.263 378.254 404.258" stroke="#24529F" stroke-width="0.419564" stroke-miterlimit="10"/>
<path d="M364.637 294.127L368.15 292.369C367.503 293.6 366.001 294.351 364.637 294.127Z" stroke="#292466" stroke-width="0.419564"/>
<path d="M377.848 291.406C381.243 292.261 383.356 288.66 382.325 286.312C380.889 283.043 376.335 283.586 375.502 287.021" fill="#FFCBC2"/>
<path d="M379.587 286.035C378.949 285.859 378.212 285.965 377.678 286.311C377.143 286.657 376.826 287.233 376.856 287.804" fill="#292466"/>
<path d="M393.889 327.821C394.811 331.519 395.009 340.074 395.045 346.579C397.452 346.367 399.846 346.026 402.217 345.554C407.377 344.528 412.386 342.929 417.249 340.943C415.811 331.67 413.146 322.786 406.57 316.102" fill="#5BA7F4"/>
<path d="M394.972 386.353H342.761C341.997 386.353 341.377 385.729 341.377 384.96C341.377 384.19 341.997 383.566 342.761 383.566H394.973C395.737 383.566 396.357 384.19 396.357 384.96C396.357 385.729 395.737 386.353 394.972 386.353Z" fill="#252158"/>
<path d="M387.226 384.463H341.531L332.039 360.871C331.73 360.102 332.292 359.264 333.115 359.264H376.306C376.778 359.264 377.204 359.552 377.381 359.994L387.226 384.463Z" fill="#292466"/>
<ellipse cx="358.463" cy="374.288" rx="3.53421" ry="3.55744" fill="white"/>
<g clip-path="url(#clip1_15053_26268)">
<path fill-rule="evenodd" clip-rule="evenodd" d="M357.425 373.781C357.425 373.781 357.231 373.976 357.012 374.196C356.806 374.404 356.696 374.673 356.696 374.966C356.696 375.248 356.806 375.529 357.012 375.724C357.024 375.737 357.024 375.737 357.036 375.749C357.243 375.957 357.51 376.067 357.789 376.067C358.069 376.067 358.348 375.957 358.554 375.749C358.773 375.529 358.967 375.333 358.967 375.333C359.065 375.235 359.065 375.089 358.967 374.991C358.87 374.893 358.725 374.893 358.627 374.991C358.627 374.991 358.433 375.186 358.214 375.407C358.105 375.517 357.947 375.578 357.789 375.578C357.631 375.578 357.474 375.517 357.364 375.407L357.34 375.382C357.231 375.272 357.17 375.113 357.17 374.954C357.17 374.795 357.231 374.636 357.34 374.526C357.559 374.306 357.753 374.111 357.753 374.111C357.85 374.013 357.85 373.866 357.753 373.768C357.668 373.695 357.522 373.695 357.425 373.781Z" fill="#051F39"/>
<path fill-rule="evenodd" clip-rule="evenodd" d="M358.834 373.572L357.754 374.66C357.656 374.758 357.656 374.905 357.754 375.002C357.851 375.1 357.996 375.1 358.094 375.002L359.175 373.914C359.272 373.816 359.272 373.67 359.175 373.572C359.077 373.486 358.932 373.486 358.834 373.572Z" fill="#051F39"/>
<path fill-rule="evenodd" clip-rule="evenodd" d="M359.502 374.796C359.502 374.796 359.696 374.6 359.915 374.38C360.121 374.172 360.231 373.903 360.231 373.622C360.231 373.341 360.121 373.06 359.915 372.864C359.903 372.852 359.903 372.852 359.891 372.84C359.696 372.62 359.417 372.51 359.138 372.51C358.858 372.51 358.579 372.62 358.373 372.828C358.154 373.048 357.96 373.243 357.96 373.243C357.862 373.341 357.862 373.488 357.96 373.586C358.057 373.683 358.202 373.683 358.3 373.586C358.3 373.586 358.494 373.39 358.713 373.17C358.822 373.06 358.98 372.999 359.138 372.999C359.296 372.999 359.453 373.06 359.563 373.17L359.587 373.194C359.696 373.304 359.757 373.463 359.757 373.622C359.757 373.781 359.696 373.94 359.587 374.05C359.368 374.27 359.174 374.466 359.174 374.466C359.077 374.564 359.077 374.71 359.174 374.808C359.259 374.894 359.405 374.894 359.502 374.796Z" fill="#051F39"/>
</g>
<path d="M370.322 300.019C370.406 300.897 370.332 301.782 370.253 302.662C370.31 302.646 370.368 302.633 370.425 302.616C372.22 302.056 373.707 300.582 374.46 298.848C373.193 299.552 371.766 299.945 370.322 300.019Z" fill="#ECA89C"/>
<path d="M319.32 275.782C317.341 274.424 315.341 273.048 313.741 271.255C313.419 270.893 313.102 270.492 313.02 270.013C312.938 269.534 313.176 268.966 313.643 268.844C314.165 268.707 314.641 269.146 315.036 269.516C316.552 270.936 318.543 271.835 320.606 272.029" fill="#FFCBC2"/>
<path d="M379.702 290.863C380.284 290.863 380.757 290.388 380.757 289.802C380.757 289.215 380.284 288.74 379.702 288.74C379.12 288.74 378.647 289.215 378.647 289.802C378.647 290.388 379.12 290.863 379.702 290.863Z" fill="#292466"/>
<path d="M434.94 379.969C434.454 380.949 434.703 382.168 434.245 383.162C433.906 383.899 433.225 384.413 432.764 385.079C432.047 386.117 431.934 387.591 432.613 388.655C433.292 389.72 434.784 390.222 435.909 389.658C436.811 389.207 437.325 388.235 437.685 387.288C438.43 385.328 439.208 382.261 438.569 380.172C438.049 378.474 435.857 378.116 434.94 379.969Z" fill="#3260AF"/>
<path d="M305.3 372.674C306.118 372.013 307.325 371.859 308.256 372.345C309.187 372.83 309.765 373.951 309.568 374.988C309.46 375.556 309.146 376.081 309.121 376.659C309.091 377.399 309.536 378.061 309.771 378.763C310.118 379.801 309.967 381.036 309.242 381.853C308.517 382.67 307.194 382.941 306.285 382.338C305.322 381.699 305.082 380.408 304.901 379.261C304.576 377.203 303.32 374.273 305.3 372.674Z" fill="#3260AF"/>
<path d="M414.841 340.148C413.508 340.651 412.176 341.154 410.844 341.657L414.841 340.148Z" fill="#F99542"/>
<path d="M414.915 340.345C415.023 340.304 415.078 340.183 415.037 340.074C414.996 339.966 414.875 339.911 414.767 339.952L414.915 340.345ZM414.767 339.952C414.1 340.204 413.434 340.455 412.768 340.707C412.102 340.958 411.436 341.209 410.77 341.461L410.918 341.853C411.584 341.602 412.25 341.351 412.916 341.099C413.582 340.848 414.249 340.596 414.915 340.345L414.767 339.952Z" fill="#0061BF"/>
<path d="M411.322 326.105C412.037 327.736 412.615 329.426 413.049 331.154L411.322 326.105Z" fill="#F99542"/>
<path d="M412.846 331.205C412.874 331.318 412.988 331.386 413.101 331.357C413.213 331.329 413.281 331.215 413.253 331.103L412.846 331.205ZM411.13 326.19C411.84 327.809 412.414 329.489 412.846 331.205L413.253 331.103C412.815 329.364 412.233 327.662 411.514 326.021L411.13 326.19Z" fill="#0061BF"/>
<path d="M413.33 332.162C413.446 332.682 413.563 333.203 413.679 333.723L413.33 332.162Z" fill="#F99542"/>
<path d="M413.475 333.769C413.5 333.882 413.612 333.953 413.725 333.928C413.838 333.903 413.909 333.791 413.884 333.677L413.475 333.769ZM413.125 332.208C413.184 332.468 413.242 332.728 413.3 332.988C413.358 333.249 413.416 333.509 413.475 333.769L413.884 333.677C413.826 333.417 413.768 333.157 413.709 332.897C413.651 332.637 413.593 332.377 413.535 332.116L413.125 332.208Z" fill="#0061BF"/>
<path d="M414.004 335.119C414.078 335.473 414.152 335.827 414.226 336.181L414.004 335.119Z" fill="#F99542"/>
<path d="M414.021 336.223C414.045 336.337 414.156 336.41 414.269 336.386C414.383 336.362 414.455 336.251 414.432 336.138L414.021 336.223ZM413.799 335.162C413.836 335.339 413.873 335.516 413.91 335.693C413.947 335.87 413.984 336.047 414.021 336.223L414.432 336.138C414.395 335.961 414.358 335.784 414.32 335.607C414.283 335.43 414.246 335.253 414.209 335.076L413.799 335.162Z" fill="#0061BF"/>
<g filter="url(#filter1_d_15053_26268)">
<path d="M334.606 53.253C334.606 47.7909 334.606 45.0598 336.303 43.363C338 41.6661 340.731 41.6661 346.193 41.6661H424.434C429.897 41.6661 432.628 41.6661 434.324 43.363C436.021 45.0598 436.021 47.7909 436.021 53.253V75.6227C436.021 81.0848 436.021 83.8158 434.324 85.5127C432.628 87.2096 429.897 87.2096 424.434 87.2096H364.783C362.887 87.2096 361.939 87.2096 361.055 87.5016C360.17 87.7936 359.408 88.358 357.885 89.4868L346.807 97.6957L346.435 92.4527C346.427 92.3414 346.423 92.2857 346.419 92.2379C346.16 89.2825 343.71 87.0003 340.743 86.9511C340.695 86.9503 340.64 86.9503 340.528 86.9503C340.409 86.9503 340.35 86.9503 340.299 86.9494C337.178 86.8952 334.662 84.3783 334.607 81.2575C334.606 81.2072 334.606 81.1477 334.606 81.0288V53.253Z" fill="white"/>
</g>
<path d="M343.59 64.4157C343.59 56.26 350.153 49.6484 358.249 49.6484C366.345 49.6484 372.907 56.26 372.907 64.4157C372.907 72.5716 366.345 79.1829 358.249 79.1829C350.153 79.1829 343.59 72.5716 343.59 64.4157Z" fill="white"/>
<path d="M347.929 75.152C350.569 77.66 354.126 79.2001 358.043 79.2001C361.96 79.2001 365.518 77.6598 368.158 75.152C365.103 74.1997 361.672 73.6641 358.043 73.6641C354.415 73.6641 350.983 74.1997 347.929 75.152Z" fill="#D8DEE6"/>
<path d="M362.767 55.7886C362.103 55.3576 361.33 55.1289 360.539 55.1289H355.887C354.848 55.1289 353.848 55.5242 353.087 56.2358L352.832 56.4741C351.623 57.604 351.201 59.3514 351.761 60.9138L353.29 65.1868L363.099 65.1249L364.483 60.4554C365.006 58.689 364.307 56.7868 362.767 55.7886Z" fill="#292466"/>
<path d="M360.341 57.6513C360.319 57.6418 360.277 57.623 360.277 57.623L353.237 62.2253V65.001C353.237 66.5892 353.975 68.0019 355.122 68.9175V73.1466C355.122 74.8186 356.468 76.1738 358.129 76.1738C359.79 76.1738 361.137 74.8186 361.137 73.1466V69.0264C362.367 68.1168 363.168 66.6549 363.168 65.001V62.0573C363.168 60.0965 362.008 58.4086 360.341 57.6513Z" fill="#FFCBC2"/>
<path opacity="0.1" d="M358.044 79.9406C356.091 79.9406 354.136 79.5635 352.27 78.8083C348.434 77.2564 345.429 74.294 343.806 70.4666C342.184 66.6392 342.14 62.4052 343.681 58.5444C345.223 54.6833 348.166 51.658 351.969 50.025C359.446 46.8139 368.176 50.0121 371.844 57.3056C372.026 57.6686 371.882 58.1118 371.521 58.2956C371.162 58.4789 370.72 58.3341 370.538 57.9709C367.218 51.3678 359.314 48.4729 352.543 51.38C349.1 52.8584 346.435 55.5978 345.039 59.0936C343.644 62.5894 343.684 66.423 345.153 69.8885C346.621 73.3539 349.343 76.0361 352.816 77.441C356.288 78.8459 360.097 78.8056 363.54 77.3272C367.266 75.7272 370.12 72.5833 371.372 68.7018C371.497 68.3147 371.91 68.1034 372.294 68.2285C372.679 68.3542 372.889 68.7697 372.764 69.1566C371.382 73.4432 368.229 76.9152 364.115 78.6822C362.163 79.521 360.104 79.9406 358.044 79.9406Z" fill="#AAB4BE"/>
<rect x="380.84" y="54.4922" width="47.0716" height="5.18359" rx="2.5918" fill="#EBEFF2"/>
<rect x="380.84" y="63.2969" width="13.0352" height="2.89671" rx="1.44836" fill="#EBEFF2"/>
<rect x="397.496" y="63.2969" width="22.4495" height="2.89671" rx="1.44836" fill="#EBEFF2"/>
<rect x="380.84" y="69.8145" width="42.7265" height="2.89671" rx="1.44836" fill="#EBEFF2"/>
<g filter="url(#filter2_d_15053_26268)">
<path d="M140.806 89.7178C140.806 84.2557 140.806 81.5247 139.109 79.8278C137.412 78.131 134.681 78.131 129.219 78.131H50.9777C45.5156 78.131 42.7845 78.131 41.0877 79.8278C39.3908 81.5247 39.3908 84.2557 39.3908 89.7178V112.088C39.3908 117.55 39.3908 120.281 41.0877 121.978C42.7845 123.674 45.5156 123.674 50.9777 123.674H110.629C112.525 123.674 113.473 123.674 114.357 123.966C115.242 124.258 116.004 124.823 117.527 125.952L128.605 134.161L128.977 128.918C128.985 128.806 128.989 128.751 128.993 128.703C129.253 125.747 131.702 123.465 134.669 123.416C134.717 123.415 134.773 123.415 134.884 123.415C135.003 123.415 135.063 123.415 135.113 123.414C138.234 123.36 140.751 120.843 140.805 117.722C140.806 117.672 140.806 117.613 140.806 117.494V89.7178Z" fill="white"/>
</g>
<path d="M48.374 100.881C48.374 92.7249 54.9367 86.1133 63.0329 86.1133C71.1287 86.1133 77.6913 92.7249 77.6913 100.881C77.6913 109.036 71.1287 115.648 63.0329 115.648C54.9369 115.648 48.374 109.036 48.374 100.881Z" fill="white"/>
<path d="M52.7129 111.617C55.3532 114.125 58.9105 115.665 62.8275 115.665C66.7445 115.665 70.3017 114.125 72.9421 111.617C69.8873 110.665 66.456 110.129 62.8275 110.129C59.1992 110.129 55.7674 110.665 52.7129 111.617Z" fill="#D8DEE6"/>
<path d="M67.5515 92.2554C66.8875 91.8244 66.1137 91.5957 65.3234 91.5957H60.6711C59.6325 91.5957 58.6324 91.991 57.871 92.7026L57.6159 92.9409C56.4069 94.0708 55.9852 95.8182 56.5448 97.3806L58.0744 101.654L67.8827 101.592L69.2672 96.9222C69.7905 95.1558 69.0913 93.2536 67.5515 92.2554Z" fill="#292466"/>
<path d="M65.1259 94.1181C65.1046 94.1086 65.0622 94.0898 65.0622 94.0898L58.0225 98.6921V101.468C58.0225 103.056 58.7602 104.469 59.9072 105.384V109.613C59.9072 111.285 61.2536 112.641 62.9146 112.641C64.5756 112.641 65.9224 111.285 65.9224 109.613V105.493C67.152 104.584 67.9532 103.122 67.9532 101.468V98.5241C67.9534 96.5633 66.7929 94.8754 65.1259 94.1181Z" fill="#FFCBC2"/>
<path opacity="0.1" d="M62.8279 116.405C60.8748 116.405 58.9206 116.028 57.0541 115.273C53.2185 113.721 50.2128 110.759 48.5905 106.931C46.9685 103.104 46.924 98.87 48.4655 95.0092C50.0073 91.1482 52.9503 88.1228 56.7527 86.4898C64.2301 83.2787 72.9602 86.4769 76.6279 93.7705C76.8104 94.1335 76.6659 94.5767 76.3053 94.7604C75.9457 94.9437 75.5043 94.799 75.322 94.4357C72.0017 87.8326 64.098 84.9377 57.3269 87.8448C53.8842 89.3232 51.2194 92.0627 49.8236 95.5584C48.4279 99.0542 48.4682 102.888 49.9369 106.353C51.4057 109.819 54.1272 112.501 57.6001 113.906C61.0726 115.311 64.8815 115.27 68.3245 113.792C72.0501 112.192 74.9047 109.048 76.1563 105.167C76.2811 104.78 76.6947 104.568 77.0783 104.693C77.4629 104.819 77.6735 105.235 77.5485 105.621C76.1663 109.908 73.0135 113.38 68.8987 115.147C66.9467 115.986 64.8879 116.405 62.8279 116.405Z" fill="#AAB4BE"/>
<rect x="85.626" y="90.9551" width="47.0716" height="5.18359" rx="2.5918" fill="#EBEFF2"/>
<rect x="85.626" y="99.7598" width="13.0352" height="2.89671" rx="1.44836" fill="#EBEFF2"/>
<rect x="102.282" y="99.7598" width="22.4495" height="2.89671" rx="1.44836" fill="#EBEFF2"/>
<rect x="85.626" y="106.277" width="42.7265" height="2.89671" rx="1.44836" fill="#EBEFF2"/>
<g opacity="0.4">
<path d="M311.446 85.3103C311.316 85.3103 311.184 85.2751 311.065 85.2014L308.449 83.5871C308.104 83.3744 307.996 82.921 308.208 82.5742C308.419 82.2275 308.87 82.1188 309.214 82.3315L311.83 83.9457C312.174 84.1584 312.283 84.6119 312.071 84.9589C311.933 85.1854 311.692 85.3103 311.446 85.3103Z" fill="#0061BF"/>
<path d="M320.6 90.9626C320.469 90.9626 320.337 90.9274 320.218 90.8539L317.602 89.2396C317.258 89.0269 317.15 88.5735 317.361 88.2267C317.572 87.88 318.023 87.771 318.367 87.9837L320.983 89.598C321.328 89.8107 321.436 90.2641 321.224 90.6109C321.086 90.8376 320.846 90.9626 320.6 90.9626Z" fill="#0061BF"/>
<path d="M311.142 93.274C311.013 93.274 310.883 93.2397 310.764 93.1676C310.418 92.9569 310.308 92.5041 310.517 92.156L312.105 89.5137C312.314 89.1653 312.764 89.0542 313.11 89.2647C313.456 89.4751 313.566 89.9281 313.357 90.2763L311.769 92.9186C311.632 93.1473 311.39 93.274 311.142 93.274Z" fill="#0061BF"/>
<path d="M316.7 84.0261C316.571 84.0261 316.44 83.9918 316.322 83.9196C315.976 83.7089 315.865 83.2561 316.075 82.908L317.663 80.2657C317.871 79.9174 318.322 79.806 318.667 80.0167C319.013 80.2272 319.124 80.6802 318.915 81.0283L317.327 83.6706C317.189 83.8996 316.948 84.0261 316.7 84.0261Z" fill="#0061BF"/>
</g>
<path d="M51.2479 164.702C50.9175 164.702 50.6175 164.475 50.5369 164.137C50.4427 163.741 50.685 163.343 51.0777 163.249L54.0606 162.528C54.4526 162.433 54.8489 162.677 54.9429 163.073C55.0372 163.468 54.7949 163.866 54.4022 163.961L51.4193 164.681C51.362 164.695 51.3047 164.702 51.2479 164.702Z" fill="#FF7300"/>
<path d="M61.6883 162.182C61.3579 162.182 61.0579 161.955 60.9774 161.617C60.8831 161.222 61.1254 160.824 61.5181 160.729L64.501 160.009C64.894 159.914 65.2891 160.158 65.3834 160.553C65.4776 160.949 65.2354 161.347 64.8426 161.441L61.8598 162.162C61.8022 162.176 61.7449 162.182 61.6883 162.182Z" fill="#FF7300"/>
<path d="M59.6089 169.83C59.2797 169.83 58.9808 169.606 58.8987 169.269L58.1659 166.27C58.0694 165.875 58.3092 165.476 58.7015 165.379C59.0967 165.281 59.4906 165.524 59.587 165.918L60.3199 168.918C60.4163 169.313 60.1765 169.712 59.7842 169.809C59.7255 169.823 59.6667 169.83 59.6089 169.83Z" fill="#FF7300"/>
<path d="M57.0428 159.332C56.7137 159.332 56.4148 159.107 56.3325 158.771L55.5995 155.772C55.503 155.377 55.7428 154.978 56.1351 154.881C56.5288 154.784 56.9239 155.025 57.0206 155.42L57.7537 158.419C57.8501 158.814 57.6103 159.213 57.2178 159.31C57.1591 159.325 57.1005 159.332 57.0428 159.332Z" fill="#FF7300"/>
<path opacity="0.3" d="M193 407.47C192.916 407.47 192.83 407.455 192.746 407.424C174.595 400.654 158.165 390.976 143.911 378.657C143.605 378.392 143.569 377.927 143.833 377.618C144.097 377.309 144.559 377.274 144.865 377.539C158.987 389.744 175.267 399.334 193.254 406.043C193.633 406.184 193.827 406.608 193.687 406.989C193.577 407.286 193.297 407.47 193 407.47Z" fill="#FF7300"/>
<path opacity="0.3" d="M223.614 404.928C223.574 404.928 223.534 404.925 223.494 404.918C199.849 400.973 178.418 392.175 159.795 378.769C159.467 378.533 159.391 378.073 159.626 377.742C159.861 377.411 160.318 377.334 160.647 377.571C179.086 390.845 200.311 399.557 223.733 403.464C224.131 403.531 224.401 403.91 224.335 404.312C224.276 404.672 223.965 404.928 223.614 404.928Z" fill="#FF7300"/>
<path opacity="0.3" d="M180.986 410.119C180.369 410.462 179.772 410.669 179.11 410.81C178.458 410.946 177.764 410.992 177.072 410.863C176.728 410.799 176.386 410.701 176.059 410.562C175.894 410.479 175.745 410.43 175.569 410.315L175.308 410.137L175.091 409.94C174.542 409.398 174.246 408.823 173.938 408.28C173.638 407.735 173.364 407.207 173.06 406.731C172.758 406.256 172.424 405.831 172.044 405.553C171.411 405.017 170.213 405.107 169.014 405.179C168.407 405.214 167.776 405.254 167.107 405.21C166.445 405.163 165.703 405.033 165.032 404.589C164.659 404.321 164.389 403.965 164.228 403.635C164.056 403.301 163.945 402.976 163.851 402.66C163.668 402.028 163.552 401.422 163.414 400.846C163.277 400.281 163.124 399.709 162.886 399.339C162.769 399.145 162.66 399.065 162.474 398.952C162.295 398.851 162.058 398.794 161.811 398.749C161.299 398.679 160.724 398.704 160.125 398.749C159.827 398.769 159.517 398.794 159.191 398.803C158.863 398.805 158.525 398.822 158.086 398.678C157.798 398.584 157.64 398.272 157.734 397.982C157.827 397.696 158.13 397.538 158.416 397.625L158.445 397.634C158.588 397.678 158.868 397.684 159.143 397.662C159.423 397.643 159.716 397.609 160.021 397.575C160.627 397.508 161.27 397.442 161.965 397.508C162.315 397.554 162.68 397.621 163.044 397.799C163.392 397.966 163.769 398.283 163.969 398.614C164.395 399.272 164.543 399.908 164.715 400.516C164.873 401.124 165.002 401.714 165.172 402.25C165.331 402.788 165.584 403.25 165.816 403.407C166.167 403.637 166.658 403.747 167.198 403.778C167.739 403.81 168.322 403.773 168.923 403.733C169.527 403.694 170.152 403.642 170.829 403.678C171.169 403.702 171.52 403.737 171.888 403.851L172.163 403.937L172.439 404.07C172.634 404.156 172.768 404.273 172.924 404.381C173.519 404.837 173.929 405.404 174.274 405.955C174.619 406.51 174.899 407.07 175.181 407.596C175.463 408.111 175.744 408.633 176.056 408.957L176.171 409.073L176.284 409.155C176.357 409.213 176.497 409.268 176.6 409.328C176.827 409.434 177.068 409.513 177.318 409.57C178.31 409.789 179.49 409.577 180.459 409.149L180.501 409.131C180.778 409.009 181.101 409.136 181.223 409.415C181.337 409.677 181.23 409.982 180.986 410.119Z" fill="#FF7300"/>
<path opacity="0.25" d="M168.609 71.0025C167.787 71.0025 166.978 70.7758 166.258 70.3344C165.224 69.7001 164.497 68.6981 164.211 67.5132C163.925 66.3284 164.114 65.1023 164.745 64.0609C165.375 63.0195 166.37 62.2874 167.547 61.9994C167.939 61.9036 168.335 62.1462 168.431 62.5413C168.526 62.9366 168.285 63.335 167.892 63.431C167.096 63.6259 166.422 64.1217 165.995 64.827C165.568 65.5324 165.44 66.3627 165.634 67.1653C165.827 67.968 166.32 68.6466 167.02 69.076C167.721 69.5059 168.546 69.635 169.342 69.4399C170.988 69.0377 172.001 67.3624 171.601 65.7056C171.506 65.3103 171.747 64.9119 172.14 64.8159C172.535 64.7199 172.928 64.9629 173.023 65.358C173.614 67.8041 172.117 70.2776 169.688 70.8716C169.33 70.9593 168.968 71.0025 168.609 71.0025Z" fill="#FF7300"/>
<path opacity="0.25" d="M183.541 61.705C183.257 61.705 182.987 61.5378 182.868 61.2583C182.709 60.8843 182.881 60.4514 183.252 60.291C207.762 49.7206 233.419 45.4229 259.506 47.5171C266.941 48.1137 274.384 49.2449 281.63 50.879C282.025 50.9681 282.273 51.3618 282.184 51.7589C282.096 52.1561 281.706 52.4059 281.31 52.3166C274.131 50.6975 266.756 49.5768 259.39 48.9857C233.541 46.9108 208.118 51.1701 183.829 61.6454C183.735 61.6859 183.637 61.705 183.541 61.705Z" fill="#0061BF"/>
<path opacity="0.25" d="M204.161 62.4908C203.841 62.4908 203.547 62.2777 203.457 61.9521C203.348 61.5601 203.576 61.1539 203.965 61.0445C222.121 55.9441 240.809 54.1191 259.507 55.6198C260.954 55.736 262.418 55.8739 263.859 56.0294C264.261 56.0728 264.552 56.4358 264.509 56.8403C264.465 57.2449 264.103 57.5374 263.703 57.4942C262.276 57.34 260.825 57.2033 259.39 57.0884C240.863 55.6011 222.348 57.4098 204.359 62.4634C204.293 62.4819 204.227 62.4908 204.161 62.4908Z" fill="#FF7300"/>
<path opacity="0.2" d="M454.929 119.107H456.434C456.434 123.511 459.995 127.08 464.387 127.08V128.588C459.994 128.588 456.434 132.157 456.434 136.561H454.929C454.929 132.157 451.368 128.588 446.975 128.588V127.08C451.368 127.08 454.929 123.51 454.929 119.107Z" fill="url(#paint3_linear_15053_26268)"/>
<path d="M441.063 96.8047H441.439C441.439 101.208 445 104.778 449.393 104.778V105.155C445 105.155 441.438 108.725 441.438 113.128H441.062C441.062 108.725 437.501 105.155 433.107 105.155V104.778C437.502 104.778 441.063 101.208 441.063 96.8047Z" fill="url(#paint4_linear_15053_26268)"/>
<path opacity="0.2" d="M428.889 146.43C428.889 150.69 432.335 154.144 436.585 154.144C432.335 154.144 428.889 157.597 428.889 161.857C428.889 157.597 425.444 154.144 421.193 154.144C425.444 154.143 428.889 150.69 428.889 146.43Z" fill="url(#paint5_linear_15053_26268)"/>
<g filter="url(#filter3_d_15053_26268)">
<path d="M223.723 378.374L243.868 342.909C244.203 342.289 244.9 342.124 245.519 342.462L262.402 351.85C264.703 353.13 266.279 355.416 266.658 358.027L267.328 362.644C267.595 364.482 267.249 366.353 266.345 367.967L252.011 393.548C251.377 394.695 249.948 395.117 248.803 394.476L224.224 380.478C223.546 380.011 223.262 379.053 223.723 378.374Z" fill="white"/>
</g>
<path d="M263.904 352.943L260.386 362.714L267.03 366.284C267.03 366.284 268.33 363.532 267.013 358.284C266.12 354.726 263.904 352.943 263.904 352.943Z" fill="#D8DEE6"/>
<path opacity="0.2" d="M258.102 359.063C258.009 359.028 258.009 359.028 257.916 358.993L245.547 351.71C245.361 351.64 245.277 351.291 245.346 351.104C245.415 350.917 245.763 350.835 245.949 350.905L258.318 358.188C258.504 358.258 258.588 358.607 258.519 358.794C258.509 359.109 258.288 359.133 258.102 359.063Z" fill="#0061BF"/>
<path opacity="0.2" d="M260.683 368.45C260.59 368.415 260.59 368.415 260.496 368.38L242.485 357.712C242.299 357.642 242.216 357.293 242.284 357.106C242.353 356.919 242.701 356.837 242.888 356.907L260.899 367.575C261.085 367.644 261.168 367.994 261.1 368.181C261.09 368.496 260.869 368.52 260.683 368.45Z" fill="#0061BF"/>
<path opacity="0.2" d="M256.221 375.95C256.128 375.915 256.128 375.915 256.035 375.88L238.023 365.212C237.837 365.142 237.754 364.793 237.823 364.606C237.891 364.419 238.239 364.337 238.426 364.407L256.437 375.075C256.623 375.144 256.706 375.494 256.638 375.681C256.569 375.868 256.407 376.02 256.221 375.95Z" fill="#0061BF"/>
<path opacity="0.2" d="M252.292 382.587C252.199 382.552 252.199 382.552 252.106 382.517L234.095 371.849C233.908 371.779 233.825 371.429 233.894 371.243C233.963 371.056 234.311 370.974 234.497 371.043L252.508 381.711C252.694 381.781 252.778 382.131 252.709 382.318C252.699 382.633 252.478 382.656 252.292 382.587Z" fill="#0061BF"/>
<path opacity="0.2" d="M249.116 388.331C249.023 388.296 249.023 388.296 248.93 388.261L230.919 377.593C230.733 377.523 230.649 377.173 230.718 376.987C230.787 376.8 231.135 376.718 231.321 376.788L249.332 387.456C249.519 387.525 249.602 387.875 249.533 388.062C249.558 388.283 249.337 388.307 249.116 388.331Z" fill="#0061BF"/>
</g>
<defs>
<filter id="filter0_d_15053_26268" x="84.5498" y="100.173" width="384.088" height="264.406" filterUnits="userSpaceOnUse" color-interpolation-filters="sRGB">
<feFlood flood-opacity="0" result="BackgroundImageFix"/>
<feColorMatrix in="SourceAlpha" type="matrix" values="0 0 0 0 0 0 0 0 0 0 0 0 0 0 0 0 0 0 127 0" result="hardAlpha"/>
<feOffset dy="12.5869"/>
<feGaussianBlur stdDeviation="12.5869"/>
<feComposite in2="hardAlpha" operator="out"/>
<feColorMatrix type="matrix" values="0 0 0 0 0.117647 0 0 0 0 0.129412 0 0 0 0 0.176471 0 0 0 0.06 0"/>
<feBlend mode="normal" in2="BackgroundImageFix" result="effect1_dropShadow_15053_26268"/>
<feBlend mode="normal" in="SourceGraphic" in2="effect1_dropShadow_15053_26268" result="shape"/>
</filter>
<filter id="filter1_d_15053_26268" x="305.639" y="23.5616" width="159.349" height="113.964" filterUnits="userSpaceOnUse" color-interpolation-filters="sRGB">
<feFlood flood-opacity="0" result="BackgroundImageFix"/>
<feColorMatrix in="SourceAlpha" type="matrix" values="0 0 0 0 0 0 0 0 0 0 0 0 0 0 0 0 0 0 127 0" result="hardAlpha"/>
<feOffset dy="10.8627"/>
<feGaussianBlur stdDeviation="14.4836"/>
<feComposite in2="hardAlpha" operator="out"/>
<feColorMatrix type="matrix" values="0 0 0 0 0.117647 0 0 0 0 0.129412 0 0 0 0 0.176471 0 0 0 0.08 0"/>
<feBlend mode="normal" in2="BackgroundImageFix" result="effect1_dropShadow_15053_26268"/>
<feBlend mode="normal" in="SourceGraphic" in2="effect1_dropShadow_15053_26268" result="shape"/>
</filter>
<filter id="filter2_d_15053_26268" x="10.4235" y="60.0264" width="159.349" height="113.964" filterUnits="userSpaceOnUse" color-interpolation-filters="sRGB">
<feFlood flood-opacity="0" result="BackgroundImageFix"/>
<feColorMatrix in="SourceAlpha" type="matrix" values="0 0 0 0 0 0 0 0 0 0 0 0 0 0 0 0 0 0 127 0" result="hardAlpha"/>
<feOffset dy="10.8627"/>
<feGaussianBlur stdDeviation="14.4836"/>
<feComposite in2="hardAlpha" operator="out"/>
<feColorMatrix type="matrix" values="0 0 0 0 0.117647 0 0 0 0 0.129412 0 0 0 0 0.176471 0 0 0 0.08 0"/>
<feBlend mode="normal" in2="BackgroundImageFix" result="effect1_dropShadow_15053_26268"/>
<feBlend mode="normal" in="SourceGraphic" in2="effect1_dropShadow_15053_26268" result="shape"/>
</filter>
<filter id="filter3_d_15053_26268" x="189.932" y="321.311" width="111.049" height="119.617" filterUnits="userSpaceOnUse" color-interpolation-filters="sRGB">
<feFlood flood-opacity="0" result="BackgroundImageFix"/>
<feColorMatrix in="SourceAlpha" type="matrix" values="0 0 0 0 0 0 0 0 0 0 0 0 0 0 0 0 0 0 127 0" result="hardAlpha"/>
<feOffset dy="12.5869"/>
<feGaussianBlur stdDeviation="16.7825"/>
<feComposite in2="hardAlpha" operator="out"/>
<feColorMatrix type="matrix" values="0 0 0 0 0.117647 0 0 0 0 0.129412 0 0 0 0 0.176471 0 0 0 0.09 0"/>
<feBlend mode="normal" in2="BackgroundImageFix" result="effect1_dropShadow_15053_26268"/>
<feBlend mode="normal" in="SourceGraphic" in2="effect1_dropShadow_15053_26268" result="shape"/>
</filter>
<linearGradient id="paint0_linear_15053_26268" x1="220.805" y1="12.828" x2="220.805" y2="454.294" gradientUnits="userSpaceOnUse">
<stop stop-color="#FF7300"/>
<stop offset="1" stop-color="#FF7300" stop-opacity="0"/>
</linearGradient>
<linearGradient id="paint1_linear_15053_26268" x1="147.613" y1="244.311" x2="63.9471" y2="244.311" gradientUnits="userSpaceOnUse">
<stop stop-color="#FF7300"/>
<stop offset="0.395833" stop-color="#FAB882"/>
<stop offset="1" stop-color="#FF7300"/>
</linearGradient>
<linearGradient id="paint2_linear_15053_26268" x1="65.1382" y1="242.775" x2="93.9288" y2="269.703" gradientUnits="userSpaceOnUse">
<stop stop-color="#75BEFB"/>
<stop offset="1" stop-color="#A8D1FA"/>
</linearGradient>
<linearGradient id="paint3_linear_15053_26268" x1="464.381" y1="127.934" x2="446.959" y2="127.934" gradientUnits="userSpaceOnUse">
<stop stop-color="#FAB882"/>
<stop offset="1" stop-color="#FF7300"/>
</linearGradient>
<linearGradient id="paint4_linear_15053_26268" x1="449.387" y1="105.06" x2="433.093" y2="105.06" gradientUnits="userSpaceOnUse">
<stop stop-color="#FAB882"/>
<stop offset="1" stop-color="#FF7300"/>
</linearGradient>
<linearGradient id="paint5_linear_15053_26268" x1="436.58" y1="154.232" x2="421.179" y2="154.232" gradientUnits="userSpaceOnUse">
<stop stop-color="#FAB882"/>
<stop offset="1" stop-color="#FF7300"/>
</linearGradient>
<clipPath id="clip0_15053_26268">
<rect width="510" height="450" fill="white"/>
</clipPath>
<clipPath id="clip1_15053_26268">
<rect width="3.53421" height="3.55744" fill="white" transform="translate(356.696 372.51)"/>
</clipPath>
</defs>
</svg>
