<svg width="169" height="48" viewBox="0 0 169 48" fill="none" xmlns="http://www.w3.org/2000/svg">
<path d="M31.1779 18C31.1779 25.6645 24.715 32 16.589 32C8.46294 32 2 25.6645 2 18C2 10.3355 8.46294 4 16.589 4C24.715 4 31.1779 10.3355 31.1779 18Z" stroke="white" stroke-opacity="0.5" stroke-width="4"/>
<path d="M39.4728 30C39.4728 37.6645 33.0099 44 24.8839 44C16.7579 44 10.2949 37.6645 10.2949 30C10.2949 22.3355 16.7579 16 24.8839 16C33.0099 16 39.4728 22.3355 39.4728 30Z" stroke="white" stroke-opacity="0.5" stroke-width="4"/>
<path d="M53.8623 33.9088H58.5591V12.9088H53.8623V33.9088Z" fill="white" fill-opacity="0.5"/>
<path d="M60.6197 33.9088H64.9743V25.6288C64.9743 23.6788 66.3118 22.2688 68.2092 22.2688C70.0132 22.2688 71.2263 23.5888 71.2263 25.4188V33.9088H75.5809V24.4888C75.5809 21.0088 73.2792 18.5488 69.7333 18.5488C67.5871 18.5488 65.8452 19.4188 64.9743 20.8888V18.7888H60.6197V33.9088Z" fill="white" fill-opacity="0.5"/>
<path d="M78.7343 14.3187V18.7888H75.7172V22.2688H78.7343V28.4188C78.7343 31.9288 81.0671 33.9088 84.6752 33.9088H87.2569V30.3988H85.2662C83.8665 30.3988 83.0578 29.7088 83.0578 28.2388V22.2688H87.2569V18.7888H83.0578V14.3187H78.7343Z" fill="white" fill-opacity="0.5"/>
<path d="M98.2452 28.7788C97.9031 30.0688 96.7522 30.7288 95.0104 30.7288C92.8331 30.7288 91.4334 29.4088 91.1223 27.2788H102.382C102.413 26.9488 102.444 26.4988 102.444 25.9288C102.444 22.4788 100.236 18.5488 94.6993 18.5488C89.3805 18.5488 86.9543 22.4788 86.9543 26.3188C86.9543 30.1288 89.6915 34.1488 95.0104 34.1488C98.8673 34.1488 101.853 32.0488 102.475 28.7788H98.2452ZM94.6993 21.6088C96.7833 21.6088 97.9964 22.9588 98.1208 24.6388H91.1845C91.5578 22.5388 92.7397 21.6088 94.6993 21.6088Z" fill="white" fill-opacity="0.5"/>
<path d="M113.325 22.2688V18.7888H111.552C109.655 18.7888 108.473 19.4188 107.633 21.3088V18.7888H103.279V33.9088H107.633V26.5588C107.633 23.9788 108.598 22.2688 110.744 22.2688H113.325Z" fill="white" fill-opacity="0.5"/>
<path d="M114.031 33.9088H118.355V12.2188H114.031V33.9088Z" fill="white" fill-opacity="0.5"/>
<path d="M127.681 34.1488C132.502 34.1488 135.955 30.8488 135.955 26.3488C135.955 21.8488 132.502 18.5488 127.681 18.5488C122.86 18.5488 119.407 21.8488 119.407 26.3488C119.407 30.8488 122.86 34.1488 127.681 34.1488ZM127.681 30.5488C125.348 30.5488 123.762 28.8388 123.762 26.3488C123.762 23.8288 125.348 22.1188 127.681 22.1188C130.014 22.1188 131.6 23.8288 131.6 26.3488C131.6 28.8388 130.014 30.5488 127.681 30.5488Z" fill="white" fill-opacity="0.5"/>
<path d="M144.043 34.1488C148.118 34.1488 151.352 31.6288 151.819 28.2688H147.402C147.091 29.6188 145.816 30.5488 144.229 30.5488C141.866 30.5488 140.466 28.8088 140.466 26.3488C140.466 23.8888 141.834 22.1188 144.167 22.1188C145.754 22.1188 147.091 23.1088 147.34 24.4588H151.695C151.415 20.9488 148.149 18.5488 144.043 18.5488C139.191 18.5488 135.956 21.9388 135.956 26.3488C135.956 30.7588 139.191 34.1488 144.043 34.1488Z" fill="white" fill-opacity="0.5"/>
<path d="M163.256 33.9088H168.481L161.731 24.7288L167.983 18.7888H162.509L157.066 23.9488V12.2188H152.711V33.9088H157.066V29.1688L158.808 27.5188L163.256 33.9088Z" fill="white" fill-opacity="0.5"/>
</svg>
