<svg width="169" height="48" viewBox="0 0 169 48" fill="none" xmlns="http://www.w3.org/2000/svg">
<path d="M14.2713 19.4497C19.8347 16.6945 24.1887 12.019 26.6882 6.17457C25.0756 4.42125 22.9792 3.16888 20.7216 2.41746L19.5122 2C19.4316 2.16698 19.3509 2.41747 19.3509 2.58445C17.4158 8.26187 13.465 12.8539 8.14352 15.4421C4.43459 17.2789 1.69321 20.6186 0.403144 24.6262L0 25.8786C0.161258 25.962 0.403148 26.0455 0.564406 26.0455C2.09635 26.63 3.6283 27.3814 5.07962 28.2998C7.09534 24.5427 10.3205 21.37 14.2713 19.4497Z" fill="white" fill-opacity="0.5"/>
<path opacity="0.8" d="M37.6542 19.7832C34.6709 24.4587 30.5588 28.2158 25.4792 30.7206C21.3672 32.7244 18.2226 36.4815 16.7713 40.99L16.3682 42.4094C17.9001 43.8287 19.7546 44.9141 21.7703 45.5821L22.9797 45.9995C23.0604 45.8326 23.141 45.5821 23.141 45.4151C25.0761 39.7377 29.0269 35.1456 34.3484 32.5574C38.0573 30.7206 40.8793 27.3809 42.0888 23.3734L42.4919 22.121C40.7987 21.62 39.1861 20.7851 37.6542 19.7832Z" fill="white" fill-opacity="0.5"/>
<path opacity="0.9" d="M13.1422 38.0683C15.1579 33.0588 18.8668 28.9677 23.6239 26.63C27.9779 24.4592 31.6062 21.1195 34.1057 17.0285C32.2512 15.1916 30.7193 13.1044 29.5905 10.5996C26.6072 16.277 21.9307 20.8691 16.2061 23.7078C12.9003 25.2941 10.2395 28.0493 8.62695 31.389C10.4008 33.1423 11.8521 35.3131 12.9809 37.7343C12.9809 37.7343 13.0615 37.9013 13.1422 38.0683Z" fill="white" fill-opacity="0.5"/>
<path d="M52.1006 33.9996H65.6882V30.0996H56.4753V12.9996H52.1006V33.9996Z" fill="white" fill-opacity="0.5"/>
<path d="M79.884 18.8796H75.828V27.1596C75.828 29.0796 74.5822 30.5196 72.8149 30.5196C71.1636 30.5196 70.0047 29.1996 70.0047 27.3696V18.8796H65.9777V28.2996C65.9777 31.7496 68.1216 34.2396 71.3953 34.2396C73.3944 34.2396 75.0168 33.3396 75.828 31.8996V33.9996H79.884V18.8796Z" fill="white" fill-opacity="0.5"/>
<path d="M81.3907 33.9996H85.4467V25.4196C85.4467 23.4696 86.5186 22.1796 88.199 22.1796C89.7634 22.1796 90.7485 23.4696 90.7485 25.4196V33.9996H94.8045V25.4196C94.8045 23.4696 95.8764 22.1796 97.5567 22.1796C99.1212 22.1796 100.135 23.4696 100.135 25.4196V33.9996H104.162V24.0996C104.162 21.0696 102.105 18.6396 98.9184 18.6396C96.5717 18.6396 94.7465 19.9296 94.0512 21.3996C93.3559 19.5996 91.8783 18.6396 89.5896 18.6396C87.6195 18.6396 86.2289 19.6296 85.4467 21.0096V18.8796H81.3907V33.9996Z" fill="white" fill-opacity="0.5"/>
<path d="M105.544 12.3096V16.7196H109.832V12.3096H105.544ZM105.66 33.9996H109.716V18.8796H105.66V33.9996Z" fill="white" fill-opacity="0.5"/>
<path d="M111.228 33.9996H115.284V25.7196C115.284 23.7696 116.53 22.3596 118.297 22.3596C119.977 22.3596 121.107 23.6796 121.107 25.5096V33.9996H125.163V24.5796C125.163 21.0996 123.019 18.6396 119.716 18.6396C117.717 18.6396 116.095 19.5096 115.284 20.9796V18.8796H111.228V33.9996Z" fill="white" fill-opacity="0.5"/>
<path d="M133.623 34.2396C138.114 34.2396 141.329 30.9396 141.329 26.4396C141.329 21.9396 138.114 18.6396 133.623 18.6396C129.132 18.6396 125.917 21.9396 125.917 26.4396C125.917 30.9396 129.132 34.2396 133.623 34.2396ZM133.623 30.6396C131.45 30.6396 129.973 28.9296 129.973 26.4396C129.973 23.9196 131.45 22.2096 133.623 22.2096C135.796 22.2096 137.273 23.9196 137.273 26.4396C137.273 28.9296 135.796 30.6396 133.623 30.6396Z" fill="white" fill-opacity="0.5"/>
<path d="M156.019 18.8796H151.963V27.1596C151.963 29.0796 150.717 30.5196 148.95 30.5196C147.298 30.5196 146.14 29.1996 146.14 27.3696V18.8796H142.113V28.2996C142.113 31.7496 144.256 34.2396 147.53 34.2396C149.529 34.2396 151.152 33.3396 151.963 31.8996V33.9996H156.019V18.8796Z" fill="white" fill-opacity="0.5"/>
<path d="M162.856 34.2396C166.275 34.2396 168.535 32.3496 168.535 29.4696C168.535 22.6296 160.539 26.1396 160.539 23.0496C160.539 22.0896 161.321 21.5796 162.451 21.5796C163.552 21.5796 164.681 22.2696 164.855 23.5596H168.361C168.216 20.5896 165.84 18.6396 162.335 18.6396C159.351 18.6396 157.12 20.5296 157.12 23.1996C157.12 29.5596 164.971 26.5296 164.971 29.6196C164.971 30.4596 164.102 31.0896 162.856 31.0896C161.35 31.0896 160.336 30.2496 160.191 28.8996H156.714C156.859 32.1696 159.293 34.2396 162.856 34.2396Z" fill="white" fill-opacity="0.5"/>
</svg>
