<svg width="169" height="48" viewBox="0 0 169 48" fill="none" xmlns="http://www.w3.org/2000/svg">
<rect y="19.2002" width="9.59998" height="9.59999" fill="white" fill-opacity="0.5"/>
<rect x="28.7998" y="28.7998" width="9.6" height="9.59999" transform="rotate(180 28.7998 28.7998)" fill="white" fill-opacity="0.5"/>
<path opacity="0.4" d="M9.59961 19.1996L19.1996 9.59961V19.1996L9.59961 28.7996V19.1996Z" fill="white" fill-opacity="0.5"/>
<path opacity="0.6" d="M19.2002 28.8004L9.60021 38.4004L9.60021 28.8004L19.2002 19.2004L19.2002 28.8004Z" fill="white" fill-opacity="0.5"/>
<path opacity="0.8" d="M0 19.2L19.2 0V9.59999L9.59998 19.2H0Z" fill="white" fill-opacity="0.5"/>
<path opacity="0.8" d="M28.7998 28.8L9.59983 48L9.59983 38.4L19.1998 28.8L28.7998 28.8Z" fill="white" fill-opacity="0.5"/>
<path d="M49.7085 34.2798C48.1965 34.2798 46.7311 34.0651 45.3125 33.6358C43.9125 33.2065 42.8018 32.6371 41.9805 31.9278L43.2405 29.0998C44.0431 29.7345 45.0231 30.2571 46.1805 30.6678C47.3565 31.0598 48.5325 31.2558 49.7085 31.2558C51.1645 31.2558 52.2471 31.0225 52.9565 30.5558C53.6845 30.0891 54.0485 29.4731 54.0485 28.7078C54.0485 28.1478 53.8431 27.6905 53.4325 27.3358C53.0405 26.9625 52.5365 26.6731 51.9205 26.4678C51.3045 26.2625 50.4645 26.0291 49.4005 25.7678C47.9071 25.4131 46.6938 25.0585 45.7605 24.7038C44.8458 24.3491 44.0525 23.7985 43.3805 23.0518C42.7271 22.2865 42.4005 21.2598 42.4005 19.9718C42.4005 18.8891 42.6898 17.9091 43.2685 17.0318C43.8658 16.1358 44.7525 15.4265 45.9285 14.9038C47.1231 14.3811 48.5791 14.1198 50.2965 14.1198C51.4911 14.1198 52.6671 14.2691 53.8245 14.5678C54.9818 14.8665 55.9805 15.2958 56.8205 15.8558L55.6725 18.6838C54.8138 18.1798 53.9178 17.7971 52.9845 17.5358C52.0511 17.2745 51.1458 17.1438 50.2685 17.1438C48.8311 17.1438 47.7578 17.3865 47.0485 17.8718C46.3578 18.3571 46.0125 19.0011 46.0125 19.8038C46.0125 20.3638 46.2085 20.8211 46.6005 21.1758C47.0111 21.5305 47.5245 21.8105 48.1405 22.0158C48.7565 22.2211 49.5965 22.4545 50.6605 22.7158C52.1165 23.0518 53.3111 23.4065 54.2445 23.7798C55.1778 24.1345 55.9711 24.6851 56.6245 25.4318C57.2965 26.1785 57.6325 27.1865 57.6325 28.4558C57.6325 29.5385 57.3338 30.5185 56.7365 31.3958C56.1578 32.2731 55.2711 32.9731 54.0765 33.4958C52.8818 34.0185 51.4258 34.2798 49.7085 34.2798Z" fill="white" fill-opacity="0.5"/>
<path d="M60.9058 19.0478H64.4058V33.9998H60.9058V19.0478ZM62.6698 16.5838C62.0352 16.5838 61.5032 16.3878 61.0738 15.9958C60.6445 15.5851 60.4298 15.0811 60.4298 14.4838C60.4298 13.8865 60.6445 13.3918 61.0738 12.9998C61.5032 12.5891 62.0352 12.3838 62.6698 12.3838C63.3045 12.3838 63.8365 12.5798 64.2658 12.9718C64.6952 13.3451 64.9098 13.8211 64.9098 14.3998C64.9098 15.0158 64.6952 15.5385 64.2658 15.9678C63.8552 16.3785 63.3232 16.5838 62.6698 16.5838Z" fill="white" fill-opacity="0.5"/>
<path d="M73.6196 34.1958C72.4062 34.1958 71.2209 34.0371 70.0636 33.7198C68.9062 33.4025 67.9823 33.0011 67.2916 32.5158L68.6356 29.8558C69.3076 30.3038 70.1102 30.6678 71.0436 30.9478C71.9956 31.2091 72.9289 31.3398 73.8436 31.3398C75.9342 31.3398 76.9796 30.7891 76.9796 29.6878C76.9796 29.1651 76.7089 28.8011 76.1676 28.5958C75.6449 28.3905 74.7956 28.1945 73.6196 28.0078C72.3876 27.8211 71.3796 27.6065 70.5956 27.3638C69.8302 27.1211 69.1582 26.7011 68.5796 26.1038C68.0196 25.4878 67.7396 24.6385 67.7396 23.5558C67.7396 22.1371 68.3276 21.0078 69.5036 20.1678C70.6982 19.3091 72.3036 18.8798 74.3196 18.8798C75.3462 18.8798 76.3729 19.0011 77.3996 19.2438C78.4262 19.4678 79.2662 19.7758 79.9196 20.1678L78.5756 22.8278C77.3062 22.0811 75.8782 21.7078 74.2916 21.7078C73.2649 21.7078 72.4809 21.8665 71.9396 22.1838C71.4169 22.4825 71.1556 22.8838 71.1556 23.3878C71.1556 23.9478 71.4356 24.3491 71.9956 24.5918C72.5742 24.8158 73.4609 25.0305 74.6556 25.2358C75.8502 25.4225 76.8302 25.6371 77.5956 25.8798C78.3609 26.1225 79.0142 26.5331 79.5556 27.1118C80.1156 27.6905 80.3956 28.5118 80.3956 29.5758C80.3956 30.9758 79.7889 32.0958 78.5756 32.9358C77.3622 33.7758 75.7102 34.1958 73.6196 34.1958Z" fill="white" fill-opacity="0.5"/>
<path d="M97.1363 19.0478L90.1363 35.2038C89.483 36.8278 88.6896 37.9665 87.7563 38.6198C86.823 39.2918 85.6936 39.6278 84.3683 39.6278C83.6216 39.6278 82.8843 39.5065 82.1563 39.2638C81.4283 39.0211 80.831 38.6851 80.3643 38.2558L81.7643 35.6798C82.1003 35.9971 82.4923 36.2491 82.9403 36.4358C83.407 36.6225 83.8736 36.7158 84.3403 36.7158C84.9563 36.7158 85.4603 36.5571 85.8523 36.2398C86.263 35.9225 86.6363 35.3905 86.9723 34.6438L87.2243 34.0558L80.7003 19.0478H84.3403L89.0443 30.1078L93.7763 19.0478H97.1363Z" fill="white" fill-opacity="0.5"/>
<path d="M107.612 18.8798C109.068 18.8798 110.365 19.1971 111.504 19.8318C112.661 20.4665 113.566 21.3625 114.22 22.5198C114.873 23.6771 115.2 25.0118 115.2 26.5238C115.2 28.0358 114.873 29.3798 114.22 30.5558C113.566 31.7131 112.661 32.6091 111.504 33.2438C110.365 33.8785 109.068 34.1958 107.612 34.1958C105.596 34.1958 104 33.5238 102.824 32.1798V39.4318H99.3238V19.0478H102.656V21.0078C103.234 20.2985 103.944 19.7665 104.784 19.4118C105.642 19.0571 106.585 18.8798 107.612 18.8798ZM107.22 31.1998C108.508 31.1998 109.562 30.7705 110.384 29.9118C111.224 29.0531 111.644 27.9238 111.644 26.5238C111.644 25.1238 111.224 23.9945 110.384 23.1358C109.562 22.2771 108.508 21.8478 107.22 21.8478C106.38 21.8478 105.624 22.0438 104.952 22.4358C104.28 22.8091 103.748 23.3505 103.356 24.0598C102.964 24.7691 102.768 25.5905 102.768 26.5238C102.768 27.4571 102.964 28.2785 103.356 28.9878C103.748 29.6971 104.28 30.2478 104.952 30.6398C105.624 31.0131 106.38 31.1998 107.22 31.1998Z" fill="white" fill-opacity="0.5"/>
<path d="M127.003 18.8798C128.888 18.8798 130.4 19.4305 131.539 20.5318C132.678 21.6331 133.247 23.2665 133.247 25.4318V33.9998H129.747V25.8798C129.747 24.5731 129.439 23.5931 128.823 22.9398C128.207 22.2678 127.33 21.9318 126.191 21.9318C124.903 21.9318 123.886 22.3238 123.139 23.1078C122.392 23.8731 122.019 24.9838 122.019 26.4398V33.9998H118.519V13.2238H122.019V20.7838C122.598 20.1678 123.307 19.7011 124.147 19.3838C125.006 19.0478 125.958 18.8798 127.003 18.8798Z" fill="white" fill-opacity="0.5"/>
<path d="M152.163 19.0478V33.9998H148.831V32.0958C148.271 32.7678 147.571 33.2905 146.731 33.6638C145.891 34.0185 144.986 34.1958 144.015 34.1958C142.018 34.1958 140.44 33.6451 139.283 32.5438C138.144 31.4238 137.575 29.7718 137.575 27.5878V19.0478H141.075V27.1118C141.075 28.4558 141.374 29.4638 141.971 30.1358C142.587 30.7891 143.455 31.1158 144.575 31.1158C145.826 31.1158 146.815 30.7331 147.543 29.9678C148.29 29.1838 148.663 28.0638 148.663 26.6078V19.0478H152.163Z" fill="white" fill-opacity="0.5"/>
<path d="M161.366 34.1958C160.152 34.1958 158.967 34.0371 157.81 33.7198C156.652 33.4025 155.728 33.0011 155.038 32.5158L156.382 29.8558C157.054 30.3038 157.856 30.6678 158.79 30.9478C159.742 31.2091 160.675 31.3398 161.59 31.3398C163.68 31.3398 164.726 30.7891 164.726 29.6878C164.726 29.1651 164.455 28.8011 163.914 28.5958C163.391 28.3905 162.542 28.1945 161.366 28.0078C160.134 27.8211 159.126 27.6065 158.342 27.3638C157.576 27.1211 156.904 26.7011 156.326 26.1038C155.766 25.4878 155.486 24.6385 155.486 23.5558C155.486 22.1371 156.074 21.0078 157.25 20.1678C158.444 19.3091 160.05 18.8798 162.066 18.8798C163.092 18.8798 164.119 19.0011 165.146 19.2438C166.172 19.4678 167.012 19.7758 167.666 20.1678L166.322 22.8278C165.052 22.0811 163.624 21.7078 162.038 21.7078C161.011 21.7078 160.227 21.8665 159.686 22.1838C159.163 22.4825 158.902 22.8838 158.902 23.3878C158.902 23.9478 159.182 24.3491 159.742 24.5918C160.32 24.8158 161.207 25.0305 162.402 25.2358C163.596 25.4225 164.576 25.6371 165.342 25.8798C166.107 26.1225 166.76 26.5331 167.302 27.1118C167.862 27.6905 168.142 28.5118 168.142 29.5758C168.142 30.9758 167.535 32.0958 166.322 32.9358C165.108 33.7758 163.456 34.1958 161.366 34.1958Z" fill="white" fill-opacity="0.5"/>
</svg>
