<svg width="169" height="48" viewBox="0 0 169 48" fill="none" xmlns="http://www.w3.org/2000/svg">
<path d="M19.2968 4C16.042 4 13.4131 6.90426 13.4131 10.5C13.4131 14.0681 16.042 16.9723 19.2717 17C18.4706 16.9723 17.8446 16.2532 17.8446 15.3681C17.8446 14.483 18.4956 13.7362 19.3218 13.7362C22.827 13.7362 30.6135 13.7362 34.0436 13.7362C36.4722 13.7362 38.4501 11.5511 38.4501 8.86812C38.4501 6.1851 36.4722 4 34.0436 4L19.2968 4Z" fill="white" fill-opacity="0.5"/>
<path opacity="0.9" d="M12.1435 17C8.88865 17 6.25977 19.9043 6.25977 23.5C6.25977 27.0681 8.88865 29.9723 12.1184 30C11.3172 29.9723 10.6913 29.2532 10.6913 28.3681C10.6913 27.483 11.3423 26.7362 12.1685 26.7362C15.6737 26.7362 23.4602 26.7362 26.8903 26.7362C29.3189 26.7362 31.2968 24.5511 31.2968 21.8681C31.2968 19.1851 29.3189 17 26.8903 17L12.1435 17Z" fill="white" fill-opacity="0.5"/>
<path opacity="0.8" d="M7.1985 30C3.71119 30 0.894531 33.1277 0.894531 37C0.894531 40.8426 3.71119 43.9702 7.17165 44C6.31325 43.9702 5.64263 43.1958 5.64263 42.2425C5.64263 41.2894 6.3401 40.4851 7.22535 40.4851C10.9809 40.4851 19.3236 40.4851 22.9987 40.4851C25.6007 40.4851 27.7199 38.1319 27.7199 35.2426C27.7199 32.3532 25.6007 30 22.9987 30L7.1985 30Z" fill="white" fill-opacity="0.5"/>
<path d="M47.374 33.9093V12.9093H59.4455V16.5093H50.915V21.5193H58.6943V25.1193H50.915V30.3093H59.6064V33.9093H47.374Z" fill="white" fill-opacity="0.5"/>
<path d="M60.9936 39.9093V19.0293H64.3199V20.8293H64.8028C65.1068 20.2493 65.5807 19.7393 66.2245 19.2993C66.8683 18.8393 67.7893 18.6093 68.9875 18.6093C70.0605 18.6093 71.0531 18.9093 71.9652 19.5093C72.8772 20.0893 73.6104 20.9493 74.1648 22.0893C74.7192 23.2293 74.9964 24.6093 74.9964 26.2293V26.7093C74.9964 28.3293 74.7192 29.7093 74.1648 30.8493C73.6104 31.9893 72.8772 32.8593 71.9652 33.4593C71.0531 34.0393 70.0605 34.3293 68.9875 34.3293C68.1828 34.3293 67.5032 34.2193 66.9488 33.9993C66.4123 33.7993 65.9741 33.5393 65.6344 33.2193C65.3125 32.8793 65.0531 32.5393 64.8564 32.1993H64.3736V39.9093H60.9936ZM67.9682 31.0293C69.0233 31.0293 69.8907 30.6593 70.5702 29.9193C71.2677 29.1593 71.6164 28.0593 71.6164 26.6193V26.3193C71.6164 24.8793 71.2677 23.7893 70.5702 23.0493C69.8728 22.2893 69.0054 21.9093 67.9682 21.9093C66.9309 21.9093 66.0636 22.2893 65.3661 23.0493C64.6686 23.7893 64.3199 24.8793 64.3199 26.3193V26.6193C64.3199 28.0593 64.6686 29.1593 65.3661 29.9193C66.0636 30.6593 66.9309 31.0293 67.9682 31.0293Z" fill="white" fill-opacity="0.5"/>
<path d="M76.7587 33.9093V19.0293H80.1387V33.9093H76.7587ZM78.4487 17.2893C77.8407 17.2893 77.3221 17.0693 76.8928 16.6293C76.4815 16.1893 76.2759 15.6093 76.2759 14.8893C76.2759 14.1693 76.4815 13.5893 76.8928 13.1493C77.3221 12.7093 77.8407 12.4893 78.4487 12.4893C79.0746 12.4893 79.5933 12.7093 80.0046 13.1493C80.4159 13.5893 80.6216 14.1693 80.6216 14.8893C80.6216 15.6093 80.4159 16.1893 80.0046 16.6293C79.5933 17.0693 79.0746 17.2893 78.4487 17.2893Z" fill="white" fill-opacity="0.5"/>
<path d="M88.7933 34.3293C87.5056 34.3293 86.3343 34.0293 85.2791 33.4293C84.2419 32.8293 83.4192 31.9593 82.8112 30.8193C82.2032 29.6793 81.8991 28.2993 81.8991 26.6793V26.2593C81.8991 24.6393 82.2032 23.2593 82.8112 22.1193C83.4192 20.9793 84.2419 20.1093 85.2791 19.5093C86.3343 18.9093 87.5056 18.6093 88.7933 18.6093C90.063 18.6093 91.1539 18.8593 92.066 19.3593C92.978 19.8593 93.7113 20.5493 94.2656 21.4293C94.8379 22.2893 95.2135 23.2693 95.3923 24.3693L92.1196 25.1493C92.0481 24.5493 91.8871 24.0093 91.6368 23.5293C91.3864 23.0493 91.0287 22.6693 90.5637 22.3893C90.1166 22.1093 89.5533 21.9693 88.8737 21.9693C88.1942 21.9693 87.5772 22.1393 87.0228 22.4793C86.4863 22.7993 86.0571 23.2893 85.7352 23.9493C85.4311 24.5893 85.2791 25.3793 85.2791 26.3193V26.6193C85.2791 27.5593 85.4311 28.3593 85.7352 29.0193C86.0571 29.6593 86.4863 30.1493 87.0228 30.4893C87.5772 30.8093 88.1942 30.9693 88.8737 30.9693C89.8931 30.9693 90.6621 30.6793 91.1807 30.0993C91.7172 29.4993 92.057 28.7193 92.2001 27.7593L95.4728 28.6293C95.2403 29.6893 94.8379 30.6593 94.2656 31.5393C93.7113 32.3993 92.978 33.0793 92.066 33.5793C91.1539 34.0793 90.063 34.3293 88.7933 34.3293Z" fill="white" fill-opacity="0.5"/>
<path d="M101.99 34.1493C100.952 34.1493 100.04 33.8893 99.2535 33.3693C98.4845 32.8293 97.8854 32.0893 97.4562 31.1493C97.027 30.2093 96.8124 29.1293 96.8124 27.9093V19.0293H100.192V27.6093C100.192 28.7293 100.434 29.5693 100.917 30.1293C101.417 30.6893 102.124 30.9693 103.036 30.9693C104.073 30.9693 104.878 30.5893 105.45 29.8293C106.022 29.0493 106.309 27.9693 106.309 26.5893V19.0293H109.689V33.9093H106.362V31.9593H105.879C105.665 32.4593 105.262 32.9493 104.672 33.4293C104.082 33.9093 103.188 34.1493 101.99 34.1493Z" fill="white" fill-opacity="0.5"/>
<path d="M112.109 33.9093V19.0293H115.435V20.7093H115.918C116.114 20.1093 116.436 19.6693 116.883 19.3893C117.348 19.1093 117.885 18.9693 118.493 18.9693H120.102V22.3293H118.439C117.581 22.3293 116.874 22.5893 116.32 23.1093C115.766 23.6093 115.489 24.3893 115.489 25.4493V33.9093H112.109Z" fill="white" fill-opacity="0.5"/>
<path d="M121.403 33.9093V19.0293H124.783V33.9093H121.403ZM123.093 17.2893C122.485 17.2893 121.966 17.0693 121.537 16.6293C121.126 16.1893 120.92 15.6093 120.92 14.8893C120.92 14.1693 121.126 13.5893 121.537 13.1493C121.966 12.7093 122.485 12.4893 123.093 12.4893C123.719 12.4893 124.238 12.7093 124.649 13.1493C125.06 13.5893 125.266 14.1693 125.266 14.8893C125.266 15.6093 125.06 16.1893 124.649 16.6293C124.238 17.0693 123.719 17.2893 123.093 17.2893Z" fill="white" fill-opacity="0.5"/>
<path d="M133.518 34.3293C132.195 34.3293 131.005 34.0293 129.95 33.4293C128.895 32.8293 128.064 31.9593 127.456 30.8193C126.848 29.6793 126.543 28.3093 126.543 26.7093V26.2293C126.543 24.6293 126.848 23.2593 127.456 22.1193C128.064 20.9793 128.895 20.1093 129.95 19.5093C131.005 18.9093 132.195 18.6093 133.518 18.6093C134.841 18.6093 136.031 18.9093 137.086 19.5093C138.141 20.1093 138.973 20.9793 139.581 22.1193C140.189 23.2593 140.493 24.6293 140.493 26.2293V26.7093C140.493 28.3093 140.189 29.6793 139.581 30.8193C138.973 31.9593 138.141 32.8293 137.086 33.4293C136.031 34.0293 134.841 34.3293 133.518 34.3293ZM133.518 30.9693C134.555 30.9693 135.414 30.5993 136.093 29.8593C136.773 29.0993 137.113 28.0193 137.113 26.6193V26.3193C137.113 24.9193 136.773 23.8493 136.093 23.1093C135.432 22.3493 134.573 21.9693 133.518 21.9693C132.481 21.9693 131.622 22.3493 130.943 23.1093C130.263 23.8493 129.924 24.9193 129.924 26.3193V26.6193C129.924 28.0193 130.263 29.0993 130.943 29.8593C131.622 30.5993 132.481 30.9693 133.518 30.9693Z" fill="white" fill-opacity="0.5"/>
<path d="M147.341 34.1493C146.304 34.1493 145.392 33.8893 144.605 33.3693C143.836 32.8293 143.237 32.0893 142.808 31.1493C142.379 30.2093 142.164 29.1293 142.164 27.9093V19.0293H145.544V27.6093C145.544 28.7293 145.785 29.5693 146.268 30.1293C146.769 30.6893 147.475 30.9693 148.388 30.9693C149.425 30.9693 150.23 30.5893 150.802 29.8293C151.374 29.0493 151.66 27.9693 151.66 26.5893V19.0293H155.04V33.9093H151.714V31.9593H151.231C151.016 32.4593 150.614 32.9493 150.024 33.4293C149.434 33.9093 148.54 34.1493 147.341 34.1493Z" fill="white" fill-opacity="0.5"/>
<path d="M162.986 34.3293C161.252 34.3293 159.83 33.9093 158.721 33.0693C157.612 32.2293 156.942 31.0293 156.709 29.4693L159.821 28.5693C159.946 29.2693 160.152 29.8193 160.438 30.2193C160.742 30.6193 161.108 30.9093 161.538 31.0893C161.985 31.2493 162.468 31.3293 162.986 31.3293C163.773 31.3293 164.354 31.1793 164.73 30.8793C165.105 30.5593 165.293 30.1693 165.293 29.7093C165.293 29.2493 165.114 28.8993 164.757 28.6593C164.399 28.3993 163.827 28.1893 163.04 28.0293L162.289 27.8793C161.359 27.6793 160.509 27.4093 159.74 27.0693C158.971 26.7093 158.354 26.2193 157.889 25.5993C157.424 24.9793 157.192 24.1793 157.192 23.1993C157.192 21.7193 157.675 20.5893 158.64 19.8093C159.606 19.0093 160.876 18.6093 162.45 18.6093C163.934 18.6093 165.168 18.9793 166.152 19.7193C167.135 20.4593 167.779 21.4293 168.083 22.6293L164.944 23.7093C164.801 22.9493 164.506 22.4093 164.059 22.0893C163.63 21.7693 163.094 21.6093 162.45 21.6093C161.806 21.6093 161.314 21.7393 160.974 21.9993C160.635 22.2393 160.465 22.5793 160.465 23.0193C160.465 23.4993 160.643 23.8593 161.001 24.0993C161.359 24.3193 161.842 24.4893 162.45 24.6093L163.201 24.7593C164.202 24.9593 165.105 25.2293 165.91 25.5693C166.733 25.8893 167.377 26.3593 167.842 26.9793C168.324 27.5793 168.566 28.3993 168.566 29.4393C168.566 30.9993 168.056 32.2093 167.037 33.0693C166.035 33.9093 164.685 34.3293 162.986 34.3293Z" fill="white" fill-opacity="0.5"/>
</svg>
