<svg width="63" height="63" viewBox="0 0 63 63" fill="none" xmlns="http://www.w3.org/2000/svg">
<rect y="31.1123" width="44" height="44" rx="4" transform="rotate(-45 0 31.1123)" fill="#17BD8D"/>
<path d="M31.4796 39.4003C30.3756 39.4003 29.3756 39.2083 28.4796 38.8243C27.5836 38.4243 26.8636 37.8163 26.3196 37.0003C25.7756 36.1843 25.4876 35.1603 25.4556 33.9283H28.4796C28.4956 34.7443 28.7596 35.4323 29.2716 35.9923C29.7996 36.5363 30.5356 36.8083 31.4796 36.8083C32.3756 36.8083 33.0636 36.5603 33.5436 36.0643C34.0236 35.5683 34.2636 34.9443 34.2636 34.1923C34.2636 33.3123 33.9436 32.6483 33.3036 32.2003C32.6796 31.7363 31.8716 31.5043 30.8796 31.5043H29.6316V28.9843H30.9036C31.7196 28.9843 32.3996 28.7923 32.9436 28.4083C33.4876 28.0243 33.7596 27.4563 33.7596 26.7043C33.7596 26.0803 33.5516 25.5843 33.1356 25.2163C32.7356 24.8323 32.1756 24.6403 31.4556 24.6403C30.6716 24.6403 30.0556 24.8723 29.6076 25.3363C29.1756 25.8003 28.9356 26.3683 28.8876 27.0403H25.8876C25.9516 25.4883 26.4876 24.2643 27.4956 23.3683C28.5196 22.4723 29.8396 22.0243 31.4556 22.0243C32.6076 22.0243 33.5756 22.2323 34.3596 22.6483C35.1596 23.0483 35.7596 23.5843 36.1596 24.2563C36.5756 24.9283 36.7836 25.6723 36.7836 26.4883C36.7836 27.4323 36.5196 28.2323 35.9916 28.8883C35.4796 29.5283 34.8396 29.9603 34.0716 30.1843C35.0156 30.3763 35.7836 30.8403 36.3756 31.5763C36.9676 32.2963 37.2636 33.2083 37.2636 34.3123C37.2636 35.2403 37.0396 36.0883 36.5916 36.8563C36.1436 37.6243 35.4876 38.2403 34.6236 38.7043C33.7756 39.1683 32.7276 39.4003 31.4796 39.4003Z" fill="white"/>
</svg>
