<svg width="63" height="63" viewBox="0 0 63 63" fill="none" xmlns="http://www.w3.org/2000/svg">
<rect y="31.1123" width="44" height="44" rx="4" transform="rotate(-45 0 31.1123)" fill="#FDAC33"/>
<path d="M25.3685 39.1123V36.8803C26.3925 36.0323 27.3845 35.1923 28.3445 34.3603C29.3205 33.5283 30.1845 32.7043 30.9365 31.8883C31.7045 31.0723 32.3125 30.2803 32.7605 29.5123C33.2245 28.7283 33.4565 27.9683 33.4565 27.2323C33.4565 26.5443 33.2645 25.9363 32.8805 25.4083C32.5125 24.8803 31.8965 24.6163 31.0325 24.6163C30.1525 24.6163 29.4885 24.9043 29.0405 25.4803C28.5925 26.0563 28.3685 26.7523 28.3685 27.5683H25.3925C25.4245 26.3363 25.6965 25.3123 26.2085 24.4963C26.7205 23.6643 27.4005 23.0483 28.2485 22.6483C29.0965 22.2323 30.0485 22.0243 31.1045 22.0243C32.8165 22.0243 34.1445 22.4963 35.0885 23.4403C36.0485 24.3683 36.5285 25.5763 36.5285 27.0643C36.5285 27.9923 36.3125 28.8963 35.8805 29.7763C35.4645 30.6563 34.9125 31.5043 34.2245 32.3203C33.5365 33.1363 32.7925 33.9043 31.9925 34.6243C31.1925 35.3283 30.4165 35.9843 29.6645 36.5923H36.9365V39.1123H25.3685Z" fill="white"/>
</svg>
