<svg width="56" height="56" viewBox="0 0 56 56" fill="none" xmlns="http://www.w3.org/2000/svg">
<g opacity="0.1" clip-path="url(#clip0_15055_21219)">
<path d="M23.215 42.6837L16.6163 49.2823C13.8807 52.018 9.45049 52.018 6.71713 49.2829C3.98323 46.549 3.98323 42.1184 6.71659 39.385L19.9161 26.1854C22.6495 23.452 27.0801 23.452 29.8135 26.1854C30.7247 27.0966 32.2021 27.0966 33.1133 26.1854C34.0245 25.2743 34.0245 23.7968 33.1133 22.8856C28.5574 18.3298 21.1722 18.3298 16.6163 22.8856L3.41689 36.0852C-1.13896 40.641 -1.13896 48.0263 3.41689 52.5821C7.9722 57.1404 15.358 57.1404 19.9162 52.5821L26.5149 45.9835C27.4261 45.0723 27.4261 43.5949 26.5149 42.6837C25.6037 41.7725 24.1262 41.7725 23.215 42.6837Z" fill="#FF7300"/>
<path d="M52.581 19.9138C57.1368 15.358 57.1368 7.97273 52.581 3.41688C48.0252 -1.13887 40.6403 -1.13887 36.0822 3.41633L28.1647 11.3338C27.2535 12.245 27.2535 13.7224 28.1647 14.6336C29.0759 15.5448 30.5533 15.5448 31.4645 14.6336L39.3814 6.71668C42.1167 3.98321 46.5477 3.98321 49.2812 6.71668C52.0145 9.45004 52.0145 13.8807 49.2812 16.614L34.7634 31.1318C32.0299 33.8653 27.5994 33.8653 24.866 31.1318C23.9548 30.2207 22.4774 30.2207 21.5662 31.1318C20.655 32.043 20.655 33.5205 21.5662 34.4317C26.1221 38.9875 33.5073 38.9875 38.0632 34.4317L52.581 19.9138Z" fill="#FF7300"/>
<path d="M43.6512 40.3514C42.74 39.4402 41.2626 39.4402 40.3514 40.3514C39.4402 41.2626 39.4402 42.74 40.3514 43.6512L47.349 50.6488C48.2602 51.56 49.7376 51.56 50.6488 50.6488C51.56 49.7376 51.56 48.2602 50.6488 47.349L43.6512 40.3514Z" fill="#FF7300"/>
<path d="M12.3521 15.6519C13.2633 16.5631 14.7407 16.5631 15.6519 15.6519C16.5631 14.7407 16.5631 13.2633 15.6519 12.3521L8.64726 5.34746C7.73607 4.43626 6.25865 4.43626 5.34746 5.34746C4.43626 6.25865 4.43626 7.73607 5.34746 8.64726L12.3521 15.6519Z" fill="#FF7300"/>
<path d="M53.6652 35H46.6653C45.3767 35 44.332 36.0446 44.332 37.3333C44.332 38.6219 45.3767 39.6665 46.6653 39.6665H53.6652C54.9539 39.6665 55.9985 38.6219 55.9985 37.3333C55.9985 36.0446 54.9539 35 53.6652 35Z" fill="#FF7300"/>
<path d="M18.6653 11.6666C19.9539 11.6666 20.9986 10.6219 20.9986 9.3333V2.33338C20.9986 1.04463 19.9539 0 18.6653 0C17.3767 0 16.332 1.04463 16.332 2.33327V9.33319C16.3319 10.6218 17.3767 11.6666 18.6653 11.6666Z" fill="#FF7300"/>
<path d="M2.33327 21.0005H9.33319C10.6218 21.0005 11.6665 19.9559 11.6665 18.6673C11.6665 17.3786 10.6218 16.334 9.33319 16.334H2.33327C1.04463 16.334 0 17.3786 0 18.6673C0 19.9559 1.04463 21.0005 2.33327 21.0005Z" fill="#FF7300"/>
<path d="M37.3333 44.332C36.0446 44.332 35 45.3767 35 46.6653V53.6652C35 54.9539 36.0446 55.9985 37.3333 55.9985C38.6219 55.9985 39.6665 54.9539 39.6665 53.6652V46.6653C39.6667 45.3768 38.6219 44.332 37.3333 44.332Z" fill="#FF7300"/>
</g>
<defs>
<clipPath id="clip0_15055_21219">
<rect width="56" height="56" fill="white"/>
</clipPath>
</defs>
</svg>
