<svg width="40" height="40" viewBox="0 0 40 40" fill="none" xmlns="http://www.w3.org/2000/svg">
<path d="M3.32617 14.167H19.1595" stroke="#FF7300" stroke-width="2" stroke-miterlimit="10" stroke-linecap="round" stroke-linejoin="round"/>
<path d="M9.99414 27.5H13.3275" stroke="#0061BF" stroke-width="2" stroke-miterlimit="10" stroke-linecap="round" stroke-linejoin="round"/>
<path d="M17.4941 27.5H24.1608" stroke="#0061BF" stroke-width="2" stroke-miterlimit="10" stroke-linecap="round" stroke-linejoin="round"/>
<path d="M36.6595 20.0497V26.8497C36.6595 32.6997 35.1762 34.1663 29.2595 34.1663H10.7262C4.80951 34.1663 3.32617 32.6997 3.32617 26.8497V13.1497C3.32617 7.29967 4.80951 5.83301 10.7262 5.83301H24.1595" stroke="#FF7300" stroke-width="1.5" stroke-linecap="round" stroke-linejoin="round"/>
<path d="M31.7939 6.88319L25.6106 13.0665C25.3773 13.2999 25.1439 13.7665 25.0939 14.0999L24.7606 16.4665C24.6439 17.3165 25.2439 17.9165 26.0939 17.7999L28.4606 17.4665C28.7939 17.4165 29.2606 17.1832 29.4939 16.9499L35.6773 10.7665C36.7439 9.69986 37.2439 8.46652 35.6773 6.89986C34.0939 5.31652 32.8606 5.81652 31.7939 6.88319Z" stroke="#0061BF" stroke-width="1.5" stroke-miterlimit="10" stroke-linecap="round" stroke-linejoin="round"/>
<path d="M30.9102 7.7666C31.4435 9.64993 32.9102 11.1166 34.7768 11.6333" stroke="#0061BF" stroke-width="1.5" stroke-miterlimit="10" stroke-linecap="round" stroke-linejoin="round"/>
</svg>
