<svg width="16" height="16" viewBox="0 0 16 16" fill="none" xmlns="http://www.w3.org/2000/svg">
<path d="M8.61875 7.775V4.56875C8.61875 4.40625 8.56563 4.27188 8.45938 4.16563C8.35313 4.05938 8.21875 4.00625 8.05625 4.00625C7.89375 4.00625 7.75938 4.05938 7.65313 4.16563C7.54688 4.27188 7.49375 4.40625 7.49375 4.56875V8C7.49375 8.075 7.50625 8.14375 7.53125 8.20625C7.55625 8.26875 7.59375 8.33125 7.64375 8.39375L10.3438 11.1875C10.4563 11.3125 10.5969 11.3719 10.7656 11.3656C10.9344 11.3594 11.075 11.3 11.1875 11.1875C11.3 11.075 11.3563 10.9375 11.3563 10.775C11.3563 10.6125 11.3 10.475 11.1875 10.3625L8.61875 7.775ZM8 15.5C6.975 15.5 6.00625 15.3031 5.09375 14.9094C4.18125 14.5156 3.38438 13.9781 2.70313 13.2969C2.02188 12.6156 1.48438 11.8188 1.09063 10.9063C0.696875 9.99375 0.5 9.025 0.5 8C0.5 6.975 0.696875 6.00625 1.09063 5.09375C1.48438 4.18125 2.02188 3.38438 2.70313 2.70313C3.38438 2.02188 4.18125 1.48438 5.09375 1.09063C6.00625 0.696875 6.975 0.5 8 0.5C9.025 0.5 9.99375 0.696875 10.9063 1.09063C11.8188 1.48438 12.6156 2.02188 13.2969 2.70313C13.9781 3.38438 14.5156 4.18125 14.9094 5.09375C15.3031 6.00625 15.5 6.975 15.5 8C15.5 9.025 15.3031 9.99375 14.9094 10.9063C14.5156 11.8188 13.9781 12.6156 13.2969 13.2969C12.6156 13.9781 11.8188 14.5156 10.9063 14.9094C9.99375 15.3031 9.025 15.5 8 15.5ZM8 14.375C9.75 14.375 11.25 13.75 12.5 12.5C13.75 11.25 14.375 9.75 14.375 8C14.375 6.25 13.75 4.75 12.5 3.5C11.25 2.25 9.75 1.625 8 1.625C6.25 1.625 4.75 2.25 3.5 3.5C2.25 4.75 1.625 6.25 1.625 8C1.625 9.75 2.25 11.25 3.5 12.5C4.75 13.75 6.25 14.375 8 14.375Z" fill="#5D737A"/>
</svg>
