<svg width="40" height="40" viewBox="0 0 40 40" fill="none" xmlns="http://www.w3.org/2000/svg">
<path d="M36.6163 30.5507C36.6163 31.1507 36.483 31.7673 36.1997 32.3673C35.9163 32.9673 35.5497 33.534 35.0663 34.0673C34.2497 34.9673 33.3497 35.6173 32.333 36.034C31.333 36.4507 30.2497 36.6673 29.083 36.6673C27.383 36.6673 25.5663 36.2673 23.6497 35.4507C21.733 34.634 19.8163 33.534 17.9163 32.1507C15.9997 30.7507 14.183 29.2007 12.4497 27.484C10.733 25.7507 9.18301 23.934 7.79967 22.034C6.43301 20.134 5.33301 18.234 4.53301 16.3507C3.73301 14.4507 3.33301 12.634 3.33301 10.9007C3.33301 9.76732 3.53301 8.68398 3.93301 7.68398C4.33301 6.66732 4.96634 5.73398 5.84967 4.90065C6.91634 3.85065 8.08301 3.33398 9.31634 3.33398C9.78301 3.33398 10.2497 3.43398 10.6663 3.63398C11.0997 3.83398 11.483 4.13398 11.783 4.56732L15.6497 10.0173C15.9497 10.434 16.1663 10.8173 16.3163 11.184C16.4663 11.534 16.5497 11.884 16.5497 12.2007C16.5497 12.6007 16.433 13.0007 16.1997 13.384C15.983 13.7673 15.6663 14.1673 15.2663 14.5673L13.9997 15.884C13.8163 16.0673 13.733 16.284 13.733 16.5507C13.733 16.684 13.7497 16.8007 13.783 16.934C13.833 17.0673 13.883 17.1673 13.9163 17.2673C14.2163 17.8173 14.733 18.534 15.4663 19.4007C16.2163 20.2673 17.0163 21.1507 17.883 22.034C18.783 22.9173 19.6497 23.734 20.533 24.484C21.3997 25.2173 22.1163 25.7173 22.683 26.0173C22.7663 26.0507 22.8663 26.1007 22.983 26.1507C23.1163 26.2007 23.2497 26.2173 23.3997 26.2173C23.683 26.2173 23.8997 26.1173 24.083 25.934L25.3497 24.684C25.7663 24.2673 26.1663 23.9507 26.5497 23.7507C26.933 23.5173 27.3163 23.4007 27.733 23.4007C28.0497 23.4007 28.383 23.4673 28.7497 23.6173C29.1163 23.7673 29.4997 23.984 29.9163 24.2673L35.433 28.184C35.8663 28.484 36.1663 28.834 36.3497 29.2507C36.5163 29.6673 36.6163 30.084 36.6163 30.5507Z" stroke="#FF7300" stroke-width="2.5" stroke-miterlimit="10"/>
<path d="M30.8333 15.0013C30.8333 14.0013 30.05 12.468 28.8833 11.218C27.8167 10.068 26.4 9.16797 25 9.16797" stroke="#051F39" stroke-width="2.5" stroke-linecap="round" stroke-linejoin="round"/>
<path d="M36.6667 15.0007C36.6667 8.55065 31.45 3.33398 25 3.33398" stroke="#051F39" stroke-width="2.5" stroke-linecap="round" stroke-linejoin="round"/>
</svg>
