<svg width="19" height="24" viewBox="0 0 19 24" fill="none" xmlns="http://www.w3.org/2000/svg">
<path d="M9.1875 0C4.12148 0 0 4.12148 0 9.1875C0 10.8091 0.428437 12.4034 1.23895 13.7979C1.42791 14.123 1.63912 14.4398 1.86684 14.7396L8.78831 24H9.58664L16.5082 14.7397C16.7358 14.4398 16.947 14.1231 17.136 13.7979C17.9466 12.4034 18.375 10.8091 18.375 9.1875C18.375 4.12148 14.2535 0 9.1875 0ZM9.1875 12.2344C7.50745 12.2344 6.14062 10.8675 6.14062 9.1875C6.14062 7.50745 7.50745 6.14062 9.1875 6.14062C10.8675 6.14062 12.2344 7.50745 12.2344 9.1875C12.2344 10.8675 10.8675 12.2344 9.1875 12.2344Z" fill="#FF788F"/>
</svg>
