<svg width="680" height="632" viewBox="0 0 680 632" fill="none" xmlns="http://www.w3.org/2000/svg">
<path opacity="0.1" d="M341.991 621.244C483.636 621.244 598.461 615.359 598.461 608.1C598.461 600.84 483.636 594.955 341.991 594.955C200.347 594.955 85.5215 600.84 85.5215 608.1C85.5215 615.359 200.347 621.244 341.991 621.244Z" fill="#009FD3"/>
<path opacity="0.5" d="M454.318 605.412C454.318 605.412 449.389 597.047 459.994 593.014C470.599 588.981 494.648 586.442 492.258 578.226C489.868 570.011 481.653 555.223 502.266 541.182C522.73 527.291 518.697 521.316 521.535 522.66C524.373 524.004 531.244 532.22 530.049 539.987C528.854 547.754 523.178 549.696 525.867 552.236C528.555 554.625 537.667 545.813 537.667 537.597C537.667 529.382 538.115 523.407 544.09 526.842C549.915 530.278 549.168 535.207 553.351 531.473C557.533 527.739 560.222 520.27 558.429 509.217C556.786 498.163 562.164 489.948 569.931 489.649C577.698 489.35 593.83 503.839 595.175 525.797C596.37 547.754 582.777 565.679 584.719 571.206C586.661 576.882 595.175 574.193 599.656 566.127C603.988 558.061 614.742 570.758 611.904 581.811C608.917 592.865 606.228 604.964 599.656 607.204C593.083 609.445 476.425 607.652 467.612 607.652C458.65 607.652 455.961 607.802 454.318 605.412Z" fill="#FF788F"/>
<path d="M481.954 601.677C488.078 601.528 506.451 601.677 504.21 591.37C501.969 581.064 498.086 576.732 504.509 567.919C510.932 559.106 517.952 564.484 518.251 568.965C518.55 573.297 516.757 582.109 524.375 580.915C531.993 579.72 532.142 559.106 538.565 557.463C544.988 555.82 546.93 562.094 547.826 568.218C548.872 574.342 556.34 567.77 559.328 560.451C562.315 553.131 562.017 543.124 568.888 540.136C575.759 537.149 579.194 554.326 576.207 570.01C573.219 585.694 570.829 593.462 574.564 594.955C578.298 596.449 585.617 592.715 589.053 598.391C592.488 604.067 587.41 607.951 573.369 607.951C559.477 607.951 488.227 607.951 477.024 607.951C465.523 607.801 467.913 601.976 481.954 601.677Z" fill="#FF788F"/>
<path opacity="0.5" d="M75.3631 364.177C70.8819 372.093 58.7829 368.06 53.1068 359.098C47.4307 349.987 38.9165 355.364 40.8584 373.288C42.8002 391.064 49.97 402.864 62.8159 411.378C75.6618 419.892 90.1508 423.328 86.7152 429.153C83.2797 434.979 77.9024 448.273 97.1712 454.994C116.44 461.865 144.372 458.729 158.712 442.597C173.201 426.465 173.201 390.914 166.479 371.795C159.907 352.675 146.613 340.576 142.281 331.763C137.949 322.95 129.883 329.075 131.228 337.29C132.722 345.505 135.41 350.285 129.585 350.435C123.759 350.584 119.876 330.568 102.399 326.834C84.9228 322.95 82.0847 333.406 71.0313 327.432C59.9778 321.307 55.9448 321.905 55.198 331.465C54.4511 341.174 61.7703 351.779 68.0439 353.422C77.4543 355.812 78.3505 358.799 75.3631 364.177Z" fill="#FF788F"/>
<path d="M101.057 373.438C102.7 381.952 95.6797 391.213 83.4313 385.836C71.1829 380.458 66.8512 384.79 73.1247 396.142C79.3983 407.495 93.4392 417.951 101.057 421.834C108.675 425.718 103.447 431.394 104.493 437.219C105.538 443.045 122.567 451.858 139.744 433.037C156.922 414.216 157.071 390.317 152.142 372.841C147.213 355.514 140.64 358.202 140.64 364.028C140.64 369.853 141.387 381.355 136.906 380.16C132.574 378.965 126.45 370.451 120.774 360.592C111.065 343.713 87.315 329.971 84.1782 342.966C81.9376 352.078 98.6672 360.443 101.057 373.438Z" fill="#FF8D76"/>
<path opacity="0.5" d="M447.448 317.723C425.939 300.247 406.371 268.879 402.04 212.566C398.903 171.788 412.495 153.714 426.536 146.992C440.428 140.42 440.428 133.848 446.701 135.64C452.975 137.433 451.481 151.772 445.656 158.793C439.83 165.813 439.084 176.717 447.896 177.464C456.709 178.211 457.755 162.378 459.249 147.739C460.742 133.101 464.327 127.275 481.654 119.209C498.981 111.143 508.093 105.318 511.678 93.5175C515.412 81.7172 518.997 82.464 525.569 85.7502C532.142 89.0364 534.382 104.422 528.855 110.247C523.329 116.072 518.997 120.554 519.744 125.632C520.491 130.711 523.03 122.645 538.116 115.326C553.203 108.006 559.327 86.0489 561.269 74.6967C563.211 63.3446 567.094 60.3571 577.7 65.5851C588.305 70.6637 601.898 90.8288 598.164 118.313C594.429 145.797 575.758 164.469 572.92 179.256C569.932 193.895 579.193 197.181 588.753 191.654C598.313 186.127 593.085 169.697 598.313 161.929C603.392 154.162 619.225 170.742 624.005 198.525C628.785 226.308 636.104 270.522 594.728 311.898C552.008 354.319 489.422 351.929 447.448 317.723Z" fill="#FF788F"/>
<path d="M463.428 187.322C473.884 170.294 484.638 170.891 485.086 177.015C485.385 183.289 476.722 192.102 481.053 196.434C485.385 200.765 491.36 193.147 493.152 182.094C494.945 171.041 505.55 164.916 516.604 159.688C527.657 154.61 532.437 143.556 537.814 143.258C543.192 142.959 545.133 154.61 541.549 161.63C537.814 168.651 524.67 172.236 524.67 182.094C524.67 191.953 534.379 192.55 538.561 184.335C542.743 176.119 541.698 171.638 550.511 170.891C559.324 170.144 558.577 191.206 552.751 198.973C546.926 206.74 536.918 212.864 541.549 220.482C546.179 228.1 554.693 220.482 559.324 215.404C563.954 210.325 573.215 215.852 574.709 225.71C576.203 235.419 557.083 252.149 558.278 260.663C559.473 269.177 567.091 267.086 571.423 261.111C575.754 255.286 581.431 262.754 579.937 272.613C578.443 282.471 551.855 315.184 504.355 302.636C435.346 284.563 444.756 217.943 463.428 187.322Z" fill="#FF788F"/>
<path d="M215.178 167.008L369.926 32.1256C371.42 30.7813 373.66 30.9307 375.005 32.4244C376.349 33.9181 376.2 36.308 374.706 37.6524L222.497 176.866L215.178 167.008Z" fill="#E1ECFF"/>
<path d="M200.687 194.492L115.844 7.47939C114.948 5.68693 115.844 3.44637 117.636 2.69952C119.429 1.80329 121.669 2.55014 122.565 4.49197L212.188 190.459L200.687 194.492Z" fill="#E1ECFF"/>
<path d="M201.583 209.281C217.009 209.281 229.515 196.775 229.515 181.348C229.515 165.922 217.009 153.416 201.583 153.416C186.156 153.416 173.65 165.922 173.65 181.348C173.65 196.775 186.156 209.281 201.583 209.281Z" fill="#002571"/>
<path opacity="0.2" d="M200.387 172.236C207.811 172.236 213.83 168.491 213.83 163.872C213.83 159.252 207.811 155.507 200.387 155.507C192.962 155.507 186.943 159.252 186.943 163.872C186.943 168.491 192.962 172.236 200.387 172.236Z" fill="white"/>
<path d="M421.454 525.499C421.006 538.195 406.219 538.643 398.899 524.005C395.464 516.984 389.788 505.035 384.858 494.579C379.481 483.077 375 473.219 375 473.219L417.571 477.55C417.571 477.55 418.467 485.019 419.513 494.429C420.708 505.184 421.753 518.628 421.454 525.499Z" fill="#1C3177"/>
<path d="M419.514 494.43C417.422 494.878 415.032 495.326 412.493 495.774C403.68 497.268 393.523 496.222 385.009 494.579C379.632 483.077 375.15 473.219 375.15 473.219L417.721 477.551C417.572 477.551 418.617 485.019 419.514 494.43Z" fill="#0D1525"/>
<path d="M132.721 476.804C128.24 488.754 141.534 494.878 153.932 484.273C159.907 479.194 169.765 470.381 178.429 462.614C187.839 454.1 195.905 446.781 195.905 446.781L154.977 434.084C154.977 434.084 151.243 440.656 146.612 448.872C141.534 458.581 135.111 470.381 132.721 476.804Z" fill="#1C3177"/>
<path d="M146.762 449.021C148.554 450.365 150.496 451.71 152.737 453.054C160.205 457.834 169.914 460.821 178.578 462.763C187.988 454.249 196.054 446.93 196.054 446.93L155.126 434.233C155.126 434.233 151.392 440.806 146.762 449.021Z" fill="#0D1525"/>
<path d="M530.049 315.782C524.372 360.444 519.294 407.794 509.585 440.507C508.39 444.689 507.045 448.573 505.552 452.158C493.154 484.422 470.599 477.849 441.471 480.538C412.344 483.227 403.531 482.928 403.531 482.928L411 437.519L446.55 223.022L516.306 229.147C516.306 229.147 520.041 231.835 523.177 236.914C526.464 242.142 536.471 265.294 530.049 315.782Z" fill="#007FA9"/>
<path d="M509.585 440.507C508.39 444.689 507.045 448.573 505.552 452.158C493.154 484.422 470.599 477.85 441.471 480.538C412.344 483.227 403.531 482.928 403.531 482.928L411 437.52L509.585 440.507Z" fill="#007FA9"/>
<path d="M145.119 191.206C145.119 191.206 163.342 181.647 183.956 180.9C204.569 180.153 367.682 196.434 421.007 202.26C474.333 208.085 497.336 215.405 508.091 221.081C518.845 226.757 523.177 236.914 523.177 236.914L437.587 229.147L145.119 191.206Z" fill="#007FA9"/>
<path d="M112.557 389.123L123.461 220.932C124.656 201.513 141.983 187.024 161.252 189.265L438.484 220.633C455.811 222.575 468.209 238.109 466.566 255.287L448.343 438.864C445.505 467.095 419.365 486.961 391.432 482.331L154.381 442.15C128.988 437.818 110.914 414.815 112.557 389.123Z" fill="#009FD3"/>
<path d="M372.163 444.54L392.179 250.507C393.075 242.292 400.394 236.317 408.61 237.213L443.413 241.097C451.629 241.993 457.454 249.461 456.558 257.527L434.152 451.71C433.256 459.925 425.638 465.751 417.423 464.705L385.159 460.672C377.093 459.776 371.267 452.606 372.163 444.54Z" fill="#009FD3"/>
<path d="M447.743 279.485C447.743 285.758 445.502 291.434 441.917 295.916C439.378 298.903 436.391 301.442 432.806 303.085C429.52 304.728 425.785 305.475 421.752 305.475C407.413 305.475 395.762 293.824 395.762 279.485C395.762 273.51 397.853 267.983 401.139 263.651C403.529 260.515 406.516 257.975 410.101 256.183C413.537 254.39 417.57 253.494 421.752 253.494C435.943 253.494 447.743 265.145 447.743 279.485Z" fill="#00698B"/>
<path d="M446.398 275.153C446.398 280.829 444.457 286.057 441.021 290.239C438.78 293.077 435.942 295.318 432.656 296.812C429.519 298.305 426.233 299.052 422.499 299.052C409.354 299.052 398.6 288.447 398.6 275.153C398.6 269.626 400.392 264.697 403.529 260.664C405.769 257.826 408.458 255.436 411.744 253.942C415.03 252.299 418.615 251.403 422.35 251.403C435.793 251.254 446.398 262.008 446.398 275.153Z" fill="#52C1E6"/>
<path d="M441.169 290.239C438.928 293.078 436.09 295.318 432.804 296.812L403.826 260.664C406.067 257.826 408.755 255.436 412.042 253.942L441.169 290.239Z" fill="#C5DFFF"/>
<path d="M424.294 365.822C418.617 368.062 412.792 368.211 407.415 366.568C403.83 365.523 400.394 363.581 397.556 360.892C394.867 358.502 392.776 355.366 391.283 351.93C386.055 338.935 392.179 324.147 405.174 318.919C410.551 316.678 416.227 316.529 421.455 318.023C425.04 319.068 428.476 320.861 431.463 323.4C434.301 325.939 436.691 329.076 438.185 332.811C443.562 345.806 437.289 360.594 424.294 365.822Z" fill="#00698B"/>
<path d="M424.294 359.697C419.066 361.788 413.39 361.938 408.312 360.444C404.876 359.398 401.739 357.606 399.051 355.216C396.511 352.975 394.57 350.137 393.225 346.702C388.296 334.453 394.121 320.562 406.221 315.633C411.299 313.541 416.677 313.392 421.606 314.736C425.041 315.633 428.178 317.425 431.016 319.815C433.705 322.205 435.945 325.192 437.439 328.777C442.368 340.876 436.543 354.768 424.294 359.697Z" fill="#52C1E6"/>
<path d="M431.014 319.666L408.31 360.444C404.874 359.398 401.738 357.606 399.049 355.216L421.604 314.736C425.189 315.633 428.325 317.276 431.014 319.666Z" fill="#C5DFFF"/>
<path d="M425.19 393.753L393.822 388.973C391.731 388.675 390.237 386.733 390.536 384.642C390.835 382.55 392.627 381.057 394.719 381.355L426.086 386.135C428.178 386.434 429.671 388.376 429.373 390.467C429.074 392.558 427.132 394.052 425.19 393.753Z" fill="#0D1525"/>
<path d="M423.1 411.08L391.732 406.301C389.641 406.002 388.148 404.06 388.446 401.969C388.745 399.878 390.537 398.384 392.629 398.683L423.997 403.462C426.088 403.761 427.581 405.703 427.283 407.794C427.133 410.035 425.192 411.379 423.1 411.08Z" fill="#0D1525"/>
<path d="M421.157 428.557L389.789 423.777C387.698 423.478 386.204 421.537 386.503 419.445C386.802 417.354 388.594 415.86 390.685 416.159L422.053 420.939C424.144 421.238 425.638 423.18 425.339 425.271C425.19 427.362 423.248 428.856 421.157 428.557Z" fill="#0D1525"/>
<path d="M419.216 445.884L387.848 441.104C385.756 440.805 384.263 438.864 384.562 436.772C384.86 434.681 386.653 433.188 388.744 433.486L420.112 438.266C422.203 438.565 423.697 440.507 423.398 442.598C423.249 444.689 421.307 446.183 419.216 445.884Z" fill="#0D1525"/>
<path d="M379.484 256.183L378.588 265.593L362.755 432.59C362.157 438.266 359.767 443.345 356.033 447.079C350.805 452.456 343.187 455.294 335.121 453.95L156.623 425.719C137.951 422.732 124.508 406.002 125.703 387.032L135.262 237.362L135.561 232.433L136.159 224.217C136.906 212.865 147.063 204.351 158.415 205.695L358.572 229.744C371.418 231.537 380.679 243.188 379.484 256.183Z" fill="#F8FBFF"/>
<path d="M159.909 222.873C159.461 225.86 156.623 228.101 153.486 227.653C150.349 227.205 147.96 224.516 148.408 221.528C148.856 218.541 151.694 216.3 154.831 216.749C157.967 217.197 160.208 219.885 159.909 222.873Z" fill="#009FD3"/>
<path d="M183.509 225.711C183.061 228.698 180.223 230.939 177.086 230.491C173.949 230.042 171.559 227.354 172.007 224.366C172.455 221.379 175.293 219.138 178.43 219.586C181.567 220.035 183.808 222.723 183.509 225.711Z" fill="#009FD3"/>
<path d="M206.96 228.549C206.512 231.536 203.674 233.777 200.537 233.328C197.4 232.88 195.01 230.192 195.458 227.204C195.907 224.217 198.745 221.976 201.881 222.424C205.168 222.723 207.408 225.561 206.96 228.549Z" fill="#009FD3"/>
<path d="M356.033 447.079C350.805 452.456 343.187 455.295 335.121 453.95L156.622 425.719C137.951 422.732 124.508 406.002 125.703 387.032L135.262 237.362C138.399 289.194 130.483 347.001 159.311 379.862C201.583 428.109 239.972 427.81 356.033 447.079Z" fill="#E1ECFF"/>
<path d="M212.041 293.973L204.573 292.778C202.631 292.48 200.988 293.674 200.838 295.616L198.598 316.08L189.187 315.035C187.544 314.736 186.499 313.093 187.096 311.599L193.818 295.168C194.714 293.077 193.22 290.687 190.98 290.388L184.856 289.343C183.362 289.044 181.868 289.94 181.271 291.285L170.665 317.574C169.471 320.561 171.412 323.997 174.699 324.594L197.254 328.478L193.22 364.924C193.071 366.866 194.415 368.659 196.357 368.957L203.378 370.003C205.17 370.302 206.813 369.107 207.112 367.165L215.178 298.156C215.327 296.214 213.983 294.272 212.041 293.973Z" fill="#66738D"/>
<path d="M318.542 311.748L310.924 310.404C308.982 310.105 307.19 311.45 307.041 313.242L304.651 334.453L294.792 333.407C293.149 333.109 292.103 331.316 292.701 329.822L299.572 312.794C300.468 310.703 298.975 308.164 296.585 307.715L290.311 306.67C288.668 306.371 287.174 307.267 286.577 308.612L275.523 335.797C274.328 338.934 276.42 342.519 279.706 343.116L303.008 347L298.825 384.791C298.676 386.733 300.02 388.675 302.111 388.973L309.431 390.019C311.372 390.318 313.015 388.973 313.314 387.181L321.679 315.632C321.978 313.84 320.484 312.047 318.542 311.748Z" fill="#66738D"/>
<path d="M248.486 298.753C233.698 297.408 225.035 305.773 221.45 330.419C216.968 361.04 225.034 373.438 239.972 376.874C260.286 381.654 263.871 364.177 267.904 338.336C271.937 312.495 263.273 300.097 248.486 298.753ZM255.805 337.739C253.863 355.812 248.336 366.119 241.615 364.476C234.445 362.683 231.756 354.319 233.847 332.959C235.49 315.781 239.673 309.956 246.693 310.553C253.714 311.3 257.747 319.665 255.805 337.739Z" fill="#009FD3"/>
<path opacity="0.2" d="M443.418 105.168C436.248 105.019 433.112 87.8411 439.833 83.5093C446.555 79.1775 451.335 87.9904 451.484 94.4134C451.634 100.836 449.841 105.467 443.418 105.168Z" fill="#FF788F"/>
<path opacity="0.2" d="M526.32 55.4275C519.748 55.2781 516.91 39.7436 523.183 35.8599C529.307 31.9763 533.49 39.8929 533.639 45.7184C533.788 51.5439 532.145 55.5769 526.32 55.4275Z" fill="#FF788F"/>
<path opacity="0.2" d="M591.893 23.761C585.171 23.6116 582.184 7.62891 588.607 3.59589C595.03 -0.437121 599.212 7.77828 599.511 13.7531C599.81 19.728 597.868 24.0597 591.893 23.761Z" fill="#FF788F"/>
<path opacity="0.2" d="M646.413 146.992C640.737 145.499 641.484 131.01 647.758 128.919C654.031 126.827 656.123 134.595 655.077 139.823C654.031 145.051 651.641 148.337 646.413 146.992Z" fill="#FF788F"/>
<path opacity="0.2" d="M74.0193 298.454C66.9989 297.408 65.6545 280.23 72.9737 276.795C80.2929 273.359 83.7284 282.471 83.2803 288.745C82.6828 295.168 80.4423 299.201 74.0193 298.454Z" fill="#FF788F"/>
<path d="M53.8566 243.186C48.3299 242.439 47.4337 228.996 52.9604 226.307C58.4871 223.619 61.3251 230.639 60.877 235.568C60.5783 240.647 58.7858 243.933 53.8566 243.186Z" fill="#009FD3"/>
<path opacity="0.2" d="M13.3758 331.913C4.41352 330.718 2.77044 308.611 12.0314 304.279C21.1431 299.947 25.7736 311.449 25.1761 319.664C24.4292 327.73 21.5912 332.958 13.3758 331.913Z" fill="#FF788F"/>
<path opacity="0.5" d="M107.331 183.737L36.2307 127.125L23.3848 150.576L107.331 183.737Z" fill="#FF788F"/>
<path opacity="0.5" d="M110.765 167.754L41.7559 100.388L67.597 83.6582L110.765 167.754Z" fill="#FF788F"/>
<path opacity="0.5" d="M100.609 86.0482L124.807 161.331L122.418 83.8076L100.609 86.0482Z" fill="#FF788F"/>
</svg>
