<svg width="22" height="22" viewBox="0 0 22 22" fill="none" xmlns="http://www.w3.org/2000/svg">
<path opacity="0.58" d="M22 0H0V22H22V0Z" fill="white"/>
<path opacity="0.4" d="M14.8421 1.83398H7.16958C3.83291 1.83398 1.84375 3.82315 1.84375 7.15982V14.8323C1.84375 18.169 3.83291 20.1581 7.16958 20.1581H14.8421C18.1787 20.1581 20.1679 18.169 20.1679 14.8323V7.15982C20.1679 3.82315 18.1787 1.83398 14.8421 1.83398Z" fill="#AAB4BE"/>
<path d="M12.7588 8.50758L12.8046 11.2118L15.2155 11.1751C15.3896 11.1751 15.518 11.3309 15.4905 11.4959L15.1696 13.2467C15.1421 13.3751 15.0321 13.4667 14.9038 13.4759L12.8413 13.5126L12.9513 20.1584L10.2013 20.2042L10.0913 13.5584L8.53296 13.5859C8.37712 13.5859 8.25797 13.4667 8.25797 13.3109L8.23047 11.5693C8.23047 11.4134 8.34962 11.2942 8.50546 11.2942L10.0638 11.2667L10.018 8.28758C9.99045 6.76592 11.2005 5.51925 12.7221 5.49175L15.1971 5.45508C15.3529 5.45508 15.4721 5.57425 15.4721 5.73008L15.5088 7.93008C15.5088 8.08592 15.3896 8.20508 15.2338 8.20508L13.0338 8.24175C12.878 8.23258 12.7588 8.36091 12.7588 8.50758Z" fill="#AAB4BE"/>
</svg>
