<svg width="86" height="86" viewBox="0 0 86 86" fill="none" xmlns="http://www.w3.org/2000/svg">
<circle cx="43" cy="43" r="43" fill="#D3F4FF"/>
<g clip-path="url(#clip0_91_24504)">
<path d="M54.7603 24.2352H41.8649C41.0487 24.2352 40.2649 24.5602 39.6874 25.1376L22.902 41.9199C21.6993 43.1226 21.6993 45.0722 22.902 46.2764L35.7975 59.1719C37.0002 60.3746 38.9498 60.3746 40.1525 59.1719L56.9378 42.3896C57.5153 41.8106 57.8402 41.0268 57.8402 40.2091V27.3151C57.8402 25.6135 56.462 24.2352 54.7603 24.2352ZM49.3705 35.0148C48.0955 35.0148 47.0606 33.98 47.0606 32.7049C47.0606 31.4298 48.0955 30.395 49.3705 30.395C50.6456 30.395 51.6805 31.4298 51.6805 32.7049C51.6805 33.98 50.6456 35.0148 49.3705 35.0148Z" fill="#009FD3"/>
<path d="M60.9202 27.3151L60.9187 41.6504C60.9187 42.3603 60.6369 43.0425 60.1333 43.5445L43.0769 60.6009L43.3387 60.8627C44.5414 62.0654 46.491 62.0654 47.6936 60.8627L63.0962 45.4633C63.6752 44.8858 64.0001 44.102 64.0001 43.2858V30.3949C64.0001 28.6933 62.6219 27.3151 60.9202 27.3151Z" fill="#009FD3"/>
</g>
<defs>
<clipPath id="clip0_91_24504">
<rect width="42" height="42" fill="white" transform="translate(22 22)"/>
</clipPath>
</defs>
</svg>
