<svg width="86" height="86" viewBox="0 0 86 86" fill="none" xmlns="http://www.w3.org/2000/svg">
<circle cx="43" cy="43" r="43" fill="#D3F4FF"/>
<path d="M57.3766 56.9357C57.6896 56.949 58.0021 56.8989 58.2953 56.7883C58.5884 56.6776 58.8562 56.5089 59.0824 56.2921C59.3086 56.0753 59.4886 55.815 59.6116 55.5268C59.7345 55.2386 59.7979 54.9285 59.7979 54.6152C59.7979 54.3019 59.7345 53.9918 59.6116 53.7036C59.4886 53.4154 59.3086 53.1551 59.0824 52.9383C58.8562 52.7215 58.5884 52.5528 58.2953 52.4421C58.0021 52.3315 57.6896 52.2814 57.3766 52.2947H53.2102C52.6118 52.3202 52.0464 52.5758 51.6321 53.0082C51.2177 53.4406 50.9863 54.0163 50.9863 54.6152C50.9863 55.2141 51.2177 55.7898 51.6321 56.2222C52.0464 56.6546 52.6118 56.9102 53.2102 56.9357H57.3766Z" fill="#009FD3"/>
<path d="M53.2101 62.8828H54.9951C55.5662 62.8231 56.0949 62.554 56.4792 62.1274C56.8635 61.7008 57.0762 61.147 57.0762 60.5728C57.0762 59.9987 56.8635 59.4448 56.4792 59.0183C56.0949 58.5917 55.5662 58.3225 54.9951 58.2628H53.2101C52.6391 58.3225 52.1104 58.5917 51.7261 59.0183C51.3418 59.4448 51.1292 59.9987 51.1292 60.5728C51.1292 61.147 51.3418 61.7008 51.7261 62.1274C52.1104 62.554 52.6391 62.8231 53.2101 62.8828Z" fill="#009FD3"/>
<path d="M31.3576 57.6161L39.178 62.8829H50.4886C50.1608 62.4991 49.9181 62.0503 49.7763 61.5659C49.6345 61.0816 49.5969 60.5727 49.6659 60.0728C49.735 59.5729 49.9091 59.0932 50.1768 58.6655C50.4446 58.2377 50.7999 57.8714 51.2194 57.5909C50.7308 57.2638 50.3303 56.8214 50.0534 56.3027C49.7765 55.7841 49.6316 55.2052 49.6316 54.6173C49.6316 54.0293 49.7765 53.4504 50.0534 52.9318C50.3303 52.4131 50.7308 51.9707 51.2194 51.6437C50.7355 51.3197 50.338 50.8827 50.0613 50.3703C49.7847 49.858 49.6372 49.2859 49.6318 48.7037V48.6701C49.6314 48.0821 49.7761 47.503 50.053 46.9843C50.3299 46.4656 50.7305 46.0233 51.2194 45.6965C50.7999 45.4159 50.4446 45.0496 50.1768 44.6219C49.9091 44.1941 49.735 43.7144 49.6659 43.2145C49.5969 42.7146 49.6345 42.2057 49.7763 41.7214C49.9181 41.237 50.1608 40.7882 50.4886 40.4045H45.94C45.184 43.0589 43.6258 46.5785 40.4548 48.6953C39.9229 49.0471 39.3607 49.3507 38.7748 49.6025L38.38 48.6953L38.2708 48.4433C44.4406 45.7763 45.3016 37.2503 45.3436 36.7757L45.394 25.9019C45.3951 25.3159 45.1642 24.7533 44.7519 24.337C44.3395 23.9207 43.7791 23.6845 43.1932 23.6801C42.6083 23.6812 42.0477 23.9137 41.6337 24.3269C41.2198 24.74 40.9862 25.3002 40.984 25.8851L40.9462 33.8315C40.9458 33.9425 40.9161 34.0515 40.86 34.1474C40.804 34.2433 40.7236 34.3227 40.627 34.3775L32.4412 38.9975C31.6316 39.5423 30.6786 39.8346 29.7028 39.8375H24.0706V57.5069H31.009C31.1336 57.507 31.2551 57.5451 31.3576 57.6161Z" fill="#009FD3"/>
<path d="M53.2101 45.0454H58.1661C58.4898 45.0793 58.8169 45.0448 59.1263 44.9441C59.4357 44.8434 59.7206 44.6789 59.9623 44.4611C60.2041 44.2433 60.3974 43.9771 60.5297 43.6799C60.662 43.3826 60.7304 43.0608 60.7304 42.7354C60.7304 42.4101 60.662 42.0883 60.5297 41.791C60.3974 41.4938 60.2041 41.2276 59.9623 41.0098C59.7206 40.792 59.4357 40.6275 59.1263 40.5268C58.8169 40.4261 58.4898 40.3916 58.1661 40.4254H53.2101C52.6391 40.4852 52.1104 40.7543 51.7261 41.1809C51.3418 41.6075 51.1292 42.1613 51.1292 42.7354C51.1292 43.3096 51.3418 43.8634 51.7261 44.29C52.1104 44.7166 52.6391 44.9857 53.2101 45.0454Z" fill="#009FD3"/>
<path d="M53.2101 46.3601C52.5952 46.3601 52.0056 46.6044 51.5708 47.0392C51.136 47.4739 50.8917 48.0636 50.8917 48.6785V48.7037C50.9038 49.3109 51.1533 49.8893 51.5866 50.3148C52.02 50.7403 52.6028 50.9791 53.2101 50.9801H59.7579C60.3689 50.9802 60.9552 50.7395 61.3899 50.3103C61.8247 49.881 62.0728 49.2978 62.0805 48.6869V48.6701C62.0772 48.0563 61.831 47.4688 61.3958 47.0359C60.9606 46.6031 60.3717 46.3601 59.7579 46.3601H53.2101Z" fill="#009FD3"/>
</svg>
