<svg width="86" height="86" viewBox="0 0 86 86" fill="none" xmlns="http://www.w3.org/2000/svg">
<circle cx="43" cy="43" r="43" fill="#D3F4FF"/>
<path d="M23.7172 51.5128C23.572 51.5151 23.4296 51.4744 23.3094 51.3961C23.1893 51.3178 23.0972 51.2058 23.0457 51.0753C22.9943 50.9449 22.986 50.8024 23.0221 50.6673C23.0581 50.5321 23.1366 50.411 23.247 50.3204L28.962 46.6303L23.9006 41.8132L25.1748 41.2012L31.2401 44.6497L38.9863 40.0111L42.1506 38.1164L39.2166 35.3228L38.4267 34.5708L29.9142 26.4657L32.9703 25L40.9634 29.8961L43.1591 31.2375L48.7025 34.625L61.0706 31.0343C62.7867 31.032 63.7365 33.1842 62.2954 34.3517L52.1278 41.4022L51.4225 48.0169L50.1718 59.5343L47.1157 61L46.4809 55.1509L46.2458 52.9513L45.8532 49.3538L45.3078 44.3222L42.6395 45.3137L33.3394 48.7712L32.3567 55.6003L31.0849 56.2123L30.5395 51.1921L30.3373 49.3267L23.8653 51.4902C23.8167 51.502 23.7672 51.5096 23.7172 51.5128Z" fill="#009FD3"/>
</svg>
