<svg width="40" height="40" viewBox="0 0 40 40" fill="none" xmlns="http://www.w3.org/2000/svg">
<path d="M27.8337 31.6336H12.167C11.467 31.6336 10.6837 31.0836 10.4503 30.4169L3.55033 11.1169C2.567 8.35026 3.717 7.50026 6.08367 9.20026L12.5837 13.8503C13.667 14.6003 14.9003 14.2169 15.367 13.0003L18.3003 5.18359C19.2337 2.68359 20.7837 2.68359 21.717 5.18359L24.6503 13.0003C25.117 14.2169 26.3503 14.6003 27.417 13.8503L33.517 9.50026C36.117 7.63359 37.367 8.58359 36.3003 11.6003L29.567 30.4503C29.317 31.0836 28.5337 31.6336 27.8337 31.6336Z" stroke="#FF7300" stroke-width="2" stroke-linecap="round" stroke-linejoin="round"/>
<path d="M10.833 36.667H29.1663" stroke="#FF7300" stroke-width="2" stroke-linecap="round" stroke-linejoin="round"/>
<path d="M15.833 23.333H24.1663" stroke="#0061BF" stroke-width="2" stroke-linecap="round" stroke-linejoin="round"/>
</svg>
