<svg width="15" height="20" viewBox="0 0 15 20" fill="none" xmlns="http://www.w3.org/2000/svg">
<path d="M9.64471 18.6958C11.6806 15.0816 10.8282 10.5332 7.61783 7.88157C7.61596 7.88007 7.61408 7.87819 7.61258 7.87707L7.62646 7.91157L7.62421 7.93744C8.24971 9.58969 8.16196 11.4036 7.39358 12.9598L6.85208 14.0571L6.68596 12.8447C6.57308 12.0223 6.26296 11.2378 5.78521 10.5662H5.70983L5.67008 10.4537C5.67571 11.7103 5.41096 12.9482 4.89158 14.1159C4.21021 15.6441 4.31033 17.4062 5.15971 18.8304L5.74583 19.8137L4.69133 19.3682C2.95246 18.6336 1.56233 17.2183 0.877208 15.4854C0.109583 13.5504 0.251708 11.3068 1.25783 9.48507C1.78246 8.53744 2.14996 7.53132 2.35058 6.49407L2.54671 5.47744L3.04696 6.38419C3.28583 6.81657 3.46171 7.28457 3.57083 7.77619L3.58208 7.78782L3.59371 7.86657L3.60458 7.86319C5.10308 5.87232 6.00083 3.39507 6.13171 0.886691L6.16546 0.236816L6.71071 0.592316C8.93596 2.04244 10.4813 4.36894 10.9587 6.98307L10.9696 7.03669L10.9752 7.04494L10.9996 7.01044C11.4357 6.43444 11.666 5.74932 11.666 5.02819V3.91144L12.3398 4.80169C13.9066 6.87094 14.7098 9.43782 14.6018 12.0298C14.4691 15.0808 12.8052 17.7587 10.1506 19.2096L9.00121 19.8377L9.64471 18.6958Z" fill="#FF2E00"/>
</svg>
