<svg width="149" height="40" viewBox="0 0 149 40" fill="none" xmlns="http://www.w3.org/2000/svg">
<path d="M66.2177 0.0352585C65.6301 0.0352585 64.9972 0.168362 64.4096 0.345836C62.3755 1.1001 60.8838 2.20931 59.7086 3.80658C58.9401 4.91579 58.3525 6.11374 57.9909 7.35605C56.9965 10.5062 56.9965 14.455 56.906 17.4277C56.8608 20.711 56.9513 24.0386 57.7197 27.2331C57.9005 27.8099 58.5333 27.9874 59.2114 27.943C61.2002 27.8099 61.5167 25.5471 61.7427 24.083C62.0139 22.6632 62.0139 21.199 62.0591 19.7349C62.4659 19.6905 62.8275 19.6017 63.2343 19.5574C65.8109 19.1137 67.845 18.4925 68.5682 17.8714C69.0654 17.4277 69.2462 15.4755 68.2518 14.8987C67.3929 14.5437 65.404 14.6325 62.9179 14.7656C62.6467 14.81 62.4207 14.81 62.1495 14.81C62.1947 13.5233 62.2399 12.281 62.3303 11.083C62.3755 10.1513 62.5563 9.13079 62.7823 8.19905C63.4152 6.06937 64.6356 4.42773 66.7149 4.02842C67.7998 3.85094 68.6134 4.16153 69.5174 4.4721C70.7831 4.91579 70.7379 2.87484 70.1051 1.81C69.3818 0.656417 67.7998 0.0352585 66.2177 0.0352585Z" fill="white"/>
<path d="M72.9041 12.2366C71.322 14.1001 70.3727 16.7622 70.2823 19.025C70.1015 20.6666 70.2371 22.3526 70.9152 23.8611C71.8644 26.1683 74.2149 27.6768 76.5202 27.943C78.1475 28.0761 79.9556 27.5881 81.1308 26.612C82.3513 25.5471 83.3005 23.6393 82.1253 23.1512C81.3569 22.885 79.7748 24.2604 78.1023 24.2604C75.2998 24.2161 74.893 22.042 75.0286 20.356C77.6955 20.1342 80.5432 18.9362 82.0801 17.0284C83.1197 15.8304 83.9334 12.9908 82.4417 11.3048C79.9556 8.46526 75.2094 9.75195 72.9041 12.2366ZM79.368 14.2332C79.142 15.1649 76.1586 17.0284 75.2546 17.4721C75.3902 16.141 76.8366 13.1683 78.2831 12.9021C78.5995 12.8577 79.6844 12.9908 79.368 14.2332Z" fill="white"/>
<path d="M87.3387 12.2366C85.7566 14.1001 84.8074 16.7622 84.717 19.025C84.5362 20.6666 84.6718 22.3526 85.3498 23.8611C86.2991 26.1683 88.6496 27.6768 90.9549 27.943C92.5822 28.0761 94.3902 27.5881 95.5655 26.612C96.786 25.5471 97.7352 23.6393 96.5599 23.1512C95.7915 22.885 94.2094 24.2604 92.537 24.2604C89.7344 24.2161 89.3276 22.042 89.4632 20.356C92.1301 20.1342 94.9779 18.9362 96.5147 17.0284C97.5544 15.8304 98.368 12.9908 96.8764 11.3048C94.3902 8.46526 89.644 9.75195 87.3387 12.2366ZM93.8026 14.2332C93.5766 15.1649 90.5933 17.0284 89.6892 17.4721C89.8248 16.141 91.2713 13.1683 92.7178 12.9021C93.0342 12.8577 94.119 12.9908 93.8026 14.2332Z" fill="white"/>
<path d="M102.21 0.390204C101.577 1.14447 100.989 3.09668 100.537 5.62568C100.085 8.24342 99.859 11.1717 99.7686 14.1444C99.7686 15.0318 99.7686 15.8748 99.7686 16.6291C99.7234 18.4038 99.7234 20.2673 99.7686 22.397C99.859 24.571 100.04 26.6563 100.808 27.4106C101.667 28.1649 103.159 28.0761 103.882 27.455C104.696 26.7007 104.967 24.6154 105.057 22.397C105.057 20.4891 104.967 18.0932 104.967 16.6291C104.967 15.8748 104.967 15.0762 104.967 14.2332C105.057 11.1274 105.238 8.68711 105.374 5.98063C105.554 3.496 105.6 1.54378 105.238 0.745152C104.65 -0.275322 102.707 -0.0978482 102.21 0.390204Z" fill="white"/>
<path d="M119.078 0.0351562C118.49 0.0351562 117.857 0.168485 117.27 0.34626C115.235 1.1018 113.743 2.21289 112.568 3.81287C111.799 4.92396 111.211 6.12394 110.85 7.36836C109.855 10.5239 109.855 14.4793 109.764 17.4571C109.719 20.7459 109.81 24.0792 110.578 27.2791C110.759 27.8569 111.392 28.0347 112.07 27.9902C114.06 27.8569 114.376 25.5903 114.602 24.1236C114.873 22.7014 114.873 21.2348 114.919 19.7681C115.326 19.7237 115.687 19.6348 116.094 19.5904C118.671 19.1459 120.706 18.5237 121.429 17.9015C121.927 17.4571 122.107 15.5015 121.113 14.9238C120.254 14.5682 118.264 14.6571 115.778 14.7905C115.506 14.8349 115.28 14.8349 115.009 14.8349C115.054 13.546 115.1 12.3016 115.19 11.1016C115.235 10.1683 115.416 9.1461 115.642 8.21279C116.275 6.07949 117.496 4.43508 119.576 4.03508C120.661 3.85731 121.474 4.16842 122.379 4.47952C123.645 4.92396 123.599 2.87955 122.966 1.8129C122.243 0.657367 120.661 0.0351562 119.078 0.0351562Z" fill="#009FD3"/>
<path d="M137.487 10.3008C136.719 10.3008 135.95 10.923 135.634 11.6341C134.639 13.9452 134.503 16.4785 134.458 18.9673C134.458 21.4561 134.503 24.1228 135.995 26.2561C137.171 28.0338 139.838 28.5671 141.602 27.3671C142.732 26.7005 143.32 25.5005 143.862 24.345C143.862 25.6338 143.817 26.9227 143.772 28.256C143.636 30.4338 142.822 36.2114 140.788 36.5225C139.522 36.6559 139.024 34.5226 137.713 35.0559C135.634 36.0337 137.532 39.7669 141.33 39.9891C147.253 40.3003 148.203 33.1448 148.474 27.2338C148.61 24.8339 148.564 22.3895 148.564 19.9895C148.474 17.5895 148.474 15.1451 147.615 12.923C147.253 11.7674 145.942 11.0563 144.812 11.3674C143.862 11.5896 143.862 12.2563 143.953 13.1896C143.953 13.6341 143.907 14.0785 143.907 14.5229C142.641 16.9229 141.556 19.4562 140.2 21.8117C139.703 22.8783 139.612 21.2784 139.522 20.8784C139.341 18.3451 139.431 15.8118 139.341 13.2785C139.386 12.3452 139.251 11.2341 138.391 10.6119C138.12 10.3897 137.804 10.3008 137.487 10.3008Z" fill="#009FD3"/>
<path d="M128.553 0.390865C127.92 1.14641 127.332 3.10193 126.88 5.63522C126.428 8.25739 126.201 11.1907 126.111 14.1684C126.111 15.0573 126.111 15.9017 126.111 16.6572C126.066 18.435 126.066 20.3016 126.111 22.4349C126.201 24.6127 126.382 26.7015 127.151 27.4571C128.01 28.2126 129.502 28.1237 130.225 27.5015C131.039 26.746 131.31 24.6571 131.401 22.4349C131.401 20.5238 131.31 18.1239 131.31 16.6572C131.31 15.9017 131.31 15.1017 131.31 14.2573C131.401 11.1462 131.582 8.70183 131.717 5.99077C131.898 3.50192 131.943 1.5464 131.582 0.746415C130.994 -0.275789 129.05 -0.0980141 128.553 0.390865Z" fill="#009FD3"/>
<path d="M58.2832 35.0512C57.8825 35.059 57.4982 35.0983 57.3591 35.2242C57.212 35.3814 57.2365 35.6409 57.351 35.7667C57.4818 35.9003 57.8498 35.9475 58.2423 35.9633C58.2341 35.9868 58.2341 36.0183 58.2259 36.0419C58.1442 36.5058 58.1033 37.0247 58.0869 37.5515C58.0869 37.7088 58.0869 37.8582 58.0869 37.9918C58.0787 38.3064 58.0787 38.6366 58.0869 39.014C58.1033 39.3993 58.136 39.7688 58.275 39.9025C58.4304 40.0362 58.7002 40.0204 58.8392 39.9104C58.9782 39.7767 59.0273 39.4071 59.0436 39.014C59.0436 38.6759 59.0355 38.2513 59.0273 37.9918C59.0273 37.8582 59.0273 37.7166 59.0273 37.5673C59.0436 37.0169 59.0764 36.5844 59.1009 36.1048C59.1091 36.0497 59.1091 36.0026 59.1091 35.9475C59.1745 35.9475 59.2481 35.9554 59.3462 35.9633C59.5833 35.9711 59.8287 35.9711 60.0167 35.9554C60.2702 35.9475 60.4256 35.9161 60.4419 35.7038C60.4419 35.5229 60.3438 35.3893 60.0903 35.3028C59.6815 35.1534 59.3217 35.0983 58.9046 35.0669C58.7084 35.0512 58.5857 35.0512 58.2832 35.0512Z" fill="white"/>
<path d="M70.7725 36.7653C70.5436 36.7653 70.2983 36.8439 70.0857 36.9697C70.0202 36.8675 69.9139 36.781 69.7749 36.7731C69.6196 36.7417 69.4478 36.8282 69.3824 36.9697C69.3334 37.0483 69.3007 37.8503 69.3007 38.3142C69.2925 38.7467 69.2843 39.2342 69.4642 39.6745C69.5133 39.8317 69.6196 40.0047 69.8076 39.9969C69.9385 40.0047 70.0611 39.9104 70.0857 39.7924C70.1593 39.4622 70.1511 39.1241 70.1674 38.786C70.1674 38.5894 70.1756 38.3064 70.1756 38.0154C70.1838 37.984 70.192 37.9525 70.2001 37.9211C70.2983 37.6773 70.4945 37.3628 70.699 37.3314C70.748 37.3235 70.9443 37.3471 70.8952 37.5673C70.8134 37.9132 71.2141 38.0312 71.4104 37.9132C71.484 37.8739 71.5576 37.7874 71.5821 37.6066C71.6148 37.41 71.5821 37.1977 71.4431 37.0483C71.2632 36.8439 71.026 36.7574 70.7725 36.7653Z" fill="white"/>
<path d="M82.9 36.781C82.8101 36.781 82.7283 36.7888 82.6384 36.8124C82.3031 36.9382 82.0005 37.1584 81.7961 37.4493C81.6162 37.7245 81.4935 38.039 81.4363 38.3614C81.4036 38.6916 81.4363 39.0533 81.5999 39.3521C81.8043 39.7452 82.1886 39.989 82.6056 39.9969C82.9246 40.0047 83.1862 39.9025 83.3988 39.7217C83.4479 39.8632 83.5624 40.0047 83.7259 39.9969C83.8568 40.0047 83.9794 39.9104 84.0039 39.7924C84.0775 39.4622 84.0694 39.1241 84.0857 38.786C84.0857 38.4007 84.1021 38.0154 84.0857 37.638C84.0857 37.4179 83.9467 37.1741 83.7096 37.1505C83.6523 37.0876 83.5951 37.0247 83.5215 36.9697C83.3498 36.8517 83.129 36.781 82.9 36.781ZM82.9246 37.6459C83.0309 37.6537 83.1208 37.7324 83.1699 37.9447C83.2516 38.3693 83.1862 38.8332 82.9409 39.2027C82.7365 39.4779 82.254 39.3521 82.2377 38.841C82.1968 38.5186 82.2867 38.1806 82.4993 37.9289C82.6302 37.7795 82.7937 37.6459 82.9246 37.6459Z" fill="white"/>
<path d="M94.3704 36.7574C93.937 36.8046 93.9861 37.1112 94.0678 37.3392C94.444 38.2277 94.9591 39.2813 95.5479 39.989C96.1367 39.3049 96.6518 38.2985 97.028 37.4415C97.1097 37.2213 97.1588 36.9304 96.7254 36.8832C96.4965 36.8832 96.3902 37.0955 96.1775 37.4257C95.9895 37.7245 95.6787 38.1806 95.5479 38.4793C95.4171 38.1648 95.1063 37.6302 94.9183 37.3235C94.7057 36.9775 94.6075 36.7574 94.3704 36.7574Z" fill="white"/>
<path d="M107.363 37.2134C107.077 37.5437 106.905 38.0154 106.889 38.4164C106.856 38.7074 106.881 39.0061 107.004 39.2735C107.175 39.6823 107.601 39.9497 108.018 39.9969C108.312 40.0204 108.639 39.9339 108.852 39.761C109.072 39.5723 109.244 39.2342 109.032 39.1477C108.893 39.1005 108.606 39.3442 108.304 39.3442C107.797 39.3364 107.723 38.9511 107.748 38.6523C108.23 38.613 108.745 38.4007 109.023 38.0626C109.211 37.8503 109.359 37.3471 109.089 37.0483C108.639 36.5451 107.78 36.7731 107.363 37.2134ZM108.533 37.5673C108.492 37.7324 107.952 38.0626 107.789 38.1412C107.813 37.9054 108.075 37.3785 108.336 37.3314C108.394 37.3235 108.59 37.3471 108.533 37.5673Z" fill="white"/>
<path d="M119.825 35.1141C119.711 35.2477 119.604 35.5937 119.523 36.0419C119.441 36.5058 119.4 37.0247 119.384 37.5515C119.384 37.7088 119.384 37.8582 119.384 37.9918C119.376 38.3064 119.376 38.6366 119.384 39.014C119.4 39.3993 119.433 39.7688 119.572 39.9025C119.727 40.0362 119.997 40.0204 120.128 39.9104C120.275 39.7767 120.324 39.4071 120.34 39.014C120.34 38.6759 120.324 38.2513 120.324 37.9918C120.324 37.8582 120.324 37.7166 120.324 37.5673C120.34 37.0169 120.373 36.5844 120.398 36.1048C120.43 35.6645 120.439 35.3185 120.373 35.177C120.267 34.9961 119.915 35.0276 119.825 35.1141Z" fill="white"/>
<path d="M131.404 39.989C131.682 39.9969 131.919 39.9025 132.156 39.7452C132.287 39.643 132.394 39.5094 132.459 39.36C132.549 39.1241 132.533 38.8803 132.443 38.6445C132.295 38.2828 131.985 38.0233 131.649 37.7481C131.584 37.6773 131.502 37.5987 131.486 37.5122C131.47 37.4179 131.535 37.3156 131.633 37.3078C131.927 37.3156 131.911 37.8031 132.066 37.811C132.246 37.8582 132.402 37.7088 132.459 37.5751C132.492 37.5044 132.5 37.2449 132.41 37.1191C132.246 36.8832 131.927 36.7417 131.617 36.7653C131.306 36.7731 131.036 36.954 130.873 37.1741C130.685 37.4179 130.668 37.756 130.807 38.0233C130.979 38.385 131.355 38.6209 131.592 38.9354C131.674 39.0376 131.756 39.1948 131.625 39.2971C131.51 39.415 131.339 39.4307 131.183 39.3285C131.061 39.2184 130.995 39.0848 131.036 38.9432C131.11 38.6602 130.546 38.7938 130.521 39.1791C130.513 39.415 130.644 39.6902 130.881 39.8475C131.036 39.9339 131.224 39.9811 131.404 39.989Z" fill="white"/>
<path d="M24.1547 5.75044C23.738 5.7731 23.4773 5.8341 23.3798 5.92473C23.2823 6.01536 23.1227 6.09902 23.066 6.03802C23.0496 6.01494 23.0382 5.98882 23.0324 5.96125C23.0266 5.93369 23.0266 5.90525 23.0323 5.87767C23.0827 5.67446 23.2014 5.49391 23.3692 5.36526L24.0004 5.28508L23.9135 5.22408C23.9135 5.22408 23.9986 5.14391 24.1103 5.02539L24.6582 5.75044C24.5518 5.75044 24.3586 5.75044 24.1547 5.75044Z" fill="#009FD3"/>
<path d="M24.13 5.01752C24.3251 4.80663 24.5751 4.49465 24.552 4.23844C24.5006 3.67897 25.6602 3.56916 25.6726 3.56742L25.7666 3.55871L25.6956 3.4977C25.6442 3.45065 25.5662 3.35827 25.5804 3.30076C25.5804 3.27635 25.6123 3.25544 25.662 3.2415C25.8889 3.17701 26.107 2.8842 26.185 2.77091L26.4971 3.09858L27.0822 2.9574C27.0822 2.9574 27.341 2.71514 27.5343 2.52342C27.6106 2.46489 27.7054 2.43465 27.802 2.43801C27.966 2.4343 28.1298 2.4507 28.2896 2.48682L28.8215 2.9452L28.802 3.3757H28.8446C28.9811 3.3757 29.3765 3.42102 29.4191 3.57439C29.4616 3.72777 29.3889 4.18441 29.4049 4.4685L27.857 5.22667L27.2861 5.50728L26.4368 5.12035L26.4155 5.14127C26.2954 5.22407 26.1507 5.26517 26.0042 5.25804C25.5645 5.25931 25.1258 5.21491 24.6956 5.12558L24.13 5.01752Z" fill="#009FD3"/>
<path d="M26.0261 5.5752C26.0291 5.55917 26.0365 5.54423 26.0474 5.53196C26.0583 5.51969 26.0724 5.51055 26.0882 5.50549C26.1817 5.47083 26.2807 5.45254 26.3807 5.45146C26.5991 5.44481 26.8177 5.45296 27.035 5.47586L27.2832 5.50375L25.5562 6.35254L25.519 6.37171C25.3491 6.31572 25.1822 6.25115 25.019 6.17825C25.0225 6.1045 25.0458 6.03296 25.0864 5.97085C25.1059 5.9931 25.1215 6.01844 25.1325 6.04579C25.1786 6.13991 25.2832 6.18348 25.4445 6.17477C25.7058 6.13826 25.9596 6.06119 26.1963 5.94644L26.2495 5.92204L26.207 5.88196C26.1502 5.83141 26.0119 5.67629 26.0261 5.5752Z" fill="#009FD3"/>
<path d="M23.5621 30.9461C23.4526 30.948 23.3452 30.9165 23.2546 30.8561C23.1639 30.7957 23.0945 30.7092 23.0557 30.6086C23.0169 30.5079 23.0107 30.3979 23.0378 30.2936C23.065 30.1893 23.1243 30.0958 23.2075 30.0259L27.5178 27.178L23.7004 23.4603L24.6614 22.988L29.2359 25.6494L35.0781 22.0695L37.4647 20.6072L35.2519 18.4512L34.6562 17.8708L28.2359 11.6155L30.5409 10.4844L36.5693 14.263L38.2253 15.2983L42.4062 17.9127L51.7343 15.1414C53.0286 15.1397 53.7449 16.8007 52.658 17.7018L44.9895 23.1431L44.4576 28.2481L43.5144 37.1369L41.2094 38.2681L40.7307 33.754L40.5533 32.0564L40.2572 29.2799L39.8459 25.3967L37.8335 26.1618L30.8193 28.8302L30.0781 34.1008L29.1189 34.5731L28.7075 30.6986L28.5551 29.259L23.6738 30.9287C23.6372 30.9378 23.5998 30.9437 23.5621 30.9461Z" fill="#009FD3"/>
<path d="M42.6298 11.0834C41.7401 9.47171 40.6153 7.99669 39.2912 6.70516L39.1139 6.54133L40.3444 9.07203C40.5061 9.33519 40.6403 9.61373 40.7451 9.9034L39.7823 9.30036L33.7539 5.52173L30.8939 3.73002L29.8957 4.22152C30.073 3.95659 30.2503 3.65856 30.2078 3.58884L31.5305 3.30997L31.4755 3.25769C31.4755 3.25769 31.0854 2.8725 31.2557 2.58841C31.3018 2.50824 31.4454 2.45943 31.6688 2.44723C31.9306 2.43982 32.1925 2.45792 32.4507 2.50126L32.855 2.56227L32.472 2.42283C30.1043 1.55702 27.5846 1.16475 25.0606 1.26903C24.9678 1.27636 24.8778 1.3031 24.7964 1.34746C24.5606 1.51129 24.1333 2.15442 24.0872 2.21891C24.0411 2.2834 21.4276 4.4847 20.7698 4.51433C20.6856 4.5198 20.6012 4.51156 20.5198 4.48992L20.385 3.79276H20.346C20.346 3.79276 20.0765 3.82588 19.8868 3.83808C19.7556 3.83808 21.557 2.35312 21.5535 2.35312C21.5216 2.28485 21.4989 2.21278 21.4861 2.13874L21.4772 2.10214H21.4382C21.4382 2.10214 21.0623 2.15965 20.9063 2.17185C21.0053 2.0566 21.1198 1.95516 21.2467 1.87033L21.424 1.74484L21.2095 1.79713C19.6667 2.17148 18.1775 2.73416 16.7769 3.47206H16.768L16.6651 3.67599L16.6031 3.96008L15.8531 4.36792L16.0659 4.60844L15.2467 5.29689L14.94 5.25855L14.4914 5.66813L13.9807 5.72739L14.0233 5.78316C14.1119 5.89645 14.2361 6.10734 14.2006 6.191C14.2006 6.20146 14.1775 6.23283 14.0907 6.23109C13.7041 6.23109 12.7112 7.20363 12.6722 7.24372L12.5871 7.31867L13.4736 7.29775L12.3939 9.12084L11.947 9.09121L11.7485 9.54262L11.6545 9.38227L11.3407 9.3997L11.3141 8.93609L11.8956 7.60625L11.4701 7.6289L11.4577 7.64285C10.6215 8.57604 9.88149 9.58839 9.24844 10.6651L9.31582 10.7104L10.3797 9.41713C10.4522 9.38881 10.5287 9.37175 10.6066 9.36659C10.8158 9.35439 10.924 9.45547 10.9382 9.67508C10.9382 9.7204 11.4116 9.73085 11.7857 9.73957C11.5233 9.68902 11.2697 9.61931 11.2999 9.54088L11.8318 9.74131C11.9676 9.73752 12.1035 9.74569 12.2378 9.76571C12.2446 9.78925 12.2597 9.80964 12.2804 9.82323C12.2041 9.81103 12.0428 9.78663 11.8743 9.757L12.9063 10.1422L13.9027 11.0311L16.8176 11.472L15.6013 12.6136C15.6013 12.6328 15.7981 14.1927 15.424 15.2175C15.0694 16.1971 12.6917 17.309 12.7165 17.4328C12.6669 17.5408 11.0002 18.4367 10.658 18.6023C10.3158 18.7678 10.4116 19.2994 10.4488 19.4423C10.2715 19.5312 9.4754 19.9827 9.25376 20.5456C9.20766 20.6624 9.1527 20.7199 9.09241 20.7199C8.94702 20.7199 8.7378 20.4166 8.64915 20.2197L8.63674 20.1953L8.13142 20.2232L7.52858 19.6672L7.10127 20.2423L6.68992 20.3086V20.3905L6.77503 21.8667C7.02075 24.4061 7.79185 26.8692 9.041 29.105C10.9328 27.2436 8.63851 26.6894 8.63851 26.6894C8.63851 26.6894 7.66687 24.1918 9.09241 24.5107C10.518 24.8297 10.8903 23.3186 11.1385 23.0362L11.1988 24.9116C11.1988 24.9116 12.5782 24.2545 12.2201 25.5791C11.8619 26.9037 10.5339 25.729 10.6456 26.8602C10.7573 27.9913 12.197 28.7565 12.197 28.7565L11.3105 30.5691C11.3105 30.5691 11.2946 31.2976 11.2999 32.0157C10.7378 32.1482 10.2059 32.251 9.69348 32.3259C6.68814 28.8401 5.42041 24.9865 5.42041 20.0541C5.42157 15.5206 6.98494 11.1213 9.85566 7.57314C12.7264 4.02502 16.7351 1.53743 21.2284 0.515898C25.7217 -0.505635 30.4345 -0.000861176 34.5985 1.94793C38.7625 3.89672 42.1322 7.17459 44.1582 11.2472L43.3 11.5017L42.6298 11.0834Z" fill="#009FD3"/>
<path d="M15.674 36.127C18.2644 37.9134 20.4204 38.3596 23.541 38.7239L23.6758 39.9997C19.7981 39.6006 17.0587 38.8023 14.1367 36.5714C14.411 36.4982 14.6917 36.4198 14.9789 36.3361C15.2112 36.2681 15.4435 36.1984 15.674 36.127Z" fill="#009FD3"/>
<path d="M2.14013 24.3553C2.19049 24.286 2.25665 24.2292 2.33331 24.1896C2.40998 24.15 2.49502 24.1285 2.58163 24.127C2.714 24.1391 2.84064 24.1859 2.94834 24.2625C3.05603 24.3391 3.14083 24.4428 3.1939 24.5626C3.24697 24.6824 3.26636 24.814 3.25004 24.9437C3.23372 25.0734 3.1823 25.1964 3.10114 25.2999C1.91142 26.7535 1.00716 28.4703 1.48411 30.3805C1.8139 31.7034 2.77489 32.6655 3.9788 33.2807C5.29832 33.9302 6.75875 34.2544 8.23414 34.2254C9.19518 34.2176 10.1533 34.1208 11.0959 33.936C11.5923 33.8437 12.0817 33.7321 12.5639 33.6084C12.876 33.5282 13.1833 33.4434 13.4859 33.3539C16.0906 32.5888 18.6491 31.6337 21.22 30.7674C21.2928 30.7416 21.3696 30.728 21.447 30.7273C22.1083 30.7273 22.3335 31.8062 21.5817 32.0572C19.0108 32.9286 16.4523 33.8768 13.8476 34.6419L13.7803 34.6628C13.2874 34.8058 12.7891 34.94 12.2838 35.0585C11.008 35.3758 9.69892 35.5455 8.38308 35.5639C8.16676 35.5639 7.94868 35.5639 7.73236 35.5465C4.64547 35.3722 1.05857 34.0546 0.193321 30.8093C-0.457392 28.3797 0.617079 26.215 2.14013 24.3553Z" fill="#009FD3"/>
</svg>
