<svg width="574" height="405" viewBox="0 0 574 405" fill="none" xmlns="http://www.w3.org/2000/svg">
<path opacity="0.08" fill-rule="evenodd" clip-rule="evenodd" d="M267.993 3.66708C381.118 -0.299025 456.517 15.8938 496.625 129.842C539.197 250.794 501.986 312.696 402.012 384.426C316.781 445.577 224.115 349.574 140.111 286.487C51.052 219.604 52.1359 186.705 91.7158 77.8438C126.662 -18.2724 172.171 7.02656 267.993 3.66708Z" fill="url(#paint0_linear_15137_36240)"/>
<path d="M288 81V47C288 45.8954 288.895 45 290 45H394" stroke="#A9CBF7" stroke-width="1.5" stroke-linecap="round" stroke-linejoin="round" stroke-dasharray="6 6"/>
<path d="M126 199H98.5C97.3954 199 96.5 198.105 96.5 197V75" stroke="#A9CBF7" stroke-width="1.5" stroke-linecap="round" stroke-linejoin="round" stroke-dasharray="6 6"/>
<g filter="url(#filter0_d_15137_36240)">
<path d="M406 84.9089V243.091C406 246.35 403.195 249 399.745 249H132.266C128.805 249 126 246.35 126 243.091V84.9089C126 83.6032 126.457 82.3861 127.226 81.4148C127.403 81.1691 127.611 80.9436 127.829 80.7374C128.973 79.6581 130.53 79 132.256 79H399.745C400.607 79 401.428 79.1667 402.176 79.4616C402.55 79.609 402.903 79.795 403.235 80.0108C403.578 80.2267 403.89 80.4628 404.171 80.7374C405.293 81.7974 406 83.2794 406 84.9089Z" fill="white"/>
</g>
<path d="M408 88.1749V105H125V88.1749C125 86.1475 125.462 84.2578 126.239 82.7495C126.418 82.368 126.628 82.0179 126.849 81.6977C128.005 80.0219 129.579 79 131.323 79H401.677C402.549 79 403.379 79.2588 404.135 79.7167C404.513 79.9606 404.87 80.2344 405.206 80.5695C405.542 80.9047 405.856 81.2713 406.151 81.6977C407.285 83.3436 408 85.6448 408 88.1749Z" fill="#EAF4FE"/>
<circle cx="149.5" cy="91.5" r="3.5" fill="#FF6259"/>
<circle cx="161.5" cy="91.5" r="3.5" fill="#FFBE2F"/>
<circle cx="173.5" cy="91.5" r="3.5" fill="#29CD41"/>
<path opacity="0.2" d="M76.1133 404.035C117.693 404.035 151.4 401.919 151.4 399.309C151.4 396.7 117.693 394.584 76.1133 394.584C34.5334 394.584 0.826172 396.7 0.826172 399.309C0.826172 401.919 34.5334 404.035 76.1133 404.035Z" fill="#FF7300"/>
<path d="M120.356 302.138C106.716 291.964 106.623 358.189 109.974 376.867C113.326 395.545 117.47 382.99 120.728 353.309C123.988 323.629 125.723 306.141 120.356 302.138Z" fill="#BED5FC"/>
<path d="M107.904 374.037L107.334 380.973L118.705 381.553L118.556 374.816L107.904 374.037Z" fill="#FFC6AD"/>
<path d="M118.955 381.419C118.955 381.419 121.005 385.653 128.013 391.291C135.021 396.929 136.928 395.804 137.036 397.837C137.144 399.869 105.748 397.261 105.748 397.261L107.182 380.607C107.182 380.607 118.964 380.983 118.955 381.419Z" fill="#292466"/>
<path d="M83.1205 232.813C69.0619 230.474 69.6966 245.528 70.0763 257.488C71.3442 276.411 67.7131 298.505 74.4586 302.481C92.6309 312.154 95.4232 240.127 90.6776 235.931C88.4391 233.998 87.7195 234.214 83.1205 232.813Z" fill="#BED5FC"/>
<path d="M101.313 238.353C87.2395 240.601 92.6239 254.673 96.7828 265.893C103.996 283.433 107.572 305.537 115.231 307.164C135.534 310.564 115.302 241.381 109.469 238.909C106.733 237.788 106.119 238.221 101.313 238.353Z" fill="#BED5FC"/>
<path d="M39.5 351L30.6777 368.324L40.487 373.115L51 356L39.5 351Z" fill="#FFC6AD"/>
<path d="M41.4312 372.975C41.4312 372.975 41.5765 377.677 45.6779 385.682C49.7792 393.688 51.9779 393.437 51.2487 395.337C50.5194 397.238 22.3574 381.527 22.3574 381.527L29.8502 366.541C29.8502 366.541 41.6149 372.581 41.4312 372.975Z" fill="#292466"/>
<path d="M115.757 240.428C115.757 240.428 132.394 287.417 133.5 299C134.606 310.583 123.5 376 123.5 376H103C103 376 103.215 322.109 105.5 307L92.9218 266.8C92.9218 266.8 86.0153 300.857 83.5073 307.593C80.3231 316.143 47.5 369.5 47.5 369.5L31.5 360.5C31.5 360.5 41.731 324.278 61.5 298C61.5 298 58.3099 239.857 67.4471 233.31C76.5843 226.76 115.757 240.428 115.757 240.428Z" fill="#3A67B3"/>
<path d="M101.851 170.583C100.295 179.838 143.92 206.042 146.165 199.846C153.938 192.486 107.34 156.231 101.851 170.583Z" fill="#BED5FC"/>
<path d="M129.707 177.466L141.704 186.289C141.704 186.289 151.565 172.142 153.855 169.127C156.144 166.113 166.53 152.895 166.53 152.895L172.276 156.593C172.276 156.593 163.882 175.301 160.898 180.775C157.913 186.248 150.24 200.662 143.997 201.679C137.755 202.696 120.793 190.269 120.793 190.269L129.707 177.466Z" fill="#FFC6AD"/>
<path d="M141.95 200.639C143.507 201.296 145.327 200.952 146.686 199.948C157.317 192.092 178.394 145.973 174.559 145.85C172.093 144.691 130.232 195.702 141.95 200.639Z" fill="#FCBDA2"/>
<path d="M177.073 138.623C177.146 138.663 177.198 138.713 177.252 138.764L178.754 141.386C179.14 141.729 179.39 143.301 179.275 143.828L178.975 146.144C178.528 148.273 177.678 150.325 176.454 152.107L173.008 155.8L172.28 156.595L171.072 155.823L167.387 153.438L166.544 152.917L166.533 152.897L166.443 152.425L165.88 149.059C165.718 148.052 165.793 147.053 166.106 146.111L168.491 142.375C168.491 142.375 169.183 143.104 168.971 144.538C168.869 145.187 169.091 146.11 169.363 146.928L170.425 144.687L173.463 139.364C174.192 138.076 175.915 137.747 177.073 138.623Z" fill="#FCBDA2"/>
<path d="M120.865 191.199C115.923 188 97.4658 175.07 101.579 168.453C106.522 160.504 117.601 168.609 119.606 169.772C121.612 170.934 130.148 177.161 130.148 177.161L120.865 191.199Z" fill="#5BA7F4"/>
<path d="M70.0649 232.663C69.5495 236.461 115.108 244.082 115.391 240.107C115.507 225.077 117.829 212.145 119.552 201.312C119.822 199.517 120.091 197.794 120.327 196.118C122.742 179.282 122.179 168.297 105.801 163.149L92.0479 159.984C74.5199 159.984 73.3122 166.62 73.4658 182.307C73.5247 187.442 73.7235 193.55 73.5357 200.726C73.3122 209.672 72.4911 220.258 70.0649 232.663Z" fill="#80BFFE"/>
<path d="M93.7744 155.025C93.2124 159.081 91.7813 159.879 92.427 161.918C93.318 165.06 103.717 174.369 105.277 167.171L105.37 166.515L106.366 159.269C114.269 162.434 112.51 150.218 114.081 137.708C107.34 121.259 83.5279 127.18 94.3844 150.534C94.3844 150.534 94.3255 150.98 93.7744 155.025Z" fill="#FFC6AD"/>
<path d="M102.762 157.523C102.903 157.781 105.2 161.78 105.365 166.516L106.361 159.27L102.762 157.523Z" fill="url(#paint1_linear_15137_36240)"/>
<path d="M94.3756 150.538C94.6991 150.495 93.9397 142.128 95.6669 142.268C96.9445 142.38 97.2954 144.402 97.3091 146.411L99.2473 145.961C98.9663 142.254 99.416 137.831 100.552 136.821C102.588 135.037 107.39 138.154 112.459 139.32C115.702 140.05 117.036 136.4 117.569 133.675C117.962 131.709 117.133 129.658 115.448 128.578C111.672 126.177 107.01 127.497 101.38 127.048C94.4442 126.502 92.9555 130.643 91.5381 136.568C90.1221 142.493 94.0672 150.58 94.3756 150.538Z" fill="#292466"/>
<path d="M76.9062 166.69C70.5006 173.549 92.422 219.475 97.7145 215.548C108.256 213.698 89.4022 157.748 76.9062 166.69Z" fill="#BED5FC"/>
<path d="M96.8007 187.391L102.581 203.954C102.581 203.954 123.398 205.973 128.313 206.346C133.229 206.72 147.244 209.333 147.244 209.333L146.826 216.133C146.826 216.133 105.271 220.696 96.0235 215.842C88.9613 212.134 81.9512 193.53 81.9512 193.53L96.8007 187.391Z" fill="#FFC6AD"/>
<path d="M93.5926 211.108C93.7776 212.787 94.9647 214.209 96.5041 214.907C108.545 220.364 159.089 216.297 157.328 212.888C157.137 210.169 92.1944 198.47 93.5926 211.108Z" fill="#FCBDA2"/>
<path d="M164.859 211.561C164.859 211.644 164.841 211.714 164.822 211.784L163.194 213.508C163.083 214.013 161.831 214.996 161.316 215.153L159.147 216.021C157.071 216.668 154.865 216.926 152.711 216.724L147.877 216.38L146.828 216.132L146.914 214.702L147.202 210.321L147.246 209.332L147.259 209.313L147.627 209.004L150.293 206.873C151.093 206.242 152.003 205.82 152.977 205.635L157.402 205.897C157.402 205.897 157.102 206.856 155.746 207.37C155.13 207.598 154.432 208.242 153.849 208.878L156.325 208.714L162.452 208.772C163.934 208.778 165.061 210.124 164.859 211.561Z" fill="#FFC6AD"/>
<path d="M81.0141 194.459C78.6577 189.064 71.0088 167.707 78.093 164.459C86.6027 160.556 91.3675 173.43 92.3983 175.507C93.4291 177.584 97.111 187.486 97.111 187.486L81.0141 194.459Z" fill="#5BA7F4"/>
<g filter="url(#filter1_d_15137_36240)">
<path d="M371 43.0099C371 35.9342 371 32.3964 373.198 30.1983C375.396 28.0001 378.934 28.0001 386.01 28.0001H487.364C494.44 28.0001 497.978 28.0001 500.176 30.1983C502.374 32.3964 502.374 35.9342 502.374 43.0099V71.988C502.374 79.0637 502.374 82.6015 500.176 84.7996C497.978 86.9978 494.44 86.9978 487.364 86.9978H410.092C407.635 86.9978 406.407 86.9978 405.261 87.376C404.116 87.7543 403.129 88.4855 401.155 89.9478L386.804 100.582L386.322 93.7898C386.312 93.6456 386.307 93.5735 386.302 93.5115C385.966 89.683 382.793 86.7267 378.95 86.663C378.888 86.6619 378.815 86.6619 378.671 86.6619C378.517 86.6619 378.44 86.6619 378.375 86.6608C374.332 86.5906 371.071 83.3302 371.001 79.2874C371 79.2222 371 79.1452 371 78.9911V43.0099Z" fill="white"/>
</g>
<path d="M382.635 57.4676C382.635 46.9026 391.136 38.3379 401.624 38.3379C412.111 38.3379 420.613 46.9026 420.613 57.4676C420.613 68.0329 412.111 76.5973 401.624 76.5973C391.136 76.5973 382.635 68.0329 382.635 57.4676Z" fill="white"/>
<path d="M388.254 71.3768C391.674 74.6257 396.282 76.6207 401.356 76.6207C406.431 76.6207 411.039 74.6254 414.459 71.3768C410.502 70.1431 406.057 69.4492 401.356 69.4492C396.656 69.4492 392.211 70.1431 388.254 71.3768Z" fill="#D8DEE6"/>
<path d="M407.477 46.2921C406.617 45.7338 405.614 45.4375 404.59 45.4375H398.564C397.218 45.4375 395.923 45.9496 394.936 46.8714L394.606 47.1801C393.04 48.6437 392.494 50.9074 393.218 52.9313L395.2 58.4667L407.906 58.3864L409.699 52.3375C410.377 50.0493 409.471 47.5852 407.477 46.2921Z" fill="#292466"/>
<path d="M404.333 48.7046C404.305 48.6922 404.25 48.668 404.25 48.668L395.131 54.6298V58.2255C395.131 60.2828 396.086 62.1129 397.572 63.2989V68.7775C397.572 70.9433 399.316 72.6989 401.468 72.6989C403.62 72.6989 405.365 70.9433 405.365 68.7775V63.44C406.957 62.2617 407.995 60.368 407.995 58.2255V54.4122C407.996 51.8722 406.492 49.6856 404.333 48.7046Z" fill="#FFCBC2"/>
<path opacity="0.1" d="M401.359 77.5796C398.829 77.5796 396.298 77.0912 393.88 76.1129C388.911 74.1025 385.017 70.265 382.916 65.307C380.815 60.3489 380.757 54.864 382.754 49.8627C384.751 44.8611 388.563 40.9419 393.489 38.8266C403.175 34.6668 414.485 38.8098 419.236 48.258C419.472 48.7283 419.285 49.3024 418.818 49.5404C418.352 49.7779 417.78 49.5903 417.544 49.1198C413.243 40.566 403.004 36.8159 394.233 40.5819C389.773 42.497 386.321 46.0457 384.513 50.5742C382.705 55.1026 382.757 60.0688 384.66 64.558C386.563 69.0472 390.088 72.5218 394.587 74.3417C399.085 76.1616 404.019 76.1094 408.479 74.1943C413.306 72.1216 417.003 68.049 418.625 63.0208C418.787 62.5194 419.322 62.2456 419.819 62.4077C420.317 62.5704 420.59 63.1088 420.428 63.6099C418.638 69.1629 414.554 73.6605 409.223 75.9496C406.695 77.0361 404.028 77.5796 401.359 77.5796Z" fill="#AAB4BE"/>
<rect x="430.891" y="44.6133" width="60.9772" height="6.7149" rx="3.35745" fill="#EBEFF2"/>
<rect x="430.891" y="56.0195" width="16.886" height="3.75244" rx="1.87622" fill="#EBEFF2"/>
<rect x="452.467" y="56.0195" width="29.0814" height="3.75244" rx="1.87622" fill="#EBEFF2"/>
<rect x="430.891" y="64.4609" width="55.3485" height="3.75244" rx="1.87622" fill="#EBEFF2"/>
<g filter="url(#filter2_d_15137_36240)">
<path d="M139.721 15.0853V70.9112C139.721 72.0635 138.971 72.9997 138.053 72.9997H66.6718C65.7494 72.9997 65 72.0635 65 70.9112V15.0853C65 13.933 65.7494 13.002 66.6718 13.002H138.053C138.971 13.002 139.721 13.933 139.721 15.0853Z" fill="white"/>
</g>
<rect x="69" y="40" width="20" height="14" fill="#EBEFF2"/>
<rect x="92" y="40" width="20" height="14" fill="#EBEFF2"/>
<rect x="115" y="40" width="20" height="14" fill="#EBEFF2"/>
<path d="M135.482 22.7207H69.2402V36.3486H135.482V22.7207Z" fill="#FFF1EA"/>
<path opacity="0.1" d="M135.482 60.875H69.2402V62.4626H135.482V60.875Z" fill="#FF7300"/>
<path d="M135.482 66.9121H69.2402V68.4997H135.482V66.9121Z" fill="#EBEFF2"/>
<path d="M140 22H65V16.1763C65 14.422 65.7502 13 66.6756 13H138.324C139.25 13 140 14.422 140 16.1763V22Z" fill="#FF7300"/>
<g filter="url(#filter3_d_15137_36240)">
<path d="M124.5 19.2227C125.328 19.2227 126 18.5511 126 17.7227C126 16.8942 125.328 16.2227 124.5 16.2227C123.672 16.2227 123 16.8942 123 17.7227C123 18.5511 123.672 19.2227 124.5 19.2227Z" fill="white"/>
</g>
<g filter="url(#filter4_d_15137_36240)">
<path d="M129.5 19.2227C130.328 19.2227 131 18.5511 131 17.7227C131 16.8942 130.328 16.2227 129.5 16.2227C128.672 16.2227 128 16.8942 128 17.7227C128 18.5511 128.672 19.2227 129.5 19.2227Z" fill="white"/>
</g>
<g filter="url(#filter5_d_15137_36240)">
<path d="M134.5 19.2227C135.328 19.2227 136 18.5511 136 17.7227C136 16.8942 135.328 16.2227 134.5 16.2227C133.672 16.2227 133 16.8942 133 17.7227C133 18.5511 133.672 19.2227 134.5 19.2227Z" fill="white"/>
</g>
<path d="M214.551 226.202C184.996 226.202 160.951 202.157 160.951 172.602C160.951 143.047 184.996 119.002 214.551 119.002C250.699 119.002 273.591 166.305 274.547 168.318L276.583 172.603L274.547 176.887C273.591 178.9 250.699 226.202 214.551 226.202ZM214.551 138.967C196.005 138.967 180.916 154.056 180.916 172.602C180.916 191.148 196.005 206.237 214.551 206.237C231.814 206.237 247.396 184.857 254.273 172.602C247.396 160.347 231.814 138.967 214.551 138.967Z" fill="#F2F5F6"/>
<path d="M316.512 226.202C280.364 226.202 257.473 178.9 256.516 176.887L254.48 172.603L256.516 168.318C257.473 166.305 280.364 119.002 316.512 119.002C346.067 119.002 370.112 143.047 370.112 172.602C370.112 202.157 346.067 226.202 316.512 226.202ZM276.79 172.603C283.667 184.857 299.25 206.238 316.512 206.238C335.058 206.238 350.147 191.149 350.147 172.603C350.147 154.056 335.058 138.967 316.512 138.967C299.25 138.967 283.667 160.348 276.79 172.603Z" fill="#F2F5F6"/>
<path d="M295.186 196.317L282.581 211.737C275.574 205.581 269.83 198.393 265.531 192.144L265.538 192.131C271.075 184.085 276.791 172.605 276.791 172.605C280.625 179.433 287.16 189.103 295.186 196.317Z" fill="url(#paint2_linear_15137_36240)"/>
<path d="M265.529 153.067C259.993 161.113 254.269 172.606 254.269 172.606C250.436 165.778 243.901 156.108 235.875 148.894L248.479 133.475C255.487 139.63 261.23 146.818 265.529 153.067Z" fill="url(#paint3_linear_15137_36240)"/>
<path d="M323.495 129.348L316.507 138.965C306.818 138.965 297.654 145.706 290.267 153.792L280.012 135.817C289.681 126.587 302.033 119 316.507 119L323.495 129.348Z" fill="url(#paint4_linear_15137_36240)"/>
<path d="M249.792 134.646L235.251 148.328C229.029 142.885 221.948 138.965 214.554 138.965L207.566 128.623L214.554 119C228.41 119 240.322 125.954 249.792 134.646Z" fill="url(#paint5_linear_15137_36240)"/>
<path d="M221.54 215.856L214.552 226.204C200.35 226.204 187.427 220.654 177.83 211.603L187.899 193.096C194.055 201.082 203.711 206.239 214.552 206.239L221.54 215.856Z" fill="url(#paint6_linear_15137_36240)"/>
<path d="M348.053 215.915C339.195 222.384 328.294 226.203 316.508 226.203L309.527 215.855L316.508 206.239C326.105 206.239 334.776 202.199 340.912 195.73L348.053 215.915Z" fill="url(#paint7_linear_15137_36240)"/>
<path d="M444.412 373.41L444.873 384.851C444.873 384.851 439.913 386.947 436.039 384.847L434.248 373.768" fill="#FCBDA2"/>
<path d="M488.508 369.668L491.365 383.281C491.365 383.281 485.863 385.987 481.562 384.13L478.016 372.828" fill="#FCBDA2"/>
<path d="M446.442 393.572H422.29C421.997 393.572 421.762 393.307 421.826 393.02C422.048 392.024 423.473 390.446 426.21 389.026C429.048 387.555 436.042 384.848 436.042 384.848C436.042 384.848 441.005 385.727 444.883 384.848C444.883 384.848 446.264 386.253 446.571 388.342C446.89 390.432 446.442 393.112 446.442 393.572Z" fill="#FFB156"/>
<path d="M464.22 248.221C464.22 248.221 475.428 271.838 478.272 292.5C481.116 313.162 481.061 308.692 482 314C482.847 318.784 482.507 324.568 485 334.5C487.834 345.794 491.5 372 491.5 372C491.5 372 481.18 375.212 475.5 374.5C475.5 374.5 464.533 342.225 462.604 333.35C460.661 324.41 458.5 317.374 458.5 317.374C458.5 317.374 449.641 295.963 445.56 282.49L443.369 281.94L444.369 318.5C444.369 318.5 445.697 328.373 446.688 339.373C447.679 350.391 446.688 373.758 446.688 373.758C446.688 373.758 433.171 376.146 430.5 374.5C430.5 374.5 424.091 331.084 422.374 317.374C420.807 304.862 417.901 280.462 417.563 275.263C416.367 256.938 419.306 249.11 419.306 249.11L464.22 248.221Z" fill="#3A67B3"/>
<path d="M481.418 383.671C481.418 383.671 486.71 384.349 491.294 382.938L491.905 384.848C491.905 384.848 496.422 386.388 498.145 388.255C500.764 391.092 499.606 393.572 499.606 393.572H480.892C480.892 393.572 479.014 388.753 481.418 383.671Z" fill="#FFB156"/>
<path d="M405.546 240.647C405.546 240.647 414.954 241.899 420.306 241.292C426.504 240.589 420.753 234.691 420.753 234.691L406.21 238.193L405.546 240.647Z" fill="#FFA49A"/>
<path d="M419.504 214.111C418.545 213.881 417.628 213.63 416.752 213.37C407.746 210.722 405.248 207.564 405.248 207.564C410.9 191.706 414.482 188.144 417.127 185.223C421.999 179.845 418.319 197.031 417.752 197.331L419.504 214.111Z" fill="#FE8017"/>
<path d="M417.537 198.406L415.466 207.997L420.471 206.747L417.537 198.406Z" fill="url(#paint8_linear_15137_36240)"/>
<path d="M462.756 240.677C463.064 243.239 466.291 248.266 466.271 251.208C466.267 251.915 463.844 254.938 457.672 256.033C457.672 256.033 446.681 258.665 430.309 256.442C426.507 255.926 419.382 254.44 417.895 253.17C416.872 252.295 419.246 244.26 419.614 239.134C420.47 227.248 418.404 224.52 418.257 214.35C418.257 214.097 418.244 213.843 418.244 213.589C417.977 197.907 416.391 190.065 417.125 185.22C420.76 181.161 430.789 177.969 431.43 177.835C431.457 177.822 441.986 177.756 444.282 177.835C449.536 179.186 458.837 181.981 463.467 189.863C463.213 196.163 463.62 203.817 462.86 213.626C462.727 215.107 461.435 229.747 462.756 240.677Z" fill="url(#paint9_linear_15137_36240)"/>
<path d="M420.888 153.699C420.888 153.699 420.095 159.163 422.639 160.164L423.641 154.117" fill="#292466"/>
<path d="M434.166 185.616C428.005 184.877 430.77 178.598 431.427 177.767L431.437 177.777C431.437 177.777 432.462 171.09 432.544 170.77L442.997 166.207C442.997 166.207 443.238 177.623 444.289 177.778C445.875 178.526 443.749 186.756 434.166 185.616Z" fill="#FCBDA2"/>
<path d="M439.365 170.004C439.365 170.004 437.095 174.986 431.715 175.969L432.544 170.769L439.365 170.004Z" fill="#DE9D81"/>
<path d="M422.139 153.439C422.139 153.439 419.774 171.446 427.717 174.402C427.717 174.402 435.628 175.149 440.238 168.948C441.567 167.161 443.244 166.759 443.793 164.603C444.684 161.098 445.939 154.635 444.337 150.74C442.054 145.192 422.355 139.931 422.139 153.439Z" fill="#FCBDA2"/>
<path d="M427.448 140.795C427.448 140.795 429.297 136.515 434.997 138.548C438.985 139.971 441.02 142.936 441.02 142.936C441.02 142.936 442.616 141.648 444.072 143.621C445.023 144.912 444.414 147.66 444.414 147.66C453.89 149.397 444.323 169.523 444.207 170.175L443.195 170.769C442.926 167.823 443.011 165.13 442.841 163.072C442.789 162.449 441.805 162.088 441.575 161.653C439.711 161.963 437.878 161.938 436.823 161.039C434.973 159.461 434.596 156.868 434.402 155.116C432.646 155.71 418.179 157.994 418.887 149.736C418.887 149.736 418.236 148.466 418.022 147.174C416.321 136.932 427.448 140.795 427.448 140.795Z" fill="#292466"/>
<path d="M439.718 165.589C443.302 166.962 444.423 158.14 441.019 157.748C438.437 157.451 438.332 161.053 438.332 161.053C438.332 161.053 437.671 164.805 439.718 165.589Z" fill="#FECFBA"/>
<path d="M448.462 201.912L452.586 215.505L460.928 216.672L448.462 201.912Z" fill="#EC832C"/>
<path d="M475.231 217.819C471.815 207.513 465.72 195.27 465.72 195.27L451.771 203.276C451.771 203.276 457.099 213.912 460.63 221.344C457.224 222.176 448.421 224.381 441.679 226.555C433.152 229.32 425.204 230.075 425.204 230.075C425.581 232.707 425.572 235.101 425.572 235.101C433.901 235.559 449.607 235.683 460.716 234.929C465.294 234.627 469.208 234.183 471.278 233.472C474.539 232.351 476.756 231.472 476.905 228.065C477.125 223.079 475.301 217.941 475.231 217.819Z" fill="#FCBDA2"/>
<path d="M441.57 239.138H422.247V237.248H441.57C442.092 237.248 442.516 237.671 442.516 238.194C442.514 238.715 442.092 239.138 441.57 239.138Z" fill="#393195"/>
<path d="M431.115 239.136H384.94C384.361 239.136 383.852 238.75 383.697 238.192L373.796 202.546C373.576 201.757 374.17 200.977 374.989 200.977H419.57C420.659 200.977 421.616 201.704 421.908 202.753L431.774 238.27C431.893 238.706 431.567 239.136 431.115 239.136Z" fill="#393195"/>
<path d="M429.366 239.131H383.189C382.61 239.131 382.102 238.745 381.946 238.186L372.045 202.54C371.826 201.751 372.419 200.971 373.238 200.971H417.819C418.91 200.971 419.865 201.698 420.157 202.748L430.023 238.264C430.145 238.7 429.818 239.131 429.366 239.131Z" fill="#292466"/>
<path d="M388.607 239.137C388.607 239.137 389.403 240.926 393.029 241.29L392.777 239.137H388.607Z" fill="#FFA49A"/>
<path d="M389.453 233.078C389.532 232.738 390.342 232.368 390.996 232.587C390.717 231.812 390.5 231.145 390.506 231.058C390.572 230.113 391.495 230.233 392.019 230.527C392.622 230.865 393.325 232.426 393.516 232.593C393.273 232.095 393.032 231.509 393.048 231.444C393.18 230.884 394.421 230.416 395.131 231.064C395.494 231.396 396.571 233.199 396.84 233.675C396.764 233.371 396.719 233.158 396.73 233.112C396.863 232.552 397.922 232.351 398.631 232.999C399.666 233.944 401.154 237.408 401.154 237.408C401.837 238.946 402.469 239.139 402.669 239.139C403.159 239.139 406.469 239.139 406.469 239.139C406.469 239.139 406.168 240.72 404.385 241.32C402.618 241.904 399.84 242.282 396.401 242.187C394.699 242.145 392.653 241.548 391.607 239.966C391.245 239.419 390.514 236.677 390.251 235.66C390.093 235.136 389.44 233.136 389.453 233.078Z" fill="#FFA49A"/>
<path d="M463.469 189.867C463.469 189.867 466.55 193.718 472.057 207.086C472.057 207.086 463.762 211.957 453.641 213.958C453.641 213.958 451.52 209.67 446.536 197.123" fill="#FE8017"/>
<ellipse cx="401.455" cy="220.128" rx="3.64844" ry="3.67242" fill="white"/>
<g clip-path="url(#clip0_15137_36240)">
<path fill-rule="evenodd" clip-rule="evenodd" d="M400.385 219.605C400.385 219.605 400.184 219.807 399.959 220.034C399.746 220.249 399.633 220.526 399.633 220.829C399.633 221.119 399.746 221.41 399.959 221.612C399.971 221.624 399.971 221.624 399.984 221.637C400.197 221.851 400.473 221.965 400.761 221.965C401.05 221.965 401.338 221.851 401.551 221.637C401.777 221.41 401.977 221.208 401.977 221.208C402.078 221.107 402.078 220.955 401.977 220.854C401.877 220.753 401.727 220.753 401.626 220.854C401.626 220.854 401.426 221.056 401.2 221.283C401.087 221.397 400.924 221.46 400.761 221.46C400.598 221.46 400.435 221.397 400.322 221.283L400.297 221.258C400.184 221.145 400.122 220.981 400.122 220.817C400.122 220.652 400.184 220.488 400.297 220.375C400.523 220.148 400.724 219.946 400.724 219.946C400.824 219.845 400.824 219.693 400.724 219.592C400.636 219.517 400.485 219.517 400.385 219.605Z" fill="#051F39"/>
<path fill-rule="evenodd" clip-rule="evenodd" d="M401.84 219.39L400.724 220.514C400.623 220.615 400.623 220.766 400.724 220.867C400.824 220.968 400.974 220.968 401.075 220.867L402.191 219.744C402.291 219.643 402.291 219.491 402.191 219.39C402.09 219.302 401.94 219.302 401.84 219.39Z" fill="#051F39"/>
<path fill-rule="evenodd" clip-rule="evenodd" d="M402.531 220.653C402.531 220.653 402.731 220.451 402.957 220.224C403.17 220.009 403.283 219.732 403.283 219.441C403.283 219.151 403.17 218.861 402.957 218.659C402.945 218.646 402.945 218.646 402.932 218.634C402.731 218.407 402.443 218.293 402.155 218.293C401.866 218.293 401.578 218.407 401.365 218.621C401.139 218.848 400.939 219.05 400.939 219.05C400.838 219.151 400.838 219.303 400.939 219.404C401.039 219.504 401.189 219.504 401.29 219.404C401.29 219.404 401.49 219.202 401.716 218.974C401.829 218.861 401.992 218.798 402.155 218.798C402.318 218.798 402.481 218.861 402.593 218.974L402.619 219C402.731 219.113 402.794 219.277 402.794 219.441C402.794 219.605 402.731 219.77 402.619 219.883C402.393 220.11 402.192 220.312 402.192 220.312C402.092 220.413 402.092 220.565 402.192 220.666C402.28 220.754 402.43 220.754 402.531 220.653Z" fill="#051F39"/>
</g>
<g filter="url(#filter6_d_15137_36240)">
<path fill-rule="evenodd" clip-rule="evenodd" d="M133.341 273H242.658C244.497 273 246 274.696 246 276.772V342.226C246 344.302 244.497 346 242.658 346H133.341C131.503 346 130 344.302 130 342.226V276.772C130 274.696 131.503 273 133.341 273Z" fill="white"/>
</g>
<g filter="url(#filter7_d_15137_36240)">
<path fill-rule="evenodd" clip-rule="evenodd" d="M405.545 273H292.456C290.555 273 289 274.696 289 276.772V342.226C289 344.302 290.555 346 292.456 346H405.545C407.446 346 409 344.302 409 342.226V276.772C409 274.696 407.446 273 405.545 273Z" fill="white"/>
</g>
<rect x="300" y="300" width="102" height="6" rx="3" fill="#EBEFF2"/>
<rect x="300" y="310" width="69" height="3" rx="1.5" fill="#EBEFF2"/>
<rect x="300" y="323" width="102" height="6" rx="3" fill="#EBEFF2"/>
<rect x="300" y="332" width="69" height="3" rx="1.5" fill="#EBEFF2"/>
<circle cx="302.5" cy="286.404" r="2.5" fill="#D8DEE6"/>
<circle cx="312.34" cy="286.404" r="2.5" fill="#D8DEE6"/>
<circle cx="322.186" cy="286.404" r="2.5" fill="#D8DEE6"/>
<path fill-rule="evenodd" clip-rule="evenodd" d="M154.24 305.813H142V337H154.24V305.813ZM232 296.51H219.763V337H232V296.51ZM212.561 287.739H200.323V337H212.561V287.739ZM193.12 284H180.88V337H193.12V284ZM173.679 295.527H161.441V337H173.679V295.527Z" fill="#EAF4FE"/>
<path opacity="0.3" d="M197.344 387.109C197.259 387.109 197.174 387.094 197.09 387.063C178.939 380.293 162.509 370.614 148.255 358.296C147.949 358.031 147.913 357.565 148.177 357.257C148.44 356.948 148.902 356.913 149.208 357.178C163.331 369.383 179.611 378.972 197.598 385.681C197.977 385.823 198.171 386.247 198.03 386.628C197.921 386.925 197.641 387.109 197.344 387.109Z" fill="#FF7300"/>
<path opacity="0.3" d="M227.957 384.566C227.917 384.566 227.877 384.563 227.836 384.556C204.192 380.612 182.761 371.814 164.138 358.408C163.809 358.171 163.734 357.711 163.969 357.38C164.204 357.05 164.661 356.973 164.99 357.21C183.428 370.484 204.654 379.195 228.075 383.103C228.474 383.17 228.744 383.549 228.678 383.95C228.618 384.311 228.308 384.566 227.957 384.566Z" fill="#FF7300"/>
<path opacity="0.3" d="M185.33 389.757C184.713 390.101 184.116 390.308 183.454 390.449C182.802 390.585 182.107 390.631 181.416 390.502C181.072 390.438 180.73 390.34 180.403 390.201C180.238 390.118 180.089 390.068 179.912 389.954L179.651 389.776L179.435 389.578C178.885 389.037 178.59 388.462 178.281 387.918C177.982 387.373 177.708 386.846 177.404 386.37C177.102 385.895 176.767 385.47 176.388 385.192C175.754 384.655 174.557 384.746 173.358 384.817C172.751 384.852 172.12 384.893 171.45 384.849C170.789 384.802 170.047 384.672 169.376 384.228C169.003 383.96 168.732 383.603 168.572 383.274C168.4 382.94 168.289 382.615 168.195 382.299C168.012 381.667 167.896 381.06 167.758 380.485C167.621 379.92 167.468 379.348 167.23 378.977C167.113 378.783 167.004 378.704 166.817 378.591C166.638 378.49 166.402 378.432 166.155 378.388C165.643 378.318 165.068 378.343 164.469 378.387C164.17 378.408 163.861 378.433 163.535 378.441C163.207 378.444 162.868 378.461 162.43 378.317C162.142 378.223 161.984 377.911 162.078 377.621C162.171 377.334 162.474 377.176 162.76 377.264L162.789 377.273C162.932 377.317 163.212 377.322 163.487 377.301C163.766 377.282 164.06 377.247 164.365 377.214C164.971 377.147 165.613 377.081 166.308 377.146C166.658 377.193 167.023 377.26 167.388 377.437C167.736 377.605 168.112 377.922 168.313 378.253C168.739 378.911 168.887 379.547 169.058 380.155C169.217 380.762 169.346 381.352 169.516 381.888C169.675 382.427 169.928 382.889 170.16 383.046C170.511 383.276 171.002 383.386 171.542 383.417C172.083 383.449 172.665 383.412 173.267 383.372C173.871 383.333 174.496 383.28 175.173 383.317C175.512 383.341 175.863 383.376 176.232 383.489L176.507 383.576L176.782 383.709C176.977 383.794 177.112 383.912 177.268 384.02C177.863 384.475 178.273 385.043 178.618 385.594C178.963 386.149 179.243 386.708 179.524 387.234C179.806 387.749 180.087 388.271 180.4 388.596L180.515 388.712L180.628 388.793C180.7 388.852 180.841 388.907 180.943 388.966C181.171 389.073 181.412 389.152 181.662 389.209C182.654 389.428 183.834 389.216 184.803 388.788L184.845 388.77C185.122 388.647 185.445 388.775 185.566 389.054C185.681 389.316 185.574 389.621 185.33 389.757Z" fill="#FF7300"/>
<path d="M338.646 269.354C338.842 269.549 339.158 269.549 339.354 269.354L342.536 266.172C342.731 265.976 342.731 265.66 342.536 265.464C342.34 265.269 342.024 265.269 341.828 265.464L339 268.293L336.172 265.464C335.976 265.269 335.66 265.269 335.464 265.464C335.269 265.66 335.269 265.976 335.464 266.172L338.646 269.354ZM338.5 249L338.5 269L339.5 269L339.5 249L338.5 249Z" fill="#AAB4BE"/>
<path d="M177.646 269.354C177.842 269.549 178.158 269.549 178.354 269.354L181.536 266.172C181.731 265.976 181.731 265.66 181.536 265.464C181.34 265.269 181.024 265.269 180.828 265.464L178 268.293L175.172 265.464C174.976 265.269 174.66 265.269 174.464 265.464C174.269 265.66 174.269 265.976 174.464 266.172L177.646 269.354ZM177.5 249L177.5 269L178.5 269L178.5 249L177.5 249Z" fill="#AAB4BE"/>
<path d="M273.606 304H267.92C267.519 304 267.121 304.075 266.742 304.223C267.488 304.515 268.13 305.073 268.572 305.812H273.608C273.877 305.807 274.144 305.862 274.394 305.974C274.644 306.087 274.871 306.254 275.063 306.467C275.255 306.68 275.408 306.934 275.512 307.214C275.616 307.494 275.669 307.794 275.669 308.098C275.669 308.402 275.616 308.703 275.512 308.983C275.408 309.263 275.255 309.517 275.063 309.729C274.871 309.942 274.644 310.11 274.394 310.222C274.144 310.335 273.877 310.39 273.608 310.384H267.92C267.492 310.383 267.076 310.229 266.73 309.944C266.384 309.659 266.127 309.258 265.996 308.798C265.865 308.338 265.867 307.843 266.001 307.384C266.135 306.925 266.394 306.525 266.742 306.243C266.398 305.963 265.985 305.813 265.562 305.813H264.912C264.508 306.488 264.293 307.284 264.293 308.099C264.293 308.914 264.508 309.71 264.912 310.385C265.243 310.943 265.691 311.401 266.217 311.717C266.742 312.033 267.328 312.198 267.923 312.197H273.608C274.571 312.197 275.494 311.765 276.175 310.997C276.856 310.228 277.238 309.186 277.238 308.099C277.238 307.012 276.856 305.969 276.175 305.2C275.494 304.432 274.571 304 273.608 304H273.606Z" fill="#0061BF"/>
<path d="M269.187 308.099C269.188 308.914 268.972 309.71 268.569 310.386H267.919C267.496 310.386 267.083 310.235 266.74 309.955C267.088 309.673 267.347 309.273 267.481 308.814C267.615 308.355 267.616 307.86 267.485 307.399C267.354 306.939 267.097 306.538 266.751 306.253C266.405 305.968 265.988 305.814 265.56 305.814H259.874C259.344 305.825 258.838 306.07 258.466 306.498C258.094 306.925 257.886 307.501 257.886 308.1C257.886 308.699 258.094 309.274 258.466 309.702C258.838 310.129 259.344 310.375 259.874 310.386H264.91C265.352 311.125 265.994 311.683 266.741 311.975C266.361 312.122 265.962 312.197 265.56 312.197H259.874C259.397 312.197 258.925 312.091 258.485 311.885C258.045 311.679 257.644 311.377 257.307 310.997C256.97 310.616 256.703 310.164 256.52 309.667C256.338 309.17 256.244 308.637 256.244 308.099C256.244 307.56 256.338 307.027 256.52 306.53C256.703 306.033 256.97 305.581 257.307 305.2C257.644 304.82 258.045 304.518 258.485 304.312C258.925 304.106 259.397 304 259.874 304H265.56C266.522 304.001 267.445 304.434 268.125 305.202C268.806 305.97 269.189 307.012 269.19 308.099L269.187 308.099Z" fill="#FF7300"/>
<path d="M383.731 124.842C383.401 124.842 383.101 124.615 383.02 124.277C382.926 123.882 383.168 123.484 383.561 123.389L386.544 122.669C386.936 122.574 387.332 122.817 387.426 123.213C387.521 123.609 387.278 124.007 386.886 124.101L383.903 124.822C383.845 124.836 383.788 124.842 383.731 124.842Z" fill="#FF7300"/>
<path d="M394.173 122.323C393.842 122.323 393.542 122.096 393.462 121.758C393.367 121.362 393.61 120.965 394.003 120.87L396.985 120.149C397.378 120.055 397.773 120.298 397.868 120.694C397.962 121.089 397.72 121.487 397.327 121.582L394.344 122.302C394.287 122.316 394.229 122.323 394.173 122.323Z" fill="#FF7300"/>
<path d="M392.093 129.971C391.764 129.971 391.465 129.746 391.383 129.41L390.65 126.411C390.554 126.016 390.794 125.617 391.186 125.52C391.581 125.422 391.975 125.664 392.071 126.059L392.804 129.058C392.901 129.453 392.661 129.852 392.269 129.949C392.21 129.964 392.151 129.971 392.093 129.971Z" fill="#FF7300"/>
<path d="M389.527 119.473C389.198 119.473 388.899 119.248 388.817 118.912L388.084 115.913C387.987 115.518 388.227 115.119 388.62 115.021C389.013 114.924 389.408 115.166 389.505 115.561L390.238 118.56C390.335 118.955 390.095 119.354 389.702 119.451C389.644 119.466 389.585 119.473 389.527 119.473Z" fill="#FF7300"/>
<path opacity="0.2" d="M34.4577 97.3027H32.9531C32.9531 101.706 29.3918 105.275 24.9996 105.275V106.783C29.3928 106.783 32.9531 110.353 32.9531 114.756H34.4577C34.4577 110.353 38.0189 106.783 42.4121 106.783V105.275C38.0189 105.275 34.4577 101.705 34.4577 97.3027Z" fill="url(#paint10_linear_15137_36240)"/>
<path d="M48.3239 75H47.9475C47.9475 79.4035 44.3862 82.9731 39.994 82.9731V83.3504C44.3872 83.3504 47.9485 86.92 47.9485 91.3234H48.3249C48.3249 86.92 51.8861 83.3504 56.2793 83.3504V82.9731C51.8851 82.9731 48.3239 79.4035 48.3239 75Z" fill="url(#paint11_linear_15137_36240)"/>
<path opacity="0.2" d="M60.4976 124.625C60.4976 128.885 57.0521 132.339 52.8018 132.339C57.0521 132.339 60.4976 135.792 60.4976 140.053C60.4976 135.792 63.943 132.339 68.1934 132.339C63.943 132.338 60.4976 128.885 60.4976 124.625Z" fill="url(#paint12_linear_15137_36240)"/>
<defs>
<filter id="filter0_d_15137_36240" x="100.826" y="66.4131" width="330.348" height="220.348" filterUnits="userSpaceOnUse" color-interpolation-filters="sRGB">
<feFlood flood-opacity="0" result="BackgroundImageFix"/>
<feColorMatrix in="SourceAlpha" type="matrix" values="0 0 0 0 0 0 0 0 0 0 0 0 0 0 0 0 0 0 127 0" result="hardAlpha"/>
<feOffset dy="12.5869"/>
<feGaussianBlur stdDeviation="12.5869"/>
<feComposite in2="hardAlpha" operator="out"/>
<feColorMatrix type="matrix" values="0 0 0 0 0.117647 0 0 0 0 0.129412 0 0 0 0 0.176471 0 0 0 0.06 0"/>
<feBlend mode="normal" in2="BackgroundImageFix" result="effect1_dropShadow_15137_36240"/>
<feBlend mode="normal" in="SourceGraphic" in2="effect1_dropShadow_15137_36240" result="shape"/>
</filter>
<filter id="filter1_d_15137_36240" x="333.476" y="4.54723" width="206.424" height="147.631" filterUnits="userSpaceOnUse" color-interpolation-filters="sRGB">
<feFlood flood-opacity="0" result="BackgroundImageFix"/>
<feColorMatrix in="SourceAlpha" type="matrix" values="0 0 0 0 0 0 0 0 0 0 0 0 0 0 0 0 0 0 127 0" result="hardAlpha"/>
<feOffset dy="14.0717"/>
<feGaussianBlur stdDeviation="18.7622"/>
<feComposite in2="hardAlpha" operator="out"/>
<feColorMatrix type="matrix" values="0 0 0 0 0.117647 0 0 0 0 0.129412 0 0 0 0 0.176471 0 0 0 0.08 0"/>
<feBlend mode="normal" in2="BackgroundImageFix" result="effect1_dropShadow_15137_36240"/>
<feBlend mode="normal" in="SourceGraphic" in2="effect1_dropShadow_15137_36240" result="shape"/>
</filter>
<filter id="filter2_d_15137_36240" x="39.8262" y="0.415045" width="125.068" height="110.346" filterUnits="userSpaceOnUse" color-interpolation-filters="sRGB">
<feFlood flood-opacity="0" result="BackgroundImageFix"/>
<feColorMatrix in="SourceAlpha" type="matrix" values="0 0 0 0 0 0 0 0 0 0 0 0 0 0 0 0 0 0 127 0" result="hardAlpha"/>
<feOffset dy="12.5869"/>
<feGaussianBlur stdDeviation="12.5869"/>
<feComposite in2="hardAlpha" operator="out"/>
<feColorMatrix type="matrix" values="0 0 0 0 0.117647 0 0 0 0 0.129412 0 0 0 0 0.176471 0 0 0 0.06 0"/>
<feBlend mode="normal" in2="BackgroundImageFix" result="effect1_dropShadow_15137_36240"/>
<feBlend mode="normal" in="SourceGraphic" in2="effect1_dropShadow_15137_36240" result="shape"/>
</filter>
<filter id="filter3_d_15137_36240" x="97.8262" y="3.63575" width="53.3476" height="53.3476" filterUnits="userSpaceOnUse" color-interpolation-filters="sRGB">
<feFlood flood-opacity="0" result="BackgroundImageFix"/>
<feColorMatrix in="SourceAlpha" type="matrix" values="0 0 0 0 0 0 0 0 0 0 0 0 0 0 0 0 0 0 127 0" result="hardAlpha"/>
<feOffset dy="12.5869"/>
<feGaussianBlur stdDeviation="12.5869"/>
<feComposite in2="hardAlpha" operator="out"/>
<feColorMatrix type="matrix" values="0 0 0 0 0.117647 0 0 0 0 0.129412 0 0 0 0 0.176471 0 0 0 0.06 0"/>
<feBlend mode="normal" in2="BackgroundImageFix" result="effect1_dropShadow_15137_36240"/>
<feBlend mode="normal" in="SourceGraphic" in2="effect1_dropShadow_15137_36240" result="shape"/>
</filter>
<filter id="filter4_d_15137_36240" x="102.826" y="3.63575" width="53.3476" height="53.3476" filterUnits="userSpaceOnUse" color-interpolation-filters="sRGB">
<feFlood flood-opacity="0" result="BackgroundImageFix"/>
<feColorMatrix in="SourceAlpha" type="matrix" values="0 0 0 0 0 0 0 0 0 0 0 0 0 0 0 0 0 0 127 0" result="hardAlpha"/>
<feOffset dy="12.5869"/>
<feGaussianBlur stdDeviation="12.5869"/>
<feComposite in2="hardAlpha" operator="out"/>
<feColorMatrix type="matrix" values="0 0 0 0 0.117647 0 0 0 0 0.129412 0 0 0 0 0.176471 0 0 0 0.06 0"/>
<feBlend mode="normal" in2="BackgroundImageFix" result="effect1_dropShadow_15137_36240"/>
<feBlend mode="normal" in="SourceGraphic" in2="effect1_dropShadow_15137_36240" result="shape"/>
</filter>
<filter id="filter5_d_15137_36240" x="107.826" y="3.63575" width="53.3476" height="53.3476" filterUnits="userSpaceOnUse" color-interpolation-filters="sRGB">
<feFlood flood-opacity="0" result="BackgroundImageFix"/>
<feColorMatrix in="SourceAlpha" type="matrix" values="0 0 0 0 0 0 0 0 0 0 0 0 0 0 0 0 0 0 127 0" result="hardAlpha"/>
<feOffset dy="12.5869"/>
<feGaussianBlur stdDeviation="12.5869"/>
<feComposite in2="hardAlpha" operator="out"/>
<feColorMatrix type="matrix" values="0 0 0 0 0.117647 0 0 0 0 0.129412 0 0 0 0 0.176471 0 0 0 0.06 0"/>
<feBlend mode="normal" in2="BackgroundImageFix" result="effect1_dropShadow_15137_36240"/>
<feBlend mode="normal" in="SourceGraphic" in2="effect1_dropShadow_15137_36240" result="shape"/>
</filter>
<filter id="filter6_d_15137_36240" x="90" y="248" width="196" height="153" filterUnits="userSpaceOnUse" color-interpolation-filters="sRGB">
<feFlood flood-opacity="0" result="BackgroundImageFix"/>
<feColorMatrix in="SourceAlpha" type="matrix" values="0 0 0 0 0 0 0 0 0 0 0 0 0 0 0 0 0 0 127 0" result="hardAlpha"/>
<feOffset dy="15"/>
<feGaussianBlur stdDeviation="20"/>
<feComposite in2="hardAlpha" operator="out"/>
<feColorMatrix type="matrix" values="0 0 0 0 0.117647 0 0 0 0 0.129412 0 0 0 0 0.176471 0 0 0 0.07 0"/>
<feBlend mode="normal" in2="BackgroundImageFix" result="effect1_dropShadow_15137_36240"/>
<feBlend mode="normal" in="SourceGraphic" in2="effect1_dropShadow_15137_36240" result="shape"/>
</filter>
<filter id="filter7_d_15137_36240" x="249" y="248" width="200" height="153" filterUnits="userSpaceOnUse" color-interpolation-filters="sRGB">
<feFlood flood-opacity="0" result="BackgroundImageFix"/>
<feColorMatrix in="SourceAlpha" type="matrix" values="0 0 0 0 0 0 0 0 0 0 0 0 0 0 0 0 0 0 127 0" result="hardAlpha"/>
<feOffset dy="15"/>
<feGaussianBlur stdDeviation="20"/>
<feComposite in2="hardAlpha" operator="out"/>
<feColorMatrix type="matrix" values="0 0 0 0 0.117647 0 0 0 0 0.129412 0 0 0 0 0.176471 0 0 0 0.07 0"/>
<feBlend mode="normal" in2="BackgroundImageFix" result="effect1_dropShadow_15137_36240"/>
<feBlend mode="normal" in="SourceGraphic" in2="effect1_dropShadow_15137_36240" result="shape"/>
</filter>
<linearGradient id="paint0_linear_15137_36240" x1="263.1" y1="3.14002" x2="263.1" y2="404" gradientUnits="userSpaceOnUse">
<stop stop-color="#FF7300"/>
<stop offset="1" stop-color="#FF7300" stop-opacity="0"/>
</linearGradient>
<linearGradient id="paint1_linear_15137_36240" x1="106.361" y1="162.019" x2="102.762" y2="162.019" gradientUnits="userSpaceOnUse">
<stop stop-color="#E2F4FF"/>
<stop offset="1" stop-color="#D7ECFF"/>
</linearGradient>
<linearGradient id="paint2_linear_15137_36240" x1="287.866" y1="200.083" x2="266.903" y2="179.952" gradientUnits="userSpaceOnUse">
<stop stop-color="#CBE1F2" stop-opacity="0"/>
<stop offset="1" stop-color="#AED2ED"/>
</linearGradient>
<linearGradient id="paint3_linear_15137_36240" x1="244.883" y1="141.928" x2="261.354" y2="167.55" gradientUnits="userSpaceOnUse">
<stop stop-color="#CBE1F2" stop-opacity="0"/>
<stop offset="1" stop-color="#AED2ED"/>
</linearGradient>
<linearGradient id="paint4_linear_15137_36240" x1="285.445" y1="139.713" x2="324.488" y2="131.505" gradientUnits="userSpaceOnUse">
<stop stop-color="#CBE1F2" stop-opacity="0"/>
<stop offset="1" stop-color="#AED2ED"/>
</linearGradient>
<linearGradient id="paint5_linear_15137_36240" x1="235.881" y1="135.029" x2="206.932" y2="130.869" gradientUnits="userSpaceOnUse">
<stop stop-color="#CBE1F2" stop-opacity="0"/>
<stop offset="1" stop-color="#AED2ED"/>
</linearGradient>
<linearGradient id="paint6_linear_15137_36240" x1="189.026" y1="207.352" x2="219.306" y2="215.338" gradientUnits="userSpaceOnUse">
<stop stop-color="#CBE1F2" stop-opacity="0"/>
<stop offset="1" stop-color="#AED2ED"/>
</linearGradient>
<linearGradient id="paint7_linear_15137_36240" x1="345.642" y1="207.933" x2="314.031" y2="214.755" gradientUnits="userSpaceOnUse">
<stop stop-color="#CBE1F2" stop-opacity="0"/>
<stop offset="1" stop-color="#AED2ED"/>
</linearGradient>
<linearGradient id="paint8_linear_15137_36240" x1="417.968" y1="199.623" x2="417.968" y2="210.603" gradientUnits="userSpaceOnUse">
<stop stop-color="#6EC4F7"/>
<stop offset="1" stop-color="#398EF6"/>
</linearGradient>
<linearGradient id="paint9_linear_15137_36240" x1="416.95" y1="218.021" x2="466.316" y2="218.021" gradientUnits="userSpaceOnUse">
<stop stop-color="#FAB882"/>
<stop offset="1" stop-color="#FF7300"/>
</linearGradient>
<linearGradient id="paint10_linear_15137_36240" x1="25.0056" y1="106.129" x2="42.4278" y2="106.129" gradientUnits="userSpaceOnUse">
<stop stop-color="#FAB882"/>
<stop offset="1" stop-color="#FF7300"/>
</linearGradient>
<linearGradient id="paint11_linear_15137_36240" x1="39.9997" y1="83.2551" x2="56.294" y2="83.2551" gradientUnits="userSpaceOnUse">
<stop stop-color="#FAB882"/>
<stop offset="1" stop-color="#FF7300"/>
</linearGradient>
<linearGradient id="paint12_linear_15137_36240" x1="52.8071" y1="132.427" x2="68.2072" y2="132.427" gradientUnits="userSpaceOnUse">
<stop stop-color="#FAB882"/>
<stop offset="1" stop-color="#FF7300"/>
</linearGradient>
<clipPath id="clip0_15137_36240">
<rect width="3.64844" height="3.67242" fill="white" transform="translate(399.633 218.293)"/>
</clipPath>
</defs>
</svg>
