<svg width="1920" height="632" viewBox="0 0 1920 632" fill="none" xmlns="http://www.w3.org/2000/svg">
<rect width="1920" height="632" transform="matrix(-1 0 0 1 1920 0)" fill="url(#paint0_linear_15251_27329)"/>
<g opacity="0.1" clip-path="url(#clip0_15251_27329)">
<path d="M123.215 518.683L116.616 525.281C113.881 528.017 109.45 528.017 106.717 525.282C103.983 522.548 103.983 518.117 106.717 515.384L119.916 502.184C122.649 499.451 127.08 499.451 129.813 502.184C130.725 503.096 132.202 503.096 133.113 502.184C134.024 501.273 134.024 499.796 133.113 498.885C128.557 494.329 121.172 494.329 116.616 498.885L103.417 512.084C98.861 516.64 98.861 524.025 103.417 528.581C107.972 533.139 115.358 533.139 119.916 528.581L126.515 521.983C127.426 521.071 127.426 519.594 126.515 518.683C125.604 517.772 124.126 517.772 123.215 518.683Z" fill="#0061BF"/>
<path d="M152.581 495.915C157.137 491.359 157.137 483.974 152.581 479.418C148.025 474.862 140.64 474.862 136.082 479.417L128.165 487.335C127.254 488.246 127.254 489.723 128.165 490.635C129.076 491.546 130.553 491.546 131.465 490.635L139.381 482.718C142.117 479.984 146.548 479.984 149.281 482.718C152.015 485.451 152.015 489.882 149.281 492.615L134.763 507.133C132.03 509.866 127.599 509.866 124.866 507.133C123.955 506.222 122.477 506.222 121.566 507.133C120.655 508.044 120.655 509.521 121.566 510.433C126.122 514.988 133.507 514.988 138.063 510.433L152.581 495.915Z" fill="#0061BF"/>
<path d="M143.651 516.35C142.74 515.439 141.263 515.439 140.351 516.35C139.44 517.262 139.44 518.739 140.351 519.65L147.349 526.648C148.26 527.559 149.738 527.559 150.649 526.648C151.56 525.737 151.56 524.259 150.649 523.348L143.651 516.35Z" fill="#0061BF"/>
<path d="M112.352 491.653C113.263 492.564 114.741 492.564 115.652 491.653C116.563 490.742 116.563 489.264 115.652 488.353L108.647 481.348C107.736 480.437 106.259 480.437 105.347 481.348C104.436 482.26 104.436 483.737 105.347 484.648L112.352 491.653Z" fill="#0061BF"/>
<path d="M153.665 511H146.665C145.377 511 144.332 512.045 144.332 513.333C144.332 514.622 145.377 515.667 146.665 515.667H153.665C154.954 515.667 155.998 514.622 155.998 513.333C155.998 512.045 154.954 511 153.665 511Z" fill="#0061BF"/>
<path d="M118.665 487.667C119.954 487.667 120.999 486.622 120.999 485.333V478.333C120.999 477.045 119.954 476 118.665 476C117.377 476 116.332 477.045 116.332 478.333V485.333C116.332 486.622 117.377 487.667 118.665 487.667Z" fill="#0061BF"/>
<path d="M102.333 497H109.333C110.622 497 111.666 495.955 111.666 494.666C111.666 493.378 110.622 492.333 109.333 492.333H102.333C101.045 492.333 100 493.378 100 494.666C100 495.955 101.045 497 102.333 497Z" fill="#0061BF"/>
<path d="M137.333 520.333C136.045 520.333 135 521.378 135 522.666V529.666C135 530.955 136.045 531.999 137.333 531.999C138.622 531.999 139.667 530.955 139.667 529.666V522.666C139.667 521.378 138.622 520.333 137.333 520.333Z" fill="#0061BF"/>
</g>
<circle cx="1773" cy="147" r="47" fill="url(#paint1_linear_15251_27329)"/>
<circle cx="1739" cy="182" r="24" fill="url(#paint2_linear_15251_27329)"/>
<defs>
<linearGradient id="paint0_linear_15251_27329" x1="960" y1="0" x2="960" y2="632" gradientUnits="userSpaceOnUse">
<stop offset="0.0001" stop-color="#E6F2FF" stop-opacity="0.4"/>
<stop offset="1" stop-color="#D2E9FF"/>
</linearGradient>
<linearGradient id="paint1_linear_15251_27329" x1="1812.95" y1="96.24" x2="1745.74" y2="178.96" gradientUnits="userSpaceOnUse">
<stop stop-color="#D8EBFF"/>
<stop offset="1" stop-color="#EDF5FD" stop-opacity="0"/>
</linearGradient>
<linearGradient id="paint2_linear_15251_27329" x1="1759.4" y1="156.08" x2="1725.08" y2="198.32" gradientUnits="userSpaceOnUse">
<stop stop-color="#D8EBFF"/>
<stop offset="1" stop-color="#EDF5FD" stop-opacity="0"/>
</linearGradient>
<clipPath id="clip0_15251_27329">
<rect width="56" height="56" fill="white" transform="translate(100 476)"/>
</clipPath>
</defs>
</svg>
