<svg width="611" height="558" viewBox="0 0 611 558" fill="none" xmlns="http://www.w3.org/2000/svg">
<circle cx="260" cy="260" r="260" transform="matrix(-1 0 0 1 520 38)" fill="url(#paint0_linear_15137_38284)"/>
<circle cx="31" cy="31" r="31" transform="matrix(1 0 0 -1 450 325)" fill="url(#paint1_linear_15137_38284)"/>
<path opacity="0.2" d="M453.988 475.834C482.579 475.834 505.756 472.41 505.756 468.186C505.756 463.962 482.579 460.537 453.988 460.537C425.398 460.537 402.221 463.962 402.221 468.186C402.221 472.41 425.398 475.834 453.988 475.834Z" fill="#FF7300"/>
<path d="M460.224 407.064C459.486 410.197 458.703 413.28 458.55 416.495C458.639 416.654 458.62 417.239 458.55 417.08C458.55 417.601 457.741 417.506 457.741 416.991C457.741 416.661 457.741 416.324 457.741 416.006C455.895 413.712 453.215 412.263 451.051 410.286C449.309 408.723 448.039 406.704 447.384 404.459C445.589 398.275 447.27 391.748 445.111 385.552C443.246 380.239 439.904 375.613 437.078 370.795C434.092 365.711 431.889 360.348 431.667 354.38C431.495 349.811 432.036 343.723 435.524 340.304C439.217 336.668 443.8 339.388 446.633 342.63C454.832 352.029 458.626 363.907 460.16 376.051C461.007 382.775 461.886 389.537 461.682 396.318C461.554 399.939 461.066 403.539 460.224 407.064Z" fill="#B7DBFF"/>
<path opacity="0.4" d="M458.569 418.967C459.018 412.616 458.943 406.24 458.346 399.901C458.347 399.88 458.347 399.859 458.346 399.838C458.448 394.69 458.855 389.562 458.652 384.408C458.402 378.842 457.643 373.312 456.385 367.884C456.385 367.821 456.271 367.84 456.284 367.884C457.288 373.225 457.889 378.634 458.079 384.064C458.181 386.975 458.157 389.884 458.009 392.79C457.958 393.737 457.869 394.697 457.805 395.644C455.664 381.192 450.431 367.37 442.463 355.117C442.361 354.952 442.062 355.117 442.164 355.301C447.855 364.614 452.068 374.749 454.654 385.348C450.707 378.053 444.748 372.053 440.331 365.044C440.331 365.005 440.241 365.044 440.26 365.082C444.233 372.892 450.796 379.063 454.978 386.734C455.698 389.867 456.296 393.032 456.735 396.215C457.327 400.581 457.646 404.979 457.69 409.383C455.284 404.903 452.789 400.613 450.828 395.872C450.822 395.86 450.815 395.848 450.805 395.839C450.795 395.829 450.783 395.822 450.771 395.817C450.758 395.812 450.744 395.81 450.731 395.81C450.717 395.81 450.704 395.813 450.691 395.818C450.679 395.824 450.667 395.832 450.658 395.841C450.648 395.851 450.641 395.863 450.636 395.875C450.631 395.888 450.628 395.902 450.628 395.915C450.629 395.929 450.632 395.942 450.637 395.955C452.305 400.88 454.552 406.187 457.703 410.387C457.703 413.506 457.616 416.624 457.442 419.742C456.952 428.055 455.532 436.266 454.896 444.527C454.89 444.578 454.904 444.629 454.936 444.669C454.968 444.709 455.014 444.734 455.064 444.74C455.115 444.746 455.166 444.732 455.206 444.7C455.246 444.668 455.272 444.622 455.278 444.572C456.956 436.121 458.055 427.567 458.569 418.967Z" fill="#3588D8"/>
<path opacity="0.4" d="M449.746 354.85C449.746 354.793 449.631 354.85 449.651 354.895C451.172 359.095 452.031 363.347 453.133 367.649C453.144 367.687 453.168 367.719 453.201 367.74C453.233 367.761 453.273 367.769 453.311 367.762C453.35 367.756 453.385 367.736 453.409 367.706C453.434 367.676 453.446 367.637 453.445 367.599C452.999 363.233 451.439 358.879 449.746 354.85Z" fill="#3588D8"/>
<path d="M488.368 372.46C487.353 374.921 486.186 377.318 484.874 379.635C482.13 384.598 479.278 389.168 478.756 394.932C478.527 397.512 478.444 400.105 477.655 402.558C476.94 404.698 475.91 406.72 474.599 408.557C471.632 412.872 467.921 416.596 465.171 421.077C462.307 425.747 460.191 430.835 458.901 436.158C458.837 436.45 458.379 436.367 458.442 436.081C458.445 436.058 458.445 436.035 458.442 436.011C458.438 436.002 458.436 435.993 458.436 435.983C458.436 435.973 458.438 435.963 458.442 435.954C458.003 423.555 458.996 411.061 462.784 399.183C464.455 393.965 466.463 388.86 468.793 383.899C470.824 379.597 473.351 375.453 476.916 372.238C479.227 370.159 484.237 366.219 487.528 368.304C489.126 369.321 488.992 370.903 488.368 372.46Z" fill="#B7DBFF"/>
<path opacity="0.4" d="M475.891 400.557C473.699 404.154 471.288 407.614 468.672 410.916C467.468 412.479 466.253 414.036 465.049 415.606C464.483 416.343 463.846 417.081 463.324 417.881C463.655 416.578 463.961 415.269 464.305 413.966C465.909 407.707 467.449 401.383 469.837 395.365C472.166 389.474 475.273 383.926 478.456 378.486C478.545 378.346 478.31 378.238 478.227 378.378C475.604 382.686 472.937 386.989 470.734 391.533C469.514 394.067 468.451 396.673 467.551 399.337C468.565 393.685 469.979 388.113 471.785 382.661C471.785 382.61 471.734 382.578 471.714 382.629C469.341 388.143 467.857 393.996 467.316 399.972C466.777 401.582 466.278 403.207 465.82 404.847C463.865 411.78 462.147 418.79 460.555 425.819C460.527 421.195 460.928 416.578 461.752 412.028C461.752 411.926 461.612 411.901 461.586 412.028C460.376 416.772 459.971 421.685 460.39 426.562C459.787 429.24 459.199 431.916 458.626 434.589C457.41 440.309 455.908 446.124 455.195 451.926C455.192 451.941 455.193 451.956 455.196 451.971C455.2 451.986 455.206 452 455.215 452.012C455.224 452.025 455.235 452.035 455.248 452.043C455.261 452.051 455.275 452.057 455.29 452.059C455.305 452.062 455.321 452.061 455.336 452.058C455.351 452.054 455.365 452.048 455.377 452.039C455.389 452.03 455.4 452.019 455.408 452.006C455.416 451.993 455.422 451.979 455.424 451.964C456.277 448.837 456.793 445.609 457.487 442.431C458.181 439.254 458.906 436.076 459.645 432.898C460.727 428.285 461.847 423.681 463.006 419.089C463.776 417.405 465.259 415.911 466.373 414.5C467.596 412.95 468.818 411.399 470.008 409.823C472.242 406.907 474.241 403.82 475.986 400.589C476.037 400.538 475.929 400.494 475.891 400.557Z" fill="#3588D8"/>
<path opacity="0.4" d="M476.393 395.257C473.682 398.741 471.336 402.493 469.391 406.454C469.391 406.505 469.442 406.562 469.473 406.512C471.848 402.794 474.184 399.044 476.559 395.327C476.565 395.263 476.463 395.199 476.393 395.257Z" fill="#3588D8"/>
<path d="M423.557 384.204C425.167 386.975 427.001 390.293 426.313 393.616C425.874 395.72 424.333 397.429 424.053 399.571C423.417 404.306 428.153 407.439 431.578 409.676C440.102 415.262 451.796 420.238 453.349 431.645C453.406 432.052 454.107 431.951 454.056 431.55C454.061 431.527 454.061 431.503 454.056 431.48C454.056 431.48 454.1 431.442 454.1 431.41C455.216 425.652 455.162 419.728 453.941 413.991C452.668 408.112 450.122 402.831 447.066 397.665C441.935 388.926 436.499 379.972 428.738 373.28C426.593 371.431 422.194 368.094 420.463 372.276C418.801 376.343 421.583 380.83 423.557 384.204Z" fill="#B7DBFF"/>
<path opacity="0.4" d="M431.362 402.736C437.015 408.844 446.004 412.269 450.867 419.114C447.984 408.628 443.228 399.19 435.876 390.998C435.843 390.956 435.828 390.903 435.832 390.849C435.835 390.796 435.858 390.746 435.896 390.708C435.934 390.67 435.985 390.647 436.038 390.643C436.092 390.639 436.145 390.655 436.188 390.687C441.394 395.736 445.557 401.756 448.442 408.405C447.098 403.763 445.332 399.253 443.165 394.932C443.153 394.9 443.152 394.865 443.164 394.833C443.175 394.8 443.198 394.773 443.228 394.756C443.257 394.738 443.292 394.732 443.326 394.737C443.36 394.743 443.391 394.76 443.413 394.786C446.1 399.51 448.019 404.631 449.098 409.956C455.515 425.45 456.1 443.638 454.763 459.958C454.763 460.193 454.388 460.2 454.394 459.958C454.763 447.089 454.553 433.991 451.466 421.421C451.402 421.154 451.326 420.899 451.262 420.639C445.966 413.267 437.015 409.835 431.26 402.844C431.197 402.768 431.299 402.667 431.362 402.736Z" fill="#3588D8"/>
<path opacity="0.4" d="M430.049 397.486C433.016 400.206 435.938 402.984 438.911 405.704C438.911 405.704 438.911 405.78 438.866 405.761C435.505 403.493 432.478 400.768 429.871 397.664C429.853 397.64 429.844 397.61 429.846 397.579C429.848 397.549 429.861 397.52 429.883 397.498C429.905 397.477 429.933 397.463 429.964 397.461C429.995 397.459 430.025 397.468 430.049 397.486Z" fill="#3588D8"/>
<path opacity="0.4" d="M429.578 385.71C432.215 390.008 435.195 394.086 438.49 397.906C438.494 397.911 438.498 397.916 438.5 397.923C438.503 397.929 438.504 397.936 438.503 397.943C438.503 397.95 438.501 397.956 438.499 397.962C438.496 397.969 438.492 397.974 438.487 397.979C438.482 397.983 438.476 397.987 438.469 397.989C438.463 397.991 438.456 397.992 438.449 397.992C438.443 397.992 438.436 397.99 438.43 397.987C438.424 397.985 438.418 397.98 438.413 397.975C434.718 394.481 431.673 390.361 429.418 385.805C429.412 385.785 429.413 385.763 429.42 385.743C429.428 385.723 429.442 385.706 429.46 385.695C429.479 385.684 429.5 385.68 429.522 385.682C429.543 385.685 429.563 385.695 429.578 385.71Z" fill="#3588D8"/>
<path d="M442.34 464.664C442.17 465.868 443.104 466.944 444.32 466.944H467.765C468.967 466.944 469.897 465.891 469.749 464.698L466.466 438.194C466.342 437.192 465.491 436.439 464.481 436.439H448.069C447.072 436.439 446.228 437.173 446.088 438.159L442.34 464.664Z" fill="#4991FF"/>
<path d="M79.6224 234.763C83.2642 230.739 85.4837 225.404 85.4837 219.553C85.4837 207.015 75.3013 196.85 62.7418 196.85C50.1824 196.85 40 207.015 40 219.553C40 232.091 50.1824 242.256 62.7418 242.256C65.6508 242.256 68.4282 241.705 70.9855 240.712L83.1932 245.686L79.6224 234.763Z" fill="white"/>
<path d="M52.5873 222.524C53.9288 222.524 55.0164 221.438 55.0164 220.099C55.0164 218.76 53.9288 217.674 52.5873 217.674C51.2457 217.674 50.1582 218.76 50.1582 220.099C50.1582 221.438 51.2457 222.524 52.5873 222.524Z" fill="#FF7300"/>
<path d="M62.7416 222.524C64.0831 222.524 65.1707 221.438 65.1707 220.099C65.1707 218.76 64.0831 217.674 62.7416 217.674C61.4 217.674 60.3125 218.76 60.3125 220.099C60.3125 221.438 61.4 222.524 62.7416 222.524Z" fill="#FF7300"/>
<path d="M72.8959 222.524C74.2374 222.524 75.325 221.438 75.325 220.099C75.325 218.76 74.2374 217.674 72.8959 217.674C71.5543 217.674 70.4668 218.76 70.4668 220.099C70.4668 221.438 71.5543 222.524 72.8959 222.524Z" fill="#FF7300"/>
<g filter="url(#filter0_d_15137_38284)">
<path d="M192.285 98.8084C192.285 92.2991 192.285 89.0445 190.263 87.0223C188.241 85.0001 184.986 85.0001 178.477 85.0001H88.1844C81.6752 85.0001 78.4205 85.0001 76.3984 87.0223C74.3762 89.0445 74.3762 92.2991 74.3762 98.8083V123.708C74.3762 130.217 74.3762 133.472 76.3984 135.494C78.4205 137.516 81.6752 137.516 88.1844 137.516H157.119C159.364 137.516 160.486 137.516 161.535 137.86C162.583 138.203 163.487 138.868 165.296 140.198L178.101 149.608L178.53 143.612C178.787 140.009 181.786 137.217 185.399 137.217C189.202 137.217 192.285 134.134 192.285 130.331V98.8084Z" fill="white"/>
</g>
<ellipse cx="16.8441" cy="16.8156" rx="16.8441" ry="16.8156" transform="matrix(-1 0 0 1 182.531 93.8496)" fill="white" fill-opacity="0.8" stroke="#EBEFF2" stroke-width="0.863014" stroke-linecap="round"/>
<path opacity="0.15" d="M164.955 110.255C165.044 110.246 165.15 110.246 165.248 110.255C167.358 110.184 169.033 108.458 169.033 106.334C169.033 104.166 167.278 102.404 165.097 102.404C162.925 102.404 161.161 104.166 161.161 106.334C161.17 108.458 162.845 110.184 164.955 110.255Z" fill="#FF7300"/>
<path d="M169.387 113.521C171.532 114.955 171.532 117.292 169.387 118.716C166.949 120.345 162.951 120.345 160.513 118.716C158.367 117.283 158.367 114.946 160.513 113.521C162.942 111.902 166.94 111.902 169.387 113.521Z" stroke="#FF7300" stroke-width="1.29452" stroke-linecap="round" stroke-linejoin="round"/>
<path d="M142.99 100.957C142.99 99.024 141.486 97.457 139.632 97.457H85.3489C83.494 97.457 81.9902 99.024 81.9902 100.957C81.9902 102.89 83.494 104.457 85.3489 104.457H139.632C141.486 104.457 142.99 102.89 142.99 100.957Z" fill="#EBEFF2"/>
<path d="M142.99 110.457C142.99 109.352 142.145 108.457 141.101 108.457H127.879C126.836 108.457 125.99 109.352 125.99 110.457C125.99 111.562 126.836 112.457 127.879 112.457H141.101C142.145 112.457 142.99 111.562 142.99 110.457Z" fill="#EBEFF2"/>
<path d="M121.99 110.457C121.99 109.352 121.153 108.457 120.119 108.457H94.8612C93.8279 108.457 92.9902 109.352 92.9902 110.457C92.9902 111.562 93.8279 112.457 94.8612 112.457H120.119C121.153 112.457 121.99 111.562 121.99 110.457Z" fill="#EBEFF2"/>
<path d="M142.99 119.457C142.99 118.352 142.156 117.457 141.126 117.457H89.8546C88.825 117.457 87.9902 118.352 87.9902 119.457C87.9902 120.562 88.825 121.457 89.8546 121.457H141.126C142.156 121.457 142.99 120.562 142.99 119.457Z" fill="#EBEFF2"/>
<g filter="url(#filter1_d_15137_38284)">
<path d="M543.819 230H279.181C275.704 230 273 226.931 273 222.986V45.0137C273 41.0685 275.704 38 279.181 38H543.819C547.296 38 550 41.0685 550 45.0137V222.986C550 226.931 547.296 230 543.819 230Z" fill="white"/>
</g>
<path d="M549.807 63H273V46.8888C273 41.8888 275.704 38 279.181 38H543.819C547.296 38 550 41.8888 550 46.8888V63H549.807Z" fill="#C6E2FD"/>
<circle opacity="0.4" cx="290.186" cy="50.4551" r="3.81931" fill="#0061BF"/>
<circle opacity="0.4" cx="301.645" cy="50.4551" r="3.81931" fill="#0061BF"/>
<circle opacity="0.4" cx="313.101" cy="50.4551" r="3.81931" fill="#0061BF"/>
<rect x="441.229" y="74" width="71.4701" height="8.02287" rx="4.01144" fill="#EBEFF2"/>
<rect x="441.229" y="89.3174" width="91.7742" height="3.64676" rx="1.82338" fill="#EBEFF2"/>
<rect x="441.229" y="98.0684" width="47.1053" height="3.64676" rx="1.82338" fill="#EBEFF2"/>
<rect x="419.22" y="75.1247" width="14.1654" height="13.7963" rx="2.24949" stroke="#EBEFF2" stroke-width="2.24949"/>
<rect x="441.229" y="119.95" width="71.4701" height="8.02287" rx="4.01144" fill="#EBEFF2"/>
<rect x="441.229" y="135.268" width="91.7742" height="3.64676" rx="1.82338" fill="#EBEFF2"/>
<rect x="441.229" y="144.019" width="47.1053" height="3.64676" rx="1.82338" fill="#EBEFF2"/>
<rect x="419.22" y="121.075" width="14.1654" height="13.7963" rx="2.24949" stroke="#EBEFF2" stroke-width="2.24949"/>
<rect x="289" y="74" width="116" height="70" rx="12.7222" fill="#F2F5F6"/>
<path d="M350.615 114.229H352.188C355.334 114.229 357.917 111.656 357.917 108.5C357.917 105.354 355.344 102.771 352.188 102.771H350.615" stroke="#FF7300" stroke-width="2" stroke-linecap="round" stroke-linejoin="round"/>
<path d="M344.376 102.771H342.813C339.657 102.771 337.084 105.343 337.084 108.5C337.084 111.646 339.657 114.229 342.813 114.229H344.376" stroke="#0061BF" stroke-width="2" stroke-linecap="round" stroke-linejoin="round"/>
<path d="M343.334 108.5H351.667" stroke="#0061BF" stroke-width="2" stroke-linecap="round" stroke-linejoin="round"/>
<rect x="293" y="157" width="139" height="9" rx="4.5" fill="#F2F5F6"/>
<rect x="293" y="174" width="101" height="5" rx="2.5" fill="#F2F5F6"/>
<rect x="293" y="187" width="126" height="8" rx="4" fill="#F2F5F6"/>
<rect x="293" y="204" width="118" height="5" rx="2.5" fill="#F2F5F6"/>
<path d="M323 319H412C413.105 319 414 318.105 414 317V226" stroke="#A9CBF7" stroke-width="1.5" stroke-linecap="round" stroke-linejoin="round" stroke-dasharray="6 6"/>
<path d="M379.846 385.098C378.012 412.321 362.759 439.526 337.755 454.497C307.951 472.346 266.277 468.394 232.337 470.669C202.994 472.636 173.428 474.323 144.076 471.514C120.026 469.207 95.7679 460.635 84.2813 439.628C72.7709 418.572 71.5244 390.598 83.0349 369.29C86.7027 362.489 91.614 356.444 97.3931 351.172C98.3324 350.308 99.3105 349.461 100.301 348.637C100.971 348.082 101.648 347.532 102.343 346.995C103.402 346.169 104.49 345.366 105.594 344.58C105.96 344.326 106.324 344.071 106.697 343.816C107.064 343.561 107.436 343.311 107.809 343.065C108.182 342.818 108.555 342.568 108.933 342.327C109.217 342.144 109.5 341.965 109.783 341.782C110.254 341.479 110.728 341.184 111.215 340.897C115.503 338.294 120.017 336.009 124.678 334.042C129.211 332.116 133.878 330.492 138.574 329.181C154.015 324.866 166.286 392.446 182.218 390.563C216.025 386.571 281.906 399.038 315.981 399.057C343.788 399.065 322.227 283.145 366.084 341.348C376.581 353.472 380.899 369.59 379.846 385.098Z" fill="#EBEFF2"/>
<path d="M347.553 316.624C347.553 316.624 355.092 309.555 359.088 305.462C363.085 301.369 354.367 301.238 350.07 306.339C345.773 311.436 347.553 316.624 347.553 316.624Z" fill="#F9B384"/>
<path d="M170.124 348.008C148.283 339.515 133.121 330.484 124.32 324.473C118.615 320.574 115.728 313.702 116.897 306.899L128.159 241.361C129.319 234.615 133.798 228.882 140.099 226.185C158.166 218.449 175.76 214.031 191.282 211.887C191.282 211.887 199.977 211.187 211.067 212.279C218.364 212.998 235.074 217.911 245.694 221.206C251.693 223.068 256.511 227.552 258.784 233.401C263.238 244.86 270.472 264.211 272.779 274.669C280.747 310.786 279.44 308.113 279.44 308.113L287.668 363.657L200.294 368.544L177.96 358.375L170.124 348.008Z" fill="url(#paint2_linear_15137_38284)"/>
<path d="M224.195 149.498C224.195 149.498 216.455 133.658 195.887 140.892C180.998 137.666 169.635 155.268 180.606 179.225L201.275 184.016L224.195 149.498Z" fill="#292466"/>
<path d="M213.223 194.285V222.307C213.223 228.863 207.895 234.182 201.328 234.182C192.426 234.182 185.207 226.976 185.207 218.092V194.285H213.223Z" fill="#FFC6AD"/>
<path opacity="0.4" d="M213.223 205.909V221.195C200.742 221.258 192.457 205.143 192.457 205.143L213.223 205.909Z" fill="#E28B6D"/>
<path d="M225.574 190.756C224.822 194.636 223.747 198.61 222.205 202.109C219.509 208.248 215.396 212.926 209.109 213.061C194.398 213.374 183.055 193.309 183.055 193.309L185.406 165.929L196.571 153.412L227.326 172.381C227.33 172.381 227.414 181.284 225.574 190.756Z" fill="#FFC6AD"/>
<g opacity="0.25">
<path d="M131.233 240.349L127.588 235.632L124.372 237.669C122.979 236.49 121.478 235.632 119.763 235.096L119.87 231.344L113.867 230.594L113.116 234.346C111.401 234.56 109.686 234.989 108.078 235.739L105.505 232.952L100.788 236.597L102.825 239.813C101.646 241.207 100.788 242.707 100.252 244.423L96.5004 244.315L95.75 250.319L99.502 251.069C99.7164 252.784 100.145 254.499 100.896 256.107L98.1084 258.68L101.753 263.397L104.969 261.36C106.363 262.539 107.864 263.397 109.579 263.933L109.472 267.685L115.475 268.435L116.225 264.683C117.94 264.469 119.656 264.04 121.264 263.29L123.836 266.077L128.553 262.432L126.516 259.216C127.696 257.823 128.553 256.322 129.089 254.607L132.841 254.714L133.592 248.711L129.84 247.96C129.625 246.245 129.196 244.53 128.446 242.922L131.233 240.349ZM120.406 256.858C116.225 260.074 110.329 259.323 107.113 255.143C103.897 250.962 104.648 245.066 108.828 241.85C113.009 238.634 118.905 239.384 122.121 243.565C125.23 247.746 124.48 253.749 120.406 256.858Z" fill="url(#paint3_linear_15137_38284)"/>
<path d="M131.77 202.186L129.09 196.826L125.552 198.219C124.373 196.826 123.086 195.646 121.586 194.682L122.55 190.93L116.869 189L115.368 192.538C113.653 192.323 111.83 192.43 110.115 192.859L108.186 189.643L102.826 192.323L104.219 195.861C102.826 196.933 101.646 198.326 100.682 199.827L96.9296 198.862L95 204.544L98.5376 206.045C98.3232 207.76 98.4304 209.582 98.8592 211.298L95.6432 213.227L98.3232 218.587L101.861 217.194C102.933 218.587 104.326 219.766 105.827 220.731L104.862 224.483L110.544 226.413L112.045 222.875C113.76 223.09 115.582 222.982 117.298 222.554L119.227 225.77L124.587 223.09L123.194 219.552C124.587 218.373 125.766 217.086 126.731 215.586L130.483 216.55L132.413 210.869L128.875 209.368C129.09 207.653 128.982 205.83 128.554 204.115L131.77 202.186ZM117.726 216.229C113.01 218.587 107.328 216.55 104.97 211.834C102.611 207.117 104.648 201.435 109.365 199.077C114.082 196.718 119.763 198.755 122.122 203.472C124.373 208.296 122.443 213.978 117.726 216.229Z" fill="url(#paint4_linear_15137_38284)"/>
<path d="M171.111 210.976L165.322 206.58L162.214 210.011C160.177 209.153 158.14 208.617 155.996 208.403L154.924 203.9L147.742 204.972L147.956 209.582C146.026 210.332 144.097 211.404 142.489 212.798L138.522 210.332L134.127 216.121L137.558 219.23C136.7 221.16 136.164 223.304 135.95 225.448L131.447 226.52L132.519 233.702L137.129 233.488C137.879 235.417 138.951 237.347 140.345 238.955L137.879 242.921L143.668 247.316L146.777 243.886C148.706 244.744 150.85 245.28 152.994 245.494L154.066 249.996L161.249 248.924L161.034 244.315C162.964 243.564 164.894 242.492 166.502 241.099L170.468 243.564L174.863 237.776L171.433 234.667C172.29 232.63 172.826 230.593 173.041 228.449L177.543 227.377L176.471 220.195L171.862 220.409C171.111 218.48 170.039 216.55 168.646 214.942L171.111 210.976ZM163.822 233.916C160.07 238.955 152.78 240.027 147.742 236.275C142.703 232.523 141.631 225.233 145.383 220.195C149.135 215.156 156.425 214.084 161.463 217.836C166.609 221.588 167.681 228.771 163.822 233.916Z" fill="url(#paint5_linear_15137_38284)"/>
</g>
<path d="M184.916 185.29C184.916 185.29 187.953 172.968 198.532 164.951C198.532 164.951 213.91 184.996 230.172 175.315C246.434 165.633 239.381 146.564 224.198 149.499L206.763 147.543L184.919 154.487L181.195 171.6L184.916 185.29Z" fill="#292466"/>
<path d="M200.353 327.295C185.536 295.333 166.861 310.588 162.288 298.853C155.884 282.413 157.097 263.81 157.063 258.174L148.139 308.338C148.139 308.338 168.062 310.228 175.431 322.207L200.353 327.295Z" fill="#FBAF71"/>
<path d="M157.518 257.318C156.963 261.608 156.308 265.883 155.631 270.154C154.972 274.429 154.198 278.681 153.49 282.946C152.747 287.205 151.963 291.458 151.13 295.698L149.854 302.056C149.393 304.168 148.964 306.29 148.465 308.396L147.816 308.28C148.077 306.13 148.399 303.993 148.694 301.85L149.681 295.438C150.355 291.167 151.083 286.905 151.847 282.652C152.647 278.403 153.38 274.144 154.233 269.904C155.063 265.661 155.919 261.424 156.872 257.199L157.518 257.318Z" fill="#FBB072"/>
<path d="M244.086 249.385C245.271 254.958 246.368 260.55 247.44 266.142C248.531 271.733 249.515 277.341 250.556 282.942C251.549 288.55 252.524 294.16 253.471 299.777L254.838 308.211C255.261 311.027 255.712 313.84 256.101 316.662L255.499 316.769C254.888 313.984 254.339 311.19 253.759 308.401L252.123 300.015C251.067 294.417 250.039 288.816 249.029 283.211C248.07 277.598 247.051 271.993 246.139 266.373C245.208 260.753 244.302 255.13 243.484 249.491L244.086 249.385Z" fill="#FF8D30"/>
<path opacity="0.4" d="M248.226 275.252C249.27 285.422 247.703 338.096 223.15 338.878L223.411 350.353L262.068 348.006L248.226 275.252Z" fill="#FF8E32"/>
<path d="M197.747 337.446C215.181 330.014 218.516 330.29 220.864 330.406C228.894 330.797 240.455 346.834 240.455 346.834L240.26 349.769H196.18L197.747 337.446Z" fill="#E28B6D"/>
<path d="M264.811 346.898H210.547V355.113H264.811V346.898Z" fill="#051F39"/>
<path d="M338.604 355.119H244.309L264.706 274.019C265.153 272.241 266.752 270.994 268.585 270.994H354.631C357.236 270.994 359.146 273.444 358.51 275.97L338.604 355.119Z" fill="#051F39"/>
<path d="M348.939 339.402C348.35 343.363 348.155 349.18 335.862 348.448L332.238 346.589L335.667 342.825L343.062 339.061L348.939 339.402Z" fill="#F9B384"/>
<path d="M350.099 328.709C350.099 328.709 356.826 337.483 350.068 340.184C342.721 343.119 335.668 342.825 335.668 342.825C338.802 334.025 348.99 334.611 348.99 334.611L350.099 328.709Z" fill="#F9B384"/>
<path d="M350.293 323.041C350.293 323.041 359.564 331.646 350.944 334.059C338.77 337.467 335.012 337.711 335.012 337.711C334.36 331.258 346.44 327.084 346.44 327.084L350.293 323.041Z" fill="#F9B384"/>
<path d="M348.4 315.543C348.4 315.543 361.07 323.235 349.184 327.537C337.298 331.84 334.489 331.774 334.489 331.774C333.837 325.322 346.569 323.103 346.569 323.103L348.4 315.543Z" fill="#F9B384"/>
<path d="M201.861 466.135C203.297 465.353 226.022 470.306 251.23 451.662L218.709 442.406L201.861 466.135Z" fill="#102048"/>
<path d="M220.277 365.609C220.277 365.609 293.546 330.797 317.447 332.362C341.347 333.926 340.564 363.654 331.552 376.562C322.54 389.47 301.383 406.68 223.412 401.595L220.277 365.609Z" fill="#264B89"/>
<path d="M256.941 509.255C252.976 510.372 247.349 510.647 239.607 509.417C239.607 509.417 229.577 512.015 219.703 514.058C213.017 515.441 206.413 516.567 203.034 516.458C202.745 516.452 202.454 516.436 202.156 516.411C195.677 515.951 187.512 512.578 183.177 507.759C183.171 507.743 183.161 507.728 183.145 507.721C181.954 506.391 181.052 504.946 180.566 503.428C178.215 496.121 183.183 487.256 210.083 489.081C210.083 489.081 218.963 487 221.054 480.475C223.145 473.96 207.732 442.668 207.732 442.668L229.674 427.805L251.224 451.665C251.224 451.665 254.49 473.178 254.49 480.219C254.49 480.219 263.627 493.261 264.937 498.994C265.78 502.652 263.947 507.274 256.941 509.255Z" fill="#FFB156"/>
<path d="M133.576 311.127C136.09 310.16 138.651 309.381 141.24 308.665C142.535 308.311 143.842 307.979 145.168 307.72C145.832 307.585 146.5 307.472 147.18 307.379C147.522 307.332 147.86 307.297 148.217 307.269C148.594 307.25 148.963 307.253 149.315 307.291C152.129 307.585 154.681 308.468 157.217 309.403C159.737 310.364 162.207 311.437 164.63 312.598C167.062 313.746 169.425 315.023 171.754 316.366C174.08 317.708 176.368 319.116 178.594 320.624C183.014 323.669 187.267 327.014 190.928 330.957L190.464 331.423C188.496 329.643 186.443 327.962 184.311 326.388C182.195 324.793 180.004 323.297 177.766 321.876C173.325 318.978 168.661 316.431 163.912 314.081C161.536 312.908 159.116 311.822 156.662 310.855C154.207 309.938 151.694 308.956 149.192 308.618C148.879 308.574 148.581 308.565 148.293 308.565C147.982 308.58 147.656 308.605 147.337 308.64C146.691 308.712 146.042 308.802 145.393 308.915C144.096 309.14 142.798 309.403 141.5 309.694C138.914 310.282 136.335 310.968 133.802 311.75L133.576 311.127Z" fill="#FBB072"/>
<path d="M147.008 387.905C137.996 373.432 137.996 344.878 149.359 331.97C162.345 317.219 190.107 311.63 204.604 328.841C219.102 346.052 245.745 409.027 251.23 451.662C251.23 451.662 221.844 441.883 201.862 466.135C201.862 466.135 175.61 406.289 170.125 384.384L155.236 396.119L147.008 387.905Z" fill="#3A67B3"/>
<path d="M170.123 384.385C170.123 384.385 166.205 382.952 160.72 386.6C160.72 386.6 117.881 385.687 108.349 395.337C98.8134 404.984 106.129 417.892 120.103 419.329C131.832 420.533 154.601 411.449 161.616 408.498C163.043 407.898 164.557 407.538 166.099 407.438L177.699 406.68L170.123 384.385Z" fill="#FFB156"/>
<path d="M187.234 186.088C187.234 186.088 184.359 176.582 178.04 178.96C171.718 181.335 175.084 193.711 187.563 197.153L187.234 186.088Z" fill="#FFC6AD"/>
<path opacity="0.2" d="M180.5 238.506C183.619 240.703 186.945 242.593 190.471 243.932C193.994 245.25 197.712 246.085 201.442 245.998C205.163 245.954 208.846 245.037 212.171 243.338L213.422 242.702C213.833 242.477 214.209 242.192 214.604 241.942C215.384 241.423 216.193 240.931 216.889 240.293L217.989 239.401L218.541 238.954C218.719 238.8 218.879 238.622 219.048 238.459C219.716 237.79 220.396 237.123 221.086 236.463L221.553 236.857C220.935 237.602 220.309 238.34 219.669 239.076C219.509 239.257 219.359 239.451 219.186 239.623L218.657 240.124L217.591 241.129C216.898 241.823 216.086 242.374 215.296 242.956C214.895 243.238 214.516 243.554 214.096 243.81L212.814 244.542C209.379 246.476 205.417 247.521 201.458 247.543C197.499 247.553 193.571 246.695 189.976 245.153C186.371 243.626 183.052 241.507 180.121 238.985L180.5 238.506Z" fill="#292466"/>
<path d="M221.677 187.2C221.402 188.549 220.383 189.481 219.402 189.281C218.421 189.081 217.85 187.826 218.126 186.477C218.402 185.128 219.421 184.196 220.402 184.396C221.38 184.596 221.95 185.851 221.677 187.2Z" fill="#292466"/>
<path d="M206.408 186.589C206.63 185.23 206.009 183.997 205.022 183.837C204.034 183.676 203.054 184.648 202.832 186.007C202.61 187.367 203.23 188.599 204.218 188.76C205.205 188.92 206.186 187.949 206.408 186.589Z" fill="#292466"/>
<path d="M212.889 188.445C212.983 189.556 213.027 190.66 213.04 191.743C213.084 192.156 213.278 192.51 213.623 192.888C213.958 193.261 214.388 193.652 214.761 194.196C214.949 194.466 215.093 194.807 215.165 195.145C215.243 195.479 215.253 195.814 215.231 196.14C215.174 196.791 214.946 197.432 214.51 197.958C214.297 198.224 214.015 198.44 213.704 198.599C213.385 198.737 213.037 198.825 212.704 198.809C212.034 198.781 211.46 198.521 210.98 198.186L211.197 197.782C211.705 197.948 212.212 198.074 212.657 197.989C213.103 197.926 213.454 197.692 213.692 197.326C214.171 196.612 214.24 195.495 213.78 194.832C213.538 194.447 213.137 194.084 212.758 193.605C212.375 193.154 212.009 192.472 212.034 191.762C212.118 190.626 212.253 189.512 212.429 188.404L212.889 188.445Z" fill="#292466"/>
<path d="M200.256 181.893C200.88 181.271 201.622 180.754 202.456 180.385C203.287 180.013 204.227 179.806 205.183 179.866C206.139 179.922 207.077 180.276 207.823 180.829C208.575 181.38 209.155 182.097 209.584 182.866L209.221 183.148C208.572 182.597 207.948 182.081 207.265 181.696C206.584 181.314 205.854 181.08 205.102 181.03C203.582 180.914 202.036 181.518 200.525 182.266L200.256 181.893Z" fill="#292466"/>
<path d="M216.201 183.234C216.461 182.401 217.154 181.744 217.919 181.353C218.69 180.949 219.558 180.78 220.42 180.796C221.279 180.815 222.144 181.037 222.893 181.475C223.642 181.907 224.263 182.57 224.586 183.34L224.2 183.59C223.135 182.52 221.796 182.01 220.389 181.963C219.003 181.932 217.533 182.314 216.615 183.437L216.201 183.234Z" fill="#292466"/>
<path opacity="0.2" d="M15.4704 372.552H11.8256V368.907C11.8256 368.157 11.1824 367.514 10.432 367.514C9.6816 367.514 9.0384 368.157 9.0384 368.907V372.552H5.3936C4.6432 372.552 4 373.195 4 373.946C4 374.696 4.6432 375.339 5.3936 375.339H9.0384V378.984C9.0384 379.734 9.6816 380.378 10.432 380.378C11.1824 380.378 11.8256 379.734 11.8256 378.984V375.339H15.4704C16.2208 375.339 16.864 374.696 16.864 373.946C16.864 373.195 16.2208 372.552 15.4704 372.552Z" fill="#0061BF"/>
<g opacity="0.2">
<path d="M23.2969 348.325C23.2969 351.755 26.0841 354.65 29.6217 354.65C33.0521 354.65 35.9465 351.862 35.9465 348.325C35.9465 344.894 33.1593 342 29.6217 342C26.1913 342 23.2969 344.787 23.2969 348.325ZM25.7625 348.325C25.7625 346.181 27.4777 344.466 29.6217 344.466C31.7657 344.466 33.4809 346.181 33.4809 348.325C33.4809 350.469 31.7657 352.184 29.6217 352.184C27.4777 352.184 25.7625 350.469 25.7625 348.325Z" fill="#FF7300"/>
<path d="M23.2969 348.325C23.2969 351.755 26.0841 354.65 29.6217 354.65C33.0521 354.65 35.9465 351.862 35.9465 348.325C35.9465 344.894 33.1593 342 29.6217 342C26.1913 342 23.2969 344.787 23.2969 348.325ZM25.7625 348.325C25.7625 346.181 27.4777 344.466 29.6217 344.466C31.7657 344.466 33.4809 346.181 33.4809 348.325C33.4809 350.469 31.7657 352.184 29.6217 352.184C27.4777 352.184 25.7625 350.469 25.7625 348.325Z" fill="#FF7300"/>
</g>
<g opacity="0.2">
<path d="M30.1568 372.336C29.2992 372.336 28.5488 373.086 28.5488 373.944C28.5488 374.802 29.2992 375.552 30.1568 375.552H46.0224C46.88 375.552 47.6304 374.909 47.6304 373.944C47.6304 373.086 46.88 372.336 46.0224 372.336H30.1568Z" fill="#0061BF"/>
</g>
<g opacity="0.2">
<path d="M52.776 372.336C51.9184 372.336 51.168 373.086 51.168 373.944C51.168 374.802 51.9184 375.552 52.776 375.552H55.6704C56.528 375.552 57.2784 374.909 57.2784 373.944C57.2784 373.086 56.528 372.336 55.6704 372.336H52.776Z" fill="#0061BF"/>
</g>
<path d="M35.608 296C34.7504 296 34 296.75 34 297.608C34 298.466 34.7504 299.216 35.608 299.216H51.4736C52.3312 299.216 53.0816 298.573 53.0816 297.608C53.0816 296.75 52.3312 296 51.4736 296H35.608Z" fill="#A9CBF7"/>
<path d="M58.3346 296C57.477 296 56.7266 296.75 56.7266 297.608C56.7266 298.466 57.477 299.216 58.3346 299.216H61.229C62.0866 299.216 62.837 298.573 62.837 297.608C62.837 296.75 62.0866 296 61.229 296H58.3346Z" fill="#A9CBF7"/>
<defs>
<filter id="filter0_d_15137_38284" x="39.8564" y="63.4247" width="186.949" height="133.649" filterUnits="userSpaceOnUse" color-interpolation-filters="sRGB">
<feFlood flood-opacity="0" result="BackgroundImageFix"/>
<feColorMatrix in="SourceAlpha" type="matrix" values="0 0 0 0 0 0 0 0 0 0 0 0 0 0 0 0 0 0 127 0" result="hardAlpha"/>
<feOffset dy="12.9452"/>
<feGaussianBlur stdDeviation="17.2603"/>
<feComposite in2="hardAlpha" operator="out"/>
<feColorMatrix type="matrix" values="0 0 0 0 0.117647 0 0 0 0 0.129412 0 0 0 0 0.176471 0 0 0 0.08 0"/>
<feBlend mode="normal" in2="BackgroundImageFix" result="effect1_dropShadow_15137_38284"/>
<feBlend mode="normal" in="SourceGraphic" in2="effect1_dropShadow_15137_38284" result="shape"/>
</filter>
<filter id="filter1_d_15137_38284" x="212.608" y="0.25498" width="397.784" height="312.784" filterUnits="userSpaceOnUse" color-interpolation-filters="sRGB">
<feFlood flood-opacity="0" result="BackgroundImageFix"/>
<feColorMatrix in="SourceAlpha" type="matrix" values="0 0 0 0 0 0 0 0 0 0 0 0 0 0 0 0 0 0 127 0" result="hardAlpha"/>
<feOffset dy="22.647"/>
<feGaussianBlur stdDeviation="30.196"/>
<feComposite in2="hardAlpha" operator="out"/>
<feColorMatrix type="matrix" values="0 0 0 0 0.117647 0 0 0 0 0.129412 0 0 0 0 0.176471 0 0 0 0.05 0"/>
<feBlend mode="normal" in2="BackgroundImageFix" result="effect1_dropShadow_15137_38284"/>
<feBlend mode="normal" in="SourceGraphic" in2="effect1_dropShadow_15137_38284" result="shape"/>
</filter>
<linearGradient id="paint0_linear_15137_38284" x1="490.269" y1="-35.5605" x2="41.5" y2="503" gradientUnits="userSpaceOnUse">
<stop stop-color="#FFECE2"/>
<stop offset="1" stop-color="#FFF1EA" stop-opacity="0"/>
</linearGradient>
<linearGradient id="paint1_linear_15137_38284" x1="72.7195" y1="144.137" x2="31.7073" y2="4.83719" gradientUnits="userSpaceOnUse">
<stop stop-color="#FF7300" stop-opacity="0.45"/>
<stop offset="1" stop-color="#FF7300" stop-opacity="0"/>
</linearGradient>
<linearGradient id="paint2_linear_15137_38284" x1="287.609" y1="290.22" x2="116.487" y2="290.22" gradientUnits="userSpaceOnUse">
<stop stop-color="#FAB882"/>
<stop offset="1" stop-color="#FF7300" stop-opacity="0.8"/>
</linearGradient>
<linearGradient id="paint3_linear_15137_38284" x1="114.671" y1="230.594" x2="114.671" y2="268.435" gradientUnits="userSpaceOnUse">
<stop stop-color="#FFAB6B"/>
<stop offset="1" stop-color="#FFD7B9" stop-opacity="0"/>
</linearGradient>
<linearGradient id="paint4_linear_15137_38284" x1="113.706" y1="189" x2="113.706" y2="226.413" gradientUnits="userSpaceOnUse">
<stop stop-color="#FFAB6B"/>
<stop offset="1" stop-color="#FFD7B9" stop-opacity="0"/>
</linearGradient>
<linearGradient id="paint5_linear_15137_38284" x1="154.495" y1="203.9" x2="154.495" y2="249.996" gradientUnits="userSpaceOnUse">
<stop stop-color="#FFAB6B"/>
<stop offset="1" stop-color="#FFD7B9" stop-opacity="0"/>
</linearGradient>
</defs>
</svg>
