<svg width="606" height="509" viewBox="0 0 606 509" fill="none" xmlns="http://www.w3.org/2000/svg">
<ellipse cx="254" cy="251.5" rx="254" ry="251.5" transform="matrix(-1 0 0 1 583 6)" fill="url(#paint0_linear_15171_28483)"/>
<path opacity="0.2" d="M561.736 63.0098H563.24C563.24 67.4132 566.802 70.9819 571.194 70.9819V72.49C566.801 72.49 563.24 76.0596 563.24 80.4631H561.736C561.736 76.0596 558.174 72.49 553.781 72.49V70.9819C558.174 70.9819 561.736 67.4123 561.736 63.0098Z" fill="url(#paint1_linear_15171_28483)"/>
<path d="M547.869 40.707H548.246C548.246 45.1105 551.807 48.6801 556.199 48.6801V49.0574C551.806 49.0574 548.245 52.627 548.245 57.0305H547.869C547.869 52.627 544.307 49.0574 539.914 49.0574V48.6801C544.308 48.6801 547.869 45.1105 547.869 40.707Z" fill="url(#paint2_linear_15171_28483)"/>
<path opacity="0.2" d="M535.696 90.332C535.696 94.5923 539.141 98.0459 543.392 98.0459C539.141 98.0459 535.696 101.499 535.696 105.76C535.696 101.499 532.25 98.0459 528 98.0459C532.25 98.0449 535.696 94.5923 535.696 90.332Z" fill="url(#paint3_linear_15171_28483)"/>
<path opacity="0.2" d="M495.52 428.635L496.272 429.938C492.459 432.14 491.149 437.008 493.345 440.812L492.039 441.566C489.842 437.761 484.971 436.463 481.157 438.665L480.405 437.361C484.219 435.16 485.529 430.291 483.333 426.486L484.639 425.732C486.836 429.537 491.707 430.836 495.52 428.635Z" fill="url(#paint4_linear_15171_28483)"/>
<path d="M507.902 405.476L508.09 405.801C504.276 408.003 502.965 412.872 505.162 416.676L504.835 416.865C502.638 413.06 497.766 411.761 493.953 413.962L493.765 413.636C497.578 411.435 498.889 406.566 496.692 402.761L497.019 402.572C499.216 406.378 504.088 407.677 507.902 405.476Z" fill="url(#paint5_linear_15171_28483)"/>
<path opacity="0.2" d="M458.838 419.745C455.149 421.875 453.88 426.586 456.006 430.266C453.88 426.586 449.167 425.329 445.477 427.459C449.167 425.329 450.435 420.618 448.31 416.937C450.436 420.617 455.149 421.875 458.838 419.745Z" fill="url(#paint6_linear_15171_28483)"/>
<path d="M230 356.707L230 379.707" stroke="#A9CBF7" stroke-width="1.5" stroke-linecap="round" stroke-linejoin="round" stroke-dasharray="6 6"/>
<path d="M229.5 413.707V422.207C229.5 423.312 230.395 424.207 231.5 424.207H269.5" stroke="#A9CBF7" stroke-width="1.5" stroke-linecap="round" stroke-linejoin="round" stroke-dasharray="6 6"/>
<g filter="url(#filter0_d_15171_28483)">
<rect x="270" y="375.707" width="147" height="79" rx="13.1512" fill="white"/>
</g>
<rect x="311.92" y="389.68" width="86.3047" height="8.21949" rx="4.10975" fill="#EDF1F4"/>
<rect x="311.92" y="405.297" width="56.7145" height="4.10975" rx="2.05487" fill="#EDF1F4"/>
<circle cx="296.303" cy="399.543" r="9.86339" fill="#EDF1F4"/>
<g clip-path="url(#clip0_15171_28483)">
<path d="M294.468 404.591C293.878 404.591 293.302 404.416 292.811 404.089C292.321 403.761 291.939 403.296 291.713 402.751C291.488 402.207 291.429 401.607 291.544 401.029C291.659 400.451 291.943 399.92 292.36 399.503L294.031 397.83L294.903 398.701L293.232 400.374C293.07 400.537 292.941 400.729 292.853 400.942C292.765 401.154 292.72 401.381 292.72 401.611C292.72 401.84 292.765 402.067 292.853 402.279C292.941 402.491 293.07 402.684 293.232 402.846C293.395 403.009 293.587 403.137 293.8 403.225C294.012 403.313 294.239 403.358 294.468 403.358C294.698 403.358 294.925 403.313 295.137 403.225C295.349 403.137 295.542 403.008 295.704 402.846L297.376 401.174L298.248 402.046L296.576 403.718C296.3 403.995 295.971 404.215 295.609 404.365C295.247 404.514 294.859 404.591 294.468 404.591Z" fill="#889FB7"/>
<path d="M298.804 401.488L297.933 400.617L299.605 398.945C299.93 398.616 300.112 398.173 300.111 397.71C300.11 397.248 299.926 396.805 299.599 396.478C299.273 396.151 298.83 395.967 298.367 395.966C297.905 395.965 297.461 396.147 297.133 396.472L295.46 398.144L294.588 397.272L296.261 395.6C296.821 395.047 297.578 394.738 298.365 394.74C299.153 394.743 299.907 395.057 300.464 395.614C301.02 396.171 301.334 396.925 301.337 397.712C301.339 398.5 301.03 399.256 300.476 399.816L298.804 401.488Z" fill="#889FB7"/>
<path d="M297.375 397.83L294.588 400.617L295.46 401.489L298.247 398.702L297.375 397.83Z" fill="#889FB7"/>
</g>
<rect x="311.92" y="421.406" width="86.3047" height="8.21949" rx="4.10975" fill="#EDF1F4"/>
<rect x="311.92" y="437.023" width="56.7145" height="4.10975" rx="2.05487" fill="#EDF1F4"/>
<circle cx="296.303" cy="431.27" r="9.86339" fill="#EDF1F4"/>
<g clip-path="url(#clip1_15171_28483)">
<path d="M294.411 436.259C293.822 436.259 293.245 436.084 292.755 435.757C292.264 435.429 291.882 434.964 291.657 434.419C291.431 433.874 291.372 433.275 291.487 432.697C291.602 432.119 291.886 431.587 292.303 431.171L293.975 429.498L294.847 430.369L293.175 432.042C293.013 432.205 292.884 432.397 292.797 432.61C292.709 432.822 292.664 433.049 292.664 433.278C292.664 433.508 292.709 433.735 292.797 433.947C292.885 434.159 293.013 434.352 293.176 434.514C293.338 434.677 293.531 434.805 293.743 434.893C293.955 434.981 294.182 435.026 294.412 435.026C294.641 435.026 294.869 434.981 295.081 434.893C295.293 434.805 295.485 434.676 295.648 434.514L297.32 432.842L298.191 433.714L296.519 435.386C296.243 435.663 295.914 435.883 295.552 436.033C295.191 436.182 294.803 436.259 294.411 436.259Z" fill="#889FB7"/>
<path d="M298.748 433.156L297.876 432.285L299.548 430.613C299.873 430.284 300.056 429.841 300.055 429.378C300.054 428.916 299.87 428.473 299.543 428.146C299.216 427.819 298.773 427.635 298.311 427.634C297.848 427.633 297.404 427.815 297.076 428.14L295.403 429.812L294.531 428.94L296.204 427.268C296.765 426.715 297.521 426.406 298.309 426.408C299.096 426.411 299.85 426.725 300.407 427.282C300.964 427.839 301.278 428.593 301.28 429.38C301.282 430.168 300.973 430.924 300.42 431.484L298.748 433.156Z" fill="#889FB7"/>
<path d="M297.318 429.498L294.531 432.285L295.403 433.157L298.19 430.37L297.318 429.498Z" fill="#889FB7"/>
</g>
<path d="M223.77 400.322L223.77 401.895C223.77 405.041 226.343 407.624 229.499 407.624C232.645 407.624 235.229 405.051 235.229 401.895L235.229 400.322" stroke="#FF7300" stroke-width="2" stroke-linecap="round" stroke-linejoin="round"/>
<path d="M235.229 394.083L235.229 392.52C235.229 389.364 232.656 386.791 229.499 386.791C226.354 386.791 223.77 389.364 223.77 392.52L223.77 394.083" stroke="#0061BF" stroke-width="2" stroke-linecap="round" stroke-linejoin="round"/>
<path d="M229.5 393.041L229.5 401.374" stroke="#0061BF" stroke-width="2" stroke-linecap="round" stroke-linejoin="round"/>
<path d="M89 175.707V136.707" stroke="#A9CBF7" stroke-width="1.5" stroke-linecap="round" stroke-linejoin="round" stroke-dasharray="6 6"/>
<path d="M83.7702 195.322L83.7702 196.895C83.7702 200.041 86.3431 202.624 89.4993 202.624C92.6452 202.624 95.2285 200.051 95.2285 196.895L95.2285 195.322" stroke="#FF7300" stroke-width="2" stroke-linecap="round" stroke-linejoin="round"/>
<path d="M95.2285 189.083L95.2285 187.52C95.2285 184.364 92.6556 181.791 89.4993 181.791C86.3535 181.791 83.7702 184.364 83.7702 187.52L83.7702 189.083" stroke="#0061BF" stroke-width="2" stroke-linecap="round" stroke-linejoin="round"/>
<path d="M89.5 188.041L89.5 196.374" stroke="#0061BF" stroke-width="2" stroke-linecap="round" stroke-linejoin="round"/>
<path d="M89.5 208.707V219.707C89.5 220.812 90.3954 221.707 91.5 221.707H140" stroke="#A9CBF7" stroke-width="1.5" stroke-linecap="round" stroke-linejoin="round" stroke-dasharray="6 6"/>
<g filter="url(#filter1_d_15171_28483)">
<rect x="36" y="54.707" width="145.842" height="85" rx="10.7368" fill="white"/>
</g>
<rect x="46.7363" y="85.1289" width="124.37" height="7.15789" rx="3.57895" fill="#EBEFF2"/>
<rect x="46.7363" y="97.7617" width="83.9495" height="3.57895" rx="1.78947" fill="#EBEFF2"/>
<rect x="46.7363" y="113.76" width="124.37" height="7.15789" rx="3.57895" fill="#EBEFF2"/>
<rect x="46.7363" y="125.391" width="83.9495" height="3.57895" rx="1.78947" fill="#EBEFF2"/>
<circle cx="50.5" cy="68.207" r="3.5" fill="#FF6259"/>
<circle cx="62.5" cy="68.207" r="3.5" fill="#FFBE2F"/>
<circle cx="74.5" cy="68.207" r="3.5" fill="#29CD41"/>
<g filter="url(#filter2_d_15171_28483)">
<path fill-rule="evenodd" clip-rule="evenodd" d="M149.995 100.707H477.008C482.504 100.707 487 106.663 487 113.942V343.479C487 350.753 482.503 356.707 477.008 356.707H149.995C144.497 356.707 140 350.753 140 343.479V113.941C140 106.663 144.497 100.707 149.995 100.707Z" fill="white"/>
</g>
<path opacity="0.3" fill-rule="evenodd" clip-rule="evenodd" d="M149.995 100.707H477.008C482.504 100.707 487 101.172 487 101.741V119.674C487 120.242 482.503 120.707 477.008 120.707H149.995C144.497 120.707 140 120.242 140 119.674V101.741C140 101.172 144.497 100.707 149.995 100.707Z" fill="#0061BF"/>
<rect x="159" y="191.707" width="269" height="10" rx="5" fill="#EBEFF2"/>
<rect x="159" y="211.707" width="310" height="5" rx="2.5" fill="#EBEFF2"/>
<rect x="150" y="135.707" width="69" height="36" rx="5.2211" fill="#F2F5F6"/>
<rect x="230" y="135.707" width="69" height="36" rx="5.2211" fill="#F2F5F6"/>
<rect x="310" y="135.707" width="69" height="36" rx="5.2211" fill="#F2F5F6"/>
<rect x="390" y="135.707" width="69" height="36" rx="5.2211" fill="#F2F5F6"/>
<rect x="268" y="235.707" width="93" height="5" rx="2.5" fill="#EBEFF2"/>
<rect x="268" y="252.707" width="93" height="5" rx="2.5" fill="#EBEFF2"/>
<rect x="268" y="269.707" width="93" height="5" rx="2.5" fill="#EBEFF2"/>
<rect x="268" y="286.707" width="93" height="5" rx="2.5" fill="#EBEFF2"/>
<rect x="268" y="303.707" width="93" height="5" rx="2.5" fill="#EBEFF2"/>
<rect x="162" y="233.707" width="93" height="80" rx="5.2211" fill="#F2F5F6"/>
<rect x="372" y="233.707" width="92" height="80" rx="5.2211" fill="#F2F5F6"/>
<path d="M429.747 279.47H429.747C430.663 279.469 431.541 279.105 432.188 278.457C432.835 277.81 433.199 276.932 433.2 276.017V276.016V260.96V260.96C433.199 260.044 432.835 259.167 432.188 258.519C431.541 257.872 430.663 257.508 429.747 257.507H429.747L414.691 257.507L414.69 257.507C413.775 257.508 412.897 257.872 412.25 258.519C411.602 259.167 411.238 260.044 411.237 260.96V260.96V272.885C411.237 273.063 411.308 273.233 411.433 273.358C411.559 273.483 411.729 273.554 411.906 273.554C412.084 273.554 412.254 273.483 412.379 273.358C412.505 273.233 412.575 273.063 412.575 272.885V263.497L431.862 263.513V276.016C431.862 276.577 431.639 277.115 431.242 277.512C430.845 277.908 430.308 278.131 429.747 278.132H417.735C417.558 278.132 417.388 278.202 417.262 278.328C417.137 278.453 417.066 278.623 417.066 278.801C417.066 278.978 417.137 279.148 417.262 279.274C417.388 279.399 417.558 279.47 417.735 279.47H429.747ZM414.691 258.845H429.747C429.747 258.845 429.747 258.845 429.747 258.845C430.308 258.845 430.846 259.068 431.242 259.465C431.639 259.862 431.862 260.399 431.862 260.96V262.166L412.575 262.15V260.945C412.58 260.386 412.805 259.853 413.201 259.46C413.597 259.066 414.132 258.845 414.691 258.845C414.691 258.845 414.691 258.845 414.691 258.845Z" fill="#FF7300" stroke="#FF7300" stroke-width="0.4"/>
<path d="M430.148 261.305C430.518 261.305 430.817 261.006 430.817 260.637C430.817 260.267 430.518 259.968 430.148 259.968C429.779 259.968 429.48 260.267 429.48 260.637C429.48 261.006 429.779 261.305 430.148 261.305Z" fill="#FF7300" stroke="#FF7300" stroke-width="0.4"/>
<path d="M428.289 261.305C428.658 261.305 428.958 261.006 428.958 260.637C428.958 260.267 428.658 259.968 428.289 259.968C427.92 259.968 427.62 260.267 427.62 260.637C427.62 261.006 427.92 261.305 428.289 261.305Z" fill="#FF7300" stroke="#FF7300" stroke-width="0.4"/>
<path d="M426.428 261.305C426.797 261.305 427.096 261.006 427.096 260.637C427.096 260.267 426.797 259.968 426.428 259.968C426.058 259.968 425.759 260.267 425.759 260.637C425.759 261.006 426.058 261.305 426.428 261.305Z" fill="#FF7300" stroke="#FF7300" stroke-width="0.4"/>
<path d="M419.182 271.525C419.12 271.463 419.047 271.414 418.965 271.38M419.182 271.525L419.041 271.667M419.182 271.525C419.182 271.525 419.182 271.525 419.182 271.525L419.041 271.667M419.182 271.525C419.244 271.588 419.294 271.661 419.327 271.742C419.361 271.824 419.378 271.911 419.378 271.998C419.378 272.086 419.361 272.173 419.327 272.255C419.294 272.336 419.244 272.409 419.182 272.471L419.041 272.33C419.084 272.287 419.119 272.235 419.143 272.178C419.166 272.121 419.178 272.06 419.178 271.998C419.178 271.937 419.166 271.876 419.143 271.819C419.119 271.762 419.084 271.71 419.041 271.667M418.965 271.38L419.041 271.667M418.965 271.38C418.884 271.347 418.797 271.329 418.709 271.329M418.965 271.38L418.709 271.329M418.709 271.329C418.621 271.329 418.534 271.347 418.453 271.38M418.709 271.329L418.453 271.38M418.453 271.38C418.372 271.414 418.298 271.463 418.236 271.525M418.453 271.38L418.236 271.525M418.236 271.525L412.131 277.631L418.236 271.525ZM413.077 278.577L419.182 272.472L412.272 278.436L412.131 278.577C412.131 278.577 412.131 278.577 412.131 278.577C412.193 278.639 412.267 278.688 412.348 278.722C412.429 278.756 412.516 278.773 412.604 278.773C412.692 278.773 412.779 278.756 412.86 278.722C412.941 278.688 413.015 278.639 413.077 278.577Z" fill="#FF7300" stroke="#FF7300" stroke-width="0.4"/>
<path d="M417.514 276.158C417.435 276.147 417.359 276.123 417.288 276.086L417.382 275.909L417.288 276.086C417.21 276.044 417.141 275.988 417.085 275.92C417.029 275.852 416.987 275.774 416.961 275.69C416.935 275.606 416.926 275.517 416.935 275.429C416.943 275.342 416.968 275.257 417.01 275.179C417.051 275.101 417.107 275.032 417.175 274.976C417.243 274.92 417.321 274.877 417.406 274.852C417.49 274.826 417.578 274.817 417.666 274.825L417.667 274.825C417.959 274.854 418.254 274.818 418.531 274.72C418.807 274.621 419.058 274.462 419.266 274.255C419.266 274.255 419.266 274.255 419.266 274.255L421.372 272.149C421.714 271.772 421.898 271.277 421.887 270.768C421.875 270.258 421.667 269.771 421.306 269.41C420.945 269.048 420.459 268.84 419.949 268.827C419.44 268.815 418.945 268.999 418.568 269.34L416.462 271.446C416.462 271.446 416.462 271.446 416.462 271.446C416.261 271.648 416.106 271.89 416.007 272.157C415.909 272.424 415.868 272.71 415.889 272.994L415.889 272.994C415.902 273.171 415.844 273.346 415.728 273.481L415.577 273.35L415.728 273.481C415.612 273.615 415.447 273.698 415.27 273.711C415.092 273.724 414.917 273.665 414.783 273.549C414.649 273.433 414.566 273.268 414.553 273.091L417.514 276.158ZM417.514 276.158L417.514 276.165C417.623 276.175 417.731 276.18 417.839 276.18L417.514 276.158ZM420.186 275.21L422.295 273.101L422.296 273.101L422.304 273.091C422.859 272.459 423.153 271.639 423.128 270.798C423.102 269.957 422.758 269.157 422.166 268.56C421.574 267.962 420.777 267.611 419.936 267.578C419.096 267.545 418.274 267.831 417.636 268.38L417.63 268.385L417.625 268.391L415.516 270.5L415.516 270.5C415.179 270.838 414.918 271.244 414.752 271.691C414.586 272.138 414.518 272.615 414.553 273.091C414.553 273.091 414.553 273.091 414.553 273.091L420.186 275.21Z" fill="#FF7300" stroke="#FF7300" stroke-width="0.4"/>
<path d="M413.587 273.914C413.131 273.897 412.676 273.974 412.251 274.141C411.826 274.307 411.44 274.559 411.116 274.881L411.116 274.881L409.007 276.99C409.007 276.99 409.007 276.99 409.007 276.99C408.695 277.299 408.448 277.666 408.279 278.071C408.109 278.475 408.022 278.909 408.021 279.348C408.02 279.787 408.106 280.221 408.273 280.627C408.441 281.032 408.687 281.4 408.997 281.71L408.997 281.71C409.621 282.333 410.466 282.682 411.347 282.682C412.228 282.682 413.074 282.333 413.698 281.71L413.698 281.71L415.806 279.602C415.806 279.602 415.806 279.602 415.807 279.601C416.141 279.272 416.402 278.875 416.572 278.437C416.742 277.999 416.818 277.53 416.794 277.061L416.794 277.061C416.784 276.883 416.705 276.717 416.573 276.598C416.441 276.48 416.267 276.418 416.09 276.427C415.913 276.437 415.746 276.516 415.628 276.648C415.509 276.78 415.447 276.954 415.457 277.131L415.457 277.131C415.472 277.41 415.428 277.688 415.329 277.949C415.229 278.209 415.076 278.446 414.88 278.643C414.88 278.643 414.88 278.643 414.879 278.643L412.77 280.752L412.77 280.753C412.398 281.129 411.893 281.341 411.366 281.344C410.838 281.347 410.33 281.14 409.955 280.769C409.58 280.398 409.367 279.893 409.364 279.365C409.361 278.838 409.568 278.33 409.939 277.955C409.939 277.955 409.939 277.955 409.939 277.955L412.048 275.846L412.048 275.846L412.049 275.845C412.243 275.648 412.475 275.494 412.732 275.391C412.989 275.289 413.264 275.241 413.54 275.251C413.628 275.254 413.715 275.24 413.798 275.209C413.88 275.178 413.955 275.131 414.02 275.071L413.883 274.925L414.02 275.071C414.084 275.012 414.136 274.94 414.172 274.86C414.209 274.78 414.229 274.693 414.232 274.606C414.235 274.518 414.221 274.43 414.19 274.348C414.159 274.266 414.113 274.19 414.053 274.126C413.993 274.062 413.921 274.01 413.841 273.973C413.761 273.937 413.675 273.917 413.587 273.914ZM413.587 273.914C413.587 273.914 413.587 273.914 413.587 273.914L413.58 274.113L413.587 273.913C413.587 273.914 413.587 273.914 413.587 273.914Z" fill="#FF7300" stroke="#FF7300" stroke-width="0.4"/>
<path d="M406.253 287.907H406.253H421.309H421.31C422.225 287.906 423.103 287.542 423.75 286.895C424.398 286.248 424.762 285.37 424.763 284.454V284.454V280.509C424.763 280.332 424.692 280.162 424.567 280.036C424.441 279.911 424.271 279.841 424.094 279.841C423.916 279.841 423.746 279.911 423.621 280.036C423.495 280.162 423.425 280.332 423.425 280.509V284.454C423.424 285.015 423.201 285.553 422.805 285.949C422.408 286.346 421.87 286.569 421.309 286.57H406.253C405.692 286.569 405.155 286.346 404.758 285.949C404.361 285.553 404.138 285.015 404.138 284.454C404.138 284.454 404.137 284.454 404.137 284.454L404.138 271.97H410.031C410.209 271.97 410.379 271.899 410.504 271.774C410.63 271.648 410.7 271.478 410.7 271.301C410.7 271.123 410.63 270.953 410.504 270.828C410.379 270.702 410.209 270.632 410.031 270.632H404.138L404.137 269.398C404.137 269.398 404.138 269.398 404.138 269.398C404.138 268.837 404.361 268.299 404.758 267.902C405.154 267.506 405.692 267.283 406.253 267.282C406.253 267.282 406.253 267.282 406.253 267.282L410.031 267.282C410.209 267.282 410.379 267.212 410.504 267.086C410.63 266.961 410.7 266.791 410.7 266.613C410.7 266.436 410.63 266.266 410.504 266.14C410.379 266.015 410.209 265.945 410.031 265.945L406.253 265.945L406.253 265.945C405.337 265.945 404.459 266.309 403.812 266.957C403.165 267.604 402.801 268.482 402.8 269.398V269.398L402.8 284.454L402.8 284.454C402.801 285.37 403.165 286.248 403.812 286.895C404.459 287.542 405.337 287.906 406.253 287.907Z" fill="#FF7300" stroke="#FF7300" stroke-width="0.4"/>
<path d="M208.098 271.207L208.098 271.207C208.224 271.081 208.394 271.011 208.571 271.011C208.749 271.011 208.919 271.081 209.045 271.207C209.17 271.332 209.24 271.503 209.24 271.68C209.24 271.857 209.17 272.028 209.045 272.153C209.045 272.153 209.045 272.153 209.045 272.153L204.306 276.894C204.306 276.894 204.306 276.894 204.305 276.894C204.243 276.957 204.17 277.006 204.088 277.039C204.007 277.073 203.92 277.09 203.832 277.09C203.745 277.09 203.657 277.073 203.576 277.039C203.495 277.006 203.421 276.957 203.359 276.894C203.359 276.894 203.359 276.894 203.359 276.894L203.501 276.753C203.457 276.709 203.423 276.658 203.399 276.601C203.375 276.544 203.363 276.483 203.363 276.421C203.363 276.36 203.375 276.299 203.399 276.242C203.423 276.185 203.457 276.133 203.501 276.09L208.098 271.207ZM208.098 271.207L203.359 275.948L208.098 271.207Z" fill="#0061BF" stroke="#0061BF" stroke-width="0.4"/>
<path d="M206.456 275.718L206.343 275.553C206.415 275.503 206.497 275.468 206.583 275.45C206.668 275.431 206.757 275.43 206.844 275.446C206.93 275.461 207.013 275.494 207.087 275.542C207.161 275.59 207.225 275.652 207.275 275.725L207.111 275.838L207.275 275.725C207.325 275.797 207.361 275.879 207.379 275.966C207.397 276.052 207.398 276.141 207.382 276.227C207.277 276.8 207 277.327 206.588 277.739L204.823 279.503L204.82 279.506L204.82 279.506C204.276 280.028 203.55 280.316 202.796 280.308C202.043 280.3 201.322 279.998 200.789 279.465C200.256 278.932 199.953 278.212 199.945 277.458C199.937 276.705 200.224 275.978 200.745 275.434L200.749 275.43L200.749 275.43L202.515 273.673C202.515 273.673 202.515 273.673 202.516 273.673C202.927 273.26 203.454 272.984 204.027 272.879L206.456 275.718ZM206.456 275.718L206.343 275.553C206.27 275.603 206.208 275.667 206.161 275.741L206.329 275.849L206.161 275.741C206.113 275.815 206.08 275.898 206.065 275.984L206.065 275.986C206.012 276.29 205.867 276.572 205.651 276.793L203.887 278.557L203.886 278.558C203.743 278.701 203.573 278.816 203.385 278.894C203.198 278.972 202.997 279.012 202.793 279.013C202.383 279.013 201.989 278.851 201.699 278.562C201.555 278.418 201.441 278.248 201.363 278.06C201.284 277.873 201.244 277.672 201.244 277.469C201.243 277.059 201.405 276.665 201.695 276.374C201.695 276.374 201.695 276.374 201.695 276.374L203.459 274.61C203.679 274.394 203.961 274.249 204.266 274.197L204.266 274.197L204.268 274.196C204.442 274.164 204.597 274.064 204.698 273.918C204.799 273.772 204.838 273.592 204.806 273.417C204.774 273.243 204.674 273.088 204.528 272.987C204.382 272.886 204.202 272.847 204.027 272.879L206.456 275.718Z" fill="#0061BF" stroke="#0061BF" stroke-width="0.4"/>
<path d="M205.812 270.362L205.812 270.362C205.4 270.774 205.123 271.301 205.018 271.874L205.018 271.874L205.017 271.883C204.994 272.054 205.038 272.226 205.139 272.365C205.24 272.504 205.39 272.599 205.559 272.63C205.728 272.661 205.903 272.626 206.046 272.532C206.19 272.437 206.292 272.292 206.331 272.124L206.331 272.124L206.333 272.113C206.386 271.808 206.531 271.526 206.747 271.305L208.511 269.541L208.512 269.541C208.801 269.249 209.195 269.085 209.606 269.084C210.018 269.083 210.412 269.245 210.704 269.535C210.995 269.825 211.16 270.218 211.161 270.629C211.162 271.04 211 271.435 210.71 271.727C210.71 271.727 210.71 271.727 210.71 271.727L208.946 273.491C208.727 273.706 208.448 273.849 208.146 273.903C207.972 273.921 207.812 274.006 207.7 274.14C207.586 274.277 207.531 274.453 207.547 274.63C207.563 274.807 207.649 274.971 207.785 275.085C207.917 275.195 208.086 275.25 208.257 275.24C208.291 275.242 208.326 275.241 208.36 275.238L208.369 275.237L208.377 275.236C208.951 275.131 209.478 274.854 209.89 274.442L211.654 272.677C211.922 272.41 212.135 272.092 212.28 271.743C212.425 271.393 212.5 271.019 212.5 270.64C212.5 270.262 212.426 269.887 212.282 269.537C212.137 269.187 211.925 268.869 211.658 268.601C211.39 268.333 211.073 268.121 210.723 267.976C210.374 267.83 209.999 267.755 209.621 267.755C209.242 267.755 208.867 267.829 208.517 267.973C208.167 268.118 207.85 268.33 207.582 268.597C207.582 268.597 207.582 268.597 207.582 268.597L205.812 270.362Z" fill="#0061BF" stroke="#0061BF" stroke-width="0.4"/>
<path d="M197.69 260.508L197.012 261.186V260.028H197.012L197.012 260.025C197.007 259.742 197.058 259.461 197.163 259.198C197.267 258.935 197.422 258.695 197.62 258.492C197.817 258.289 198.053 258.128 198.313 258.017C198.573 257.906 198.853 257.847 199.135 257.845H200.093C200.27 257.845 200.441 257.774 200.566 257.649C200.691 257.523 200.762 257.353 200.762 257.176C200.762 256.998 200.691 256.828 200.566 256.703C200.441 256.577 200.27 256.507 200.093 256.507L199.134 256.507L199.133 256.507C198.675 256.51 198.222 256.603 197.8 256.782C197.378 256.96 196.995 257.22 196.674 257.547C196.352 257.874 196.099 258.26 195.927 258.685C195.756 259.11 195.67 259.564 195.674 260.022V261.241L194.94 260.508L194.94 260.507L194.933 260.501C194.805 260.386 194.638 260.324 194.467 260.329C194.295 260.333 194.132 260.403 194.011 260.525C193.889 260.647 193.82 260.81 193.816 260.982C193.812 261.153 193.874 261.32 193.99 261.447L193.989 261.447L193.996 261.454L195.843 263.301C195.843 263.301 195.843 263.301 195.843 263.301C195.905 263.363 195.979 263.412 196.06 263.446C196.141 263.48 196.228 263.497 196.316 263.497C196.404 263.497 196.491 263.48 196.572 263.446C196.653 263.412 196.727 263.363 196.789 263.301C196.789 263.301 196.789 263.301 196.789 263.301L196.817 263.273L198.636 261.454C198.761 261.328 198.832 261.158 198.832 260.981C198.832 260.803 198.761 260.633 198.636 260.508C198.511 260.382 198.34 260.312 198.163 260.312C197.986 260.312 197.815 260.382 197.69 260.508Z" fill="#0061BF" stroke="#0061BF" stroke-width="0.4"/>
<path d="M220.988 282.228L220.309 282.906C220.184 283.032 220.014 283.102 219.836 283.102C219.659 283.102 219.489 283.032 219.363 282.906C219.238 282.781 219.167 282.611 219.167 282.433C219.167 282.256 219.238 282.086 219.363 281.96L221.182 280.141L221.21 280.113L221.21 280.113L221.352 280.255L220.988 282.228ZM220.988 282.228V283.386H220.987L220.988 283.389C220.992 283.672 220.941 283.953 220.837 284.216C220.732 284.479 220.577 284.719 220.379 284.922C220.182 285.125 219.946 285.286 219.686 285.397C219.426 285.508 219.147 285.567 218.864 285.57H217.906C217.729 285.57 217.559 285.64 217.433 285.765C217.308 285.891 217.237 286.061 217.237 286.238C217.237 286.416 217.308 286.586 217.433 286.711C217.559 286.837 217.729 286.907 217.906 286.907L218.865 286.907L218.866 286.907C219.324 286.904 219.777 286.811 220.2 286.632C220.622 286.454 221.004 286.194 221.326 285.867C221.647 285.541 221.901 285.154 222.072 284.729C222.244 284.304 222.329 283.85 222.325 283.392V282.174L223.059 282.909C223.185 283.034 223.355 283.105 223.532 283.105C223.71 283.105 223.88 283.034 224.005 282.909C224.131 282.783 224.201 282.613 224.201 282.436C224.201 282.258 224.131 282.088 224.005 281.962L222.156 280.113L222.156 280.113L222.015 280.255L220.988 282.228Z" fill="#0061BF" stroke="#0061BF" stroke-width="0.4"/>
<path d="M218.603 281.736V272.845H221.891C223.404 272.845 224.2 271.565 224.2 270.402V270.301C224.2 270.123 224.13 269.953 224.004 269.828C223.879 269.703 223.709 269.632 223.531 269.632H222.324C222.325 269.616 222.325 269.6 222.325 269.585V269.584L222.325 257.893L222.325 257.891C222.321 257.52 222.169 257.166 221.904 256.906C221.64 256.647 221.283 256.504 220.912 256.507H203.65C203.28 256.504 202.923 256.647 202.658 256.906C202.393 257.166 202.242 257.52 202.238 257.891L202.238 257.891V257.893V264.945L195.221 264.945L195.221 264.945C194.844 264.945 194.483 265.095 194.217 265.362C193.951 265.628 193.801 265.989 193.8 266.365V266.366V281.734C193.8 282.111 193.95 282.472 194.216 282.739C194.482 283.006 194.844 283.156 195.221 283.157H195.221H205.533V285.57H200.094C199.916 285.57 199.746 285.64 199.621 285.765C199.495 285.891 199.425 286.061 199.425 286.238C199.425 286.416 199.495 286.586 199.621 286.711C199.746 286.837 199.916 286.907 200.094 286.907H212.281C212.459 286.907 212.629 286.837 212.754 286.711C212.88 286.586 212.95 286.416 212.95 286.238C212.95 286.061 212.88 285.891 212.754 285.765C212.629 285.64 212.459 285.57 212.281 285.57H206.87V283.157H217.182L217.182 283.157C217.559 283.156 217.92 283.006 218.186 282.74C218.452 282.474 218.602 282.113 218.603 281.736V281.736ZM217.182 264.945H203.575V257.901C203.577 257.886 203.584 257.872 203.596 257.861C203.608 257.85 203.625 257.844 203.642 257.844L203.642 257.845H203.649H220.913V257.845L220.921 257.844C220.938 257.844 220.954 257.85 220.967 257.861L221.101 257.713L220.967 257.861C220.978 257.872 220.986 257.886 220.987 257.901V269.575C220.986 269.591 220.978 269.605 220.967 269.615C220.954 269.627 220.938 269.633 220.921 269.632L220.921 269.632H220.913H218.605V266.366L218.605 266.365C218.605 265.988 218.454 265.627 218.188 265.361C217.921 265.094 217.559 264.945 217.182 264.945ZM221.893 271.507H221.891H218.605V270.97H222.743C222.686 271.093 222.602 271.203 222.496 271.292C222.327 271.433 222.113 271.509 221.893 271.507ZM217.266 266.369L217.268 281.734C217.267 281.757 217.258 281.778 217.242 281.794C217.226 281.81 217.204 281.819 217.181 281.82H195.223C195.201 281.819 195.179 281.81 195.163 281.794C195.147 281.778 195.138 281.756 195.138 281.734V266.368C195.138 266.345 195.147 266.324 195.163 266.308C195.179 266.292 195.201 266.283 195.223 266.282H217.18C217.202 266.283 217.224 266.292 217.24 266.308C217.256 266.324 217.265 266.345 217.266 266.368C217.266 266.368 217.266 266.369 217.266 266.369Z" fill="#0061BF" stroke="#0061BF" stroke-width="0.4"/>
<path d="M483.445 20.9363H514.436C516.404 20.9363 518.001 19.3463 518.001 17.3705V3.56578C518.001 1.5975 516.404 0 514.436 0H492.872C490.904 0 489.306 1.5975 489.306 3.56578V15.7452L483.445 20.9363ZM508.674 10.4676C508.674 9.20563 509.701 8.18623 510.963 8.18623C512.225 8.18623 513.252 9.20563 513.252 10.4676C513.252 11.7296 512.225 12.7565 510.963 12.7565C509.701 12.7565 508.674 11.7296 508.674 10.4676ZM500.724 10.4676C500.724 9.20563 501.751 8.18623 503.013 8.18623C504.275 8.18623 505.294 9.20563 505.294 10.4676C505.294 11.7296 504.275 12.7565 503.013 12.7565C501.751 12.7565 500.724 11.7296 500.724 10.4676ZM492.773 10.4676C492.773 9.20563 493.792 8.18623 495.055 8.18623C496.317 8.18623 497.344 9.20563 497.344 10.4676C497.344 11.7296 496.317 12.7565 495.055 12.7565C493.792 12.7565 492.773 11.7296 492.773 10.4676Z" fill="white"/>
<path d="M459.126 5.60492C458.553 5.68399 457.62 4.68382 457.214 4.37287C455.276 2.88757 452.968 2.53602 450.587 2.72088C447.582 2.95382 445.43 4.70626 443.555 6.88398C442.24 8.41202 440.862 9.98707 439.018 10.8024C437.101 11.6508 434.76 11.6401 433.19 13.0293C431.177 14.8116 431.216 18.2363 429.063 19.8456C428.21 20.4825 427.134 20.7293 426.181 21.2059C424.586 22.0041 423.35 23.4904 422.855 25.2044C422.597 26.0945 422.519 27.0669 421.997 27.8331C421.199 29.0021 419.652 29.3205 418.39 29.9616C416.37 30.9885 414.949 33.0209 414.439 35.2286C414.062 36.8645 414.088 38.7238 412.967 39.973C411.82 41.252 409.764 41.6282 409.215 43.4052C408.641 45.2613 409.772 46.5681 410.026 48.2522C410.307 50.1232 409.006 51.2591 408.589 53.0222C408.207 54.6325 408.941 56.4459 410.336 57.337C411.233 57.9109 412.355 58.1267 413.138 58.8491C414.513 60.1164 414.295 62.3304 415.068 64.0316C415.991 66.0618 418.358 67.1817 420.586 67.0684C422.813 66.9551 424.879 65.7958 426.533 64.2998C427.871 63.0902 429.015 61.6348 430.567 60.7169C432.811 59.3887 435.732 59.2882 437.654 57.5262C438.846 56.4341 439.459 54.8708 440.232 53.4507C441.322 51.445 442.381 51.2163 444.15 50.3102C445.869 49.4297 446.371 47.7809 447.551 46.3662C449.275 44.3017 452.428 43.5954 453.629 41.1901C454.289 39.8693 454.418 39.0551 455.812 38.4193C456.969 37.8925 458.171 37.9277 459.341 37.0718C461.646 35.3846 463.276 33.5413 463.715 30.6541C463.973 28.9583 464.188 27.1107 465.386 25.883C465.845 25.4117 466.433 25.0548 466.78 24.497C467.631 23.1282 466.679 21.4121 466.287 19.8488C465.669 17.3751 467.312 15.4976 466.723 13.1329C466.238 11.1881 465.322 9.09269 464.016 7.55183C462.779 6.09325 461.036 5.34419 459.126 5.60492Z" fill="#292466"/>
<path d="M461.438 138.869L462.521 159.105L465.267 164.48L470.832 159.105L471.796 136.34L461.438 138.869Z" fill="#FFC6AD"/>
<path d="M462.559 159.168C462.559 159.168 460.708 165.093 461.078 166.203C461.448 167.314 478.605 177.929 478.605 177.929C478.605 177.929 479.839 175.955 479.469 173.733C479.1 171.512 471.618 167.923 471.076 159.169C470.813 154.92 465.655 156.589 466.228 159.91C466.677 162.518 462.559 159.168 462.559 159.168Z" fill="#292466"/>
<path d="M479.15 135.953L480.234 156.189L482.98 161.564L488.545 156.189L489.509 133.424L479.15 135.953Z" fill="#FFC6AD"/>
<path d="M480.272 156.249C480.272 156.249 478.42 162.173 478.791 163.284C479.162 164.395 496.319 175.009 496.319 175.009C496.319 175.009 497.553 173.035 497.183 170.813C496.812 168.592 489.332 165.003 488.79 156.249C488.527 152 483.369 153.669 483.941 156.99C484.391 159.599 480.272 156.249 480.272 156.249Z" fill="#292466"/>
<path d="M479.283 42.9834C479.283 42.9834 485.512 56.8277 487.128 60.9812C488.744 65.1347 488.973 72.7492 478.129 71.1336C467.284 69.5179 468.438 42.291 468.438 42.291L479.283 42.9834Z" fill="#FFC6AD"/>
<path d="M444.192 77.9317C444.192 77.9317 437.361 96.8409 444.428 100.811C451.496 104.779 469.399 102.911 469.399 102.911L470.106 143.858H494.134L492.721 99.4087C492.721 99.4087 493.742 87.6268 482.119 85.168C465.474 81.6471 466.953 77.375 466.953 77.375L444.192 77.9317Z" fill="#264B89"/>
<path d="M431.294 77.9375C431.294 77.9375 424.463 97.0187 431.529 101.024C438.596 105.029 456.5 103.144 456.5 103.144L457.206 146.725H481.235L479.821 99.61C479.821 99.61 481.077 86.0532 469.22 85.24C455.127 84.2741 454.265 78.2388 454.265 78.2388L431.294 77.9375Z" fill="#3A67B3"/>
<path d="M461.569 32.5905C459.119 32.1043 457.031 30.1221 456.417 27.7018C458.749 27.5928 460.807 25.8511 461.72 23.7011C462.633 21.5512 462.533 19.0796 461.905 16.8303C461.278 14.581 460.156 12.5058 459.043 10.4531C455.637 11.3325 452.27 13.1138 450.191 15.953C448.112 18.7911 448.665 22.5642 447.24 25.8735C447.143 26.1 445.786 29.5387 444.935 30.993C444.085 32.4473 442.843 33.7413 441.254 34.3012C444.252 36.5067 448.067 37.5913 451.775 37.2707C455.483 36.9512 458.993 35.2768 461.569 32.5905Z" fill="#FFC6AD"/>
<path d="M423.512 43.505L432.719 53.1797L428.98 78.9768L470.513 78.0536L473.646 53.232L480.487 42.5422C480.487 42.5422 476.072 31.7626 457.505 32.2798C440.507 32.7553 426.848 33.3173 423.512 43.505Z" fill="#80BFFE"/>
<path d="M431.79 69.7977H447.328L452.32 45.6387H484.483L479.491 73.9672H434.198L431.279 71.0223C430.831 70.5692 431.152 69.7977 431.79 69.7977Z" fill="#292466"/>
<path d="M423.5 43.207C423.5 43.207 418.702 65.3112 417.42 71.2983C416.136 77.2844 417.313 82.3087 430.141 81.0254C442.968 79.7431 445.213 77.8187 451.306 79.2078C457.399 80.5969 459.216 77.3902 459.216 74.8246C459.216 72.2589 459.014 71.8903 459.014 71.8903C459.014 71.8903 453.658 71.9384 446.283 72.4727C438.906 73.0069 428.859 72.2589 428.859 72.2589L433 52.707L423.5 43.207Z" fill="#FFC6AD"/>
<path d="M467.39 61.3094C469.668 61.3094 471.515 60.1291 471.515 58.6732C471.515 57.2173 469.668 56.0371 467.39 56.0371C465.112 56.0371 463.266 57.2173 463.266 58.6732C463.266 60.1291 465.112 61.3094 467.39 61.3094Z" fill="white"/>
<path d="M447 23.207C447.866 23.3566 450.296 20.8951 450.501 19.707C450.706 18.519 449.366 15.8565 448.5 15.7069C447.634 15.5573 446.44 17.1877 446.235 18.3758C446.03 19.5639 446.134 23.0575 447 23.207Z" fill="#FFC6AD"/>
<path opacity="0.2" d="M184 415.207C184 417.394 166.018 419.282 139.976 420.169C129.843 420.514 118.489 420.707 106.5 420.707C63.6979 420.707 29 418.245 29 415.207C29 412.169 63.6979 409.707 106.5 409.707C149.302 409.707 184 412.169 184 415.207Z" fill="#FF7300"/>
<path d="M132.57 395.16L145.869 404.538L140.224 412.814L124.387 405.431L132.57 395.16Z" fill="#FFC6AD"/>
<path d="M82.8984 369.407C83.6335 369.653 130.84 356.424 149.931 351.056C154.946 349.647 160.323 350.46 164.695 353.289L164.925 353.438C171.343 357.592 174.467 365.326 172.734 372.773C171.633 377.501 168.688 381.588 164.548 384.125C151.958 391.837 125.314 408.063 124.501 407.747C123.433 407.334 90.1603 406.471 90.1603 406.471L111.146 389.99L82.8984 369.407Z" fill="#264B89"/>
<path d="M92.1263 386.105L97.0859 402.393L96.4697 407.358C87.4325 416.467 73.0321 417.438 62.8547 409.622C56.6672 404.872 53.0558 397.504 53.0902 389.702L53.1652 372.684L92.1263 386.105Z" fill="#3A67B3"/>
<path d="M147.576 305.055C147.576 305.055 157.737 327.633 160.37 334.407C163.004 341.181 163.381 353.598 145.695 350.964C128.008 348.33 129.89 303.928 129.89 303.928L147.576 305.055Z" fill="#FFC6AD"/>
<path d="M54.002 316.707L71.6433 321.687L74.1505 363.757L133.277 362.252L138.385 321.774L150.002 310.707C150.002 310.707 147.002 288.707 112.062 287.605C84.3561 288.799 60.4538 286.99 54.002 316.707Z" fill="url(#paint7_linear_15171_28483)"/>
<path d="M54.002 316.707C54.002 316.707 49.3715 341.409 47.2788 351.17C45.1876 360.933 47.1036 369.126 68.0231 367.035C88.9425 364.944 92.6024 361.804 102.539 364.071C112.476 366.337 115.439 361.107 115.439 356.923C115.439 352.739 115.109 352.137 115.109 352.137C115.109 352.137 106.374 352.215 94.3448 353.088C82.3155 353.959 65.9288 352.739 65.9288 352.739L72.0756 321.641L54.002 316.707Z" fill="#FFC6AD"/>
<path d="M145.314 364.293C138.071 370.964 131.039 377.949 123.561 384.356C123.325 384.557 122.987 384.234 123.215 384.01C130.249 377.119 137.716 370.607 144.993 363.974C145.209 363.777 145.528 364.095 145.314 364.293Z" fill="#8699EA"/>
<path d="M78.6813 359.118H104.465L112.748 319.027H166.119L157.836 366.037H82.6775L77.8351 361.149C77.0891 360.397 77.6224 359.118 78.6813 359.118Z" fill="#292466"/>
<path d="M137.126 338.77C139.335 338.805 141.098 340.623 141.063 342.832C141.029 345.041 139.21 346.804 137.001 346.769C134.793 346.735 133.03 344.916 133.064 342.708C133.099 340.499 134.917 338.736 137.126 338.77Z" fill="white"/>
<path d="M133.146 415.548L142.229 399.249L88.0147 357.556C84.6816 354.822 80.6025 353.15 76.3091 352.759C62.9786 351.545 51.7814 362.658 52.895 375.998L53.7505 386.246L89.3238 397.677L133.146 415.548Z" fill="#3A67B3"/>
<path d="M93.1321 398.125C83.56 395.124 73.0275 391.477 66.2676 383.661C66.1597 383.537 66.3286 383.364 66.4491 383.479C74.077 390.882 83.4098 394.236 93.2557 397.677C93.5356 397.775 93.4199 398.216 93.1321 398.125Z" fill="#8699EA"/>
<path d="M103.703 414.795C106.933 416.74 110.304 418.733 114.058 419.094C117.81 419.454 124.662 418.558 125.874 414.989C126.659 412.68 126.04 410.09 124.859 407.957C123.222 404.999 117.73 401.694 114.372 401.298C111.264 400.932 108.192 402.278 105.063 402.253C101.492 402.224 98.1479 400.423 94.5881 400.154C94.05 400.113 93.4948 400.11 92.988 400.293C92.3859 400.51 91.8994 400.975 91.5366 401.502C89.9772 403.762 90.6544 407.039 92.4969 409.075C95.3044 412.181 100.175 412.669 103.703 414.795Z" fill="#FFB156"/>
<path d="M145.298 403.371C145.298 403.371 140.688 410.209 138.765 412.612C138.765 412.612 142.416 414.276 145.106 415.569C147.796 416.863 155.717 429.524 165.708 430.078C175.699 430.633 173.542 430.537 175.848 427.766C178.153 424.994 167.394 413.721 160.861 411.503C154.329 409.285 147.796 406.329 145.298 403.371Z" fill="#FFB156"/>
<path d="M89.9318 265.105C90.4636 266.533 91.316 267.814 92.037 269.156C92.719 270.429 93.2914 271.788 93.4494 273.224C93.6058 274.66 93.3102 276.188 92.4061 277.315C93.9874 276.957 95.6234 276.576 96.9138 275.592C98.4466 274.423 99.2755 272.576 100.043 270.809C100.943 268.736 101.852 266.628 102.127 264.385C102.316 262.851 102.199 261.281 101.787 259.79C100.863 256.454 98.2917 253.859 94.6834 253.85C91.915 253.842 90.6012 256.152 89.8489 258.528C89.1732 260.664 89.1451 262.993 89.9318 265.105Z" fill="#292466"/>
<path d="M94.902 290.194C94.5939 289.588 94.4422 288.912 94.4641 288.231L95.2555 262.521C94.9505 255.363 98.8623 249.217 106.027 249.109L106.69 249.138C113.361 249.427 118.692 254.79 118.937 261.462C119.167 267.669 119.342 274.527 119.156 277.843C118.773 284.709 111.857 285.479 111.857 285.479L111.63 288.155C111.63 288.155 112.166 292.795 106.784 294.374C102.647 295.587 98.1115 292.98 96.2346 291.71C95.6669 291.327 95.2102 290.803 94.902 290.194Z" fill="#FFC6AD"/>
<path d="M111.912 285.47C111.912 285.47 107.514 285.544 103.027 282.445C103.027 282.445 104.929 287.482 111.81 287.159L111.912 285.47Z" fill="#DD9C80"/>
<path d="M96.0684 269.258C96.0715 268.196 95.194 267.319 94.1336 267.374C92.8479 267.439 91.3902 268.106 91.3589 270.757C91.3042 275.46 96.0371 274.543 96.0465 274.409C96.0543 274.318 96.0637 271.227 96.0684 269.258Z" fill="#FFC6AD"/>
<path d="M103.266 257.676C107.762 260.455 124.981 263.363 122.76 253.351C122.422 251.828 121.592 250.464 120.713 249.174C119.989 248.11 119.039 246.973 117.754 246.929C118.442 247.517 117.902 248.765 117.042 249.044C115.284 249.613 113.983 247.883 112.645 247.084C110.787 245.974 108.651 245.17 106.486 244.974C104.498 244.796 102.49 245.106 100.579 245.681C98.3545 246.351 96.2039 247.409 94.5585 249.049C92.9146 250.689 91.8198 252.962 91.9199 255.283C95.475 256.833 99.967 255.638 103.266 257.676Z" fill="#292466"/>
<path d="M98.9888 263.246C97.9878 265.431 97.3027 267.866 97.7266 270.232C97.248 270.505 96.6427 270.541 96.1343 270.325C96.4034 269.587 96.0467 268.761 95.5572 268.144C95.0692 267.528 94.442 267.02 94.0385 266.346C93.197 264.941 93.4911 263.172 93.5896 261.538C93.6662 260.279 93.6099 259.004 93.8539 257.767C94.0979 256.53 94.6985 255.291 95.773 254.629C96.7725 254.013 98.019 253.985 99.1905 254.049C99.8959 254.087 100.631 254.162 101.227 254.54C101.446 254.679 101.641 254.856 101.87 254.981C102.725 255.447 103.844 255.078 104.723 255.5C102.916 255.868 102.472 256.319 101.774 257.879C100.952 259.717 99.8287 261.413 98.9888 263.246Z" fill="#292466"/>
<path d="M487 240.707C497.76 240.707 510.708 240.707 528.998 240.707C530.103 240.707 531 241.602 531 242.707V277.707" stroke="#A9CBF7" stroke-width="1.5" stroke-linecap="round" stroke-linejoin="round" stroke-dasharray="6 6"/>
<g filter="url(#filter3_d_15171_28483)">
<rect x="468" y="276.707" width="104.92" height="61" rx="9.76" fill="white"/>
</g>
<rect x="476.947" y="304.766" width="69.9467" height="5.69333" rx="2.84667" fill="#EDF1F4"/>
<g clip-path="url(#clip2_15171_28483)">
<path d="M563.857 307.322L561.224 304.532C561.062 304.361 560.792 304.353 560.62 304.515C560.449 304.677 560.441 304.947 560.603 305.119L562.959 307.615L560.603 310.112C560.441 310.283 560.449 310.554 560.62 310.716C560.703 310.793 560.808 310.832 560.913 310.832C561.027 310.832 561.14 310.787 561.224 310.698L563.857 307.908C564.012 307.744 564.012 307.487 563.857 307.322Z" fill="#AAB4BE"/>
<path d="M555.959 310.112L553.602 307.615L555.959 305.119C556.121 304.947 556.113 304.677 555.941 304.515C555.77 304.353 555.499 304.361 555.338 304.532L552.704 307.322C552.549 307.487 552.549 307.744 552.704 307.908L555.338 310.698C555.422 310.787 555.535 310.832 555.648 310.832C555.753 310.832 555.859 310.793 555.941 310.716C556.113 310.554 556.121 310.283 555.959 310.112Z" fill="#AAB4BE"/>
<path d="M558.971 303.093C558.738 303.057 558.52 303.217 558.484 303.45L557.232 311.649C557.196 311.882 557.356 312.1 557.589 312.136C557.611 312.139 557.633 312.14 557.654 312.14C557.862 312.14 558.044 311.989 558.076 311.778L559.328 303.579C559.364 303.346 559.204 303.128 558.971 303.093Z" fill="#AAB4BE"/>
</g>
<g clip-path="url(#clip3_15171_28483)">
<path d="M488.218 323.586L485.585 320.796C485.423 320.625 485.153 320.617 484.982 320.779C484.81 320.94 484.802 321.211 484.964 321.382L487.321 323.879L484.964 326.376C484.802 326.547 484.81 326.817 484.982 326.979C485.064 327.057 485.17 327.096 485.275 327.096C485.388 327.096 485.501 327.051 485.585 326.962L488.218 324.172C488.374 324.007 488.374 323.75 488.218 323.586Z" fill="#AAB4BE"/>
<path d="M480.32 326.376L477.964 323.879L480.32 321.382C480.482 321.211 480.474 320.94 480.302 320.779C480.131 320.617 479.861 320.625 479.699 320.796L477.066 323.586C476.91 323.75 476.91 324.008 477.066 324.172L479.699 326.962C479.783 327.051 479.896 327.096 480.01 327.096C480.115 327.096 480.22 327.057 480.302 326.979C480.474 326.817 480.482 326.547 480.32 326.376Z" fill="#AAB4BE"/>
<path d="M483.332 319.356C483.099 319.321 482.881 319.481 482.845 319.714L481.593 327.913C481.557 328.146 481.717 328.364 481.951 328.399C481.972 328.402 481.994 328.404 482.016 328.404C482.223 328.404 482.405 328.253 482.437 328.042L483.69 319.843C483.725 319.61 483.565 319.392 483.332 319.356Z" fill="#AAB4BE"/>
</g>
<rect x="491.588" y="321.441" width="36.6" height="4.88" rx="2.44" fill="#EDF1F4"/>
<rect x="531.441" y="321.441" width="12.2" height="4.88" rx="2.44" fill="#EDF1F4"/>
<rect x="546.895" y="321.848" width="17.08" height="4.06667" rx="2.03333" fill="#EDF1F4"/>
<rect x="477" y="287.707" width="82" height="4" rx="2" fill="#EDF1F4"/>
<defs>
<filter id="filter0_d_15171_28483" x="237.122" y="355.158" width="212.756" height="144.756" filterUnits="userSpaceOnUse" color-interpolation-filters="sRGB">
<feFlood flood-opacity="0" result="BackgroundImageFix"/>
<feColorMatrix in="SourceAlpha" type="matrix" values="0 0 0 0 0 0 0 0 0 0 0 0 0 0 0 0 0 0 127 0" result="hardAlpha"/>
<feOffset dy="12.3292"/>
<feGaussianBlur stdDeviation="16.439"/>
<feComposite in2="hardAlpha" operator="out"/>
<feColorMatrix type="matrix" values="0 0 0 0 0.117647 0 0 0 0 0.129412 0 0 0 0 0.176471 0 0 0 0.08 0"/>
<feBlend mode="normal" in2="BackgroundImageFix" result="effect1_dropShadow_15171_28483"/>
<feBlend mode="normal" in="SourceGraphic" in2="effect1_dropShadow_15171_28483" result="shape"/>
</filter>
<filter id="filter1_d_15171_28483" x="0.210526" y="32.3386" width="217.421" height="156.579" filterUnits="userSpaceOnUse" color-interpolation-filters="sRGB">
<feFlood flood-opacity="0" result="BackgroundImageFix"/>
<feColorMatrix in="SourceAlpha" type="matrix" values="0 0 0 0 0 0 0 0 0 0 0 0 0 0 0 0 0 0 127 0" result="hardAlpha"/>
<feOffset dy="13.4211"/>
<feGaussianBlur stdDeviation="17.8947"/>
<feComposite in2="hardAlpha" operator="out"/>
<feColorMatrix type="matrix" values="0 0 0 0 0.117647 0 0 0 0 0.129412 0 0 0 0 0.176471 0 0 0 0.08 0"/>
<feBlend mode="normal" in2="BackgroundImageFix" result="effect1_dropShadow_15171_28483"/>
<feBlend mode="normal" in="SourceGraphic" in2="effect1_dropShadow_15171_28483" result="shape"/>
</filter>
<filter id="filter2_d_15171_28483" x="100" y="75.707" width="427" height="336" filterUnits="userSpaceOnUse" color-interpolation-filters="sRGB">
<feFlood flood-opacity="0" result="BackgroundImageFix"/>
<feColorMatrix in="SourceAlpha" type="matrix" values="0 0 0 0 0 0 0 0 0 0 0 0 0 0 0 0 0 0 127 0" result="hardAlpha"/>
<feOffset dy="15"/>
<feGaussianBlur stdDeviation="20"/>
<feComposite in2="hardAlpha" operator="out"/>
<feColorMatrix type="matrix" values="0 0 0 0 0.117647 0 0 0 0 0.129412 0 0 0 0 0.176471 0 0 0 0.07 0"/>
<feBlend mode="normal" in2="BackgroundImageFix" result="effect1_dropShadow_15171_28483"/>
<feBlend mode="normal" in="SourceGraphic" in2="effect1_dropShadow_15171_28483" result="shape"/>
</filter>
<filter id="filter3_d_15171_28483" x="435.467" y="256.374" width="169.987" height="126.067" filterUnits="userSpaceOnUse" color-interpolation-filters="sRGB">
<feFlood flood-opacity="0" result="BackgroundImageFix"/>
<feColorMatrix in="SourceAlpha" type="matrix" values="0 0 0 0 0 0 0 0 0 0 0 0 0 0 0 0 0 0 127 0" result="hardAlpha"/>
<feOffset dy="12.2"/>
<feGaussianBlur stdDeviation="16.2667"/>
<feComposite in2="hardAlpha" operator="out"/>
<feColorMatrix type="matrix" values="0 0 0 0 0.117647 0 0 0 0 0.129412 0 0 0 0 0.176471 0 0 0 0.08 0"/>
<feBlend mode="normal" in2="BackgroundImageFix" result="effect1_dropShadow_15171_28483"/>
<feBlend mode="normal" in="SourceGraphic" in2="effect1_dropShadow_15171_28483" result="shape"/>
</filter>
<linearGradient id="paint0_linear_15171_28483" x1="441.5" y1="1.34174e-05" x2="106.871" y2="396.361" gradientUnits="userSpaceOnUse">
<stop stop-color="#EAF4FE"/>
<stop offset="1" stop-color="#DCEDFF" stop-opacity="0"/>
</linearGradient>
<linearGradient id="paint1_linear_15171_28483" x1="571.188" y1="71.8363" x2="553.766" y2="71.8363" gradientUnits="userSpaceOnUse">
<stop stop-color="#FAB882"/>
<stop offset="1" stop-color="#FF7300"/>
</linearGradient>
<linearGradient id="paint2_linear_15171_28483" x1="556.194" y1="48.9621" x2="539.899" y2="48.9621" gradientUnits="userSpaceOnUse">
<stop stop-color="#FAB882"/>
<stop offset="1" stop-color="#FF7300"/>
</linearGradient>
<linearGradient id="paint3_linear_15171_28483" x1="543.386" y1="98.1341" x2="527.986" y2="98.1341" gradientUnits="userSpaceOnUse">
<stop stop-color="#FAB882"/>
<stop offset="1" stop-color="#FF7300"/>
</linearGradient>
<linearGradient id="paint4_linear_15171_28483" x1="492.602" y1="441.234" x2="483.891" y2="426.146" gradientUnits="userSpaceOnUse">
<stop stop-color="#FAB882"/>
<stop offset="1" stop-color="#FF7300"/>
</linearGradient>
<linearGradient id="paint5_linear_15171_28483" x1="504.915" y1="416.812" x2="496.767" y2="402.701" gradientUnits="userSpaceOnUse">
<stop stop-color="#FAB882"/>
<stop offset="1" stop-color="#FF7300"/>
</linearGradient>
<linearGradient id="paint6_linear_15171_28483" x1="455.927" y1="430.306" x2="448.227" y2="416.969" gradientUnits="userSpaceOnUse">
<stop stop-color="#FAB882"/>
<stop offset="1" stop-color="#FF7300"/>
</linearGradient>
<linearGradient id="paint7_linear_15171_28483" x1="53.7335" y1="326.082" x2="152.519" y2="326.082" gradientUnits="userSpaceOnUse">
<stop stop-color="#FAB882"/>
<stop offset="1" stop-color="#FF7300"/>
</linearGradient>
<clipPath id="clip0_15171_28483">
<rect width="9.86339" height="9.86339" fill="white" transform="translate(291.486 394.727)"/>
</clipPath>
<clipPath id="clip1_15171_28483">
<rect width="9.86339" height="9.86339" fill="white" transform="translate(291.43 426.395)"/>
</clipPath>
<clipPath id="clip2_15171_28483">
<rect width="11.3867" height="11.3867" fill="white" transform="translate(552.588 301.92)"/>
</clipPath>
<clipPath id="clip3_15171_28483">
<rect width="11.3867" height="11.3867" fill="white" transform="translate(476.947 318.188)"/>
</clipPath>
</defs>
</svg>
