<svg width="22" height="22" viewBox="0 0 22 22" fill="none" xmlns="http://www.w3.org/2000/svg">
<path opacity="0.58" d="M22 0H0V22H22V0Z" fill="white"/>
<path d="M11.1833 5.38148C11.1192 5.38148 11.055 5.38149 11 5.39066V1.84315C11.0642 1.83398 11.1192 1.83398 11.1833 1.83398C13.255 1.83398 15.0333 2.46648 16.4908 3.53898C16.9492 3.86898 16.9858 4.53816 16.5825 4.93232L15.3083 6.17899C14.9967 6.48149 14.52 6.53649 14.1625 6.28899C13.475 5.81232 12.4942 5.38148 11.1833 5.38148Z" fill="#AAB4BE"/>
<path d="M19.9833 11.202C19.9833 13.9979 18.9842 16.3445 17.2517 17.9487C15.7392 19.3512 13.6583 20.167 11.1833 20.167C11.1192 20.167 11.0642 20.167 11 20.1579V16.6104C11.0642 16.6195 11.1192 16.6195 11.1833 16.6195C12.5492 16.6195 13.585 16.2437 14.3642 15.7029C15.5833 14.8504 16.1333 13.5762 16.2342 12.7329H12.1C11.5958 12.7329 11.1833 12.3204 11.1833 11.8162V10.2487C11.1833 9.74453 11.5958 9.33203 12.1 9.33203H19.0208C19.4883 9.33203 19.8825 9.68038 19.9283 10.1479C19.965 10.4687 19.9833 10.8079 19.9833 11.202Z" fill="#AAB4BE"/>
<path d="M5.95729 9.18431C5.77396 9.75264 5.66396 10.3668 5.66396 10.9993C5.66396 11.6318 5.77396 12.2368 5.96646 12.8143C6.68146 14.9685 8.66146 16.536 10.999 16.6093V20.1568C7.49729 20.0926 4.48146 18.0576 3.00563 15.1151H2.99646C2.37312 13.8685 2.01562 12.4751 2.01562 10.9993C2.01562 9.52347 2.37312 8.13013 2.99646 6.88346C4.47229 3.94096 7.48813 1.90596 10.999 1.8418V5.38931C8.83563 5.45347 6.99313 6.7918 6.14979 8.6893C6.07646 8.8543 6.01229 9.01931 5.95729 9.18431Z" fill="#AAB4BE"/>
</svg>
