<svg width="520" height="416" viewBox="0 0 520 416" fill="none" xmlns="http://www.w3.org/2000/svg">
<g clip-path="url(#clip0_15040_13026)">
<path opacity="0.1" fill-rule="evenodd" clip-rule="evenodd" d="M503.813 280.875C503.698 280.213 503.583 279.551 503.468 279.021C503.353 278.227 503.122 277.433 502.892 276.771C502.777 276.241 502.662 275.711 502.431 275.182C502.431 275.182 502.431 275.049 502.431 274.917C502.201 274.255 502.086 273.726 501.855 273.064C501.74 272.534 501.51 272.004 501.395 271.607C501.279 271.342 501.164 270.945 501.049 270.681C500.934 270.283 500.703 269.754 500.588 269.357C500.358 268.827 500.243 268.297 500.012 267.9C499.782 267.106 499.436 266.444 499.091 265.65C488.148 238.774 464.535 217.458 453.823 194.687C438.158 161.191 441.728 126.901 425.487 102.806C412.356 83.2117 389.434 76.9892 358.564 66.3977C352.805 64.4118 346.7 62.2935 340.365 59.9105C335.297 58.057 330.113 55.9387 324.7 53.5556C276.667 32.9023 269.41 9.20385 225.409 4.57009C182.33 0.0687182 149.041 22.5756 130.957 59.6457C113.91 94.7299 125.889 149.011 97.323 185.154C78.2021 209.382 49.0601 227.785 34.8923 265.517C34.7771 265.914 34.5467 266.444 34.4315 266.841C34.2012 267.503 33.9708 268.165 33.7404 268.827C33.2797 270.283 32.7038 271.872 32.243 273.461C32.0126 274.123 31.7823 274.785 31.6671 275.579C31.5519 275.976 31.4367 276.506 31.3215 276.903C31.2063 277.565 30.976 278.227 30.8608 278.889C30.6304 279.683 30.4 280.61 30.2849 281.404C30.0545 282.331 29.9393 283.125 29.7089 284.052C29.4786 285.111 29.3634 286.038 29.133 287.097C29.0178 287.892 28.9026 288.686 28.7874 289.48C28.6723 290.275 28.5571 291.069 28.4419 291.863C28.4419 292.128 28.3267 292.525 28.3267 292.79C28.2115 293.452 28.2115 293.982 28.0963 294.644C28.0963 294.909 27.9811 295.041 27.9811 295.306C27.866 295.835 27.866 296.232 27.866 296.762C27.7508 297.292 27.7508 297.821 27.7508 298.351C27.6356 299.145 27.6356 300.072 27.5204 300.866C23.3737 351.176 43.7616 413.93 97.5533 437.893C151.345 461.856 200.529 424.654 254.897 429.288C307.307 433.789 373.078 473.507 428.597 441.865C430.67 440.673 432.744 439.35 434.817 438.026C436.891 436.569 438.964 435.113 440.922 433.657C492.986 393.144 509.918 314.238 503.813 280.875Z" fill="url(#paint0_linear_15040_13026)"/>
<g filter="url(#filter0_d_15040_13026)">
<path d="M462.299 68.5566H145.531L144.613 293.496C144.568 304.573 153.535 313.578 164.613 313.578H442.299C453.344 313.578 462.299 304.623 462.299 293.578V68.5566Z" fill="white"/>
</g>
<path d="M455.562 39H151.268C147.547 39 144.531 42.0217 144.531 45.7492V69.0183H462.299V45.7492C462.299 42.0217 459.283 39 455.562 39Z" fill="#EAF4FE"/>
<circle cx="159.501" cy="53.5" r="3.5" fill="#FF6259"/>
<circle cx="171.501" cy="53.5" r="3.5" fill="#FFBE2F"/>
<circle cx="183.501" cy="53.5" r="3.5" fill="#29CD41"/>
<path d="M372.335 28.724C380.253 28.724 386.671 22.2939 386.671 14.362C386.671 6.4301 380.253 0 372.335 0C364.418 0 358 6.4301 358 14.362C358 22.2939 364.418 28.724 372.335 28.724Z" fill="url(#paint1_linear_15040_13026)"/>
<path d="M378.394 15.8477C378.394 19.2021 375.684 21.9171 372.336 21.9171C368.987 21.9171 366.277 19.2021 366.277 15.8477H378.394Z" fill="white"/>
<path d="M369.773 12.3258C369.498 12.3258 369.282 12.1094 369.282 11.834C369.282 10.7421 368.398 9.85675 367.308 9.85675C366.218 9.85675 365.334 10.7421 365.334 11.834C365.334 12.1094 365.118 12.3258 364.843 12.3258C364.569 12.3258 364.353 12.1094 364.353 11.834C364.353 10.201 365.678 8.87305 367.308 8.87305C368.938 8.87305 370.263 10.201 370.263 11.834C370.263 12.1094 370.047 12.3258 369.773 12.3258Z" fill="white"/>
<path d="M379.277 12.3258C379.002 12.3258 378.786 12.1094 378.786 11.834C378.786 10.7421 377.903 9.85675 376.813 9.85675C375.723 9.85675 374.839 10.7421 374.839 11.834C374.839 12.1094 374.623 12.3258 374.348 12.3258C374.073 12.3258 373.857 12.1094 373.857 11.834C373.857 10.201 375.183 8.87305 376.813 8.87305C378.443 8.87305 379.768 10.201 379.768 11.834C379.768 12.1094 379.552 12.3258 379.277 12.3258Z" fill="white"/>
<g filter="url(#filter1_d_15040_13026)">
<path d="M132.781 36.8083C132.781 30.2991 132.781 27.0445 130.759 25.0223C128.737 23.0001 125.482 23.0001 118.973 23.0001H31.8087C25.2994 23.0001 22.0448 23.0001 20.0226 25.0223C18.0004 27.0445 18.0004 30.2991 18.0004 36.8083V60.4012C18.0004 66.9105 18.0004 70.1651 20.0226 72.1872C22.0448 74.2094 25.2994 74.2094 31.8086 74.2094H98.4219C100.67 74.2094 101.794 74.2094 102.843 74.554C103.893 74.8987 104.798 75.565 106.608 76.8976L118.973 86.0001L119.391 80.1438C119.642 76.6358 122.561 73.9179 126.078 73.9179C129.78 73.9179 132.781 70.9167 132.781 67.2145V36.8083Z" fill="white"/>
</g>
<circle cx="43.8914" cy="48.0262" r="16.3973" fill="white" fill-opacity="0.8" stroke="#EBEFF2" stroke-width="0.863014" stroke-linecap="round"/>
<path opacity="0.15" d="M44.6046 47.6276C44.5183 47.619 44.4148 47.619 44.3198 47.6276C42.2659 47.5585 40.6348 45.8757 40.6348 43.8044C40.6348 41.6901 42.3435 39.9727 44.4665 39.9727C46.5809 39.9727 48.2983 41.6901 48.2983 43.8044C48.2897 45.8757 46.6586 47.5585 44.6046 47.6276Z" fill="#FF7300"/>
<path d="M40.2895 50.8114C38.201 52.2095 38.201 54.4879 40.2895 55.8773C42.6628 57.4653 46.555 57.4653 48.9283 55.8773C51.0168 54.4792 51.0168 52.2009 48.9283 50.8114C46.5636 49.2321 42.6714 49.2321 40.2895 50.8114Z" stroke="#FF7300" stroke-width="1.29452" stroke-linecap="round" stroke-linejoin="round"/>
<rect x="68.9189" y="36.8086" width="56.0959" height="6.17736" rx="3.08868" fill="#EBEFF2"/>
<rect x="68.9189" y="47.3008" width="15.5342" height="3.45205" rx="1.72603" fill="#EBEFF2"/>
<rect x="88.7686" y="47.3008" width="26.7534" height="3.45205" rx="1.72603" fill="#EBEFF2"/>
<rect x="68.9189" y="55.0684" width="50.9178" height="3.45205" rx="1.72603" fill="#EBEFF2"/>
<path d="M167.61 93.18C166.62 93.18 165.755 92.955 165.015 92.505C164.275 92.055 163.7 91.43 163.29 90.63C162.88 89.82 162.675 88.88 162.675 87.81C162.675 86.73 162.885 85.78 163.305 84.96C163.735 84.13 164.34 83.485 165.12 83.025C165.91 82.555 166.845 82.32 167.925 82.32C169.155 82.32 170.175 82.615 170.985 83.205C171.795 83.795 172.32 84.61 172.56 85.65H170.415C170.255 85.16 169.965 84.78 169.545 84.51C169.125 84.23 168.585 84.09 167.925 84.09C166.875 84.09 166.065 84.425 165.495 85.095C164.925 85.755 164.64 86.665 164.64 87.825C164.64 88.985 164.92 89.885 165.48 90.525C166.05 91.155 166.82 91.47 167.79 91.47C168.74 91.47 169.455 91.215 169.935 90.705C170.425 90.185 170.72 89.505 170.82 88.665H168.165V87.225H172.755V93H170.985L170.835 91.62C170.495 92.12 170.07 92.505 169.56 92.775C169.05 93.045 168.4 93.18 167.61 93.18ZM177.367 93.18C176.437 93.18 175.717 92.89 175.207 92.31C174.707 91.73 174.457 90.88 174.457 89.76V85.56H176.362V89.58C176.362 90.22 176.492 90.71 176.752 91.05C177.012 91.39 177.422 91.56 177.982 91.56C178.512 91.56 178.947 91.37 179.287 90.99C179.637 90.61 179.812 90.08 179.812 89.4V85.56H181.732V93H180.037L179.887 91.74C179.657 92.18 179.322 92.53 178.882 92.79C178.452 93.05 177.947 93.18 177.367 93.18ZM187.318 93.18C186.568 93.18 185.903 93.02 185.323 92.7C184.743 92.38 184.288 91.93 183.958 91.35C183.628 90.77 183.463 90.1 183.463 89.34C183.463 88.57 183.623 87.885 183.943 87.285C184.273 86.685 184.723 86.22 185.293 85.89C185.873 85.55 186.553 85.38 187.333 85.38C188.063 85.38 188.708 85.54 189.268 85.86C189.828 86.18 190.263 86.62 190.573 87.18C190.893 87.73 191.053 88.345 191.053 89.025C191.053 89.135 191.048 89.25 191.038 89.37C191.038 89.49 191.033 89.615 191.023 89.745H185.368C185.408 90.325 185.608 90.78 185.968 91.11C186.338 91.44 186.783 91.605 187.303 91.605C187.693 91.605 188.018 91.52 188.278 91.35C188.548 91.17 188.748 90.94 188.878 90.66H190.828C190.688 91.13 190.453 91.56 190.123 91.95C189.803 92.33 189.403 92.63 188.923 92.85C188.453 93.07 187.918 93.18 187.318 93.18ZM187.333 86.94C186.863 86.94 186.448 87.075 186.088 87.345C185.728 87.605 185.498 88.005 185.398 88.545H189.103C189.073 88.055 188.893 87.665 188.563 87.375C188.233 87.085 187.823 86.94 187.333 86.94ZM195.742 93.18C195.082 93.18 194.502 93.075 194.002 92.865C193.502 92.645 193.102 92.345 192.802 91.965C192.502 91.585 192.322 91.145 192.262 90.645H194.197C194.257 90.935 194.417 91.185 194.677 91.395C194.947 91.595 195.292 91.695 195.712 91.695C196.132 91.695 196.437 91.61 196.627 91.44C196.827 91.27 196.927 91.075 196.927 90.855C196.927 90.535 196.787 90.32 196.507 90.21C196.227 90.09 195.837 89.975 195.337 89.865C195.017 89.795 194.692 89.71 194.362 89.61C194.032 89.51 193.727 89.385 193.447 89.235C193.177 89.075 192.957 88.875 192.787 88.635C192.617 88.385 192.532 88.08 192.532 87.72C192.532 87.06 192.792 86.505 193.312 86.055C193.842 85.605 194.582 85.38 195.532 85.38C196.412 85.38 197.112 85.585 197.632 85.995C198.162 86.405 198.477 86.97 198.577 87.69H196.762C196.652 87.14 196.237 86.865 195.517 86.865C195.157 86.865 194.877 86.935 194.677 87.075C194.487 87.215 194.392 87.39 194.392 87.6C194.392 87.82 194.537 87.995 194.827 88.125C195.117 88.255 195.502 88.375 195.982 88.485C196.502 88.605 196.977 88.74 197.407 88.89C197.847 89.03 198.197 89.245 198.457 89.535C198.717 89.815 198.847 90.22 198.847 90.75C198.857 91.21 198.737 91.625 198.487 91.995C198.237 92.365 197.877 92.655 197.407 92.865C196.937 93.075 196.382 93.18 195.742 93.18ZM203.629 93C202.849 93 202.224 92.81 201.754 92.43C201.284 92.05 201.049 91.375 201.049 90.405V87.165H199.774V85.56H201.049L201.274 83.565H202.969V85.56H204.979V87.165H202.969V90.42C202.969 90.78 203.044 91.03 203.194 91.17C203.354 91.3 203.624 91.365 204.004 91.365H204.934V93H203.629ZM214.612 93.18C214.052 93.18 213.562 93.075 213.142 92.865C212.722 92.655 212.382 92.36 212.122 91.98L211.912 93H210.202V82.2H212.122V86.625C212.362 86.295 212.677 86.005 213.067 85.755C213.467 85.505 213.982 85.38 214.612 85.38C215.312 85.38 215.937 85.55 216.487 85.89C217.037 86.23 217.472 86.695 217.792 87.285C218.112 87.875 218.272 88.545 218.272 89.295C218.272 90.045 218.112 90.715 217.792 91.305C217.472 91.885 217.037 92.345 216.487 92.685C215.937 93.015 215.312 93.18 214.612 93.18ZM214.207 91.5C214.817 91.5 215.322 91.295 215.722 90.885C216.122 90.475 216.322 89.945 216.322 89.295C216.322 88.645 216.122 88.11 215.722 87.69C215.322 87.27 214.817 87.06 214.207 87.06C213.587 87.06 213.077 87.27 212.677 87.69C212.287 88.1 212.092 88.63 212.092 89.28C212.092 89.93 212.287 90.465 212.677 90.885C213.077 91.295 213.587 91.5 214.207 91.5ZM219.987 93V82.2H221.907V93H219.987ZM227.439 93.18C226.719 93.18 226.069 93.015 225.489 92.685C224.919 92.355 224.464 91.9 224.124 91.32C223.794 90.73 223.629 90.05 223.629 89.28C223.629 88.51 223.799 87.835 224.139 87.255C224.479 86.665 224.934 86.205 225.504 85.875C226.084 85.545 226.734 85.38 227.454 85.38C228.164 85.38 228.804 85.545 229.374 85.875C229.954 86.205 230.409 86.665 230.739 87.255C231.079 87.835 231.249 88.51 231.249 89.28C231.249 90.05 231.079 90.73 230.739 91.32C230.409 91.9 229.954 92.355 229.374 92.685C228.794 93.015 228.149 93.18 227.439 93.18ZM227.439 91.515C227.939 91.515 228.374 91.33 228.744 90.96C229.114 90.58 229.299 90.02 229.299 89.28C229.299 88.54 229.114 87.985 228.744 87.615C228.374 87.235 227.944 87.045 227.454 87.045C226.944 87.045 226.504 87.235 226.134 87.615C225.774 87.985 225.594 88.54 225.594 89.28C225.594 90.02 225.774 90.58 226.134 90.96C226.504 91.33 226.939 91.515 227.439 91.515ZM235.646 90.78C235.286 90.78 234.951 90.74 234.641 90.66L234.086 91.215C234.256 91.305 234.486 91.38 234.776 91.44C235.066 91.5 235.536 91.56 236.186 91.62C237.176 91.71 237.896 91.945 238.346 92.325C238.796 92.705 239.021 93.23 239.021 93.9C239.021 94.34 238.901 94.755 238.661 95.145C238.421 95.545 238.051 95.865 237.551 96.105C237.051 96.355 236.411 96.48 235.631 96.48C234.571 96.48 233.716 96.28 233.066 95.88C232.416 95.49 232.091 94.9 232.091 94.11C232.091 93.44 232.416 92.86 233.066 92.37C232.866 92.28 232.691 92.185 232.541 92.085C232.401 91.985 232.276 91.88 232.166 91.77V91.425L233.471 90.045C232.891 89.535 232.601 88.88 232.601 88.08C232.601 87.58 232.721 87.125 232.961 86.715C233.211 86.305 233.561 85.98 234.011 85.74C234.461 85.5 235.006 85.38 235.646 85.38C236.066 85.38 236.456 85.44 236.816 85.56H239.636V86.73L238.361 86.82C238.561 87.2 238.661 87.62 238.661 88.08C238.661 88.58 238.541 89.035 238.301 89.445C238.061 89.855 237.711 90.18 237.251 90.42C236.801 90.66 236.266 90.78 235.646 90.78ZM235.646 89.31C236.036 89.31 236.356 89.205 236.606 88.995C236.866 88.785 236.996 88.485 236.996 88.095C236.996 87.705 236.866 87.405 236.606 87.195C236.356 86.985 236.036 86.88 235.646 86.88C235.236 86.88 234.906 86.985 234.656 87.195C234.406 87.405 234.281 87.705 234.281 88.095C234.281 88.485 234.406 88.785 234.656 88.995C234.906 89.205 235.236 89.31 235.646 89.31ZM233.846 93.915C233.846 94.285 234.016 94.56 234.356 94.74C234.706 94.93 235.131 95.025 235.631 95.025C236.111 95.025 236.501 94.925 236.801 94.725C237.101 94.535 237.251 94.275 237.251 93.945C237.251 93.675 237.151 93.45 236.951 93.27C236.761 93.09 236.376 92.98 235.796 92.94C235.386 92.91 235.006 92.865 234.656 92.805C234.366 92.965 234.156 93.14 234.026 93.33C233.906 93.52 233.846 93.715 233.846 93.915ZM244.187 90.78C243.827 90.78 243.492 90.74 243.182 90.66L242.627 91.215C242.797 91.305 243.027 91.38 243.317 91.44C243.607 91.5 244.077 91.56 244.727 91.62C245.717 91.71 246.437 91.945 246.887 92.325C247.337 92.705 247.562 93.23 247.562 93.9C247.562 94.34 247.442 94.755 247.202 95.145C246.962 95.545 246.592 95.865 246.092 96.105C245.592 96.355 244.952 96.48 244.172 96.48C243.112 96.48 242.257 96.28 241.607 95.88C240.957 95.49 240.632 94.9 240.632 94.11C240.632 93.44 240.957 92.86 241.607 92.37C241.407 92.28 241.232 92.185 241.082 92.085C240.942 91.985 240.817 91.88 240.707 91.77V91.425L242.012 90.045C241.432 89.535 241.142 88.88 241.142 88.08C241.142 87.58 241.262 87.125 241.502 86.715C241.752 86.305 242.102 85.98 242.552 85.74C243.002 85.5 243.547 85.38 244.187 85.38C244.607 85.38 244.997 85.44 245.357 85.56H248.177V86.73L246.902 86.82C247.102 87.2 247.202 87.62 247.202 88.08C247.202 88.58 247.082 89.035 246.842 89.445C246.602 89.855 246.252 90.18 245.792 90.42C245.342 90.66 244.807 90.78 244.187 90.78ZM244.187 89.31C244.577 89.31 244.897 89.205 245.147 88.995C245.407 88.785 245.537 88.485 245.537 88.095C245.537 87.705 245.407 87.405 245.147 87.195C244.897 86.985 244.577 86.88 244.187 86.88C243.777 86.88 243.447 86.985 243.197 87.195C242.947 87.405 242.822 87.705 242.822 88.095C242.822 88.485 242.947 88.785 243.197 88.995C243.447 89.205 243.777 89.31 244.187 89.31ZM242.387 93.915C242.387 94.285 242.557 94.56 242.897 94.74C243.247 94.93 243.672 95.025 244.172 95.025C244.652 95.025 245.042 94.925 245.342 94.725C245.642 94.535 245.792 94.275 245.792 93.945C245.792 93.675 245.692 93.45 245.492 93.27C245.302 93.09 244.917 92.98 244.337 92.94C243.927 92.91 243.547 92.865 243.197 92.805C242.907 92.965 242.697 93.14 242.567 93.33C242.447 93.52 242.387 93.715 242.387 93.915ZM250.612 84.405C250.262 84.405 249.972 84.3 249.742 84.09C249.522 83.88 249.412 83.615 249.412 83.295C249.412 82.975 249.522 82.715 249.742 82.515C249.972 82.305 250.262 82.2 250.612 82.2C250.962 82.2 251.247 82.305 251.467 82.515C251.697 82.715 251.812 82.975 251.812 83.295C251.812 83.615 251.697 83.88 251.467 84.09C251.247 84.3 250.962 84.405 250.612 84.405ZM249.652 93V85.56H251.572V93H249.652ZM253.576 93V85.56H255.271L255.421 86.82C255.651 86.38 255.981 86.03 256.411 85.77C256.851 85.51 257.366 85.38 257.956 85.38C258.876 85.38 259.591 85.67 260.101 86.25C260.611 86.83 260.866 87.68 260.866 88.8V93H258.946V88.98C258.946 88.34 258.816 87.85 258.556 87.51C258.296 87.17 257.891 87 257.341 87C256.801 87 256.356 87.19 256.006 87.57C255.666 87.95 255.496 88.48 255.496 89.16V93H253.576ZM265.852 90.78C265.492 90.78 265.157 90.74 264.847 90.66L264.292 91.215C264.462 91.305 264.692 91.38 264.982 91.44C265.272 91.5 265.742 91.56 266.392 91.62C267.382 91.71 268.102 91.945 268.552 92.325C269.002 92.705 269.227 93.23 269.227 93.9C269.227 94.34 269.107 94.755 268.867 95.145C268.627 95.545 268.257 95.865 267.757 96.105C267.257 96.355 266.617 96.48 265.837 96.48C264.777 96.48 263.922 96.28 263.272 95.88C262.622 95.49 262.297 94.9 262.297 94.11C262.297 93.44 262.622 92.86 263.272 92.37C263.072 92.28 262.897 92.185 262.747 92.085C262.607 91.985 262.482 91.88 262.372 91.77V91.425L263.677 90.045C263.097 89.535 262.807 88.88 262.807 88.08C262.807 87.58 262.927 87.125 263.167 86.715C263.417 86.305 263.767 85.98 264.217 85.74C264.667 85.5 265.212 85.38 265.852 85.38C266.272 85.38 266.662 85.44 267.022 85.56H269.842V86.73L268.567 86.82C268.767 87.2 268.867 87.62 268.867 88.08C268.867 88.58 268.747 89.035 268.507 89.445C268.267 89.855 267.917 90.18 267.457 90.42C267.007 90.66 266.472 90.78 265.852 90.78ZM265.852 89.31C266.242 89.31 266.562 89.205 266.812 88.995C267.072 88.785 267.202 88.485 267.202 88.095C267.202 87.705 267.072 87.405 266.812 87.195C266.562 86.985 266.242 86.88 265.852 86.88C265.442 86.88 265.112 86.985 264.862 87.195C264.612 87.405 264.487 87.705 264.487 88.095C264.487 88.485 264.612 88.785 264.862 88.995C265.112 89.205 265.442 89.31 265.852 89.31ZM264.052 93.915C264.052 94.285 264.222 94.56 264.562 94.74C264.912 94.93 265.337 95.025 265.837 95.025C266.317 95.025 266.707 94.925 267.007 94.725C267.307 94.535 267.457 94.275 267.457 93.945C267.457 93.675 267.357 93.45 267.157 93.27C266.967 93.09 266.582 92.98 266.002 92.94C265.592 92.91 265.212 92.865 264.862 92.805C264.572 92.965 264.362 93.14 264.232 93.33C264.112 93.52 264.052 93.715 264.052 93.915Z" fill="#051F39"/>
<rect x="235.618" y="109" width="60.4799" height="48" rx="8" fill="#F2F5F6"/>
<rect x="235.618" y="162" width="60.179" height="8" rx="4" fill="#F2F5F6"/>
<rect x="235.618" y="175" width="40.6208" height="4" rx="2" fill="#F2F5F6"/>
<rect x="162" y="109" width="60.4799" height="48" rx="8" fill="#F2F5F6"/>
<path d="M196.932 130.497L199.597 130.497C200.702 130.497 201.597 131.417 201.597 132.552C201.597 133.686 200.702 134.606 199.598 134.606L194.266 134.606C193.161 134.606 192.267 133.686 192.267 132.552C192.267 132.174 191.968 131.867 191.6 131.867C191.232 131.867 190.934 132.174 190.934 132.552C190.934 134.443 192.425 135.975 194.266 135.975L199.598 135.975C201.438 135.975 202.93 134.443 202.93 132.552C202.93 130.661 201.438 129.128 199.597 129.128L196.932 129.128C196.564 129.128 196.265 129.435 196.265 129.813C196.265 130.191 196.564 130.497 196.932 130.497Z" fill="#FF7300"/>
<path d="M183.07 132.551C183.07 134.442 184.562 135.975 186.403 135.975L189.601 135.975C189.969 135.975 190.267 135.668 190.267 135.29C190.267 134.912 189.969 134.605 189.601 134.605L186.403 134.605C185.298 134.605 184.403 133.685 184.403 132.551C184.403 131.416 185.298 130.497 186.402 130.497L192.267 130.497C193.371 130.497 194.266 131.416 194.266 132.551C194.266 132.929 194.564 133.235 194.932 133.235C195.3 133.235 195.599 132.929 195.599 132.551C195.599 130.66 194.107 129.127 192.267 129.127L186.402 129.127C184.562 129.127 183.07 130.66 183.07 132.551Z" fill="#FF7300"/>
<rect x="163.439" y="162" width="60.179" height="8" rx="4" fill="#F2F5F6"/>
<rect x="163.439" y="175" width="40.6208" height="4" rx="2" fill="#F2F5F6"/>
<rect x="308" y="109" width="60.4799" height="48" rx="8" fill="#F2F5F6"/>
<rect x="307.756" y="162" width="60.179" height="8" rx="4" fill="#F2F5F6"/>
<rect x="307.756" y="175" width="40.6208" height="4" rx="2" fill="#F2F5F6"/>
<rect x="380.099" y="109" width="60.4799" height="48" rx="8" fill="#F2F5F6"/>
<path d="M414.932 130.497L417.597 130.497C418.702 130.497 419.597 131.417 419.597 132.552C419.597 133.686 418.702 134.606 417.598 134.606L412.266 134.606C411.161 134.606 410.267 133.686 410.267 132.552C410.267 132.174 409.968 131.867 409.6 131.867C409.232 131.867 408.934 132.174 408.934 132.552C408.934 134.443 410.425 135.975 412.266 135.975L417.598 135.975C419.438 135.975 420.93 134.443 420.93 132.552C420.93 130.661 419.438 129.128 417.597 129.128L414.932 129.128C414.564 129.128 414.265 129.435 414.265 129.813C414.265 130.191 414.564 130.497 414.932 130.497Z" fill="#AAB4BE"/>
<path d="M401.07 132.551C401.07 134.442 402.562 135.975 404.403 135.975L407.601 135.975C407.969 135.975 408.267 135.668 408.267 135.29C408.267 134.912 407.969 134.605 407.601 134.605L404.403 134.605C403.298 134.605 402.403 133.685 402.403 132.551C402.403 131.416 403.298 130.497 404.402 130.497L410.267 130.497C411.371 130.497 412.266 131.416 412.266 132.551C412.266 132.929 412.564 133.235 412.932 133.235C413.3 133.235 413.599 132.929 413.599 132.551C413.599 130.66 412.107 129.127 410.267 129.127L404.402 129.127C402.562 129.127 401.07 130.66 401.07 132.551Z" fill="#AAB4BE"/>
<rect x="380.098" y="162" width="60.179" height="8" rx="4" fill="#F2F5F6"/>
<rect x="380.098" y="175" width="40.6208" height="4" rx="2" fill="#F2F5F6"/>
<rect x="160" y="202" width="18" height="6" rx="3" fill="#EBEFF2"/>
<rect x="183" y="202" width="112" height="6" rx="3" fill="#EBEFF2"/>
<rect x="160" y="272" width="18" height="5" rx="2.5" fill="#EBEFF2"/>
<rect x="183" y="272" width="125" height="5" rx="2.5" fill="#EBEFF2"/>
<rect x="160" y="219" width="61.0714" height="41.1429" rx="5" fill="#EBEFF2"/>
<path d="M190.468 250C196.221 250 200.885 245.523 200.885 240C200.885 234.477 196.221 230 190.468 230C184.715 230 180.052 234.477 180.052 240C180.052 245.523 184.715 250 190.468 250Z" fill="white"/>
<path d="M193.594 238.229L190.573 236.559C189.823 236.139 188.917 236.139 188.167 236.559C187.417 236.979 186.969 237.719 186.969 238.559V241.909C186.969 242.739 187.417 243.489 188.167 243.909C188.542 244.119 188.958 244.219 189.365 244.219C189.781 244.219 190.188 244.119 190.563 243.909L193.583 242.239C194.333 241.819 194.781 241.079 194.781 240.239C194.802 239.399 194.354 238.649 193.594 238.229Z" fill="#0061BF"/>
<rect x="228.071" y="219" width="36" height="41" rx="5" fill="#EBEFF2"/>
<rect x="271.071" y="219" width="41" height="41" rx="5" fill="#EBEFF2"/>
<path d="M365.511 370.298C369.951 362.047 388.762 364.48 409.209 345.228C421.009 334.015 425.916 324.389 429.188 309.792C431.992 297.521 442.624 256.372 461.435 254.785C469.03 254.151 476.741 254.997 483.401 258.276C492.631 262.93 499.875 270.441 504.899 278.798C510.04 287.154 513.078 296.357 515.648 305.666C519.153 318.571 521.607 327.668 519.854 340.785C516.817 363.105 501.277 382.886 477.208 388.069C452.906 393.359 430.941 391.56 402.198 391.243C391.216 391.243 356.281 387.435 365.511 370.298Z" fill="#D8DEE6"/>
<path d="M347.425 358.677L315.892 382.146L309.995 391.292L276.176 368.185C275.333 367.583 275.092 366.5 275.694 365.657C276.176 365.055 276.898 364.694 277.62 364.935L296.756 368.064L327.928 342.309" fill="#FFC6AD"/>
<path d="M273.408 365.779C274.491 364.937 275.212 364.252 276.778 364.335C283.637 364.693 296.756 368.066 296.756 368.066C303.015 377.333 315.893 382.147 315.893 382.147L309.995 395.145C309.755 395.506 309.153 395.627 308.792 395.386L271.001 369.871C271 368.303 272.325 366.622 273.408 365.779Z" fill="#292466"/>
<path d="M392.918 347.847L379.438 380.703L379.559 391.535L338.639 391.295C337.676 391.295 336.833 390.452 336.833 389.489C336.833 388.767 337.315 388.045 338.037 387.804L355.729 379.741L367.644 345.199" fill="#FFC6AD"/>
<path d="M335.149 390.812C335.51 389.488 336.353 388.044 337.075 387.683L355.85 379.619C366.201 383.832 379.56 380.582 379.56 380.582L381.967 394.663C381.967 395.145 381.606 395.506 381.124 395.506H335.39C334.548 395.506 335.149 390.812 335.149 390.812Z" fill="#292466"/>
<path d="M451.41 210.162C451.41 210.162 442.504 224.243 446.355 230.261C448.281 233.39 455.743 235.557 459.594 233.751C462.362 232.428 468.5 221.355 467.658 219.068C464.047 210.042 451.41 210.162 451.41 210.162Z" fill="#FFC6AD"/>
<path d="M468.139 230.021L468.981 240.974C468.981 240.974 462.001 258.305 449.484 242.659L450.086 230.623L468.139 230.021Z" fill="#FFC6AD"/>
<path d="M471.99 226.651C473.314 223.521 474.397 221.836 474.879 218.106C475.481 214.134 472.231 212.93 472.231 212.93C472.231 212.93 472.833 213.412 471.028 209.921C469.343 206.672 463.806 206.792 460.436 206.311C455.983 205.589 449.484 201.737 446.957 203.422C445.874 204.145 445.874 211.005 449.364 212.93C451.41 214.014 454.78 213.412 457.187 213.773C461.64 214.495 462.603 215.458 463.205 218.226C463.445 219.79 466.454 219.55 464.769 222.679C464.528 223.16 464.408 223.642 464.408 224.003L466.213 225.206C468.5 226.771 463.566 230.622 463.927 232.548C464.167 233.511 466.093 233.992 467.898 233.15C469.463 232.428 470.666 230.141 471.99 226.651Z" fill="#292466"/>
<path d="M464.89 225.448C466.936 223.402 468.26 223.884 468.862 225.207C469.704 226.892 467.297 230.142 466.214 230.623C464.168 231.586 462.603 231.345 462.603 229.661" fill="#FFC6AD"/>
<path d="M449.966 233.751C456.706 235.195 460.196 233.27 460.196 233.27" stroke="#FFA781" stroke-width="0.75" stroke-miterlimit="10" stroke-linejoin="round"/>
<path d="M452.253 218.707C452.253 218.707 449.003 222.197 449.124 223.28C449.124 224.364 451.772 224.965 451.772 224.965" stroke="#6D221D" stroke-width="0.75" stroke-miterlimit="10"/>
<path d="M450.327 217.261C450.207 217.623 450.086 217.984 449.966 218.224C449.725 218.826 448.883 218.345 449.124 217.743C449.244 217.502 449.364 217.141 449.605 216.9C449.846 216.539 450.447 216.78 450.327 217.261Z" fill="#212237"/>
<path d="M452.132 215.697C452.132 215.697 451.289 214.012 449.484 214.975" stroke="#212237" stroke-width="0.5" stroke-miterlimit="10" stroke-linecap="round" stroke-linejoin="round"/>
<path d="M458.029 220.513C457.909 220.874 457.789 221.115 457.668 221.476C457.428 222.077 456.465 221.837 456.705 221.235C456.826 220.874 456.946 220.513 457.187 220.272C457.548 219.791 458.15 220.031 458.029 220.513Z" fill="#212237"/>
<path d="M457.428 217.384C457.428 217.384 459.233 217.144 460.678 219.43" stroke="#212237" stroke-width="0.5" stroke-miterlimit="10" stroke-linecap="round" stroke-linejoin="round"/>
<path d="M417.229 264.681C417.229 264.681 406.517 285.262 403.388 285.743C399.657 286.225 370.05 264.32 370.05 264.32L358.135 278.763C358.135 278.763 385.817 312.341 404.471 312.341C423.126 312.341 440.457 278.763 440.457 278.763" fill="#FFC6AD"/>
<path d="M468.981 240.852C468.981 240.852 466.213 245.786 458.27 245.425C452.132 245.184 449.484 242.657 449.484 242.657C449.484 242.657 431.311 247.351 427.7 271.301C424.451 293.566 420.238 331.718 420.238 331.718L489.321 336.412C489.321 336.412 491.006 311.379 488.478 282.253C486.673 260.349 468.981 240.852 468.981 240.852Z" fill="#80BFFE"/>
<path d="M470.667 316.193L433.478 316.675V318.961L472.713 318.36C472.713 317.156 471.87 316.193 470.667 316.193Z" fill="#DCDDEF"/>
<path d="M388.225 319.684L440.458 318.962L429.987 284.06C429.506 282.254 427.941 281.051 426.136 281.051L378.958 281.773C377.874 281.773 377.152 282.856 377.513 283.939L388.225 319.684Z" fill="#292466"/>
<path d="M385.817 319.684L438.051 318.962L427.58 284.06C427.099 282.254 425.534 281.051 423.729 281.051L376.55 281.773C375.467 281.773 374.745 282.856 375.106 283.939L385.817 319.684Z" fill="#292466"/>
<path d="M400.982 298.864C401.343 300.549 403.148 301.753 405.074 301.753C406.999 301.753 408.323 300.429 407.962 298.744C407.601 297.059 405.796 295.855 403.87 295.855C401.944 295.855 400.621 297.179 400.982 298.864Z" fill="#DCDDEF"/>
<path d="M449.484 242.536C442.624 242.055 433.718 243.74 428.904 246.989C416.026 255.414 410.61 273.347 410.61 273.347L428.423 277.92" fill="#5BA7F4"/>
<path d="M476.679 281.695C476.679 281.695 481.576 298.884 480.437 302.729C479.526 305.556 454.587 309.175 454.587 309.175L453.334 325.686C453.334 325.686 497.519 328.513 503.896 320.597C512.665 309.741 502.644 276.832 502.644 276.832" fill="#FFC6AD"/>
<path d="M460.334 308.871C456.712 308.984 437.357 309.89 437.47 310.908C437.583 311.814 443.016 312.493 442.79 312.946C442.45 313.625 438.262 313.965 435.885 313.965C433.735 313.965 430.339 314.304 430.226 315.21C429.999 317.021 441.658 316.907 441.658 316.907C441.658 316.907 429.094 314.644 428.754 316.115C428.302 318.153 441.658 320.077 441.997 320.643C441.997 320.643 430.905 315.776 430.452 317.36C430.113 318.945 439.96 323.472 443.129 323.699C440.526 323.02 433.056 317.813 432.829 319.284C432.603 320.756 439.281 323.812 440.3 324.038C449.355 326.076 457.957 325.397 457.957 325.397" fill="#FFC6AD"/>
<path d="M426.738 318.355C428.303 318.717 429.867 318.957 431.552 319.198C432.395 319.318 433.117 319.318 433.959 319.318C434.802 319.318 435.524 319.318 436.366 319.198C434.802 318.837 433.237 318.717 431.552 318.596C429.867 318.355 428.303 318.355 426.738 318.355Z" fill="#6D221D"/>
<path d="M427.821 320.643C429.386 321.365 431.071 321.846 432.876 322.207C433.719 322.328 434.561 322.568 435.524 322.689C436.367 322.809 437.329 322.809 438.172 322.809C434.561 322.087 431.312 321.124 427.821 320.643Z" fill="#6D221D"/>
<path d="M429.746 322.928C431.19 323.65 432.635 324.131 434.079 324.613C434.801 324.853 435.644 324.974 436.366 325.094C437.088 325.214 437.93 325.335 438.652 325.335C437.208 324.853 435.644 324.372 434.199 324.011C432.755 323.65 431.19 323.168 429.746 322.928Z" fill="#6D221D"/>
<path d="M468.983 240.852C468.983 240.852 482.944 241.814 488.239 245.786C502.441 256.497 505.69 277.439 505.69 277.439L474.399 285.623L468.983 268.412" fill="#5BA7F4"/>
<path d="M377.994 270.338C377.994 270.338 357.414 254.331 356.331 254.692C355.247 255.053 358.136 258.062 357.293 258.183C356.451 258.303 349.832 251.563 348.869 252.165C347.545 253.007 354.285 259.386 354.285 259.386C354.285 259.386 346.462 252.767 345.619 253.85C345.017 254.572 352.6 261.914 352.6 261.914C352.6 261.914 344.897 256.257 344.175 256.979C343.573 257.701 350.433 264.2 350.433 264.2C350.433 264.2 345.017 259.507 344.175 260.229C343.332 261.071 354.766 275.634 364.635 285.503" fill="#FFC6AD"/>
<path d="M459.233 363.01C459.233 363.01 461.159 374.203 449.725 373.481C422.044 371.675 377.995 338.698 377.995 338.698L324.438 380.1L302.413 356.631C302.413 356.631 338.639 326.422 349.351 318.238C353.804 314.869 362.951 307.166 373.301 307.768C383.651 308.49 441.902 331.116 441.902 331.116" fill="#264B89"/>
<path d="M487.035 336.172C487.035 336.172 491.729 377.092 457.669 374.806C433.718 373.241 403.51 339.061 403.51 339.061L384.975 380.944L353.443 371.556C353.443 371.556 368.968 332.562 374.264 319.443C378.837 308.25 386.901 299.344 395.085 298.261C403.269 297.178 411.814 300.909 422.044 306.806C430.228 311.62 455.743 334.006 455.743 334.006" fill="#3A67B3"/>
<ellipse opacity="0.1" cx="292.5" cy="398" rx="260.5" ry="3" fill="#FF7300"/>
<path d="M192.699 171.402C192.699 171.402 190.867 162.385 197.266 163.502C202.364 164.38 196.522 172.307 196.522 172.307" fill="#FFCBC2"/>
<path d="M127.329 174.809C136.542 165.366 170.209 205.16 192.698 171.404L196.522 172.309C196.522 172.309 194.849 210.534 148.145 199.308C148.145 199.308 112.885 189.626 127.329 174.809Z" fill="url(#paint2_linear_15040_13026)"/>
<path d="M147.004 209.895H107.814C107.814 209.895 93.9811 216.89 91.2994 250.567C88.1132 290.867 38.9668 336.726 38.9668 336.726L48.6049 363.593C48.6049 363.593 116.178 353.245 127.197 251.95C127.197 251.95 135.985 341.541 133.914 386.336H164.183C164.183 386.336 169.705 269.187 147.004 209.895Z" fill="#3A67B3"/>
<path d="M107.814 209.896C107.814 209.896 97.5116 172.682 126.745 172.682C148.225 172.682 146.977 209.896 146.977 209.896H107.814Z" fill="url(#paint3_linear_15040_13026)"/>
<path d="M120.983 177.31C135.029 171.538 157.677 220.403 196.07 196.25L200.053 198.404C200.053 198.404 183.405 233.836 135.029 207.449C135.029 207.422 98.9723 186.354 120.983 177.31Z" fill="url(#paint4_linear_15040_13026)"/>
<path d="M156.987 386.336L169.997 397.508H140.711V386.336H156.987Z" fill="#FFB156"/>
<path d="M47.0116 357.289L40.9844 373.355L30.9746 345.797L41.4358 341.967L47.0116 357.289Z" fill="#FFB156"/>
<path d="M196.097 196.221C196.097 196.221 195.884 187.044 201.619 188.72C207.354 190.396 200.053 198.376 200.053 198.376" fill="#FFCBC2"/>
<path d="M126.825 151.852C115.434 151.799 111.823 160.47 110.15 172.973L138.507 169.94C138.507 169.94 139.994 151.878 126.825 151.852Z" fill="#202F87"/>
<path d="M125.684 156.374C129.719 154.592 134.313 156.747 135.561 161.003C137.047 166.057 137.419 172.814 130.118 175.021C119.709 178.134 114.32 161.402 125.684 156.374Z" fill="#FFCBC2"/>
<path d="M118.938 164.302L136.914 162.227C136.914 162.227 134.126 153.423 126.824 154.46C119.496 155.497 118.938 164.302 118.938 164.302Z" fill="#202F87"/>
<path d="M123.798 150.469C123.798 152.943 121.807 154.938 119.338 154.938C116.868 154.938 114.877 152.943 114.877 150.469C114.877 147.995 116.868 146 119.338 146C121.807 146 123.798 147.995 123.798 150.469Z" fill="#202F87"/>
<path d="M122.47 160.125C122.47 160.125 121.01 166.988 125.47 171.351L114.345 172.468C114.319 172.468 115.221 159.753 122.47 160.125Z" fill="#202F87"/>
<path d="M127.196 251.95C127.196 251.95 129.533 239.341 131.737 228.967L128.869 270.65L127.196 251.95Z" fill="#27519A"/>
<g filter="url(#filter2_d_15040_13026)">
<path d="M327.514 233.659L350.37 193.705C350.749 193.006 351.538 192.819 352.237 193.198L375.422 205.996L377.296 219.04L359.45 250.662C358.73 251.954 357.114 252.433 355.822 251.714L328.075 236.025C327.31 235.501 326.991 234.424 327.514 233.659Z" fill="white"/>
</g>
<path d="M375.422 205.997L370.061 215.277L377.297 219.04L375.422 205.997Z" fill="#D8DEE6"/>
<path d="M366.405 211.881C366.299 211.842 366.299 211.842 366.194 211.803L352.207 203.617C351.997 203.538 351.903 203.144 351.981 202.933C352.059 202.722 352.454 202.629 352.665 202.707L366.651 210.894C366.862 210.972 366.955 211.366 366.877 211.577C366.865 211.932 366.615 211.959 366.405 211.881Z" fill="#D8DEE6"/>
<path d="M369.322 222.435C369.217 222.396 369.217 222.396 369.112 222.357L348.744 210.365C348.534 210.286 348.44 209.892 348.518 209.681C348.597 209.471 348.991 209.377 349.202 209.455L369.569 221.448C369.78 221.526 369.873 221.92 369.795 222.131C369.783 222.486 369.533 222.513 369.322 222.435Z" fill="#D8DEE6"/>
<path d="M364.275 230.873C364.169 230.834 364.169 230.834 364.064 230.794L343.697 218.802C343.486 218.724 343.392 218.33 343.471 218.119C343.549 217.908 343.943 217.815 344.154 217.893L364.521 229.885C364.732 229.963 364.825 230.358 364.747 230.568C364.669 230.779 364.485 230.951 364.275 230.873Z" fill="#D8DEE6"/>
<path d="M359.827 238.334C359.722 238.295 359.722 238.295 359.616 238.255L339.249 226.263C339.039 226.185 338.945 225.79 339.023 225.58C339.101 225.369 339.496 225.275 339.707 225.354L360.074 237.346C360.285 237.424 360.378 237.819 360.3 238.029C360.288 238.385 360.038 238.412 359.827 238.334Z" fill="#D8DEE6"/>
<path d="M356.233 244.793C356.127 244.753 356.127 244.753 356.022 244.714L335.655 232.722C335.444 232.644 335.35 232.249 335.429 232.039C335.507 231.828 335.901 231.734 336.112 231.813L356.479 243.805C356.69 243.883 356.783 244.278 356.705 244.488C356.732 244.738 356.482 244.765 356.233 244.793Z" fill="#D8DEE6"/>
</g>
<defs>
<filter id="filter0_d_15040_13026" x="104.613" y="43.5566" width="397.686" height="325.021" filterUnits="userSpaceOnUse" color-interpolation-filters="sRGB">
<feFlood flood-opacity="0" result="BackgroundImageFix"/>
<feColorMatrix in="SourceAlpha" type="matrix" values="0 0 0 0 0 0 0 0 0 0 0 0 0 0 0 0 0 0 127 0" result="hardAlpha"/>
<feOffset dy="15"/>
<feGaussianBlur stdDeviation="20"/>
<feComposite in2="hardAlpha" operator="out"/>
<feColorMatrix type="matrix" values="0 0 0 0 0.117647 0 0 0 0 0.129412 0 0 0 0 0.176471 0 0 0 0.09 0"/>
<feBlend mode="normal" in2="BackgroundImageFix" result="effect1_dropShadow_15040_13026"/>
<feBlend mode="normal" in="SourceGraphic" in2="effect1_dropShadow_15040_13026" result="shape"/>
</filter>
<filter id="filter1_d_15040_13026" x="-16.5201" y="1.42466" width="183.822" height="132.041" filterUnits="userSpaceOnUse" color-interpolation-filters="sRGB">
<feFlood flood-opacity="0" result="BackgroundImageFix"/>
<feColorMatrix in="SourceAlpha" type="matrix" values="0 0 0 0 0 0 0 0 0 0 0 0 0 0 0 0 0 0 127 0" result="hardAlpha"/>
<feOffset dy="12.9452"/>
<feGaussianBlur stdDeviation="17.2603"/>
<feComposite in2="hardAlpha" operator="out"/>
<feColorMatrix type="matrix" values="0 0 0 0 0.117647 0 0 0 0 0.129412 0 0 0 0 0.176471 0 0 0 0.08 0"/>
<feBlend mode="normal" in2="BackgroundImageFix" result="effect1_dropShadow_15040_13026"/>
<feBlend mode="normal" in="SourceGraphic" in2="effect1_dropShadow_15040_13026" result="shape"/>
</filter>
<filter id="filter2_d_15040_13026" x="287.257" y="168.006" width="130.039" height="139.043" filterUnits="userSpaceOnUse" color-interpolation-filters="sRGB">
<feFlood flood-opacity="0" result="BackgroundImageFix"/>
<feColorMatrix in="SourceAlpha" type="matrix" values="0 0 0 0 0 0 0 0 0 0 0 0 0 0 0 0 0 0 127 0" result="hardAlpha"/>
<feOffset dy="15"/>
<feGaussianBlur stdDeviation="20"/>
<feComposite in2="hardAlpha" operator="out"/>
<feColorMatrix type="matrix" values="0 0 0 0 0.117647 0 0 0 0 0.129412 0 0 0 0 0.176471 0 0 0 0.09 0"/>
<feBlend mode="normal" in2="BackgroundImageFix" result="effect1_dropShadow_15040_13026"/>
<feBlend mode="normal" in="SourceGraphic" in2="effect1_dropShadow_15040_13026" result="shape"/>
</filter>
<linearGradient id="paint0_linear_15040_13026" x1="242.464" y1="4.15713" x2="242.464" y2="454" gradientUnits="userSpaceOnUse">
<stop stop-color="#FF7300"/>
<stop offset="1" stop-color="#FF7300" stop-opacity="0"/>
</linearGradient>
<linearGradient id="paint1_linear_15040_13026" x1="386.661" y1="14.5263" x2="357.974" y2="14.5263" gradientUnits="userSpaceOnUse">
<stop stop-color="#FAB882"/>
<stop offset="0.484375" stop-color="#FF7300"/>
</linearGradient>
<linearGradient id="paint2_linear_15040_13026" x1="196.496" y1="186.56" x2="123.789" y2="186.56" gradientUnits="userSpaceOnUse">
<stop stop-color="#FAB882"/>
<stop offset="0.484375" stop-color="#FF7300"/>
</linearGradient>
<linearGradient id="paint3_linear_15040_13026" x1="146.976" y1="191.502" x2="106.016" y2="191.502" gradientUnits="userSpaceOnUse">
<stop stop-color="#FAB882"/>
<stop offset="1" stop-color="#FF7300"/>
</linearGradient>
<linearGradient id="paint4_linear_15040_13026" x1="200.023" y1="197.256" x2="113.787" y2="197.256" gradientUnits="userSpaceOnUse">
<stop stop-color="#FF7300"/>
<stop offset="1" stop-color="#FAB882"/>
</linearGradient>
<clipPath id="clip0_15040_13026">
<rect width="520" height="416" fill="white"/>
</clipPath>
</defs>
</svg>
