<svg width="20" height="20" viewBox="0 0 20 20" fill="none" xmlns="http://www.w3.org/2000/svg">
<g clip-path="url(#clip0_162_47603)">
<path d="M12.5175 5.83237L12.7975 4.13154C12.8709 3.68252 12.8222 3.22203 12.6565 2.7983C12.4908 2.37458 12.2142 2.00322 11.8556 1.72314C11.4971 1.44307 11.0698 1.26458 10.6185 1.20638C10.1673 1.14819 9.70871 1.21243 9.29083 1.39237C8.7133 1.65154 8.24935 2.11135 7.985 2.68654L6.43083 5.83237H2.5C1.83696 5.83237 1.20107 6.09576 0.732233 6.5646C0.263392 7.03344 0 7.66933 0 8.33237L0 15.8324C0 16.4954 0.263392 17.1313 0.732233 17.6001C1.20107 18.069 1.83696 18.3324 2.5 18.3324H18.3483L20 9.13487L20.0133 5.83237H12.5175ZM1.66667 15.8324V8.33237C1.66667 8.11135 1.75446 7.89939 1.91074 7.74311C2.06702 7.58683 2.27899 7.49903 2.5 7.49903H5.83333V16.6657H2.5C2.27899 16.6657 2.06702 16.5779 1.91074 16.4216C1.75446 16.2653 1.66667 16.0534 1.66667 15.8324ZM18.3333 8.9157L16.9417 16.6657H7.5V7.4232L9.51583 3.33987C9.58409 3.21636 9.68069 3.11082 9.79768 3.03191C9.91468 2.95301 10.0487 2.903 10.1888 2.886C10.3289 2.869 10.471 2.88548 10.6035 2.93411C10.736 2.98273 10.855 3.06211 10.9508 3.1657C11.0327 3.26091 11.0926 3.37301 11.1261 3.49401C11.1597 3.61501 11.1661 3.74192 11.145 3.8657L10.5458 7.49903H18.3333V8.9157Z" fill="#009FD3"/>
</g>
<defs>
<clipPath id="clip0_162_47603">
<rect width="20" height="20" fill="white"/>
</clipPath>
</defs>
</svg>
