<svg width="20" height="20" viewBox="0 0 20 20" fill="none" xmlns="http://www.w3.org/2000/svg">
<g clip-path="url(#clip0_162_47606)">
<path d="M20 11.845L18.3333 2.5H2.5C1.83696 2.5 1.20107 2.76339 0.732233 3.23223C0.263392 3.70107 0 4.33696 0 5L0 12.5C0 13.163 0.263392 13.7989 0.732233 14.2678C1.20107 14.7366 1.83696 15 2.5 15H6.42667L8.02167 18.2325C8.29064 18.7761 8.7458 19.205 9.30434 19.4413C9.86289 19.6776 10.4877 19.7055 11.0651 19.52C11.6425 19.3345 12.1341 18.9479 12.4505 18.4305C12.767 17.9131 12.8871 17.2993 12.7892 16.7008L12.5092 15H20V11.845ZM1.66667 12.5V5C1.66667 4.77899 1.75446 4.56702 1.91074 4.41074C2.06702 4.25446 2.27899 4.16667 2.5 4.16667H5.83333V13.3333H2.5C2.27899 13.3333 2.06702 13.2455 1.91074 13.0893C1.75446 12.933 1.66667 12.721 1.66667 12.5ZM18.3333 13.3333H10.5458L11.145 16.9708C11.1661 17.0946 11.1597 17.2215 11.1261 17.3425C11.0926 17.4635 11.0327 17.5756 10.9508 17.6708C10.8547 17.7742 10.7355 17.8532 10.603 17.9015C10.4704 17.9499 10.3283 17.9661 10.1882 17.9488C10.0482 17.9316 9.91424 17.8814 9.79735 17.8024C9.68047 17.7233 9.58399 17.6177 9.51583 17.4942L7.5 13.4092V4.16667H16.9417L18.3333 11.9167V13.3333Z" fill="#374957"/>
</g>
<defs>
<clipPath id="clip0_162_47606">
<rect width="20" height="20" fill="white"/>
</clipPath>
</defs>
</svg>
