<svg width="484" height="470" viewBox="0 0 484 470" fill="none" xmlns="http://www.w3.org/2000/svg">
<g clip-path="url(#clip0_14915_14515)">
<circle cx="261" cy="226" r="223" fill="url(#paint0_linear_14915_14515)"/>
<path opacity="0.08" d="M250 463C379.235 463 484 449.121 484 432C484 414.879 379.235 401 250 401C120.765 401 16 414.879 16 432C16 449.121 120.765 463 250 463Z" fill="#FF7300"/>
<g filter="url(#filter0_d_14915_14515)">
<path d="M149.586 377H3.41423C1.49372 377 0 375.498 0 373.566V286.434C0 284.502 1.49372 283 3.41423 283H149.586C151.506 283 153 284.502 153 286.434V373.566C153 375.498 151.506 377 149.586 377Z" fill="white"/>
</g>
<path d="M152.893 295H0V287.267C0 284.867 1.49372 283 3.41422 283H149.586C151.506 283 153 284.867 153 287.267V295H152.893Z" fill="#C6E2FD"/>
<g opacity="0.45">
<path d="M63.7207 315.526V316.491V333.535C63.7207 333.75 63.9351 333.964 64.1495 333.964L84.3031 333.857V317.027C84.3031 316.598 83.9815 316.276 83.5527 316.276H76.5847H68.6519L68.3303 315.74L67.9015 314.99C67.7943 314.775 67.6871 314.775 67.4727 314.775H64.0423C63.9351 314.99 63.7207 315.204 63.7207 315.526Z" fill="#357DED"/>
<path d="M86.982 318.957H65.6492L64.1484 333.429H85.4812L86.982 318.957Z" fill="white"/>
<path d="M64.4702 334.285L86.1246 334.392C86.4462 334.392 86.6606 334.178 86.6606 333.964L88.8046 323.565L89.3406 321.1C89.4478 320.671 89.019 320.242 88.5902 320.242H88.0542L66.9358 320.135C66.6142 320.135 66.3998 320.349 66.3998 320.564L63.9342 332.677L63.827 332.999L63.7198 333.428C63.6126 333.856 63.9342 334.285 64.4702 334.285Z" fill="#357DED"/>
</g>
<g opacity="0.45">
<path d="M106.172 315.526V316.491V333.535C106.172 333.75 106.386 333.964 106.601 333.964L126.754 333.857V317.027C126.754 316.598 126.433 316.276 126.004 316.276H119.036H111.103L110.781 315.74L110.353 314.99C110.245 314.775 110.138 314.775 109.924 314.775H106.493C106.386 314.99 106.172 315.204 106.172 315.526Z" fill="#93BBE5"/>
<path d="M129.433 318.957H108.1L106.6 333.429H128.04L129.433 318.957Z" fill="white"/>
<path d="M106.921 334.285L128.576 334.392C128.897 334.392 129.112 334.178 129.112 333.964L131.256 323.565L131.792 321.1C131.899 320.671 131.47 320.242 131.041 320.242H130.505L109.387 320.135C109.065 320.135 108.851 320.349 108.851 320.564L106.385 332.677L106.278 332.999L106.171 333.428C106.064 333.856 106.493 334.285 106.921 334.285Z" fill="#93BBE5"/>
</g>
<g opacity="0.45">
<path d="M63.7207 344.899V345.864V362.909C63.7207 363.123 63.9351 363.338 64.1495 363.338L84.3031 363.23V346.4C84.3031 345.971 83.9815 345.65 83.5527 345.65H76.5847H68.6519L68.4375 345.328L68.0087 344.578C67.9015 344.363 67.7943 344.363 67.5799 344.363H64.1495C63.9351 344.363 63.7207 344.578 63.7207 344.899Z" fill="#F89D13"/>
<path d="M86.982 348.33H65.6492L64.1484 362.802H85.4812L86.982 348.33Z" fill="white"/>
<path d="M64.4702 363.66L86.1246 363.767C86.4462 363.767 86.6606 363.553 86.6606 363.339L88.8046 352.94L89.3406 350.475C89.4478 350.046 89.019 349.617 88.5902 349.617H88.0542L66.9358 349.51C66.6142 349.51 66.3998 349.724 66.3998 349.939L63.9342 362.052L63.827 362.374L63.7198 362.803C63.6126 363.231 63.9342 363.66 64.4702 363.66Z" fill="#F89D13"/>
</g>
<g opacity="0.45">
<path d="M106.172 344.899V345.864V362.908C106.172 363.123 106.386 363.337 106.601 363.337L126.754 363.23V346.4C126.754 345.971 126.433 345.649 126.004 345.649H119.036H111.103L110.781 345.113L110.353 344.363C110.245 344.148 110.138 344.148 109.924 344.148H106.493C106.386 344.363 106.172 344.577 106.172 344.899Z" fill="#93BBE5"/>
<path d="M129.433 348.33H108.1L106.6 362.802H128.04L129.433 348.33Z" fill="white"/>
<path d="M106.921 363.658L128.576 363.765C128.897 363.765 129.112 363.551 129.112 363.337L131.256 352.938L131.792 350.473C131.899 350.044 131.47 349.615 131.041 349.615H130.505L109.387 349.508C109.065 349.508 108.851 349.722 108.851 349.937L106.385 362.05L106.278 362.372L106.171 362.801C106.064 363.229 106.493 363.658 106.921 363.658Z" fill="#93BBE5"/>
</g>
<path d="M40.4565 307.449H10.9765C9.90448 307.449 9.04688 306.591 9.04688 305.519C9.04688 304.447 9.90448 303.59 10.9765 303.59H40.4565C41.5285 303.59 42.3861 304.447 42.3861 305.519C42.3861 306.591 41.5285 307.449 40.4565 307.449Z" fill="#EBEFF2"/>
<path d="M47.627 321H11.373C10.0547 321 9 320.111 9 319C9 317.889 10.0547 317 11.373 317H47.627C48.9453 317 50 317.889 50 319C50 320.111 48.9453 321 47.627 321Z" fill="#EBEFF2"/>
<path d="M41.9743 335H11.0257C9.90033 335 9 334.111 9 333C9 331.889 9.90033 331 11.0257 331H41.9743C43.0997 331 44 331.889 44 333C44 334.111 43.0997 335 41.9743 335Z" fill="#EBEFF2"/>
<path d="M47.627 349H11.373C10.0547 349 9 348.111 9 347C9 345.889 10.0547 345 11.373 345H47.627C48.9453 345 50 345.889 50 347C50 348 48.9453 349 47.627 349Z" fill="#EBEFF2"/>
<path d="M40.4565 362.656H10.9765C9.90448 362.656 9.04688 361.798 9.04688 360.726C9.04688 359.654 9.90448 358.797 10.9765 358.797H40.4565C41.5285 358.797 42.3861 359.654 42.3861 360.726C42.3861 361.798 41.5285 362.656 40.4565 362.656Z" fill="#EBEFF2"/>
<path d="M133.934 305.449H56.7499C55.6779 305.449 54.8203 304.591 54.8203 303.519C54.8203 302.447 55.6779 301.59 56.7499 301.59H133.934C135.006 301.59 135.864 302.447 135.864 303.519C135.864 304.591 135.006 305.449 133.934 305.449Z" fill="#EAF4FE"/>
<circle opacity="0.2" cx="9" cy="289" r="2" fill="#0061BF"/>
<circle opacity="0.2" cx="15" cy="289" r="2" fill="#0061BF"/>
<circle opacity="0.2" cx="21" cy="289" r="2" fill="#0061BF"/>
<path fill-rule="evenodd" clip-rule="evenodd" d="M120.363 152.97L124.33 149.325L125.294 146.109C128.618 135.925 135.157 126.92 143.733 120.595L145.877 119.094L141.91 122.739L139.766 124.24C130.011 131.422 123.472 141.392 120.363 152.97ZM210.304 132.602L214.27 128.957L214.699 106.766L210.733 110.411L210.304 132.602ZM233.995 102.693C231.851 100.656 229.922 98.8337 227.563 96.9041C198.941 73.6417 157.24 71.176 127.438 93.2592C129.904 91.8656 132.155 90.5793 134.728 89.4001C165.28 75.2497 201.835 80.7169 226.813 103.229L229.922 106.23L232.066 108.374L236.032 104.73L233.995 102.693Z" fill="#B2D0EE"/>
<path fill-rule="evenodd" clip-rule="evenodd" d="M204.729 204.64L208.696 200.996C203.443 205.605 197.654 208.928 191.008 211.18L190.257 211.394L186.291 215.039C193.366 212.788 199.048 209.572 204.729 204.64ZM331.118 125.098L335.085 121.453L337.657 101.621L314.609 96.0469L310.643 99.6917L333.691 105.266L331.118 125.098Z" fill="#FF9D4D"/>
<path fill-rule="evenodd" clip-rule="evenodd" d="M310.643 99.6917L314.61 96.0469L314.395 96.2613L314.181 96.4757L313.859 96.5829L313.645 96.7973L313.43 97.0117L313.216 97.2261L312.894 97.4405L312.68 97.5477L312.466 97.7621L312.251 97.9765L312.037 98.1909L308.07 101.836L308.285 101.621L308.499 101.407L308.714 101.192L308.928 100.978L309.25 100.764L309.464 100.656L309.678 100.442L309.893 100.228L310.214 100.013L310.429 99.7989L310.643 99.6917Z" fill="#5C93BC"/>
<path fill-rule="evenodd" clip-rule="evenodd" d="M331.011 199.602L310.964 201.424L306.998 205.069L327.044 203.247C329.832 205.712 331.976 207.535 335.084 209.571C357.489 223.722 387.505 218.683 403.8 197.565L404.336 196.815L408.302 193.17C400.048 204.104 388.256 211.287 374.641 213.323C359.74 215.575 344.304 211.287 332.94 201.317L331.011 199.602ZM432.636 213.216C440.462 206.141 444.536 196.279 447.537 186.309L428.027 194.027L417.2 173.338L413.233 176.983L424.06 197.672L443.571 189.954L442.392 193.599C440.033 200.781 436.924 206.892 432.636 213.216Z" fill="#B2D0EE"/>
<path fill-rule="evenodd" clip-rule="evenodd" d="M445.072 184.272L449.038 180.627L450.003 175.482C455.363 140.963 439.176 106.445 408.624 89.0784C382.038 73.9632 348.806 74.392 322.757 90.3648L319.648 92.4016L315.682 96.0464C319.005 93.9024 321.578 92.2944 325.222 90.472C356.203 75.0352 394.152 80.1808 419.773 103.658C441.427 123.382 451.075 152.97 445.715 181.699L445.072 184.272Z" fill="#88BBED"/>
<path fill-rule="evenodd" clip-rule="evenodd" d="M322.649 198.852L326.615 195.207L293.491 162.082L289.739 165.834L322.649 198.852ZM301.852 224.258L305.819 220.613L306.247 197.136L302.281 200.781L301.852 224.258ZM240.534 109.232L219.308 111.162L215.342 114.807L236.567 112.877L266.583 142.893L270.335 139.141L240.534 109.232Z" fill="#77B5F0"/>
<path fill-rule="evenodd" clip-rule="evenodd" d="M201.192 244.412L205.158 240.767L208.374 221.578L180.288 213.646C170.962 214.61 162.278 213.431 153.595 209.679C132.691 200.674 120.47 179.02 123.043 156.401L123.258 154.9L105.034 162.082L93.1344 139.57L89.168 143.215L101.067 165.727L119.291 158.545C119.077 158.866 118.862 163.69 118.755 164.441C117.898 195.529 143.947 219.97 174.821 217.398L176.214 217.29L204.301 225.223L201.192 244.412Z" fill="#88BBED"/>
<path fill-rule="evenodd" clip-rule="evenodd" d="M133.763 129.385C153.81 109.339 186.827 109.339 206.874 129.385L210.197 132.708L210.626 110.518L232.173 108.588L230.029 106.444C197.226 73.641 143.519 73.641 110.715 106.444C101.818 115.342 95.2787 125.847 91.2051 137.103L103.211 159.937L120.363 153.183C122.615 144.286 127.01 136.139 133.763 129.385Z" fill="#BED7EF"/>
<path fill-rule="evenodd" clip-rule="evenodd" d="M133.763 202.496C121.864 190.597 117.04 174.196 119.184 158.544L100.96 165.727L89.0604 143.215C81.2348 171.623 88.4172 203.354 110.608 225.544C134.942 249.879 170.747 256.204 201.084 244.412L204.3 225.223L176.214 217.29C161.099 218.898 145.34 214.074 133.763 202.496Z" fill="#9AC4ED"/>
<path fill-rule="evenodd" clip-rule="evenodd" d="M266.584 188.989L301.853 224.258L302.282 200.674L322.65 198.852L289.739 165.941L266.584 188.989Z" fill="#7FBEFC"/>
<path fill-rule="evenodd" clip-rule="evenodd" d="M266.584 142.893L236.568 112.77L215.343 114.699L214.914 137.318L243.536 165.941L266.584 142.893Z" fill="#7FBEFC"/>
<path fill-rule="evenodd" clip-rule="evenodd" d="M336.371 121.453C356.203 109.661 382.467 112.341 399.405 129.278C410.232 140.106 415.163 154.578 414.413 168.835L426.419 191.669L445.179 184.272C451.183 157.043 443.679 127.349 422.56 106.338C393.616 77.3937 348.485 73.9633 315.789 96.0465L339.051 101.728L336.371 121.453Z" fill="#9AC4ED"/>
<path fill-rule="evenodd" clip-rule="evenodd" d="M399.404 202.496C379.572 222.328 347.197 222.542 327.044 203.246L306.997 205.069L306.568 228.76C339.586 258.347 390.828 257.275 422.559 225.544C432.85 215.253 439.818 203.032 443.677 189.954L424.167 197.672L413.34 176.982C411.303 186.309 406.693 195.314 399.404 202.496Z" fill="#BED7EF"/>
<path fill-rule="evenodd" clip-rule="evenodd" d="M230.029 225.544L266.584 188.989L289.632 165.941L326.187 129.386C327.688 127.885 329.296 126.491 331.011 125.098L333.584 105.266L310.536 99.6914C307.963 101.728 305.497 103.979 303.139 106.338L266.584 142.893L243.536 165.941L206.981 202.496C200.977 208.499 193.902 212.68 186.291 215.146L209.875 221.792L206.445 242.16C214.913 238.194 222.953 232.619 230.029 225.544Z" fill="#FFAF6D"/>
<path d="M227.244 377.274L243.967 392.39L257.582 382.634L265.836 392.39C282.667 388.102 294.673 382.742 304.428 376.846L293.815 370.306L258.654 366.447L227.244 377.274Z" fill="white"/>
<path d="M204.303 321.53C211.164 322.173 217.917 322.816 224.778 323.459L230.46 302.448L231.532 338.146L228.101 375.88C229.816 388.958 303.463 384.242 304.32 376.845C306.036 362.694 304.32 351.224 304.32 346.722C309.144 346.293 321.58 342.434 321.151 332.571C320.4 311.238 314.826 268.358 300.354 259.782C293.279 255.709 277.306 252.064 277.306 252.064L251.364 251.85C244.288 252.814 233.247 255.602 225.957 264.606C222.098 269.323 220.704 273.933 219.847 276.934C216.631 287.44 211.914 301.698 204.303 321.53Z" fill="url(#paint1_linear_14915_14515)"/>
<path d="M263 266L256.88 272.33C256.052 273.186 254.657 273.136 253.981 272.155C249.507 265.658 249.335 258.616 249.433 252.923L254 248.5L253.5 252C254.894 258.11 263 266 263 266Z" fill="white"/>
<path opacity="0.4" d="M304.321 346.723L262.084 351.225L249.863 357.55L304.857 356.371L304.321 346.723Z" fill="white"/>
<path d="M242.895 335.359C245.682 334.501 247.504 337.181 249.863 336.645C252.114 336.002 255.866 334.716 257.152 335.359C259.511 336.431 261.119 348.116 257.152 349.616C253.186 351.117 242.037 351.439 242.037 351.439C242.037 351.439 235.819 347.365 236.141 346.722C236.57 346.186 242.895 335.359 242.895 335.359Z" fill="#FFDECB"/>
<path d="M263 266L268.042 271.744C268.854 272.668 270.305 272.65 270.998 271.635C275.412 265.163 275.581 258.16 275.483 252.493L271.5 248L272 252C270.606 258.11 263 266 263 266Z" fill="white"/>
<path opacity="0.5" d="M289.527 283.26V320.565L257.152 335.359C257.152 335.359 264.442 354.977 258.439 366.447" stroke="#E96900" stroke-miterlimit="10"/>
<path d="M248.255 222.692C248.255 222.692 244.075 218.94 245.683 216.581C257.903 199.429 290.063 212.4 271.839 239.629C265.193 246.919 252.758 224.836 248.255 222.692Z" fill="#1E1A57"/>
<path d="M248.041 218.833C248.041 218.833 246.861 232.447 248.148 238.021C249.327 243.167 252.972 246.061 254.365 246.276L252.524 256.81C252.469 257.128 252.57 257.453 252.799 257.681C254.449 259.328 261.247 266 263 266C265.254 266 270.975 257.725 272.081 256.094C272.204 255.912 272.26 255.698 272.246 255.479L270.981 236.199C271.839 235.663 277.842 234.377 276.877 229.874C276.234 226.873 272.375 227.516 270.445 228.909C270.553 227.409 268.516 226.551 267.658 221.513C266.908 216.26 248.5 217.499 248.041 218.833Z" fill="#FFC6AD"/>
<path d="M254.366 246.169C254.366 246.169 264.657 250.135 270.124 239.951C270.124 239.951 268.838 252.494 253.723 249.706L254.366 246.169Z" fill="#F4B79C"/>
<path d="M271.518 232.66C271.476 232.66 271.435 232.644 271.393 232.618C271.246 232.526 271.112 232.34 271.172 232.177C271.246 231.977 271.512 231.975 271.709 231.893L275.27 230.409C275.362 230.363 275.455 230.357 275.53 230.382C275.728 230.447 275.811 230.761 275.701 230.938C275.608 231.089 275.4 231.087 275.237 231.156L271.724 232.619C271.659 232.646 271.589 232.66 271.518 232.66Z" fill="#292466"/>
<path d="M256.617 234.699C255.653 234.699 253.83 234.592 253.723 233.52C253.616 232.448 255.545 228.052 255.867 227.195C255.974 226.98 256.189 226.98 256.296 226.98C256.51 227.088 256.51 227.302 256.51 227.409C255.653 229.339 254.259 232.662 254.366 233.305C254.473 233.734 255.867 233.948 257.046 233.841C257.261 233.841 257.368 233.948 257.368 234.163C257.368 234.377 257.261 234.484 257.046 234.484C257.046 234.699 256.832 234.699 256.617 234.699Z" fill="#292466"/>
<path d="M250.721 228.588C250.721 229.231 251.149 229.767 251.685 229.767C252.221 229.767 252.757 229.338 252.757 228.695C252.757 228.052 252.329 227.516 251.793 227.516C251.257 227.516 250.828 227.944 250.721 228.588Z" fill="#292466"/>
<path d="M263.37 225.265C263.263 225.265 263.156 225.158 263.049 225.051C262.727 224.622 262.405 224.3 261.977 224.193C260.797 223.979 259.511 224.729 259.511 224.729C259.297 224.836 259.189 224.836 259.082 224.622C258.975 224.408 258.975 224.193 259.189 224.193C259.297 224.193 260.797 223.228 262.191 223.55C262.834 223.657 263.37 224.086 263.692 224.729C263.799 224.944 263.692 225.158 263.585 225.158C263.477 225.265 263.37 225.265 263.37 225.265Z" fill="#292466"/>
<path d="M253.079 224.514C252.972 224.514 252.865 224.514 252.865 224.407C252.865 224.407 252.114 223.764 251.364 223.871C251.042 223.871 250.828 224.086 250.613 224.407C250.506 224.514 250.292 224.622 250.077 224.514C249.97 224.407 249.863 224.193 249.97 223.978C250.292 223.55 250.721 223.228 251.257 223.228C252.329 223.121 253.186 223.978 253.293 223.978C253.401 224.086 253.401 224.3 253.293 224.514C253.293 224.514 253.186 224.514 253.079 224.514Z" fill="#292466"/>
<path d="M259.297 229.23C259.297 229.873 259.726 230.409 260.262 230.409C260.798 230.409 261.334 229.981 261.334 229.337C261.334 228.694 260.905 228.158 260.369 228.158C259.833 228.051 259.297 228.587 259.297 229.23Z" fill="#292466"/>
<path d="M181.361 375.773L158.957 318.1C156.92 313.168 160.565 307.701 165.817 307.701H235.712C238.821 307.701 241.715 309.738 242.68 312.847L261.976 371.056L284.488 371.164C286.31 371.164 287.811 373.951 287.811 375.773L263.048 375.452L181.361 375.773Z" fill="#051F39"/>
<circle cx="206" cy="341" r="10" fill="white"/>
<g clip-path="url(#clip1_14915_14515)">
<path fill-rule="evenodd" clip-rule="evenodd" d="M203.062 339.574C203.062 339.574 202.512 340.123 201.893 340.742C201.309 341.326 201 342.082 201 342.907C201 343.697 201.309 344.488 201.893 345.038C201.928 345.072 201.928 345.072 201.962 345.106C202.546 345.69 203.302 346 204.093 346C204.883 346 205.674 345.69 206.258 345.106C206.876 344.488 207.426 343.938 207.426 343.938C207.701 343.663 207.701 343.251 207.426 342.976C207.151 342.701 206.739 342.701 206.464 342.976C206.464 342.976 205.914 343.526 205.296 344.144C204.986 344.453 204.54 344.625 204.093 344.625C203.646 344.625 203.199 344.453 202.89 344.144L202.821 344.075C202.512 343.766 202.34 343.319 202.34 342.873C202.34 342.426 202.512 341.979 202.821 341.67C203.44 341.051 203.99 340.501 203.99 340.501C204.265 340.227 204.265 339.814 203.99 339.539C203.749 339.333 203.337 339.333 203.062 339.574Z" fill="#051F39"/>
<path fill-rule="evenodd" clip-rule="evenodd" d="M207.048 338.989L203.989 342.047C203.714 342.322 203.714 342.735 203.989 343.01C204.264 343.285 204.677 343.285 204.952 343.01L208.01 339.951C208.285 339.676 208.285 339.264 208.01 338.989C207.735 338.748 207.323 338.748 207.048 338.989Z" fill="#051F39"/>
<path fill-rule="evenodd" clip-rule="evenodd" d="M208.94 342.426C208.94 342.426 209.489 341.876 210.108 341.258C210.692 340.674 211.001 339.918 211.001 339.127C211.001 338.337 210.692 337.546 210.108 336.997C210.074 336.962 210.074 336.962 210.039 336.928C209.489 336.309 208.699 336 207.909 336C207.118 336 206.328 336.309 205.744 336.893C205.125 337.512 204.575 338.062 204.575 338.062C204.3 338.337 204.3 338.749 204.575 339.024C204.85 339.299 205.263 339.299 205.538 339.024C205.538 339.024 206.087 338.474 206.706 337.856C207.015 337.546 207.462 337.375 207.909 337.375C208.355 337.375 208.802 337.546 209.111 337.856L209.18 337.924C209.489 338.234 209.661 338.68 209.661 339.127C209.661 339.574 209.489 340.021 209.18 340.33C208.562 340.948 208.012 341.498 208.012 341.498C207.737 341.773 207.737 342.186 208.012 342.46C208.252 342.701 208.665 342.701 208.94 342.426Z" fill="#051F39"/>
</g>
<path d="M232.818 414.258L246.968 426.264L231.853 428.408L216.416 420.797L232.818 414.258Z" fill="#264B89"/>
<path d="M141.912 350.367C141.912 350.367 131.192 354.226 131.192 366.232C131.084 389.28 177.716 414.687 177.716 414.687L239.785 373.522L243.644 371.914C243.644 372.021 159.921 340.504 141.912 350.367Z" fill="#264B89"/>
<path opacity="0.2" d="M215 389.5C173.4 373.9 160.333 368.667 159 368" stroke="black" stroke-linecap="round"/>
<path d="M188.272 418.921C188.272 418.921 158.6 415.09 149.668 420.332C140.736 425.573 131.499 428.997 131.999 433.498C132.499 438 154.572 441.014 164.333 439.362C167.833 438.755 172.705 437.822 177.559 436.676C177.88 436.65 178.094 436.632 178.316 436.722C178.53 436.705 178.735 436.58 178.833 436.465C187.054 434.4 194.797 431.728 194.776 428.826C194.698 423.885 188.272 418.921 188.272 418.921Z" fill="#FFB156"/>
<path d="M171.82 417.474C171.82 417.474 259.51 360.014 263.048 358.728C266.585 357.549 275.268 351.867 283.952 354.226C292.635 356.584 300.353 364.41 304.32 375.773C306.571 382.312 307.643 393.354 308.072 401.608C308.608 411.578 305.606 421.44 299.067 428.944C296.065 432.374 292.42 435.376 288.132 436.662C287.168 436.984 286.31 437.198 285.345 437.413C268.729 441.058 251.684 433.554 242.465 419.403L240.428 416.294L182.219 437.091L171.82 417.474Z" fill="#3A67B3"/>
<path opacity="0.2" d="M242.5 415.5L276.5 399" stroke="black" stroke-linecap="round"/>
<path d="M236.499 418.999C236.499 418.999 207.385 407.799 205 413.999C202.448 420.634 209.597 432.714 229 434C248.403 435.286 257.151 431.5 257.151 423.799C257 417.5 236.499 418.999 236.499 418.999Z" fill="#FFB156"/>
<path opacity="0.08" d="M398 437C412.912 437 425 434.09 425 430.5C425 426.91 412.912 424 398 424C383.088 424 371 426.91 371 430.5C371 434.09 383.088 437 398 437Z" fill="#051F39"/>
<path d="M420.984 300.494C420.984 300.247 420.657 300 420.412 300C414.45 300.082 407.018 300.082 402.035 303.786C397.38 307.243 396.645 313.334 396.726 318.766C396.726 319.342 397.38 319.506 397.707 319.26C397.707 319.26 397.707 319.26 397.788 319.26C410.203 323.951 422.699 313.663 420.984 300.494Z" fill="#B7DBFF"/>
<path d="M392.235 324.938C392.317 320.741 391.337 316.543 388.151 313.663C384.476 310.37 379.249 308.477 374.92 306.173C374.512 305.926 373.777 306.337 374.022 306.913C375.982 311.934 375.655 318.025 379.167 322.305C382.107 326.008 387.008 327.243 391.418 325.844C391.663 325.761 391.745 325.597 391.827 325.432C391.99 325.432 392.235 325.268 392.235 324.938Z" fill="#B7DBFF"/>
<path d="M430.541 338.518C427.6 336.214 423.843 336.461 420.331 336.625C416.411 336.79 412.49 337.366 408.897 339.094C402.689 342.057 398.279 348.642 400.566 355.638C400.484 355.967 400.647 356.296 400.974 356.379C406.936 358.272 409.795 354.321 413.307 350.288C417.881 345.185 423.762 341.564 430.214 339.588C430.704 339.424 430.949 338.765 430.541 338.518Z" fill="#B7DBFF"/>
<path d="M444.753 353.332C444.672 353.332 444.59 353.25 444.508 353.25C441.976 352.18 439.771 350.122 437.484 348.065C434.952 345.925 432.42 343.785 429.48 343.291H429.398C428.01 343.044 426.54 343.126 424.988 343.62C418.617 345.76 414.778 352.427 414.125 358.765C414.125 358.929 414.125 359.011 414.207 359.094V359.176C414.125 359.505 414.288 359.999 414.778 360.081C420.251 360.74 425.56 360.081 430.868 358.929C435.606 357.941 440.914 357.118 444.998 354.402C445.407 354.155 445.243 353.579 444.753 353.332Z" fill="#B7DBFF"/>
<path d="M435.358 365.599C428.416 364.2 414.123 360.661 413.143 371.772C413.143 372.101 413.306 372.348 413.633 372.348C419.922 379.756 432.173 373.912 435.767 366.505C435.848 366.175 435.767 365.681 435.358 365.599Z" fill="#B7DBFF"/>
<path d="M391.337 343.211C389.459 339.096 385.212 334.898 381.046 333.334C380.638 333.17 380.229 333.581 380.229 333.91C380.311 341.976 378.351 354.734 387.09 359.178C387.172 359.178 387.254 359.178 387.254 359.261C387.499 359.59 388.07 359.754 388.315 359.261C391.011 354.405 393.869 348.726 391.337 343.211Z" fill="#B7DBFF"/>
<path d="M368.631 348.314C364.384 344.775 357.605 344.034 352.704 346.585C345.844 350.125 347.069 358.437 346.007 364.857C345.925 365.516 346.579 365.927 347.069 365.516C353.848 359.507 363.322 357.121 368.549 349.301C368.876 349.137 369.039 348.643 368.631 348.314Z" fill="#B7DBFF"/>
<path d="M368.713 354.734C368.549 354.404 368.223 354.404 367.896 354.487C367.733 354.24 367.406 354.157 367.079 354.322C363.649 356.215 359.647 358.849 358.993 362.964C358.177 367.902 360.954 372.758 361.28 377.614C361.362 378.273 362.342 378.52 362.505 377.779C363.404 373.088 368.223 370.948 369.938 366.75C371.49 363.293 370.673 357.861 368.713 354.734Z" fill="#B7DBFF"/>
<path d="M389.703 383.458C385.701 377.779 381.617 372.923 374.593 371.195C374.103 371.03 373.531 371.606 373.858 372.1C375.41 374.487 375.41 377.121 376.716 379.59C377.452 380.989 378.758 382.059 380.065 382.882C383.005 384.775 386.844 386.504 390.193 384.611C390.928 384.199 390.356 383.211 389.703 383.458Z" fill="#A1D1FF"/>
<path d="M398.768 376.793C398.768 376.71 398.768 376.71 398.686 376.628C395.909 372.184 395.827 366.587 391.989 362.801C391.662 362.472 391.253 362.554 391.008 362.965C389.13 366.011 388.231 369.55 389.702 372.924C391.335 376.546 394.684 377.534 398.359 377.945C399.013 377.945 399.094 377.122 398.768 376.793Z" fill="#B7DBFF"/>
<path d="M406.446 327.325C405.63 326.666 404.65 327.325 403.833 327.654C402.363 328.312 400.974 328.971 399.667 329.958C397.299 331.769 395.665 334.238 395.502 337.284C395.502 337.366 395.502 337.448 395.502 337.531C395.502 337.613 395.502 337.695 395.502 337.778C395.502 338.518 396.482 338.601 396.727 338.024C399.749 337.366 402.199 335.391 404.16 333.004C405.058 331.852 408.243 328.889 406.446 327.325Z" fill="#A1D1FF"/>
<path d="M407.836 377.286C407.754 377.203 407.673 377.121 407.591 376.957C408.408 371.524 408.734 365.269 403.425 362.141C403.099 361.895 402.609 362.141 402.527 362.553C401.057 368.232 402.772 374.158 407.019 378.191C407.509 378.767 408.408 377.862 407.836 377.286Z" fill="#B7DBFF"/>
<path d="M444.181 352.758C441.894 351.688 439.689 349.96 437.402 348.149C434.87 346.091 432.257 344.116 429.398 343.375H429.316C427.928 343.128 426.458 343.21 424.906 343.704C418.535 345.844 414.696 352.511 414.043 358.849C414.043 359.013 414.043 359.095 414.125 359.178V359.26C414.37 359.26 414.533 359.178 414.696 358.931C414.86 358.931 414.941 358.849 415.023 358.766C417.065 356.544 419.27 354.486 421.475 352.346C422.537 351.359 423.517 350.042 424.742 349.219C427.274 347.408 429.398 347.737 432.093 348.56C435.279 349.466 438.137 351.112 440.996 352.758C442.058 353.334 443.119 354.404 444.344 353.828C444.589 353.746 444.671 353.499 444.671 353.252C444.508 353.005 444.426 352.84 444.181 352.758Z" fill="#75BBFF"/>
<path opacity="0.5" d="M388.56 374.074C387.988 371.604 387.253 369.135 386.436 366.666C386.436 366.666 386.436 366.666 386.436 366.584C387.58 362.715 387.988 358.765 387.743 354.814C387.988 354.814 388.151 354.65 388.233 354.403C388.968 352.098 389.295 349.711 389.131 347.242C389.131 346.419 387.825 346.419 387.906 347.242C387.988 348.97 387.825 350.617 387.498 352.18C387.253 350.287 386.844 348.477 386.273 346.584C386.028 345.843 384.803 346.172 385.048 346.913C386.844 352.756 387.008 358.682 385.619 364.526C384.476 361.481 383.006 358.6 380.964 356.049C376.308 350.04 367.814 346.419 361.117 349.217C361.117 348.97 360.953 348.806 360.708 348.724C358.095 348.065 355.481 348.477 353.194 349.876C352.541 350.287 353.113 351.357 353.848 350.946C355.726 349.793 357.768 349.464 359.892 349.793C358.34 350.699 356.87 351.933 355.645 353.662C355.155 354.32 356.298 354.979 356.706 354.32C359.892 349.793 365.772 348.394 370.918 350.123C372.388 350.617 373.776 351.357 375.083 352.18C369.693 352.098 365.691 355.72 362.015 359.259C361.444 359.835 362.342 360.74 362.914 360.164C363.649 359.423 364.384 358.765 365.119 358.024C364.874 359.259 364.874 360.576 365.037 361.892C365.119 362.715 366.344 362.715 366.262 361.892C366.099 360.246 366.181 358.6 366.589 356.954C366.589 356.872 366.589 356.789 366.589 356.707C369.203 354.65 372.061 353.168 375.655 353.415C375.982 353.415 376.145 353.25 376.227 353.003C379.085 355.308 381.291 358.353 382.924 361.646C386.191 368.148 387.988 375.555 389.05 382.963C386.436 382.304 384.149 380.905 382.352 378.93C381.781 378.354 380.882 379.259 381.454 379.835C382.352 380.823 383.414 381.728 384.558 382.387C383.823 382.387 383.087 382.387 382.352 382.222C381.536 382.057 381.209 383.292 382.026 383.457C383.251 383.621 384.394 383.703 385.619 383.621C385.864 383.621 386.028 383.456 386.109 383.292C387.008 383.703 387.988 384.033 389.05 384.28C389.131 384.28 389.131 384.28 389.131 384.28C389.621 387.901 389.866 391.44 390.03 394.897C390.03 395.72 391.337 395.72 391.255 394.897C391.173 387.901 390.193 380.905 388.56 374.074Z" fill="#3588D8"/>
<path opacity="0.5" d="M409.387 347.985C408.243 348.808 407.181 349.713 406.12 350.619C406.691 348.396 407.671 346.256 409.06 344.363C409.55 343.705 408.406 343.046 407.998 343.705C406.365 346.092 405.221 348.643 404.649 351.524C404.649 351.689 404.649 351.853 404.731 352.018C401.954 354.816 399.504 357.944 397.625 361.401C397.299 357.038 396.972 352.676 396.809 348.314C396.645 345.186 396.4 341.73 396.319 338.108C397.789 336.133 399.341 334.157 401.546 333.087C402.281 332.758 401.627 331.688 400.892 332.017C399.014 332.923 397.544 334.404 396.237 336.05C396.237 334.404 396.237 332.676 396.319 331.03C396.4 330.865 396.482 330.618 396.319 330.454C396.972 321.482 399.586 313.087 408.08 309.137C408.815 308.807 408.161 307.737 407.426 308.067C405.303 309.054 403.506 310.371 402.036 311.853C401.954 310.618 402.199 309.383 402.608 308.231C402.934 307.49 401.709 307.161 401.382 307.902C400.729 309.548 400.566 311.276 400.892 313.005V313.087C397.299 317.449 395.747 323.211 395.257 329.301C393.46 327.161 391.581 325.021 389.785 322.882C389.948 322.799 390.111 322.635 390.111 322.388C390.03 320.577 389.458 318.931 388.396 317.449C387.906 316.791 386.844 317.449 387.334 318.108C388.069 319.178 388.559 320.412 388.723 321.647C388.069 320.824 387.334 320.083 386.681 319.26C386.191 318.602 385.292 319.507 385.782 320.165C388.886 323.787 391.99 327.408 395.093 331.03C394.93 333.252 394.93 335.474 395.012 337.614L394.93 337.697C394.685 338.026 394.848 338.273 395.012 338.437C395.093 340.577 395.175 342.635 395.257 344.61C395.665 354.734 396.4 364.775 397.544 374.816C395.257 373.582 394.032 371.195 392.888 368.89C392.561 368.15 391.418 368.808 391.826 369.549C393.133 372.183 394.603 374.899 397.38 376.133C397.462 376.216 397.625 376.216 397.707 376.216C398.442 382.635 399.259 389.138 400.321 395.557C400.484 396.38 401.627 396.051 401.546 395.228C399.912 384.693 398.687 374.076 397.789 363.458C397.87 363.376 398.034 363.376 398.115 363.211C400.974 357.615 405.058 352.841 410.122 349.137C410.693 348.643 410.04 347.491 409.387 347.985Z" fill="#3588D8"/>
<path opacity="0.5" d="M430.214 348.972C427.6 348.89 425.15 349.549 422.945 350.619C423.843 349.631 424.905 348.726 425.967 347.82C426.62 347.326 425.967 346.256 425.313 346.75C423.19 348.396 421.393 350.289 419.841 352.429C419.759 352.512 419.759 352.594 419.759 352.676C415.512 356.051 412.327 361.154 410.367 366.092C409.142 369.055 408.325 372.183 407.59 375.31C406.855 374.158 406.528 372.759 406.038 371.442C405.711 370.372 405.385 369.467 404.405 368.808C403.751 368.397 403.098 369.467 403.751 369.878C404.731 370.537 404.976 372.347 405.385 373.417C405.711 374.487 406.12 375.475 406.773 376.298C406.936 376.463 407.1 376.545 407.263 376.545C405.711 384.199 405.303 392.183 404.568 399.837C404.486 400.66 405.711 400.66 405.793 399.837C406.446 392.677 406.936 385.352 408.162 378.273C408.243 378.273 408.325 378.191 408.407 378.109C410.775 375.475 413.225 372.841 416.247 370.948C417.146 371.771 418.208 372.43 419.351 372.841C420.086 373.088 420.413 371.853 419.678 371.607C418.861 371.277 418.044 370.866 417.391 370.29C418.208 369.878 419.106 369.467 420.004 369.22C420.74 368.973 420.413 367.738 419.678 367.985C418.453 368.314 417.309 368.89 416.247 369.467C416.084 369.467 415.921 369.631 415.757 369.796C413.062 371.442 410.775 373.664 408.57 376.051C408.978 374.076 409.468 372.1 410.04 370.125C411.265 366.174 413.144 361.812 415.839 358.108H415.921C417.391 357.615 418.779 357.285 420.331 357.121C421.148 357.038 420.821 355.804 420.004 355.886C419.106 356.051 418.126 356.215 417.228 356.462C420.495 352.676 424.742 349.96 430.051 350.042C431.031 350.289 431.031 349.055 430.214 348.972Z" fill="#3588D8"/>
<path d="M417.392 388.479C418.63 388.479 419.571 389.592 419.364 390.813L418.698 394.734L416.901 406.01L413.25 428.852C413.095 429.823 412.258 430.537 411.275 430.537H386.1C385.118 430.537 384.281 429.823 384.125 428.852L380.474 406.01L378.677 394.734L378.059 390.788C377.869 389.575 378.807 388.479 380.035 388.479H417.392Z" fill="#4991FF"/>
<path opacity="0.2" d="M24.4704 254.552H20.8256V250.907C20.8256 250.157 20.1824 249.514 19.432 249.514C18.6816 249.514 18.0384 250.157 18.0384 250.907V254.552H14.3936C13.6432 254.552 13 255.195 13 255.946C13 256.696 13.6432 257.339 14.3936 257.339H18.0384V260.984C18.0384 261.734 18.6816 262.378 19.432 262.378C20.1824 262.378 20.8256 261.734 20.8256 260.984V257.339H24.4704C25.2208 257.339 25.864 256.696 25.864 255.946C25.864 255.195 25.2208 254.552 24.4704 254.552Z" fill="#0061BF"/>
<g opacity="0.2">
<path d="M32.2969 230.325C32.2969 233.755 35.0841 236.65 38.6217 236.65C42.0521 236.65 44.9465 233.862 44.9465 230.325C44.9465 226.894 42.1593 224 38.6217 224C35.1913 224 32.2969 226.787 32.2969 230.325ZM34.7625 230.325C34.7625 228.181 36.4777 226.466 38.6217 226.466C40.7657 226.466 42.4809 228.181 42.4809 230.325C42.4809 232.469 40.7657 234.184 38.6217 234.184C36.4777 234.184 34.7625 232.469 34.7625 230.325Z" fill="#0061BF"/>
</g>
<g opacity="0.2">
<path d="M39.1568 254.336C38.2992 254.336 37.5488 255.086 37.5488 255.944C37.5488 256.802 38.2992 257.552 39.1568 257.552H55.0224C55.88 257.552 56.6304 256.909 56.6304 255.944C56.6304 255.086 55.88 254.336 55.0224 254.336H39.1568Z" fill="#0061BF"/>
</g>
<g opacity="0.2">
<path d="M61.776 254.336C60.9184 254.336 60.168 255.086 60.168 255.944C60.168 256.802 60.9184 257.552 61.776 257.552H64.6704C65.528 257.552 66.2784 256.909 66.2784 255.944C66.2784 255.086 65.528 254.336 64.6704 254.336H61.776Z" fill="#0061BF"/>
</g>
<path d="M44.608 178C43.7504 178 43 178.75 43 179.608C43 180.466 43.7504 181.216 44.608 181.216H60.4736C61.3312 181.216 62.0816 180.573 62.0816 179.608C62.0816 178.75 61.3312 178 60.4736 178H44.608Z" fill="#A9CBF7"/>
<path d="M67.3346 178C66.477 178 65.7266 178.75 65.7266 179.608C65.7266 180.466 66.477 181.216 67.3346 181.216H70.229C71.0866 181.216 71.837 180.573 71.837 179.608C71.837 178.75 71.0866 178 70.229 178H67.3346Z" fill="#A9CBF7"/>
<g opacity="0.25">
<path d="M283.233 72.3489L279.588 67.6321L276.372 69.6689C274.979 68.4897 273.478 67.6321 271.763 67.0961L271.87 63.3441L265.867 62.5938L265.116 66.3458C263.401 66.5602 261.686 66.9889 260.078 67.7393L257.505 64.9521L252.788 68.5969L254.825 71.8129C253.646 73.2065 252.788 74.7074 252.252 76.4226L248.5 76.3153L247.75 82.3186L251.502 83.0689C251.716 84.7841 252.145 86.4993 252.896 88.1073L250.108 90.6801L253.753 95.3969L256.969 93.3601C258.363 94.5393 259.864 95.3969 261.579 95.9329L261.472 99.6849L267.475 100.435L268.225 96.6833C269.94 96.4689 271.656 96.0401 273.264 95.2897L275.836 98.077L280.553 94.4321L278.516 91.2161C279.696 89.8225 280.553 88.3218 281.089 86.6066L284.841 86.7138L285.592 80.7106L281.84 79.9601C281.625 78.2449 281.196 76.5298 280.446 74.9218L283.233 72.3489ZM272.406 88.8577C268.225 92.0738 262.329 91.3234 259.113 87.1426C255.897 82.9618 256.648 77.0658 260.828 73.8498C265.009 70.6337 270.905 71.3841 274.121 75.5649C277.23 79.7457 276.48 85.749 272.406 88.8577Z" fill="url(#paint2_linear_14915_14515)"/>
<path d="M283.77 34.1856L281.09 28.8256L277.552 30.2192C276.373 28.8256 275.086 27.6464 273.586 26.6816L274.55 22.9296L268.869 21L267.368 24.5376C265.653 24.3232 263.83 24.4304 262.115 24.8592L260.186 21.6432L254.826 24.3232L256.219 27.8608C254.826 28.9328 253.646 30.3264 252.682 31.8272L248.93 30.8624L247 36.544L250.538 38.0448C250.323 39.76 250.43 41.5824 250.859 43.2976L247.643 45.2272L250.323 50.5872L253.861 49.1936C254.933 50.5872 256.326 51.7664 257.827 52.7312L256.862 56.4832L262.544 58.4128L264.045 54.8752C265.76 55.0896 267.582 54.9824 269.298 54.5536L271.227 57.7696L276.587 55.0896L275.194 51.552C276.587 50.3728 277.766 49.0864 278.731 47.5856L282.483 48.5504L284.413 42.8688L280.875 41.368C281.09 39.6528 280.982 37.8304 280.554 36.1152L283.77 34.1856ZM269.726 48.2288C265.01 50.5872 259.328 48.5504 256.97 43.8336C254.611 39.1168 256.648 33.4352 261.365 31.0768C266.082 28.7184 271.763 30.7552 274.122 35.472C276.373 40.296 274.443 45.9776 269.726 48.2288Z" fill="url(#paint3_linear_14915_14515)"/>
<path d="M323.111 42.9756L317.322 38.5804L314.214 42.0108C312.177 41.1532 310.14 40.6172 307.996 40.4028L306.924 35.9004L299.742 36.9724L299.956 41.582C298.026 42.3324 296.097 43.4044 294.489 44.798L290.522 42.3324L286.127 48.1212L289.558 51.23C288.7 53.1596 288.164 55.3036 287.95 57.4476L283.447 58.5196L284.519 65.702L289.129 65.4876C289.879 67.4172 290.951 69.3468 292.345 70.9548L289.879 74.9212L295.668 79.3164L298.777 75.886C300.706 76.7436 302.85 77.2796 304.994 77.494L306.066 81.9964L313.249 80.9244L313.034 76.3148C314.964 75.5644 316.894 74.4924 318.502 73.0988L322.468 75.5644L326.863 69.7756L323.433 66.6668C324.29 64.63 324.826 62.5932 325.041 60.4492L329.543 59.3772L328.471 52.1948L323.862 52.4092C323.111 50.4796 322.039 48.55 320.646 46.942L323.111 42.9756ZM315.822 65.9164C312.07 70.9548 304.78 72.0268 299.742 68.2748C294.703 64.5228 293.631 57.2332 297.383 52.1948C301.135 47.1564 308.425 46.0844 313.463 49.8364C318.609 53.5884 319.681 60.7708 315.822 65.9164Z" fill="url(#paint4_linear_14915_14515)"/>
<path d="M196.455 270.005L193.178 267.517L191.418 269.459C190.264 268.974 189.111 268.67 187.898 268.549L187.291 266L183.225 266.607L183.346 269.216C182.254 269.641 181.161 270.248 180.251 271.037L178.005 269.641L175.517 272.918L177.459 274.678C176.974 275.771 176.67 276.985 176.549 278.198L174 278.805L174.607 282.871L177.216 282.75C177.641 283.842 178.248 284.935 179.037 285.845L177.641 288.091L180.918 290.579L182.678 288.637C183.771 289.122 184.985 289.426 186.198 289.547L186.805 292.096L190.871 291.489L190.75 288.88C191.842 288.455 192.935 287.848 193.845 287.059L196.091 288.455L198.579 285.178L196.637 283.418C197.122 282.264 197.426 281.111 197.547 279.898L200.096 279.291L199.489 275.225L196.88 275.346C196.455 274.254 195.848 273.161 195.059 272.251L196.455 270.005ZM192.328 282.993C190.204 285.845 186.077 286.452 183.225 284.328C180.372 282.204 179.765 278.077 181.889 275.225C184.014 272.372 188.14 271.765 190.993 273.889C193.906 276.014 194.513 280.08 192.328 282.993Z" fill="url(#paint5_linear_14915_14515)"/>
</g>
<path d="M52.5525 61H128.447C130.385 61 132 62.6216 132 64.5676V101.432C132 103.378 130.385 105 128.447 105H52.5525C50.6148 105 49 103.378 49 101.432V64.5676C49.1077 62.6216 50.6148 61 52.5525 61Z" fill="#C6E2FD"/>
<g filter="url(#filter1_d_14915_14515)">
<path d="M49 72V107.503C49 109.41 50.6169 111 52.5571 111H128.443C130.383 111 132 109.41 132 107.503V72H49Z" fill="white"/>
</g>
<path opacity="0.2" d="M60 66.5C60 67.9 58.9 69 57.5 69C56.1 69 55 67.9 55 66.5C55 65.1 56.1 64 57.5 64C58.9 64 60 65.1 60 66.5Z" fill="#0061BF"/>
<path opacity="0.2" d="M67 66.5C67 67.9 65.9 69 64.5 69C63.1 69 62 67.9 62 66.5C62 65.1 63.1 64 64.5 64C65.9 64 67 65.1 67 66.5Z" fill="#0061BF"/>
<path d="M104.303 83H93.07C92.2774 82.9999 91.4903 83.1485 90.7409 83.4398C92.2159 84.0172 93.485 85.1196 94.3577 86.5811H104.307C104.839 86.5702 105.367 86.6789 105.861 86.901C106.355 87.1231 106.804 87.4541 107.184 87.8746C107.563 88.2951 107.864 88.7967 108.07 89.3501C108.275 89.9035 108.381 90.4977 108.381 91.0979C108.381 91.698 108.275 92.2922 108.07 92.8456C107.864 93.399 107.563 93.9006 107.184 94.3211C106.804 94.7416 106.355 95.0726 105.861 95.2947C105.367 95.5168 104.839 95.6255 104.307 95.6146H93.07C92.2242 95.6131 91.4006 95.309 90.7175 94.7458C90.0344 94.1827 89.527 93.3896 89.2682 92.4804C89.0094 91.5712 89.0125 90.5928 89.2771 89.6858C89.5417 88.7788 90.0542 87.9898 90.7409 87.4322C90.0623 86.8788 89.2462 86.5815 88.4091 86.5826H87.1253C86.3282 87.917 85.9023 89.4898 85.9023 91.0994C85.9023 92.7089 86.3282 94.2817 87.1253 95.6161C87.78 96.7192 88.6654 97.6231 89.7032 98.2477C90.741 98.8723 91.8992 99.1984 93.0753 99.1972H104.309C106.211 99.1972 108.036 98.344 109.381 96.8252C110.726 95.3064 111.482 93.2465 111.482 91.0986C111.482 88.9507 110.726 86.8908 109.381 85.372C108.036 83.8532 106.211 83 104.309 83H104.303Z" fill="#0061BF"/>
<path d="M95.5751 91.1001C95.5761 92.71 95.1502 94.2834 94.3522 95.6176H93.0685C92.2321 95.6176 91.4171 95.3198 90.7393 94.7665C91.4262 94.2088 91.9387 93.4195 92.2033 92.5122C92.4678 91.6049 92.4707 90.6262 92.2116 89.7169C91.9525 88.8076 91.4446 88.0145 90.7611 87.4515C90.0776 86.8886 89.2536 86.5849 88.4076 86.5841H77.1728C76.1244 86.6056 75.1254 87.091 74.3908 87.9357C73.6561 88.7804 73.2445 89.917 73.2445 91.1008C73.2445 92.2847 73.6561 93.4213 74.3908 94.266C75.1254 95.1107 76.1244 95.5961 77.1728 95.6176H87.1238C87.9967 97.0789 89.2658 98.1812 90.7407 98.7589C89.9897 99.0493 89.2014 99.1974 88.4076 99.1972H77.1728C76.2308 99.1972 75.2981 98.9877 74.4279 98.5807C73.5576 98.1737 72.7669 97.5772 72.1009 96.8252C71.4348 96.0732 70.9065 95.1804 70.546 94.1978C70.1855 93.2152 70 92.1621 70 91.0986C70 90.0351 70.1855 88.982 70.546 87.9994C70.9065 87.0168 71.4348 86.1241 72.1009 85.372C72.7669 84.62 73.5576 84.0235 74.4279 83.6165C75.2981 83.2095 76.2308 83 77.1728 83H88.4076C90.3092 83.0028 92.1322 83.8569 93.4768 85.3751C94.8214 86.8933 95.5779 88.9516 95.5804 91.0986L95.5751 91.1001Z" fill="#FF7300"/>
</g>
<defs>
<filter id="filter0_d_14915_14515" x="-40" y="258" width="233" height="174" filterUnits="userSpaceOnUse" color-interpolation-filters="sRGB">
<feFlood flood-opacity="0" result="BackgroundImageFix"/>
<feColorMatrix in="SourceAlpha" type="matrix" values="0 0 0 0 0 0 0 0 0 0 0 0 0 0 0 0 0 0 127 0" result="hardAlpha"/>
<feOffset dy="15"/>
<feGaussianBlur stdDeviation="20"/>
<feComposite in2="hardAlpha" operator="out"/>
<feColorMatrix type="matrix" values="0 0 0 0 0.117647 0 0 0 0 0.129412 0 0 0 0 0.176471 0 0 0 0.05 0"/>
<feBlend mode="normal" in2="BackgroundImageFix" result="effect1_dropShadow_14915_14515"/>
<feBlend mode="normal" in="SourceGraphic" in2="effect1_dropShadow_14915_14515" result="shape"/>
</filter>
<filter id="filter1_d_14915_14515" x="9" y="47" width="163" height="119" filterUnits="userSpaceOnUse" color-interpolation-filters="sRGB">
<feFlood flood-opacity="0" result="BackgroundImageFix"/>
<feColorMatrix in="SourceAlpha" type="matrix" values="0 0 0 0 0 0 0 0 0 0 0 0 0 0 0 0 0 0 127 0" result="hardAlpha"/>
<feOffset dy="15"/>
<feGaussianBlur stdDeviation="20"/>
<feComposite in2="hardAlpha" operator="out"/>
<feColorMatrix type="matrix" values="0 0 0 0 0.117647 0 0 0 0 0.129412 0 0 0 0 0.176471 0 0 0 0.05 0"/>
<feBlend mode="normal" in2="BackgroundImageFix" result="effect1_dropShadow_14915_14515"/>
<feBlend mode="normal" in="SourceGraphic" in2="effect1_dropShadow_14915_14515" result="shape"/>
</filter>
<linearGradient id="paint0_linear_14915_14515" x1="458.5" y1="-27.5" x2="225" y2="279.5" gradientUnits="userSpaceOnUse">
<stop stop-color="#FFECE2"/>
<stop offset="1" stop-color="#FFF1EA" stop-opacity="0"/>
</linearGradient>
<linearGradient id="paint1_linear_14915_14515" x1="321.121" y1="318.073" x2="204.197" y2="318.073" gradientUnits="userSpaceOnUse">
<stop stop-color="#FAB882"/>
<stop offset="1" stop-color="#FF7300" stop-opacity="0.8"/>
</linearGradient>
<linearGradient id="paint2_linear_14915_14515" x1="266.671" y1="62.5938" x2="266.671" y2="100.435" gradientUnits="userSpaceOnUse">
<stop stop-color="#FFAB6B"/>
<stop offset="1" stop-color="#FFD7B9" stop-opacity="0"/>
</linearGradient>
<linearGradient id="paint3_linear_14915_14515" x1="265.706" y1="21" x2="265.706" y2="58.4128" gradientUnits="userSpaceOnUse">
<stop stop-color="#FFAB6B"/>
<stop offset="1" stop-color="#FFD7B9" stop-opacity="0"/>
</linearGradient>
<linearGradient id="paint4_linear_14915_14515" x1="306.495" y1="35.9004" x2="306.495" y2="81.9964" gradientUnits="userSpaceOnUse">
<stop stop-color="#FFAB6B"/>
<stop offset="1" stop-color="#FFD7B9" stop-opacity="0"/>
</linearGradient>
<linearGradient id="paint5_linear_14915_14515" x1="187.048" y1="266" x2="187.048" y2="292.096" gradientUnits="userSpaceOnUse">
<stop stop-color="#FFAB6B"/>
<stop offset="1" stop-color="#FFD7B9" stop-opacity="0"/>
</linearGradient>
<clipPath id="clip0_14915_14515">
<rect width="484" height="470" fill="white"/>
</clipPath>
<clipPath id="clip1_14915_14515">
<rect width="10" height="10" fill="white" transform="translate(201 336)"/>
</clipPath>
</defs>
</svg>
