<svg width="14" height="18" viewBox="0 0 14 18" fill="none" xmlns="http://www.w3.org/2000/svg">
<path d="M7.00188 8.91624C7.40844 8.91624 7.75586 8.77254 8.04414 8.48513C8.33242 8.19773 8.47656 7.85224 8.47656 7.44864C8.47656 7.04506 8.3318 6.70019 8.04226 6.41402C7.75274 6.12786 7.4047 5.98477 6.99812 5.98477C6.59156 5.98477 6.24414 6.12848 5.95586 6.41589C5.66758 6.70328 5.52344 7.04878 5.52344 7.45237C5.52344 7.85595 5.6682 8.20082 5.95774 8.48699C6.24726 8.77316 6.5953 8.91624 7.00188 8.91624ZM7 15.8471C8.87031 14.158 10.252 12.626 11.1449 11.251C12.0379 9.87595 12.4844 8.66497 12.4844 7.61802C12.4844 5.97374 11.955 4.62739 10.8962 3.57897C9.83741 2.53055 8.53868 2.00635 7 2.00635C5.46132 2.00635 4.1626 2.53055 3.10382 3.57897C2.04502 4.62739 1.51563 5.97374 1.51563 7.61802C1.51563 8.66497 1.97266 9.87595 2.88672 11.251C3.80078 12.626 5.17188 14.158 7 15.8471ZM7.01055 17.25C6.91914 17.25 6.83125 17.236 6.74688 17.2081C6.6625 17.1802 6.58516 17.1383 6.51484 17.0825C4.41953 15.2538 2.85156 13.5585 1.81094 11.9965C0.770313 10.4345 0.25 8.97503 0.25 7.61802C0.25 5.52411 0.928516 3.85596 2.28555 2.61358C3.64258 1.37119 5.21406 0.75 7 0.75C8.78594 0.75 10.3574 1.37119 11.7145 2.61358C13.0715 3.85596 13.75 5.52411 13.75 7.61802C13.75 8.97208 13.2297 10.4308 12.1891 11.9943C11.1484 13.5577 9.58047 15.2538 7.48516 17.0825C7.41484 17.1383 7.34102 17.1802 7.26367 17.2081C7.18633 17.236 7.10195 17.25 7.01055 17.25Z" fill="#5D737A"/>
</svg>
