<svg width="583" height="432" viewBox="0 0 583 432" fill="none" xmlns="http://www.w3.org/2000/svg">
<path opacity="0.08" fill-rule="evenodd" clip-rule="evenodd" d="M273.386 4.70368C384.491 0.519981 458.543 17.6012 497.935 137.801C539.747 265.388 503.201 330.687 405.012 406.352C321.303 470.858 230.292 369.588 147.787 303.04C60.319 232.487 61.3835 197.784 100.257 82.9499C134.579 -18.4395 179.275 8.24747 273.386 4.70368Z" fill="url(#paint0_linear_15084_27369)"/>
<path d="M445 191H485" stroke="#A9CBF7" stroke-width="1.5" stroke-linecap="round" stroke-linejoin="round" stroke-dasharray="4 4"/>
<path d="M298.168 184.871C305.094 184.871 310.709 179.256 310.709 172.33C310.709 165.404 305.094 159.789 298.168 159.789C291.242 159.789 285.627 165.404 285.627 172.33C285.627 179.256 291.242 184.871 298.168 184.871Z" fill="url(#paint1_linear_15084_27369)"/>
<path d="M290.564 170.076L293.824 175.818" stroke="white" stroke-miterlimit="10" stroke-linecap="round" stroke-linejoin="round"/>
<g filter="url(#filter0_d_15084_27369)">
<rect x="159" y="126.002" width="290" height="210" rx="14" fill="white"/>
</g>
<circle cx="174.5" cy="139.502" r="3.5" fill="#FF6259"/>
<circle cx="186.5" cy="139.502" r="3.5" fill="#FFBE2F"/>
<circle cx="198.5" cy="139.502" r="3.5" fill="#29CD41"/>
<path opacity="0.8" d="M429 152.002H179C174.582 152.002 171 155.584 171 160.002V316.002C171 320.42 174.582 324.002 179 324.002H429C433.418 324.002 437 320.42 437 316.002V160.002C437 155.584 433.418 152.002 429 152.002Z" fill="#EBEFF2"/>
<path d="M264 165.954V312.05C264 314.232 262.139 316.002 259.845 316.002H182.155C179.861 316.002 178 314.232 178 312.05V165.954C178 163.772 179.861 162.002 182.155 162.002H259.845C262.139 162.002 264 163.77 264 165.954Z" fill="white"/>
<path d="M257.51 174.431V233.554C257.51 235.559 255.885 237.185 253.879 237.185H188.326C186.321 237.185 184.695 235.559 184.695 233.554V174.431C184.695 172.426 186.321 170.801 188.326 170.801H253.879C255.885 170.801 257.51 172.426 257.51 174.431Z" fill="#F2F5F6"/>
<path d="M357.38 259.413V313.378C357.38 314.728 356.287 315.822 354.936 315.822H275.071C273.721 315.822 272.627 314.728 272.627 313.378V259.413C272.627 258.064 273.721 256.969 275.071 256.969H354.936C356.287 256.97 357.38 258.064 357.38 259.413Z" fill="white"/>
<path d="M428 165.338V242.662C428 244.506 426.397 246 424.419 246H276.581C274.603 246 273 244.506 273 242.662V165.338C273 163.494 274.603 162 276.581 162H424.419C426.397 162 428 163.494 428 165.338Z" fill="white"/>
<path d="M350.515 269.641H281.32" stroke="#F2F5F6" stroke-width="0.5"/>
<path d="M350.515 276.553H281.32" stroke="#F2F5F6" stroke-width="0.5"/>
<path d="M350.515 283.463H281.32" stroke="#F2F5F6" stroke-width="0.5"/>
<path d="M350.515 290.373H281.32" stroke="#F2F5F6" stroke-width="0.5"/>
<path d="M350.515 304.195H281.32" stroke="#F2F5F6" stroke-width="0.5"/>
<path d="M286 288H282V304H286V288Z" fill="#F2F5F6"/>
<path d="M295 280H291V304H295V280Z" fill="#F2F5F6"/>
<path d="M304 277H300V304H304V277Z" fill="#F2F5F6"/>
<path d="M313 274H309V304H313V274Z" fill="#F2F5F6"/>
<path d="M322 286H318V304H322V286Z" fill="#F2F5F6"/>
<path d="M331 269H327V304H331V269Z" fill="#F2F5F6"/>
<path d="M340 264H336V304H340V264Z" fill="#F2F5F6"/>
<path d="M349 274H345V304H349V274Z" fill="#F2F5F6"/>
<rect x="367" y="257" width="61" height="46" rx="8" fill="white"/>
<path d="M401.932 277.497L404.597 277.497C405.702 277.497 406.597 278.417 406.597 279.552C406.597 280.686 405.702 281.606 404.598 281.606L399.266 281.606C398.161 281.606 397.267 280.686 397.267 279.552C397.267 279.174 396.968 278.867 396.6 278.867C396.232 278.867 395.934 279.174 395.934 279.552C395.934 281.443 397.425 282.975 399.266 282.975L404.598 282.975C406.438 282.975 407.93 281.443 407.93 279.552C407.93 277.661 406.438 276.128 404.597 276.128L401.932 276.128C401.564 276.128 401.265 276.435 401.265 276.813C401.265 277.191 401.564 277.497 401.932 277.497Z" fill="#AAB4BE"/>
<path d="M388.069 279.551C388.069 281.442 389.561 282.975 391.402 282.975L394.6 282.975C394.968 282.975 395.266 282.668 395.266 282.29C395.266 281.912 394.968 281.605 394.6 281.605L391.402 281.605C390.297 281.605 389.402 280.685 389.402 279.551C389.402 278.416 390.297 277.497 391.401 277.497L397.266 277.497C398.37 277.497 399.265 278.416 399.265 279.551C399.265 279.929 399.563 280.235 399.931 280.235C400.299 280.235 400.598 279.929 400.598 279.551C400.598 277.66 399.106 276.127 397.266 276.127L391.401 276.127C389.561 276.127 388.069 277.66 388.069 279.551Z" fill="#AAB4BE"/>
<rect x="367" y="308" width="60.179" height="8" rx="4" fill="white"/>
<path d="M213.333 282.11C210.829 280.599 208.75 278.475 207.292 275.939C205.834 273.402 205.046 270.537 205.001 267.612L210.362 267.53C210.393 269.545 210.936 271.52 211.94 273.267C212.945 275.015 214.377 276.478 216.103 277.519L213.333 282.11Z" fill="#219FFF"/>
<path d="M214.178 252.126C216.231 250.999 218.493 250.303 220.826 250.079C223.158 249.855 225.511 250.109 227.741 250.825L226.314 255.271C224.688 254.749 222.972 254.564 221.272 254.727C219.571 254.89 217.922 255.398 216.424 256.22L214.178 252.126Z" fill="#0061BF"/>
<path d="M205.024 266.431C205.169 263.713 205.955 261.067 207.319 258.711C208.683 256.355 210.585 254.355 212.87 252.876L217.33 259.764C216.132 260.539 215.135 261.587 214.42 262.822C213.706 264.056 213.294 265.443 213.218 266.867L205.024 266.431Z" fill="#FF7300"/>
<path d="M228.907 251.449C231.033 252.34 232.958 253.649 234.57 255.298C236.181 256.946 237.445 258.901 238.288 261.047C239.13 263.193 239.534 265.486 239.475 267.791C239.416 270.096 238.895 272.365 237.943 274.465C236.991 276.565 235.628 278.452 233.934 280.016C232.24 281.58 230.25 282.788 228.081 283.569C225.912 284.35 223.608 284.688 221.306 284.563C219.004 284.438 216.75 283.853 214.679 282.842L216.28 279.56C217.913 280.357 219.689 280.818 221.504 280.917C223.318 281.015 225.134 280.749 226.844 280.133C228.553 279.517 230.122 278.565 231.457 277.333C232.792 276.1 233.867 274.612 234.617 272.957C235.367 271.302 235.777 269.514 235.824 267.697C235.871 265.881 235.553 264.073 234.889 262.382C234.224 260.691 233.228 259.15 231.958 257.85C230.688 256.551 229.17 255.519 227.494 254.816L228.907 251.449Z" fill="#D8DEE6"/>
<path d="M228.838 251.42C231.604 252.566 234.023 254.412 235.859 256.776L231.563 260.111C230.306 258.493 228.65 257.229 226.756 256.445L228.838 251.42Z" fill="#17BD8D"/>
<path d="M245.268 297.045H194.795C194.04 297.045 193.428 296.432 193.428 295.677V295.458C193.428 294.702 194.04 294.09 194.795 294.09H245.268C246.024 294.09 246.636 294.702 246.636 295.458V295.677C246.636 296.432 246.024 297.045 245.268 297.045Z" fill="#EBEFF2"/>
<path d="M245.268 305.596H194.795C194.04 305.596 193.428 304.983 193.428 304.228V304.008C193.428 303.253 194.04 302.641 194.795 302.641H245.268C246.024 302.641 246.636 303.253 246.636 304.008V304.228C246.636 304.983 246.024 305.596 245.268 305.596Z" fill="#EBEFF2"/>
<g filter="url(#filter1_d_15084_27369)">
<rect x="29" y="94" width="117" height="70" rx="8" fill="white"/>
</g>
<path d="M118.481 99.5193C119.269 99.5193 119.908 98.8806 119.908 98.0927C119.908 97.3047 119.269 96.666 118.481 96.666C117.693 96.666 117.055 97.3047 117.055 98.0927C117.055 98.8806 117.693 99.5193 118.481 99.5193Z" fill="white"/>
<path d="M138.747 99.5193C139.535 99.5193 140.174 98.8806 140.174 98.0927C140.174 97.3047 139.535 96.666 138.747 96.666C137.959 96.666 137.32 97.3047 137.32 98.0927C137.32 98.8806 137.959 99.5193 138.747 99.5193Z" fill="white"/>
<path d="M128.612 99.5193C129.4 99.5193 130.039 98.8806 130.039 98.0927C130.039 97.3047 129.4 96.666 128.612 96.666C127.824 96.666 127.186 97.3047 127.186 98.0927C127.186 98.8806 127.824 99.5193 128.612 99.5193Z" fill="white"/>
<path d="M29 102C29 97.5817 32.5817 94 37 94H138C142.418 94 146 97.5817 146 102V108H29V102Z" fill="#C6E2FD"/>
<path opacity="0.3" d="M40 101C40 102.12 39.12 103 38 103C36.88 103 36 102.12 36 101C36 99.88 36.88 99 38 99C39.12 99 40 99.88 40 101Z" fill="#0061BF"/>
<path opacity="0.3" d="M47 101C47 102.12 46.12 103 45 103C43.88 103 43 102.12 43 101C43 99.88 43.88 99 45 99C46.12 99 47 99.88 47 101Z" fill="#0061BF"/>
<path d="M163.539 218.473H161.33" stroke="#DEDFE0" stroke-miterlimit="10" stroke-linecap="round"/>
<path d="M158.5 218.473H105H88.502C87.3974 218.473 86.502 217.577 86.502 216.473V167.5" stroke="#A9CBF7" stroke-width="1.5" stroke-linecap="round" stroke-linejoin="round" stroke-dasharray="5 5"/>
<path d="M157.807 188.218C157.807 187.873 158.325 187.614 158.67 187.7C159.187 187.787 159.619 188.132 159.878 188.649C160.136 189.167 160.223 189.685 160.223 190.202C160.223 190.72 160.223 191.238 159.964 191.669C159.533 192.445 158.497 192.791 157.721 192.445" fill="#FFC6AD"/>
<path d="M157.378 181.235C157.378 181.235 160.484 192.969 158.758 195.384C156.256 199.008 150.217 199.267 147.629 197.628C145.472 196.247 143.746 188.741 143.746 186.843C143.832 181.494 154.617 178.474 157.378 181.235Z" fill="#FFC6AD"/>
<path d="M141.763 195.038L140.555 205.305C140.555 205.305 144.437 209.446 150.218 209.446C155.998 209.446 155.998 205.564 155.998 205.564L154.877 196.678L145.904 187.273L141.763 195.038Z" fill="#FFC6AD"/>
<path d="M147.196 186.41C147.196 185.72 147.196 185.03 147.11 184.426C147.11 184.253 147.024 182.873 146.938 182.787C149.785 183.391 152.804 183.563 155.651 183.391C156.6 183.304 157.549 183.218 158.326 182.7C159.016 182.269 158.93 175.539 150.389 175.194C148.749 175.108 147.324 174.689 145.471 175.194C143.09 175.843 141.897 177.077 140.294 178.817C137.55 181.796 137.62 184.685 138.828 189.085C139.518 191.587 139.949 194.089 141.761 195.038C144.09 194.089 145.643 191.5 146.075 190.983C146.938 189.775 147.196 187.877 147.196 186.41Z" fill="#292466"/>
<path d="M155.132 198.229C155.132 198.229 151.077 199.005 148.317 197.539C146.16 196.331 145.297 193.656 145.297 193.656" stroke="#F7A794" stroke-width="0.75" stroke-miterlimit="10"/>
<path d="M146.763 189.772C146.504 189.34 145.641 188.736 145.21 188.823C144.778 188.909 144.347 189.168 144.002 189.513C142.449 191.238 144.174 194.517 146.504 194.172C147.367 193.999 147.108 192.878 147.108 192.878" fill="#FFC6AD"/>
<path d="M155.392 187.357C155.392 187.357 157.204 190.118 157.031 190.895C156.859 191.671 155.047 191.758 155.047 191.758" stroke="#F7A794" stroke-width="0.5" stroke-miterlimit="10"/>
<path d="M157.031 192.709L152.027 193.399C152.027 193.399 152.976 195.987 155.651 195.384C157.635 194.952 157.031 192.709 157.031 192.709Z" fill="white"/>
<path d="M156.855 186.669C156.855 186.928 156.942 187.1 157.028 187.359C157.114 187.79 157.804 187.618 157.718 187.186C157.632 186.928 157.546 186.755 157.459 186.582C157.287 186.151 156.769 186.237 156.855 186.669Z" fill="#212237"/>
<path d="M155.824 185.288C155.824 185.288 156.601 184.253 157.722 185.029" stroke="#212237" stroke-width="0.5" stroke-miterlimit="10" stroke-linecap="round" stroke-linejoin="round"/>
<path d="M151.164 187.88C151.164 188.139 151.25 188.398 151.25 188.656C151.337 189.088 152.027 188.915 151.941 188.484C151.854 188.225 151.854 188.052 151.768 187.88C151.682 187.535 151.164 187.535 151.164 187.88Z" fill="#212237"/>
<path d="M152.027 185.893C152.027 185.893 150.82 185.462 149.525 186.928" stroke="#212237" stroke-width="0.5" stroke-miterlimit="10" stroke-linecap="round" stroke-linejoin="round"/>
<path d="M162.758 384.624L161.972 401.295L161.852 406.55L182.389 406.43C182.872 406.43 183.295 406.007 183.295 405.523C183.295 405.161 183.053 404.799 182.691 404.678L173.811 400.631L175.382 383.295" fill="#FFCBC2"/>
<path d="M184.2 406.186C184.019 405.521 183.596 404.797 183.234 404.615L173.811 400.568C168.616 402.682 161.911 401.052 161.911 401.052L160.703 408.119C160.703 408.36 160.884 408.542 161.126 408.542H184.019C184.502 408.542 184.2 406.186 184.2 406.186Z" fill="#FFB156"/>
<path d="M171.284 270.401C175.376 306.778 179.116 392.783 179.116 392.783H158.442C158.442 392.783 154.208 339.084 150.539 300.195C141.437 281.747 142.142 261.74 141.154 259.055" fill="#264B89"/>
<path d="M121.436 380.564L120.498 400.476L120.354 406.752L144.883 406.608C145.46 406.608 145.965 406.103 145.965 405.526C145.965 405.093 145.676 404.66 145.243 404.516L134.638 399.682L136.514 378.977" fill="#FFCBC2"/>
<path d="M147.046 406.317C146.83 405.523 146.325 404.658 145.892 404.441L134.638 399.607C128.433 402.132 120.425 400.185 120.425 400.185L118.982 408.625C118.982 408.914 119.199 409.13 119.487 409.13H146.83C147.407 409.13 147.046 406.317 147.046 406.317Z" fill="#FFB156"/>
<path d="M119.419 269.323C118.793 277.52 118.871 287.7 119.967 297.622C118.01 341.278 115.271 394.51 115.271 394.51H138.2C138.2 394.51 149.234 297.881 149.782 268.547" fill="#3A67B3"/>
<path d="M179.549 223.855C179.549 223.855 185.416 232.051 187.314 232.482C189.212 232.827 205.518 214.623 205.518 214.623L215.44 222.302C215.44 222.302 200.6 252.239 186.71 253.016C174.718 253.706 163.07 234.984 163.07 234.984" fill="#FFC6AD"/>
<path d="M140.983 202.113C140.983 202.113 142.535 207.462 149.351 208.153C154.442 208.67 155.822 203.407 155.822 203.407C155.822 203.407 168.16 209.964 171.869 237.228C175.493 264.491 175.924 278.726 175.924 278.726H117.861C117.861 278.726 117.688 258.02 119.327 240.161C121.053 221.784 124.935 206.341 140.983 202.113Z" fill="url(#paint2_linear_15084_27369)"/>
<path d="M159.792 284.073L133.132 278.897L132.27 278.034L141.846 238.52L170.231 245.335L171.094 246.198L159.792 284.073Z" fill="#EDEEF7"/>
<path d="M159.792 284.073L133.132 278.897L132.27 278.034L141.846 238.52L142.709 239.382L159.792 284.073Z" fill="#CCD2ED"/>
<path d="M171.166 246.241L142.734 239.377L133.177 278.963L161.608 285.828L171.166 246.241Z" fill="#B8C4E8"/>
<path d="M161.864 286.569L133.393 279.667C133.393 279.667 139.518 253.871 140.553 249.902C140.553 249.902 142.365 245.33 145.73 243.69C147.628 242.741 150.13 242.224 152.373 242.396L171.354 246.969L161.864 286.569Z" fill="white"/>
<path d="M159.015 282.343L137.791 277.512" stroke="#EDEEF7" stroke-miterlimit="10"/>
<path d="M159.618 280.099L138.395 275.182" stroke="#EDEEF7" stroke-miterlimit="10"/>
<path d="M160.222 277.771L138.998 272.854" stroke="#EDEEF7" stroke-miterlimit="10"/>
<path d="M160.741 275.441L139.518 270.523" stroke="#EDEEF7" stroke-miterlimit="10"/>
<path d="M161.345 273.111L140.121 268.193" stroke="#EDEEF7" stroke-miterlimit="10"/>
<path d="M161.949 270.781L140.725 265.863" stroke="#EDEEF7" stroke-miterlimit="10"/>
<path d="M162.464 268.453L141.24 263.621" stroke="#EDEEF7" stroke-miterlimit="10"/>
<path d="M163.07 266.209L141.846 261.291" stroke="#EDEEF7" stroke-miterlimit="10"/>
<path d="M163.673 263.879L142.449 258.961" stroke="#EDEEF7" stroke-miterlimit="10"/>
<path d="M164.279 261.551L142.969 256.633" stroke="#EDEEF7" stroke-miterlimit="10"/>
<path d="M164.794 259.222L143.57 254.305" stroke="#EDEEF7" stroke-miterlimit="10"/>
<path d="M165.402 256.89L144.178 251.973" stroke="#EDEEF7" stroke-miterlimit="10"/>
<path d="M166.004 254.562L144.693 249.73" stroke="#EDEEF7" stroke-miterlimit="10"/>
<path d="M166.521 252.318L145.297 247.4" stroke="#EDEEF7" stroke-miterlimit="10"/>
<path d="M163.157 247.832L151.596 245.244" stroke="#EDEEF7" stroke-miterlimit="10"/>
<path d="M145.817 243.776C142.452 245.502 140.641 249.988 140.641 249.988C140.641 249.988 144.868 245.674 149.096 245.933C149.182 243.69 152.46 242.396 152.46 242.396C150.217 242.223 147.715 242.741 145.817 243.776Z" fill="#EDEEF7"/>
<path d="M155.822 203.32C161.862 203.838 168.505 206.167 171.956 210.481C178.772 219.023 183.948 228.599 183.948 228.599L167.642 240.074L155.822 203.32Z" fill="url(#paint3_linear_15084_27369)"/>
<path d="M127.783 238.69C127.783 238.69 122.089 251.114 122.52 254.134C122.865 256.377 141.156 261.898 141.156 261.898L140.293 274.495C140.293 274.495 106.904 271.648 103.022 264.918C97.6728 255.773 108.889 232.047 108.889 232.047" fill="#FFC6AD"/>
<path d="M137.354 261.041C140.115 261.559 154.523 264.406 154.351 265.182C154.178 265.872 149.951 265.786 150.037 266.131C150.209 266.735 153.315 267.425 155.127 267.684C156.766 267.943 159.268 268.547 159.268 269.237C159.268 270.618 150.468 269.151 150.468 269.151C150.468 269.151 160.217 268.892 160.304 270.014C160.476 271.653 150.123 271.567 149.778 271.912C149.778 271.912 158.751 269.496 158.837 270.704C158.923 271.912 150.986 274.241 148.57 274.069C150.641 273.81 156.853 270.79 156.853 271.912C156.939 273.033 151.503 274.586 150.641 274.673C143.566 275.19 137.182 273.637 137.182 273.637" fill="#FFC6AD"/>
<path d="M141.156 202.113C134.341 202.027 127.611 203.321 123.384 206.427C115.36 212.38 107.768 231.965 107.768 231.965L129.941 240.506L139.603 221.698" fill="url(#paint4_linear_15084_27369)"/>
<path d="M201.381 219.37C201.381 219.37 212.252 205.739 213.028 205.739C213.805 205.825 212.338 208.241 212.942 208.241C213.546 208.154 216.911 202.633 217.601 202.892C218.55 203.237 215.444 208.154 215.444 208.154C215.444 208.154 216.307 207.205 217.083 207.809C217.601 208.154 217.083 209.707 217.083 209.707C217.083 209.707 217.946 209.19 218.55 209.621C219.067 210.053 218.55 211.347 218.55 211.347C218.55 211.347 219.413 210.311 220.016 211.174C220.62 211.951 217.687 219.457 212.597 227.653" fill="#FFC6AD"/>
<path d="M212.163 209.445C212.163 209.445 211.732 212.206 210.955 214.449L212.163 209.445Z" fill="#FE9F75"/>
<path d="M212.163 209.445C212.163 209.445 211.732 212.206 210.955 214.449" stroke="#F49B74" stroke-width="0.5" stroke-miterlimit="10"/>
<path d="M219.757 212.812C219.325 213.415 218.894 214.106 218.463 214.71C218.204 215.055 217.945 215.314 217.686 215.572C217.514 215.745 217.427 215.831 217.255 215.917C217.082 216.004 216.823 216.176 216.565 216.004C216.392 215.745 216.478 215.572 216.478 215.314C216.478 215.141 216.565 214.882 216.651 214.71C216.737 214.364 216.91 213.933 217.082 213.588C217.427 212.898 217.686 212.208 218.118 211.517L218.463 211.69C218.031 212.466 217.514 213.157 216.996 213.847C216.737 214.192 216.478 214.537 216.133 214.882C215.961 215.055 215.788 215.227 215.616 215.314C215.529 215.4 215.357 215.486 215.098 215.314C214.925 215.141 214.839 214.968 214.839 214.882C214.839 214.364 214.925 213.933 215.098 213.502C215.27 213.07 215.357 212.639 215.529 212.294C215.874 211.517 216.219 210.655 216.565 209.878L216.91 210.051C216.478 210.827 216.047 211.604 215.529 212.38C215.27 212.725 215.012 213.07 214.753 213.415C214.58 213.588 214.408 213.761 214.235 213.847C214.149 213.933 213.976 214.019 213.804 213.933C213.631 213.933 213.545 213.674 213.545 213.588C213.545 212.639 213.976 211.776 214.235 211C214.58 210.137 214.925 209.36 215.357 208.584C215.012 209.36 214.667 210.223 214.408 211.086C214.235 211.517 214.149 211.949 214.063 212.38C213.976 212.812 213.804 213.243 213.89 213.674C213.89 213.761 213.976 213.847 213.976 213.847C213.976 213.847 214.063 213.847 214.149 213.761C214.321 213.674 214.494 213.502 214.58 213.329C214.839 212.984 215.098 212.639 215.357 212.294C215.788 211.517 216.306 210.827 216.651 210.051L216.996 210.223C216.651 211 216.306 211.776 215.961 212.639C215.702 213.415 215.357 214.278 215.27 215.055C215.27 215.141 215.27 215.227 215.27 215.141C215.27 215.141 215.27 215.141 215.357 215.141C215.529 215.055 215.702 214.882 215.788 214.796C216.047 214.537 216.306 214.192 216.565 213.847C217.082 213.157 217.514 212.466 218.031 211.69L218.376 211.862C218.031 212.553 217.686 213.243 217.341 213.933C217.169 214.278 216.996 214.623 216.91 214.968C216.823 215.141 216.823 215.314 216.737 215.486C216.737 215.659 216.651 215.831 216.737 215.917C216.823 216.004 216.996 215.917 217.082 215.831C217.255 215.745 217.341 215.659 217.514 215.486C217.772 215.227 218.031 214.968 218.29 214.71C218.808 214.019 219.325 213.415 219.757 212.812Z" fill="#FE9F75"/>
<g opacity="0.8">
<path d="M476.952 107.15H467.05C466.241 107.15 465.584 106.494 465.584 105.684V105.148C465.584 104.338 466.241 103.682 467.05 103.682H476.952C477.761 103.682 478.418 104.338 478.418 105.148V105.684C478.419 106.494 477.763 107.15 476.952 107.15Z" fill="#EBEFF2"/>
<path d="M534.882 107.15H483.355C482.545 107.15 481.889 106.494 481.889 105.684V105.148C481.889 104.338 482.545 103.682 483.355 103.682H534.882C535.692 103.682 536.348 104.338 536.348 105.148V105.684C536.348 106.494 535.692 107.15 534.882 107.15Z" fill="#EBEFF2"/>
<path d="M490.828 114.607H467.05C466.241 114.607 465.584 113.951 465.584 113.141V112.605C465.584 111.795 466.241 111.139 467.05 111.139H490.828C491.638 111.139 492.294 111.795 492.294 112.605V113.141C492.294 113.952 491.638 114.607 490.828 114.607Z" fill="#EBEFF2"/>
<path d="M548.757 114.607H497.23C496.42 114.607 495.764 113.951 495.764 113.141V112.605C495.764 111.795 496.42 111.139 497.23 111.139H548.757C549.567 111.139 550.223 111.795 550.223 112.605V113.141C550.223 113.952 549.567 114.607 548.757 114.607Z" fill="#EBEFF2"/>
</g>
<path d="M87.2031 91.9262V61.7715C87.2031 60.6669 88.0986 59.7715 89.2031 59.7715H233.245" stroke="#A9CBF7" stroke-width="1.5" stroke-linecap="round" stroke-linejoin="round" stroke-dasharray="6 6"/>
<g opacity="0.1">
<path d="M91.4838 254.648C91.0421 252.7 90.2927 250.865 89.296 249.194C87.7383 246.572 85.5637 244.346 82.9784 242.732C81.3324 241.699 79.5112 240.91 77.5751 240.418C76.0616 240.034 74.4789 239.832 72.8462 239.832C71.365 239.832 69.9207 240.003 68.5397 240.324C66.5919 240.765 64.7574 241.515 63.0864 242.506C60.4642 244.069 58.2381 246.244 56.6304 248.829C55.5895 250.475 54.8077 252.291 54.316 254.225C53.9258 255.739 53.7227 257.321 53.7227 258.954C53.7227 260.435 53.8934 261.879 54.2203 263.26C54.6546 265.208 55.4055 267.043 56.4022 268.714C57.9599 271.336 60.1345 273.562 62.7198 275.176C64.3658 276.209 66.1811 276.998 68.1157 277.49C69.6292 277.874 71.2119 278.076 72.8447 278.076C74.3258 278.076 75.7701 277.907 77.157 277.584C79.1048 277.143 80.9393 276.399 82.6045 275.402C85.234 273.839 87.4527 271.67 89.0663 269.079C90.1072 267.433 90.8949 265.618 91.3866 263.683C91.7709 262.17 91.9726 260.588 91.9726 258.954C91.9755 257.473 91.8048 256.029 91.4838 254.648ZM62.2369 258.954C62.2369 253.091 66.9909 248.343 72.8476 248.343C78.7103 248.343 83.4643 253.091 83.4643 258.954C83.4643 264.817 78.7103 269.565 72.8476 269.565C66.9909 269.565 62.2369 264.817 62.2369 258.954Z" fill="#0061BF"/>
<path d="M75.0735 246.873H71.0454C69.6629 246.873 68.541 245.751 68.541 244.368V238.659C68.541 237.276 69.6614 236.154 71.0454 236.154H75.0735C76.456 236.154 77.5779 237.275 77.5779 238.659V244.368C77.5779 245.751 76.4575 246.873 75.0735 246.873Z" fill="#0061BF"/>
<path d="M65.8787 248.84L63.0298 251.689C62.0522 252.667 60.4665 252.667 59.4889 251.689L55.4519 247.652C54.4744 246.675 54.4744 245.089 55.4519 244.111L58.3008 241.262C59.2784 240.285 60.8641 240.285 61.8417 241.262L65.8787 245.3C66.8563 246.277 66.8563 247.863 65.8787 248.84Z" fill="#0061BF"/>
<path d="M60.7671 256.733V260.761C60.7671 262.144 59.6466 263.265 58.2627 263.265H52.5532C51.1707 263.265 50.0488 262.144 50.0488 260.761V256.733C50.0488 255.35 51.1692 254.229 52.5532 254.229H58.2627C59.6466 254.229 60.7671 255.35 60.7671 256.733Z" fill="#0061BF"/>
<path d="M62.7349 265.929L65.5837 268.777C66.5613 269.755 66.5613 271.341 65.5837 272.318L61.5467 276.355C60.5691 277.333 58.9835 277.333 58.0059 276.355L55.157 273.506C54.1794 272.529 54.1794 270.943 55.157 269.966L59.194 265.929C60.1716 264.951 61.7558 264.951 62.7349 265.929Z" fill="#0061BF"/>
<path d="M70.6274 271.039H74.6556C76.038 271.039 77.1599 272.161 77.1599 273.543V279.253C77.1599 280.635 76.038 281.757 74.6556 281.757H70.6274C69.2449 281.757 68.123 280.635 68.123 279.253V273.543C68.123 272.159 69.2435 271.039 70.6274 271.039Z" fill="#0061BF"/>
<path d="M79.8241 269.072L82.673 266.223C83.6506 265.246 85.2363 265.246 86.2139 266.223L90.2509 270.26C91.2285 271.238 91.2285 272.824 90.2509 273.801L87.402 276.65C86.4244 277.628 84.8387 277.628 83.8611 276.65L79.8241 272.613C78.8451 271.636 78.8451 270.05 79.8241 269.072Z" fill="#0061BF"/>
<path d="M84.9336 261.179V257.151C84.9336 255.768 86.054 254.646 87.4379 254.646H93.1475C94.5299 254.646 95.6518 255.768 95.6518 257.151V261.179C95.6518 262.561 94.5299 263.683 93.1475 263.683H87.4379C86.054 263.683 84.9336 262.561 84.9336 261.179Z" fill="#0061BF"/>
<path d="M82.9668 251.984L80.118 249.135C79.1404 248.158 79.1404 246.572 80.118 245.594L84.155 241.557C85.1326 240.58 86.7182 240.58 87.6958 241.557L90.5447 244.406C91.5223 245.384 91.5223 246.97 90.5447 247.947L86.5077 251.984C85.5301 252.962 83.9444 252.962 82.9668 251.984Z" fill="#0061BF"/>
</g>
<path d="M425.668 96.8887V97.2685C425.668 98.5155 424.655 99.5285 423.408 99.5285C422.161 99.5285 421.148 98.5155 421.148 97.2685V96.8887" fill="#051F39"/>
<path d="M423.207 43.6836C413.293 43.6836 405.256 51.7208 405.256 61.6352C405.256 71.127 412.853 77.923 416.145 85.3301C416.413 85.9323 417.005 86.3239 417.663 86.3239H429.15C429.809 86.3239 430.401 85.9323 430.667 85.3301C433.961 77.923 441.557 71.127 441.557 61.6352C441.557 51.7208 433.519 43.6836 423.605 43.6836" fill="#FFA154"/>
<path d="M434.753 64.2248C434.753 62.2328 433.132 60.6133 431.14 60.6133C429.251 60.6133 427.716 62.0753 427.558 63.923H427.552L427.23 66.7969H423.959H423.87H419.579L419.256 63.923H419.25C419.094 62.0738 417.557 60.6133 415.668 60.6133C413.676 60.6133 412.057 62.2343 412.057 64.2248C412.057 66.1874 413.63 67.7804 415.58 67.8289V67.8599H418.626L420.68 86.203L421.737 86.0853L419.696 67.8599H423.869H423.957H427.109L425.069 86.0853L426.126 86.203L428.18 67.8599H431.226V67.8289C433.181 67.7789 434.753 66.1859 434.753 64.2248ZM415.673 66.7954V66.7733C414.267 66.7733 413.124 65.6294 413.124 64.2248C413.124 62.8188 414.268 61.6763 415.673 61.6763C417.079 61.6763 418.221 62.8202 418.221 64.2248H418.223L418.511 66.7954H415.673ZM431.142 66.7733V66.7954H428.303L428.592 64.2248H428.593C428.593 62.8188 429.737 61.6763 431.142 61.6763C432.546 61.6763 433.69 62.8202 433.69 64.2248C433.69 65.6294 432.546 66.7733 431.142 66.7733Z" fill="white"/>
<path d="M429.484 90.8005H417.331C416.709 90.8005 416.205 90.2955 416.205 89.6742V88.6907C416.205 88.068 416.71 87.5645 417.331 87.5645H429.484C430.106 87.5645 430.61 88.0694 430.61 88.6907V89.6742C430.61 90.2955 430.106 90.8005 429.484 90.8005Z" fill="#051F39"/>
<path d="M430.208 91.8633H416.602V93.3989C416.602 95.3408 418.177 96.9162 420.119 96.9162H426.693C428.635 96.9162 430.21 95.3423 430.21 93.3989V91.8633H430.208Z" fill="#051F39"/>
<path d="M437.346 41.0646C437.195 41.0646 437.04 41.0278 436.899 40.9498C436.448 40.7025 436.283 40.1356 436.532 39.6851L442.383 29.0464C442.63 28.5959 443.197 28.4324 443.648 28.6798C444.098 28.9271 444.263 29.494 444.014 29.9445L438.163 40.5832C437.993 40.8894 437.675 41.0646 437.346 41.0646Z" fill="#FF7300"/>
<path d="M446.836 50.7265C446.51 50.7265 446.194 50.5543 446.023 50.2495C445.771 49.8004 445.933 49.2336 446.381 48.9833L451.612 46.0579C452.061 45.8076 452.628 45.9666 452.878 46.4157C453.13 46.8647 452.968 47.4315 452.52 47.6818L447.291 50.6073C447.145 50.6882 446.989 50.7265 446.836 50.7265Z" fill="#FF7300"/>
<path d="M462.701 63.8493H450.29C449.776 63.8493 449.359 63.4326 449.359 62.9188C449.359 62.4049 449.776 61.9883 450.29 61.9883H462.701C463.215 61.9883 463.632 62.4049 463.632 62.9188C463.632 63.4326 463.215 63.8493 462.701 63.8493Z" fill="#FF7300"/>
<path d="M451.531 79.894C451.361 79.894 451.191 79.8484 451.037 79.7512L446.516 76.9141C446.08 76.6403 445.949 76.0661 446.223 75.6317C446.497 75.196 447.073 75.0649 447.505 75.3373L452.027 78.1744C452.463 78.4482 452.594 79.0224 452.32 79.4567C452.143 79.7394 451.84 79.894 451.531 79.894Z" fill="#FF7300"/>
<path d="M424.05 37.5195C423.536 37.5195 423.119 37.1029 423.119 36.589V30.9149C423.119 30.401 423.536 29.9844 424.05 29.9844C424.563 29.9844 424.98 30.401 424.98 30.9149V36.589C424.98 37.1029 424.563 37.5195 424.05 37.5195Z" fill="#FF7300"/>
<path d="M411.021 40.9767C410.704 40.9767 410.397 40.8148 410.221 40.5247L403.573 29.4428C403.308 29.0026 403.45 28.4299 403.892 28.1664C404.332 27.9014 404.905 28.0442 405.169 28.4858L411.817 39.5677C412.082 40.0079 411.94 40.5807 411.498 40.8442C411.349 40.934 411.184 40.9767 411.021 40.9767Z" fill="#FF7300"/>
<path d="M401.181 50.3758C401.019 50.3758 400.854 50.3331 400.704 50.2433L395.208 46.963C394.766 46.6995 394.622 46.1283 394.886 45.6866C395.149 45.2449 395.72 45.1006 396.162 45.3641L401.658 48.6444C402.1 48.9079 402.244 49.4792 401.981 49.9209C401.807 50.2138 401.498 50.3758 401.181 50.3758Z" fill="#FF7300"/>
<path d="M397.726 63.5837C397.678 63.5837 397.63 63.5793 397.581 63.5719L386.146 61.7993C385.638 61.7212 385.289 61.2442 385.369 60.7363C385.447 60.2283 385.922 59.8779 386.432 59.9589L397.867 61.7315C398.375 61.8096 398.722 62.2866 398.644 62.7945C398.572 63.2539 398.176 63.5837 397.726 63.5837Z" fill="#FF7300"/>
<path d="M396.039 79.3658C395.686 79.3658 395.349 79.1641 395.193 78.824C394.978 78.3573 395.184 77.8037 395.65 77.5903L401.058 75.108C401.526 74.8945 402.078 75.0991 402.292 75.5659C402.507 76.0326 402.301 76.5862 401.834 76.7996L396.426 79.2819C396.301 79.3393 396.17 79.3658 396.039 79.3658Z" fill="#FF7300"/>
<path d="M438.923 62.9031C438.627 62.9031 438.369 62.6823 438.331 62.3804C436.905 51.1072 426.147 47.2321 426.038 47.1938C425.727 47.0849 425.562 46.7448 425.67 46.4341C425.777 46.1235 426.119 45.9586 426.429 46.0661C426.544 46.1058 437.994 50.2076 439.515 62.2303C439.556 62.5571 439.325 62.856 438.997 62.8972C438.973 62.9016 438.948 62.9031 438.923 62.9031Z" fill="white"/>
<path opacity="0.1" d="M563.154 412H45.8448C44.273 412 43 411.586 43 411.074V410.926C43 410.414 44.273 410 45.8448 410H563.155C564.727 410 566 410.414 566 410.926V411.074C565.998 411.586 564.725 412 563.154 412Z" fill="#FF7300"/>
<path d="M461.819 373.31C461.758 373.31 461.696 373.322 461.621 373.322C455.353 373.186 444.318 340.886 428.416 342.731C428.242 342.743 428.069 342.768 427.896 342.793C427.896 342.793 443.007 335.598 450.623 339.536C463.504 346.199 464.545 373.063 461.819 373.31Z" fill="#B7DBFF"/>
<path opacity="0.4" d="M462.789 396.486C462.78 396.486 462.773 396.486 462.764 396.485C462.552 396.471 462.39 396.287 462.404 396.075C462.434 395.567 465.367 345.243 440.042 341.76C439.832 341.73 439.683 341.536 439.713 341.325C439.742 341.116 439.925 340.959 440.147 340.996C466.178 344.575 463.206 395.61 463.174 396.125C463.162 396.328 462.992 396.486 462.789 396.486Z" fill="#3588D8"/>
<path d="M504.053 353.841C504.041 353.841 504.016 353.841 504.003 353.829C487.915 351.314 476.743 383.937 470.402 384.358C470.304 384.371 470.203 384.371 470.117 384.358C467.405 384.123 468.444 357.259 481.325 350.597C488.744 346.757 503.309 353.495 504.026 353.83C504.04 353.841 504.053 353.841 504.053 353.841Z" fill="#B7DBFF"/>
<path opacity="0.4" d="M469.153 407.534C468.949 407.534 468.78 407.377 468.768 407.172C468.736 406.658 465.762 355.623 491.795 352.043C492.02 352.006 492.2 352.162 492.229 352.372C492.259 352.583 492.11 352.777 491.899 352.807C466.575 356.29 469.506 406.614 469.538 407.122C469.552 407.334 469.391 407.52 469.178 407.531C469.169 407.534 469.161 407.534 469.153 407.534Z" fill="#3588D8"/>
<path d="M463.839 351.587V351.637C463.827 351.736 463.814 351.786 463.814 351.786C463.814 351.786 455.331 345.024 451.454 327.053C446.401 303.695 437.248 298.926 437.248 298.926L436.74 298.666C436.914 298.629 437.074 298.604 437.248 298.579C449.459 296.313 458.711 302.245 462.228 316.438C466.143 332.181 464.1 349.582 463.839 351.587Z" fill="#B7DBFF"/>
<path opacity="0.4" d="M465.485 405.214C465.272 405.214 465.099 405.042 465.099 404.83L465.108 404.554C465.398 395.176 467.303 312.64 445.244 302.949C445.05 302.864 444.96 302.636 445.047 302.44C445.132 302.244 445.362 302.16 445.556 302.242C467.611 311.93 466.355 389.188 465.88 404.577L465.872 404.83C465.869 405.043 465.697 405.214 465.485 405.214Z" fill="#3588D8"/>
<path d="M495.545 309.329L495.025 309.576C495.025 309.576 485.885 314.345 480.832 337.714C477.029 355.252 468.868 362.113 468.484 362.422C468.472 362.434 468.472 362.434 468.472 362.434C468.472 362.434 465.896 343.832 470.045 327.087C473.612 312.732 483.049 306.837 495.471 309.315C495.496 309.317 495.52 309.329 495.545 309.329Z" fill="#B7DBFF"/>
<path opacity="0.4" d="M466.621 406.121C466.409 406.121 466.237 405.951 466.236 405.739C466.078 380.598 467.762 321.226 486.727 312.895C486.924 312.812 487.151 312.896 487.236 313.092C487.323 313.288 487.233 313.516 487.039 313.602C468.493 321.751 466.853 380.746 467.009 405.734C467.01 405.948 466.838 406.121 466.624 406.123L466.621 406.121Z" fill="#3588D8"/>
<path d="M472.848 410.292H458.635C457.719 410.292 456.955 409.59 456.878 408.677L455.278 392.247C455.164 391.071 456.088 390.053 457.269 390.053H474.214C475.396 390.053 476.319 391.071 476.205 392.246L474.606 408.677C474.528 409.591 473.764 410.292 472.848 410.292Z" fill="#4991FF"/>
<path d="M239.109 30H326.891C329.132 30 331 32.4693 331 35.4324V91.5676C331 94.5307 329.132 97 326.891 97H239.109C236.868 97 235 94.5307 235 91.5676V35.4324C235.125 32.4693 236.868 30 239.109 30Z" fill="#C6E2FD"/>
<g filter="url(#filter2_d_15084_27369)">
<path d="M235 42V92.0679C235 94.7581 236.87 97 239.114 97H326.886C329.13 97 331 94.7581 331 92.0679V42H235Z" fill="white"/>
</g>
<path opacity="0.3" d="M245 36C245 37.12 244.12 38 243 38C241.88 38 241 37.12 241 36C241 34.88 241.88 34 243 34C244.12 34 245 34.88 245 36Z" fill="#0061BF"/>
<path opacity="0.3" d="M252 36C252 37.12 251.12 38 250 38C248.88 38 248 37.12 248 36C248 34.88 248.88 34 250 34C251.12 34 252 34.88 252 36Z" fill="#0061BF"/>
<path d="M299.004 60H285.943C285.022 59.9999 284.106 60.1727 283.235 60.5113C284.95 61.1827 286.426 62.4644 287.44 64.1637H299.009C299.627 64.151 300.241 64.2774 300.815 64.5356C301.389 64.7939 301.912 65.1787 302.353 65.6676C302.794 66.1565 303.144 66.7397 303.383 67.3832C303.622 68.0266 303.745 68.7174 303.745 69.4152C303.745 70.113 303.622 70.8038 303.383 71.4473C303.144 72.0908 302.794 72.674 302.353 73.1629C301.912 73.6518 301.389 74.0366 300.815 74.2948C300.241 74.553 299.627 74.6795 299.009 74.6668H285.943C284.96 74.6651 284.002 74.3114 283.208 73.6567C282.414 73.0019 281.824 72.0798 281.523 71.0227C281.222 69.9656 281.226 68.8281 281.533 67.7735C281.841 66.7189 282.437 65.8016 283.235 65.1533C282.446 64.5099 281.497 64.1641 280.524 64.1654H279.031C278.105 65.7169 277.609 67.5456 277.609 69.417C277.609 71.2884 278.105 73.1171 279.031 74.6685C279.792 75.9511 280.822 77.002 282.029 77.7282C283.235 78.4545 284.582 78.8336 285.949 78.8322H299.01C301.222 78.8322 303.343 77.8402 304.907 76.0743C306.471 74.3084 307.35 71.9134 307.35 69.4161C307.35 66.9188 306.471 64.5238 304.907 62.7579C303.343 60.9921 301.222 60 299.01 60H299.004Z" fill="#0061BF"/>
<path d="M288.857 69.4178C288.858 71.2897 288.363 73.119 287.435 74.6703H285.942C284.97 74.6703 284.022 74.324 283.234 73.6807C284.033 73.0322 284.629 72.1146 284.936 71.0596C285.244 70.0047 285.247 68.8668 284.946 67.8096C284.645 66.7524 284.054 65.8302 283.26 65.1757C282.465 64.5212 281.507 64.1681 280.523 64.1672H267.461C266.242 64.1922 265.08 64.7565 264.226 65.7386C263.372 66.7208 262.893 68.0422 262.893 69.4187C262.893 70.7952 263.372 72.1167 264.226 73.0988C265.08 74.0809 266.242 74.6452 267.461 74.6703H279.031C280.046 76.3693 281.521 77.6509 283.236 78.3226C282.363 78.6603 281.446 78.8325 280.523 78.8322H267.461C266.366 78.8322 265.281 78.5887 264.269 78.1155C263.257 77.6423 262.338 76.9487 261.564 76.0743C260.789 75.1999 260.175 74.1619 259.756 73.0195C259.337 71.8771 259.121 70.6526 259.121 69.4161C259.121 68.1796 259.337 66.9551 259.756 65.8127C260.175 64.6703 260.789 63.6323 261.564 62.7579C262.338 61.8835 263.257 61.19 264.269 60.7168C265.281 60.2436 266.366 60 267.461 60H280.523C282.734 60.0032 284.854 60.9963 286.417 62.7615C287.981 64.5266 288.86 66.9198 288.863 69.4161L288.857 69.4178Z" fill="#FF7300"/>
<path d="M53 152.5V147.5C53 145.015 50.9853 143 48.5 143C46.0147 143 44 145.015 44 147.5V152.5C44 154.985 46.0147 157 48.5 157C50.9853 157 53 154.985 53 152.5Z" fill="#EBEFF2"/>
<path d="M69 152V138C69 135.239 66.7614 133 64 133C61.2386 133 59 135.239 59 138V152C59 154.761 61.2386 157 64 157C66.7614 157 69 154.761 69 152Z" fill="#EBEFF2"/>
<path d="M84 152.5V140.5C84 138.015 81.9853 136 79.5 136C77.0147 136 75 138.015 75 140.5V152.5C75 154.985 77.0147 157 79.5 157C81.9853 157 84 154.985 84 152.5Z" fill="#EBEFF2"/>
<path d="M99.6726 152.509V134.266C99.6726 131.717 97.6061 129.65 95.057 129.65C92.5079 129.65 90.4414 131.717 90.4414 134.266V152.509C90.4414 155.058 92.5079 157.125 95.057 157.125C97.6061 157.125 99.6726 155.058 99.6726 152.509Z" fill="#EBEFF2"/>
<path d="M115.154 152.506V123.777C115.154 121.228 113.087 119.162 110.539 119.162C107.99 119.162 105.924 121.228 105.924 123.777V152.506C105.924 155.054 107.99 157.12 110.539 157.12C113.087 157.12 115.154 155.054 115.154 152.506Z" fill="#EBEFF2"/>
<path d="M130.632 152.507V116.616C130.632 114.066 128.565 112 126.016 112C123.467 112 121.4 114.066 121.4 116.616V152.507C121.4 155.056 123.467 157.123 126.016 157.123C128.565 157.123 130.632 155.056 130.632 152.507Z" fill="#EBEFF2"/>
<g filter="url(#filter3_d_15084_27369)">
<rect x="484" y="157" width="73" height="63" rx="8" fill="white"/>
</g>
<path d="M484 165C484 160.582 487.582 157 492 157H549C553.418 157 557 160.582 557 165V171H484V165Z" fill="#C6E2FD"/>
<path opacity="0.3" d="M495 164C495 165.12 494.12 166 493 166C491.88 166 491 165.12 491 164C491 162.88 491.88 162 493 162C494.12 162 495 162.88 495 164Z" fill="#0061BF"/>
<path opacity="0.3" d="M502 164C502 165.12 501.12 166 500 166C498.88 166 498 165.12 498 164C498 162.88 498.88 162 500 162C501.12 162 502 162.88 502 164Z" fill="#0061BF"/>
<path d="M520.5 211C529.06 211 536 204.06 536 195.5C536 186.94 529.06 180 520.5 180C511.94 180 505 186.94 505 195.5C505 204.06 511.94 211 520.5 211Z" fill="url(#paint5_linear_15084_27369)"/>
<path d="M515.7 201.002C515.607 201.002 515.514 200.989 515.422 200.962C515.146 200.878 514.912 200.678 514.77 200.402L511.139 193.306C510.848 192.736 511.028 192.013 511.541 191.689C512.054 191.364 512.706 191.565 512.998 192.135L516.095 198.187L528.474 190.162C528.983 189.833 529.638 190.021 529.936 190.588C530.234 191.153 530.062 191.878 529.552 192.208L516.238 200.839C516.074 200.947 515.888 201.002 515.7 201.002Z" fill="white"/>
<path d="M284.605 220.822L284.605 237.041C284.605 237.593 285.053 238.041 285.605 238.041L297.643 238.041C298.195 238.041 298.643 237.593 298.643 237.041L298.643 220.822C298.643 220.27 298.195 219.822 297.643 219.822L285.605 219.822C285.053 219.822 284.605 220.27 284.605 220.822Z" fill="#F2F5F6"/>
<path d="M304.49 220.822L304.49 237.041C304.49 237.593 304.938 238.041 305.49 238.041L318.697 238.041C319.25 238.041 319.697 237.593 319.697 237.041L319.697 220.822C319.697 220.27 319.25 219.822 318.697 219.822L305.49 219.822C304.938 219.822 304.49 220.27 304.49 220.822Z" fill="#F2F5F6"/>
<path d="M283.117 200.206L283.117 211.936C283.117 212.488 283.565 212.936 284.117 212.936L318.965 212.936C319.518 212.936 319.965 212.488 319.965 211.936L319.965 200.206C319.965 199.653 319.518 199.206 318.965 199.206L284.117 199.206C283.565 199.206 283.117 199.653 283.117 200.206Z" fill="#F2F5F6"/>
<path d="M371 169L371 239L374 239L374 169L371 169Z" fill="#F2F5F6"/>
<path d="M323 171L323 238L326 238L326 171L323 171Z" fill="#F2F5F6"/>
<path d="M326 221L326 224L418 224L418 221L326 221Z" fill="#F2F5F6"/>
<path d="M282 169L282 171L374 171L374 169L282 169Z" fill="#F2F5F6"/>
<path d="M284 194L284 196L418 196L418 194L284 194Z" fill="#F2F5F6"/>
<path d="M330.014 208.442L330.014 217.426C330.014 217.978 330.461 218.426 331.014 218.426L349.113 218.426C349.665 218.426 350.113 217.978 350.113 217.426L350.113 208.442C350.113 207.89 349.665 207.442 349.113 207.442L331.014 207.442C330.461 207.442 330.014 207.89 330.014 208.442Z" fill="#F2F5F6"/>
<path d="M345 237L345 235C345 234.448 345.448 234 346 234L360 234C360.552 234 361 234.448 361 235L361 237C361 237.552 360.552 238 360 238L346 238C345.448 238 345 237.552 345 237Z" fill="#F2F5F6"/>
<path d="M330.227 229.452L330.227 237.041C330.227 237.593 330.674 238.041 331.227 238.041L340.924 238.041C341.477 238.041 341.924 237.593 341.924 237.041L341.924 229.452C341.924 228.9 341.477 228.452 340.924 228.452L331.227 228.452C330.674 228.452 330.227 228.9 330.227 229.452Z" fill="#F2F5F6"/>
<path d="M330.014 199.291L330.014 204.613C330.014 205.166 330.461 205.613 331.014 205.613L341.296 205.613C341.849 205.613 342.296 205.166 342.296 204.613L342.296 199.291C342.296 198.738 341.849 198.291 341.296 198.291L331.014 198.291C330.461 198.291 330.014 198.738 330.014 199.291Z" fill="#F2F5F6"/>
<path d="M345.646 199.291L345.646 204.613C345.646 205.166 346.094 205.613 346.646 205.613L365.862 205.613C366.414 205.613 366.862 205.166 366.862 204.613L366.862 199.291C366.862 198.738 366.414 198.291 365.862 198.291L346.646 198.291C346.094 198.291 345.646 198.738 345.646 199.291Z" fill="#F2F5F6"/>
<path d="M375.795 199.291L375.795 204.613C375.795 205.166 376.243 205.613 376.795 205.613L387.078 205.613C387.63 205.613 388.078 205.166 388.078 204.613L388.078 199.291C388.078 198.738 387.63 198.291 387.078 198.291L376.795 198.291C376.243 198.291 375.795 198.738 375.795 199.291Z" fill="#F2F5F6"/>
<path d="M330.014 185.729L330.014 190.137C330.014 190.689 330.461 191.137 331.014 191.137L365.862 191.137C366.414 191.137 366.862 190.689 366.862 190.137L366.862 185.729C366.862 185.177 366.414 184.729 365.862 184.729L331.014 184.729C330.461 184.729 330.014 185.177 330.014 185.729Z" fill="#F2F5F6"/>
<path d="M330.014 174.576L330.014 179.898C330.014 180.451 330.461 180.898 331.014 180.898L365.862 180.898C366.414 180.898 366.862 180.451 366.862 179.898L366.862 174.576C366.862 174.024 366.414 173.576 365.862 173.576L331.014 173.576C330.461 173.576 330.014 174.024 330.014 174.576Z" fill="#F2F5F6"/>
<path d="M283.117 175.577L283.117 184.561C283.117 185.113 283.565 185.561 284.117 185.561L318.965 185.561C319.518 185.561 319.965 185.113 319.965 184.561L319.965 175.577C319.965 175.024 319.518 174.577 318.965 174.577L284.117 174.577C283.565 174.577 283.117 175.024 283.117 175.577Z" fill="#F2F5F6"/>
<path d="M376.912 170L376.912 189.053C376.912 189.605 377.36 190.053 377.912 190.053L417.227 190.053C417.779 190.053 418.227 189.605 418.227 189.053L418.227 170C418.227 169.448 417.779 169 417.227 169L377.912 169C377.36 169 376.912 169.448 376.912 170Z" fill="#F2F5F6"/>
<path d="M402.596 199.289L402.596 218.342C402.596 218.894 403.043 219.342 403.596 219.342L417.228 219.342C417.781 219.342 418.228 218.894 418.228 218.342L418.228 199.289C418.228 198.737 417.781 198.289 417.228 198.289L403.596 198.289C403.043 198.289 402.596 198.737 402.596 199.289Z" fill="#F2F5F6"/>
<path d="M389 199L389 218C389 218.552 389.448 219 390 219L396 219C396.552 219 397 218.552 397 218L397 199C397 198.448 396.552 198 396 198L390 198C389.448 198 389 198.448 389 199Z" fill="#F2F5F6"/>
<path d="M391 233L391 237C391 237.552 391.448 238 392 238L417 238C417.552 238 418 237.552 418 237L418 233C418 232.448 417.552 232 417 232L392 232C391.448 232 391 232.448 391 233Z" fill="#F2F5F6"/>
<path d="M387.227 222C387.227 214.268 380.959 208 373.227 208C365.495 208 359.227 214.268 359.227 222C359.227 229.732 365.495 236 373.227 236C380.959 236 387.227 229.732 387.227 222Z" fill="#FF7300"/>
<path d="M373 212C369.686 212 367 214.715 367 218.064C367 221.413 373 228 373 228C373 228 379 221.413 379 218.064C379 214.715 376.314 212 373 212ZM373 220.539C371.331 220.539 369.979 219.236 369.979 217.629C369.979 216.021 371.331 214.718 373 214.718C374.669 214.718 376.021 216.021 376.021 217.629C376.021 219.236 374.669 220.539 373 220.539Z" fill="white"/>
<defs>
<filter id="filter0_d_15084_27369" x="133.826" y="113.415" width="340.348" height="260.348" filterUnits="userSpaceOnUse" color-interpolation-filters="sRGB">
<feFlood flood-opacity="0" result="BackgroundImageFix"/>
<feColorMatrix in="SourceAlpha" type="matrix" values="0 0 0 0 0 0 0 0 0 0 0 0 0 0 0 0 0 0 127 0" result="hardAlpha"/>
<feOffset dy="12.5869"/>
<feGaussianBlur stdDeviation="12.5869"/>
<feComposite in2="hardAlpha" operator="out"/>
<feColorMatrix type="matrix" values="0 0 0 0 0.117647 0 0 0 0 0.129412 0 0 0 0 0.176471 0 0 0 0.06 0"/>
<feBlend mode="normal" in2="BackgroundImageFix" result="effect1_dropShadow_15084_27369"/>
<feBlend mode="normal" in="SourceGraphic" in2="effect1_dropShadow_15084_27369" result="shape"/>
</filter>
<filter id="filter1_d_15084_27369" x="3.82618" y="81.4131" width="167.348" height="120.348" filterUnits="userSpaceOnUse" color-interpolation-filters="sRGB">
<feFlood flood-opacity="0" result="BackgroundImageFix"/>
<feColorMatrix in="SourceAlpha" type="matrix" values="0 0 0 0 0 0 0 0 0 0 0 0 0 0 0 0 0 0 127 0" result="hardAlpha"/>
<feOffset dy="12.5869"/>
<feGaussianBlur stdDeviation="12.5869"/>
<feComposite in2="hardAlpha" operator="out"/>
<feColorMatrix type="matrix" values="0 0 0 0 0.117647 0 0 0 0 0.129412 0 0 0 0 0.176471 0 0 0 0.06 0"/>
<feBlend mode="normal" in2="BackgroundImageFix" result="effect1_dropShadow_15084_27369"/>
<feBlend mode="normal" in="SourceGraphic" in2="effect1_dropShadow_15084_27369" result="shape"/>
</filter>
<filter id="filter2_d_15084_27369" x="195" y="17" width="176" height="135" filterUnits="userSpaceOnUse" color-interpolation-filters="sRGB">
<feFlood flood-opacity="0" result="BackgroundImageFix"/>
<feColorMatrix in="SourceAlpha" type="matrix" values="0 0 0 0 0 0 0 0 0 0 0 0 0 0 0 0 0 0 127 0" result="hardAlpha"/>
<feOffset dy="15"/>
<feGaussianBlur stdDeviation="20"/>
<feComposite in2="hardAlpha" operator="out"/>
<feColorMatrix type="matrix" values="0 0 0 0 0.117647 0 0 0 0 0.129412 0 0 0 0 0.176471 0 0 0 0.05 0"/>
<feBlend mode="normal" in2="BackgroundImageFix" result="effect1_dropShadow_15084_27369"/>
<feBlend mode="normal" in="SourceGraphic" in2="effect1_dropShadow_15084_27369" result="shape"/>
</filter>
<filter id="filter3_d_15084_27369" x="458.826" y="144.413" width="123.348" height="113.348" filterUnits="userSpaceOnUse" color-interpolation-filters="sRGB">
<feFlood flood-opacity="0" result="BackgroundImageFix"/>
<feColorMatrix in="SourceAlpha" type="matrix" values="0 0 0 0 0 0 0 0 0 0 0 0 0 0 0 0 0 0 127 0" result="hardAlpha"/>
<feOffset dy="12.5869"/>
<feGaussianBlur stdDeviation="12.5869"/>
<feComposite in2="hardAlpha" operator="out"/>
<feColorMatrix type="matrix" values="0 0 0 0 0.117647 0 0 0 0 0.129412 0 0 0 0 0.176471 0 0 0 0.06 0"/>
<feBlend mode="normal" in2="BackgroundImageFix" result="effect1_dropShadow_15084_27369"/>
<feBlend mode="normal" in="SourceGraphic" in2="effect1_dropShadow_15084_27369" result="shape"/>
</filter>
<linearGradient id="paint0_linear_15084_27369" x1="268.58" y1="4.14771" x2="268.58" y2="427" gradientUnits="userSpaceOnUse">
<stop stop-color="#FF7300"/>
<stop offset="1" stop-color="#FF7300" stop-opacity="0"/>
</linearGradient>
<linearGradient id="paint1_linear_15084_27369" x1="285.626" y1="172.33" x2="310.709" y2="172.33" gradientUnits="userSpaceOnUse">
<stop offset="0.0477" stop-color="#FFD53C"/>
<stop offset="1" stop-color="#FFB53C"/>
</linearGradient>
<linearGradient id="paint2_linear_15084_27369" x1="175.904" y1="240.858" x2="117.803" y2="240.858" gradientUnits="userSpaceOnUse">
<stop stop-color="#FAB882"/>
<stop offset="1" stop-color="#FF7300"/>
</linearGradient>
<linearGradient id="paint3_linear_15084_27369" x1="183.939" y1="221.907" x2="155.797" y2="221.907" gradientUnits="userSpaceOnUse">
<stop stop-color="#FAB882"/>
<stop offset="1" stop-color="#FF7300"/>
</linearGradient>
<linearGradient id="paint4_linear_15084_27369" x1="141.145" y1="221.527" x2="107.737" y2="221.527" gradientUnits="userSpaceOnUse">
<stop stop-color="#FAB882"/>
<stop offset="1" stop-color="#FF7300"/>
</linearGradient>
<linearGradient id="paint5_linear_15084_27369" x1="505.001" y1="195.5" x2="536" y2="195.5" gradientUnits="userSpaceOnUse">
<stop stop-color="#43C7FF"/>
<stop offset="1" stop-color="#5792FF"/>
</linearGradient>
</defs>
</svg>
