<svg width="242" height="35" viewBox="0 0 242 35" fill="none" xmlns="http://www.w3.org/2000/svg">
<path d="M50.9727 23.6915V7.35813H53.309V21.6615H62.1636V23.6915H50.9727Z" fill="#051F39"/>
<path d="M64.5174 23.6915V11.3248H66.7603V23.6915H64.5174ZM65.6388 8.94479C65.2027 8.94479 64.8367 8.80479 64.5408 8.52479C64.2604 8.24479 64.1202 7.90257 64.1202 7.49813C64.1202 7.07813 64.2604 6.72813 64.5408 6.44813C64.8367 6.16813 65.2027 6.02813 65.6388 6.02813C66.075 6.02813 66.4332 6.16813 66.7135 6.44813C67.0095 6.71257 67.1574 7.04701 67.1574 7.45146C67.1574 7.87146 67.0173 8.22924 66.7369 8.52479C66.4566 8.80479 66.0905 8.94479 65.6388 8.94479Z" fill="#051F39"/>
<path d="M77.6544 11.2081C78.6668 11.2081 79.5546 11.4026 80.3178 11.7915C81.0966 12.1803 81.704 12.7715 82.1401 13.5648C82.5762 14.3581 82.7943 15.3615 82.7943 16.5748V23.6915H80.5514V16.8315C80.5514 15.6337 80.2555 14.7315 79.6636 14.1248C79.0874 13.5181 78.2696 13.2148 77.2105 13.2148C76.4162 13.2148 75.7231 13.3703 75.1312 13.6815C74.5393 13.9926 74.0799 14.4515 73.7528 15.0581C73.4413 15.6648 73.2855 16.4192 73.2855 17.3215V23.6915H71.0427V11.3248H73.1921V14.6615L72.8416 13.7748C73.2466 12.9659 73.8696 12.3359 74.7107 11.8848C75.5517 11.4337 76.533 11.2081 77.6544 11.2081Z" fill="#051F39"/>
<path d="M88.7674 20.7048L88.8141 17.8348L95.9399 11.3248H98.65L93.183 16.6915L91.9682 17.7181L88.7674 20.7048ZM86.9451 23.6915V6.37813H89.1879V23.6915H86.9451ZM96.4071 23.6915L91.5476 17.6715L92.9961 15.8748L99.164 23.6915H96.4071Z" fill="#051F39"/>
<path d="M101.155 23.6915V7.35813H109.145C111.201 7.35813 112.743 7.74701 113.771 8.52479C114.814 9.30257 115.336 10.3292 115.336 11.6048C115.336 12.4603 115.126 13.207 114.705 13.8448C114.285 14.467 113.709 14.9492 112.977 15.2915C112.244 15.6337 111.403 15.8048 110.453 15.8048L110.897 14.8481C111.925 14.8481 112.836 15.0192 113.631 15.3615C114.425 15.6881 115.04 16.1781 115.476 16.8315C115.928 17.4848 116.154 18.2859 116.154 19.2348C116.154 20.6348 115.601 21.7315 114.495 22.5248C113.389 23.3026 111.762 23.6915 109.612 23.6915H101.155ZM104.916 20.8448H109.332C110.313 20.8448 111.053 20.6892 111.551 20.3781C112.065 20.0515 112.322 19.5381 112.322 18.8381C112.322 18.1537 112.065 17.6481 111.551 17.3215C111.053 16.9792 110.313 16.8081 109.332 16.8081H104.636V14.0548H108.678C109.597 14.0548 110.298 13.8992 110.78 13.5881C111.279 13.2615 111.528 12.7715 111.528 12.1181C111.528 11.4803 111.279 11.0059 110.78 10.6948C110.298 10.3681 109.597 10.2048 108.678 10.2048H104.916V20.8448Z" fill="#051F39"/>
<path d="M124.066 23.8781C123.022 23.8781 122.088 23.6759 121.262 23.2715C120.452 22.867 119.821 22.2526 119.37 21.4281C118.918 20.5881 118.692 19.5226 118.692 18.2315V11.1381H122.337V17.6948C122.337 18.737 122.555 19.507 122.991 20.0048C123.443 20.487 124.074 20.7281 124.883 20.7281C125.444 20.7281 125.943 20.6115 126.379 20.3781C126.815 20.1292 127.158 19.7559 127.407 19.2581C127.656 18.7448 127.781 18.107 127.781 17.3448V11.1381H131.425V23.6915H127.967V20.2381L128.598 21.2415C128.178 22.1126 127.555 22.7737 126.729 23.2248C125.919 23.6603 125.031 23.8781 124.066 23.8781Z" fill="#051F39"/>
<path d="M134.802 23.6915V11.1381H138.446V23.6915H134.802ZM136.624 9.38813C135.954 9.38813 135.409 9.19368 134.989 8.80479C134.568 8.4159 134.358 7.93368 134.358 7.35813C134.358 6.78257 134.568 6.30035 134.989 5.91146C135.409 5.52257 135.954 5.32812 136.624 5.32812C137.294 5.32812 137.839 5.51479 138.259 5.88813C138.68 6.2459 138.89 6.71257 138.89 7.28813C138.89 7.89479 138.68 8.40035 138.259 8.80479C137.854 9.19368 137.309 9.38813 136.624 9.38813Z" fill="#051F39"/>
<path d="M141.829 23.6915V6.37813H145.473V23.6915H141.829Z" fill="#051F39"/>
<path d="M154.253 23.8781C153.069 23.8781 152.002 23.6137 151.052 23.0848C150.102 22.5403 149.347 21.7859 148.786 20.8215C148.241 19.857 147.968 18.7215 147.968 17.4148C147.968 16.0926 148.241 14.9492 148.786 13.9848C149.347 13.0203 150.102 12.2737 151.052 11.7448C152.002 11.2159 153.069 10.9515 154.253 10.9515C155.312 10.9515 156.239 11.1848 157.033 11.6515C157.827 12.1181 158.443 12.8259 158.879 13.7748C159.315 14.7237 159.533 15.937 159.533 17.4148C159.533 18.877 159.323 20.0903 158.902 21.0548C158.482 22.0037 157.874 22.7115 157.08 23.1781C156.301 23.6448 155.359 23.8781 154.253 23.8781ZM154.884 20.8915C155.476 20.8915 156.013 20.7515 156.496 20.4715C156.979 20.1915 157.36 19.7948 157.641 19.2815C157.937 18.7526 158.084 18.1303 158.084 17.4148C158.084 16.6837 157.937 16.0615 157.641 15.5481C157.36 15.0348 156.979 14.6381 156.496 14.3581C156.013 14.0781 155.476 13.9381 154.884 13.9381C154.276 13.9381 153.731 14.0781 153.248 14.3581C152.765 14.6381 152.376 15.0348 152.08 15.5481C151.8 16.0615 151.66 16.6837 151.66 17.4148C151.66 18.1303 151.8 18.7526 152.08 19.2815C152.376 19.7948 152.765 20.1915 153.248 20.4715C153.731 20.7515 154.276 20.8915 154.884 20.8915ZM158.178 23.6915V21.1248L158.248 17.3915L158.014 13.6815V6.37813H161.659V23.6915H158.178Z" fill="#051F39"/>
<path d="M171.27 23.8781C169.837 23.8781 168.576 23.5981 167.485 23.0381C166.411 22.4781 165.577 21.7159 164.986 20.7515C164.394 19.7715 164.098 18.6592 164.098 17.4148C164.098 16.1548 164.386 15.0426 164.962 14.0781C165.554 13.0981 166.356 12.3359 167.369 11.7915C168.381 11.2315 169.526 10.9515 170.803 10.9515C172.033 10.9515 173.139 11.2159 174.12 11.7448C175.117 12.2581 175.904 13.0048 176.48 13.9848C177.056 14.9492 177.345 16.1081 177.345 17.4615C177.345 17.6015 177.337 17.7648 177.321 17.9515C177.306 18.1226 177.29 18.2859 177.275 18.4415H167.065V16.3181H175.359L173.957 16.9481C173.957 16.2948 173.825 15.727 173.56 15.2448C173.295 14.7626 172.929 14.3892 172.462 14.1248C171.994 13.8448 171.449 13.7048 170.826 13.7048C170.203 13.7048 169.65 13.8448 169.168 14.1248C168.7 14.3892 168.334 14.7703 168.069 15.2681C167.805 15.7503 167.672 16.3259 167.672 16.9948V17.5548C167.672 18.2392 167.82 18.8459 168.116 19.3748C168.428 19.8881 168.856 20.2848 169.401 20.5648C169.962 20.8292 170.616 20.9615 171.364 20.9615C172.033 20.9615 172.617 20.8603 173.116 20.6581C173.63 20.4559 174.097 20.1526 174.518 19.7481L176.457 21.8481C175.881 22.5015 175.156 23.007 174.284 23.3648C173.412 23.707 172.407 23.8781 171.27 23.8781Z" fill="#051F39"/>
<path d="M179.771 23.6915V11.1381H183.252V14.6848L182.762 13.6581C183.135 12.7715 183.735 12.1026 184.561 11.6515C185.386 11.1848 186.391 10.9515 187.574 10.9515V14.3115C187.419 14.2959 187.278 14.2881 187.154 14.2881C187.029 14.2726 186.897 14.2648 186.757 14.2648C185.76 14.2648 184.95 14.5526 184.327 15.1281C183.719 15.6881 183.416 16.567 183.416 17.7648V23.6915H179.771Z" fill="#051F39"/>
<path d="M189.953 23.6915V7.35813H197.032C198.496 7.35813 199.758 7.59924 200.817 8.08146C201.876 8.54813 202.694 9.22479 203.27 10.1115C203.846 10.9981 204.134 12.0559 204.134 13.2848C204.134 14.4981 203.846 15.5481 203.27 16.4348C202.694 17.3215 201.876 18.0059 200.817 18.4881C199.758 18.9548 198.496 19.1881 197.032 19.1881H192.056L193.738 17.4848V23.6915H189.953ZM193.738 17.9048L192.056 16.1081H196.822C197.99 16.1081 198.862 15.8592 199.438 15.3615C200.015 14.8637 200.303 14.1715 200.303 13.2848C200.303 12.3826 200.015 11.6826 199.438 11.1848C198.862 10.687 197.99 10.4381 196.822 10.4381H192.056L193.738 8.64146V17.9048Z" fill="#051F39"/>
<path d="M206.557 23.6915V11.1381H210.038V14.6848L209.547 13.6581C209.921 12.7715 210.52 12.1026 211.346 11.6515C212.171 11.1848 213.176 10.9515 214.36 10.9515V14.3115C214.204 14.2959 214.064 14.2881 213.939 14.2881C213.815 14.2726 213.682 14.2648 213.542 14.2648C212.545 14.2648 211.735 14.5526 211.112 15.1281C210.505 15.6881 210.201 16.567 210.201 17.7648V23.6915H206.557Z" fill="#051F39"/>
<path d="M222.417 23.8781C221.077 23.8781 219.886 23.5981 218.842 23.0381C217.814 22.4781 216.996 21.7159 216.389 20.7515C215.797 19.7715 215.501 18.6592 215.501 17.4148C215.501 16.1548 215.797 15.0426 216.389 14.0781C216.996 13.0981 217.814 12.3359 218.842 11.7915C219.886 11.2315 221.077 10.9515 222.417 10.9515C223.741 10.9515 224.924 11.2315 225.968 11.7915C227.011 12.3359 227.829 13.0903 228.421 14.0548C229.013 15.0192 229.309 16.1392 229.309 17.4148C229.309 18.6592 229.013 19.7715 228.421 20.7515C227.829 21.7159 227.011 22.4781 225.968 23.0381C224.924 23.5981 223.741 23.8781 222.417 23.8781ZM222.417 20.8915C223.024 20.8915 223.569 20.7515 224.052 20.4715C224.535 20.1915 224.916 19.7948 225.197 19.2815C225.477 18.7526 225.617 18.1303 225.617 17.4148C225.617 16.6837 225.477 16.0615 225.197 15.5481C224.916 15.0348 224.535 14.6381 224.052 14.3581C223.569 14.0781 223.024 13.9381 222.417 13.9381C221.809 13.9381 221.264 14.0781 220.781 14.3581C220.298 14.6381 219.909 15.0348 219.613 15.5481C219.333 16.0615 219.192 16.6837 219.192 17.4148C219.192 18.1303 219.333 18.7526 219.613 19.2815C219.909 19.7948 220.298 20.1915 220.781 20.4715C221.264 20.7515 221.809 20.8915 222.417 20.8915Z" fill="#051F39"/>
<path d="M235.974 23.8781C234.899 23.8781 233.863 23.7537 232.866 23.5048C231.885 23.2403 231.106 22.9137 230.53 22.5248L231.745 19.9115C232.321 20.2692 232.999 20.5648 233.777 20.7981C234.572 21.0159 235.351 21.1248 236.114 21.1248C236.955 21.1248 237.547 21.0237 237.889 20.8215C238.248 20.6192 238.427 20.3392 238.427 19.9815C238.427 19.6859 238.287 19.4681 238.006 19.3281C237.741 19.1726 237.383 19.0559 236.931 18.9781C236.48 18.9003 235.981 18.8226 235.436 18.7448C234.907 18.667 234.369 18.5659 233.824 18.4415C233.279 18.3015 232.781 18.0992 232.329 17.8348C231.877 17.5703 231.511 17.2126 231.231 16.7615C230.966 16.3103 230.834 15.727 230.834 15.0115C230.834 14.2181 231.06 13.5181 231.511 12.9115C231.979 12.3048 232.648 11.8303 233.52 11.4881C234.393 11.1303 235.436 10.9515 236.651 10.9515C237.508 10.9515 238.38 11.0448 239.268 11.2315C240.156 11.4181 240.895 11.6903 241.487 12.0481L240.272 14.6381C239.665 14.2803 239.05 14.0392 238.427 13.9148C237.819 13.7748 237.227 13.7048 236.651 13.7048C235.841 13.7048 235.249 13.8137 234.876 14.0315C234.502 14.2492 234.315 14.5292 234.315 14.8715C234.315 15.1826 234.447 15.4159 234.712 15.5715C234.992 15.727 235.358 15.8515 235.81 15.9448C236.262 16.0381 236.752 16.1237 237.282 16.2015C237.827 16.2637 238.372 16.3648 238.917 16.5048C239.462 16.6448 239.953 16.847 240.389 17.1115C240.841 17.3603 241.207 17.7103 241.487 18.1615C241.768 18.597 241.908 19.1726 241.908 19.8881C241.908 20.6659 241.674 21.3581 241.207 21.9648C240.74 22.5559 240.062 23.0226 239.174 23.3648C238.302 23.707 237.235 23.8781 235.974 23.8781Z" fill="#051F39"/>
<g clip-path="url(#clip0_15429_59144)">
<path fill-rule="evenodd" clip-rule="evenodd" d="M7.2257 12.5106C7.2257 12.5106 5.29885 14.435 3.13114 16.6C1.08386 18.6446 0 21.2907 0 24.1773C0 26.9436 1.08386 29.7099 3.13114 31.6343C3.25157 31.7546 3.25157 31.7546 3.37199 31.8749C5.41928 33.9196 8.0687 35.002 10.8386 35.002C13.6084 35.002 16.3783 33.9196 18.4255 31.8749C20.5933 29.7099 22.5201 27.7855 22.5201 27.7855C23.4835 26.8233 23.4835 25.38 22.5201 24.4178C21.5567 23.4556 20.1115 23.4556 19.1481 24.4178C19.1481 24.4178 17.2213 26.3422 15.0535 28.5072C13.9697 29.5897 12.4041 30.191 10.8386 30.191C9.27299 30.191 7.70742 29.5897 6.62356 28.5072L6.3827 28.2666C5.29885 27.1842 4.69671 25.6206 4.69671 24.057C4.69671 22.4934 5.29885 20.9299 6.3827 19.8474C8.55042 17.6824 10.4773 15.7581 10.4773 15.7581C11.4407 14.7959 11.4407 13.3526 10.4773 12.3904C9.63427 11.6687 8.18913 11.6687 7.2257 12.5106Z" fill="#FF7300"/>
<path fill-rule="evenodd" clip-rule="evenodd" d="M21.1985 10.4635L10.4804 21.1679C9.51696 22.1301 9.51696 23.5734 10.4804 24.5356C11.4438 25.4978 12.889 25.4978 13.8524 24.5356L24.5705 13.8312C25.5339 12.869 25.5339 11.4257 24.5705 10.4635C23.6071 9.62155 22.1619 9.62155 21.1985 10.4635Z" fill="#0061BF"/>
<path fill-rule="evenodd" clip-rule="evenodd" d="M27.8217 22.4914C27.8217 22.4914 29.7485 20.567 31.9162 18.4021C33.9635 16.3574 35.0474 13.7113 35.0474 10.945C35.0474 8.17869 33.9635 5.41237 31.9162 3.48797C31.7958 3.3677 31.7958 3.3677 31.6754 3.24742C29.7485 1.08247 26.9787 0 24.2088 0C21.439 0 18.6691 1.08247 16.6218 3.12715C14.4541 5.2921 12.5273 7.21649 12.5273 7.21649C11.5638 8.17869 11.5638 9.62199 12.5273 10.5842C13.4907 11.5464 14.9358 11.5464 15.8993 10.5842C15.8993 10.5842 17.8261 8.65979 19.9938 6.49484C21.0777 5.41237 22.6432 4.811 24.2088 4.811C25.7744 4.811 27.34 5.41237 28.4238 6.49484L28.6647 6.73539C29.7485 7.81787 30.3507 9.38144 30.3507 10.945C30.3507 12.5086 29.7485 14.0722 28.6647 15.1546C26.497 17.3196 24.5701 19.244 24.5701 19.244C23.6067 20.2062 23.6067 21.6495 24.5701 22.6117C25.4131 23.4536 26.8582 23.4536 27.8217 22.4914Z" fill="#FF7300"/>
</g>
<defs>
<clipPath id="clip0_15429_59144">
<rect width="35.0447" height="35" fill="white"/>
</clipPath>
</defs>
</svg>
