<svg width="40" height="40" viewBox="0 0 40 40" fill="none" xmlns="http://www.w3.org/2000/svg">
<path d="M13.6333 26.7003C12.3667 26.5836 11.1167 26.0003 10.15 24.9836C7.95 22.667 7.95 18.867 10.15 16.5503L13.8 12.717C16 10.4003 19.6167 10.4003 21.8333 12.717C24.0334 15.0337 24.0334 18.8337 21.8333 21.1503L20.0167 23.067" stroke="#FF7300" stroke-width="2" stroke-linecap="round" stroke-linejoin="round"/>
<path d="M26.3666 13.3008C27.6333 13.4174 28.8833 14.0008 29.85 15.0174C32.05 17.3341 32.05 21.1341 29.85 23.4508L26.1999 27.2841C23.9999 29.6008 20.3833 29.6008 18.1666 27.2841C15.9666 24.9674 15.9666 21.1674 18.1666 18.8508L19.9833 16.9341" stroke="#0061BF" stroke-width="2" stroke-linecap="round" stroke-linejoin="round"/>
<path d="M14.9997 36.6663H24.9997C33.333 36.6663 36.6663 33.333 36.6663 24.9997V14.9997C36.6663 6.66634 33.333 3.33301 24.9997 3.33301H14.9997C6.66634 3.33301 3.33301 6.66634 3.33301 14.9997V24.9997C3.33301 33.333 6.66634 36.6663 14.9997 36.6663Z" stroke="#FF7300" stroke-width="2" stroke-linecap="round" stroke-linejoin="round"/>
</svg>
