<svg width="582" height="444" viewBox="0 0 582 444" fill="none" xmlns="http://www.w3.org/2000/svg">
<path opacity="0.08" fill-rule="evenodd" clip-rule="evenodd" d="M252.866 25.697C387.202 21.5529 476.739 38.4726 524.367 157.536C574.921 283.917 530.734 348.598 412.014 423.547C310.803 487.443 200.762 387.131 101.007 321.212C-4.7507 251.326 -3.46358 216.951 43.5376 103.203C85.0359 2.77272 139.078 29.2073 252.866 25.697Z" fill="url(#paint0_linear_15081_26227)"/>
<path opacity="0.12" d="M582 421C582 426.524 545.063 431 499.5 431C453.937 431 417 426.522 417 421C417 415.476 453.937 411 499.5 411C545.063 411 582 415.476 582 421Z" fill="#FF7300"/>
<path opacity="0.05" d="M131 417C131 421.971 101.674 426 65.5 426C29.3257 426 0 421.97 0 417C0 412.029 29.3257 408 65.5 408C101.674 408 131 412.03 131 417Z" fill="#FF7300"/>
<g opacity="0.05">
<path d="M414 77.4496V87.6233C414 88.794 414.949 89.7435 416.12 89.7435H419.944C420.451 89.7435 420.883 90.0839 421.022 90.5708C421.812 93.3489 422.989 95.9622 424.5 98.351L424.502 98.3526L421.295 101.56C420.467 102.387 420.467 103.73 421.295 104.559L428.489 111.753C429.316 112.582 430.659 112.582 431.487 111.753L434.805 108.436L434.81 108.439C437.464 110.028 440.392 111.214 443.5 111.919H443.503V116.453C443.503 117.624 444.452 118.573 445.623 118.573H455.797C456.967 118.573 457.917 117.624 457.917 116.453V111.768H457.92C461.008 110.984 463.903 109.727 466.529 108.077L466.531 108.076L469.735 111.28C470.563 112.109 471.905 112.109 472.734 111.28L479.928 104.086C480.755 103.258 480.755 101.915 479.928 101.086L477.212 98.3724C476.854 98.0137 476.787 97.4687 477.034 97.0245C478.269 94.8143 479.238 92.4346 479.878 89.9297C480.006 89.4275 480.444 89.0719 480.963 89.0719H484.625C485.796 89.0719 486.745 88.1224 486.745 86.9516V76.7765C486.745 75.6057 485.796 74.6563 484.625 74.6563H480.789C480.282 74.6563 479.849 74.3159 479.711 73.8274C479.005 71.3378 477.991 68.9795 476.703 66.7982C476.439 66.3525 476.5 65.7938 476.866 65.4275L479.453 62.8402C480.282 62.0113 480.282 60.6696 479.453 59.8407L472.259 52.6467C471.432 51.8194 470.089 51.8194 469.26 52.6467L465.944 55.9621C463.525 54.5288 460.89 53.4099 458.1 52.6894C457.599 52.5597 457.245 52.1231 457.245 51.6041V47.9483C457.245 46.7776 456.296 45.8281 455.125 45.8281H444.951C443.781 45.8281 442.831 46.7776 442.831 47.9483V51.7797C442.831 52.2864 442.491 52.7184 442.004 52.8573C439.513 53.5656 437.148 54.5853 434.965 55.869C434.52 56.1315 433.963 56.0705 433.596 55.7041L431.014 53.1214C430.186 52.2941 428.843 52.2941 428.016 53.1214L420.822 60.3155C419.994 61.1428 419.994 62.486 420.822 63.3134L423.534 66.0258C423.893 66.3845 423.96 66.9295 423.713 67.3737C422.476 69.5855 421.507 71.9667 420.86 74.4731C420.73 74.9737 420.292 75.3279 419.774 75.3279H416.123C414.949 75.3294 414 76.2789 414 77.4496ZM435.771 73.2168C437.008 70.8738 438.949 68.9199 441.285 67.6683C457.302 59.0791 473.474 75.1752 464.946 91.2348C463.7 93.5809 461.748 95.5332 459.402 96.7773C443.399 105.264 427.317 89.2337 435.771 73.2168Z" fill="#0061BF"/>
<path d="M450.372 92.9025C456.282 92.9025 461.072 88.1118 461.072 82.2022C461.072 76.2926 456.282 71.502 450.372 71.502C444.463 71.502 439.672 76.2926 439.672 82.2022C439.672 88.1118 444.463 92.9025 450.372 92.9025Z" fill="#0061BF"/>
<path d="M470.459 28.8464V35.552C470.459 36.3244 471.085 36.9502 471.857 36.9502H474.377C474.712 36.9502 474.997 37.1746 475.087 37.4967C475.608 39.3284 476.385 41.0502 477.38 42.6255V42.627L475.266 44.7411C474.719 45.2876 474.719 46.1714 475.266 46.7179L480.007 51.4605C480.553 52.007 481.437 52.007 481.984 51.4605L484.171 49.2731L484.174 49.2746C485.923 50.3218 487.853 51.1048 489.901 51.5689H489.903V54.5576C489.903 55.33 490.528 55.9558 491.301 55.9558H498.006C498.779 55.9558 499.405 55.33 499.405 54.5576V51.4666H499.406C501.441 50.9491 503.351 50.1203 505.08 49.0334L505.081 49.0319L507.194 51.143C507.741 51.6894 508.624 51.6894 509.171 51.143L513.913 46.4004C514.46 45.8539 514.46 44.9701 513.913 44.4236L512.124 42.6347C511.888 42.3981 511.844 42.0394 512.007 41.7463C512.82 40.2886 513.459 38.7209 513.881 37.0693C513.965 36.7381 514.255 36.5045 514.596 36.5045H517.009C517.781 36.5045 518.407 35.8787 518.407 35.1063V28.4007C518.407 27.6283 517.781 27.004 517.009 27.004H514.481C514.147 27.004 513.861 26.7796 513.77 26.4576C513.303 24.8167 512.636 23.2628 511.787 21.8233C511.613 21.5287 511.653 21.1609 511.894 20.9197L513.599 19.2147C514.145 18.6682 514.145 17.7844 513.599 17.238L508.856 12.4953C508.31 11.9489 507.426 11.9489 506.88 12.4953L504.695 14.6796C503.1 13.7348 501.365 12.9975 499.525 12.5228C499.194 12.4373 498.962 12.1488 498.962 11.8084V9.39821C498.962 8.62584 498.336 8 497.564 8H490.858C490.086 8 489.46 8.62584 489.46 9.39821V11.9229C489.46 12.2572 489.236 12.5426 488.915 12.6327C487.273 13.0998 485.714 13.7714 484.276 14.6171C483.982 14.7895 483.615 14.7499 483.374 14.5087L481.672 12.8067C481.127 12.2603 480.242 12.2603 479.695 12.8067L474.953 17.5478C474.408 18.0943 474.408 18.9781 474.953 19.5245L476.74 21.312C476.977 21.5486 477.021 21.9073 476.858 22.2004C476.043 23.6581 475.405 25.2273 474.977 26.8804C474.892 27.2101 474.603 27.4436 474.263 27.4436H471.857C471.085 27.4482 470.459 28.0741 470.459 28.8464ZM484.809 26.0561C485.624 24.5114 486.905 23.2246 488.443 22.3988C499 16.7373 509.659 27.3475 504.039 37.9317C503.218 39.478 501.931 40.7648 500.385 41.5845C489.837 47.1789 479.236 36.6129 484.809 26.0561Z" fill="#0061BF"/>
<path d="M495.459 78.3668V82.4256C495.459 82.8926 495.838 83.2712 496.305 83.2712H497.83C498.033 83.2712 498.204 83.4071 498.26 83.6009C498.576 84.7091 499.045 85.7516 499.648 86.7041L498.368 87.9833C498.039 88.313 498.039 88.8488 498.368 89.18L501.238 92.0497C501.568 92.3794 502.104 92.3794 502.435 92.0497L503.758 90.7263C503.758 90.7263 503.76 90.7263 503.76 90.7278C504.819 91.3613 505.987 91.8345 507.226 92.1153L507.228 93.9242C507.228 94.3912 507.606 94.7698 508.073 94.7698H512.132C512.599 94.7698 512.978 94.3912 512.978 93.9242V92.0558H512.979C514.211 91.7429 515.367 91.2422 516.414 90.5843L517.691 91.862C518.021 92.1917 518.557 92.1917 518.888 91.862L521.758 88.9923C522.088 88.6626 522.088 88.1268 521.758 87.7955L520.676 86.7133C520.532 86.5698 520.506 86.3531 520.604 86.176C521.097 85.2937 521.483 84.3458 521.738 83.346C521.79 83.146 521.964 83.0041 522.171 83.0041H523.632C524.099 83.0041 524.478 82.6255 524.478 82.1584V78.0997C524.478 77.6326 524.099 77.254 523.632 77.254H522.101C521.898 77.254 521.727 77.1182 521.671 76.9228C521.388 75.9291 520.985 74.9888 520.471 74.1187C520.366 73.9401 520.39 73.7173 520.537 73.5723L521.569 72.5404C521.898 72.2107 521.898 71.6749 521.569 71.3437L518.699 68.474C518.369 68.1443 517.833 68.1443 517.502 68.474L516.18 69.7959C515.216 69.2235 514.164 68.7778 513.051 68.4908C512.851 68.4389 512.709 68.2649 512.709 68.0573V66.5995C512.709 66.1325 512.331 65.7539 511.864 65.7539H507.805C507.338 65.7539 506.959 66.1325 506.959 66.5995V68.1275C506.959 68.329 506.823 68.5015 506.629 68.5579C505.636 68.8403 504.692 69.2464 503.822 69.7592C503.644 69.8646 503.422 69.8386 503.276 69.6936L502.246 68.6633C501.916 68.3336 501.38 68.3336 501.049 68.6633L498.179 71.533C497.849 71.8627 497.849 72.3984 498.179 72.7297L499.261 73.8119C499.405 73.9554 499.431 74.1722 499.333 74.3492C498.84 75.2315 498.452 76.1809 498.194 77.1807C498.142 77.3807 497.968 77.5227 497.761 77.5227H496.305C495.838 77.5211 495.459 77.8997 495.459 78.3668ZM504.143 76.6786C504.636 75.7444 505.411 74.9644 506.342 74.4652C512.732 71.0384 519.183 77.4601 515.78 83.865C515.284 84.8007 514.504 85.5792 513.569 86.0753C507.185 89.4624 500.769 83.0682 504.143 76.6786Z" fill="#0061BF"/>
</g>
<g filter="url(#filter0_d_15081_26227)">
<path d="M494.976 31.2065V311.332C494.976 314.76 492.196 317.539 488.768 317.539H72.2279C68.7996 317.539 66.0215 314.759 66.0215 311.332V31.2065C66.0215 27.7781 68.8011 25 72.2279 25H488.769C492.197 24.9985 494.976 27.7781 494.976 31.2065Z" fill="white"/>
</g>
<path d="M66 31C66 27.6863 68.6863 25 72 25H489C492.314 25 495 27.6863 495 31V61H66V31Z" fill="#EAF4FE"/>
<path d="M105.646 42.807C105.646 44.9096 103.935 46.614 101.823 46.614C99.7116 46.614 98 44.9096 98 42.807C98 40.7045 99.7116 39 101.823 39C103.935 39 105.646 40.7045 105.646 42.807Z" fill="#FF6259"/>
<path d="M118.293 42.807C118.293 44.9096 116.581 46.614 114.47 46.614C112.358 46.614 110.646 44.9096 110.646 42.807C110.646 40.7045 112.358 39 114.47 39C116.581 39 118.293 40.7045 118.293 42.807Z" fill="#FFBE2F"/>
<path d="M130.939 42.807C130.939 44.9096 129.227 46.614 127.116 46.614C125.005 46.614 123.293 44.9096 123.293 42.807C123.293 40.7045 125.005 39 127.116 39C129.227 39 130.939 40.7045 130.939 42.807Z" fill="#29CD41"/>
<path d="M250.388 83.5156H109.668C104.011 83.5156 101.183 83.5156 99.4253 85.273C97.668 87.0303 97.668 89.8588 97.668 95.5156V148.899C97.668 154.556 97.668 157.385 99.4253 159.142C101.183 160.899 104.011 160.899 109.668 160.899H250.388C256.045 160.899 258.873 160.899 260.631 159.142C262.388 157.385 262.388 154.556 262.388 148.899V95.5156C262.388 89.8588 262.388 87.0303 260.631 85.273C258.873 83.5156 256.045 83.5156 250.388 83.5156Z" fill="#F2F5F6"/>
<path d="M200.769 182.904H103.668C100.354 182.904 97.668 185.591 97.668 188.904V254.288C97.668 257.602 100.354 260.288 103.668 260.288H200.769C204.083 260.288 206.769 257.602 206.769 254.288V188.904C206.769 185.591 204.083 182.904 200.769 182.904Z" fill="#F2F5F6"/>
<path d="M202.566 272.137H100.902C99.2992 272.137 98 273.436 98 275.038C98 276.641 99.2992 277.94 100.902 277.94H202.566C204.169 277.94 205.468 276.641 205.468 275.038C205.468 273.436 204.169 272.137 202.566 272.137Z" fill="#EBEFF2"/>
<path d="M329.566 272.137H227.902C226.299 272.137 225 273.436 225 275.038C225 276.641 226.299 277.94 227.902 277.94H329.566C331.169 277.94 332.468 276.641 332.468 275.038C332.468 273.436 331.169 272.137 329.566 272.137Z" fill="#EBEFF2"/>
<path d="M456.24 272.137H354.576C352.973 272.137 351.674 273.436 351.674 275.038C351.674 276.641 352.973 277.94 354.576 277.94H456.24C457.843 277.94 459.142 276.641 459.142 275.038C459.142 273.436 457.843 272.137 456.24 272.137Z" fill="#EBEFF2"/>
<path d="M189 283H115C113.343 283 112 284.343 112 286C112 287.657 113.343 289 115 289H189C190.657 289 192 287.657 192 286C192 284.343 190.657 283 189 283Z" fill="#EBEFF2"/>
<path d="M316 283H242C240.343 283 239 284.343 239 286C239 287.657 240.343 289 242 289H316C317.657 289 319 287.657 319 286C319 284.343 317.657 283 316 283Z" fill="#EBEFF2"/>
<path d="M442 283H368C366.343 283 365 284.343 365 286C365 287.657 366.343 289 368 289H442C443.657 289 445 287.657 445 286C445 284.343 443.657 283 442 283Z" fill="#EBEFF2"/>
<path d="M327.363 182.904H230.262C226.948 182.904 224.262 185.591 224.262 188.904V254.288C224.262 257.602 226.948 260.288 230.262 260.288H327.363C330.677 260.288 333.363 257.602 333.363 254.288V188.904C333.363 185.591 330.677 182.904 327.363 182.904Z" fill="#F2F5F6"/>
<path d="M279.875 224C279.875 227.975 276.663 231.188 272.688 231.188C268.712 231.188 265.5 227.975 265.5 224C265.5 220.025 268.712 216.812 272.688 216.812" stroke="#FF7300" stroke-width="1.5" stroke-linecap="round" stroke-linejoin="round"/>
<path d="M275.5 224C275.5 219.863 278.863 216.5 283 216.5C287.137 216.5 290.5 219.863 290.5 224C290.5 228.137 287.137 231.5 283 231.5" stroke="#0061BF" stroke-width="1.5" stroke-linecap="round" stroke-linejoin="round"/>
<path d="M453.959 182.904H356.857C353.544 182.904 350.857 185.591 350.857 188.904V254.288C350.857 257.602 353.544 260.288 356.857 260.288H453.959C457.273 260.288 459.959 257.602 459.959 254.288V188.904C459.959 185.591 457.273 182.904 453.959 182.904Z" fill="#F2F5F6"/>
<path d="M457.781 83.5156H281.249C279.647 83.5156 278.348 84.8148 278.348 86.4174C278.348 88.02 279.647 89.3191 281.249 89.3191H457.781C459.384 89.3191 460.683 88.02 460.683 86.4174C460.683 84.8148 459.384 83.5156 457.781 83.5156Z" fill="#EBEFF2"/>
<path d="M457.781 101.289H281.249C279.647 101.289 278.348 102.588 278.348 104.191C278.348 105.793 279.647 107.093 281.249 107.093H457.781C459.384 107.093 460.683 105.793 460.683 104.191C460.683 102.588 459.384 101.289 457.781 101.289Z" fill="#EBEFF2"/>
<path d="M457.781 119.062H281.249C279.647 119.062 278.348 120.362 278.348 121.964C278.348 123.567 279.647 124.866 281.249 124.866H457.781C459.384 124.866 460.683 123.567 460.683 121.964C460.683 120.362 459.384 119.062 457.781 119.062Z" fill="#EBEFF2"/>
<path d="M457.781 136.838H281.249C279.647 136.838 278.348 138.137 278.348 139.74C278.348 141.342 279.647 142.641 281.249 142.641H457.781C459.384 142.641 460.683 141.342 460.683 139.74C460.683 138.137 459.384 136.838 457.781 136.838Z" fill="#EBEFF2"/>
<path d="M457.781 154.613H281.249C279.647 154.613 278.348 155.912 278.348 157.515C278.348 159.118 279.647 160.417 281.249 160.417H457.781C459.384 160.417 460.683 159.118 460.683 157.515C460.683 155.912 459.384 154.613 457.781 154.613Z" fill="#EBEFF2"/>
<path d="M383.807 189.291C384.845 188.816 385.995 188.528 387.137 188.458C406.096 187.273 415.41 204.071 409.595 217.236L428 228.031L425.376 232.398L406.971 221.603C400.678 229.616 389.164 231.954 380.112 226.646C366.534 218.68 365.551 197.647 383.807 189.291ZM375.446 213.812C383.462 231.709 407.96 225.532 406.311 206.025C406.263 205.463 406.113 204.882 405.883 204.367C397.874 186.453 373.358 192.637 375.016 212.153C375.064 212.714 375.215 213.295 375.446 213.812Z" fill="#FF7300"/>
<path d="M120 144V136C120 133.791 118.209 132 116 132C113.791 132 112 133.791 112 136V144C112 146.209 113.791 148 116 148C118.209 148 120 146.209 120 144Z" fill="#0061BF"/>
<path d="M142 143.5V123.5C142 121.015 139.985 119 137.5 119C135.015 119 133 121.015 133 123.5V143.5C133 145.985 135.015 148 137.5 148C139.985 148 142 145.985 142 143.5Z" fill="#FF7300"/>
<path d="M163 144V133C163 130.791 161.209 129 159 129C156.791 129 155 130.791 155 133V144C155 146.209 156.791 148 159 148C161.209 148 163 146.209 163 144Z" fill="#0061BF"/>
<path d="M184 144V109C184 106.791 182.209 105 180 105C177.791 105 176 106.791 176 109V144C176 146.209 177.791 148 180 148C182.209 148 184 146.209 184 144Z" fill="#FF7300"/>
<path d="M206 143.5V123.5C206 121.015 203.985 119 201.5 119C199.015 119 197 121.015 197 123.5V143.5C197 145.985 199.015 148 201.5 148C203.985 148 206 145.985 206 143.5Z" fill="#0061BF"/>
<path d="M227 143.5V105.5C227 103.015 224.985 101 222.5 101C220.015 101 218 103.015 218 105.5V143.5C218 145.985 220.015 148 222.5 148C224.985 148 227 145.985 227 143.5Z" fill="#FF7300"/>
<path d="M248 144V99C248 96.7909 246.209 95 244 95C241.791 95 240 96.7909 240 99V144C240 146.209 241.791 148 244 148C246.209 148 248 146.209 248 144Z" fill="#0061BF"/>
<path d="M530.699 240.053C531.537 241.487 531.405 243.291 530.608 244.751C526.883 251.568 513.418 275.767 510.074 275.46C506.18 275.101 524.077 239.127 526.14 238.89C527.687 238.712 529.552 238.094 530.699 240.053Z" fill="#F2BC97"/>
<path d="M511.349 270.854C513.708 272.123 511.059 275.947 510.107 277.218C508.556 279.287 505.176 280.533 504.345 279.933C503.514 279.332 507.325 274.83 507.25 274.534C507.176 274.238 505.11 276.25 504.388 275.604C503.665 274.959 506.054 271.944 507.47 271.12C508.887 270.296 509.87 270.059 511.349 270.854Z" fill="#F2BC97"/>
<path d="M486.843 338.719C501.886 332.698 495.776 391.413 490.88 405.917C485.987 420.421 483.88 404.267 482.663 379.854C481.449 355.442 480.927 341.086 486.843 338.719Z" fill="#F2BC97"/>
<path d="M496.617 317.767L495.933 365.998L482.249 364.175L481.908 316.627L496.617 317.767Z" fill="#F2BC97"/>
<path d="M514.011 334.799C518.102 319.123 561.709 358.91 570.471 371.463C579.232 384.014 564.987 376.116 544.624 362.596C524.26 349.072 512.4 340.967 514.011 334.799Z" fill="#F2BC97"/>
<path d="M497.996 304.526C497.178 326.259 492.816 343.739 488.251 343.567C483.686 343.395 480.649 325.638 481.467 303.905C482.286 282.173 486.648 264.692 491.213 264.865C495.777 265.037 498.813 282.794 497.996 304.526Z" fill="#F2BC97"/>
<path d="M518.237 297.207C522.595 318.514 522.502 336.53 518.027 337.445C513.552 338.361 506.391 321.83 502.031 300.522C497.672 279.215 497.766 261.2 502.241 260.284C506.716 259.369 513.876 275.9 518.237 297.207Z" fill="#F2BC97"/>
<path d="M521.65 314.688C521.65 314.688 524.587 328.684 525.499 330.851C526.411 333.018 539.382 341.711 539.382 341.711L532.085 348.324L515.793 340.514C515.793 340.514 507.925 329.268 506.087 317.767C504.003 304.735 521.65 314.688 521.65 314.688Z" fill="#F2BC97"/>
<path d="M482.359 226.279C481.213 225.293 479.551 225.175 478.171 225.771C471.971 228.449 447.183 239.219 448.895 243.894C450.909 249.388 472.861 238.589 477.659 235.238C481.657 232.445 485.127 228.662 482.359 226.279Z" fill="#F2BC97"/>
<path d="M503.27 222.202C504.482 221.339 506.121 221.391 507.415 222.125C513.233 225.419 532.548 236.778 530.437 241.25C527.954 246.507 511.418 235.408 507.035 231.589C503.383 228.404 500.339 224.29 503.27 222.202Z" fill="#F2BC97"/>
<path d="M454.158 243.893C452.702 244.893 450.778 244.891 449.171 244.161C441.653 240.739 414.955 228.335 415.024 224.767C415.103 220.611 454.628 236.803 455.039 238.971C455.348 240.596 456.147 242.527 454.158 243.893Z" fill="#F2BC97"/>
<path d="M460.179 232.814L453.916 236.259L426.676 226.553L428.711 234.381C428.711 234.381 447.419 245.575 450.864 245.966C454.309 246.358 466.519 243.071 466.519 242.836C466.519 242.601 460.179 232.814 460.179 232.814Z" fill="#F2BC97"/>
<path d="M413.055 226.184C413.565 226.516 414.448 227.046 415.414 227.468C417.142 228.243 419.147 228.672 419.894 227.006C420.626 225.38 420.309 224.366 419.316 222.928C418.341 221.487 414.95 219.175 414.335 219.993C413.699 220.815 415.99 222.84 415.677 222.942C415.66 222.944 415.618 222.932 415.559 222.921C414.762 222.59 410.285 219.411 409.734 220.28C409.17 221.207 410.745 224.7 413.055 226.184Z" fill="#F2BC97"/>
<path d="M478.448 334.846L519.268 331.996L524.421 331.637H524.53C523.667 267.842 515.186 264.479 515.186 264.479C515.186 264.479 514.267 264.36 512.746 264.239C512.651 264.239 512.554 264.221 512.444 264.221C506.909 263.778 494.316 263.214 487.08 266.422C485.231 267.26 483.737 268.334 482.791 269.734C480.956 272.43 479.845 280.009 479.187 289.088C477.79 308.529 478.448 334.846 478.448 334.846Z" fill="#264B89"/>
<path opacity="0.2" d="M479.453 284.339C481.957 271.3 493.587 269.713 493.587 269.713V268.168L487.333 266.17C485.486 266.841 483.995 267.703 483.05 268.825C481.219 270.986 480.11 277.061 479.453 284.339Z" fill="#315A9E"/>
<path d="M483.045 268.82C497.684 271.315 509.285 267.461 515.394 264.612C514.444 262.338 513.789 261.387 513.789 261.387L483.233 265.18C483.233 265.18 483.165 266.504 483.045 268.82Z" fill="#315A9E"/>
<path d="M476.187 235.815V235.835C476.226 236.237 476.288 236.621 476.368 237.043C476.429 237.345 476.489 237.648 476.55 237.969C476.569 238.111 476.611 238.231 476.63 238.371C476.67 238.572 476.731 238.754 476.77 238.935C476.79 239.036 476.812 239.116 476.831 239.197C477.153 240.446 477.476 241.473 477.838 242.419C478.14 243.225 478.443 243.97 478.745 244.735C479.651 246.97 480.558 249.246 481.222 253.516C482.45 261.452 483.015 265.479 483.015 265.479C483.015 265.479 498.06 267.412 513.788 261.391C513.788 261.391 513.707 261.109 513.587 260.585C512.862 257.544 510.345 246.266 511.13 237.143C511.21 236.276 511.311 235.431 511.453 234.627C513.286 223.751 506.981 215.554 494.938 217.789C489.601 218.776 486.238 219.521 483.983 220.347C481.163 221.374 480.036 222.503 478.786 224.355C477.052 226.913 475.543 230.498 476.187 235.815Z" fill="url(#paint1_linear_15081_26227)"/>
<path d="M476.77 238.934C476.789 239.035 476.811 239.115 476.831 239.196C477.152 240.445 477.475 241.472 477.838 242.418C478.139 243.224 478.443 243.969 478.744 244.734C479.45 240.767 481.464 237.342 481.464 237.342L476.77 238.934Z" fill="url(#paint2_linear_15081_26227)"/>
<g opacity="0.5">
<path d="M513.585 260.593C512.856 257.549 510.339 246.269 511.129 237.15L507.43 234.902C507.43 234.902 510.408 252.824 513.585 260.593Z" fill="url(#paint3_linear_15081_26227)"/>
</g>
<path d="M506.763 219.902L522.822 231.165L516.465 240.978L505.092 232.392L506.763 219.902Z" fill="url(#paint4_linear_15081_26227)"/>
<path d="M479.252 191.472L495.727 190.803L486.109 211.961C486.109 211.961 482.763 213.467 479.335 207.529C475.906 201.591 479.252 191.472 479.252 191.472Z" fill="#F2BC97"/>
<path d="M484.578 212.097L488.703 207.859L488.089 219.344C488.089 219.344 486.863 223.358 486.752 222.968C486.641 222.579 485.47 219.735 485.47 219.735" fill="#F2BC97"/>
<path d="M499.964 187.512C499.964 187.512 506.514 189.216 507.964 194.791C509.414 200.367 504.869 208.755 509.219 212.099C509.653 212.433 510.145 212.785 510.671 213.158C515.878 216.844 521.957 219.315 526.581 223.814C530.702 227.824 532.034 234.64 527.738 239.022C520.858 246.04 509.666 244.222 501.579 240.644C496.547 238.418 491.435 235.349 488.261 230.728C486.429 228.061 485.714 224.815 485.669 221.618C485.625 218.438 486.709 215.199 485.89 212.053C485.156 209.231 482.201 207.2 482.289 204.127C482.345 202.176 485.578 200.95 483.795 197.994C482.011 195.039 478.443 192.196 479.056 190.523C479.67 188.85 481.342 183.665 489.315 183.052C497.287 182.438 499.964 187.512 499.964 187.512Z" fill="#292466"/>
<path d="M460.172 232.817L466.512 242.837L481.503 237.342L484.427 220.227L483.978 220.354C483.978 220.354 477.293 223 472.54 225.694C465.758 229.536 460.172 232.817 460.172 232.817Z" fill="url(#paint5_linear_15081_26227)"/>
<path d="M484.782 405.086C484.782 405.086 482.554 407.978 477.668 411.767C472.782 415.557 471.486 414.76 471.385 416.154C471.286 417.551 491.827 416.154 491.827 416.154L491.411 404.688C491.411 404.688 484.782 404.786 484.782 405.086Z" fill="#FFA53C"/>
<path d="M565.109 375.144C565.109 375.144 565.693 378.747 565.111 384.902C564.529 391.057 563.059 391.457 564.009 392.484C564.958 393.513 578.001 377.582 578.001 377.582L569.356 370.035C569.356 370.035 564.89 374.939 565.109 375.144Z" fill="#FFA53C"/>
<path d="M98.9772 250.407C99.707 249.94 100.591 249.753 101.448 249.889C108.576 251.037 144.526 257.015 145.554 261.112C146.697 265.664 98.8391 259.71 97.751 257.468C96.7484 255.409 94.8088 253.07 98.9772 250.407Z" fill="#F2BC97"/>
<path d="M138.537 258.338L138.631 257.694L138.628 257.684L138.638 257.679L140.825 256.289C141.391 255.935 142.024 255.722 142.686 255.674L145.421 255.457C145.421 255.457 145.313 256.777 144.387 257.015C143.966 257.127 143.455 257.502 143.018 257.867L144.672 257.944L148.702 258.437C149.736 258.555 150.385 259.607 150.045 260.59L149.412 262.38C149.295 262.709 149.019 262.951 148.669 263.021L145.967 263.547C144.555 263.825 143.09 263.823 141.682 263.531L137.916 262.768L138.537 258.338Z" fill="#F2BC97"/>
<path d="M78.0539 220.204C76.785 221.728 76.6896 223.909 77.5328 225.704C81.3232 233.765 94.4678 260.572 100.623 258.218C107.859 255.45 94.7785 232.359 90.1432 226.153C86.2806 220.98 81.1227 216.521 78.0539 220.204Z" fill="#F2BC97"/>
<path d="M75.2578 229.622L76.701 231.813L88.9876 250.359L93.2496 247.486L93.3006 247.452L99.974 242.971C99.974 242.971 99.2968 240.435 94.2227 229.682C91.6158 224.159 90.0329 220.148 87.8863 219.305C87.7696 219.256 81.2458 217.778 81.1406 217.766C80.613 217.569 80.3105 217.512 80.3105 217.512L78.4877 221.902L75.2578 229.622Z" fill="url(#paint6_linear_15081_26227)"/>
<path d="M87.0977 218.082C87.0977 218.082 91.5931 220.903 96.0393 231.567C100.487 242.23 102.543 248.208 103.212 249.069C103.881 249.93 130.087 254.902 130.087 254.902L129.848 262.937C129.848 262.937 102.113 260.497 98.3355 258.824C94.5583 257.151 87.6236 248.112 87.6236 248.112L87.0977 218.082Z" fill="#5BA7F4"/>
<path d="M64.0217 195.858C63.6354 201.25 70.4452 210.28 70.4452 210.28L69.5757 215.905L69.3259 221.156L77.6117 226.119L80.7084 217.629L81.4382 212.026C81.4382 212.026 86.5715 211.669 87.3802 207.575C88.1725 203.459 92.4066 187.288 80.7265 184.468C69.0464 181.645 64.3882 190.465 64.0217 195.858Z" fill="#F2BC97"/>
<path d="M78.5039 211.979C78.5039 211.979 80.307 212.667 81.3097 212.994L81.4363 212.025C81.4363 212.025 79.5345 212.25 78.5039 211.979Z" fill="#EFC9A3"/>
<path d="M88.5765 193.491C88.5765 193.491 75.4434 191.345 74.5887 194.926C73.734 198.508 74.8665 201.376 73.9033 201.689C72.9401 202.001 70.5715 196.299 68.7503 198.345C66.9291 200.392 70.6751 205.009 69.3453 208.449C68.8572 209.713 62.7163 198.273 62.8116 192.696C62.9053 187.12 66.556 180.856 75.3497 180.495C78.6913 180.357 88.2905 177.133 90.6311 178.987C94.4494 182.012 89.8865 191.07 88.5765 193.491Z" fill="#292466"/>
<path d="M64.65 292.684C60.6542 291.662 56.4973 294.453 55.5949 298.713C54.8766 302.103 54.4 306.707 54.8043 312.632C55.8152 327.424 53.1113 344.924 58.2446 347.741C63.3778 350.559 69.2672 342.015 70.9487 327.591C72.4674 314.555 77.1766 299.044 73.8136 296.248C72.1091 294.834 68.1462 293.578 64.65 292.684Z" fill="#F2BC97"/>
<path d="M79.5843 291.44C75.4767 291.068 71.8179 294.486 71.6075 298.836C71.4398 302.298 71.7028 306.918 73.0474 312.703C76.4038 327.144 76.527 344.852 82.0433 346.814C87.5595 348.777 91.5077 339.145 90.8666 324.639C90.2881 311.527 92.9673 295.72 89.1999 293.498C87.2916 292.372 83.1791 291.764 79.5843 291.44Z" fill="#F2BC97"/>
<path d="M62.7433 343.141C54.8947 332.079 37.7198 384.28 35.6799 399.268C33.6401 414.257 40.7195 403.754 50.4715 382.043C60.2268 360.331 65.8318 347.494 62.7433 343.141Z" fill="#F2BC97"/>
<path d="M86.0088 341.251C74.4635 334.13 79.0296 388.893 83.0024 403.489C86.9752 418.085 89.3931 405.652 89.8977 381.856C90.4007 358.061 90.5519 344.053 86.0088 341.251Z" fill="#F2BC97"/>
<path d="M82.0921 405.244L81.0664 398.186L89.1139 398.522L88.9381 405.516L82.0921 405.244Z" fill="#F2BC97"/>
<path d="M33.5156 402.107L35.4815 395.25L42.6792 398.868L39.6433 405.17L33.5156 402.107Z" fill="#F2BC97"/>
<path d="M34.8281 396.086L42.9381 399.942C42.9381 399.942 63.3544 357.778 66.3164 350.462C69.2783 343.126 72.4473 319.071 72.4473 319.071L77.408 346.387C75.1808 368.454 80.1907 401.015 80.1907 401.015H90.0907C90.0907 401.015 90.8665 365.372 91.7607 344.42C92.5957 324.958 91.4418 298.321 91.2643 294.622V294.483C91.2445 294.284 91.2446 294.185 91.2446 294.185L58.1653 294.006L55.4614 293.986C55.3217 294.345 55.2033 294.701 55.0833 295.079C48.6828 314.243 54.0692 344.162 54.0692 344.162C41.2303 363.824 34.8281 396.086 34.8281 396.086Z" fill="#3A67B3"/>
<path d="M40.8451 402.799C40.8451 402.799 41.731 406.12 45.2847 411.416C48.8367 416.712 50.3653 416.352 50.0103 417.75C49.6536 419.149 30 411.111 30 411.111L34.1306 400.021C34.1306 400.021 40.9437 402.505 40.8451 402.799Z" fill="#292466"/>
<path d="M88.9376 405.518C88.9376 405.518 91.2947 408.454 96.4132 412.257C101.532 416.063 102.852 415.213 102.983 416.649C103.115 418.088 81.9043 417.078 81.9043 417.078L82.0917 405.245C82.0917 405.245 88.9327 405.209 88.9376 405.518Z" fill="#292466"/>
<path d="M55.4574 293.981L91.1404 294.06C91.1404 294.06 91.3771 283.065 91.5743 269.825C91.594 268.032 91.6137 266.18 91.6532 264.309L91.6729 262.437C91.7124 258.675 91.7518 254.871 91.7715 251.206C91.7715 248.84 91.7912 246.536 91.7912 244.328C91.811 235.561 91.7321 228.348 91.4362 225.63C91.1403 222.832 89.998 220.881 88.5597 219.541C88.4611 219.463 88.3625 219.364 88.2639 219.305C86.9835 218.202 85.5058 217.551 84.2056 217.156C82.2546 216.565 80.8328 216.617 80.8328 216.617C80.8328 216.617 80.7769 220.487 76.6397 220.487C72.4828 220.487 69.5159 216.203 69.5159 216.203C69.5159 216.203 67.0635 216.211 64.4418 216.703C63.122 216.94 61.7429 217.334 60.5594 217.924C59.8707 218.299 56.7905 219.898 56.299 220.431C54.1902 222.618 56.5012 239.578 56.7181 253.194V253.352C56.8167 259.638 56.9943 264.937 57.0732 267.204C57.3279 274.395 55.4574 293.981 55.4574 293.981Z" fill="#EAF4FE"/>
<path d="M79.3231 301.416C80.0858 303.077 92.1916 303.794 93.0907 302.895C93.9701 302.015 92.2196 252.904 92.2196 252.904C93.3143 234.642 92.0239 225.51 90.4591 221.932C89.56 219.879 88.015 218.177 85.9028 217.415C82.9705 216.359 81.1904 216.359 81.1904 216.359C81.1904 216.359 81.7575 228.657 81.621 245.121C81.6013 248.758 81.4451 253.236 81.2495 258.006C80.4885 274.802 78.7363 300.145 79.3231 301.416Z" fill="#80BFFE"/>
<path d="M55.9673 252.612C55.9673 258.067 50.4347 300.624 51.5097 301.88C54.2349 305.069 69.9601 303.479 70.8214 302.62C71.4082 302.033 72.4897 273.572 72.8809 256.034C73.0765 247.411 73.1932 239.923 73.1735 236.736C73.0963 224.262 69.6938 216.909 69.2632 216.03L69.2237 215.951C69.2237 215.951 57.1623 216.602 54.963 221.527C53.3539 225.131 52.8969 227.838 53.8552 234.252C54.8135 240.646 55.9673 247.157 55.9673 252.612Z" fill="#80BFFE"/>
<path d="M81.6224 245.121C81.6027 248.758 81.4465 253.236 81.2509 258.006L84.6534 232.236L83.031 230.124L84.3805 228.501L81.1934 216.359C81.1934 216.359 81.7588 228.657 81.6224 245.121Z" fill="#5BA7F4"/>
<path d="M69.3252 229.364L71.4948 230.263L70.1651 233.45C70.1651 233.45 73.0974 249.267 72.8246 256.347L72.8837 256.034C73.0793 247.411 73.1961 239.923 73.1763 236.736C73.0991 224.262 69.6966 216.909 69.266 216.03L69.2266 215.951L69.3252 229.364Z" fill="#5BA7F4"/>
<g filter="url(#filter1_d_15081_26227)">
<path d="M171.607 282.493L64.0926 318.335C62.49 318.87 60.7592 318.003 60.225 316.401L45.0406 270.854C44.5064 269.251 45.3726 267.521 46.9752 266.986L154.489 231.144C156.092 230.61 157.823 231.476 158.357 233.079L173.541 278.625C174.075 280.226 173.209 281.959 171.607 282.493Z" fill="white"/>
</g>
<path d="M118.567 261.197L135.621 255.512C141.195 253.654 147.22 256.665 149.078 262.239C150.935 267.813 147.924 273.839 142.35 275.696L115.057 284.796C109.483 286.655 103.457 283.642 101.6 278.068C100.599 275.067 101.011 271.934 102.476 269.391" stroke="#0061BF" stroke-width="2" stroke-miterlimit="10" stroke-linecap="round"/>
<path d="M100.876 287.358L83.8226 293.044C78.2488 294.903 72.2231 291.89 70.3657 286.316C68.5067 280.742 71.5195 274.716 77.0933 272.859L104.387 263.76C109.961 261.902 115.986 264.913 117.844 270.487C118.845 273.49 118.432 276.623 116.968 279.164" stroke="#FF7300" stroke-width="2" stroke-miterlimit="10" stroke-linecap="round"/>
<path d="M58.4258 249.098C58.4258 249.098 60.7335 261.827 65.0285 264.478C69.3218 267.131 87.8429 267.718 87.8429 267.718L87.9382 259.359C87.9382 259.359 71.4767 256.504 71.3797 256.361C71.2828 256.22 69.6275 246.484 69.6275 246.484L58.4258 249.098Z" fill="#F2BC97"/>
<path d="M67.3474 257.607C68.0558 257.107 68.9286 256.879 69.7916 256.978C76.9663 257.794 113.15 262.112 114.367 266.161C115.718 270.655 67.6367 266.909 66.445 264.719C65.3503 262.708 63.3056 260.459 67.3474 257.607Z" fill="#F2BC97"/>
<path d="M53.8763 224.313C54.2346 222.115 55.5825 220.316 57.407 219.038C58.98 217.939 62.2838 216.696 64.3647 219.293C67.3546 223.028 70.3461 246.792 70.3461 246.792C70.3461 246.792 71.8271 255.182 72.3267 255.763C72.8281 256.345 97.1925 260.545 97.1925 260.545L97.0018 268.77C97.0018 268.77 67.3546 267.24 64.0064 264.848C60.6598 262.457 57.9017 249.338 57.9017 249.338C54.2511 234.372 53.2418 228.2 53.8763 224.313Z" fill="#5BA7F4"/>
<path d="M106.922 263.629L107.016 262.985L107.013 262.975L107.022 262.97L109.21 261.58C109.776 261.226 110.408 261.013 111.071 260.965L113.806 260.748C113.806 260.748 113.697 262.068 112.772 262.306C112.351 262.42 111.84 262.793 111.403 263.158L113.056 263.235L117.087 263.728C118.121 263.846 118.77 264.898 118.43 265.881L117.797 267.671C117.68 268 117.402 268.242 117.054 268.312L114.352 268.838C112.94 269.116 111.475 269.114 110.067 268.823L106.301 268.061L106.922 263.629Z" fill="#F2BC97"/>
<path d="M275.792 332.932C277.557 330.51 279.573 328.206 281.367 326.271C285.227 322.105 289.729 318.729 294.442 315.891C296.977 325.24 294.517 335.579 289.836 343.83C286.847 349.1 283.01 353.682 278.932 357.915C276.649 360.284 274.268 362.45 271.9 364.759C271.697 364.956 271.419 365.165 271.183 365.021C271.001 364.91 270.954 364.647 270.925 364.417C269.848 355.6 268.867 346.117 272.563 338.235C273.393 336.467 274.527 334.669 275.792 332.932Z" fill="#B7DBFF"/>
<path d="M241.611 343.449C241.657 349.427 241.788 355.491 243.327 361.215C244.866 366.94 248 372.374 252.733 375.157C255.299 376.665 258.185 377.325 260.913 378.423C263.653 379.527 266.077 381.182 267.732 383.897C268.594 375.753 264.953 366.986 261.049 360.338C256.464 352.535 249.578 346.362 241.611 343.449Z" fill="#B7DBFF"/>
<path d="M286.002 361.221C292.773 356.178 300.873 353.968 308.812 351.982C306.489 359.223 304.057 366.672 299.414 372.35C295.079 377.65 289.061 381.015 282.787 382.563C281.602 382.855 274.194 386.037 273.725 385.746C272.569 385.031 274.385 380.413 274.645 379.312C276.436 371.731 280.092 365.622 286.002 361.221Z" fill="#B7DBFF"/>
<path d="M271.239 398.671L270.885 398.641C271.316 393.732 271.806 388.167 274.48 383.744C276.106 381.054 278.401 379.019 280.619 377.052L293.27 365.834L293.506 366.101L280.855 377.319C278.656 379.268 276.383 381.284 274.784 383.927C272.153 388.28 271.668 393.801 271.239 398.671Z" fill="#3588D8"/>
<path d="M268.955 407.586C268.312 404.104 268.452 400.489 268.588 396.993C268.681 394.582 268.779 392.089 268.618 389.66C267.913 378.967 262.395 369.592 257.279 361.644L257.578 361.451C262.718 369.437 268.261 378.859 268.972 389.638C269.135 392.086 269.038 394.588 268.943 397.008C268.809 400.484 268.669 404.078 269.305 407.522L268.955 407.586Z" fill="#3588D8"/>
<path d="M270.051 403.26L269.695 403.254L269.981 383.804C270.057 378.665 270.136 373.351 270.93 368.194C272.453 358.311 276.514 349.233 280.441 340.455L280.766 340.601C276.848 349.357 272.797 358.412 271.282 368.248C270.491 373.381 270.412 378.683 270.337 383.81L270.051 403.26Z" fill="#3588D8"/>
<path opacity="0.05" d="M315.157 422.339C315.157 427.674 295.699 431.997 271.698 431.997C247.696 431.997 228.238 427.672 228.238 422.339C228.238 417.005 247.696 412.682 271.698 412.682C295.699 412.682 315.157 417.005 315.157 422.339Z" fill="#FF7300"/>
<path d="M257.583 423.785C257.661 424.807 258.493 425.588 259.518 425.593C265.383 425.625 283.587 425.712 283.597 425.583L285.111 400.662C285.181 399.512 284.267 398.541 283.115 398.541H257.825C256.661 398.541 255.742 399.519 255.83 400.679C256.223 405.854 257.218 418.979 257.583 423.785Z" fill="#4991FF"/>
<path d="M286.26 395.81C286.364 394.64 285.441 393.632 284.266 393.634L255.541 393.673C255.093 393.673 254.771 394.072 254.771 394.519V400.12C254.771 400.568 255.093 400.968 255.541 400.968L283.982 400.909C285.017 400.907 285.879 400.116 285.97 399.085L286.26 395.81Z" fill="#579AFF"/>
<path d="M304.602 360.756C303.877 362.835 303.015 364.867 302.023 366.833" stroke="#3588D8" stroke-width="0.5" stroke-miterlimit="10"/>
<path d="M301.194 367.938C300.75 368.646 300.258 369.323 299.721 369.963" stroke="#3588D8" stroke-width="0.5" stroke-miterlimit="10"/>
<path d="M292.927 327.793C292.275 331.156 291.211 334.439 289.766 337.544" stroke="#3588D8" stroke-width="0.5" stroke-miterlimit="10"/>
<path d="M289.215 339.205C288.578 340.345 287.94 341.485 287.303 342.624" stroke="#3588D8" stroke-width="0.5" stroke-miterlimit="10"/>
<path d="M291.259 337.65C290.86 338.418 290.46 339.184 290.061 339.951" stroke="#3588D8" stroke-width="0.5" stroke-miterlimit="10"/>
<path d="M247.754 367.816C249.053 370.62 251.626 372.802 254.604 373.627" stroke="#3588D8" stroke-width="0.5" stroke-miterlimit="10"/>
<defs>
<filter id="filter0_d_15081_26227" x="26.0215" y="0" width="508.953" height="372.539" filterUnits="userSpaceOnUse" color-interpolation-filters="sRGB">
<feFlood flood-opacity="0" result="BackgroundImageFix"/>
<feColorMatrix in="SourceAlpha" type="matrix" values="0 0 0 0 0 0 0 0 0 0 0 0 0 0 0 0 0 0 127 0" result="hardAlpha"/>
<feOffset dy="15"/>
<feGaussianBlur stdDeviation="20"/>
<feComposite in2="hardAlpha" operator="out"/>
<feColorMatrix type="matrix" values="0 0 0 0 0.117647 0 0 0 0 0.129412 0 0 0 0 0.176471 0 0 0 0.07 0"/>
<feBlend mode="normal" in2="BackgroundImageFix" result="effect1_dropShadow_15081_26227"/>
<feBlend mode="normal" in="SourceGraphic" in2="effect1_dropShadow_15081_26227" result="shape"/>
</filter>
<filter id="filter1_d_15081_26227" x="4.88281" y="205.986" width="208.816" height="167.508" filterUnits="userSpaceOnUse" color-interpolation-filters="sRGB">
<feFlood flood-opacity="0" result="BackgroundImageFix"/>
<feColorMatrix in="SourceAlpha" type="matrix" values="0 0 0 0 0 0 0 0 0 0 0 0 0 0 0 0 0 0 127 0" result="hardAlpha"/>
<feOffset dy="15"/>
<feGaussianBlur stdDeviation="20"/>
<feComposite in2="hardAlpha" operator="out"/>
<feColorMatrix type="matrix" values="0 0 0 0 0.117647 0 0 0 0 0.129412 0 0 0 0 0.176471 0 0 0 0.07 0"/>
<feBlend mode="normal" in2="BackgroundImageFix" result="effect1_dropShadow_15081_26227"/>
<feBlend mode="normal" in="SourceGraphic" in2="effect1_dropShadow_15081_26227" result="shape"/>
</filter>
<linearGradient id="paint0_linear_15081_26227" x1="247.056" y1="25.1463" x2="247.056" y2="444" gradientUnits="userSpaceOnUse">
<stop stop-color="#FF7300"/>
<stop offset="1" stop-color="#FF7300" stop-opacity="0"/>
</linearGradient>
<linearGradient id="paint1_linear_15081_26227" x1="513.775" y1="241.874" x2="476.001" y2="241.874" gradientUnits="userSpaceOnUse">
<stop stop-color="#FAB882"/>
<stop offset="1" stop-color="#FF7300"/>
</linearGradient>
<linearGradient id="paint2_linear_15081_26227" x1="481.462" y1="241.08" x2="476.765" y2="241.08" gradientUnits="userSpaceOnUse">
<stop stop-color="#FAB882"/>
<stop offset="1" stop-color="#FF7300"/>
</linearGradient>
<linearGradient id="paint3_linear_15081_26227" x1="513.583" y1="247.895" x2="507.424" y2="247.895" gradientUnits="userSpaceOnUse">
<stop stop-color="#FAB882"/>
<stop offset="1" stop-color="#FF7300"/>
</linearGradient>
<linearGradient id="paint4_linear_15081_26227" x1="509.734" y1="232.477" x2="485.094" y2="259.171" gradientUnits="userSpaceOnUse">
<stop stop-color="#00A9F4"/>
<stop offset="1" stop-color="#0077EC"/>
</linearGradient>
<linearGradient id="paint5_linear_15081_26227" x1="484.418" y1="231.661" x2="460.15" y2="231.661" gradientUnits="userSpaceOnUse">
<stop stop-color="#FAB882"/>
<stop offset="1" stop-color="#FF7300"/>
</linearGradient>
<linearGradient id="paint6_linear_15081_26227" x1="93.4574" y1="229.302" x2="45.5158" y2="254.516" gradientUnits="userSpaceOnUse">
<stop offset="0.0377" stop-color="#214F95"/>
<stop offset="1" stop-color="#14408F"/>
</linearGradient>
</defs>
</svg>
