<svg width="575" height="405" viewBox="0 0 575 405" fill="none" xmlns="http://www.w3.org/2000/svg">
<g clip-path="url(#clip0_15188_38922)">
<path opacity="0.08" fill-rule="evenodd" clip-rule="evenodd" d="M297.213 412.211C367.744 412.211 432.652 413.253 484.161 415C610.216 343.816 566.567 205.065 521.305 126.582C458.315 17.3527 309.472 -21.906 247.906 65.2442C164.34 183.537 83.7263 142.257 40.1963 232.096C-3.3325 321.935 62.774 408.06 110.265 415C161.774 413.253 226.682 412.211 297.213 412.211ZM186.764 109.307C154.5 133.567 101.134 152.367 83.4118 126.574C70.1716 107.304 86.481 71.1503 118.423 43.7377C150.343 16.347 193.108 -0.234455 216.416 19.9366C244.077 43.8711 211.611 90.623 186.764 109.307Z" fill="url(#paint0_linear_15188_38922)"/>
<g filter="url(#filter0_d_15188_38922)">
<rect x="131" y="42" width="367" height="268" rx="16.0527" fill="white"/>
</g>
<path d="M502.275 41.9941H138.78C134.335 41.9941 130.732 45.3214 130.732 49.4259V75.0484H510.323V49.4259C510.323 45.3214 506.72 41.9941 502.275 41.9941Z" fill="#EAF4FE"/>
<circle cx="147.712" cy="57.6929" r="4.01317" fill="#FF6259"/>
<circle cx="161.472" cy="57.6929" r="4.01317" fill="#FFBE2F"/>
<circle cx="175.232" cy="57.6929" r="4.01317" fill="#29CD41"/>
<path d="M71.7985 134.937C72.9602 131.457 76.4452 136.677 77.6068 137.548C77.6068 140.448 77.1423 146.945 75.2845 149.729C72.9622 153.21 68.3136 147.989 67.7327 144.508C67.1519 141.028 70.6369 138.418 71.7985 134.937Z" fill="#202F87"/>
<path d="M151.727 173.775C151.727 173.775 163.42 171.354 166.019 167.596C168.619 163.838 161.38 153.787 161.38 153.787L152.934 155.724L146.9 168.967L151.727 173.775Z" fill="#FFCBC2"/>
<path d="M105.599 326.332L104.392 357.154L87.9297 354.581V327.568L105.599 326.332Z" fill="#FFCBC2"/>
<path d="M117.74 280.107C117.545 308.541 111.032 339.327 111.032 339.327L82.4043 340.032C82.4043 340.032 87.2123 309.84 87.6199 302.883C88.0358 295.937 89.1042 251.908 89.1042 251.908L89.2992 233.041L89.4176 221.995L108.498 220.17C108.498 220.17 109.55 223.688 110.948 229.435C113.728 240.873 117.866 261.162 117.74 280.107Z" fill="#3A67B3"/>
<path d="M85.9058 363.413C86.4423 364.13 92.8754 363.455 93.4353 363.57C93.9951 363.685 95.5716 360.816 96.6284 361.244C97.6844 361.666 98.9776 363.009 100.531 363.624C101.982 364.197 125.808 364.058 130.42 363.57C130.799 363.528 131.059 363.239 130.988 362.925C130.814 362.147 130.412 360.635 129.632 359.128C128.93 357.772 127.921 356.411 126.494 355.591C122.796 353.446 115.054 352.609 112.24 351.181C109.417 349.753 106.263 346.3 104.585 346.957C102.905 347.62 99.7512 350.633 95.1786 350.211C90.606 349.795 88.4932 348.94 87.2628 349.801C86.4901 350.344 85.9462 355.345 85.7802 359.128C85.677 361.346 85.7089 363.148 85.9058 363.413Z" fill="#202F87"/>
<path d="M32.8608 302.357L9.51562 300.158L13.2397 284.092L33.8106 284.98L32.8608 302.357Z" fill="#FFCBC2"/>
<path d="M89.25 156.76C89.25 156.76 98.9854 157.153 101.49 158.016C103.994 158.879 121.662 168.717 124.862 168.717C128.063 168.717 142.5 157.5 142.5 157.5L154.216 178.3C154.216 178.3 148.652 197.133 129.314 199.433C109.976 201.735 102.462 193.537 102.462 193.537L89.25 156.76Z" fill="url(#paint1_linear_15188_38922)"/>
<path d="M65.3825 210.252C65.3825 210.252 69.1595 224.16 65.3825 246.991C63.0858 264.114 51.8872 269.74 43.2081 272.676C34.529 275.611 25.5391 281.808 25.5391 281.808L26.6434 305.21C26.6434 305.21 47.4619 306.547 68.0552 293.224C75.1336 288.644 77.994 288.277 82.4113 280.667C90.6936 266.397 91.798 259.548 92.3501 244.137L90.6936 218.452L65.3825 210.252Z" fill="#3A67B3"/>
<path d="M82.5337 156.827C95.0546 155.379 105.456 165.859 107.155 180.724L108.166 189.571C108.166 189.571 111.451 218.945 110.907 220.082C110.362 221.218 100.436 224.135 87.9215 225.346C76.9539 226.408 66.0124 223.514 65.4689 223.026C65.3106 222.884 62.4491 215.431 62.5087 207.917C62.6541 189.681 70.6192 159.068 70.6192 158.722C70.6192 158.488 75.8182 157.603 82.5337 156.827Z" fill="url(#paint2_linear_15188_38922)"/>
<path d="M77.1152 150.898L77.9838 160.075C77.9838 160.075 79.8347 162.551 85.0685 162.461C88.9681 162.395 90.2409 161.354 90.2409 161.354L89.261 156.761L88.2998 152.283L78.7209 151.099L77.1152 150.898Z" fill="#FFCBC2"/>
<path d="M78.7168 151.1C78.7631 151.348 78.8832 151.634 79.0584 151.959C81.4788 156.342 87.0029 156.78 89.2569 156.762L88.2957 152.283L78.7168 151.1Z" fill="#E6B0A6"/>
<path d="M88.296 131.166C88.296 131.166 94.0441 142.2 92.8126 148.779C91.5812 155.357 85.833 154.827 82.3439 153.872C78.8547 152.917 77.1089 150.902 77.1089 150.902C77.1089 150.902 74.0302 152.281 71.6686 149.417C69.3083 146.552 70.3346 142.944 72.0791 141.989C73.8237 141.035 76.0814 142.202 76.0814 142.202L74.1316 139.019C74.1316 139.019 79.8797 121.512 88.296 131.166Z" fill="#FFCBC2"/>
<path d="M76.1812 147.244C76.1111 147.244 76.041 147.226 75.9759 147.187L71.6946 144.619C71.4993 144.501 71.4317 144.242 71.5456 144.039C71.6583 143.838 71.9098 143.768 72.1063 143.885L76.3877 146.453C76.5829 146.571 76.6492 146.83 76.5366 147.033C76.4602 147.167 76.3226 147.244 76.1812 147.244Z" fill="#E6B0A6"/>
<path d="M72.5296 147.562C72.3619 147.562 72.2055 147.455 72.1442 147.284C72.0666 147.064 72.1754 146.821 72.3882 146.741L74.9563 145.774C75.1703 145.693 75.4043 145.808 75.4819 146.027C75.5595 146.246 75.4506 146.49 75.2378 146.57L72.6698 147.538C72.6235 147.554 72.5759 147.562 72.5296 147.562Z" fill="#E6B0A6"/>
<path d="M90.6924 134.55C89.3661 135.112 88.3391 131.914 86.1239 132.122C83.9075 132.331 82.7674 134.073 82.7674 134.073C82.7674 134.073 80.812 135.052 77.9936 137.404C75.1765 139.756 76.3371 142.541 76.3371 142.541L74.6807 141.97C74.6807 141.97 70.3745 140.39 69.159 138.545C66.7401 134.875 69.8084 130.273 72.4722 127.7C75.1238 125.14 82.1654 123.543 85.7238 124.277C87.8897 124.724 90.4613 126.708 91.2445 128.843C91.8715 130.551 92.3285 133.858 90.6924 134.55Z" fill="#202F87"/>
<path d="M2.06855 280.88C1.35244 281.403 1.7327 288.076 1.59817 288.65C1.46364 289.223 4.16915 290.972 3.71087 292.046C3.25817 293.119 1.9053 294.397 1.24518 295.976C0.6303 297.45 -0.243767 322.064 0.0327664 326.847C0.0576024 327.24 0.325767 327.521 0.632192 327.461C1.39113 327.314 2.86978 326.963 4.35889 326.221C5.69919 325.554 7.05808 324.569 7.91026 323.13C10.1401 319.402 11.2775 311.441 12.7765 308.595C14.2759 305.74 17.7469 302.629 17.1827 300.868C16.613 299.105 13.835 295.72 14.4359 291.015C15.0312 286.31 15.9477 284.165 15.1671 282.857C14.6755 282.036 9.86472 281.263 6.21491 280.931C4.07602 280.731 2.33319 280.688 2.06855 280.88Z" fill="#202F87"/>
<path d="M73.4395 193.992C73.4395 193.992 74.7623 190.089 75.2692 188.845C75.776 187.599 75.5433 183.379 77.0038 182.674C78.4643 181.969 78.9123 188.745 78.9123 188.745C78.9123 188.745 87.5438 178.657 89.1457 179.119C90.7477 179.581 87.0533 186.4 87.0533 186.4C87.0533 186.4 93.5147 179.165 94.7462 180.46C95.9776 181.755 90.4761 188.952 90.4761 188.952C90.4761 188.952 95.402 184.585 96.3731 185.995C97.3455 187.405 89.4736 198.532 89.4736 198.532C89.4736 198.532 84.9457 210.158 78.707 208.497C72.4683 206.836 73.4395 193.992 73.4395 193.992Z" fill="#FFCBC2"/>
<path d="M70.4893 158.75C70.4893 158.75 53.6098 166.673 43.5275 186.349C34.229 204.496 34.048 220.466 49.7941 225.119C65.5402 229.771 81.3015 211.355 81.3015 211.355L73.1152 191.389L69.3971 193.134L70.4893 158.75Z" fill="url(#paint3_linear_15188_38922)"/>
<rect x="152.592" y="88.3769" width="331.608" height="30.9217" rx="15.4608" stroke="#F2F5F6" stroke-width="1.06627"/>
<path d="M174.05 108.329C173.393 108.329 172.817 108.214 172.322 107.984C171.828 107.754 171.439 107.425 171.158 106.999C170.885 106.572 170.744 106.065 170.736 105.476H172.169C172.177 105.954 172.344 106.359 172.668 106.692C172.992 107.024 173.448 107.191 174.037 107.191C174.557 107.191 174.962 107.067 175.252 106.819C175.551 106.564 175.7 106.239 175.7 105.847C175.7 105.531 175.628 105.276 175.483 105.079C175.346 104.883 175.154 104.721 174.907 104.593C174.668 104.465 174.391 104.35 174.075 104.248C173.76 104.145 173.427 104.034 173.077 103.915C172.386 103.685 171.866 103.386 171.516 103.019C171.175 102.653 171.004 102.171 171.004 101.573C170.996 101.07 171.111 100.631 171.35 100.256C171.597 99.8802 171.938 99.5902 172.374 99.3855C172.817 99.1722 173.333 99.0656 173.922 99.0656C174.502 99.0656 175.009 99.1722 175.444 99.3855C175.888 99.5987 176.233 99.8973 176.481 100.281C176.728 100.656 176.856 101.096 176.865 101.599H175.432C175.432 101.369 175.372 101.151 175.252 100.947C175.133 100.733 174.958 100.558 174.728 100.422C174.498 100.285 174.216 100.217 173.883 100.217C173.457 100.209 173.103 100.315 172.821 100.537C172.548 100.759 172.412 101.066 172.412 101.458C172.412 101.808 172.514 102.077 172.719 102.264C172.924 102.452 173.205 102.61 173.563 102.738C173.922 102.857 174.331 102.998 174.792 103.16C175.235 103.305 175.632 103.48 175.982 103.685C176.331 103.889 176.609 104.158 176.813 104.491C177.027 104.823 177.133 105.246 177.133 105.757C177.133 106.21 177.018 106.632 176.788 107.024C176.558 107.408 176.212 107.724 175.751 107.971C175.291 108.21 174.724 108.329 174.05 108.329ZM181.533 108.329C180.911 108.329 180.356 108.193 179.87 107.92C179.392 107.638 179.017 107.25 178.744 106.756C178.471 106.261 178.335 105.685 178.335 105.028C178.335 104.363 178.467 103.779 178.731 103.275C179.004 102.772 179.38 102.38 179.857 102.098C180.344 101.817 180.907 101.676 181.546 101.676C182.169 101.676 182.711 101.817 183.171 102.098C183.632 102.371 183.99 102.738 184.246 103.198C184.502 103.659 184.63 104.167 184.63 104.721C184.63 104.806 184.626 104.9 184.617 105.003C184.617 105.096 184.613 105.203 184.604 105.322H179.665C179.708 105.937 179.908 106.406 180.267 106.73C180.634 107.046 181.056 107.203 181.533 107.203C181.917 107.203 182.237 107.118 182.493 106.947C182.758 106.768 182.954 106.529 183.082 106.231H184.438C184.267 106.828 183.926 107.327 183.414 107.728C182.911 108.129 182.284 108.329 181.533 108.329ZM181.533 102.789C181.081 102.789 180.68 102.925 180.331 103.198C179.981 103.463 179.768 103.864 179.691 104.401H183.274C183.248 103.906 183.073 103.514 182.749 103.224C182.425 102.934 182.02 102.789 181.533 102.789ZM188.187 108.329C187.649 108.329 187.206 108.24 186.856 108.061C186.506 107.881 186.246 107.647 186.076 107.357C185.905 107.058 185.82 106.734 185.82 106.384C185.82 105.77 186.059 105.284 186.536 104.926C187.014 104.568 187.696 104.388 188.583 104.388H190.247V104.273C190.247 103.779 190.11 103.407 189.837 103.16C189.573 102.913 189.227 102.789 188.801 102.789C188.426 102.789 188.097 102.883 187.816 103.071C187.543 103.25 187.376 103.518 187.317 103.877H185.96C186.003 103.416 186.157 103.024 186.421 102.699C186.694 102.367 187.035 102.115 187.445 101.945C187.863 101.765 188.319 101.676 188.814 101.676C189.701 101.676 190.388 101.91 190.874 102.38C191.36 102.84 191.603 103.471 191.603 104.273V108.176H190.426L190.311 107.088C190.132 107.438 189.871 107.732 189.53 107.971C189.189 108.21 188.741 108.329 188.187 108.329ZM188.455 107.229C188.822 107.229 189.129 107.144 189.377 106.973C189.633 106.794 189.829 106.559 189.965 106.269C190.11 105.979 190.2 105.659 190.234 105.31H188.724C188.187 105.31 187.803 105.403 187.573 105.591C187.351 105.779 187.24 106.013 187.24 106.295C187.24 106.585 187.347 106.815 187.56 106.986C187.782 107.148 188.08 107.229 188.455 107.229ZM193.184 108.176V101.829H194.4L194.515 103.032C194.737 102.614 195.044 102.286 195.436 102.047C195.837 101.8 196.319 101.676 196.882 101.676V103.096H196.511C196.136 103.096 195.799 103.16 195.5 103.288C195.21 103.407 194.976 103.616 194.797 103.915C194.626 104.205 194.541 104.61 194.541 105.131V108.176H193.184ZM200.877 108.329C200.254 108.329 199.696 108.189 199.201 107.907C198.715 107.626 198.331 107.237 198.049 106.743C197.776 106.239 197.64 105.659 197.64 105.003C197.64 104.346 197.776 103.77 198.049 103.275C198.331 102.772 198.715 102.38 199.201 102.098C199.696 101.817 200.254 101.676 200.877 101.676C201.662 101.676 202.319 101.881 202.848 102.29C203.385 102.699 203.73 103.254 203.884 103.953H202.464C202.378 103.604 202.191 103.331 201.901 103.134C201.611 102.938 201.269 102.84 200.877 102.84C200.544 102.84 200.237 102.925 199.956 103.096C199.674 103.258 199.448 103.501 199.278 103.825C199.107 104.141 199.022 104.533 199.022 105.003C199.022 105.472 199.107 105.868 199.278 106.193C199.448 106.508 199.674 106.751 199.956 106.922C200.237 107.092 200.544 107.178 200.877 107.178C201.269 107.178 201.611 107.08 201.901 106.883C202.191 106.687 202.378 106.41 202.464 106.052H203.884C203.739 106.734 203.398 107.284 202.86 107.702C202.323 108.12 201.662 108.329 200.877 108.329ZM205.355 108.176V98.9633H206.711V102.853C206.924 102.486 207.219 102.2 207.594 101.996C207.978 101.782 208.4 101.676 208.861 101.676C209.62 101.676 210.217 101.915 210.652 102.392C211.087 102.87 211.305 103.582 211.305 104.529V108.176H209.961V104.67C209.961 103.442 209.471 102.827 208.49 102.827C207.978 102.827 207.551 103.007 207.21 103.365C206.878 103.723 206.711 104.235 206.711 104.9V108.176H205.355ZM216.177 108.176V99.2192H217.533V103.058H221.871V99.2192H223.227V108.176H221.871V104.171H217.533V108.176H216.177ZM227.966 108.329C227.343 108.329 226.789 108.193 226.303 107.92C225.825 107.638 225.45 107.25 225.177 106.756C224.904 106.261 224.767 105.685 224.767 105.028C224.767 104.363 224.899 103.779 225.164 103.275C225.437 102.772 225.812 102.38 226.29 102.098C226.776 101.817 227.339 101.676 227.979 101.676C228.601 101.676 229.143 101.817 229.604 102.098C230.064 102.371 230.423 102.738 230.679 103.198C230.934 103.659 231.062 104.167 231.062 104.721C231.062 104.806 231.058 104.9 231.05 105.003C231.05 105.096 231.045 105.203 231.037 105.322H226.098C226.141 105.937 226.341 106.406 226.699 106.73C227.066 107.046 227.488 107.203 227.966 107.203C228.35 107.203 228.67 107.118 228.926 106.947C229.19 106.768 229.386 106.529 229.514 106.231H230.87C230.7 106.828 230.359 107.327 229.847 107.728C229.344 108.129 228.717 108.329 227.966 108.329ZM227.966 102.789C227.514 102.789 227.113 102.925 226.763 103.198C226.414 103.463 226.2 103.864 226.123 104.401H229.706C229.681 103.906 229.506 103.514 229.182 103.224C228.857 102.934 228.452 102.789 227.966 102.789ZM232.47 108.176V101.829H233.685L233.8 103.032C234.022 102.614 234.329 102.286 234.722 102.047C235.123 101.8 235.605 101.676 236.167 101.676V103.096H235.796C235.421 103.096 235.084 103.16 234.786 103.288C234.496 103.407 234.261 103.616 234.082 103.915C233.911 104.205 233.826 104.61 233.826 105.131V108.176H232.47ZM240.124 108.329C239.501 108.329 238.947 108.193 238.461 107.92C237.983 107.638 237.608 107.25 237.335 106.756C237.062 106.261 236.925 105.685 236.925 105.028C236.925 104.363 237.057 103.779 237.322 103.275C237.595 102.772 237.97 102.38 238.448 102.098C238.934 101.817 239.497 101.676 240.137 101.676C240.759 101.676 241.301 101.817 241.762 102.098C242.222 102.371 242.581 102.738 242.836 103.198C243.092 103.659 243.22 104.167 243.22 104.721C243.22 104.806 243.216 104.9 243.208 105.003C243.208 105.096 243.203 105.203 243.195 105.322H238.256C238.298 105.937 238.499 106.406 238.857 106.73C239.224 107.046 239.646 107.203 240.124 107.203C240.508 107.203 240.828 107.118 241.084 106.947C241.348 106.768 241.544 106.529 241.672 106.231H243.028C242.858 106.828 242.517 107.327 242.005 107.728C241.502 108.129 240.875 108.329 240.124 108.329ZM240.124 102.789C239.672 102.789 239.271 102.925 238.921 103.198C238.571 103.463 238.358 103.864 238.281 104.401H241.864C241.838 103.906 241.664 103.514 241.339 103.224C241.015 102.934 240.61 102.789 240.124 102.789Z" fill="#AAB4BE"/>
<path d="M455.838 103.6H459.836" stroke="#AAB4BE" stroke-width="1.06627" stroke-linecap="round" stroke-linejoin="round"/>
<path d="M457.838 105.598V101.6" stroke="#AAB4BE" stroke-width="1.06627" stroke-linecap="round" stroke-linejoin="round"/>
<path d="M457.677 111.036C461.873 111.036 465.274 107.635 465.274 103.439C465.274 99.2432 461.873 95.8418 457.677 95.8418C453.481 95.8418 450.08 99.2432 450.08 103.439C450.08 107.635 453.481 111.036 457.677 111.036Z" stroke="#AAB4BE" stroke-width="1.06627" stroke-linecap="round" stroke-linejoin="round"/>
<path d="M466.074 111.836L464.475 110.236" stroke="#AAB4BE" stroke-width="1.5994" stroke-linecap="round" stroke-linejoin="round"/>
<g opacity="0.42">
<g filter="url(#filter1_d_15188_38922)">
<path d="M547.195 36.2415V87.4255C547.195 90.9332 544.453 93.6275 541.077 93.4456L489.389 90.6449C486.626 90.4973 484.392 87.8374 484.368 84.7038L484.025 39.0078C484.001 35.8365 486.212 33.1388 488.988 32.9878L541.029 30.1528C544.419 29.9537 547.195 32.6857 547.195 36.2415Z" fill="url(#paint4_linear_15188_38922)"/>
</g>
</g>
<path d="M544.889 34.0749V85.1423C544.889 88.6431 542.174 91.3374 538.856 91.1692L487.844 88.5745C485.119 88.4337 482.908 85.791 482.884 82.6643L482.537 37.0747C482.513 33.9102 484.693 31.2091 487.436 31.0477L538.787 28.0103C542.15 27.8112 544.889 30.5295 544.889 34.0749Z" fill="white"/>
<path d="M544.889 34.0749V43.0398L482.599 45.0716L482.534 37.0712C482.51 33.9068 484.69 31.2091 487.432 31.0477L538.787 28.0103C542.146 27.8112 544.889 30.5295 544.889 34.0749Z" fill="#5076C7"/>
<path d="M544.889 34.0749V43.0398L482.599 45.0716L482.534 37.0712C482.51 33.9068 484.69 31.2091 487.432 31.0477L538.787 28.0103C542.146 27.8112 544.889 30.5295 544.889 34.0749Z" fill="#5076C7"/>
<path d="M544.889 34.0749V43.0398L482.599 45.0716L482.534 37.0712C482.51 33.9068 484.69 31.2091 487.432 31.0477L538.787 28.0103C542.146 27.8112 544.889 30.5295 544.889 34.0749Z" fill="#0061BF"/>
<g opacity="0.25">
<path d="M520.312 65.2244C520.312 70.0035 523.836 74.0999 528.457 74.383C533.377 74.6827 537.598 70.5863 537.598 65.2244C537.598 59.8625 533.36 55.7495 528.457 56.0659C523.836 56.349 520.312 60.4454 520.312 65.2244Z" fill="#0061BF"/>
</g>
<path d="M519.699 64.4237C519.699 69.2028 523.223 73.2992 527.844 73.5822C532.763 73.882 536.985 69.7856 536.985 64.4237C536.985 59.0452 532.747 54.9488 527.844 55.2652C523.223 55.5483 519.699 59.6446 519.699 64.4237Z" fill="#0061BF"/>
<path d="M521.463 64.4235C521.463 68.1702 524.239 71.334 527.829 71.5172C531.602 71.7003 534.81 68.5365 534.81 64.4235C534.81 60.3271 531.602 57.1466 527.829 57.3298C524.239 57.513 521.463 60.6935 521.463 64.4235Z" fill="white"/>
<path d="M524.469 64.4233C524.469 66.3882 525.948 68.0201 527.826 68.07C529.738 68.12 531.333 66.4881 531.333 64.4233C531.333 62.3584 529.738 60.7266 527.826 60.7765C525.965 60.8265 524.469 62.4583 524.469 64.4233Z" fill="#0061BF"/>
<path d="M526.117 64.4228C526.117 65.4386 526.882 66.2545 527.829 66.2712C528.793 66.2878 529.591 65.4552 529.591 64.4228C529.591 63.3904 528.793 62.5578 527.829 62.5745C526.882 62.5911 526.117 63.4237 526.117 64.4228Z" fill="white"/>
<path d="M522.588 62.5563L521.142 59.8753L516.588 58.4766L517.203 60.7412L522.588 62.5563Z" fill="#0061BF"/>
<path d="M515.346 62.3577C515.911 61.8915 516.476 61.4252 517.041 60.959C518.77 61.5418 520.531 62.1413 522.343 62.774L520.565 64.2727L515.346 62.3577Z" fill="#0061BF"/>
<path d="M527.675 64.7102C527.858 64.7269 528.024 64.6103 528.074 64.4438C528.124 64.2773 528.057 64.0941 527.908 63.9942C524.118 62.7453 520.511 61.5464 517.071 60.4141L516.871 61.0801L527.675 64.7102Z" fill="#292466"/>
<path d="M493.712 73.6127C492.982 73.4759 492.272 73.2452 491.601 72.9263C490.934 72.6011 490.311 72.1929 489.746 71.7113L491.299 69.7241C491.941 70.3016 492.69 70.7481 493.503 71.0386C494.329 71.329 495.202 71.464 496.077 71.4367C497.311 71.4161 498.261 71.1587 498.936 70.6679C499.259 70.4382 499.519 70.1322 499.695 69.7771C499.871 69.422 499.956 69.0288 499.944 68.6326C499.974 68.1044 499.814 67.5829 499.491 67.1637C499.178 66.7952 498.772 66.5177 498.316 66.3605C497.7 66.1509 497.07 65.9892 496.43 65.8766C496.405 65.873 496.38 65.873 496.355 65.8766C496.33 65.8818 496.304 65.8818 496.279 65.8766L496.101 65.8423C495.144 65.6839 494.2 65.4486 493.28 65.1387C492.522 64.855 491.866 64.3521 491.395 63.6937C490.87 63.0073 490.606 61.9777 490.61 60.6975C490.581 59.6843 490.839 58.6836 491.354 57.811C491.86 57.0114 492.606 56.3936 493.486 56.0469C495.122 55.4455 496.903 55.3581 498.59 55.7963C499.184 55.963 499.759 56.1931 500.304 56.4827C500.885 56.7871 501.436 57.1468 501.949 57.557L500.619 59.4996C500.044 59.0232 499.403 58.6324 498.717 58.3395C498.107 58.0778 497.453 57.9345 496.79 57.9174C495.618 57.8876 494.704 58.1165 494.048 58.6038C493.721 58.8396 493.458 59.154 493.285 59.5181C493.111 59.8822 493.032 60.2843 493.054 60.6872C493.022 61.2279 493.204 61.7593 493.561 62.1664C493.908 62.5343 494.342 62.8092 494.823 62.9661C495.505 63.1627 496.199 63.3174 496.9 63.4295L496.989 63.4501H497.075L497.205 63.4775L497.332 63.5015C498.208 63.6815 499.063 63.9494 499.885 64.3012C500.574 64.616 501.159 65.1208 501.572 65.7565C502.021 66.4223 502.24 67.3318 502.237 68.4851V68.5125C502.261 69.4844 502.01 70.4433 501.514 71.2789C501.011 72.0726 500.283 72.6977 499.423 73.0739C498.361 73.5284 497.218 73.7619 496.063 73.7603C495.277 73.7957 494.488 73.7462 493.712 73.6127Z" fill="#0061BF"/>
<path d="M515.522 58.5102L515.533 56.2586L507.772 56.0115L506.62 55.9738L505.527 55.9395L505.469 73.3646L506.559 73.3337L507.707 73.3063L515.454 73.1003L515.464 70.8591L507.717 70.9998L507.735 65.879L514.347 65.8687L514.354 63.6138L507.745 63.5726L507.765 58.3214L515.522 58.5102Z" fill="#0061BF"/>
<rect x="389.836" y="129.756" width="88.8554" height="79.9699" rx="8.53012" fill="#F2F5F6"/>
<path d="M407.3 166.634V161.114C407.3 159.589 406.064 158.354 404.539 158.354C403.015 158.354 401.779 159.589 401.779 161.114V166.634C401.779 168.158 403.015 169.394 404.539 169.394C406.064 169.394 407.3 168.158 407.3 166.634Z" fill="#D8DEE6"/>
<path d="M417.649 166.633V153.522C417.649 151.997 416.413 150.762 414.889 150.762C413.365 150.762 412.129 151.997 412.129 153.522V166.633C412.129 168.157 413.365 169.393 414.889 169.393C416.413 169.393 417.649 168.157 417.649 166.633Z" fill="#D8DEE6"/>
<path d="M427.311 166.636V163.875C427.311 162.351 426.076 161.115 424.551 161.115C423.027 161.115 421.791 162.351 421.791 163.875V166.636C421.791 168.16 423.027 169.396 424.551 169.396C426.076 169.396 427.311 168.16 427.311 166.636Z" fill="#D8DEE6"/>
<path d="M436.971 166.631V148C436.971 146.476 435.736 145.24 434.211 145.24C432.687 145.24 431.451 146.476 431.451 148V166.631C431.451 168.156 432.687 169.392 434.211 169.392C435.736 169.392 436.971 168.156 436.971 166.631Z" fill="#D8DEE6"/>
<path d="M446.632 166.633V154.903C446.632 153.378 445.396 152.143 443.871 152.143C442.347 152.143 441.111 153.378 441.111 154.903V166.633C441.111 168.158 442.347 169.393 443.871 169.393C445.396 169.393 446.632 168.158 446.632 166.633Z" fill="#D8DEE6"/>
<path d="M456.292 166.633V148.692C456.292 147.167 455.056 145.932 453.532 145.932C452.007 145.932 450.771 147.167 450.771 148.692V166.633C450.771 168.157 452.007 169.393 453.532 169.393C455.056 169.393 456.292 168.157 456.292 166.633Z" fill="#D8DEE6"/>
<path d="M465.952 166.634V140.412C465.952 138.888 464.716 137.652 463.192 137.652C461.667 137.652 460.432 138.888 460.432 140.412V166.634C460.432 168.158 461.667 169.394 463.192 169.394C464.716 169.394 465.952 168.158 465.952 166.634Z" fill="#D8DEE6"/>
<path d="M468.023 171.465H400.399C400.018 171.465 399.709 171.774 399.709 172.155C399.709 172.536 400.018 172.845 400.399 172.845H468.023C468.404 172.845 468.713 172.536 468.713 172.155C468.713 171.774 468.404 171.465 468.023 171.465Z" fill="#D8DEE6"/>
<path d="M441.111 183.742V183.338C441.111 183.259 441.014 183.195 440.894 183.195H416.487C416.367 183.195 416.27 183.259 416.27 183.338V183.742C416.27 183.821 416.367 183.885 416.487 183.885H440.894C441.014 183.885 441.111 183.821 441.111 183.742Z" fill="#D8DEE6"/>
<path d="M465.953 183.742V183.338C465.953 183.259 465.853 183.195 465.73 183.195H444.095C443.972 183.195 443.872 183.259 443.872 183.338V183.742C443.872 183.821 443.972 183.885 444.095 183.885H465.73C465.853 183.885 465.953 183.821 465.953 183.742Z" fill="#D8DEE6"/>
<path d="M413.51 183.742V183.338C413.51 183.259 413.407 183.195 413.28 183.195H399.938C399.812 183.195 399.709 183.259 399.709 183.338V183.742C399.709 183.821 399.812 183.885 399.938 183.885H413.28C413.407 183.885 413.51 183.821 413.51 183.742Z" fill="#D8DEE6"/>
<path d="M465.953 190.5V189.692C465.953 189.534 465.854 189.406 465.732 189.406H399.931C399.809 189.406 399.71 189.534 399.71 189.692V190.5C399.71 190.658 399.809 190.786 399.931 190.786H465.732C465.854 190.786 465.953 190.658 465.953 190.5Z" fill="#D8DEE6"/>
<path d="M455.602 196.02V195.212C455.602 195.054 455.502 194.926 455.378 194.926H399.932C399.809 194.926 399.709 195.054 399.709 195.212V196.02C399.709 196.178 399.809 196.306 399.932 196.306H455.378C455.502 196.306 455.602 196.178 455.602 196.02Z" fill="#D8DEE6"/>
<path d="M441.111 201.54V200.731C441.111 200.573 441.014 200.445 440.894 200.445H416.487C416.367 200.445 416.27 200.573 416.27 200.731V201.54C416.27 201.697 416.367 201.825 416.487 201.825H440.894C441.014 201.825 441.111 201.697 441.111 201.54Z" fill="#D8DEE6"/>
<path d="M465.953 201.54V200.731C465.953 200.573 465.853 200.445 465.73 200.445H444.095C443.972 200.445 443.872 200.573 443.872 200.731V201.54C443.872 201.697 443.972 201.825 444.095 201.825H465.73C465.853 201.825 465.953 201.697 465.953 201.54Z" fill="#D8DEE6"/>
<path d="M413.51 201.54V200.731C413.51 200.573 413.407 200.445 413.28 200.445H399.938C399.812 200.445 399.709 200.573 399.709 200.731V201.54C399.709 201.697 399.812 201.825 399.938 201.825H413.28C413.407 201.825 413.51 201.697 413.51 201.54Z" fill="#D8DEE6"/>
<path d="M465.953 196.012V195.22C465.953 195.057 465.853 194.926 465.73 194.926H457.896C457.773 194.926 457.673 195.057 457.673 195.22V196.012C457.673 196.174 457.773 196.306 457.896 196.306H465.73C465.853 196.306 465.953 196.174 465.953 196.012Z" fill="#D8DEE6"/>
<g opacity="0.7">
<path d="M434.95 253.256C434.092 253.32 433.226 253.479 432.369 253.74C431.463 254.016 430.613 254.39 429.829 254.848L430.301 256.461L428.304 258.114L426.866 257.301C425.694 258.647 424.838 260.242 424.363 261.961L425.931 262.85L425.653 265.42L423.957 265.859C424.013 266.765 424.176 267.679 424.452 268.585C424.703 269.41 425.036 270.188 425.44 270.912L427.254 270.36L428.925 272.331L427.972 274.051C429.301 275.222 430.879 276.081 432.582 276.567L433.409 274.919L435.989 275.179L436.565 277C437.472 276.943 438.389 276.78 439.297 276.504C440.156 276.242 440.965 275.892 441.717 275.465L441.17 273.602L443.169 271.949L444.842 272.894C445.998 271.552 446.843 269.965 447.312 268.256L445.451 267.301L445.742 264.732L447.692 264.139C447.624 263.312 447.467 262.481 447.216 261.656C446.94 260.748 446.565 259.897 446.106 259.111L444.318 259.737L442.656 257.758L443.518 256.036C442.156 254.886 440.549 254.052 438.821 253.604L438.047 255.147L435.466 254.888L434.95 253.256ZM441.36 263.439C442.289 266.492 440.568 269.718 437.515 270.647C434.464 271.576 431.237 269.855 430.308 266.802C429.379 263.751 431.1 260.524 434.152 259.595C437.205 258.667 440.431 260.388 441.36 263.439Z" fill="url(#paint5_linear_15188_38922)"/>
<path d="M450.735 246.134C450.239 246.027 449.722 245.974 449.195 245.979C448.637 245.985 448.093 246.054 447.574 246.184L447.573 247.175L446.17 247.778L445.492 247.08C444.605 247.646 443.856 248.406 443.302 249.3L444.041 250.063L443.456 251.47L442.423 251.437C442.304 251.959 442.245 252.504 442.25 253.061C442.255 253.57 442.314 254.065 442.422 254.541L443.54 254.531L444.158 255.923L443.333 256.738C443.89 257.621 444.64 258.37 445.523 258.927L446.264 258.132L447.681 258.707L447.704 259.833C448.227 259.951 448.772 260.011 449.332 260.007C449.862 260.002 450.377 259.937 450.873 259.821V258.676L452.278 258.073L453.067 258.885C453.944 258.319 454.686 257.562 455.235 256.672L454.341 255.823L454.931 254.419L456.133 254.407C456.232 253.929 456.281 253.432 456.276 252.924C456.27 252.364 456.2 251.82 456.071 251.3L454.956 251.358L454.345 249.963L455.118 249.131C454.539 248.255 453.768 247.516 452.866 246.976L452.172 247.72L450.756 247.145L450.735 246.134ZM452.668 252.959C452.687 254.84 451.177 256.379 449.296 256.398C447.416 256.416 445.877 254.907 445.858 253.026C445.84 251.145 447.349 249.606 449.229 249.588C451.11 249.568 452.65 251.079 452.668 252.959Z" fill="url(#paint6_linear_15188_38922)"/>
</g>
<path d="M350.798 239.17C350.623 239.17 350.48 239.029 350.48 238.853V198.333C350.48 198.158 350.623 198.016 350.798 198.016C350.973 198.016 351.115 198.157 351.115 198.333V238.854C351.115 239.029 350.973 239.17 350.798 239.17Z" fill="#D8DEE6"/>
<path d="M269.364 245.25C269.189 245.25 269.047 245.109 269.047 244.933V183.819C269.047 183.644 269.189 183.502 269.364 183.502C269.539 183.502 269.681 183.643 269.681 183.819V244.933C269.681 245.108 269.539 245.25 269.364 245.25Z" fill="#D8DEE6"/>
<path d="M194.686 236.888V291.01C194.686 292.657 195.825 293.997 197.235 293.997H278.313C279.713 293.997 280.852 292.657 280.852 291.01V236.888C280.852 235.241 279.713 233.9 278.313 233.9H197.235C195.825 233.9 194.686 235.24 194.686 236.888Z" fill="#F2F5F6"/>
<path opacity="0.2" d="M194.686 236.888V240.055H280.852V236.888C280.852 235.241 279.713 233.9 278.313 233.9H197.235C195.825 233.9 194.686 235.24 194.686 236.888Z" fill="#0061BF"/>
<path d="M200.608 238.439C201.417 238.439 202.072 237.784 202.072 236.975C202.072 236.167 201.417 235.512 200.608 235.512C199.8 235.512 199.145 236.167 199.145 236.975C199.145 237.784 199.8 238.439 200.608 238.439Z" fill="white"/>
<path d="M205.296 238.439C206.104 238.439 206.759 237.784 206.759 236.975C206.759 236.167 206.104 235.512 205.296 235.512C204.487 235.512 203.832 236.167 203.832 236.975C203.832 237.784 204.487 238.439 205.296 238.439Z" fill="white"/>
<path d="M209.981 238.439C210.79 238.439 211.445 237.784 211.445 236.975C211.445 236.167 210.79 235.512 209.981 235.512C209.173 235.512 208.518 236.167 208.518 236.975C208.518 237.784 209.173 238.439 209.981 238.439Z" fill="white"/>
<path d="M227.757 250.791H205.758V275.586H227.757V250.791Z" fill="#D8DEE5"/>
<path opacity="0.3" d="M227.757 266.643V275.588H205.758V272.223C207.447 270.499 210.754 268.123 216.763 266.854C221.433 265.863 225.137 266.096 227.757 266.643Z" fill="#AAB4BE"/>
<path d="M270.126 252.176H233.948C233.243 252.176 232.672 252.747 232.672 253.452C232.672 254.157 233.243 254.729 233.948 254.729H270.126C270.831 254.729 271.402 254.157 271.402 253.452C271.402 252.747 270.831 252.176 270.126 252.176Z" fill="#D7D7E2"/>
<path d="M270.126 258.215H233.948C233.243 258.215 232.672 258.786 232.672 259.491C232.672 260.197 233.243 260.768 233.948 260.768H270.126C270.831 260.768 271.402 260.197 271.402 259.491C271.402 258.786 270.831 258.215 270.126 258.215Z" fill="#D7D7E2"/>
<path d="M270.126 264.248H233.948C233.243 264.248 232.672 264.82 232.672 265.525C232.672 266.23 233.243 266.801 233.948 266.801H270.126C270.831 266.801 271.402 266.23 271.402 265.525C271.402 264.82 270.831 264.248 270.126 264.248Z" fill="#D7D7E2"/>
<path d="M270.126 270.283H233.948C233.243 270.283 232.672 270.855 232.672 271.56C232.672 272.265 233.243 272.836 233.948 272.836H270.126C270.831 272.836 271.402 272.265 271.402 271.56C271.402 270.855 270.831 270.283 270.126 270.283Z" fill="#D7D7E2"/>
<path d="M271.404 284.319L205.756 284.027C205.58 284.026 205.439 283.884 205.439 283.709C205.44 283.534 205.583 283.393 205.757 283.393L271.405 283.685C271.581 283.685 271.721 283.828 271.721 284.003C271.72 284.178 271.578 284.319 271.404 284.319Z" fill="#D8DEE5"/>
<path d="M366.381 168.667V197.474C366.381 198.35 365.633 199.064 364.709 199.064H311.535C310.617 199.064 309.869 198.351 309.869 197.474V168.667C309.869 167.79 310.617 167.076 311.535 167.076H364.709C365.633 167.076 366.381 167.79 366.381 168.667Z" fill="#F2F5F6"/>
<path d="M366.381 170.181V173.474H309.869V170.181C309.869 168.47 310.617 167.076 311.535 167.076H364.709C365.633 167.076 366.381 168.47 366.381 170.181Z" fill="#EAF4FE"/>
<path d="M320.494 171.551C321.102 171.551 321.596 171.059 321.596 170.452C321.596 169.845 321.102 169.354 320.494 169.354C319.886 169.354 319.393 169.845 319.393 170.452C319.393 171.059 319.886 171.551 320.494 171.551Z" fill="#FFAF45"/>
<path d="M316.967 171.551C317.575 171.551 318.068 171.059 318.068 170.452C318.068 169.845 317.575 169.354 316.967 169.354C316.358 169.354 315.865 169.845 315.865 170.452C315.865 171.059 316.358 171.551 316.967 171.551Z" fill="#EA366E"/>
<path d="M313.439 171.551C314.048 171.551 314.541 171.059 314.541 170.452C314.541 169.845 314.048 169.354 313.439 169.354C312.831 169.354 312.338 169.845 312.338 170.452C312.338 171.059 312.831 171.551 313.439 171.551Z" fill="#ADA4F7"/>
<path d="M344.795 177.988H316.446C315.873 177.988 315.408 178.453 315.408 179.027C315.408 179.6 315.873 180.065 316.446 180.065H344.795C345.368 180.065 345.833 179.6 345.833 179.027C345.833 178.453 345.368 177.988 344.795 177.988Z" fill="#D7D7E2"/>
<path d="M344.795 183.506H316.446C315.873 183.506 315.408 183.971 315.408 184.544C315.408 185.118 315.873 185.582 316.446 185.582H344.795C345.368 185.582 345.833 185.118 345.833 184.544C345.833 183.971 345.368 183.506 344.795 183.506Z" fill="#D7D7E2"/>
<path d="M344.795 189.027H316.446C315.873 189.027 315.408 189.492 315.408 190.066C315.408 190.639 315.873 191.104 316.446 191.104H344.795C345.368 191.104 345.833 190.639 345.833 190.066C345.833 189.492 345.368 189.027 344.795 189.027Z" fill="#D7D7E2"/>
<path d="M361.94 178.08H349.178V191.103H361.94V178.08Z" fill="#D8DEE5"/>
<path d="M317.158 238.058V281.361C317.158 282.679 318.303 283.752 319.718 283.752H401.139C402.545 283.752 403.69 282.679 403.69 281.361V238.058C403.69 236.74 402.545 235.668 401.139 235.668H319.718C318.303 235.668 317.158 236.74 317.158 238.058Z" fill="#F2F5F6"/>
<path d="M317.158 238.87V242.264H403.69V238.87C403.69 237.105 402.545 235.668 401.139 235.668H319.718C318.303 235.668 317.158 237.105 317.158 238.87Z" fill="#0061BF"/>
<path d="M389.491 240.533C390.303 240.533 390.96 239.831 390.96 238.965C390.96 238.099 390.303 237.396 389.491 237.396C388.679 237.396 388.021 238.099 388.021 238.965C388.021 239.831 388.679 240.533 389.491 240.533Z" fill="#FFAF45"/>
<path d="M394.198 240.533C395.01 240.533 395.667 239.831 395.667 238.965C395.667 238.099 395.01 237.396 394.198 237.396C393.386 237.396 392.729 238.099 392.729 238.965C392.729 239.831 393.386 240.533 394.198 240.533Z" fill="#ADA4F7"/>
<path d="M398.907 240.533C399.719 240.533 400.376 239.831 400.376 238.965C400.376 238.099 399.719 237.396 398.907 237.396C398.095 237.396 397.438 238.099 397.438 238.965C397.438 239.831 398.095 240.533 398.907 240.533Z" fill="#EA366E"/>
<path d="M343.109 268.5H333.67V273.908H343.109V268.5Z" fill="#D8DEE6"/>
<path d="M357.801 263.096H348.361V273.911H357.801V263.096Z" fill="#D8DEE6"/>
<path d="M372.484 257.512H363.045V273.907H372.484V257.512Z" fill="#D8DEE6"/>
<path d="M387.178 252.279H377.738V273.91H387.178V252.279Z" fill="#D8DEE6"/>
<path d="M294.184 265.912H281.245C279.389 265.912 277.879 264.401 277.879 262.545V259.108C277.879 257.252 279.389 255.742 281.245 255.742H294.184C296.04 255.742 297.55 257.252 297.55 259.108V262.545C297.549 264.401 296.039 265.912 294.184 265.912ZM281.245 257.215C280.201 257.215 279.35 258.064 279.35 259.108V262.545C279.35 263.589 280.201 264.439 281.245 264.439H294.184C295.228 264.439 296.078 263.589 296.078 262.545V259.108C296.078 258.063 295.228 257.215 294.184 257.215H281.245Z" fill="#D8DEE6"/>
<path d="M321.249 266.097H308.311C306.454 266.097 304.945 264.587 304.945 262.732V259.295C304.945 257.44 306.455 255.93 308.311 255.93H321.249C323.105 255.93 324.614 257.44 324.614 259.295V262.732C324.614 264.587 323.105 266.097 321.249 266.097ZM308.311 257.401C307.267 257.401 306.416 258.251 306.416 259.295V262.732C306.416 263.776 307.267 264.626 308.311 264.626H321.249C322.293 264.626 323.144 263.776 323.144 262.732V259.295C323.144 258.251 322.293 257.401 321.249 257.401H308.311Z" fill="#D8DEE6"/>
<path d="M307.066 261.561H295.831C295.425 261.561 295.096 261.232 295.096 260.826C295.096 260.42 295.425 260.09 295.831 260.09H307.066C307.472 260.09 307.802 260.42 307.802 260.826C307.801 261.232 307.472 261.561 307.066 261.561Z" fill="#D8DEE6"/>
<path d="M327.61 261.747H322.704C322.298 261.747 321.969 261.417 321.969 261.011C321.969 260.605 322.298 260.275 322.704 260.275H327.61C328.016 260.275 328.346 260.605 328.346 261.011C328.345 261.418 328.016 261.747 327.61 261.747Z" fill="#D8DEE6"/>
<path d="M279.836 261.518H274.931C274.525 261.518 274.195 261.189 274.195 260.783C274.195 260.377 274.525 260.047 274.931 260.047H279.836C280.242 260.047 280.572 260.377 280.572 260.783C280.571 261.189 280.242 261.518 279.836 261.518Z" fill="#D8DEE6"/>
<path d="M350.799 218.908H269.364C269.189 218.908 269.047 218.766 269.047 218.591C269.047 218.416 269.189 218.273 269.364 218.273H350.799C350.974 218.273 351.116 218.415 351.116 218.591C351.116 218.766 350.974 218.908 350.799 218.908Z" fill="#D8DEE6"/>
<path d="M269.364 198.648H187.61C187.435 198.648 187.293 198.507 187.293 198.331V160.292C187.293 160.117 187.435 159.975 187.61 159.975C187.785 159.975 187.927 160.116 187.927 160.292V198.015H269.364C269.539 198.015 269.681 198.156 269.681 198.332C269.681 198.507 269.539 198.648 269.364 198.648Z" fill="#D8DEE6"/>
<path d="M221.195 167.075H156.499C154.047 167.075 152.061 164.53 152.061 161.393V135.438C152.061 132.301 154.048 129.756 156.499 129.756H221.195C223.645 129.756 225.633 132.301 225.633 135.438V161.393C225.633 164.53 223.646 167.075 221.195 167.075Z" fill="#F2F5F6"/>
<path d="M177.354 155.873C176.886 156.216 176.234 156.502 175.399 156.728C174.564 156.954 173.486 157.068 172.167 157.068C170.848 157.068 169.595 156.959 168.409 156.74C167.221 156.522 166.371 156.28 165.855 156.014C165.34 155.75 165.082 155.491 165.082 155.242C165.082 154.368 165.207 153.458 165.457 152.514C165.707 151.569 166.003 151.097 166.348 151.097C166.41 151.097 167.057 151.308 168.292 151.73C169.524 152.151 170.453 152.362 171.078 152.362C171.702 152.362 172.108 152.295 172.296 152.163C172.484 152.03 172.577 151.839 172.577 151.589C172.577 151.339 172.405 151.117 172.062 150.922C171.719 150.726 171.29 150.555 170.774 150.406C170.259 150.258 169.701 150.044 169.1 149.762C168.5 149.481 167.941 149.169 167.426 148.826C166.911 148.482 166.481 147.994 166.138 147.362C165.795 146.73 165.623 146.007 165.623 145.195C165.623 141.73 167.692 139.996 171.829 139.996C173.375 139.996 174.71 140.094 175.834 140.289C176.959 140.484 177.751 140.703 178.212 140.944C178.672 141.186 178.902 141.425 178.902 141.659C178.902 142.471 178.711 143.345 178.329 144.282C177.946 145.219 177.576 145.686 177.216 145.686C177.154 145.686 176.951 145.617 176.608 145.476C175.577 145.023 174.723 144.796 174.043 144.796C173.364 144.796 172.903 144.859 172.661 144.984C172.419 145.108 172.298 145.3 172.298 145.558C172.298 145.815 172.47 146.026 172.813 146.19C173.156 146.355 173.582 146.502 174.089 146.636C174.596 146.768 175.151 146.971 175.752 147.245C176.354 147.518 176.911 147.838 177.427 148.205C177.941 148.571 178.371 149.09 178.714 149.762C179.058 150.433 179.23 151.214 179.23 152.104C179.23 153.041 178.987 153.891 178.504 154.657C178.205 155.124 177.823 155.53 177.354 155.873Z" fill="#FF7300"/>
<path d="M193.163 156.858H183.233C182.469 156.858 181.953 156.803 181.687 156.694C181.422 156.585 181.289 156.413 181.289 156.179V141.355C181.289 140.949 181.472 140.661 181.839 140.489C182.207 140.317 182.865 140.23 183.818 140.23H193.232C193.56 140.23 193.725 140.774 193.725 141.859C193.725 142.943 193.655 143.772 193.514 144.341C193.374 144.911 193.185 145.196 192.951 145.196C191.936 145.196 190.227 145.094 187.822 144.891V146.46C190.133 146.367 191.639 146.319 192.342 146.319C192.764 146.319 192.974 146.811 192.974 147.794C192.974 148.779 192.892 149.524 192.729 150.031C192.564 150.538 192.342 150.792 192.062 150.792L187.822 150.699V152.197C190.539 151.995 192.413 151.893 193.443 151.893C193.772 151.893 193.935 152.44 193.935 153.532C193.935 154.626 193.866 155.452 193.725 156.015C193.583 156.578 193.397 156.858 193.163 156.858Z" fill="#FF7300"/>
<path d="M204.03 157.069C202.734 157.069 201.621 156.948 200.693 156.707C199.764 156.465 198.909 156.031 198.129 155.406C196.552 154.174 195.764 151.808 195.764 148.31C195.764 146.843 195.978 145.563 196.408 144.469C196.837 143.377 197.434 142.51 198.2 141.87C199.698 140.621 201.643 139.996 204.031 139.996C205.264 139.996 206.338 140.105 207.251 140.324C208.164 140.542 209.027 140.941 209.839 141.519C211.478 142.706 212.298 144.969 212.298 148.31C212.298 151.308 211.556 153.517 210.073 154.937C208.589 156.359 206.575 157.069 204.03 157.069ZM203.257 153.052C203.444 153.278 203.702 153.393 204.03 153.393C204.358 153.393 204.615 153.279 204.803 153.052C204.99 152.826 205.146 152.343 205.271 151.6C205.396 150.859 205.458 149.824 205.458 148.498C205.458 147.17 205.396 146.148 205.271 145.43C205.146 144.712 204.99 144.244 204.803 144.025C204.616 143.806 204.358 143.697 204.03 143.697C203.702 143.697 203.445 143.806 203.257 144.025C203.07 144.244 202.914 144.712 202.789 145.43C202.663 146.149 202.602 147.171 202.602 148.498C202.602 149.824 202.663 150.86 202.789 151.6C202.914 152.342 203.07 152.826 203.257 153.052Z" fill="#FF7300"/>
<path d="M298.445 184.101H254.785C253.636 184.101 252.703 183.167 252.703 182.02V160.685C252.703 159.537 253.637 158.604 254.785 158.604H298.445C299.592 158.604 300.526 159.537 300.526 160.685V182.021C300.526 183.168 299.593 184.101 298.445 184.101ZM254.785 159.237C253.986 159.237 253.337 159.886 253.337 160.685V182.021C253.337 182.819 253.986 183.469 254.785 183.469H298.445C299.243 183.469 299.892 182.819 299.892 182.021V160.685C299.892 159.886 299.243 159.237 298.445 159.237H254.785Z" fill="#D8DEE6"/>
<path d="M300.209 163.46H253.02C252.845 163.46 252.703 163.319 252.703 163.143C252.703 162.968 252.845 162.826 253.02 162.826H300.209C300.384 162.826 300.526 162.967 300.526 163.143C300.526 163.319 300.384 163.46 300.209 163.46Z" fill="#D8DEE6"/>
<path d="M257.804 162.093C257.749 162.093 257.694 162.078 257.642 162.048L255.132 160.564C254.982 160.475 254.932 160.281 255.021 160.13C255.11 159.979 255.303 159.93 255.455 160.018L257.965 161.502C258.115 161.591 258.165 161.785 258.077 161.936C258.018 162.038 257.911 162.093 257.804 162.093Z" fill="#D8DEE6"/>
<path d="M255.293 162.092C255.186 162.092 255.08 162.036 255.021 161.936C254.932 161.785 254.982 161.592 255.132 161.502L257.642 160.018C257.793 159.93 257.987 159.979 258.077 160.13C258.165 160.281 258.115 160.474 257.965 160.564L255.455 162.048C255.404 162.078 255.348 162.092 255.293 162.092Z" fill="#D8DEE6"/>
<path d="M269.366 221.523C270.982 221.523 272.292 220.213 272.292 218.596C272.292 216.98 270.982 215.67 269.366 215.67C267.75 215.67 266.439 216.98 266.439 218.596C266.439 220.213 267.75 221.523 269.366 221.523Z" fill="#D8DEE6"/>
<path d="M269.366 201.261C270.982 201.261 272.292 199.951 272.292 198.335C272.292 196.718 270.982 195.408 269.366 195.408C267.75 195.408 266.439 196.718 266.439 198.335C266.439 199.951 267.75 201.261 269.366 201.261Z" fill="#D8DEE6"/>
<path d="M350.799 221.523C352.416 221.523 353.726 220.213 353.726 218.596C353.726 216.98 352.416 215.67 350.799 215.67C349.183 215.67 347.873 216.98 347.873 218.596C347.873 220.213 349.183 221.523 350.799 221.523Z" fill="#D8DEE6"/>
<path opacity="0.5" fill-rule="evenodd" clip-rule="evenodd" d="M320.368 310.998C321.228 322.801 322.969 324.429 334.223 325.337C322.969 326.248 321.228 327.873 320.368 339.677C319.507 327.873 317.766 326.248 306.511 325.337C317.766 324.429 319.507 322.801 320.368 310.998ZM274.614 342.126C275.074 348.424 276.003 349.296 282.012 349.781C276.003 350.264 275.074 351.133 274.614 357.436C274.156 351.133 273.227 350.264 267.217 349.781C273.227 349.296 274.156 348.424 274.614 342.126ZM294.652 293.633C295.116 300.014 296.058 300.894 302.144 301.386C296.058 301.878 295.116 302.758 294.652 309.139C294.187 302.758 293.245 301.878 287.158 301.386C293.245 300.894 294.187 300.014 294.652 293.633Z" fill="#FF7300"/>
<path d="M490.441 354.436L491.186 372.716L501.587 374.503L504.661 368.917L503.99 351.143L490.441 354.436Z" fill="#F4B397"/>
<path d="M524.864 341.821L536.162 356.211L545.644 351.575L544.868 345.247L533.925 331.224L524.864 341.821Z" fill="#F4B397"/>
<path d="M534.916 222.181C534.916 222.181 516.66 213.603 507.263 215.856C497.866 218.108 493.859 198.65 493.859 198.65C493.859 198.65 520.718 180.056 542.468 212.481C558.198 235.931 536.115 220.672 536.115 220.672L534.916 222.181Z" fill="#FFC6AD"/>
<path d="M504.658 253.637L541.221 335.399L524.97 352.665C524.97 352.665 515.419 344.397 504.657 314.577C493.896 284.758 494.52 258.099 494.52 258.099L504.658 253.637Z" fill="#264B89"/>
<path d="M480.259 172.588C480.259 172.588 496.097 164.132 490.797 158.551C485.496 152.971 478.383 165.865 478.383 165.865L480.259 172.588Z" fill="#292466"/>
<path d="M467.924 161.326C467.924 161.326 477.577 156.751 482.565 163.959C487.408 170.958 481.351 177.769 481.351 177.769L469.915 168.151L467.924 161.326Z" fill="#292466"/>
<path d="M477.816 181.895L477.884 190.001C477.884 190.001 476.441 192.344 471.702 192.769C468.172 193.086 466.924 192.298 466.924 192.298L467.382 188.189L467.834 184.181L476.381 182.225L477.816 181.895Z" fill="#FFC6AD"/>
<path d="M476.381 182.221C476.362 182.443 476.281 182.704 476.152 183.005C474.373 187.069 469.421 187.985 467.383 188.184L467.835 184.176L476.381 182.221Z" fill="black"/>
<path d="M466.967 165.064C466.967 165.064 460.161 175.202 461.493 181.126C462.825 187.05 469.918 186.426 473.16 185.463C476.401 184.499 477.98 182.625 477.98 182.625C477.98 182.625 480.9 183.787 483.034 181.126C485.166 178.464 484.107 175.225 482.447 174.41C480.787 173.594 478.705 174.715 478.705 174.715L480.445 171.777C480.445 171.777 474.586 156.082 466.967 165.064Z" fill="#FFC6AD"/>
<path d="M419.034 192.842C419.034 192.842 438.408 198.865 447.081 194.607C455.754 190.349 463.93 208.454 463.93 208.454C463.93 208.454 442.006 232.269 413.472 205.618C391.736 185.316 406.815 184.304 419.034 192.842Z" fill="#FFC6AD"/>
<path d="M499.239 227.048C499.239 227.048 505.478 250.79 505.033 253.003C504.587 255.217 499.538 262.88 499.241 263.902C498.944 264.923 507.705 352.621 507.705 352.621L481.619 360.284C481.619 360.284 464.116 271.605 466.241 245.892C468.367 220.178 499.239 227.048 499.239 227.048Z" fill="#3A67B3"/>
<path d="M477.744 176.518C477.744 176.518 473.637 175.211 470.46 170.484C467.284 165.755 467.401 164.585 467.401 164.585L465.228 169.135C465.228 169.135 463.87 165.414 465.179 163.165C466.487 160.915 467.938 161.324 467.938 161.324L477.587 163.394L481.126 171.026L477.744 176.518Z" fill="#292466"/>
<path d="M438.762 193.98C438.762 193.98 453.251 194.235 457.499 193.029C461.748 191.822 472.542 190.357 480.499 189.841C488.456 189.324 500.519 189.927 505.982 190.961C511.445 191.995 513.797 192.77 513.797 192.77C513.797 192.77 513.342 202.593 512.128 209.054C510.914 215.516 510.687 216.722 510.687 216.722L498.775 215.688L503.003 236.214C503.003 236.214 497.03 240.675 483.6 244.552C470.171 248.428 462.932 245.413 462.932 245.413L458.638 221.374C458.638 221.374 448.547 221.202 443.464 219.909C438.381 218.616 437.621 218.444 437.621 218.444L438.762 193.98Z" fill="#80BFFE"/>
<path d="M533.504 219.545C533.504 219.545 533.99 226.16 535.008 228.493C536.024 230.827 537.871 233.576 539.289 233.175C540.707 232.774 538.455 226.565 538.455 226.565C538.455 226.565 542.563 229.164 545.629 231.822C548.695 234.479 549.725 236.64 551.286 236.598C552.847 236.555 552.575 233.591 552.575 233.591C552.575 233.591 553.822 235.252 555.081 234.665C556.341 234.078 555.396 230.884 555.396 230.884C555.396 230.884 557.585 231.596 557.772 229.358C557.958 227.12 552.475 220.262 547.565 216.911C542.654 213.561 537.938 214.11 537.938 214.11L533.504 219.545Z" fill="#FFC6AD"/>
<path d="M496.633 371.954C496.633 371.954 492.917 368.884 491.278 369.871C489.638 370.857 485.157 379.956 485.157 379.956C485.157 379.956 479.004 381.55 477.147 383.413C475.288 385.277 476.71 388.456 477.147 388.676C477.584 388.895 492.043 388.397 492.699 388.068C493.354 387.739 510.404 376.777 510.731 376.339C511.06 375.9 506.36 365.047 505.486 365.376C504.611 365.706 496.633 371.954 496.633 371.954Z" fill="#292466"/>
<path d="M532.644 350.969C532.644 350.969 531.087 362.716 530.219 363.003C529.352 363.291 525.639 366.849 524.625 368.87C523.611 370.891 525.196 373.975 525.677 374.216C526.158 374.458 540.007 368.758 540.623 368.344C541.239 367.93 554.216 350.47 553.879 350.18C553.543 349.891 545.231 342.995 544.516 343.255C543.801 343.515 537.938 352.903 537.938 352.903C537.938 352.903 535.776 349.288 532.644 350.969Z" fill="#292466"/>
<path d="M419.037 193.754C419.037 193.754 416.174 186.374 415.101 185.069C414.028 183.766 410.899 179.981 409.503 182.038C408.715 183.199 409.503 185.631 409.503 185.631C409.503 185.631 393.398 182.815 392.476 185.068C391.927 186.412 395.16 187.895 395.16 187.895C395.16 187.895 390.408 188.416 390.945 190.206C391.481 191.995 394.166 192.832 394.166 192.832C394.166 192.832 391.144 193.964 392.476 195.575C393.808 197.185 403.164 202.073 409.937 202.314C416.711 202.553 419.037 201.659 419.037 201.659V193.754Z" fill="#FFC6AD"/>
<path d="M144 160C144 160 149.515 153.882 152.732 152.001C155.95 150.12 165.603 151.636 166.006 153.789C166.407 155.942 158.163 156.352 158.163 156.352C158.163 156.352 155.24 170.079 148 168C144.593 161.625 144 160 144 160Z" fill="#FFCBC2"/>
<ellipse opacity="0.1" cx="91.5" cy="365" rx="65.5" ry="7" fill="#FF7300"/>
<ellipse opacity="0.1" cx="493.5" cy="386" rx="65.5" ry="7" fill="#FF7300"/>
</g>
<defs>
<filter id="filter0_d_15188_38922" x="102.135" y="27.5676" width="424.73" height="325.73" filterUnits="userSpaceOnUse" color-interpolation-filters="sRGB">
<feFlood flood-opacity="0" result="BackgroundImageFix"/>
<feColorMatrix in="SourceAlpha" type="matrix" values="0 0 0 0 0 0 0 0 0 0 0 0 0 0 0 0 0 0 127 0" result="hardAlpha"/>
<feOffset dy="14.4324"/>
<feGaussianBlur stdDeviation="14.4324"/>
<feComposite in2="hardAlpha" operator="out"/>
<feColorMatrix type="matrix" values="0 0 0 0 0.117647 0 0 0 0 0.129412 0 0 0 0 0.176471 0 0 0 0.06 0"/>
<feBlend mode="normal" in2="BackgroundImageFix" result="effect1_dropShadow_15188_38922"/>
<feBlend mode="normal" in="SourceGraphic" in2="effect1_dropShadow_15188_38922" result="shape"/>
</filter>
<filter id="filter1_d_15188_38922" x="441.375" y="3.48595" width="148.471" height="148.614" filterUnits="userSpaceOnUse" color-interpolation-filters="sRGB">
<feFlood flood-opacity="0" result="BackgroundImageFix"/>
<feColorMatrix in="SourceAlpha" type="matrix" values="0 0 0 0 0 0 0 0 0 0 0 0 0 0 0 0 0 0 127 0" result="hardAlpha"/>
<feOffset dy="15.994"/>
<feGaussianBlur stdDeviation="21.3253"/>
<feComposite in2="hardAlpha" operator="out"/>
<feColorMatrix type="matrix" values="0 0 0 0 0.117647 0 0 0 0 0.129412 0 0 0 0 0.176471 0 0 0 0.05 0"/>
<feBlend mode="normal" in2="BackgroundImageFix" result="effect1_dropShadow_15188_38922"/>
<feBlend mode="normal" in="SourceGraphic" in2="effect1_dropShadow_15188_38922" result="shape"/>
</filter>
<linearGradient id="paint0_linear_15188_38922" x1="264.016" y1="11.1411" x2="264.016" y2="415" gradientUnits="userSpaceOnUse">
<stop stop-color="#FF7300"/>
<stop offset="1" stop-color="#FF7300" stop-opacity="0"/>
</linearGradient>
<linearGradient id="paint1_linear_15188_38922" x1="154.194" y1="178.547" x2="89.1915" y2="178.547" gradientUnits="userSpaceOnUse">
<stop stop-color="#FF7300"/>
<stop offset="1" stop-color="#FAB882"/>
</linearGradient>
<linearGradient id="paint2_linear_15188_38922" x1="110.951" y1="191.53" x2="70" y2="191" gradientUnits="userSpaceOnUse">
<stop stop-color="#FAB882"/>
<stop offset="1" stop-color="#F07D1F"/>
</linearGradient>
<linearGradient id="paint3_linear_15188_38922" x1="81.2862" y1="192.695" x2="37.0891" y2="192.695" gradientUnits="userSpaceOnUse">
<stop stop-color="#FF7300"/>
<stop offset="1" stop-color="#FAB882"/>
</linearGradient>
<linearGradient id="paint4_linear_15188_38922" x1="547.195" y1="61.7906" x2="484.015" y2="61.7906" gradientUnits="userSpaceOnUse">
<stop offset="0.01" stop-color="#6B8AFF"/>
<stop offset="0.18" stop-color="#809DFD"/>
<stop offset="0.54" stop-color="#A9C1F8"/>
<stop offset="0.83" stop-color="#C3D8F5"/>
<stop offset="1" stop-color="#CCE0F4"/>
</linearGradient>
<linearGradient id="paint5_linear_15188_38922" x1="432.884" y1="252.098" x2="441.154" y2="272.437" gradientUnits="userSpaceOnUse">
<stop stop-color="#A2CEFA"/>
<stop offset="1" stop-color="#DCEDFF" stop-opacity="0"/>
</linearGradient>
<linearGradient id="paint6_linear_15188_38922" x1="447.525" y1="245.295" x2="452.411" y2="257.312" gradientUnits="userSpaceOnUse">
<stop stop-color="#A2CEFA"/>
<stop offset="1" stop-color="#DCEDFF" stop-opacity="0"/>
</linearGradient>
<clipPath id="clip0_15188_38922">
<rect width="575" height="405" fill="white"/>
</clipPath>
</defs>
</svg>
