<svg width="521" height="475" viewBox="0 0 521 475" fill="none" xmlns="http://www.w3.org/2000/svg">
<ellipse cx="243.01" cy="237.5" rx="243.01" ry="237.5" transform="matrix(-1 0 0 1 496.879 0)" fill="url(#paint0_linear_15188_40955)"/>
<path opacity="0.2" d="M482.495 56.263L483.94 55.2476C486.911 59.4766 492.74 60.5006 496.958 57.5366L497.976 58.985C493.756 61.9496 492.746 67.7804 495.718 72.0094L494.273 73.0248C491.301 68.7958 485.472 67.7708 481.253 70.7355L480.235 69.2871C484.454 66.3224 485.466 60.491 482.495 56.263Z" fill="url(#paint1_linear_15188_40955)"/>
<path d="M454.127 44.2018L454.488 43.9478C457.46 48.1768 463.289 49.2017 467.507 46.2377L467.761 46.6C463.542 49.5647 462.531 55.3961 465.503 59.6251L465.141 59.8791C462.17 55.6501 456.341 54.6252 452.121 57.5898L451.867 57.2275C456.087 54.2622 457.098 48.4308 454.127 44.2018Z" fill="url(#paint2_linear_15188_40955)"/>
<path opacity="0.2" d="M475.924 100.076C478.799 104.168 484.439 105.159 488.52 102.291C484.439 105.159 483.46 110.801 486.335 114.893C483.46 110.801 477.821 109.809 473.739 112.678C477.82 109.809 478.799 104.168 475.924 100.076Z" fill="url(#paint3_linear_15188_40955)"/>
<g filter="url(#filter0_d_15188_40955)">
<path fill-rule="evenodd" clip-rule="evenodd" d="M100.089 63.9199H459.448C465.487 63.9199 470.428 70.4837 470.428 78.5059V331.476C470.428 339.493 465.486 346.055 459.448 346.055H100.089C94.0476 346.055 89.1055 339.493 89.1055 331.476V78.5053C89.1055 70.4836 94.0472 63.9199 100.089 63.9199Z" fill="white"/>
</g>
<rect x="104.535" y="116.498" width="78.259" height="39.6752" rx="5.75411" fill="#F2F5F6"/>
<rect x="195.27" y="116.498" width="78.259" height="39.6752" rx="5.75411" fill="#F2F5F6"/>
<rect x="286.006" y="116.498" width="78.259" height="39.6752" rx="5.75411" fill="#F2F5F6"/>
<rect x="376.74" y="116.498" width="78.259" height="39.6752" rx="5.75411" fill="#F2F5F6"/>
<path d="M111.508 343.629C99.7903 333.836 84.7749 378.669 81.6649 397.958C78.5549 417.247 89.1829 399.824 102.924 372.205C112.631 352.69 117.026 348.241 111.508 343.629Z" fill="#EDAC98"/>
<path d="M78.2358 399.733L82.2773 391.256L94.1055 395.26L88.4876 404.801L78.2358 399.733Z" fill="#EDAC98"/>
<path d="M78.2385 399.738L77.1472 403.539L86.0101 411.091L94.082 411.899L90.4939 408.833C90.4939 408.833 88.2451 406.501 88.4917 404.806C88.737 403.111 78.2385 399.738 78.2385 399.738Z" fill="#EDAC98"/>
<path d="M77.7974 400.971C77.7974 400.971 82.8668 411.152 90.4909 408.831C90.4909 408.831 98.8523 413.754 97.7706 416.441C96.6876 419.126 90.9126 416.002 90.9126 416.002L74.4931 409.124C74.4931 409.124 74.6791 404.949 77.7974 400.971Z" fill="#292466"/>
<path d="M71.4577 363.528C96.2151 359.137 115.538 351.363 114.615 346.167C113.692 340.971 92.8736 340.32 68.1149 344.712C43.3575 349.105 34.7068 353.368 35.63 358.565C36.5532 363.761 46.7003 367.921 71.4577 363.528Z" fill="#EDAC98"/>
<path d="M43.9439 348.061C43.9439 348.061 76.4922 341.718 85.7685 340.091C95.0448 338.465 112.783 335.7 116.527 344.97C120.269 354.241 93.9052 402.872 93.9052 402.872L78.9325 395.553L91.4635 361.398C91.4635 361.398 46.3843 375.872 38.0836 366.602C29.7829 357.331 35.3167 347.084 35.3167 347.084L43.9439 348.061Z" fill="#264B89"/>
<path d="M77.8043 297.534C76.2321 299.45 76.1039 302.178 77.1346 304.417C81.7659 314.473 99.4806 355.108 107.079 352.12C116.009 348.607 97.4495 313.058 91.7683 305.327C87.0323 298.884 81.6046 292.905 77.8043 297.534Z" fill="#EDAC98"/>
<g filter="url(#filter1_d_15188_40955)">
<path d="M83.01 362.682H197.897C199.988 362.682 201.682 361.023 201.682 358.976V172.327C201.682 170.28 199.988 168.621 197.897 168.621H83.01C80.9199 168.621 79.2258 170.28 79.2258 172.327V358.976C79.2243 361.023 80.9199 362.682 83.01 362.682Z" fill="white"/>
</g>
<path opacity="0.8" d="M86.3582 355.266H191.486C193.399 355.266 194.949 353.717 194.949 351.805V177.525C194.949 175.614 193.399 174.064 191.486 174.064H86.3582C84.4456 174.064 82.8954 175.614 82.8954 177.525V351.804C82.8954 353.715 84.4456 355.266 86.3582 355.266Z" fill="#EBEFF2"/>
<path d="M159.052 279.279C164.688 275.878 169.366 271.099 172.647 265.392C175.927 259.684 177.701 253.236 177.801 246.654L165.738 246.469C165.669 251.004 164.446 255.447 162.186 259.38C159.926 263.313 156.703 266.605 152.819 268.949L159.052 279.279Z" fill="#219FFF"/>
<path d="M157.157 211.811C152.536 209.274 147.445 207.706 142.198 207.203C136.95 206.699 131.654 207.27 126.635 208.882L129.846 218.887C133.506 217.712 137.367 217.295 141.194 217.663C145.02 218.03 148.732 219.173 152.102 221.022L157.157 211.811Z" fill="#0061BF"/>
<path d="M177.751 243.997C177.425 237.879 175.655 231.926 172.586 226.624C169.517 221.323 165.237 216.823 160.094 213.493L150.059 228.994C152.754 230.738 154.997 233.096 156.605 235.875C158.214 238.653 159.141 241.773 159.312 244.979L177.751 243.997Z" fill="#FF7300"/>
<path d="M124.007 210.282C119.223 212.288 114.89 215.233 111.264 218.943C107.638 222.653 104.792 227.053 102.896 231.882C101.001 236.711 100.092 241.871 100.226 247.057C100.359 252.243 101.531 257.35 103.673 262.075C105.814 266.8 108.882 271.048 112.694 274.567C116.506 278.086 120.985 280.805 125.866 282.562C130.747 284.32 135.931 285.081 141.111 284.8C146.291 284.519 151.362 283.202 156.025 280.926L150.644 269.9C147.456 271.456 143.988 272.356 140.446 272.549C136.904 272.741 133.36 272.221 130.022 271.019C126.685 269.817 123.622 267.958 121.016 265.552C118.409 263.146 116.312 260.241 114.848 257.011C113.383 253.78 112.582 250.288 112.491 246.742C112.4 243.196 113.021 239.667 114.317 236.366C115.613 233.064 117.559 230.055 120.038 227.519C122.517 224.982 125.48 222.968 128.752 221.596L124.007 210.282Z" fill="#D8DEE6"/>
<path d="M124.162 210.217C117.938 212.795 112.493 216.949 108.362 222.271L118.031 229.775C120.858 226.133 124.585 223.289 128.846 221.524L124.162 210.217Z" fill="#17BD8D"/>
<path d="M101.062 224.894L102.636 222.445L118.773 233.464L117.593 235.096L101.062 224.894Z" fill="#070908" stroke="white" stroke-width="1.10209"/>
<path opacity="0.5" d="M137.081 187.677H182.648C184.394 187.677 185.809 186.516 185.809 185.083C185.809 183.649 184.394 182.488 182.648 182.488H137.081C135.335 182.488 133.921 183.649 133.921 185.083C133.921 186.516 135.335 187.677 137.081 187.677Z" fill="#A7C7DF"/>
<path d="M168.785 314.727H185.612C186.257 314.727 186.779 314.205 186.779 313.561C186.779 312.916 186.257 312.395 185.612 312.395H168.785C168.14 312.395 167.618 312.916 167.618 313.561C167.618 314.205 168.14 314.727 168.785 314.727Z" fill="#D8DEE6"/>
<path d="M92.2321 314.727H157.501C158.146 314.727 158.668 314.205 158.668 313.561C158.668 312.916 158.146 312.395 157.501 312.395H92.2321C91.5872 312.395 91.065 312.916 91.065 313.561C91.065 314.205 91.5872 314.727 92.2321 314.727Z" fill="#D8DEE6"/>
<path d="M168.785 325.956H185.612C186.257 325.956 186.779 325.434 186.779 324.789C186.779 324.145 186.257 323.623 185.612 323.623H168.785C168.14 323.623 167.618 324.145 167.618 324.789C167.618 325.433 168.14 325.956 168.785 325.956Z" fill="#D8DEE6"/>
<path d="M92.2321 325.956H157.501C158.146 325.956 158.668 325.434 158.668 324.789C158.668 324.145 158.146 323.623 157.501 323.623H92.2321C91.5872 323.623 91.065 324.145 91.065 324.789C91.065 325.433 91.5872 325.956 92.2321 325.956Z" fill="#D8DEE6"/>
<path d="M168.785 337.186H185.612C186.257 337.186 186.779 336.664 186.779 336.02C186.779 335.375 186.257 334.854 185.612 334.854H168.785C168.14 334.854 167.618 335.375 167.618 336.02C167.618 336.664 168.14 337.186 168.785 337.186Z" fill="#D8DEE6"/>
<path d="M92.2321 337.186H157.501C158.146 337.186 158.668 336.664 158.668 336.02C158.668 335.375 158.146 334.854 157.501 334.854H92.2321C91.5872 334.854 91.065 335.375 91.065 336.02C91.065 336.664 91.5872 337.186 92.2321 337.186Z" fill="#D8DEE6"/>
<path d="M64.2373 299.717C66.3868 298.484 67.4754 295.979 67.3073 293.52C66.5481 282.477 64.4191 238.202 56.2549 238.301C46.6575 238.418 51.3838 278.235 53.9496 287.477C56.0895 295.181 59.0411 302.697 64.2373 299.717Z" fill="#EDAC98"/>
<path d="M53.0966 250.387C51.8909 248.327 52.0838 245.733 53.2303 243.638C58.5891 233.843 77.9601 199.076 82.7691 199.52C88.3663 200.036 62.6168 251.722 59.6515 252.062C57.4275 252.316 54.7446 253.203 53.0966 250.387Z" fill="#EDAC98"/>
<path d="M70.6514 212.724L77.5989 203.623L84.2695 204.354L78.3058 218.295L70.6514 212.724Z" fill="#FFCBC2"/>
<path d="M83.4864 204.374L84.2594 204.348L84.2704 204.354L84.2773 204.343L86.2133 201.939C86.7052 201.318 87.0442 200.597 87.1875 199.822L86.9849 196.333C86.9849 196.333 86.1885 195.608 85.7972 197.558C85.6952 198.066 85.1275 198.67 84.6383 199.138L84.7664 197.175L84.7182 192.345C84.7154 191.109 83.7178 189.59 82.2503 189.533C82.2503 189.533 80.1876 189.623 79.2919 191.778L77.7872 194.668C77.2705 196.3 76.5663 197.468 76.7262 199.173L77.5571 203.774L83.4864 204.374Z" fill="#FFCBC2"/>
<path d="M71.4148 291.794L64.3708 248.695L79.5488 217.417L70.3373 211.742C70.3373 211.742 52.2257 234.062 50.1354 242.418C48.045 250.775 54.2513 299.711 54.2513 299.711L70.0948 300.591L71.4148 291.794Z" fill="url(#paint4_linear_15188_40955)"/>
<path d="M100.948 349.006C101.926 351.183 104.152 352.533 106.523 352.817C117.614 354.145 157.184 358.571 159.615 354.4C162.444 349.546 105.388 340.485 103.39 342.7C101.89 344.363 99.6099 346.032 100.948 349.006Z" fill="#FFCBC2"/>
<path d="M124.559 356.211L151.279 356.955L152.869 350.402L125.618 344.525L124.559 356.211Z" fill="#FFCBC2"/>
<path d="M152.586 351.14L152.856 350.415L152.853 350.404L152.865 350.402L155.759 349.329C156.505 349.059 157.296 348.967 158.078 349.077L161.325 350.375C161.325 350.375 161.76 351.36 159.785 351.113C159.27 351.049 158.516 351.396 157.918 351.711L159.823 352.212L164.391 353.789C165.563 354.183 166.688 355.61 166.277 357.02C166.277 357.02 165.538 358.946 163.208 359.113L159.988 359.624C158.275 359.596 156.946 359.894 155.377 359.203L151.274 356.957L152.586 351.14Z" fill="#FFCBC2"/>
<path d="M90.6713 299.164C90.6713 299.164 99.9131 317.636 102.994 324.784C106.075 331.931 110.256 340.618 110.585 340.728C110.916 340.838 135.34 345.786 135.34 345.786L134.68 357.442C134.68 357.442 103.323 357.111 98.8121 351.503C94.3007 345.896 76.9181 313.789 76.9181 313.789L90.6713 299.164Z" fill="url(#paint5_linear_15188_40955)"/>
<path d="M98.6938 403.431C108.87 388.251 33.5738 389.328 14.3985 393.133C-4.77692 396.938 15.2913 400.601 45.9587 404.08C76.6247 407.56 94.6895 409.403 98.6938 403.431Z" fill="#EDAC98"/>
<path d="M11.0442 391.445L20.9846 391.469L21.4531 404.225L10.4613 402.861L11.0442 391.445Z" fill="#FFCBC2"/>
<path d="M11.0453 391.445L7.12224 391.953L3.70498 403.08L6.16734 410.806L7.55907 406.297C7.55907 406.297 8.8061 403.309 10.4624 402.861C12.1173 402.414 11.0453 391.445 11.0453 391.445Z" fill="#FFCBC2"/>
<path d="M9.73633 391.53C9.73633 391.53 2.39882 400.222 7.55782 406.294C7.55782 406.294 6.35626 415.918 3.45984 415.991C0.563411 416.064 1.14075 409.527 1.14075 409.527L0.938187 391.735C0.938187 391.735 4.84327 390.249 9.73633 391.53Z" fill="#292466"/>
<path d="M99.3751 403.519C95.6813 407.29 78.1206 396.098 60.1522 378.52C42.1839 360.942 30.612 343.635 34.3059 339.864C37.9997 336.092 55.5604 347.285 73.5288 364.863C91.4971 382.441 103.069 399.748 99.3751 403.519Z" fill="#EDAC98"/>
<path d="M62.496 349.197C62.496 349.197 81.699 368.552 89.0227 378.635C96.3464 388.72 106.328 400.863 100.414 409.862C94.8211 418.374 20.3642 406.315 20.3642 406.315V389.079L64.7737 388.231C64.7737 388.231 5.53622 358.467 26.3486 329.439L51.4284 328.053L62.496 349.197Z" fill="#3A67B3"/>
<path d="M86.7911 296.634L87.4167 289.554C87.4167 289.554 93.9895 289.671 95.8579 284.277C97.7264 278.883 99.0975 265.476 96.1087 260.485C93.12 255.496 72.0458 254.745 69.4222 268.69C66.7972 282.634 68.0098 299.329 68.0098 299.329L86.7911 296.634Z" fill="#FFCBC2"/>
<path d="M26.3479 329.446C42.2562 333.172 62.5009 349.206 62.5009 349.206C62.5009 349.206 70.6996 338.482 78.1901 328.569C79.59 326.73 80.9404 324.926 82.2219 323.224C86.4894 317.542 89.8639 312.973 90.269 312.181C93.204 306.432 91.72 301.509 89.6614 297.328C87.4002 292.708 83.0983 289.235 78.9493 286.199C70.2269 279.826 61.6906 280.029 57.1861 283.823C50.5238 289.421 26.3479 329.446 26.3479 329.446Z" fill="url(#paint6_linear_15188_40955)"/>
<path d="M78.1908 328.566C79.5908 326.728 80.9412 324.924 82.2227 323.222L79.1182 317.523L78.1908 328.566Z" fill="#C2D2DC"/>
<path d="M77.6994 310.904C80.994 308.837 83.8532 306.115 85.8609 303.088C89.0921 298.217 91.5559 289.574 87.4937 284.368C86.2522 282.777 85.5481 281.301 85.2987 279.936C85.0492 278.57 85.2518 277.314 85.8182 276.16C86.9494 273.851 91.611 275.653 93.8198 272.698C96.0287 269.743 97.9688 268.246 98.1397 264.74C98.3105 261.234 96.9188 254.439 83.8959 254.91C70.8744 255.381 65.5088 262.227 63.0726 270.908C62.159 274.163 59.8854 277.454 57.4588 280.79C54.9689 284.212 52.4363 287.696 50.7111 291.581C48.9887 295.457 48.2473 299.746 49.38 303.892C49.7644 305.295 50.3445 306.679 51.1506 308.032C56.712 317.349 69.7996 315.862 77.6994 310.904Z" fill="#292466"/>
<path d="M232.621 164.211H447.691C450.869 164.211 453.445 166.787 453.445 169.965V305.69C453.445 308.868 450.869 311.444 447.691 311.444H232.621C229.443 311.444 226.867 308.868 226.867 305.69V169.965C226.867 166.787 229.443 164.211 232.621 164.211Z" fill="#F2F5F6"/>
<path d="M266.841 191.201C266.841 192.044 267.526 192.739 268.379 192.739C269.221 192.739 269.916 192.054 269.916 191.201C269.916 190.349 269.232 189.664 268.379 189.664C267.526 189.675 266.841 190.359 266.841 191.201Z" fill="#FF9F9E"/>
<path opacity="0.1" d="M431.743 287.659C427.381 287.659 423.845 284.123 423.845 279.761C423.845 275.399 427.381 271.863 431.743 271.863C436.105 271.863 439.641 275.399 439.641 279.761C439.641 284.123 436.105 287.659 431.743 287.659Z" fill="#292466"/>
<path opacity="0.1" d="M253.782 223.422C249.42 223.422 245.884 219.886 245.884 215.525C245.884 211.163 249.42 207.627 253.782 207.627C258.144 207.627 261.68 211.163 261.68 215.525C261.68 219.886 258.144 223.422 253.782 223.422Z" fill="#292466"/>
<path opacity="0.1" d="M422.265 297.135C419.648 297.135 417.527 295.014 417.527 292.397C417.527 289.78 419.648 287.658 422.265 287.658C424.882 287.658 427.004 289.78 427.004 292.397C427.004 295.014 424.882 297.135 422.265 297.135Z" fill="#292466"/>
<path opacity="0.1" d="M244.304 232.899C241.687 232.899 239.566 230.778 239.566 228.161C239.566 225.543 241.687 223.422 244.304 223.422C246.921 223.422 249.043 225.543 249.043 228.161C249.043 230.778 246.921 232.899 244.304 232.899Z" fill="#292466"/>
<path d="M248.894 290.588C251.01 290.588 252.727 288.871 252.727 286.755C252.727 284.638 251.01 282.922 248.894 282.922C246.777 282.922 245.061 284.638 245.061 286.755C245.061 288.871 246.777 290.588 248.894 290.588ZM248.894 284.143C250.336 284.143 251.505 285.312 251.505 286.755C251.505 288.198 250.336 289.366 248.894 289.366C247.451 289.366 246.282 288.198 246.282 286.755C246.293 285.312 247.461 284.143 248.894 284.143Z" fill="#FF9F9E"/>
<path d="M369.283 283.828C369.283 283.828 377.835 297.986 380.342 310.229H322.672C322.672 310.229 327.1 288.993 332.112 283.972L369.283 283.828Z" fill="#121B46"/>
<path d="M302.937 225.654L310.054 225.867C310.054 225.867 312.355 236.333 315.507 250.301C316.548 248.645 317.527 247.08 318.424 245.622C321.598 251.842 325.487 257.638 329.68 263.22C327.302 267.253 324.576 271.651 321.477 276.238C321.431 276.299 321.393 276.367 321.348 276.428C315.849 284.54 303.165 281.562 301.874 271.848C301.859 271.734 301.843 271.628 301.828 271.514C299.899 256.946 299.572 240.989 302.937 225.654Z" fill="#FBC4BB"/>
<path d="M307.147 215.115C307.306 213.262 307.549 211.325 307.853 211.386C308.354 211.492 308.651 212.784 308.863 214.424C308.278 214.607 307.701 214.842 307.147 215.115Z" fill="#F28766"/>
<path d="M304.136 217.396C304.167 215.406 304.311 211.51 304.972 211.153C305.488 210.872 306.058 213.363 306.445 215.497C305.541 216.029 304.736 216.674 304.136 217.396Z" fill="#F28766"/>
<path d="M299.178 214.759C299.649 215.101 300.446 216.058 301.472 218.762C301.472 218.762 300.78 212.678 301.464 211.812C302.011 211.129 303.363 215.762 303.902 217.714C303.56 218.177 303.294 218.671 303.15 219.18C302.937 219.962 302.884 220.668 302.96 221.299C302.117 223.585 303.522 226.266 305.96 227.101C306.91 227.428 307.882 227.474 308.846 227.344C309.598 227.603 310.403 227.679 311.125 227.557C310.578 228.522 309.917 229.502 309.12 230.474L304.168 229.532C304.168 229.532 298.745 219.294 298.677 215.01C298.677 214.736 298.95 214.6 299.178 214.759Z" fill="#FBC4BB"/>
<path d="M316.552 261.336C316.612 259.483 316.529 257.637 316.4 255.799C316.339 254.88 316.248 253.961 316.157 253.05C316.058 252.138 315.952 251.219 315.823 250.308L315.109 250.543C316.005 251.91 316.916 253.262 317.949 254.546C317.304 253.027 316.552 251.584 315.769 250.148L314.949 248.637L315.055 250.384C315.109 251.303 315.192 252.222 315.276 253.133C315.374 254.052 315.466 254.963 315.587 255.875C315.838 257.705 316.126 259.528 316.552 261.336Z" fill="#EDB1A8"/>
<path d="M314.043 212.193L305.506 228.181C305.141 228.872 304.344 229.206 303.592 228.994C302.02 228.553 299.521 227.558 298.906 225.545C297.987 222.545 305.696 207.613 305.696 207.613L314.043 212.193Z" fill="#0061BF"/>
<path d="M323.219 191.441L326.105 192.307C326.979 192.565 327.518 193.431 327.381 194.328C326.986 196.94 325.832 202.652 322.551 210.239C322.186 211.09 321.237 211.531 320.356 211.265L317.796 210.498L323.219 191.441Z" fill="#004689"/>
<path d="M309.01 183.719L322.605 187.782C324.603 188.382 324.527 194.542 322.431 201.537C320.334 208.54 317.023 213.727 315.018 213.127L301.422 209.064L309.01 183.719Z" fill="#0061BF"/>
<path d="M301.597 195.31C299.501 202.313 299.425 208.465 301.422 209.065C303.42 209.665 306.739 204.47 308.835 197.475C310.931 190.472 311.007 184.32 309.01 183.72C307.012 183.127 303.693 188.315 301.597 195.31Z" fill="#004689"/>
<path opacity="0.2" d="M283.367 167.359L308.545 186.788L308.461 188.52C308.135 195.097 306.023 201.652 302.461 207.135L271.078 207.325L283.367 167.359Z" fill="#0061BF"/>
<path d="M267.275 184.363L267.275 184.363C265.622 189.884 265.155 195.163 265.715 199.225C266.283 203.34 267.862 205.982 270.073 206.645C271.782 207.155 273.822 206.479 275.952 204.668C278.069 202.868 280.175 200.021 281.953 196.446L281.953 196.446C282.987 194.372 283.902 192.055 284.653 189.561C285.321 187.316 285.801 185.103 286.093 183.005C286.664 178.881 286.515 175.182 285.746 172.388C284.972 169.574 283.611 167.806 281.856 167.279C279.641 166.619 276.87 167.96 274.135 171.087C271.435 174.174 268.925 178.842 267.275 184.363Z" fill="#D4E1ED" stroke="#0061BF" stroke-width="1.10209"/>
<path d="M277.025 182.326L274.298 191.44L282.44 196.704C283.488 194.6 284.415 192.253 285.175 189.731C285.851 187.461 286.337 185.22 286.633 183.093L277.025 182.326Z" fill="#0061BF"/>
<path d="M273.583 186.26C272.831 188.774 273.15 191.098 274.297 191.44C275.444 191.781 276.985 190.019 277.737 187.505C278.489 184.991 278.17 182.667 277.023 182.325C275.877 181.976 274.335 183.738 273.583 186.26Z" fill="#00498E"/>
<path d="M310.433 229.144C310.433 229.144 313.38 222.658 313.091 221.177C312.795 219.703 309.438 216.088 307.858 216.68C306.271 217.273 308.709 221.845 308.709 221.845C308.709 221.845 304.767 226.637 305.208 229.076C305.641 231.506 310.433 229.144 310.433 229.144Z" fill="#FBC4BB"/>
<path d="M339.223 223.918C339.223 223.918 326.356 230.731 324.146 233.382C321.936 236.04 316.035 248.572 316.035 248.572L328.87 265.828C328.87 265.828 342.572 245.405 339.223 223.918Z" fill="#5BA7F4"/>
<path d="M336.672 228.391C337.219 227.479 337.394 226.583 337.303 225.755C338.032 225.231 338.677 224.646 339.262 223.94C339.49 223.12 340.014 221.115 340.409 218.859C340.758 216.838 341.009 214.621 340.834 212.874V212.866C340.751 212.008 340.568 211.264 340.242 210.717L359.792 199.727C359.777 199.795 359.769 199.848 359.754 199.916C359.442 201.732 357.088 215.973 359.503 223.53C360.977 224.206 362.784 224.684 365.025 224.768C367.44 224.851 369.81 225.71 371.564 227.365C373.463 229.15 375.149 232.158 375.18 237.171C373.387 237.391 371.602 237.748 369.817 238.067C364.486 239.024 359.161 240.049 353.814 240.93C346.926 242.07 339.855 242.32 332.882 243.095C333.194 237.9 334.211 232.515 336.672 228.391Z" fill="#FBC4BB"/>
<path d="M340.411 218.857C351.037 220.201 356.422 207.51 356.619 207.031C354.66 210.145 351.811 211.725 349.032 212.469C345.614 213.404 342.295 213.092 340.897 212.887C340.874 212.88 340.852 212.88 340.829 212.872C341.011 214.619 340.768 216.837 340.411 218.857Z" fill="#EDB2A8"/>
<path d="M359.988 223.354C359.988 223.354 347.448 237.215 343.765 235.005C340.081 232.794 339.147 224.333 339.147 224.333C339.147 224.333 326.508 235.293 324.739 238.832C322.969 242.372 323.113 249.306 327.541 260.22C331.969 271.135 330.306 285.885 330.306 285.885H370.758C370.758 285.885 367.363 278.806 368.396 270.542C369.429 262.286 379.166 235.878 379.166 235.878C379.166 235.878 381.08 223.794 359.988 223.354Z" fill="#80BFFE"/>
<path d="M383.362 260.747C384.189 259.972 385.025 259.213 385.845 258.438C389.65 254.83 393.577 251.397 397.344 247.805C398.392 248.944 399.456 250.121 400.534 251.336C402.965 254.078 405.441 257.01 407.917 260.109C411.069 264.066 411.198 269.633 408.228 273.735C406.261 276.446 404.195 279.142 402.008 281.785C395.651 289.487 388.367 296.756 380.08 302.779L374.916 297.895C374.916 297.895 382.162 284.96 390.85 269.124C388.283 266.246 385.769 263.436 383.362 260.747Z" fill="#FBC4BB"/>
<path d="M380.422 301.321C380.422 301.321 377.68 312.577 374.885 315.82C374.703 316.025 374.406 315.95 374.346 315.684C374.217 315.114 374.262 313.868 375.288 311.172C375.288 311.172 371.763 316.185 370.677 316.375C369.591 316.565 373.161 309.562 373.161 309.562C373.161 309.562 368.604 314.772 367.616 314.537C366.629 314.309 370.981 307.815 370.981 307.815C370.981 307.815 365.976 312.911 365.626 312.441C364.761 311.271 371.596 303.926 370.746 303.288C369.994 302.726 367.738 303.744 366.675 304.466C366.454 304.618 366.166 304.549 366.044 304.306C365.809 303.828 365.664 302.992 366.728 302.164C368.368 300.881 371.953 298.169 377.338 297.326L380.422 301.321Z" fill="#FBC4BB"/>
<path d="M394.217 265.693C393.404 266.012 392.781 266.521 392.212 267.076C391.657 267.653 391.148 268.268 390.829 269.081C391.642 268.762 392.265 268.253 392.842 267.698C393.389 267.129 393.898 266.506 394.217 265.693Z" fill="#EDB1A8"/>
<path d="M400.852 250.793L386.102 264.366L367.516 245.188C367.516 245.188 366.309 225.289 370.296 224.932C376.213 224.392 395.246 242.682 400.852 250.793Z" fill="#5BA7F4"/>
<path d="M330.408 195.048C330.628 189.283 331.327 183.359 333.309 178.255C335.861 171.693 347.9 169.141 356.285 176.432C360.181 179.819 361.001 185.964 360.773 191.569C360.978 191.47 361.161 191.394 361.275 191.364C362.984 190.939 364.7 192.222 365.209 193.832C365.619 195.108 365.338 196.559 364.609 197.683C364.001 198.617 363.014 199.491 361.966 199.893C361.7 199.992 360.523 200.19 359.687 200.121C358.882 203.813 357.006 207.215 354.097 209.63C350.429 212.676 345.735 213.899 341.064 212.927C337.433 212.175 332.064 209.851 330.727 206.076C330.378 205.089 330.347 204.033 330.332 202.992C330.324 202.749 330.324 202.514 330.324 202.271C330.309 199.947 330.309 197.509 330.408 195.048Z" fill="#FBC4BB"/>
<path d="M343.255 183.779C343.756 183.331 344.326 183.187 344.926 183.164C345.518 183.149 346.126 183.217 346.703 183.415C347.288 183.589 347.82 183.916 348.268 184.311C348.731 184.691 349.065 185.192 349.339 185.678C349.475 185.929 349.384 186.24 349.141 186.377C348.944 186.491 348.701 186.453 348.541 186.309L348.496 186.271C348.146 185.952 347.812 185.648 347.432 185.428C347.068 185.184 346.665 185.048 346.255 184.941C345.845 184.85 345.419 184.797 344.979 184.82C344.546 184.835 344.09 184.858 343.619 184.744L343.483 184.714C343.194 184.645 343.019 184.349 343.088 184.06C343.118 183.946 343.179 183.848 343.255 183.779Z" fill="#121B46"/>
<path d="M332.21 180.171C332.688 178.097 333.547 176.176 335.012 174.581C338.134 171.163 343.124 170.236 347.749 170.13C350.864 170.054 354.069 170.282 356.871 171.642C361.299 173.776 363.958 178.295 367.208 181.979C372.062 187.485 378.662 191.412 385.809 193.06C391.657 194.404 397.741 194.237 403.726 194.776C409.711 195.308 415.893 196.69 420.488 200.564C424.066 203.572 426.511 207.969 430.681 210.088C432.99 211.273 435.626 211.63 438.216 211.972L442.446 212.519C448.667 213.339 452.191 220.296 448.917 225.658C448.902 225.696 448.872 225.727 448.856 225.772C446.707 229.221 443.244 231.902 441.937 235.76C440.745 239.292 441.565 243.158 441.284 246.872C440.821 252.712 437.502 258.128 432.914 261.766C428.319 265.404 422.554 267.356 416.729 267.994C414.595 268.229 412.445 268.298 410.296 268.191C410.577 265.358 409.772 262.442 407.903 260.095C405.427 256.996 402.951 254.072 400.521 251.315C400.483 251.269 400.445 251.224 400.399 251.186L400.84 250.776C395.234 242.672 376.209 224.375 370.292 224.914C368.864 224.588 367.527 224.595 366.32 224.869C365.894 224.8 365.461 224.762 365.029 224.747C362.788 224.671 360.973 224.2 359.507 223.524C357.16 216.195 359.302 202.592 359.727 200.108C360.563 200.177 361.709 199.987 361.975 199.888C363.023 199.493 364.011 198.612 364.611 197.678C365.347 196.554 365.621 195.111 365.211 193.827C364.74 192.346 363.236 191.154 361.664 191.305C360.927 192.566 360.031 193.728 358.998 194.754C358.679 195.073 358.292 195.399 357.836 195.369C357.251 195.339 356.871 194.754 356.598 194.23C356.241 193.561 355.633 192.878 355.276 192.209C351.076 192.452 346.808 190.584 344.134 187.333C343.314 186.338 342.646 185.229 341.977 184.128C341.081 182.655 340.192 181.181 339.296 179.708C337.314 181.918 334.177 185.92 331.23 186.27C331.23 186.293 331.131 183.391 332.21 180.171Z" fill="#292466"/>
<path opacity="0.3" d="M462.344 63.9199H101.779C93.5138 63.9199 89.6565 70.5325 89.1055 76.0429V100.289H470.428V72.0969C470.428 67.5809 466.809 63.9199 462.344 63.9199Z" fill="#0061BF"/>
<circle cx="108.392" cy="83.2089" r="3.85731" fill="white"/>
<circle cx="121.617" cy="83.2089" r="3.85731" fill="white"/>
<circle cx="134.842" cy="83.2089" r="3.85731" fill="white"/>
<path opacity="0.1" d="M454.668 423.055C481.266 423.055 502.828 419.87 502.828 415.94C502.828 412.01 481.266 408.824 454.668 408.824C428.07 408.824 406.508 412.01 406.508 415.94C406.508 419.87 428.07 423.055 454.668 423.055Z" fill="#0061BF"/>
<path d="M460.467 359.08C459.78 361.995 459.051 364.862 458.909 367.854C458.992 368.002 458.974 368.546 458.909 368.398C458.909 368.883 458.157 368.794 458.157 368.315C458.157 368.008 458.157 367.694 458.157 367.399C456.439 365.265 453.946 363.917 451.932 362.078C450.312 360.623 449.13 358.745 448.521 356.656C446.851 350.904 448.415 344.832 446.407 339.067C444.672 334.125 441.563 329.82 438.933 325.339C436.155 320.609 434.106 315.619 433.899 310.067C433.739 305.817 434.243 300.153 437.488 296.972C440.923 293.59 445.187 296.12 447.822 299.136C455.45 307.88 458.98 318.93 460.407 330.228C461.195 336.484 462.012 342.774 461.823 349.083C461.704 352.452 461.249 355.801 460.467 359.08Z" fill="#B7DBFF"/>
<path opacity="0.4" d="M458.93 370.153C459.347 364.245 459.278 358.313 458.722 352.417C458.723 352.397 458.723 352.377 458.722 352.357C458.817 347.568 459.196 342.797 459.007 338.002C458.774 332.825 458.069 327.68 456.898 322.63C456.898 322.571 456.792 322.589 456.803 322.63C457.738 327.599 458.297 332.631 458.474 337.683C458.568 340.391 458.547 343.097 458.408 345.801C458.361 346.682 458.278 347.574 458.219 348.455C456.227 335.011 451.359 322.152 443.946 310.753C443.851 310.599 443.573 310.753 443.668 310.924C448.962 319.588 452.881 329.017 455.287 338.877C451.616 332.09 446.072 326.509 441.962 319.988C441.962 319.952 441.879 319.988 441.897 320.023C445.593 327.289 451.698 333.03 455.589 340.166C456.259 343.081 456.815 346.025 457.224 348.987C457.774 353.048 458.071 357.14 458.112 361.238C455.874 357.069 453.552 353.079 451.728 348.668C451.723 348.656 451.716 348.646 451.707 348.637C451.697 348.628 451.687 348.621 451.675 348.617C451.663 348.612 451.65 348.61 451.638 348.61C451.625 348.61 451.612 348.613 451.601 348.618C451.589 348.623 451.578 348.63 451.57 348.639C451.561 348.648 451.554 348.659 451.549 348.671C451.545 348.683 451.542 348.695 451.542 348.708C451.543 348.721 451.545 348.733 451.55 348.745C453.102 353.327 455.193 358.264 458.124 362.172C458.124 365.073 458.043 367.974 457.881 370.875C457.425 378.608 456.105 386.247 455.512 393.933C455.507 393.98 455.52 394.027 455.55 394.064C455.579 394.101 455.622 394.125 455.669 394.131C455.716 394.136 455.764 394.123 455.801 394.093C455.838 394.064 455.862 394.021 455.868 393.974C457.429 386.112 458.452 378.154 458.93 370.153Z" fill="#3588D8"/>
<path opacity="0.4" d="M450.722 310.505C450.722 310.452 450.615 310.505 450.633 310.546C452.048 314.454 452.848 318.409 453.872 322.412C453.882 322.447 453.905 322.477 453.935 322.496C453.966 322.515 454.003 322.523 454.038 322.517C454.074 322.511 454.107 322.493 454.129 322.464C454.152 322.436 454.164 322.401 454.163 322.365C453.748 318.303 452.297 314.253 450.722 310.505Z" fill="#3588D8"/>
<path d="M486.651 326.889C485.707 329.179 484.621 331.408 483.4 333.564C480.847 338.181 478.194 342.432 477.709 347.795C477.495 350.195 477.418 352.607 476.684 354.889C476.019 356.88 475.061 358.761 473.841 360.471C471.082 364.485 467.629 367.95 465.07 372.118C462.406 376.463 460.438 381.196 459.237 386.148C459.178 386.42 458.751 386.343 458.811 386.077C458.813 386.055 458.813 386.033 458.811 386.012C458.807 386.003 458.805 385.994 458.805 385.985C458.805 385.976 458.807 385.967 458.811 385.959C458.402 374.424 459.326 362.8 462.85 351.75C464.405 346.895 466.272 342.146 468.44 337.531C470.329 333.528 472.681 329.674 475.997 326.682C478.147 324.749 482.808 321.083 485.87 323.022C487.356 323.968 487.232 325.44 486.651 326.889Z" fill="#B7DBFF"/>
<path opacity="0.4" d="M475.046 353.028C473.007 356.375 470.764 359.593 468.33 362.666C467.211 364.12 466.08 365.568 464.96 367.029C464.433 367.715 463.841 368.4 463.355 369.145C463.663 367.933 463.947 366.715 464.267 365.503C465.76 359.68 467.193 353.797 469.414 348.198C471.581 342.717 474.471 337.556 477.433 332.495C477.515 332.365 477.296 332.265 477.219 332.395C474.779 336.403 472.298 340.406 470.249 344.633C469.114 346.99 468.125 349.415 467.288 351.893C468.231 346.635 469.547 341.451 471.226 336.38C471.226 336.332 471.179 336.303 471.161 336.35C468.953 341.479 467.572 346.925 467.069 352.485C466.567 353.982 466.103 355.494 465.677 357.019C463.859 363.47 462.26 369.991 460.779 376.53C460.753 372.228 461.126 367.933 461.892 363.7C461.892 363.606 461.762 363.582 461.738 363.7C460.612 368.113 460.236 372.684 460.625 377.222C460.064 379.713 459.518 382.202 458.985 384.689C457.853 390.01 456.456 395.42 455.792 400.817C455.79 400.831 455.791 400.846 455.794 400.86C455.797 400.873 455.803 400.886 455.811 400.898C455.819 400.909 455.83 400.919 455.842 400.927C455.854 400.934 455.867 400.939 455.881 400.942C455.895 400.944 455.91 400.943 455.923 400.94C455.937 400.937 455.95 400.931 455.962 400.923C455.973 400.915 455.983 400.904 455.991 400.892C455.998 400.88 456.003 400.867 456.006 400.853C456.799 397.944 457.279 394.941 457.925 391.984C458.57 389.028 459.245 386.072 459.932 383.116C460.939 378.824 461.981 374.541 463.059 370.269C463.776 368.702 465.156 367.313 466.192 366C467.329 364.557 468.466 363.115 469.574 361.649C471.651 358.936 473.511 356.064 475.135 353.058C475.182 353.011 475.081 352.969 475.046 353.028Z" fill="#3588D8"/>
<path opacity="0.4" d="M475.509 348.095C472.987 351.337 470.804 354.827 468.994 358.512C468.994 358.56 469.042 358.613 469.071 358.566C471.28 355.107 473.454 351.619 475.663 348.16C475.669 348.101 475.574 348.042 475.509 348.095Z" fill="#3588D8"/>
<path d="M426.356 337.811C427.855 340.389 429.56 343.475 428.921 346.567C428.512 348.524 427.079 350.114 426.818 352.107C426.226 356.511 430.632 359.426 433.819 361.507C441.748 366.704 452.628 371.333 454.073 381.946C454.126 382.324 454.778 382.23 454.73 381.857C454.735 381.836 454.735 381.814 454.73 381.792C454.73 381.792 454.772 381.757 454.772 381.727C455.809 376.37 455.759 370.859 454.624 365.522C453.439 360.053 451.07 355.14 448.227 350.333C443.454 342.204 438.396 333.873 431.177 327.648C429.181 325.927 425.089 322.823 423.478 326.714C421.932 330.497 424.52 334.671 426.356 337.811Z" fill="#B7DBFF"/>
<path opacity="0.4" d="M433.617 355.056C438.876 360.737 447.239 363.924 451.763 370.292C449.081 360.536 444.657 351.757 437.816 344.136C437.786 344.096 437.772 344.047 437.775 343.997C437.779 343.947 437.8 343.901 437.836 343.865C437.871 343.83 437.918 343.809 437.967 343.805C438.017 343.802 438.067 343.816 438.107 343.846C442.95 348.543 446.823 354.143 449.507 360.33C448.257 356.011 446.614 351.815 444.597 347.795C444.586 347.766 444.586 347.733 444.597 347.703C444.607 347.673 444.628 347.647 444.656 347.631C444.683 347.615 444.716 347.609 444.747 347.614C444.779 347.619 444.807 347.635 444.828 347.66C447.329 352.054 449.114 356.818 450.117 361.772C456.087 376.186 456.631 393.107 455.388 408.29C455.388 408.509 455.038 408.515 455.044 408.29C455.388 396.318 455.192 384.132 452.32 372.438C452.261 372.19 452.19 371.953 452.131 371.711C447.203 364.852 438.876 361.66 433.523 355.156C433.463 355.085 433.558 354.991 433.617 355.056Z" fill="#3588D8"/>
<path opacity="0.4" d="M432.395 350.17C435.154 352.701 437.873 355.284 440.638 357.815C440.638 357.815 440.638 357.886 440.597 357.868C437.47 355.758 434.654 353.223 432.229 350.336C432.212 350.313 432.203 350.285 432.205 350.256C432.207 350.228 432.22 350.201 432.24 350.181C432.26 350.161 432.287 350.149 432.315 350.147C432.344 350.145 432.372 350.153 432.395 350.17Z" fill="#3588D8"/>
<path opacity="0.4" d="M431.959 339.214C434.412 343.212 437.185 347.006 440.25 350.56C440.254 350.564 440.258 350.57 440.26 350.576C440.262 350.582 440.263 350.588 440.263 350.594C440.262 350.6 440.261 350.607 440.258 350.612C440.255 350.618 440.252 350.623 440.247 350.628C440.242 350.632 440.237 350.635 440.231 350.637C440.225 350.639 440.219 350.64 440.212 350.64C440.206 350.64 440.2 350.638 440.194 350.636C440.188 350.633 440.183 350.629 440.179 350.625C436.741 347.374 433.908 343.541 431.811 339.303C431.805 339.284 431.805 339.263 431.812 339.245C431.82 339.226 431.833 339.21 431.85 339.2C431.867 339.19 431.887 339.186 431.907 339.188C431.926 339.191 431.945 339.2 431.959 339.214Z" fill="#3588D8"/>
<path d="M443.889 412.276C443.701 413.603 444.731 414.789 446.071 414.789H467.097C468.422 414.789 469.448 413.629 469.285 412.314L466.315 388.343C466.178 387.239 465.24 386.41 464.128 386.41H449.461C448.363 386.41 447.432 387.218 447.278 388.306L443.889 412.276Z" fill="#4991FF"/>
<path opacity="0.2" d="M301.688 386.137L302.517 387.573C298.314 389.999 296.871 395.365 299.291 399.557L297.851 400.388C295.431 396.195 290.062 394.764 285.859 397.191L285.03 395.754C289.233 393.328 290.677 387.962 288.256 383.769L289.696 382.938C292.117 387.131 297.486 388.563 301.688 386.137Z" fill="url(#paint7_linear_15188_40955)"/>
<path d="M315.333 360.612L315.54 360.972C311.338 363.398 309.893 368.764 312.313 372.956L311.953 373.164C309.532 368.971 304.163 367.539 299.96 369.966L299.753 369.606C303.956 367.18 305.4 361.814 302.979 357.621L303.339 357.413C305.761 361.607 311.13 363.039 315.333 360.612Z" fill="url(#paint8_linear_15188_40955)"/>
<path opacity="0.2" d="M261.262 376.339C257.196 378.687 255.798 383.878 258.141 387.935C255.798 383.878 250.604 382.493 246.537 384.841C250.604 382.493 252.001 377.301 249.659 373.245C252.002 377.301 257.196 378.687 261.262 376.339Z" fill="url(#paint9_linear_15188_40955)"/>
<path d="M237.688 163.689C242.453 164.949 255.002 171.155 260.681 174.1" stroke="#D8DEE6" stroke-width="1.10209" stroke-linecap="round"/>
<path d="M218.404 173.797L254.068 182.178" stroke="#D8DEE6" stroke-width="1.10209" stroke-linecap="round"/>
<path d="M215.466 193.668L253.699 190.411" stroke="#D8DEE6" stroke-width="1.10209" stroke-linecap="round"/>
<path d="M226.186 208.602C226.729 207.78 247.893 201.973 258.407 199.172" stroke="#D8DEE6" stroke-width="1.10209" stroke-linecap="round"/>
<g opacity="0.5">
<path opacity="0.3" d="M261.256 25.6246C261.346 25.6005 261.442 25.5918 261.54 25.6011C282.793 27.6325 303.044 33.251 321.73 42.3009C322.132 42.4956 322.302 42.9808 322.11 43.3843C321.917 43.7886 321.435 43.9574 321.034 43.7627C302.52 34.7966 282.454 29.2299 261.393 27.2166C260.949 27.1741 260.622 26.7781 260.663 26.3319C260.695 25.9849 260.94 25.7093 261.256 25.6246Z" fill="#051F39"/>
<path opacity="0.3" d="M229.392 37.0581C229.434 37.0467 229.478 37.0385 229.523 37.0343C255.819 34.4916 281.142 37.7466 304.789 46.7082C305.207 46.8665 305.419 47.3344 305.263 47.7538C305.107 48.1729 304.642 48.3851 304.224 48.2265C280.81 39.3532 255.731 36.1313 229.683 38.6498C229.239 38.6926 228.844 38.3657 228.8 37.9197C228.76 37.5189 229.017 37.1582 229.392 37.0581Z" fill="#051F39"/>
<path opacity="0.3" d="M273.292 19.3789C273.851 18.8372 274.428 18.4463 275.092 18.1075C275.748 17.7773 276.474 17.5304 277.246 17.4706C277.631 17.4406 278.023 17.4475 278.411 17.5019C278.61 17.5434 278.783 17.5535 279.003 17.6253L279.332 17.7403L279.619 17.8884C280.358 18.3081 280.836 18.8363 281.32 19.327C281.794 19.8216 282.236 20.3049 282.696 20.7251C283.153 21.1449 283.63 21.502 284.114 21.6896C284.941 22.0799 286.19 21.642 287.445 21.2243C288.082 21.0138 288.742 20.7909 289.467 20.6464C290.185 20.5078 291.012 20.4353 291.853 20.7166C292.326 20.8956 292.716 21.1975 292.981 21.5023C293.259 21.8091 293.47 22.1233 293.66 22.4332C294.035 23.0535 294.332 23.6661 294.642 24.2395C294.949 24.8018 295.275 25.3675 295.634 25.6938C295.814 25.867 295.953 25.9203 296.184 25.9881C296.403 26.044 296.671 26.038 296.947 26.0147C297.512 25.9438 298.117 25.7529 298.742 25.5349C299.054 25.4277 299.376 25.3128 299.721 25.2108C300.069 25.1148 300.425 25 300.933 25.0281C301.266 25.0464 301.523 25.3333 301.506 25.6687C301.489 26.0003 301.211 26.2552 300.882 26.2436L300.848 26.2423C300.684 26.2363 300.383 26.3103 300.097 26.4116C299.805 26.511 299.502 26.6318 299.187 26.7545C298.561 26.9987 297.896 27.2522 297.138 27.3805C296.752 27.4307 296.344 27.4632 295.906 27.3783C295.487 27.2995 294.996 27.0693 294.688 26.7742C294.047 26.1953 293.708 25.5601 293.352 24.9617C293.01 24.3603 292.704 23.7688 292.371 23.2468C292.048 22.7186 291.647 22.2991 291.355 22.1983C290.915 22.0533 290.362 22.0761 289.778 22.1971C289.193 22.3172 288.583 22.5229 287.954 22.7373C287.323 22.9508 286.672 23.185 285.942 23.339C285.573 23.41 285.189 23.4731 284.765 23.4573L284.448 23.4434L284.116 23.3808C283.884 23.3453 283.707 23.2585 283.51 23.1883C282.747 22.8727 282.149 22.3857 281.625 21.8973C281.099 21.4047 280.642 20.889 280.192 20.4096C279.745 19.9416 279.297 19.4661 278.872 19.2098L278.716 19.119L278.573 19.0642C278.479 19.0226 278.314 19.004 278.187 18.9702C277.915 18.9216 277.636 18.9064 277.354 18.9169C276.235 18.9667 275.039 19.5291 274.129 20.2604L274.09 20.292C273.83 20.5012 273.45 20.458 273.241 20.1955C273.044 19.949 273.071 19.594 273.292 19.3789Z" fill="#051F39"/>
</g>
<defs>
<filter id="filter0_d_15188_40955" x="45.0219" y="36.3677" width="469.489" height="370.302" filterUnits="userSpaceOnUse" color-interpolation-filters="sRGB">
<feFlood flood-opacity="0" result="BackgroundImageFix"/>
<feColorMatrix in="SourceAlpha" type="matrix" values="0 0 0 0 0 0 0 0 0 0 0 0 0 0 0 0 0 0 127 0" result="hardAlpha"/>
<feOffset dy="16.5313"/>
<feGaussianBlur stdDeviation="22.0418"/>
<feComposite in2="hardAlpha" operator="out"/>
<feColorMatrix type="matrix" values="0 0 0 0 0.117647 0 0 0 0 0.129412 0 0 0 0 0.176471 0 0 0 0.07 0"/>
<feBlend mode="normal" in2="BackgroundImageFix" result="effect1_dropShadow_15188_40955"/>
<feBlend mode="normal" in="SourceGraphic" in2="effect1_dropShadow_15188_40955" result="shape"/>
</filter>
<filter id="filter1_d_15188_40955" x="40.6535" y="146.579" width="188.58" height="260.186" filterUnits="userSpaceOnUse" color-interpolation-filters="sRGB">
<feFlood flood-opacity="0" result="BackgroundImageFix"/>
<feColorMatrix in="SourceAlpha" type="matrix" values="0 0 0 0 0 0 0 0 0 0 0 0 0 0 0 0 0 0 127 0" result="hardAlpha"/>
<feOffset dx="-5.51044" dy="11.0209"/>
<feGaussianBlur stdDeviation="16.5313"/>
<feComposite in2="hardAlpha" operator="out"/>
<feColorMatrix type="matrix" values="0 0 0 0 0.117647 0 0 0 0 0.129412 0 0 0 0 0.176471 0 0 0 0.12 0"/>
<feBlend mode="normal" in2="BackgroundImageFix" result="effect1_dropShadow_15188_40955"/>
<feBlend mode="normal" in="SourceGraphic" in2="effect1_dropShadow_15188_40955" result="shape"/>
</filter>
<linearGradient id="paint0_linear_15188_40955" x1="422.398" y1="1.26705e-05" x2="107.113" y2="378.352" gradientUnits="userSpaceOnUse">
<stop stop-color="#EAF4FE"/>
<stop offset="1" stop-color="#DCEDFF" stop-opacity="0"/>
</linearGradient>
<linearGradient id="paint1_linear_15188_40955" x1="497.529" y1="58.3612" x2="480.797" y2="70.1182" gradientUnits="userSpaceOnUse">
<stop stop-color="#FAB882"/>
<stop offset="1" stop-color="#FF7300"/>
</linearGradient>
<linearGradient id="paint2_linear_15188_40955" x1="467.692" y1="46.5123" x2="452.043" y2="57.5082" gradientUnits="userSpaceOnUse">
<stop stop-color="#FAB882"/>
<stop offset="1" stop-color="#FF7300"/>
</linearGradient>
<linearGradient id="paint3_linear_15188_40955" x1="488.575" y1="102.379" x2="473.785" y2="112.772" gradientUnits="userSpaceOnUse">
<stop stop-color="#FAB882"/>
<stop offset="1" stop-color="#FF7300"/>
</linearGradient>
<linearGradient id="paint4_linear_15188_40955" x1="49.7155" y1="256.675" x2="79.5757" y2="256.675" gradientUnits="userSpaceOnUse">
<stop stop-color="#FAB882"/>
<stop offset="1" stop-color="#FF7300"/>
</linearGradient>
<linearGradient id="paint5_linear_15188_40955" x1="76.9383" y1="328.636" x2="135.392" y2="328.636" gradientUnits="userSpaceOnUse">
<stop stop-color="#FAB882"/>
<stop offset="1" stop-color="#FF7300"/>
</linearGradient>
<linearGradient id="paint6_linear_15188_40955" x1="26.3707" y1="315.569" x2="91.9751" y2="315.569" gradientUnits="userSpaceOnUse">
<stop stop-color="#FAB882"/>
<stop offset="1" stop-color="#FF7300"/>
</linearGradient>
<linearGradient id="paint7_linear_15188_40955" x1="298.472" y1="400.022" x2="288.872" y2="383.394" gradientUnits="userSpaceOnUse">
<stop stop-color="#FAB882"/>
<stop offset="1" stop-color="#FF7300"/>
</linearGradient>
<linearGradient id="paint8_linear_15188_40955" x1="312.041" y1="373.106" x2="303.062" y2="357.554" gradientUnits="userSpaceOnUse">
<stop stop-color="#FAB882"/>
<stop offset="1" stop-color="#FF7300"/>
</linearGradient>
<linearGradient id="paint9_linear_15188_40955" x1="258.053" y1="387.979" x2="249.567" y2="373.28" gradientUnits="userSpaceOnUse">
<stop stop-color="#FAB882"/>
<stop offset="1" stop-color="#FF7300"/>
</linearGradient>
</defs>
</svg>
