<svg width="40" height="40" viewBox="0 0 40 40" fill="none" xmlns="http://www.w3.org/2000/svg">
<path d="M13.6333 26.6993C12.3667 26.5827 11.1167 25.9993 10.15 24.9827C7.95 22.666 7.95 18.866 10.15 16.5493L13.8 12.716C16 10.3993 19.6167 10.3993 21.8333 12.716C24.0334 15.0327 24.0334 18.8327 21.8333 21.1493L20.0167 23.066" stroke="#FF7300" stroke-width="2" stroke-linecap="round" stroke-linejoin="round"/>
<path d="M26.3676 13.2988C27.6343 13.4155 28.8843 13.9988 29.8509 15.0155C32.0509 17.3322 32.0509 21.1322 29.8509 23.4488L26.2009 27.2821C24.0009 29.5988 20.3842 29.5988 18.1676 27.2821C15.9676 24.9655 15.9676 21.1655 18.1676 18.8488L19.9843 16.9321" stroke="#0061BF" stroke-width="2" stroke-linecap="round" stroke-linejoin="round"/>
<path d="M15.0007 36.6673H25.0007C33.334 36.6673 36.6673 33.334 36.6673 25.0007V15.0007C36.6673 6.66732 33.334 3.33398 25.0007 3.33398H15.0007C6.66732 3.33398 3.33398 6.66732 3.33398 15.0007V25.0007C3.33398 33.334 6.66732 36.6673 15.0007 36.6673Z" stroke="#FF7300" stroke-width="2" stroke-linecap="round" stroke-linejoin="round"/>
</svg>
