<svg width="547" height="452" viewBox="0 0 547 452" fill="none" xmlns="http://www.w3.org/2000/svg">
<circle cx="226" cy="226" r="226" transform="matrix(-1 0 0 1 480 0)" fill="url(#paint0_linear_15095_28478)"/>
<path opacity="0.1" d="M479 428C513.242 428 541 425.538 541 422.5C541 419.462 513.242 417 479 417C444.758 417 417 419.462 417 422.5C417 425.538 444.758 428 479 428Z" fill="#0061BF"/>
<path opacity="0.2" d="M90.8583 431C133.306 431 167.717 428.563 167.717 425.557C167.717 422.55 133.306 420.113 90.8583 420.113C48.4106 420.113 14 422.55 14 425.557C14 428.563 48.4106 431 90.8583 431Z" fill="#0061BF"/>
<g filter="url(#filter0_d_15095_28478)">
<path d="M81 97H443V335H98C88.6112 335 81 327.389 81 318V97Z" fill="white"/>
</g>
<path d="M442.999 97H81V80.2695C81 73.4936 86.1252 68 92.4468 68H431.553C437.875 68 443 73.4936 443 80.2695V97H442.999Z" fill="#A8D4FF"/>
<circle cx="103.5" cy="82.5" r="3.5" fill="white"/>
<circle cx="115.5" cy="82.5" r="3.5" fill="white"/>
<circle cx="127.5" cy="82.5" r="3.5" fill="white"/>
<path d="M160 183H106C103.239 183 101 185.239 101 188V317C101 319.761 103.239 322 106 322H160C162.761 322 165 319.761 165 317V188C165 185.239 162.761 183 160 183Z" fill="#F2F5F6"/>
<path d="M160 173H106C103.239 173 101 170.761 101 168V136C101 133.239 103.239 131 106 131H160C162.761 131 165 133.239 165 136V168C165 170.761 162.761 173 160 173Z" fill="#F2F5F6"/>
<path d="M94.2878 258.037C79.4457 258.456 86.7552 272.288 89.5343 284.432C94.6145 303.517 91.6694 328.247 99.3613 330.961C119.877 337.213 113.346 264.315 107.653 260.975C104.979 259.449 99.271 258.551 94.2878 258.037Z" fill="#EDAC98"/>
<path d="M107.661 324.625C93.2712 314.276 94.3507 383.224 98.1734 402.61C101.997 421.996 106.09 408.851 108.958 377.893C111.826 346.936 113.322 328.698 107.661 324.625Z" fill="#EDAC98"/>
<path d="M96.4374 399L96 407.526L107 408L106.747 399.734L96.4374 399Z" fill="#FFCBC2"/>
<path d="M107.628 408.151C107.628 408.151 109.838 412.522 117.238 418.269C124.639 424.015 126.604 422.809 126.754 424.923C126.903 427.038 94.1504 424.88 94.1504 424.88L95.3481 407.517C95.3481 407.517 107.629 407.698 107.628 408.151Z" fill="#292466"/>
<path d="M78.436 258.24C63.9019 255.2 63.9125 270.889 63.7904 283.347C64.2923 303.088 59.5587 325.918 66.4075 330.345C84.9064 341.193 90.9253 266.381 86.1678 261.811C83.9211 259.704 83.1616 259.898 78.436 258.24Z" fill="#EDAC98"/>
<path d="M74.1762 324.296C59.7868 313.947 60.8663 382.895 64.689 402.281C68.5131 421.667 72.6054 408.522 75.4734 377.564C78.3415 346.607 79.8379 328.367 74.1762 324.296Z" fill="#EDAC98"/>
<path d="M63.1028 398L63 409.675L74 410L73.9011 398.535L63.1028 398Z" fill="#FFCBC2"/>
<path d="M62.6768 409.509C62.5016 412.31 59.4835 421.86 59.3945 424.29C77.4659 424.926 76.9215 428.555 74.1915 409.68L62.6768 409.509Z" fill="#292466"/>
<path d="M66.4555 259C66.4555 259 61.5664 266.933 61.7305 292.549C61.9175 321.84 61.5718 328.71 61.5503 330.868C61.5274 333.024 61 399.921 61 399.921C61 399.921 72.425 402.275 75.2072 400.029C76.6629 398.854 88.6893 293.623 88.6893 293.623C88.6893 293.623 90.9011 318.604 91.5455 328.076C92.1025 336.279 91.6976 392.603 94.7274 398.393C97.8917 400.893 109.486 399.716 109.645 399.559C111.375 397.834 117.115 282.159 111.784 260.976L66.4555 259Z" fill="#3A67B3"/>
<path d="M101.762 193.505C93.6003 198.718 104.115 247.728 110.413 245.16C121.427 246.012 116.546 187.772 101.762 193.505Z" fill="#FFCBC2"/>
<path d="M92.4766 185.791C115.09 188.628 114.472 208.467 116.311 222.614L100.443 224.766L92.4766 185.791Z" fill="#5BA7F4"/>
<path d="M110.929 246.221C120.434 244.608 142.709 205.674 140.552 203.377C138.886 199.031 92.2205 246.175 110.929 246.221Z" fill="#FFCBC2"/>
<path d="M78.3318 184.096C48.0009 187.953 69.2311 205.484 65.6155 259.264C65.5796 263.11 111.942 264.943 111.723 260.944C106.686 218.526 121.301 190.696 92.429 185.517" fill="#80BFFE"/>
<path d="M92.4968 181.588L92.4185 189.591C91.7731 196.949 80.2306 189.003 78.9426 185.983C78.049 184.038 79.3702 183.056 79.41 178.953C79.4512 174.851 79.4552 174.398 79.4552 174.398C65.6766 152.512 88.6581 143.607 97.4521 159.134C97.476 171.793 100.77 183.738 92.4968 181.588Z" fill="#FFCBC2"/>
<path d="M62.5256 192.841C53.5285 195.655 49.9036 246.613 56.4749 245.806C66.6006 249.415 77.875 191.228 62.5256 192.841Z" fill="#EDAC98"/>
<path d="M95.9986 245.107L66.2851 240.091L70.6536 219.386L54.0189 217.422C54.0189 217.422 50.5374 245.221 55.4901 250.724C60.4428 256.227 94.6057 255.158 94.6057 255.158L95.9986 245.107Z" fill="#FFCBC2"/>
<path d="M57.2075 247.171C57.3058 248.865 58.4211 250.352 59.9295 251.132C71.7217 257.233 122.637 255.798 121.048 252.287C120.999 249.552 56.4666 234.428 57.2075 247.171Z" fill="#FFCBC2"/>
<path d="M78.6172 184.093C78.6172 184.093 62.3517 184.775 59.1357 189.983C55.9211 195.19 52.9668 218.203 52.9668 218.203L70.6212 220.172L72.4323 209.935" fill="#5BA7F4"/>
<path d="M100.431 154.678C100.571 152.668 99.4857 150.726 97.6627 149.867C93.6009 147.954 89.117 149.855 83.4526 150.126C76.4723 150.458 75.5137 154.764 74.8538 160.844C74.1925 166.924 79.1372 174.482 79.4532 174.399C79.7679 174.317 77.9475 166.076 79.6922 166.007C81.437 165.938 81.9163 169.573 82.0358 171.975C84.5 173 85.5 171.5 85.5 169.5C82.698 165.17 82.077 161.999 83.8695 159.959C85.6634 157.919 90.8431 160.429 96.0428 160.937C99.3742 161.263 100.24 157.455 100.431 154.678Z" fill="#292466"/>
<path d="M96.2104 248.772L136.914 249.175L136.934 247.19L96.2301 246.787L96.2104 248.772Z" fill="#292466"/>
<path d="M147.548 249.294L109.674 248.921L120.614 223.224L158.488 223.597L147.548 249.294Z" fill="#3C34A4"/>
<path d="M148.616 249.304L110.742 248.932L121.682 223.234L159.556 223.607L148.616 249.304Z" fill="#292466"/>
<path d="M134.874 239.82C135.999 240.285 137.48 239.285 138.181 237.587C138.882 235.889 138.538 234.137 137.413 233.672C136.287 233.208 134.807 234.208 134.106 235.906C133.404 237.604 133.748 239.356 134.874 239.82Z" fill="white"/>
<path d="M144.531 200.574C144.916 202.195 147.004 203.3 145.309 206.38C143.613 209.46 137.97 210.219 137.97 210.219L135.584 205.928C135.584 205.928 136.507 204.695 136.678 203.921C136.849 203.146 137.943 200.34 140.756 199.078C143.568 197.816 147.976 196.513 148.526 197.338C149.074 198.163 144.228 199.302 144.531 200.574Z" fill="#FFCBC2"/>
<path d="M113.227 249.605L112.668 249.206L113.994 248.36L114.005 248.356L116.369 247.003C116.978 246.661 117.654 246.465 118.35 246.448L121.364 247.108C121.364 247.108 121.886 247.901 120.132 247.973C119.673 247.992 119.068 248.403 118.593 248.764L120.323 248.924L124.528 249.636C125.606 249.81 126.792 250.888 126.639 252.174C126.639 252.174 126.277 253.958 124.272 254.441L121.542 255.351C120.048 255.575 118.933 256.026 117.467 255.652L113.57 254.292L113.227 249.605Z" fill="#FFCBC2"/>
<path d="M432.894 348.641C444.186 339.205 458.655 382.407 461.652 400.994C464.648 419.581 454.407 402.792 441.166 376.178C431.812 357.373 427.578 353.085 432.894 348.641Z" fill="#EDAC98"/>
<path d="M464.954 402.707L461.06 394.538L449.662 398.397L455.076 407.59L464.954 402.707Z" fill="#EDAC98"/>
<path d="M464.955 402.707L466.006 406.37L457.466 413.647L449.688 414.426L453.145 411.47C453.145 411.47 455.312 409.224 455.074 407.59C454.838 405.957 464.955 402.707 464.955 402.707Z" fill="#EDAC98"/>
<path d="M465.377 403.897C465.377 403.897 460.492 413.708 453.145 411.472C453.145 411.472 445.088 416.216 446.13 418.805C447.174 421.393 452.739 418.382 452.739 418.382L468.561 411.755C468.561 411.755 468.381 407.731 465.377 403.897Z" fill="#292466"/>
<path d="M471.488 367.818C447.632 363.586 429.012 356.095 429.902 351.088C430.791 346.082 450.852 345.454 474.71 349.686C498.566 353.919 506.902 358.027 506.012 363.035C505.123 368.042 495.345 372.051 471.488 367.818Z" fill="#EDAC98"/>
<path d="M497.999 352.911C497.999 352.911 466.635 346.799 457.697 345.232C448.758 343.665 431.665 341 428.058 349.934C424.451 358.867 449.856 405.728 449.856 405.728L464.284 398.675L452.209 365.763C452.209 365.763 495.648 379.711 503.646 370.778C511.645 361.845 506.313 351.97 506.313 351.97L497.999 352.911Z" fill="#264B89"/>
<path d="M465.372 304.223C466.887 306.069 467.01 308.697 466.017 310.855C461.554 320.545 444.484 359.702 437.163 356.822C428.557 353.437 446.441 319.182 451.916 311.732C456.479 305.523 461.71 299.761 465.372 304.223Z" fill="#EDAC98"/>
<g filter="url(#filter1_d_15095_28478)">
<path d="M460.353 367H349.647C347.632 367 346 365.401 346 363.429V183.571C346 181.599 347.632 180 349.647 180H460.353C462.368 180 464 181.599 464 183.571V363.429C464.001 365.401 462.368 367 460.353 367Z" fill="white"/>
</g>
<path opacity="0.8" d="M457.126 359.852H355.823C353.98 359.852 352.486 358.359 352.486 356.517V188.579C352.486 186.737 353.98 185.244 355.823 185.244H457.126C458.969 185.244 460.463 186.737 460.463 188.579V356.516C460.463 358.358 458.969 359.852 457.126 359.852Z" fill="#EBEFF2"/>
<path d="M387.08 286.626C381.648 283.349 377.14 278.744 373.979 273.244C370.819 267.744 369.109 261.531 369.012 255.188L380.636 255.01C380.703 259.381 381.881 263.662 384.059 267.451C386.237 271.241 389.343 274.414 393.085 276.672L387.08 286.626Z" fill="#219FFF"/>
<path d="M388.908 221.611C393.362 219.167 398.267 217.656 403.324 217.171C408.38 216.686 413.483 217.236 418.32 218.789L415.226 228.43C411.699 227.298 407.978 226.896 404.291 227.25C400.603 227.604 397.027 228.706 393.78 230.488L388.908 221.611Z" fill="#0061BF"/>
<path d="M369.061 252.628C369.375 246.733 371.08 240.997 374.037 235.888C376.995 230.779 381.12 226.443 386.075 223.235L395.745 238.171C393.148 239.852 390.987 242.124 389.437 244.801C387.887 247.479 386.993 250.485 386.829 253.574L369.061 252.628Z" fill="#FF7300"/>
<path d="M420.849 220.14C425.459 222.073 429.635 224.911 433.129 228.486C436.623 232.061 439.364 236.301 441.191 240.954C443.018 245.607 443.893 250.58 443.765 255.577C443.637 260.574 442.507 265.495 440.443 270.049C438.38 274.602 435.424 278.695 431.751 282.086C428.078 285.477 423.762 288.097 419.058 289.79C414.355 291.484 409.359 292.217 404.368 291.946C399.376 291.675 394.489 290.406 389.996 288.214L395.182 277.589C398.253 279.088 401.595 279.956 405.008 280.141C408.421 280.326 411.837 279.825 415.053 278.667C418.269 277.509 421.22 275.717 423.731 273.399C426.243 271.08 428.264 268.282 429.675 265.168C431.086 262.055 431.858 258.69 431.946 255.273C432.034 251.856 431.436 248.456 430.187 245.274C428.937 242.093 427.063 239.194 424.674 236.749C422.284 234.305 419.429 232.364 416.277 231.042L420.849 220.14Z" fill="#D8DEE6"/>
<path d="M420.7 220.077C426.697 222.562 431.944 226.565 435.924 231.692L426.608 238.924C423.883 235.414 420.292 232.674 416.186 230.973L420.7 220.077Z" fill="#17BD8D"/>
<path d="M442.963 234.22L441.446 231.86L425.896 242.478L427.034 244.051L442.963 234.22Z" fill="#070908" stroke="white"/>
<path opacity="0.5" d="M408.25 198.363H364.34C362.658 198.363 361.295 197.245 361.295 195.863C361.295 194.482 362.658 193.363 364.34 193.363H408.25C409.932 193.363 411.295 194.482 411.295 195.863C411.295 197.245 409.932 198.363 408.25 198.363Z" fill="#A7C7DF"/>
<path d="M377.697 320.79H361.482C360.861 320.79 360.357 320.287 360.357 319.666C360.357 319.045 360.861 318.542 361.482 318.542H377.697C378.319 318.542 378.822 319.045 378.822 319.666C378.822 320.287 378.319 320.79 377.697 320.79Z" fill="#D8DEE6"/>
<path d="M451.464 320.79H388.57C387.949 320.79 387.445 320.287 387.445 319.666C387.445 319.045 387.949 318.542 388.57 318.542H451.464C452.085 318.542 452.588 319.045 452.588 319.666C452.588 320.287 452.085 320.79 451.464 320.79Z" fill="#D8DEE6"/>
<path d="M377.697 331.61H361.482C360.861 331.61 360.357 331.107 360.357 330.486C360.357 329.865 360.861 329.362 361.482 329.362H377.697C378.319 329.362 378.822 329.865 378.822 330.486C378.822 331.106 378.319 331.61 377.697 331.61Z" fill="#D8DEE6"/>
<path d="M451.464 331.61H388.57C387.949 331.61 387.445 331.107 387.445 330.486C387.445 329.865 387.949 329.362 388.57 329.362H451.464C452.085 329.362 452.588 329.865 452.588 330.486C452.588 331.106 452.085 331.61 451.464 331.61Z" fill="#D8DEE6"/>
<path d="M377.697 342.43H361.482C360.861 342.43 360.357 341.927 360.357 341.306C360.357 340.685 360.861 340.182 361.482 340.182H377.697C378.319 340.182 378.822 340.685 378.822 341.306C378.822 341.927 378.319 342.43 377.697 342.43Z" fill="#D8DEE6"/>
<path d="M451.464 342.43H388.57C387.949 342.43 387.445 341.927 387.445 341.306C387.445 340.685 387.949 340.182 388.57 340.182H451.464C452.085 340.182 452.588 340.685 452.588 341.306C452.588 341.927 452.085 342.43 451.464 342.43Z" fill="#D8DEE6"/>
<path d="M478.445 306.328C476.374 305.14 475.325 302.726 475.487 300.356C476.219 289.715 478.27 247.051 486.137 247.147C495.385 247.259 490.831 285.628 488.359 294.533C486.297 301.957 483.452 309.199 478.445 306.328Z" fill="#EDAC98"/>
<path d="M489.182 258.797C490.343 256.812 490.157 254.312 489.053 252.293C483.889 242.854 465.223 209.353 460.589 209.78C455.195 210.278 480.008 260.083 482.865 260.41C485.008 260.656 487.594 261.51 489.182 258.797Z" fill="#EDAC98"/>
<path d="M472.263 222.501L465.568 213.73L459.141 214.435L464.887 227.868L472.263 222.501Z" fill="#FFCBC2"/>
<path d="M459.897 214.455L459.152 214.43L459.141 214.435L459.134 214.425L457.269 212.109C456.795 211.511 456.468 210.815 456.33 210.068L456.525 206.707C456.525 206.707 457.293 206.008 457.67 207.887C457.768 208.376 458.315 208.959 458.787 209.41L458.663 207.518L458.71 202.864C458.712 201.672 459.673 200.209 461.088 200.154C461.088 200.154 463.075 200.241 463.938 202.317L465.388 205.103C465.886 206.675 466.565 207.8 466.411 209.443L465.61 213.877L459.897 214.455Z" fill="#FFCBC2"/>
<path d="M471.527 298.694L478.315 257.163L463.689 227.023L472.566 221.555C472.566 221.555 490.018 243.063 492.033 251.115C494.047 259.167 488.067 306.323 488.067 306.323L472.8 307.171L471.527 298.694Z" fill="url(#paint1_linear_15095_28478)"/>
<path d="M443.072 353.823C442.129 355.921 439.985 357.221 437.7 357.495C427.012 358.775 388.882 363.04 386.539 359.021C383.814 354.343 438.794 345.611 440.719 347.746C442.164 349.348 444.361 350.956 443.072 353.823Z" fill="#FFCBC2"/>
<path d="M420.319 360.766L394.571 361.482L393.039 355.167L419.299 349.505L420.319 360.766Z" fill="#FFCBC2"/>
<path d="M393.309 355.879L393.049 355.181L393.052 355.171L393.04 355.168L390.251 354.134C389.533 353.874 388.771 353.785 388.017 353.891L384.888 355.143C384.888 355.143 384.469 356.092 386.372 355.854C386.868 355.792 387.595 356.126 388.171 356.43L386.336 356.913L381.934 358.432C380.804 358.812 379.721 360.187 380.116 361.546C380.116 361.546 380.828 363.402 383.073 363.563L386.176 364.055C387.827 364.028 389.108 364.315 390.619 363.649L394.573 361.485L393.309 355.879Z" fill="#FFCBC2"/>
<path d="M452.973 305.794C452.973 305.794 444.067 323.594 441.098 330.481C438.129 337.368 434.101 345.739 433.784 345.845C433.465 345.951 409.93 350.719 409.93 350.719L410.566 361.951C410.566 361.951 440.781 361.632 445.128 356.229C449.475 350.825 466.226 319.887 466.226 319.887L452.973 305.794Z" fill="url(#paint2_linear_15095_28478)"/>
<path d="M445.243 406.271C435.437 391.644 507.993 392.681 526.471 396.348C544.948 400.014 525.61 403.544 496.059 406.896C466.509 410.249 449.101 412.026 445.243 406.271Z" fill="#EDAC98"/>
<path d="M529.702 394.721L520.123 394.743L519.672 407.035L530.264 405.721L529.702 394.721Z" fill="#FFCBC2"/>
<path d="M529.702 394.721L533.482 395.21L536.775 405.932L534.403 413.377L533.061 409.032C533.061 409.032 531.86 406.153 530.264 405.721C528.669 405.29 529.702 394.721 529.702 394.721Z" fill="#FFCBC2"/>
<path d="M530.961 394.804C530.961 394.804 538.031 403.18 533.06 409.031C533.06 409.031 534.218 418.305 537.009 418.375C539.8 418.446 539.244 412.146 539.244 412.146L539.439 395.002C539.439 395.002 535.676 393.57 530.961 394.804Z" fill="#292466"/>
<path d="M444.585 406.353C448.145 409.987 465.066 399.202 482.381 382.263C499.695 365.325 510.846 348.648 507.287 345.014C503.727 341.38 486.806 352.165 469.491 369.103C452.176 386.042 441.026 402.719 444.585 406.353Z" fill="#EDAC98"/>
<path d="M480.121 354.008C480.121 354.008 461.617 372.659 454.56 382.376C447.503 392.093 437.884 403.794 443.583 412.466C448.973 420.668 520.72 409.048 520.72 409.048V392.439L477.927 391.622C477.927 391.622 535.009 362.942 514.954 334.97L490.786 333.634L480.121 354.008Z" fill="#3A67B3"/>
<path d="M456.713 303.352L456.11 296.53C456.11 296.53 449.776 296.643 447.976 291.445C446.175 286.247 444.854 273.328 447.734 268.519C450.614 263.711 470.921 262.988 473.449 276.425C475.979 289.862 474.81 305.949 474.81 305.949L456.713 303.352Z" fill="#FFCBC2"/>
<path d="M514.954 334.972C499.624 338.563 480.116 354.013 480.116 354.013C480.116 354.013 472.216 343.68 464.998 334.127C463.649 332.355 462.348 330.617 461.113 328.977C457.001 323.501 453.749 319.098 453.359 318.335C450.53 312.795 451.96 308.051 453.944 304.023C456.123 299.57 460.268 296.224 464.266 293.299C472.671 287.158 480.897 287.353 485.238 291.009C491.658 296.403 514.954 334.972 514.954 334.972Z" fill="url(#paint3_linear_15095_28478)"/>
<path d="M464.998 334.126C463.649 332.355 462.348 330.617 461.113 328.976L464.105 323.485L464.998 334.126Z" fill="#C2D2DC"/>
<path d="M465.472 317.106C462.298 315.114 459.542 312.491 457.608 309.574C454.494 304.881 452.12 296.552 456.034 291.535C457.231 290.002 457.909 288.58 458.15 287.265C458.39 285.948 458.195 284.738 457.649 283.626C456.559 281.401 452.067 283.138 449.939 280.29C447.81 277.442 445.941 276 445.776 272.621C445.611 269.243 446.952 262.696 459.501 263.149C472.049 263.603 477.219 270.2 479.567 278.565C480.447 281.702 482.638 284.874 484.976 288.088C487.376 291.385 489.816 294.742 491.479 298.486C493.138 302.221 493.853 306.354 492.761 310.349C492.391 311.701 491.832 313.035 491.055 314.338C485.696 323.316 473.085 321.883 465.472 317.106Z" fill="#292466"/>
<rect x="259" y="188" width="74" height="10" rx="5" fill="#EBEFF2"/>
<rect x="259" y="206" width="74" height="5" rx="2.5" fill="#EBEFF2"/>
<rect x="259" y="219" width="74" height="5" rx="2.5" fill="#EBEFF2"/>
<rect x="259" y="232" width="74" height="7" rx="3.5" fill="#EBEFF2"/>
<rect x="180" y="188" width="67" height="51" rx="4" fill="#F2F5F6"/>
<mask id="path-82-inside-1_15095_28478" fill="white">
<path d="M214.458 215.521H212.167C211.791 215.521 211.479 215.209 211.479 214.833C211.479 214.457 211.791 214.146 212.167 214.146H214.458C216.86 214.146 218.813 212.193 218.813 209.792C218.813 207.39 216.86 205.438 214.458 205.438H209.875C207.473 205.438 205.521 207.39 205.521 209.792C205.521 210.8 205.878 211.781 206.52 212.56C206.758 212.853 206.722 213.284 206.428 213.532C206.135 213.77 205.704 213.733 205.457 213.44C204.604 212.413 204.137 211.121 204.137 209.792C204.137 206.629 206.703 204.062 209.866 204.062H214.449C217.612 204.062 220.178 206.629 220.178 209.792C220.178 212.954 217.621 215.521 214.458 215.521Z"/>
</mask>
<path d="M214.458 215.521H212.167C211.791 215.521 211.479 215.209 211.479 214.833C211.479 214.457 211.791 214.146 212.167 214.146H214.458C216.86 214.146 218.813 212.193 218.813 209.792C218.813 207.39 216.86 205.438 214.458 205.438H209.875C207.473 205.438 205.521 207.39 205.521 209.792C205.521 210.8 205.878 211.781 206.52 212.56C206.758 212.853 206.722 213.284 206.428 213.532C206.135 213.77 205.704 213.733 205.457 213.44C204.604 212.413 204.137 211.121 204.137 209.792C204.137 206.629 206.703 204.062 209.866 204.062H214.449C217.612 204.062 220.178 206.629 220.178 209.792C220.178 212.954 217.621 215.521 214.458 215.521Z" fill="#292D32"/>
<path d="M206.52 212.56L208.072 211.299L208.064 211.289L206.52 212.56ZM206.428 213.532L207.69 215.084L207.704 215.072L207.718 215.06L206.428 213.532ZM205.457 213.44L203.918 214.718L203.923 214.724L203.928 214.73L205.457 213.44ZM214.458 213.521H212.167V217.521H214.458V213.521ZM212.167 213.521C212.895 213.521 213.479 214.105 213.479 214.833H209.479C209.479 216.314 210.686 217.521 212.167 217.521V213.521ZM213.479 214.833C213.479 215.562 212.895 216.146 212.167 216.146V212.146C210.686 212.146 209.479 213.353 209.479 214.833H213.479ZM212.167 216.146H214.458V212.146H212.167V216.146ZM214.458 216.146C217.965 216.146 220.813 213.298 220.813 209.792H216.813C216.813 211.089 215.755 212.146 214.458 212.146V216.146ZM220.813 209.792C220.813 206.285 217.965 203.437 214.458 203.437V207.438C215.755 207.438 216.813 208.495 216.813 209.792H220.813ZM214.458 203.437H209.875V207.438H214.458V203.437ZM209.875 203.437C206.369 203.437 203.521 206.285 203.521 209.792H207.521C207.521 208.495 208.578 207.438 209.875 207.438V203.437ZM203.521 209.792C203.521 211.272 204.045 212.7 204.976 213.831L208.064 211.289C207.712 210.861 207.521 210.328 207.521 209.792H203.521ZM204.968 213.821C204.525 213.276 204.591 212.465 205.139 212.003L207.718 215.06C208.852 214.104 208.992 212.431 208.072 211.299L204.968 213.821ZM205.167 211.979C205.712 211.536 206.524 211.603 206.985 212.15L203.928 214.73C204.885 215.864 206.558 216.004 207.69 215.084L205.167 211.979ZM206.995 212.162C206.44 211.493 206.137 210.652 206.137 209.792H202.137C202.137 211.589 202.769 213.333 203.918 214.718L206.995 212.162ZM206.137 209.792C206.137 207.734 207.808 206.062 209.866 206.062V202.062C205.599 202.062 202.137 205.525 202.137 209.792H206.137ZM209.866 206.062H214.449V202.062H209.866V206.062ZM214.449 206.062C216.507 206.062 218.178 207.734 218.178 209.792H222.178C222.178 205.525 218.716 202.062 214.449 202.062V206.062ZM218.178 209.792C218.178 211.854 216.512 213.521 214.458 213.521V217.521C218.73 217.521 222.178 214.055 222.178 209.792H218.178Z" fill="#FF7300" mask="url(#path-82-inside-1_15095_28478)"/>
<path d="M223.479 216.208C223.479 214.964 223.039 213.76 222.253 212.806L222.543 212.56L222.017 212.997L223.479 216.208ZM222.021 213.001L222.029 212.994L222.256 212.81C222.358 212.936 222.343 213.126 222.217 213.233C222.069 213.358 221.872 213.315 221.779 213.205L222.021 213.001Z" fill="#292D32" stroke="#0061BF" stroke-width="2"/>
<rect x="266" y="256" width="67" height="43" rx="8" fill="#F2F5F6"/>
<rect x="266" y="306" width="66.9992" height="8" rx="4" fill="#F2F5F6"/>
<rect x="266" y="319" width="45.2245" height="4" rx="2" fill="#F2F5F6"/>
<path d="M303.932 275.497L306.597 275.497C307.702 275.497 308.597 276.417 308.597 277.552C308.597 278.686 307.702 279.606 306.598 279.606L301.266 279.606C300.161 279.606 299.267 278.686 299.267 277.552C299.267 277.174 298.968 276.867 298.6 276.867C298.232 276.867 297.934 277.174 297.934 277.552C297.934 279.443 299.425 280.975 301.266 280.975L306.598 280.975C308.438 280.975 309.93 279.443 309.93 277.552C309.93 275.661 308.438 274.128 306.597 274.128L303.932 274.128C303.564 274.128 303.265 274.435 303.265 274.813C303.265 275.191 303.564 275.497 303.932 275.497Z" fill="#AAB4BE"/>
<path d="M290.069 277.551C290.069 279.442 291.561 280.975 293.402 280.975L296.6 280.975C296.968 280.975 297.266 280.668 297.266 280.29C297.266 279.912 296.968 279.605 296.6 279.605L293.402 279.605C292.297 279.605 291.402 278.685 291.402 277.551C291.402 276.416 292.297 275.497 293.401 275.497L299.266 275.497C300.37 275.497 301.265 276.416 301.265 277.551C301.265 277.929 301.563 278.235 301.931 278.235C302.299 278.235 302.598 277.929 302.598 277.551C302.598 275.66 301.106 274.127 299.266 274.127L293.401 274.127C291.561 274.127 290.069 275.66 290.069 277.551Z" fill="#AAB4BE"/>
<rect x="180" y="256" width="73" height="43" rx="8" fill="#F2F5F6"/>
<rect x="180" y="306" width="73" height="8" rx="4" fill="#F2F5F6"/>
<rect x="180" y="319" width="49" height="4" rx="2" fill="#F2F5F6"/>
<path d="M424 131H184C181.791 131 180 132.791 180 135C180 137.209 181.791 139 184 139H424C426.209 139 428 137.209 428 135C428 132.791 426.209 131 424 131Z" fill="#F2F5F6"/>
<rect x="206" y="149" width="210" height="9" rx="4.5" fill="#EBEFF2"/>
<rect x="206" y="166" width="174" height="5" rx="2.5" fill="#EBEFF2"/>
<rect x="181.086" y="150.086" width="16.8272" height="15.8272" rx="2.17279" stroke="#EBEFF2" stroke-width="2.17279"/>
<path opacity="0.1" d="M257.232 415.071C277.243 415.071 293.465 412.674 293.465 409.718C293.465 406.761 277.243 404.364 257.232 404.364C237.222 404.364 221 406.761 221 409.718C221 412.674 237.222 415.071 257.232 415.071Z" fill="#0061BF"/>
<path d="M261.597 366.939C261.08 369.132 260.532 371.289 260.425 373.54C260.488 373.651 260.474 374.06 260.425 373.949C260.425 374.314 259.859 374.247 259.859 373.887C259.859 373.656 259.859 373.42 259.859 373.198C258.567 371.592 256.691 370.578 255.177 369.194C253.957 368.1 253.068 366.687 252.61 365.116C251.354 360.788 252.53 356.22 251.02 351.883C249.714 348.164 247.375 344.926 245.397 341.555C243.307 337.996 241.765 334.242 241.609 330.065C241.489 326.867 241.868 322.606 244.309 320.213C246.894 317.669 250.102 319.573 252.084 321.841C257.823 328.42 260.479 336.733 261.552 345.233C262.145 349.939 262.76 354.672 262.617 359.418C262.528 361.952 262.186 364.472 261.597 366.939Z" fill="#B7DBFF"/>
<path opacity="0.4" d="M260.439 375.27C260.753 370.825 260.701 366.362 260.283 361.926C260.284 361.911 260.284 361.896 260.283 361.881C260.354 358.278 260.64 354.689 260.497 351.082C260.322 347.186 259.791 343.315 258.911 339.517C258.911 339.472 258.831 339.486 258.84 339.517C259.543 343.255 259.963 347.04 260.096 350.841C260.167 352.879 260.151 354.914 260.047 356.948C260.011 357.611 259.949 358.283 259.904 358.946C258.406 348.831 254.743 339.157 249.167 330.581C249.095 330.465 248.886 330.581 248.957 330.71C252.94 337.228 255.889 344.322 257.699 351.74C254.936 346.634 250.766 342.435 247.674 337.529C247.674 337.502 247.612 337.529 247.625 337.555C250.405 343.022 254.999 347.341 257.926 352.71C258.43 354.902 258.848 357.117 259.156 359.346C259.57 362.401 259.793 365.479 259.824 368.562C258.14 365.426 256.393 362.424 255.021 359.106C255.017 359.097 255.012 359.089 255.005 359.082C254.998 359.076 254.99 359.071 254.981 359.067C254.972 359.064 254.963 359.062 254.953 359.062C254.944 359.062 254.934 359.064 254.925 359.068C254.917 359.072 254.909 359.077 254.902 359.084C254.895 359.091 254.89 359.099 254.887 359.108C254.883 359.117 254.881 359.126 254.881 359.136C254.882 359.145 254.884 359.155 254.887 359.164C256.055 362.611 257.628 366.325 259.833 369.265C259.833 371.447 259.772 373.63 259.65 375.812C259.307 381.63 258.314 387.377 257.868 393.16C257.864 393.195 257.874 393.231 257.896 393.258C257.918 393.286 257.951 393.304 257.986 393.309C258.022 393.313 258.057 393.303 258.085 393.28C258.113 393.258 258.131 393.226 258.136 393.191C259.31 387.276 260.08 381.289 260.439 375.27Z" fill="#3588D8"/>
<path opacity="0.4" d="M254.264 330.395C254.264 330.355 254.183 330.395 254.197 330.426C255.262 333.366 255.863 336.342 256.634 339.353C256.642 339.379 256.658 339.402 256.681 339.416C256.704 339.431 256.732 339.436 256.759 339.432C256.786 339.428 256.81 339.413 256.827 339.392C256.845 339.371 256.853 339.345 256.852 339.317C256.54 336.262 255.449 333.215 254.264 330.395Z" fill="#3588D8"/>
<path d="M281.294 342.72C280.584 344.443 279.767 346.12 278.848 347.742C276.928 351.216 274.932 354.414 274.566 358.448C274.406 360.254 274.348 362.069 273.796 363.786C273.295 365.283 272.575 366.699 271.657 367.985C269.581 371.005 266.983 373.611 265.058 376.747C263.054 380.016 261.573 383.577 260.67 387.302C260.625 387.507 260.304 387.449 260.349 387.249C260.351 387.233 260.351 387.216 260.349 387.2C260.346 387.194 260.345 387.187 260.345 387.18C260.345 387.173 260.346 387.166 260.349 387.16C260.041 378.482 260.736 369.737 263.388 361.424C264.557 357.771 265.962 354.198 267.594 350.726C269.015 347.715 270.784 344.815 273.279 342.564C274.896 341.11 278.403 338.352 280.706 339.811C281.825 340.523 281.731 341.63 281.294 342.72Z" fill="#B7DBFF"/>
<path opacity="0.4" d="M272.562 362.385C271.028 364.902 269.341 367.324 267.51 369.635C266.668 370.729 265.817 371.819 264.974 372.917C264.578 373.433 264.132 373.949 263.767 374.51C263.999 373.598 264.213 372.682 264.453 371.77C265.576 367.389 266.654 362.963 268.325 358.751C269.956 354.627 272.13 350.744 274.358 346.937C274.42 346.839 274.255 346.763 274.197 346.861C272.362 349.877 270.495 352.888 268.953 356.068C268.099 357.842 267.355 359.666 266.725 361.531C267.435 357.575 268.425 353.675 269.688 349.859C269.688 349.823 269.653 349.801 269.639 349.837C267.978 353.696 266.939 357.792 266.561 361.975C266.183 363.102 265.834 364.239 265.514 365.387C264.146 370.24 262.943 375.146 261.829 380.065C261.809 376.829 262.09 373.598 262.666 370.413C262.666 370.342 262.568 370.324 262.551 370.413C261.703 373.733 261.42 377.172 261.713 380.586C261.291 382.46 260.88 384.332 260.479 386.204C259.628 390.207 258.576 394.277 258.077 398.338C258.076 398.348 258.076 398.359 258.078 398.369C258.081 398.38 258.085 398.389 258.091 398.398C258.098 398.407 258.105 398.414 258.114 398.42C258.123 398.426 258.134 398.429 258.144 398.431C258.155 398.433 258.165 398.432 258.176 398.43C258.186 398.428 258.196 398.423 258.205 398.417C258.213 398.411 258.221 398.403 258.226 398.394C258.232 398.385 258.236 398.375 258.238 398.364C258.835 396.176 259.196 393.916 259.681 391.692C260.167 389.468 260.675 387.244 261.192 385.02C261.949 381.791 262.733 378.569 263.544 375.355C264.083 374.176 265.121 373.131 265.901 372.143C266.757 371.058 267.612 369.973 268.445 368.87C270.008 366.829 271.407 364.668 272.629 362.407C272.665 362.371 272.589 362.34 272.562 362.385Z" fill="#3588D8"/>
<path opacity="0.4" d="M272.913 358.675C271.016 361.114 269.373 363.74 268.012 366.512C268.012 366.548 268.047 366.588 268.07 366.552C269.732 363.95 271.367 361.326 273.029 358.724C273.033 358.679 272.962 358.635 272.913 358.675Z" fill="#3588D8"/>
<path d="M235.933 350.939C237.06 352.879 238.343 355.2 237.862 357.527C237.555 358.999 236.476 360.195 236.28 361.694C235.835 365.008 239.15 367.201 241.547 368.767C247.513 372.677 255.698 376.159 256.785 384.143C256.825 384.428 257.315 384.357 257.279 384.077C257.283 384.061 257.283 384.044 257.279 384.028C257.279 384.028 257.31 384.001 257.31 383.979C258.091 379.948 258.053 375.802 257.199 371.787C256.308 367.673 254.526 363.976 252.387 360.36C248.796 354.244 244.991 347.977 239.56 343.293C238.058 341.999 234.979 339.664 233.767 342.59C232.605 345.437 234.552 348.577 235.933 350.939Z" fill="#B7DBFF"/>
<path opacity="0.4" d="M241.396 363.91C245.352 368.184 251.644 370.582 255.048 375.372C253.029 368.033 249.701 361.428 244.555 355.694C244.532 355.664 244.521 355.627 244.524 355.59C244.527 355.553 244.543 355.517 244.569 355.491C244.596 355.464 244.631 355.448 244.669 355.446C244.706 355.443 244.743 355.454 244.773 355.476C248.417 359.01 251.331 363.224 253.35 367.877C252.41 364.628 251.173 361.472 249.656 358.448C249.648 358.425 249.648 358.4 249.656 358.378C249.664 358.355 249.68 358.336 249.701 358.324C249.721 358.312 249.746 358.307 249.769 358.311C249.793 358.315 249.815 358.327 249.83 358.345C251.711 361.652 253.054 365.236 253.809 368.963C258.3 379.807 258.71 392.537 257.774 403.96C257.774 404.124 257.512 404.129 257.516 403.96C257.774 394.952 257.627 385.785 255.467 376.987C255.422 376.8 255.368 376.622 255.324 376.44C251.617 371.28 245.352 368.878 241.325 363.985C241.28 363.932 241.351 363.861 241.396 363.91Z" fill="#3588D8"/>
<path opacity="0.4" d="M240.477 360.236C242.553 362.139 244.598 364.083 246.679 365.987C246.679 365.987 246.679 366.04 246.647 366.027C244.295 364.439 242.176 362.532 240.352 360.36C240.339 360.343 240.333 360.322 240.334 360.3C240.336 360.279 240.345 360.259 240.36 360.244C240.375 360.229 240.395 360.22 240.417 360.218C240.438 360.216 240.459 360.223 240.477 360.236Z" fill="#3588D8"/>
<path opacity="0.4" d="M240.148 351.994C241.994 355.002 244.08 357.856 246.385 360.529C246.389 360.533 246.391 360.537 246.393 360.541C246.394 360.546 246.395 360.55 246.395 360.555C246.395 360.56 246.394 360.565 246.392 360.569C246.389 360.573 246.387 360.577 246.383 360.58C246.38 360.584 246.376 360.586 246.371 360.588C246.367 360.589 246.362 360.59 246.357 360.59C246.352 360.59 246.348 360.588 246.343 360.586C246.339 360.584 246.335 360.582 246.332 360.578C243.745 358.133 241.614 355.249 240.036 352.06C240.032 352.046 240.032 352.031 240.038 352.017C240.043 352.003 240.053 351.991 240.066 351.983C240.079 351.975 240.094 351.972 240.108 351.974C240.123 351.976 240.137 351.983 240.148 351.994Z" fill="#3588D8"/>
<path d="M249.176 406.569C249.006 407.773 249.94 408.849 251.156 408.849H266.195C267.397 408.849 268.327 407.796 268.18 406.603L266.03 389.253C265.906 388.251 265.055 387.499 264.045 387.499H253.61C252.614 387.499 251.769 388.232 251.63 389.219L249.176 406.569Z" fill="#4991FF"/>
<path d="M103.23 117V110H104.29V116.16H107.47V117H103.23ZM109.17 111.1C108.97 111.1 108.804 111.04 108.67 110.92C108.544 110.793 108.48 110.637 108.48 110.45C108.48 110.263 108.544 110.11 108.67 109.99C108.804 109.863 108.97 109.8 109.17 109.8C109.37 109.8 109.534 109.863 109.66 109.99C109.794 110.11 109.86 110.263 109.86 110.45C109.86 110.637 109.794 110.793 109.66 110.92C109.534 111.04 109.37 111.1 109.17 111.1ZM108.64 117V112.04H109.7V117H108.64ZM111.1 117V112.04H112.04L112.12 112.91C112.273 112.603 112.496 112.363 112.79 112.19C113.09 112.01 113.433 111.92 113.82 111.92C114.42 111.92 114.89 112.107 115.23 112.48C115.576 112.853 115.75 113.41 115.75 114.15V117H114.7V114.26C114.7 113.3 114.306 112.82 113.52 112.82C113.126 112.82 112.8 112.96 112.54 113.24C112.286 113.52 112.16 113.92 112.16 114.44V117H111.1ZM116.998 117V109.8H118.058V114.09L119.958 112.04H121.228L119.118 114.29L121.538 117H120.198L118.058 114.46V117H116.998ZM124.919 117V110H127.559C128.286 110 128.836 110.17 129.209 110.51C129.582 110.85 129.769 111.277 129.769 111.79C129.769 112.237 129.649 112.593 129.409 112.86C129.169 113.12 128.879 113.297 128.539 113.39C128.806 113.443 129.042 113.55 129.249 113.71C129.462 113.87 129.629 114.07 129.749 114.31C129.869 114.55 129.929 114.81 129.929 115.09C129.929 115.45 129.839 115.777 129.659 116.07C129.486 116.357 129.229 116.583 128.889 116.75C128.549 116.917 128.132 117 127.639 117H124.919ZM125.979 113H127.429C127.836 113 128.146 112.907 128.359 112.72C128.572 112.527 128.679 112.263 128.679 111.93C128.679 111.603 128.572 111.343 128.359 111.15C128.152 110.957 127.836 110.86 127.409 110.86H125.979V113ZM125.979 116.13H127.499C127.926 116.13 128.256 116.03 128.489 115.83C128.729 115.63 128.849 115.35 128.849 114.99C128.849 114.63 128.726 114.347 128.479 114.14C128.232 113.927 127.899 113.82 127.479 113.82H125.979V116.13ZM132.881 117.12C132.281 117.12 131.808 116.933 131.461 116.56C131.121 116.187 130.951 115.63 130.951 114.89V112.04H132.011V114.78C132.011 115.74 132.404 116.22 133.191 116.22C133.584 116.22 133.908 116.08 134.161 115.8C134.414 115.52 134.541 115.12 134.541 114.6V112.04H135.601V117H134.661L134.581 116.13C134.428 116.437 134.201 116.68 133.901 116.86C133.608 117.033 133.268 117.12 132.881 117.12ZM137.549 111.1C137.349 111.1 137.183 111.04 137.049 110.92C136.923 110.793 136.859 110.637 136.859 110.45C136.859 110.263 136.923 110.11 137.049 109.99C137.183 109.863 137.349 109.8 137.549 109.8C137.749 109.8 137.913 109.863 138.039 109.99C138.173 110.11 138.239 110.263 138.239 110.45C138.239 110.637 138.173 110.793 138.039 110.92C137.913 111.04 137.749 111.1 137.549 111.1ZM137.019 117V112.04H138.079V117H137.019ZM139.479 117V109.8H140.539V117H139.479ZM144.141 117.12C143.661 117.12 143.238 117.007 142.871 116.78C142.504 116.553 142.218 116.243 142.011 115.85C141.804 115.457 141.701 115.01 141.701 114.51C141.701 114.01 141.804 113.567 142.011 113.18C142.218 112.787 142.504 112.48 142.871 112.26C143.244 112.033 143.671 111.92 144.151 111.92C144.544 111.92 144.888 111.997 145.181 112.15C145.481 112.303 145.714 112.52 145.881 112.8V109.8H146.941V117H145.991L145.881 116.23C145.721 116.463 145.501 116.67 145.221 116.85C144.941 117.03 144.581 117.12 144.141 117.12ZM144.331 116.2C144.784 116.2 145.154 116.043 145.441 115.73C145.734 115.417 145.881 115.013 145.881 114.52C145.881 114.02 145.734 113.617 145.441 113.31C145.154 112.997 144.784 112.84 144.331 112.84C143.878 112.84 143.504 112.997 143.211 113.31C142.918 113.617 142.771 114.02 142.771 114.52C142.771 114.847 142.838 115.137 142.971 115.39C143.104 115.643 143.288 115.843 143.521 115.99C143.761 116.13 144.031 116.2 144.331 116.2ZM148.877 111.1C148.677 111.1 148.511 111.04 148.377 110.92C148.251 110.793 148.187 110.637 148.187 110.45C148.187 110.263 148.251 110.11 148.377 109.99C148.511 109.863 148.677 109.8 148.877 109.8C149.077 109.8 149.241 109.863 149.367 109.99C149.501 110.11 149.567 110.263 149.567 110.45C149.567 110.637 149.501 110.793 149.367 110.92C149.241 111.04 149.077 111.1 148.877 111.1ZM148.347 117V112.04H149.407V117H148.347ZM150.807 117V112.04H151.747L151.827 112.91C151.98 112.603 152.203 112.363 152.497 112.19C152.797 112.01 153.14 111.92 153.527 111.92C154.127 111.92 154.597 112.107 154.937 112.48C155.283 112.853 155.457 113.41 155.457 114.15V117H154.407V114.26C154.407 113.3 154.013 112.82 153.227 112.82C152.833 112.82 152.507 112.96 152.247 113.24C151.993 113.52 151.867 113.92 151.867 114.44V117H150.807ZM158.735 115.48C158.475 115.48 158.235 115.45 158.015 115.39L157.585 115.81C157.658 115.857 157.748 115.897 157.855 115.93C157.962 115.963 158.112 115.993 158.305 116.02C158.498 116.047 158.762 116.073 159.095 116.1C159.755 116.16 160.232 116.32 160.525 116.58C160.818 116.833 160.965 117.173 160.965 117.6C160.965 117.893 160.885 118.17 160.725 118.43C160.572 118.697 160.328 118.91 159.995 119.07C159.668 119.237 159.248 119.32 158.735 119.32C158.042 119.32 157.478 119.187 157.045 118.92C156.618 118.66 156.405 118.263 156.405 117.73C156.405 117.523 156.458 117.317 156.565 117.11C156.678 116.91 156.855 116.72 157.095 116.54C156.955 116.48 156.832 116.417 156.725 116.35C156.625 116.277 156.535 116.203 156.455 116.13V115.89L157.315 115.01C156.928 114.677 156.735 114.24 156.735 113.7C156.735 113.373 156.812 113.077 156.965 112.81C157.125 112.537 157.355 112.32 157.655 112.16C157.955 112 158.315 111.92 158.735 111.92C159.015 111.92 159.275 111.96 159.515 112.04H161.365V112.74L160.485 112.79C160.645 113.063 160.725 113.367 160.725 113.7C160.725 114.033 160.645 114.333 160.485 114.6C160.332 114.867 160.105 115.08 159.805 115.24C159.512 115.4 159.155 115.48 158.735 115.48ZM158.735 114.65C159.042 114.65 159.288 114.57 159.475 114.41C159.668 114.243 159.765 114.01 159.765 113.71C159.765 113.403 159.668 113.17 159.475 113.01C159.288 112.85 159.042 112.77 158.735 112.77C158.422 112.77 158.168 112.85 157.975 113.01C157.788 113.17 157.695 113.403 157.695 113.71C157.695 114.01 157.788 114.243 157.975 114.41C158.168 114.57 158.422 114.65 158.735 114.65ZM157.405 117.63C157.405 117.917 157.532 118.13 157.785 118.27C158.038 118.417 158.355 118.49 158.735 118.49C159.102 118.49 159.398 118.41 159.625 118.25C159.852 118.097 159.965 117.89 159.965 117.63C159.965 117.437 159.888 117.27 159.735 117.13C159.582 116.997 159.292 116.913 158.865 116.88C158.545 116.86 158.262 116.83 158.015 116.79C157.782 116.917 157.622 117.053 157.535 117.2C157.448 117.347 157.405 117.49 157.405 117.63ZM163.081 114.93L163.041 113.3H163.421C163.781 113.3 164.111 113.267 164.411 113.2C164.717 113.133 164.961 113.003 165.141 112.81C165.327 112.617 165.421 112.33 165.421 111.95C165.421 111.583 165.307 111.297 165.081 111.09C164.854 110.877 164.557 110.77 164.191 110.77C163.811 110.77 163.511 110.873 163.291 111.08C163.071 111.287 162.961 111.567 162.961 111.92H161.961C161.954 111.52 162.041 111.167 162.221 110.86C162.407 110.553 162.667 110.313 163.001 110.14C163.341 109.967 163.737 109.88 164.191 109.88C164.631 109.88 165.021 109.963 165.361 110.13C165.701 110.297 165.964 110.537 166.151 110.85C166.344 111.157 166.441 111.527 166.441 111.96C166.441 112.433 166.337 112.823 166.131 113.13C165.924 113.43 165.641 113.653 165.281 113.8C164.921 113.94 164.507 114.01 164.041 114.01L164.011 114.93H163.081ZM163.551 117.06C163.344 117.06 163.177 116.997 163.051 116.87C162.924 116.737 162.861 116.58 162.861 116.4C162.861 116.213 162.924 116.057 163.051 115.93C163.177 115.797 163.344 115.73 163.551 115.73C163.744 115.73 163.904 115.797 164.031 115.93C164.164 116.057 164.231 116.213 164.231 116.4C164.231 116.58 164.164 116.737 164.031 116.87C163.904 116.997 163.744 117.06 163.551 117.06Z" fill="#AAB4BE"/>
<path opacity="0.2" d="M492.736 92.3027H494.24C494.24 96.7062 497.802 100.275 502.194 100.275V101.783C497.801 101.783 494.24 105.353 494.24 109.756H492.736C492.736 105.353 489.174 101.783 484.781 101.783V100.275C489.174 100.275 492.736 96.7052 492.736 92.3027Z" fill="url(#paint4_linear_15095_28478)"/>
<path d="M478.869 70H479.246C479.246 74.4035 482.807 77.9731 487.199 77.9731V78.3504C482.806 78.3504 479.245 81.92 479.245 86.3234H478.869C478.869 81.92 475.307 78.3504 470.914 78.3504V77.9731C475.308 77.9731 478.869 74.4035 478.869 70Z" fill="url(#paint5_linear_15095_28478)"/>
<path opacity="0.2" d="M466.696 119.625C466.696 123.885 470.141 127.339 474.392 127.339C470.141 127.339 466.696 130.792 466.696 135.053C466.696 130.792 463.25 127.339 459 127.339C463.25 127.338 466.696 123.885 466.696 119.625Z" fill="url(#paint6_linear_15095_28478)"/>
<g opacity="0.5">
<path opacity="0.3" d="M174.344 388.109C174.259 388.109 174.174 388.094 174.09 388.063C155.939 381.293 139.509 371.614 125.255 359.296C124.949 359.031 124.913 358.565 125.177 358.257C125.44 357.948 125.902 357.913 126.208 358.178C140.331 370.383 156.611 379.972 174.598 386.681C174.977 386.823 175.171 387.247 175.03 387.628C174.921 387.925 174.641 388.109 174.344 388.109Z" fill="#051F39"/>
<path opacity="0.3" d="M204.957 385.566C204.917 385.566 204.877 385.563 204.836 385.556C181.192 381.612 159.761 372.814 141.138 359.408C140.809 359.171 140.734 358.711 140.969 358.38C141.204 358.05 141.661 357.973 141.99 358.21C160.428 371.484 181.654 380.195 205.075 384.103C205.474 384.17 205.744 384.549 205.678 384.95C205.618 385.311 205.308 385.566 204.957 385.566Z" fill="#051F39"/>
<path opacity="0.3" d="M162.33 390.757C161.713 391.101 161.116 391.308 160.454 391.449C159.802 391.585 159.107 391.631 158.416 391.502C158.072 391.438 157.73 391.34 157.403 391.201C157.238 391.118 157.089 391.068 156.912 390.954L156.651 390.776L156.435 390.578C155.885 390.037 155.59 389.462 155.281 388.918C154.982 388.373 154.708 387.846 154.404 387.37C154.102 386.895 153.767 386.47 153.388 386.192C152.754 385.655 151.557 385.746 150.358 385.817C149.751 385.852 149.12 385.893 148.45 385.849C147.789 385.802 147.047 385.672 146.376 385.228C146.003 384.96 145.732 384.603 145.572 384.274C145.4 383.94 145.289 383.615 145.195 383.299C145.012 382.667 144.896 382.06 144.758 381.485C144.621 380.92 144.468 380.348 144.23 379.977C144.113 379.783 144.004 379.704 143.817 379.591C143.638 379.49 143.402 379.432 143.155 379.388C142.643 379.318 142.068 379.343 141.469 379.387C141.17 379.408 140.861 379.433 140.535 379.441C140.207 379.444 139.868 379.461 139.43 379.317C139.142 379.223 138.984 378.911 139.078 378.621C139.171 378.334 139.474 378.176 139.76 378.264L139.789 378.273C139.932 378.317 140.212 378.322 140.487 378.301C140.766 378.282 141.06 378.247 141.365 378.214C141.971 378.147 142.613 378.081 143.308 378.146C143.658 378.193 144.023 378.26 144.388 378.437C144.736 378.605 145.112 378.922 145.313 379.253C145.739 379.911 145.887 380.547 146.058 381.155C146.217 381.762 146.346 382.352 146.516 382.888C146.675 383.427 146.928 383.889 147.16 384.046C147.511 384.276 148.002 384.386 148.542 384.417C149.083 384.449 149.665 384.412 150.267 384.372C150.871 384.333 151.496 384.28 152.173 384.317C152.512 384.341 152.863 384.376 153.232 384.489L153.507 384.576L153.782 384.709C153.977 384.794 154.112 384.912 154.268 385.02C154.863 385.475 155.273 386.043 155.618 386.594C155.963 387.149 156.243 387.708 156.524 388.234C156.806 388.749 157.087 389.271 157.4 389.596L157.515 389.712L157.628 389.793C157.7 389.852 157.841 389.907 157.943 389.966C158.171 390.073 158.412 390.152 158.662 390.209C159.654 390.428 160.834 390.216 161.803 389.788L161.845 389.77C162.122 389.647 162.445 389.775 162.566 390.054C162.681 390.316 162.574 390.621 162.33 390.757Z" fill="#051F39"/>
</g>
<g opacity="0.5">
<path opacity="0.3" d="M311.345 32.4694C311.43 32.4694 311.516 32.4843 311.6 32.5155C329.75 39.2852 346.181 48.9638 360.434 61.2825C360.741 61.5475 360.776 62.0128 360.513 62.3213C360.249 62.6304 359.787 62.6651 359.481 62.4003C345.359 50.1954 329.078 40.6057 311.091 33.8968C310.712 33.7554 310.519 33.3315 310.659 32.95C310.769 32.6534 311.048 32.4694 311.345 32.4694Z" fill="#051F39"/>
<path opacity="0.3" d="M280.733 35.0117C280.772 35.0117 280.813 35.0148 280.853 35.0217C304.498 38.9662 325.929 47.764 344.551 61.17C344.88 61.4068 344.956 61.8667 344.721 62.1976C344.486 62.5284 344.028 62.6052 343.7 62.3682C325.261 49.0943 304.036 40.3827 280.614 36.4751C280.215 36.4086 279.946 36.0293 280.011 35.6279C280.071 35.2673 280.381 35.0117 280.733 35.0117Z" fill="#051F39"/>
<path opacity="0.3" d="M323.359 29.8208C323.976 29.4771 324.574 29.27 325.236 29.129C325.888 28.9936 326.582 28.9475 327.273 29.0765C327.618 29.1406 327.959 29.2386 328.286 29.3773C328.451 29.4604 328.6 29.5099 328.777 29.6246L329.038 29.8025L329.255 29.9996C329.804 30.5411 330.099 31.1163 330.408 31.6599C330.707 32.2047 330.982 32.7321 331.286 33.2083C331.588 33.6836 331.922 34.1085 332.302 34.3865C332.935 34.9228 334.133 34.8321 335.331 34.7609C335.938 34.7257 336.569 34.6853 337.239 34.729C337.901 34.776 338.642 34.9065 339.314 35.3506C339.686 35.6185 339.957 35.9747 340.118 36.3041C340.289 36.6381 340.4 36.9631 340.494 37.2793C340.678 37.9112 340.794 38.5177 340.932 39.0932C341.068 39.658 341.221 40.2303 341.46 40.6007C341.577 40.7947 341.686 40.874 341.872 40.9876C342.051 41.088 342.287 41.1457 342.534 41.19C343.047 41.2606 343.621 41.2352 344.22 41.1909C344.519 41.1702 344.829 41.1452 345.155 41.1368C345.483 41.1343 345.821 41.1172 346.26 41.2611C346.548 41.3555 346.705 41.6671 346.612 41.957C346.519 42.2437 346.215 42.4018 345.93 42.3145L345.901 42.3054C345.758 42.2615 345.477 42.2559 345.203 42.2776C344.923 42.296 344.629 42.3308 344.324 42.3644C343.718 42.4315 343.076 42.4976 342.381 42.4319C342.031 42.3853 341.666 42.3181 341.302 42.1408C340.954 41.9735 340.577 41.6564 340.376 41.3254C339.95 40.6675 339.802 40.0312 339.631 39.4232C339.472 38.8159 339.343 38.2257 339.174 37.6898C339.015 37.1511 338.762 36.6894 338.529 36.5323C338.178 36.3021 337.687 36.192 337.147 36.1611C336.606 36.129 336.024 36.1662 335.422 36.2065C334.819 36.2453 334.193 36.2978 333.517 36.2613C333.177 36.237 332.826 36.2023 332.457 36.0887L332.183 36.0021L331.907 35.8693C331.712 35.7838 331.577 35.6662 331.421 35.5584C330.827 35.1027 330.417 34.5355 330.072 33.9842C329.727 33.4292 329.447 32.8698 329.165 32.3439C328.883 31.8288 328.602 31.3069 328.29 30.9824L328.175 30.8664L328.062 30.7847C327.989 30.7261 327.849 30.6711 327.746 30.6118C327.518 30.5051 327.277 30.4263 327.028 30.3693C326.036 30.1504 324.856 30.3626 323.887 30.79L323.845 30.8085C323.568 30.9308 323.245 30.8036 323.123 30.5246C323.008 30.2622 323.116 29.9575 323.359 29.8208Z" fill="#051F39"/>
</g>
<path opacity="0.2" d="M43.4704 125.552H39.8256V121.907C39.8256 121.157 39.1824 120.514 38.432 120.514C37.6816 120.514 37.0384 121.157 37.0384 121.907V125.552H33.3936C32.6432 125.552 32 126.195 32 126.946C32 127.696 32.6432 128.339 33.3936 128.339H37.0384V131.984C37.0384 132.734 37.6816 133.378 38.432 133.378C39.1824 133.378 39.8256 132.734 39.8256 131.984V128.339H43.4704C44.2208 128.339 44.864 127.696 44.864 126.946C44.864 126.195 44.2208 125.552 43.4704 125.552Z" fill="#0061BF"/>
<g opacity="0.2">
<path d="M51.2969 101.325C51.2969 104.755 54.0841 107.65 57.6217 107.65C61.0521 107.65 63.9465 104.862 63.9465 101.325C63.9465 97.8944 61.1593 95 57.6217 95C54.1913 95 51.2969 97.7872 51.2969 101.325ZM53.7625 101.325C53.7625 99.1808 55.4777 97.4656 57.6217 97.4656C59.7657 97.4656 61.4809 99.1808 61.4809 101.325C61.4809 103.469 59.7657 105.184 57.6217 105.184C55.4777 105.184 53.7625 103.469 53.7625 101.325Z" fill="#0061BF"/>
</g>
<g opacity="0.2">
<path d="M58.1568 125.336C57.2992 125.336 56.5488 126.086 56.5488 126.944C56.5488 127.802 57.2992 128.552 58.1568 128.552H74.0224C74.88 128.552 75.6304 127.909 75.6304 126.944C75.6304 126.086 74.88 125.336 74.0224 125.336H58.1568Z" fill="#0061BF"/>
</g>
<g opacity="0.2">
<path d="M80.776 125.336C79.9184 125.336 79.168 126.086 79.168 126.944C79.168 127.802 79.9184 128.552 80.776 128.552H83.6704C84.528 128.552 85.2784 127.909 85.2784 126.944C85.2784 126.086 84.528 125.336 83.6704 125.336H80.776Z" fill="#0061BF"/>
</g>
<path d="M63.608 49C62.7504 49 62 49.7504 62 50.608C62 51.4656 62.7504 52.216 63.608 52.216H79.4736C80.3312 52.216 81.0816 51.5728 81.0816 50.608C81.0816 49.7504 80.3312 49 79.4736 49H63.608Z" fill="#A9CBF7"/>
<path d="M86.3346 49C85.477 49 84.7266 49.7504 84.7266 50.608C84.7266 51.4656 85.477 52.216 86.3346 52.216H89.229C90.0866 52.216 90.837 51.5728 90.837 50.608C90.837 49.7504 90.0866 49 89.229 49H86.3346Z" fill="#A9CBF7"/>
<defs>
<filter id="filter0_d_15095_28478" x="41" y="72" width="442" height="318" filterUnits="userSpaceOnUse" color-interpolation-filters="sRGB">
<feFlood flood-opacity="0" result="BackgroundImageFix"/>
<feColorMatrix in="SourceAlpha" type="matrix" values="0 0 0 0 0 0 0 0 0 0 0 0 0 0 0 0 0 0 127 0" result="hardAlpha"/>
<feOffset dy="15"/>
<feGaussianBlur stdDeviation="20"/>
<feComposite in2="hardAlpha" operator="out"/>
<feColorMatrix type="matrix" values="0 0 0 0 0.117647 0 0 0 0 0.129412 0 0 0 0 0.176471 0 0 0 0.07 0"/>
<feBlend mode="normal" in2="BackgroundImageFix" result="effect1_dropShadow_15095_28478"/>
<feBlend mode="normal" in="SourceGraphic" in2="effect1_dropShadow_15095_28478" result="shape"/>
</filter>
<filter id="filter1_d_15095_28478" x="311" y="160" width="178" height="247" filterUnits="userSpaceOnUse" color-interpolation-filters="sRGB">
<feFlood flood-opacity="0" result="BackgroundImageFix"/>
<feColorMatrix in="SourceAlpha" type="matrix" values="0 0 0 0 0 0 0 0 0 0 0 0 0 0 0 0 0 0 127 0" result="hardAlpha"/>
<feOffset dx="-5" dy="10"/>
<feGaussianBlur stdDeviation="15"/>
<feComposite in2="hardAlpha" operator="out"/>
<feColorMatrix type="matrix" values="0 0 0 0 0.117647 0 0 0 0 0.129412 0 0 0 0 0.176471 0 0 0 0.12 0"/>
<feBlend mode="normal" in2="BackgroundImageFix" result="effect1_dropShadow_15095_28478"/>
<feBlend mode="normal" in="SourceGraphic" in2="effect1_dropShadow_15095_28478" result="shape"/>
</filter>
<linearGradient id="paint0_linear_15095_28478" x1="452" y1="46.7126" x2="143.252" y2="376.815" gradientUnits="userSpaceOnUse">
<stop stop-color="#D9ECFF"/>
<stop offset="1" stop-color="#DCEDFF" stop-opacity="0.42"/>
</linearGradient>
<linearGradient id="paint1_linear_15095_28478" x1="492.437" y1="264.852" x2="463.664" y2="264.852" gradientUnits="userSpaceOnUse">
<stop stop-color="#FAB882"/>
<stop offset="1" stop-color="#FF7300"/>
</linearGradient>
<linearGradient id="paint2_linear_15095_28478" x1="466.206" y1="334.194" x2="409.879" y2="334.194" gradientUnits="userSpaceOnUse">
<stop stop-color="#FAB882"/>
<stop offset="1" stop-color="#FF7300"/>
</linearGradient>
<linearGradient id="paint3_linear_15095_28478" x1="514.932" y1="321.6" x2="451.715" y2="321.6" gradientUnits="userSpaceOnUse">
<stop stop-color="#FAB882"/>
<stop offset="1" stop-color="#FF7300"/>
</linearGradient>
<linearGradient id="paint4_linear_15095_28478" x1="502.188" y1="101.129" x2="484.766" y2="101.129" gradientUnits="userSpaceOnUse">
<stop stop-color="#FAB882"/>
<stop offset="1" stop-color="#FF7300"/>
</linearGradient>
<linearGradient id="paint5_linear_15095_28478" x1="487.194" y1="78.2551" x2="470.899" y2="78.2551" gradientUnits="userSpaceOnUse">
<stop stop-color="#FAB882"/>
<stop offset="1" stop-color="#FF7300"/>
</linearGradient>
<linearGradient id="paint6_linear_15095_28478" x1="474.386" y1="127.427" x2="458.986" y2="127.427" gradientUnits="userSpaceOnUse">
<stop stop-color="#FAB882"/>
<stop offset="1" stop-color="#FF7300"/>
</linearGradient>
</defs>
</svg>
