<svg width="520" height="520" viewBox="0 0 520 520" fill="none" xmlns="http://www.w3.org/2000/svg">
<circle opacity="0.14" cx="260" cy="260" r="260" fill="url(#paint0_linear_15188_42181)"/>
<g clip-path="url(#clip0_15188_42181)">
<path d="M381.906 298.304L382.418 297.771L379.198 294.715L378.686 295.248L381.906 298.304ZM375.475 292.175L375.996 291.65C374.95 290.625 373.9 289.568 372.876 288.507L372.341 289.019C373.37 290.084 374.425 291.146 375.475 292.175ZM369.294 285.777L369.843 285.28C368.859 284.205 367.868 283.094 366.897 281.975L366.335 282.457C367.311 283.581 368.306 284.698 369.294 285.777ZM363.463 279.064L364.036 278.596C363.11 277.474 362.176 276.313 361.26 275.147L360.676 275.601C361.595 276.772 362.533 277.937 363.463 279.064ZM357.972 272.073L358.567 271.632C357.696 270.468 356.817 269.266 355.956 268.058L355.351 268.485C356.216 269.698 357.098 270.904 357.972 272.073ZM352.81 264.841L353.424 264.428C352.593 263.208 351.775 261.98 350.969 260.744L350.347 261.144C351.155 262.385 351.976 263.617 352.81 264.841ZM312.167 259.725C313.536 259.725 314.918 259.464 316.164 258.968L315.889 258.284C314.729 258.744 313.442 258.988 312.167 258.988C311.982 258.97 311.846 258.984 311.687 258.977L311.651 259.713C311.823 259.722 312.028 259.711 312.167 259.725ZM307.242 258.464L307.613 257.826C306.391 257.124 305.368 256.097 304.655 254.854L304.011 255.22C304.789 256.577 305.906 257.698 307.242 258.464ZM347.96 257.399L348.59 257.01C347.81 255.759 347.041 254.499 346.284 253.233L345.646 253.61C346.406 254.88 347.177 256.144 347.96 257.399ZM319.923 256.371C320.922 255.304 321.743 254.016 322.365 252.544L321.681 252.258C321.093 253.65 320.319 254.865 319.38 255.869L319.923 256.371ZM302.782 250.823L303.524 250.807L303.522 250.61C303.522 249.504 303.748 248.421 304.177 247.478C304.289 247.231 304.412 246.991 304.545 246.758L303.9 246.394C303.756 246.647 303.622 246.907 303.501 247.174C303.029 248.212 302.78 249.4 302.78 250.611L302.782 250.823ZM343.109 250.05L343.678 249.575C342.716 248.433 341.653 247.358 340.517 246.382L340.032 246.94C341.137 247.891 342.172 248.937 343.109 250.05ZM323.512 248.176C323.596 247.476 323.64 246.758 323.64 246.041C323.64 245.26 323.589 244.462 323.489 243.669L322.752 243.762C322.849 244.524 322.898 245.291 322.898 246.041C322.898 246.729 322.857 247.417 322.775 248.087L323.512 248.176ZM336.495 244.358L336.885 243.73C335.626 242.955 334.283 242.259 332.891 241.664L332.598 242.342C333.955 242.923 335.267 243.601 336.495 244.358ZM307.397 243.597C308.477 242.779 309.752 242.072 311.188 241.497L310.911 240.813C309.414 241.413 308.08 242.152 306.949 243.01L307.397 243.597ZM328.447 240.903L328.642 240.191C327.193 239.799 325.708 239.507 324.228 239.324L324.136 240.056C325.582 240.235 327.033 240.52 328.447 240.903ZM315.388 240.291C316.794 240.025 318.261 239.871 319.75 239.835L319.732 239.098C318.203 239.135 316.695 239.292 315.25 239.566L315.388 240.291ZM321.729 239.545L322.428 239.296C321.922 237.896 321.263 236.533 320.469 235.244L319.837 235.63C320.604 236.876 321.24 238.193 321.729 239.545ZM317.194 232.167L317.738 231.665C317.522 231.434 317.301 231.206 317.074 230.983C316.245 230.167 315.332 229.393 314.359 228.686L313.921 229.281C314.864 229.968 315.749 230.717 316.552 231.508C316.771 231.724 316.986 231.944 317.194 232.167ZM310.173 227.022L310.503 226.361C309.162 225.7 307.753 225.144 306.314 224.706L306.098 225.412C307.498 225.838 308.869 226.379 310.173 227.022ZM301.804 224.312L301.988 223.597C300.538 223.227 299.095 222.841 297.7 222.447L297.498 223.157C298.899 223.552 300.348 223.941 301.804 224.312ZM293.223 221.886L293.446 221.182C292.015 220.735 290.597 220.267 289.233 219.793L288.988 220.49C290.359 220.966 291.785 221.436 293.223 221.886ZM284.799 218.956L285.067 218.268C283.678 217.732 282.297 217.17 280.961 216.596L280.667 217.274C282.012 217.85 283.402 218.416 284.799 218.956ZM276.603 215.435L276.924 214.77L272.922 212.837L272.597 213.5L276.603 215.435ZM268.594 211.564L268.919 210.901L264.916 208.965L264.591 209.629L268.594 211.564ZM260.588 207.694L260.912 207.03L256.91 205.094L256.585 205.758L260.588 207.694ZM252.582 203.822L252.906 203.159L248.903 201.223L248.579 201.887L252.582 203.822ZM244.576 199.951L244.901 199.288L240.897 197.353L240.573 198.016L244.576 199.951Z" fill="#FDC7AD"/>
<path opacity="0.14" d="M258.254 62.7483C258.254 62.9015 258.254 63.0455 258.236 63.1987H160.679C160.933 55.1997 167.933 48.7865 176.519 48.7865C179.272 48.7865 181.853 49.444 184.108 50.5971C183.991 44.3728 186.997 38.4096 192.54 35.2119C200.854 30.4198 211.731 33.6716 216.82 42.481C218.351 45.1384 219.193 47.9938 219.383 50.8312C223.441 48.9845 228.467 47.8857 233.919 47.8857C247.359 47.8854 258.254 54.5422 258.254 62.7483Z" fill="url(#paint1_linear_15188_42181)"/>
<path opacity="0.14" d="M411.68 291.748C411.68 291.902 411.68 292.046 411.698 292.199H509.254C509.001 284.2 502 277.786 493.415 277.786C490.662 277.786 488.08 278.444 485.825 279.597C485.943 273.373 482.936 267.41 477.393 264.212C469.08 259.42 458.203 262.672 453.113 271.481C451.583 274.138 450.74 276.994 450.55 279.831C446.493 277.985 441.467 276.886 436.015 276.886C422.574 276.885 411.68 283.542 411.68 291.748Z" fill="url(#paint2_linear_15188_42181)"/>
<g filter="url(#filter0_d_15188_42181)">
<rect x="49.0977" y="90.3115" width="199.18" height="156.689" rx="13.2251" fill="white"/>
</g>
<mask id="mask0_15188_42181" style="mask-type:luminance" maskUnits="userSpaceOnUse" x="51" y="127" width="197" height="120">
<path d="M248 231.532C248 240.074 241.27 247 232.97 247H66.0298C57.7299 247 51 240.074 51 231.532V127H248V231.532Z" fill="white"/>
</mask>
<g mask="url(#mask0_15188_42181)">
<path d="M248 231.532C248 240.074 241.27 247 232.97 247H66.0298C57.7299 247 51 240.074 51 231.532V127H248V231.532Z" fill="white"/>
</g>
<mask id="mask1_15188_42181" style="mask-type:luminance" maskUnits="userSpaceOnUse" x="51" y="127" width="197" height="120">
<path d="M248 231.532C248 240.074 241.27 247 232.97 247H66.0298C57.7299 247 51 240.074 51 231.532V127H248V231.532Z" fill="white"/>
</mask>
<g mask="url(#mask1_15188_42181)">
<path d="M258.308 153.655C256.005 146.056 248.72 140.224 240.76 139.607C232.8 138.989 224.676 143.626 221.192 150.776C216.957 150.735 212.783 153.153 210.725 156.837C208.667 160.522 208.813 165.319 211.09 168.867C206.046 169.767 201.518 173.182 199.286 177.771C197.054 182.36 197.176 188.006 199.602 192.489C194.052 189.584 186.953 189.848 181.626 193.158C176.299 196.468 172.944 202.699 173.13 208.937C169.673 203.355 163.042 199.876 156.451 200.185C149.861 200.495 143.577 204.579 140.645 210.461C137.55 200.933 129.3 193.241 119.538 190.783C109.775 188.325 98.8227 191.181 91.5173 198.09C80.5298 199.86 72.5212 212.138 75.3839 222.826C69.4482 227.881 66.4148 236.099 67.6556 243.763C68.8964 251.427 74.3686 258.27 81.5966 261.198L270.651 261.071L286.768 186.84L258.308 153.655Z" fill="#EAF4FE"/>
</g>
<mask id="mask2_15188_42181" style="mask-type:luminance" maskUnits="userSpaceOnUse" x="51" y="127" width="197" height="120">
<path d="M248 231.532C248 240.074 241.27 247 232.97 247H66.0298C57.7299 247 51 240.074 51 231.532V127H248V231.532Z" fill="white"/>
</mask>
<g mask="url(#mask2_15188_42181)">
<g opacity="0.8">
<path d="M261.31 178.307C259.08 170.707 252.037 164.869 244.345 164.245C236.654 163.621 228.809 168.251 225.449 175.398C221.357 175.354 217.326 177.768 215.341 181.451C213.356 185.133 213.5 189.931 215.703 193.481C210.83 194.376 206.458 197.788 204.305 202.375C202.153 206.962 202.274 212.608 204.622 217.092C199.257 214.183 192.399 214.441 187.255 217.746C182.111 221.052 178.875 227.28 179.059 233.518C175.714 227.934 169.306 224.45 162.938 224.753C156.571 225.057 150.503 229.137 147.674 235.015C144.678 225.485 136.701 217.787 127.267 215.321C117.833 212.855 107.254 215.702 100.201 222.605C89.5866 224.365 81.8585 236.637 84.6324 247.327C78.9017 252.377 75.9771 260.593 77.1818 268.257C78.3865 275.922 83.6787 282.77 90.6642 285.703L273.318 285.731L288.832 211.515L261.31 178.307Z" fill="white"/>
</g>
</g>
<mask id="mask3_15188_42181" style="mask-type:luminance" maskUnits="userSpaceOnUse" x="51" y="127" width="197" height="120">
<path d="M248 231.532C248 240.074 241.27 247 232.97 247H66.0298C57.7299 247 51 240.074 51 231.532V127H248V231.532Z" fill="white"/>
</mask>
<g mask="url(#mask3_15188_42181)">
<path d="M187.57 168.372C187.5 170.046 187.572 172.872 189.197 173.841C191.91 175.457 194.044 171.533 195.04 169.56C196.228 167.204 195.924 164.281 193.238 163.231C189.688 161.844 187.701 165.248 187.57 168.372Z" fill="#EAF4FE"/>
</g>
<mask id="mask4_15188_42181" style="mask-type:luminance" maskUnits="userSpaceOnUse" x="51" y="127" width="197" height="120">
<path d="M248 231.532C248 240.074 241.27 247 232.97 247H66.0298C57.7299 247 51 240.074 51 231.532V127H248V231.532Z" fill="white"/>
</mask>
<g mask="url(#mask4_15188_42181)">
<path d="M58.9352 219.202C58.8653 220.876 58.9373 223.703 60.5618 224.671C63.2749 226.288 65.4089 222.363 66.4047 220.39C67.5931 218.034 67.2891 215.111 64.6027 214.061C61.0536 212.674 59.0659 216.078 58.9352 219.202Z" fill="#EAF4FE"/>
</g>
<mask id="mask5_15188_42181" style="mask-type:luminance" maskUnits="userSpaceOnUse" x="51" y="127" width="197" height="120">
<path d="M248 231.532C248 240.074 241.27 247 232.97 247H66.0298C57.7299 247 51 240.074 51 231.532V127H248V231.532Z" fill="white"/>
</mask>
<g mask="url(#mask5_15188_42181)">
<path d="M201.986 151.774C200.731 151.774 199.713 150.726 199.713 149.434C199.713 148.142 200.731 147.095 201.986 147.095C203.242 147.095 204.26 148.142 204.26 149.434C204.26 150.726 203.242 151.774 201.986 151.774Z" fill="#EAF4FE"/>
</g>
<path d="M86.3766 195.219C84.4649 195.219 82.9152 193.624 82.9152 191.657C82.9152 189.69 84.4649 188.095 86.3766 188.095C88.2882 188.095 89.8379 189.69 89.8379 191.657C89.8379 193.624 88.2882 195.219 86.3766 195.219Z" fill="#EAF4FE"/>
<path d="M247.835 121.295H49.9824" stroke="#EBEFF2"/>
<path opacity="0.1" d="M92.2693 114.256C97.3761 109.718 105.098 109.847 110.203 114.388C156.824 155.847 192.375 169.95 234.108 175.621C240.523 176.493 245.557 181.673 245.963 188.135L247.909 219.091C248.283 225.049 244.619 230.52 238.966 232.442L198.92 246.055C197.428 246.562 195.857 246.817 194.286 246.694C152.224 243.42 111.945 185.994 85.3648 133.239C82.7093 127.969 84.0082 121.598 88.4195 117.678L92.2693 114.256Z" fill="#0061BF"/>
<path d="M94.0642 112.45C103.059 123.034 116.624 133.158 132.623 146.832L110.793 137.983C113.469 142.395 117.368 148.569 119.553 151.218C114.522 148.907 106.425 143.825 103.744 141.131C103.746 144.891 108.299 151.18 110.284 154.616C98.6399 144.704 88.0473 132.603 84.6254 121.974L94.0642 112.45Z" fill="#FF7300"/>
<path opacity="0.5" d="M91.5145 112.985C96.8348 120 104.798 126.762 114.209 135.87L101.47 129.858C103.066 132.771 105.389 136.85 106.682 138.604C103.744 137.041 99.0003 133.634 97.4188 131.845C97.4587 134.304 100.162 138.464 101.347 140.732C94.4988 134.129 88.2368 126.106 86.1445 119.118L91.5145 112.985Z" fill="white"/>
<path d="M59.4998 50.9062C72.8019 62.4874 95.7439 54.5049 102.873 63.7532L82.5019 79.7975L59.4998 50.9062Z" fill="#0061BF"/>
<path d="M102.873 63.7539C103.893 66.4517 103.34 69.4882 101.434 71.6593L86.9994 88.1046L82.5023 79.7985L102.873 63.7539Z" fill="#89C5FF"/>
<path d="M29.3475 74.6533C37.6324 90.1861 24.562 110.567 31.9785 119.589L52.3496 103.545L29.3475 74.6533Z" fill="#0061BF"/>
<path d="M31.978 119.589C34.3844 121.194 37.483 121.355 40.0444 120.008L59.4473 109.802L52.3491 103.545L31.978 119.589Z" fill="#89C5FF"/>
<path d="M19 31L37.1367 37.6223L21.3239 50.0765L19 31Z" fill="#051F39"/>
<path d="M21.3243 50.0766C23.8578 78.6211 45.063 105.255 70.8174 120.049L94.2871 101.584C84.4392 70.7667 66.0984 48.7143 37.1371 37.6221L21.3243 50.0766Z" fill="#FF7300"/>
<path d="M94.2866 101.585L104.467 108.595L75.3479 131.53L70.8167 120.05L94.2866 101.585Z" fill="#0061BF"/>
<path d="M43.9453 73.1668C37.9295 73.1668 33.0528 68.3163 33.0528 62.3329C33.0528 56.3495 37.9295 51.499 43.9453 51.499C49.9611 51.499 54.8379 56.3495 54.8379 62.3329C54.8379 68.3163 49.9611 73.1668 43.9453 73.1668Z" fill="white"/>
<path d="M43.1221 70.0099L43.1915 69.3606C42.5668 69.2942 41.9532 69.1464 41.3669 68.9201L41.1297 69.5294C41.7688 69.7763 42.4397 69.938 43.1221 70.0099ZM45.1723 69.9584C45.8516 69.8513 46.5133 69.6545 47.138 69.3734L46.8674 68.7782C46.2961 69.0351 45.6911 69.2151 45.0699 69.3133L45.1723 69.9584ZM39.3324 68.5452L39.7222 68.0203C39.2195 67.6501 38.7653 67.213 38.3736 66.7208L37.8593 67.1265C38.2872 67.6637 38.7824 68.141 39.3324 68.5452ZM48.8777 68.2952C49.4107 67.8596 49.8814 67.3577 50.277 66.8036L49.7422 66.4253C49.3799 66.9324 48.9489 67.3917 48.4608 67.7907L48.8777 68.2952ZM37.0571 65.897L37.6395 65.5953C37.3495 65.0416 37.1348 64.4512 37.0006 63.8398L36.3591 63.9788C36.5057 64.6469 36.7403 65.2922 37.0571 65.897ZM51.2334 64.9983C51.4688 64.3587 51.6195 63.6891 51.6797 63.0074L51.0256 62.9499C50.9699 63.5744 50.8326 64.1876 50.6164 64.773L51.2334 64.9983ZM36.8467 61.9788C36.8795 61.3528 36.9941 60.7347 37.1879 60.1413L36.5632 59.9399C36.3515 60.5873 36.2265 61.2619 36.1913 61.9449L36.8467 61.9788ZM50.9429 61.0845L51.5893 60.9698C51.4688 60.2965 51.2578 59.6431 50.9634 59.027L50.3708 59.3071C50.6395 59.8707 50.8326 60.4687 50.9429 61.0845ZM37.9993 58.458C38.3424 57.9373 38.7561 57.4621 39.2281 57.0459L38.7921 56.5573C38.277 57.0116 37.8257 57.5308 37.4506 58.1003L37.9993 58.458ZM49.3484 57.7398L49.8472 57.3155C49.4002 56.7943 48.8871 56.3358 48.3221 55.9517L47.9515 56.4912C48.4692 56.8426 48.9386 57.2627 49.3484 57.7398ZM40.7832 56.0005C41.3456 55.722 41.944 55.5196 42.5597 55.3983L42.4328 54.7572C41.7596 54.8899 41.106 55.1112 40.4908 55.4156L40.7832 56.0005ZM46.2748 55.6533L46.4889 55.036C45.8419 54.8136 45.1658 54.6765 44.4804 54.6289L44.4342 55.2808C45.0625 55.3244 45.6814 55.4495 46.2748 55.6533Z" fill="#FF7300"/>
<path d="M226.264 113.967C221.663 113.967 217.933 110.257 217.933 105.68C217.933 101.104 221.663 97.3936 226.264 97.3936C230.866 97.3936 234.596 101.104 234.596 105.68C234.596 110.257 230.866 113.967 226.264 113.967Z" fill="#F2F5F6"/>
<path d="M201.725 113.967C197.124 113.967 193.394 110.257 193.394 105.68C193.394 101.104 197.124 97.3936 201.725 97.3936C206.327 97.3936 210.057 101.104 210.057 105.68C210.057 110.257 206.327 113.967 201.725 113.967Z" fill="#F2F5F6"/>
<path d="M137.936 113.916H171.108C175.674 113.916 179.389 110.221 179.389 105.68C179.389 101.139 175.674 97.4443 171.108 97.4443H137.936C133.37 97.4443 129.655 101.139 129.655 105.68C129.655 110.221 133.37 113.916 137.936 113.916ZM171.108 98.0972C175.312 98.0972 178.732 101.499 178.732 105.68C178.732 109.861 175.312 113.263 171.108 113.263H137.936C133.732 113.263 130.312 109.861 130.312 105.68C130.312 101.499 133.732 98.0972 137.936 98.0972H171.108Z" fill="#EBEFF2"/>
<g filter="url(#filter1_d_15188_42181)">
<path d="M33.7468 287.013H100.735C105.014 287.013 108.482 283.563 108.482 279.307V236.706C108.482 232.45 105.014 229 100.735 229H33.7468C29.4679 229 25.9991 232.45 25.9991 236.706V279.307C25.9991 283.563 29.4679 287.013 33.7468 287.013Z" fill="white"/>
</g>
<path d="M85.2097 276.462V267.353C85.2097 264.887 87.209 262.888 89.6752 262.888C92.1414 262.888 94.1406 264.887 94.1406 267.353V276.462C94.1406 278.928 92.1414 280.927 89.6752 280.927C87.209 280.927 85.2097 278.928 85.2097 276.462Z" fill="#EBEFF2"/>
<path d="M70.2527 276.461V267.931C70.2527 265.465 72.2519 263.466 74.7181 263.466C77.1843 263.466 79.1836 265.465 79.1836 267.931V276.461C79.1836 278.927 77.1843 280.926 74.7181 280.926C72.2519 280.926 70.2527 278.927 70.2527 276.461Z" fill="#EBEFF2"/>
<path d="M55.2976 276.461V258.81C55.2976 256.344 57.2969 254.345 59.7631 254.345C62.2293 254.345 64.2285 256.344 64.2285 258.81V276.461C64.2285 278.927 62.2293 280.926 59.7631 280.926C57.2969 280.926 55.2976 278.927 55.2976 276.461Z" fill="#EBEFF2"/>
<path d="M40.3406 276.462V251.012C40.3406 248.546 42.3398 246.547 44.806 246.547C47.2722 246.547 49.2715 248.546 49.2715 251.012V276.462C49.2715 278.928 47.2722 280.927 44.806 280.927C42.3398 280.927 40.3406 278.928 40.3406 276.462Z" fill="#EBEFF2"/>
<path d="M44.3218 237.171H90.1593C90.7347 237.171 91.2012 237.637 91.2012 238.213C91.2012 238.788 90.7347 239.255 90.1593 239.255H44.3218C43.7464 239.255 43.28 238.788 43.28 238.213C43.28 237.637 43.7464 237.171 44.3218 237.171Z" fill="#D8DEE6"/>
<path d="M362.555 268.515C364.702 261.112 369.246 254.622 375.482 250.052L377.986 248.217L375.861 291.966L359.422 279.318L362.555 268.515Z" fill="url(#paint3_linear_15188_42181)"/>
<path d="M309.728 321.395L313.38 314.282C314.305 312.481 315.947 311.147 317.908 310.608L328.653 307.648L356.297 290.094L359.423 279.317L375.861 291.966L375.712 295.039C375.413 301.203 371.612 306.659 365.914 309.104L339.073 320.62L326.314 320.902C322.203 322.312 320.786 325.837 318.234 324.568C317.283 324.095 320.998 318.012 320.998 318.012L314.831 324.78L309.728 321.395Z" fill="#FFCBC2"/>
<path d="M357.807 339.118L337.695 337.352C324.604 336.202 313.215 346.717 312.577 360.544L308.033 459.061L335.776 459.921L357.807 339.118Z" fill="#264B89"/>
<path d="M333.545 458.942L332.694 486.155H291.583L311.855 469.376L313.131 456.263L333.545 458.942Z" fill="#1B1B43"/>
<path d="M311.351 470.05L312.389 468.71L321.037 475.337L319.999 476.677L311.351 470.05Z" fill="white"/>
<path d="M342.9 458.941L342.05 486.154H300.938L321.211 469.375L322.486 456.262L342.9 458.941Z" fill="#292466"/>
<path d="M320.706 470.048L321.744 468.708L330.393 475.335L329.355 476.675L320.706 470.048Z" fill="white"/>
<path d="M312.279 461.62H346.302L370.552 387.409L373.946 377.02L422.429 376.808C425.423 376.766 428.289 375.387 430.722 373.348C435.876 369.025 438.249 362.232 437.314 355.591L433.061 325.414L361.034 334.728C347.373 336.497 336.341 346.665 333.534 360.074L312.279 461.62Z" fill="#3A67B3"/>
<path d="M372.857 319.949C373.206 321.345 373.572 322.741 373.946 324.145L376.498 334.509L410.096 333.121L434.286 332.123C440.699 331.86 445.344 325.939 444.034 319.687L432.755 265.703C431.309 256.524 423.815 249.46 414.519 248.504L386.917 245.679L377.986 248.217C369.268 252.87 369.259 261.304 368.842 266.829C367.014 291.007 369.268 305.651 372.857 319.949Z" fill="url(#paint4_linear_15188_42181)"/>
<path opacity="0.3" d="M395.636 318.223C395.985 319.619 373.572 322.74 373.946 324.145L376.498 334.508L410.096 333.121C421.834 324.314 426.231 305.152 430.51 281.143L395.636 318.223Z" fill="#1B1B43"/>
<path d="M311.002 324.286H342.615V330.49H311.002V324.286Z" fill="#1B1B43"/>
<path d="M259.034 330H320L291.966 279H231L259.034 330Z" fill="#292466"/>
<ellipse cx="275.534" cy="306.557" rx="6.46579" ry="6.50828" fill="white"/>
<g clip-path="url(#clip1_15188_42181)">
<path fill-rule="evenodd" clip-rule="evenodd" d="M273.636 305.629C273.636 305.629 273.28 305.987 272.88 306.39C272.503 306.77 272.303 307.262 272.303 307.799C272.303 308.313 272.503 308.827 272.88 309.185C272.903 309.208 272.903 309.208 272.925 309.23C273.303 309.61 273.791 309.811 274.302 309.811C274.814 309.811 275.325 309.61 275.702 309.23C276.102 308.827 276.458 308.47 276.458 308.47C276.635 308.291 276.635 308.022 276.458 307.843C276.28 307.664 276.013 307.664 275.836 307.843C275.836 307.843 275.48 308.201 275.08 308.604C274.88 308.805 274.591 308.917 274.302 308.917C274.014 308.917 273.725 308.805 273.525 308.604L273.48 308.559C273.28 308.358 273.169 308.067 273.169 307.776C273.169 307.485 273.28 307.195 273.48 306.993C273.88 306.591 274.236 306.233 274.236 306.233C274.414 306.054 274.414 305.786 274.236 305.607C274.08 305.473 273.814 305.473 273.636 305.629Z" fill="#051F39"/>
<path fill-rule="evenodd" clip-rule="evenodd" d="M276.214 305.247L274.237 307.238C274.059 307.417 274.059 307.685 274.237 307.864C274.415 308.043 274.681 308.043 274.859 307.864L276.836 305.874C277.014 305.695 277.014 305.426 276.836 305.247C276.659 305.091 276.392 305.091 276.214 305.247Z" fill="#051F39"/>
<path fill-rule="evenodd" clip-rule="evenodd" d="M277.436 307.486C277.436 307.486 277.791 307.128 278.191 306.726C278.569 306.345 278.769 305.853 278.769 305.339C278.769 304.825 278.569 304.31 278.191 303.952C278.169 303.93 278.169 303.93 278.147 303.908C277.791 303.505 277.28 303.304 276.769 303.304C276.258 303.304 275.747 303.505 275.369 303.885C274.969 304.288 274.614 304.646 274.614 304.646C274.436 304.825 274.436 305.093 274.614 305.272C274.792 305.451 275.058 305.451 275.236 305.272C275.236 305.272 275.591 304.914 275.991 304.511C276.191 304.31 276.48 304.198 276.769 304.198C277.058 304.198 277.347 304.31 277.547 304.511L277.591 304.556C277.791 304.757 277.902 305.048 277.902 305.339C277.902 305.63 277.791 305.92 277.591 306.122C277.191 306.524 276.836 306.882 276.836 306.882C276.658 307.061 276.658 307.329 276.836 307.508C276.991 307.665 277.258 307.665 277.436 307.486Z" fill="#051F39"/>
</g>
<path d="M395.317 201.264C402.76 193.967 416.794 197.034 416.582 209.301C431.892 213.32 432.743 230.028 426.576 238.594L421.26 239.017L420.09 232.777L417.007 239.122L402.122 240.074L395.317 201.264Z" fill="#292466"/>
<path d="M382.877 228.547V251.854C382.877 252.066 382.886 252.269 382.903 252.472C383.269 257.269 387.938 260.661 392.71 259.434C399.744 257.624 404.635 251.296 404.576 244.071L404.457 228.547L382.877 228.547Z" fill="#FFCBC2"/>
<path d="M382.877 238.623V251.855C382.877 252.066 382.886 252.269 382.903 252.472C389.171 251.449 396.418 244.232 398.188 236.373L382.877 238.623Z" fill="#EDB8AF"/>
<path d="M370.195 230.274C370.518 232.126 370.952 234.021 371.53 235.823C373.401 241.737 376.761 246.644 382.775 245.789C396.911 243.776 404.779 229.292 404.779 229.292L395.108 218.294L388.618 209.614L369.166 217.973C369.166 217.973 369.064 223.886 370.195 230.274Z" fill="#FFCBC2"/>
<path d="M400.598 225.586C394.394 225.389 389.596 222.246 387.556 213.319C387.556 213.319 373.096 225.727 366.008 219.1C360.072 213.551 370.142 200.783 386.81 199.262C392.882 198.708 398.934 200.594 403.692 204.385C411.77 210.823 412.542 225.798 404.993 230.98L400.598 225.586Z" fill="#292466"/>
<path d="M407.863 209.935C408.269 208.477 407.966 206.862 407.312 205.471C406.648 204.071 405.623 202.852 404.4 201.907C403.177 200.96 401.742 200.283 400.233 199.969C398.73 199.662 397.132 199.709 395.742 200.312C397.177 200.771 398.42 201.259 399.588 201.859C400.753 202.452 401.829 203.139 402.837 203.912C403.843 204.689 404.777 205.551 405.618 206.528C406.464 207.51 407.206 208.587 407.863 209.935Z" fill="#FFA121"/>
<path d="M400.288 231.976C397.807 230.989 396.769 227.772 397.969 224.791C399.168 221.81 402.151 220.194 404.632 221.182C407.112 222.169 408.151 225.386 406.951 228.367C405.751 231.348 402.768 232.964 400.288 231.976Z" fill="#EDB8AF"/>
<path d="M410.238 271.553L430.51 281.141L424.152 296.131L402.897 286.381L410.238 271.553Z" fill="url(#paint5_linear_15188_42181)"/>
<path d="M335.147 323.541C335.709 323.261 336.061 323.074 336.061 323.074L335.857 322.676C335.857 322.676 335.483 322.855 334.94 323.145L335.147 323.541Z" fill="#C5C5FF"/>
<path d="M326.739 325.626C327.394 326.912 332.413 324.636 334.751 323.494C332.94 324.492 329.818 326.455 331.205 327.529C332.319 328.383 334.786 326.565 342.866 323.231C341.641 323.807 334.42 327.224 336.24 328.519C338.222 329.923 346.728 326.827 346.728 326.827L354.102 330.769H362.608L393.212 330.964C395.134 330.973 397.04 330.727 398.886 330.253C402.518 329.331 405.937 327.538 408.838 325.127C410.666 323.604 412.24 321.819 413.558 319.856C414.545 318.384 415.387 316.802 416.084 315.152L424.156 296.134L402.9 286.38L391.809 308.773L355.234 316.675L345.027 314.137C342.832 313.587 339.728 314.509 337.797 315.685C333.085 318.553 326.127 324.399 326.739 325.626Z" fill="#FFCBC2"/>
<path opacity="0.2" d="M421.022 385.48H422.135V480.796H421.022V385.48Z" fill="#FF7300"/>
<path opacity="0.2" d="M394.784 389.71H448.371C452.012 389.71 454.963 386.775 454.963 383.154C454.963 379.533 452.012 376.598 448.371 376.598H394.784C391.144 376.598 388.192 379.533 388.192 383.154C388.192 386.775 391.144 389.71 394.784 389.71Z" fill="#FF7300"/>
<path opacity="0.2" d="M399.037 487.001H444.117V485.918C444.117 480.473 439.679 476.059 434.205 476.059H408.949C403.474 476.059 399.036 480.473 399.036 485.918L399.037 487.001Z" fill="#FF7300"/>
<path d="M261.775 486.077L356.762 336.327L357.703 336.918L262.717 486.668L261.775 486.077Z" fill="#D8DEE6"/>
<path d="M261.754 336.912L262.695 336.321L357.717 486.036L356.776 486.627L261.754 336.912Z" fill="#D8DEE6"/>
<path d="M232.753 330.49H386.7C390.147 330.49 392.941 333.285 392.941 336.732C392.941 340.179 390.147 342.973 386.7 342.973H232.753C229.306 342.973 226.511 340.179 226.511 336.732C226.511 333.285 229.306 330.49 232.753 330.49Z" fill="#EBEFF2"/>
<g filter="url(#filter2_d_15188_42181)">
<path d="M344 68.8084C344 62.2991 344 59.0445 346.022 57.0223C348.044 55.0001 351.299 55.0001 357.808 55.0001H448.101C454.61 55.0001 457.865 55.0001 459.887 57.0223C461.909 59.0445 461.909 62.2991 461.909 68.8083V93.7078C461.909 100.217 461.909 103.472 459.887 105.494C457.865 107.516 454.61 107.516 448.101 107.516H379.166C376.921 107.516 375.799 107.516 374.75 107.86C373.702 108.203 372.798 108.868 370.989 110.198L358.185 119.608L357.756 113.612C357.498 110.009 354.499 107.217 350.887 107.217C347.083 107.217 344 104.134 344 100.331V68.8084Z" fill="white"/>
</g>
<ellipse cx="370.598" cy="80.6652" rx="16.8441" ry="16.8156" fill="white" fill-opacity="0.8" stroke="#EBEFF2" stroke-width="0.863014" stroke-linecap="round"/>
<path opacity="0.15" d="M371.33 80.2545C371.241 80.2457 371.135 80.2457 371.037 80.2545C368.928 80.1837 367.252 78.4579 367.252 76.3338C367.252 74.1655 369.007 72.4043 371.188 72.4043C373.36 72.4043 375.124 74.1655 375.124 76.3338C375.116 78.4579 373.44 80.1837 371.33 80.2545Z" fill="#FF7300"/>
<path d="M366.898 83.5213C364.753 84.9551 364.753 87.2916 366.898 88.7165C369.336 90.345 373.334 90.345 375.772 88.7165C377.918 87.2827 377.918 84.9463 375.772 83.5213C373.343 81.9017 369.345 81.9017 366.898 83.5213Z" stroke="#FF7300" stroke-width="1.29452" stroke-linecap="round" stroke-linejoin="round"/>
<path d="M393.295 70.957C393.295 69.024 394.799 67.457 396.654 67.457H450.936C452.791 67.457 454.295 69.024 454.295 70.957C454.295 72.89 452.791 74.457 450.936 74.457H396.654C394.799 74.457 393.295 72.89 393.295 70.957Z" fill="#EBEFF2"/>
<path d="M393.295 80.457C393.295 79.3525 394.141 78.457 395.184 78.457H408.406C409.449 78.457 410.295 79.3525 410.295 80.457C410.295 81.5616 409.449 82.457 408.406 82.457H395.184C394.141 82.457 393.295 81.5616 393.295 80.457Z" fill="#EBEFF2"/>
<path d="M414.295 80.457C414.295 79.3525 415.133 78.457 416.166 78.457H441.424C442.457 78.457 443.295 79.3525 443.295 80.457C443.295 81.5616 442.457 82.457 441.424 82.457H416.166C415.133 82.457 414.295 81.5616 414.295 80.457Z" fill="#EBEFF2"/>
<path d="M393.295 89.457C393.295 88.3525 394.13 87.457 395.159 87.457H446.431C447.46 87.457 448.295 88.3525 448.295 89.457C448.295 90.5616 447.46 91.457 446.431 91.457H395.159C394.13 91.457 393.295 90.5616 393.295 89.457Z" fill="#EBEFF2"/>
<path d="M30.1222 485.893H486.031V486.999H30.1222V485.893Z" fill="#EBEFF2"/>
<path opacity="0.2" d="M89.7676 486.264C118.358 486.264 141.535 482.84 141.535 478.615C141.535 474.391 118.358 470.967 89.7676 470.967C61.1772 470.967 38 474.391 38 478.615C38 482.84 61.1772 486.264 89.7676 486.264Z" fill="#FF7300"/>
<path d="M96.0034 417.494C95.265 420.627 94.482 423.709 94.3292 426.925C94.4183 427.084 94.3992 427.669 94.3292 427.51C94.3292 428.031 93.5207 427.935 93.5207 427.421C93.5207 427.09 93.5207 426.753 93.5207 426.436C91.6746 424.141 88.9946 422.692 86.8302 420.716C85.0882 419.152 83.8182 417.134 83.1634 414.888C81.3682 408.705 83.0488 402.178 80.8908 395.982C79.0255 390.669 75.6834 386.042 72.857 381.225C69.8714 376.141 67.6688 370.777 67.4459 364.81C67.2741 360.24 67.8152 354.152 71.3037 350.733C74.9959 347.098 79.5794 349.818 82.4122 353.059C90.6115 362.458 94.4056 374.336 95.9398 386.481C96.7864 393.205 97.6649 399.966 97.4612 406.747C97.3334 410.369 96.845 413.969 96.0034 417.494Z" fill="#B7DBFF"/>
<path opacity="0.4" d="M94.3482 429.397C94.7972 423.046 94.7226 416.669 94.1254 410.331C94.1265 410.31 94.1265 410.289 94.1254 410.268C94.2272 405.12 94.6346 399.991 94.4309 394.837C94.1813 389.272 93.4227 383.741 92.1647 378.314C92.1647 378.25 92.0501 378.269 92.0628 378.314C93.0677 383.655 93.6678 389.063 93.858 394.494C93.9598 397.405 93.9365 400.313 93.788 403.22C93.737 404.167 93.6479 405.126 93.5843 406.073C91.4428 391.622 86.2104 377.8 78.2424 365.546C78.1405 365.381 77.8413 365.546 77.9432 365.731C83.6338 375.044 87.8469 385.179 90.4331 395.778C86.4863 388.482 80.5278 382.483 76.1098 375.473C76.1098 375.435 76.0207 375.473 76.0398 375.511C80.0121 383.322 86.5754 389.493 90.7578 397.163C91.4771 400.296 92.0755 403.461 92.5148 406.645C93.106 411.01 93.4249 415.408 93.4697 419.813C91.0634 415.333 88.5679 411.043 86.6072 406.302C86.6018 406.289 86.5939 406.278 86.5841 406.269C86.5743 406.259 86.5627 406.252 86.55 406.247C86.5373 406.242 86.5237 406.239 86.51 406.239C86.4964 406.24 86.4829 406.243 86.4703 406.248C86.4578 406.253 86.4465 406.261 86.437 406.271C86.4274 406.281 86.42 406.292 86.4149 406.305C86.4099 406.318 86.4074 406.331 86.4077 406.345C86.4079 406.359 86.4108 406.372 86.4162 406.385C88.0841 411.31 90.3313 416.616 93.4824 420.817C93.4824 423.935 93.3954 427.054 93.2214 430.172C92.7312 438.484 91.3116 446.695 90.675 454.957C90.6691 455.008 90.6836 455.058 90.7152 455.098C90.7469 455.138 90.7931 455.164 90.8437 455.17C90.8944 455.176 90.9453 455.161 90.9853 455.13C91.0253 455.098 91.0511 455.052 91.057 455.001C92.7349 446.551 93.8345 437.996 94.3482 429.397Z" fill="#3588D8"/>
<path opacity="0.4" d="M85.5254 365.28C85.5254 365.223 85.4108 365.28 85.4299 365.324C86.9513 369.525 87.8107 373.777 88.912 378.079C88.9228 378.116 88.9469 378.149 88.9799 378.169C89.0128 378.19 89.0522 378.198 89.0906 378.192C89.1291 378.186 89.1639 378.166 89.1884 378.135C89.213 378.105 89.2256 378.067 89.224 378.028C88.7784 373.662 87.2187 369.309 85.5254 365.28Z" fill="#3588D8"/>
<path d="M124.148 382.89C123.132 385.351 121.965 387.747 120.653 390.065C117.909 395.028 115.057 399.597 114.535 405.361C114.306 407.942 114.223 410.535 113.434 412.988C112.719 415.128 111.689 417.15 110.378 418.987C107.412 423.302 103.7 427.026 100.95 431.507C98.0863 436.177 95.9706 441.265 94.6799 446.587C94.6163 446.88 94.1579 446.797 94.2216 446.511C94.2244 446.488 94.2244 446.464 94.2216 446.441C94.2175 446.432 94.2155 446.422 94.2155 446.412C94.2155 446.403 94.2175 446.393 94.2216 446.384C93.7823 433.985 94.7754 421.491 98.5631 409.613C100.235 404.395 102.242 399.289 104.573 394.329C106.603 390.027 109.131 385.883 112.695 382.667C115.006 380.589 120.016 376.649 123.307 378.733C124.905 379.75 124.772 381.333 124.148 382.89Z" fill="#B7DBFF"/>
<path opacity="0.4" d="M111.67 410.987C109.478 414.584 107.067 418.043 104.451 421.346C103.248 422.909 102.032 424.466 100.829 426.036C100.262 426.773 99.6255 427.51 99.1035 428.311C99.4345 427.008 99.7401 425.699 100.084 424.396C101.688 418.136 103.229 411.813 105.616 405.795C107.946 399.903 111.052 394.355 114.235 388.915C114.324 388.776 114.089 388.668 114.006 388.807C111.383 393.116 108.716 397.419 106.513 401.963C105.293 404.496 104.23 407.103 103.33 409.767C104.344 404.115 105.759 398.542 107.564 393.091C107.564 393.04 107.513 393.008 107.494 393.059C105.121 398.572 103.636 404.426 103.095 410.402C102.556 412.012 102.057 413.637 101.599 415.277C99.6446 422.21 97.9258 429.22 96.3343 436.249C96.3065 431.625 96.7072 427.008 97.5311 422.458C97.5311 422.356 97.3911 422.331 97.3656 422.458C96.155 427.202 95.7504 432.115 96.1688 436.992C95.5662 439.67 94.9784 442.345 94.4055 445.019C93.1896 450.738 91.6872 456.553 90.9742 462.355C90.9717 462.37 90.9722 462.386 90.9757 462.401C90.9791 462.415 90.9854 462.43 90.9943 462.442C91.0032 462.454 91.0144 462.465 91.0273 462.473C91.0403 462.481 91.0547 462.486 91.0697 462.489C91.0848 462.491 91.1002 462.491 91.115 462.487C91.1299 462.484 91.1439 462.478 91.1563 462.469C91.1688 462.46 91.1793 462.449 91.1874 462.436C91.1955 462.423 91.2009 462.409 91.2034 462.394C92.0564 459.267 92.5721 456.038 93.266 452.861C93.9599 449.683 94.6856 446.506 95.424 443.328C96.5062 438.714 97.6266 434.111 98.7852 429.518C99.5555 427.834 101.039 426.341 102.153 424.93C103.375 423.379 104.597 421.829 105.788 420.253C108.021 417.337 110.02 414.249 111.765 411.019C111.816 410.968 111.708 410.923 111.67 410.987Z" fill="#3588D8"/>
<path opacity="0.4" d="M112.172 405.686C109.462 409.171 107.115 412.923 105.17 416.884C105.17 416.935 105.221 416.992 105.253 416.941C107.627 413.224 109.963 409.474 112.338 405.756C112.344 405.693 112.242 405.629 112.172 405.686Z" fill="#3588D8"/>
<path d="M59.3359 394.634C60.9465 397.405 62.7799 400.722 62.0923 404.046C61.6531 406.15 60.1125 407.859 59.8324 410.001C59.1958 414.735 63.9321 417.868 67.3569 420.105C75.8809 425.692 87.5751 430.668 89.1284 442.075C89.1857 442.482 89.8859 442.38 89.835 441.98C89.84 441.957 89.84 441.933 89.835 441.91C89.835 441.91 89.8796 441.872 89.8796 441.84C90.9952 436.081 90.9411 430.158 89.7204 424.421C88.4472 418.542 85.9009 413.261 82.8452 408.094C77.7143 399.356 72.2778 390.402 64.5177 383.71C62.3724 381.86 57.9736 378.524 56.2421 382.705C54.5806 386.773 57.3625 391.259 59.3359 394.634Z" fill="#B7DBFF"/>
<path opacity="0.4" d="M67.1415 413.166C72.7945 419.273 81.7831 422.699 86.6467 429.543C83.7629 419.057 79.0076 409.62 71.655 401.428C71.6228 401.385 71.6072 401.332 71.611 401.279C71.6148 401.226 71.6377 401.175 71.6757 401.137C71.7136 401.1 71.7639 401.077 71.8174 401.073C71.8709 401.069 71.924 401.085 71.9669 401.117C77.1733 406.166 81.3367 412.186 84.2213 418.835C82.8778 414.193 81.1113 409.683 78.9439 405.362C78.932 405.33 78.9318 405.295 78.9432 405.262C78.9547 405.23 78.9773 405.203 79.0068 405.185C79.0364 405.168 79.0712 405.161 79.1051 405.167C79.139 405.173 79.1698 405.19 79.1922 405.216C81.8797 409.94 83.7986 415.06 84.877 420.386C91.2938 435.879 91.8795 454.068 90.5426 470.388C90.5426 470.623 90.1671 470.629 90.1734 470.388C90.5426 457.519 90.3326 444.421 87.2451 431.85C87.1814 431.583 87.105 431.329 87.0414 431.069C81.7449 423.697 72.7945 420.265 67.0397 413.274C66.976 413.198 67.0779 413.096 67.1415 413.166Z" fill="#3588D8"/>
<path opacity="0.4" d="M65.8287 407.916C68.7952 410.636 71.7172 413.413 74.6901 416.133C74.6901 416.133 74.6901 416.209 74.6455 416.19C71.2846 413.922 68.257 411.197 65.6505 408.094C65.6321 408.07 65.6231 408.039 65.6253 408.009C65.6275 407.978 65.6406 407.949 65.6623 407.928C65.684 407.906 65.7127 407.893 65.7433 407.891C65.7739 407.889 65.8042 407.898 65.8287 407.916Z" fill="#3588D8"/>
<path opacity="0.4" d="M65.3588 396.14C67.9963 400.437 70.9767 404.516 74.2711 408.335C74.2757 408.34 74.2792 408.346 74.2816 408.352C74.2839 408.359 74.2849 408.366 74.2846 408.372C74.2844 408.379 74.2827 408.386 74.2798 408.392C74.277 408.398 74.2729 408.404 74.2679 408.408C74.2629 408.413 74.257 408.416 74.2506 408.419C74.2442 408.421 74.2374 408.422 74.2306 408.422C74.2238 408.422 74.2172 408.42 74.211 408.417C74.2048 408.414 74.1993 408.41 74.1947 408.405C70.4993 404.911 67.4538 400.791 65.1996 396.235C65.1933 396.215 65.1939 396.193 65.2016 396.173C65.2092 396.153 65.2233 396.136 65.2417 396.125C65.26 396.114 65.2816 396.109 65.3028 396.112C65.324 396.115 65.3438 396.125 65.3588 396.14Z" fill="#3588D8"/>
<path d="M78.1193 475.094C77.9491 476.298 78.8837 477.374 80.0996 477.374H103.544C104.746 477.374 105.676 476.321 105.529 475.128L102.245 448.623C102.121 447.621 101.27 446.869 100.26 446.869H83.8479C82.8515 446.869 82.0071 447.603 81.8676 448.589L78.1193 475.094Z" fill="#4991FF"/>
<g opacity="0.25">
<path d="M161.233 330.349L157.588 325.632L154.372 327.669C152.979 326.49 151.478 325.632 149.763 325.096L149.87 321.344L143.867 320.594L143.116 324.346C141.401 324.56 139.686 324.989 138.078 325.739L135.505 322.952L130.788 326.597L132.825 329.813C131.646 331.207 130.788 332.707 130.252 334.423L126.5 334.315L125.75 340.319L129.502 341.069C129.716 342.784 130.145 344.499 130.896 346.107L128.108 348.68L131.753 353.397L134.969 351.36C136.363 352.539 137.864 353.397 139.579 353.933L139.472 357.685L145.475 358.435L146.225 354.683C147.94 354.469 149.656 354.04 151.264 353.29L153.836 356.077L158.553 352.432L156.516 349.216C157.696 347.823 158.553 346.322 159.089 344.607L162.841 344.714L163.592 338.711L159.84 337.96C159.625 336.245 159.196 334.53 158.446 332.922L161.233 330.349ZM150.406 346.858C146.225 350.074 140.329 349.323 137.113 345.143C133.897 340.962 134.648 335.066 138.828 331.85C143.009 328.634 148.905 329.384 152.121 333.565C155.23 337.746 154.48 343.749 150.406 346.858Z" fill="url(#paint6_linear_15188_42181)"/>
<path d="M161.77 292.186L159.09 286.826L155.552 288.219C154.373 286.826 153.086 285.646 151.586 284.682L152.55 280.93L146.869 279L145.368 282.538C143.653 282.323 141.83 282.43 140.115 282.859L138.186 279.643L132.826 282.323L134.219 285.861C132.826 286.933 131.646 288.326 130.682 289.827L126.93 288.862L125 294.544L128.538 296.045C128.323 297.76 128.43 299.582 128.859 301.298L125.643 303.227L128.323 308.587L131.861 307.194C132.933 308.587 134.326 309.766 135.827 310.731L134.862 314.483L140.544 316.413L142.045 312.875C143.76 313.09 145.582 312.982 147.298 312.554L149.227 315.77L154.587 313.09L153.194 309.552C154.587 308.373 155.766 307.086 156.731 305.586L160.483 306.55L162.413 300.869L158.875 299.368C159.09 297.653 158.982 295.83 158.554 294.115L161.77 292.186ZM147.726 306.229C143.01 308.587 137.328 306.55 134.97 301.834C132.611 297.117 134.648 291.435 139.365 289.077C144.082 286.718 149.763 288.755 152.122 293.472C154.373 298.296 152.443 303.978 147.726 306.229Z" fill="url(#paint7_linear_15188_42181)"/>
<path d="M201.111 300.976L195.322 296.58L192.214 300.011C190.177 299.153 188.14 298.617 185.996 298.403L184.924 293.9L177.742 294.972L177.956 299.582C176.026 300.332 174.097 301.404 172.489 302.798L168.522 300.332L164.127 306.121L167.558 309.23C166.7 311.16 166.164 313.304 165.95 315.448L161.447 316.52L162.519 323.702L167.129 323.488C167.879 325.417 168.951 327.347 170.345 328.955L167.879 332.921L173.668 337.316L176.777 333.886C178.706 334.744 180.85 335.28 182.994 335.494L184.066 339.996L191.249 338.924L191.034 334.315C192.964 333.564 194.894 332.492 196.502 331.099L200.468 333.564L204.863 327.776L201.433 324.667C202.29 322.63 202.826 320.593 203.041 318.449L207.543 317.377L206.471 310.195L201.862 310.409C201.111 308.48 200.039 306.55 198.646 304.942L201.111 300.976ZM193.822 323.916C190.07 328.955 182.78 330.027 177.742 326.275C172.703 322.523 171.631 315.233 175.383 310.195C179.135 305.156 186.425 304.084 191.463 307.836C196.609 311.588 197.681 318.771 193.822 323.916Z" fill="url(#paint8_linear_15188_42181)"/>
</g>
</g>
<defs>
<filter id="filter0_d_15188_42181" x="5.01413" y="62.7593" width="287.347" height="244.856" filterUnits="userSpaceOnUse" color-interpolation-filters="sRGB">
<feFlood flood-opacity="0" result="BackgroundImageFix"/>
<feColorMatrix in="SourceAlpha" type="matrix" values="0 0 0 0 0 0 0 0 0 0 0 0 0 0 0 0 0 0 127 0" result="hardAlpha"/>
<feOffset dy="16.5313"/>
<feGaussianBlur stdDeviation="22.0418"/>
<feComposite in2="hardAlpha" operator="out"/>
<feColorMatrix type="matrix" values="0 0 0 0 0.117647 0 0 0 0 0.129412 0 0 0 0 0.176471 0 0 0 0.07 0"/>
<feBlend mode="normal" in2="BackgroundImageFix" result="effect1_dropShadow_15188_42181"/>
<feBlend mode="normal" in="SourceGraphic" in2="effect1_dropShadow_15188_42181" result="shape"/>
</filter>
<filter id="filter1_d_15188_42181" x="-5.18313" y="209.511" width="144.849" height="120.38" filterUnits="userSpaceOnUse" color-interpolation-filters="sRGB">
<feFlood flood-opacity="0" result="BackgroundImageFix"/>
<feColorMatrix in="SourceAlpha" type="matrix" values="0 0 0 0 0 0 0 0 0 0 0 0 0 0 0 0 0 0 127 0" result="hardAlpha"/>
<feOffset dy="11.6937"/>
<feGaussianBlur stdDeviation="15.5916"/>
<feComposite in2="hardAlpha" operator="out"/>
<feColorMatrix type="matrix" values="0 0 0 0 0.117647 0 0 0 0 0.129412 0 0 0 0 0.176471 0 0 0 0.07 0"/>
<feBlend mode="normal" in2="BackgroundImageFix" result="effect1_dropShadow_15188_42181"/>
<feBlend mode="normal" in="SourceGraphic" in2="effect1_dropShadow_15188_42181" result="shape"/>
</filter>
<filter id="filter2_d_15188_42181" x="309.479" y="33.4247" width="186.949" height="133.649" filterUnits="userSpaceOnUse" color-interpolation-filters="sRGB">
<feFlood flood-opacity="0" result="BackgroundImageFix"/>
<feColorMatrix in="SourceAlpha" type="matrix" values="0 0 0 0 0 0 0 0 0 0 0 0 0 0 0 0 0 0 127 0" result="hardAlpha"/>
<feOffset dy="12.9452"/>
<feGaussianBlur stdDeviation="17.2603"/>
<feComposite in2="hardAlpha" operator="out"/>
<feColorMatrix type="matrix" values="0 0 0 0 0.117647 0 0 0 0 0.129412 0 0 0 0 0.176471 0 0 0 0.08 0"/>
<feBlend mode="normal" in2="BackgroundImageFix" result="effect1_dropShadow_15188_42181"/>
<feBlend mode="normal" in="SourceGraphic" in2="effect1_dropShadow_15188_42181" result="shape"/>
</filter>
<linearGradient id="paint0_linear_15188_42181" x1="494.5" y1="21" x2="24.238" y2="268.996" gradientUnits="userSpaceOnUse">
<stop stop-color="#FF7300"/>
<stop offset="1" stop-color="#FF7300" stop-opacity="0"/>
</linearGradient>
<linearGradient id="paint1_linear_15188_42181" x1="165.464" y1="34.2196" x2="194.357" y2="83.4519" gradientUnits="userSpaceOnUse">
<stop stop-color="#FF7300"/>
<stop offset="1" stop-color="#FF7300" stop-opacity="0"/>
</linearGradient>
<linearGradient id="paint2_linear_15188_42181" x1="504.469" y1="263.22" x2="475.576" y2="312.452" gradientUnits="userSpaceOnUse">
<stop stop-color="#FF7300"/>
<stop offset="1" stop-color="#FF7300" stop-opacity="0"/>
</linearGradient>
<linearGradient id="paint3_linear_15188_42181" x1="359.428" y1="270.342" x2="378.003" y2="270.342" gradientUnits="userSpaceOnUse">
<stop stop-color="#FAB882"/>
<stop offset="1" stop-color="#FF7300"/>
</linearGradient>
<linearGradient id="paint4_linear_15188_42181" x1="368.219" y1="290.602" x2="444.324" y2="290.602" gradientUnits="userSpaceOnUse">
<stop stop-color="#FAB882"/>
<stop offset="1" stop-color="#FF7300"/>
</linearGradient>
<linearGradient id="paint5_linear_15188_42181" x1="402.906" y1="283.982" x2="430.535" y2="283.982" gradientUnits="userSpaceOnUse">
<stop stop-color="#FAB882"/>
<stop offset="1" stop-color="#FF7300"/>
</linearGradient>
<linearGradient id="paint6_linear_15188_42181" x1="144.671" y1="320.594" x2="144.671" y2="358.435" gradientUnits="userSpaceOnUse">
<stop stop-color="#FFAB6B"/>
<stop offset="1" stop-color="#FFD7B9" stop-opacity="0"/>
</linearGradient>
<linearGradient id="paint7_linear_15188_42181" x1="143.706" y1="279" x2="143.706" y2="316.413" gradientUnits="userSpaceOnUse">
<stop stop-color="#FFAB6B"/>
<stop offset="1" stop-color="#FFD7B9" stop-opacity="0"/>
</linearGradient>
<linearGradient id="paint8_linear_15188_42181" x1="184.495" y1="293.9" x2="184.495" y2="339.996" gradientUnits="userSpaceOnUse">
<stop stop-color="#FFAB6B"/>
<stop offset="1" stop-color="#FFD7B9" stop-opacity="0"/>
</linearGradient>
<clipPath id="clip0_15188_42181">
<rect width="482" height="454" fill="white" transform="matrix(-1 0 0 1 501 33)"/>
</clipPath>
<clipPath id="clip1_15188_42181">
<rect width="6.46579" height="6.50828" fill="white" transform="translate(272.303 303.304)"/>
</clipPath>
</defs>
</svg>
