<svg width="60" height="60" viewBox="0 0 60 60" fill="none" xmlns="http://www.w3.org/2000/svg">
<rect x="0.5" y="0.5" width="59" height="59" rx="7.5" fill="white" stroke="#D8DEE6"/>
<path d="M30.3328 29.667L27.9828 32.017C26.6828 33.317 26.6828 35.4337 27.9828 36.7337C29.2828 38.0337 31.3995 38.0337 32.6995 36.7337L36.3995 33.0337C38.9995 30.4337 38.9995 26.2171 36.3995 23.6004C33.7995 21.0004 29.5828 21.0004 26.9661 23.6004L22.9328 27.6337C20.6995 29.867 20.6995 33.4837 22.9328 35.717" stroke="#0061BF" stroke-width="2" stroke-linecap="round" stroke-linejoin="round"/>
<path d="M25.0007 46.6663H35.0007C43.334 46.6663 46.6673 43.333 46.6673 34.9997V24.9997C46.6673 16.6663 43.334 13.333 35.0007 13.333H25.0007C16.6673 13.333 13.334 16.6663 13.334 24.9997V34.9997C13.334 43.333 16.6673 46.6663 25.0007 46.6663Z" stroke="#FF7300" stroke-width="2" stroke-linecap="round" stroke-linejoin="round"/>
</svg>
