<svg width="1920" height="893" viewBox="0 0 1920 893" fill="none" xmlns="http://www.w3.org/2000/svg">
<rect width="1920" height="893" transform="matrix(-1 0 0 1 1920 0)" fill="url(#paint0_linear_15309_34694)"/>
<path opacity="0.1" d="M107.711 240.644L74 188.016L130.719 188.499L107.711 240.644Z" stroke="#0061BF" stroke-width="2"/>
<path opacity="0.1" d="M126.92 252.092L93.209 199.463L149.928 199.946L126.92 252.092Z" stroke="#0061BF" stroke-width="2"/>
<g opacity="0.1" clip-path="url(#clip0_15309_34694)">
<path d="M1782.21 745.683L1775.62 752.281C1772.88 755.017 1768.45 755.017 1765.72 752.282C1762.98 749.548 1762.98 745.117 1765.72 742.384L1778.92 729.184C1781.65 726.451 1786.08 726.451 1788.81 729.184C1789.72 730.096 1791.2 730.096 1792.11 729.184C1793.02 728.273 1793.02 726.796 1792.11 725.885C1787.56 721.329 1780.17 721.329 1775.62 725.885L1762.42 739.084C1757.86 743.64 1757.86 751.025 1762.42 755.581C1766.97 760.139 1774.36 760.139 1778.92 755.581L1785.51 748.983C1786.43 748.071 1786.43 746.594 1785.51 745.683C1784.6 744.772 1783.13 744.772 1782.21 745.683Z" fill="#0061BF"/>
<path d="M1811.58 722.915C1816.14 718.359 1816.14 710.974 1811.58 706.418C1807.03 701.862 1799.64 701.862 1795.08 706.417L1787.16 714.335C1786.25 715.246 1786.25 716.723 1787.16 717.635C1788.08 718.546 1789.55 718.546 1790.46 717.635L1798.38 709.718C1801.12 706.984 1805.55 706.984 1808.28 709.718C1811.01 712.451 1811.01 716.882 1808.28 719.615L1793.76 734.133C1791.03 736.866 1786.6 736.866 1783.87 734.133C1782.95 733.222 1781.48 733.222 1780.57 734.133C1779.66 735.044 1779.66 736.521 1780.57 737.433C1785.12 741.988 1792.51 741.988 1797.06 737.433L1811.58 722.915Z" fill="#0061BF"/>
<path d="M1802.65 743.35C1801.74 742.439 1800.26 742.439 1799.35 743.35C1798.44 744.262 1798.44 745.739 1799.35 746.65L1806.35 753.648C1807.26 754.559 1808.74 754.559 1809.65 753.648C1810.56 752.737 1810.56 751.259 1809.65 750.348L1802.65 743.35Z" fill="#0061BF"/>
<path d="M1771.35 718.653C1772.26 719.564 1773.74 719.564 1774.65 718.653C1775.56 717.742 1775.56 716.264 1774.65 715.353L1767.65 708.348C1766.74 707.437 1765.26 707.437 1764.35 708.348C1763.44 709.26 1763.44 710.737 1764.35 711.648L1771.35 718.653Z" fill="#0061BF"/>
<path d="M1812.67 738H1805.67C1804.38 738 1803.33 739.045 1803.33 740.333C1803.33 741.622 1804.38 742.667 1805.67 742.667H1812.67C1813.95 742.667 1815 741.622 1815 740.333C1815 739.045 1813.95 738 1812.67 738Z" fill="#0061BF"/>
<path d="M1777.67 714.667C1778.95 714.667 1780 713.622 1780 712.333V705.333C1780 704.045 1778.95 703 1777.67 703C1776.38 703 1775.33 704.045 1775.33 705.333V712.333C1775.33 713.622 1776.38 714.667 1777.67 714.667Z" fill="#0061BF"/>
<path d="M1761.33 724H1768.33C1769.62 724 1770.67 722.955 1770.67 721.666C1770.67 720.378 1769.62 719.333 1768.33 719.333H1761.33C1760.04 719.333 1759 720.378 1759 721.666C1759 722.955 1760.04 724 1761.33 724Z" fill="#0061BF"/>
<path d="M1796.33 747.333C1795.04 747.333 1794 748.378 1794 749.666V756.666C1794 757.955 1795.04 758.999 1796.33 758.999C1797.62 758.999 1798.67 757.955 1798.67 756.666V749.666C1798.67 748.378 1797.62 747.333 1796.33 747.333Z" fill="#0061BF"/>
</g>
<defs>
<linearGradient id="paint0_linear_15309_34694" x1="960" y1="0" x2="960" y2="893" gradientUnits="userSpaceOnUse">
<stop offset="0.0001" stop-color="#E6F2FF" stop-opacity="0.4"/>
<stop offset="1" stop-color="#D2E9FF"/>
</linearGradient>
<clipPath id="clip0_15309_34694">
<rect width="56" height="56" fill="white" transform="translate(1759 703)"/>
</clipPath>
</defs>
</svg>
