<svg width="40" height="40" viewBox="0 0 40 40" fill="none" xmlns="http://www.w3.org/2000/svg">
<path d="M27.8327 31.6336H12.166C11.466 31.6336 10.6827 31.0836 10.4494 30.4169L3.54936 11.1169C2.56602 8.35026 3.71602 7.50026 6.08269 9.20026L12.5827 13.8503C13.666 14.6003 14.8994 14.2169 15.366 13.0003L18.2994 5.18359C19.2327 2.68359 20.7827 2.68359 21.716 5.18359L24.6494 13.0003C25.116 14.2169 26.3494 14.6003 27.416 13.8503L33.516 9.50026C36.116 7.63359 37.366 8.58359 36.2994 11.6003L29.566 30.4503C29.316 31.0836 28.5327 31.6336 27.8327 31.6336Z" stroke="#FF7300" stroke-width="2" stroke-linecap="round" stroke-linejoin="round"/>
<path d="M10.834 36.666H29.1673" stroke="#FF7300" stroke-width="2" stroke-linecap="round" stroke-linejoin="round"/>
<path d="M15.834 23.334H24.1673" stroke="#0061BF" stroke-width="2" stroke-linecap="round" stroke-linejoin="round"/>
</svg>
