<svg width="40" height="40" viewBox="0 0 40 40" fill="none" xmlns="http://www.w3.org/2000/svg">
<path d="M9.11654 15.0007C12.3382 15.0007 14.9499 12.389 14.9499 9.16732C14.9499 5.94566 12.3382 3.33398 9.11654 3.33398C5.89488 3.33398 3.2832 5.94566 3.2832 9.16732C3.2832 12.389 5.89488 15.0007 9.11654 15.0007Z" stroke="#FF7300" stroke-width="2"/>
<path d="M28.2826 25H33.2825C35.1159 25 36.6159 26.5 36.6159 28.3333V33.3333C36.6159 35.1667 35.1159 36.6667 33.2825 36.6667H28.2826C26.4492 36.6667 24.9492 35.1667 24.9492 33.3333V28.3333C24.9492 26.5 26.4492 25 28.2826 25Z" stroke="#FF7300" stroke-width="2"/>
<path d="M20.0008 8.33398H24.4675C27.5508 8.33398 28.9841 12.1507 26.6675 14.184L13.3508 25.834C11.0341 27.8507 12.4675 31.6673 15.5341 31.6673H20.0008" stroke="#0061BF" stroke-width="2" stroke-linecap="round" stroke-linejoin="round"/>
<path d="M9.14418 9.16732H9.16344" stroke="#FF7300" stroke-width="2" stroke-linecap="round" stroke-linejoin="round"/>
<path d="M30.8102 30.8333H30.8295" stroke="#FF7300" stroke-width="2" stroke-linecap="round" stroke-linejoin="round"/>
</svg>
