<svg width="142" height="20" viewBox="0 0 142 20" fill="none" xmlns="http://www.w3.org/2000/svg">
<path d="M28.8574 15.3816V4.61286H30.4923V14.0894H35.397V15.3816H28.8574Z" fill="#051F39"/>
<path d="M38.0203 6.30509C37.7119 6.30509 37.4548 6.21279 37.2492 6.02818C37.0538 5.83332 36.9561 5.5923 36.9561 5.30513C36.9561 5.01797 37.0538 4.78208 37.2492 4.59747C37.4548 4.40261 37.7119 4.30518 38.0203 4.30518C38.3288 4.30518 38.5807 4.40261 38.7761 4.59747C38.9817 4.78208 39.0846 5.01797 39.0846 5.30513C39.0846 5.5923 38.9817 5.83332 38.7761 6.02818C38.5807 6.21279 38.3288 6.30509 38.0203 6.30509ZM37.2029 15.3816V7.75119H38.8378V15.3816H37.2029Z" fill="#051F39"/>
<path d="M40.996 15.3816V7.75119H42.4458L42.5692 9.08959C42.8057 8.61782 43.1502 8.2486 43.6026 7.98195C44.0653 7.70504 44.5948 7.56658 45.1912 7.56658C46.1166 7.56658 46.8415 7.85375 47.3659 8.42808C47.9006 9.00242 48.168 9.85879 48.168 10.9972V15.3816H46.5485V11.1664C46.5485 9.68957 45.9418 8.95114 44.7285 8.95114C44.1218 8.95114 43.618 9.16651 43.217 9.59726C42.8263 10.028 42.6309 10.6434 42.6309 11.4433V15.3816H40.996Z" fill="#051F39"/>
<path d="M50.0935 15.3816V4.30518H51.7284V10.9049L54.6589 7.75119H56.6176L53.3633 11.2126L57.0958 15.3816H55.029L51.7284 11.4741V15.3816H50.0935Z" fill="#051F39"/>
<path d="M58.378 15.3816V4.61286H62.712C63.8328 4.61286 64.6862 4.87438 65.2723 5.39744C65.8687 5.91024 66.1669 6.57175 66.1669 7.38197C66.1669 8.05887 65.9818 8.60243 65.6116 9.01267C65.2517 9.41266 64.8096 9.68444 64.2852 9.82802C64.9021 9.9511 65.4111 10.2588 65.8121 10.7511C66.2131 11.2331 66.4137 11.7972 66.4137 12.4433C66.4137 13.2945 66.1052 13.9971 65.4882 14.5509C64.8713 15.1047 63.9973 15.3816 62.8662 15.3816H58.378ZM60.3522 9.13575H62.419C62.9742 9.13575 63.4009 9.00755 63.6991 8.75115C63.9973 8.49475 64.1464 8.13066 64.1464 7.65888C64.1464 7.20762 63.9973 6.85379 63.6991 6.59739C63.4112 6.33073 62.9742 6.19741 62.3881 6.19741H60.3522V9.13575ZM60.3522 13.7817H62.5578C63.1439 13.7817 63.5963 13.6484 63.915 13.3817C64.2441 13.1048 64.4086 12.7202 64.4086 12.2279C64.4086 11.7254 64.2389 11.3305 63.8996 11.0434C63.5603 10.7562 63.1027 10.6126 62.5269 10.6126H60.3522V13.7817Z" fill="#051F39"/>
<path d="M70.9306 15.5662C69.9743 15.5662 69.234 15.2688 68.7096 14.674C68.1955 14.0791 67.9384 13.2074 67.9384 12.0587V7.75119H69.8972V11.8741C69.8972 12.5305 70.0309 13.033 70.2982 13.3817C70.5656 13.7304 70.9871 13.9048 71.5629 13.9048C72.1079 13.9048 72.5552 13.7099 72.9048 13.3202C73.2647 12.9305 73.4446 12.3869 73.4446 11.6895V7.75119H75.4188V15.3816H73.676L73.5217 14.0894C73.2852 14.5407 72.9408 14.8996 72.4884 15.1663C72.0462 15.4329 71.527 15.5662 70.9306 15.5662Z" fill="#051F39"/>
<path d="M78.5097 6.56662C78.1498 6.56662 77.8516 6.45893 77.6151 6.24356C77.3889 6.02818 77.2758 5.7564 77.2758 5.42821C77.2758 5.10001 77.3889 4.83336 77.6151 4.62824C77.8516 4.41286 78.1498 4.30518 78.5097 4.30518C78.8696 4.30518 79.1626 4.41286 79.3888 4.62824C79.6253 4.83336 79.7436 5.10001 79.7436 5.42821C79.7436 5.7564 79.6253 6.02818 79.3888 6.24356C79.1626 6.45893 78.8696 6.56662 78.5097 6.56662ZM77.5226 15.3816V7.75119H79.4968V15.3816H77.5226Z" fill="#051F39"/>
<path d="M81.5574 15.3816V4.30518H83.5316V15.3816H81.5574Z" fill="#051F39"/>
<path d="M89.0654 15.5662C88.3457 15.5662 87.703 15.3919 87.1375 15.0432C86.572 14.6945 86.1247 14.2176 85.7956 13.6125C85.4666 13.0074 85.3021 12.3202 85.3021 11.551C85.3021 10.7818 85.4666 10.0998 85.7956 9.50496C86.1247 8.89986 86.572 8.42808 87.1375 8.08963C87.703 7.74093 88.3457 7.56658 89.0654 7.56658C89.6412 7.56658 90.1451 7.67427 90.5769 7.88964C91.0088 8.10502 91.3584 8.40757 91.6257 8.7973V4.30518H93.6V15.3816H91.8417L91.6257 14.2894C91.379 14.6278 91.0499 14.9252 90.6386 15.1816C90.2376 15.438 89.7132 15.5662 89.0654 15.5662ZM89.4819 13.8432C90.1194 13.8432 90.6386 13.633 91.0396 13.2125C91.4509 12.7817 91.6566 12.2331 91.6566 11.5664C91.6566 10.8998 91.4509 10.3562 91.0396 9.93571C90.6386 9.50496 90.1194 9.28959 89.4819 9.28959C88.8546 9.28959 88.3354 9.49983 87.9241 9.92033C87.5128 10.3408 87.3071 10.8844 87.3071 11.551C87.3071 12.2177 87.5128 12.7664 87.9241 13.1971C88.3354 13.6279 88.8546 13.8432 89.4819 13.8432Z" fill="#051F39"/>
<path d="M99.3274 15.5662C98.5562 15.5662 97.8724 15.4022 97.2761 15.074C96.6797 14.7458 96.2118 14.2843 95.8725 13.6894C95.5332 13.0946 95.3635 12.4074 95.3635 11.628C95.3635 10.8382 95.5281 10.1357 95.8571 9.52035C96.1964 8.90499 96.6591 8.42808 97.2452 8.08963C97.8416 7.74093 98.5408 7.56658 99.3428 7.56658C100.093 7.56658 100.757 7.73068 101.332 8.05887C101.908 8.38706 102.356 8.83832 102.674 9.41266C103.003 9.97674 103.168 10.6075 103.168 11.3049C103.168 11.4177 103.163 11.5356 103.152 11.6587C103.152 11.7818 103.147 11.91 103.137 12.0433H97.3223C97.3635 12.6382 97.5691 13.1048 97.9393 13.4433C98.3197 13.7817 98.7773 13.9509 99.312 13.9509C99.713 13.9509 100.047 13.8638 100.315 13.6894C100.592 13.5048 100.798 13.2689 100.931 12.9817H102.937C102.793 13.4638 102.551 13.9048 102.212 14.3048C101.883 14.6945 101.471 15.0022 100.978 15.2278C100.494 15.4534 99.9443 15.5662 99.3274 15.5662ZM99.3428 9.16651C98.8595 9.16651 98.4328 9.30497 98.0627 9.58188C97.6925 9.84854 97.456 10.2588 97.3532 10.8126H101.163C101.132 10.3101 100.947 9.91007 100.608 9.61265C100.268 9.31522 99.8467 9.16651 99.3428 9.16651Z" fill="#051F39"/>
<path d="M104.828 15.3816V7.75119H106.587L106.772 9.1819C107.049 8.68961 107.425 8.29988 107.898 8.01271C108.381 7.71529 108.946 7.56658 109.594 7.56658V9.64342H109.039C108.607 9.64342 108.221 9.71008 107.882 9.84341C107.543 9.97674 107.276 10.2075 107.08 10.5357C106.895 10.8639 106.803 11.3203 106.803 11.9049V15.3816H104.828Z" fill="#051F39"/>
<path d="M110.99 15.3816V4.61286H114.984C115.848 4.61286 116.563 4.75644 117.128 5.04361C117.694 5.33077 118.115 5.72563 118.393 6.22817C118.671 6.73072 118.81 7.2948 118.81 7.92041C118.81 8.51526 118.676 9.06395 118.409 9.5665C118.141 10.0588 117.725 10.4588 117.159 10.7664C116.594 11.0639 115.869 11.2126 114.984 11.2126H112.964V15.3816H110.99ZM112.964 9.61265H114.861C115.55 9.61265 116.044 9.46394 116.342 9.16651C116.65 8.85883 116.804 8.44347 116.804 7.92041C116.804 7.3871 116.65 6.97173 116.342 6.67431C116.044 6.36663 115.55 6.21279 114.861 6.21279H112.964V9.61265Z" fill="#051F39"/>
<path d="M120.312 15.3816V7.75119H122.07L122.255 9.1819C122.533 8.68961 122.908 8.29988 123.381 8.01271C123.865 7.71529 124.43 7.56658 125.078 7.56658V9.64342H124.523C124.091 9.64342 123.705 9.71008 123.366 9.84341C123.027 9.97674 122.759 10.2075 122.564 10.5357C122.379 10.8639 122.286 11.3203 122.286 11.9049V15.3816H120.312Z" fill="#051F39"/>
<path d="M129.963 15.5662C129.222 15.5662 128.554 15.397 127.957 15.0586C127.371 14.7201 126.904 14.2535 126.554 13.6586C126.215 13.0535 126.045 12.3561 126.045 11.5664C126.045 10.7767 126.22 10.0844 126.569 9.48958C126.919 8.88447 127.387 8.4127 127.973 8.07425C128.569 7.7358 129.238 7.56658 129.978 7.56658C130.708 7.56658 131.366 7.7358 131.952 8.07425C132.549 8.4127 133.016 8.88447 133.356 9.48958C133.705 10.0844 133.88 10.7767 133.88 11.5664C133.88 12.3561 133.705 13.0535 133.356 13.6586C133.016 14.2535 132.549 14.7201 131.952 15.0586C131.356 15.397 130.693 15.5662 129.963 15.5662ZM129.963 13.8586C130.477 13.8586 130.924 13.6689 131.304 13.2894C131.685 12.8997 131.875 12.3254 131.875 11.5664C131.875 10.8075 131.685 10.2383 131.304 9.85879C130.924 9.46907 130.482 9.2742 129.978 9.2742C129.454 9.2742 129.001 9.46907 128.621 9.85879C128.251 10.2383 128.065 10.8075 128.065 11.5664C128.065 12.3254 128.251 12.8997 128.621 13.2894C129.001 13.6689 129.448 13.8586 129.963 13.8586Z" fill="#051F39"/>
<path d="M138.807 15.5662C138.128 15.5662 137.532 15.4586 137.018 15.2432C136.504 15.0176 136.093 14.7099 135.784 14.3201C135.476 13.9304 135.291 13.4792 135.229 12.9664H137.218C137.28 13.2638 137.445 13.5202 137.712 13.7356C137.99 13.9407 138.344 14.0432 138.776 14.0432C139.208 14.0432 139.522 13.9561 139.717 13.7817C139.923 13.6074 140.026 13.4074 140.026 13.1817C140.026 12.8535 139.882 12.633 139.594 12.5202C139.306 12.3971 138.905 12.2792 138.391 12.1664C138.062 12.0946 137.727 12.0074 137.388 11.9049C137.049 11.8023 136.735 11.6741 136.447 11.5203C136.17 11.3562 135.943 11.151 135.769 10.9049C135.594 10.6485 135.506 10.3357 135.506 9.96648C135.506 9.28958 135.774 8.72038 136.308 8.25886C136.853 7.79734 137.614 7.56658 138.591 7.56658C139.496 7.56658 140.216 7.77683 140.75 8.19732C141.295 8.61782 141.619 9.19728 141.722 9.93571H139.856C139.743 9.37163 139.316 9.08959 138.576 9.08959C138.206 9.08959 137.918 9.16139 137.712 9.30497C137.517 9.44855 137.419 9.62803 137.419 9.84341C137.419 10.069 137.568 10.2485 137.866 10.3818C138.164 10.5152 138.56 10.6382 139.054 10.7511C139.589 10.8741 140.077 11.0126 140.519 11.1664C140.972 11.31 141.331 11.5305 141.599 11.8279C141.866 12.1151 142 12.5305 142 13.074C142.01 13.5458 141.887 13.9714 141.63 14.3509C141.373 14.7304 141.002 15.0278 140.519 15.2432C140.036 15.4586 139.465 15.5662 138.807 15.5662Z" fill="#051F39"/>
<g clip-path="url(#clip0_15285_36751)">
<path fill-rule="evenodd" clip-rule="evenodd" d="M4.13432 7.14896C4.13432 7.14896 3.03183 8.24862 1.79154 9.48574C0.620148 10.6541 0 12.1661 0 13.8156C0 15.3964 0.620148 16.9771 1.79154 18.0768C1.86044 18.1455 1.86044 18.1455 1.92935 18.2143C3.10074 19.3826 4.61666 20.0012 6.20148 20.0012C7.7863 20.0012 9.37113 19.3826 10.5425 18.2143C11.7828 16.9771 12.8853 15.8775 12.8853 15.8775C13.4365 15.3277 13.4365 14.5029 12.8853 13.9531C12.3341 13.4033 11.5072 13.4033 10.9559 13.9531C10.9559 13.9531 9.85346 15.0527 8.61317 16.2899C7.99302 16.9084 7.09725 17.2521 6.20148 17.2521C5.30571 17.2521 4.40994 16.9084 3.78979 16.2899L3.65198 16.1524C3.03183 15.5338 2.68731 14.6404 2.68731 13.7469C2.68731 12.8534 3.03183 11.96 3.65198 11.3414C4.89228 10.1043 5.99476 9.00464 5.99476 9.00464C6.54601 8.45481 6.54601 7.63006 5.99476 7.08024C5.51243 6.66787 4.68556 6.66786 4.13432 7.14896Z" fill="#FF7300"/>
<path fill-rule="evenodd" clip-rule="evenodd" d="M12.128 5.97899L5.99546 12.0958C5.44422 12.6457 5.44422 13.4704 5.99546 14.0202C6.54671 14.5701 7.37357 14.5701 7.92481 14.0202L14.0574 7.90339C14.6086 7.35356 14.6086 6.52882 14.0574 5.97899C13.5061 5.49789 12.6793 5.49789 12.128 5.97899Z" fill="#0061BF"/>
<path fill-rule="evenodd" clip-rule="evenodd" d="M15.9183 12.8522C15.9183 12.8522 17.0208 11.7526 18.2611 10.5155C19.4325 9.34708 20.0526 7.83505 20.0526 6.2543C20.0526 4.67354 19.4325 3.09278 18.2611 1.99313C18.1922 1.9244 18.1922 1.9244 18.1233 1.85567C17.0208 0.618557 15.436 0 13.8512 0C12.2663 0 10.6815 0.618557 9.51012 1.78694C8.26982 3.02405 7.16734 4.12371 7.16734 4.12371C6.6161 4.67354 6.6161 5.49828 7.16734 6.04811C7.71858 6.59794 8.54544 6.59794 9.09669 6.04811C9.09669 6.04811 10.1992 4.94845 11.4395 3.71134C12.0596 3.09278 12.9554 2.74914 13.8512 2.74914C14.7469 2.74914 15.6427 3.09278 16.2628 3.71134L16.4007 3.8488C17.0208 4.46735 17.3653 5.36083 17.3653 6.2543C17.3653 7.14777 17.0208 8.04124 16.4007 8.65979C15.1604 9.89691 14.0579 10.9966 14.0579 10.9966C13.5066 11.5464 13.5066 12.3711 14.0579 12.921C14.5402 13.4021 15.3671 13.4021 15.9183 12.8522Z" fill="#FF7300"/>
</g>
<defs>
<clipPath id="clip0_15285_36751">
<rect width="20.0514" height="20" fill="white"/>
</clipPath>
</defs>
</svg>
