<svg width="1920" height="639" viewBox="0 0 1920 639" fill="none" xmlns="http://www.w3.org/2000/svg">
<rect width="1920" height="639" transform="matrix(-1 0 0 1 1920 0)" fill="url(#paint0_linear_15249_27328)"/>
<path opacity="0.1" d="M107.711 178.643L74 126.015L130.719 126.498L107.711 178.643Z" stroke="#FF7300" stroke-width="2"/>
<path opacity="0.1" d="M126.92 190.091L93.209 137.462L149.928 137.945L126.92 190.091Z" stroke="#FF7300" stroke-width="2"/>
<g opacity="0.1" clip-path="url(#clip0_15249_27328)">
<path d="M1777.21 548.683L1770.62 555.281C1767.88 558.017 1763.45 558.017 1760.72 555.282C1757.98 552.548 1757.98 548.117 1760.72 545.384L1773.92 532.184C1776.65 529.451 1781.08 529.451 1783.81 532.184C1784.72 533.096 1786.2 533.096 1787.11 532.184C1788.02 531.273 1788.02 529.796 1787.11 528.885C1782.56 524.329 1775.17 524.329 1770.62 528.885L1757.42 542.084C1752.86 546.64 1752.86 554.025 1757.42 558.581C1761.97 563.139 1769.36 563.139 1773.92 558.581L1780.51 551.983C1781.43 551.071 1781.43 549.594 1780.51 548.683C1779.6 547.772 1778.13 547.772 1777.21 548.683Z" fill="#FF7300"/>
<path d="M1806.58 525.915C1811.14 521.359 1811.14 513.974 1806.58 509.418C1802.03 504.862 1794.64 504.862 1790.08 509.417L1782.16 517.335C1781.25 518.246 1781.25 519.723 1782.16 520.635C1783.08 521.546 1784.55 521.546 1785.46 520.635L1793.38 512.718C1796.12 509.984 1800.55 509.984 1803.28 512.718C1806.01 515.451 1806.01 519.882 1803.28 522.615L1788.76 537.133C1786.03 539.866 1781.6 539.866 1778.87 537.133C1777.95 536.222 1776.48 536.222 1775.57 537.133C1774.66 538.044 1774.66 539.521 1775.57 540.433C1780.12 544.988 1787.51 544.988 1792.06 540.433L1806.58 525.915Z" fill="#FF7300"/>
<path d="M1797.65 546.35C1796.74 545.439 1795.26 545.439 1794.35 546.35C1793.44 547.262 1793.44 548.739 1794.35 549.65L1801.35 556.648C1802.26 557.559 1803.74 557.559 1804.65 556.648C1805.56 555.737 1805.56 554.259 1804.65 553.348L1797.65 546.35Z" fill="#FF7300"/>
<path d="M1766.35 521.653C1767.26 522.564 1768.74 522.564 1769.65 521.653C1770.56 520.742 1770.56 519.264 1769.65 518.353L1762.65 511.348C1761.74 510.437 1760.26 510.437 1759.35 511.348C1758.44 512.26 1758.44 513.737 1759.35 514.648L1766.35 521.653Z" fill="#FF7300"/>
<path d="M1807.67 541H1800.67C1799.38 541 1798.33 542.045 1798.33 543.333C1798.33 544.622 1799.38 545.667 1800.67 545.667H1807.67C1808.95 545.667 1810 544.622 1810 543.333C1810 542.045 1808.95 541 1807.67 541Z" fill="#FF7300"/>
<path d="M1772.67 517.667C1773.95 517.667 1775 516.622 1775 515.333V508.333C1775 507.045 1773.95 506 1772.67 506C1771.38 506 1770.33 507.045 1770.33 508.333V515.333C1770.33 516.622 1771.38 517.667 1772.67 517.667Z" fill="#FF7300"/>
<path d="M1756.33 527H1763.33C1764.62 527 1765.67 525.955 1765.67 524.666C1765.67 523.378 1764.62 522.333 1763.33 522.333H1756.33C1755.04 522.333 1754 523.378 1754 524.666C1754 525.955 1755.04 527 1756.33 527Z" fill="#FF7300"/>
<path d="M1791.33 550.333C1790.04 550.333 1789 551.378 1789 552.666V559.666C1789 560.955 1790.04 561.999 1791.33 561.999C1792.62 561.999 1793.67 560.955 1793.67 559.666V552.666C1793.67 551.378 1792.62 550.333 1791.33 550.333Z" fill="#FF7300"/>
</g>
<defs>
<linearGradient id="paint0_linear_15249_27328" x1="960" y1="0" x2="960" y2="639" gradientUnits="userSpaceOnUse">
<stop stop-color="#FFF8F2" stop-opacity="0.71"/>
<stop offset="1" stop-color="#FFF2E7"/>
</linearGradient>
<clipPath id="clip0_15249_27328">
<rect width="56" height="56" fill="white" transform="translate(1754 506)"/>
</clipPath>
</defs>
</svg>
