<svg width="40" height="40" viewBox="0 0 40 40" fill="none" xmlns="http://www.w3.org/2000/svg">
<path d="M33.333 18.334C33.333 26.6173 26.6163 33.334 18.333 33.334C10.0497 33.334 3.33301 26.6173 3.33301 18.334C3.33301 10.0507 10.0497 3.33398 18.333 3.33398" stroke="#FF7300" stroke-width="2" stroke-linecap="round" stroke-linejoin="round"/>
<path d="M22.4995 10.2165C21.9162 8.38314 22.5995 6.09981 24.5329 5.48314C25.5495 5.14981 26.7995 5.43314 27.5162 6.41648C28.1829 5.39981 29.4829 5.16648 30.4829 5.48314C32.4162 6.09981 33.0995 8.38314 32.5162 10.2165C31.5995 13.1331 28.3995 14.6498 27.5162 14.6498C26.6162 14.6498 23.4495 13.1665 22.4995 10.2165Z" stroke="#0061BF" stroke-width="2" stroke-linecap="round" stroke-linejoin="round"/>
<path d="M31.55 34.4827C32.4334 37.1494 34.45 37.416 36 35.0827C37.4167 32.9494 36.4834 31.1994 33.9167 31.1994C32.0167 31.1827 30.95 32.666 31.55 34.4827Z" stroke="#0061BF" stroke-width="2" stroke-linecap="round" stroke-linejoin="round"/>
</svg>
