<svg width="40" height="40" viewBox="0 0 40 40" fill="none" xmlns="http://www.w3.org/2000/svg">
<path d="M11.2163 32.834C12.583 31.3673 14.6663 31.484 15.8663 33.084L17.5497 35.334C18.8997 37.1173 21.083 37.1173 22.433 35.334L24.1163 33.084C25.3163 31.484 27.3997 31.3673 28.7663 32.834C31.733 36.0007 34.1497 34.9507 34.1497 30.5173V11.734C34.1663 5.01732 32.5997 3.33398 26.2997 3.33398H13.6997C7.39968 3.33398 5.83301 5.01732 5.83301 11.734V30.5007C5.83301 34.9507 8.26634 35.984 11.2163 32.834Z" stroke="#FF7300" stroke-width="2" stroke-linecap="round" stroke-linejoin="round"/>
<path d="M15 21.666L25 11.666" stroke="#0061BF" stroke-width="2" stroke-linecap="round" stroke-linejoin="round"/>
<path d="M24.9912 21.6673H25.0061" stroke="#0061BF" stroke-width="2" stroke-linecap="round" stroke-linejoin="round"/>
<path d="M14.9912 12.4993H15.0061" stroke="#0061BF" stroke-width="2" stroke-linecap="round" stroke-linejoin="round"/>
</svg>
