<svg width="500" height="416" viewBox="0 0 500 416" fill="none" xmlns="http://www.w3.org/2000/svg">
<g clip-path="url(#clip0_15070_28306)">
<path opacity="0.1" d="M415.324 98.1239C412.069 92.1666 400.911 79.0524 397.011 73.4353C351.358 9.16406 200.927 6.17461 140.357 72.6312C125.914 88.4681 120.886 107.606 111.145 125.775C89.0513 167.086 47.7933 191.792 21.8585 230.013C1.7937 259.666 4.46636 297.677 15.6619 329.735C27.8274 364.572 49.2385 388.904 83.4882 407.401C121.886 428.13 162.946 422.379 204.451 415.164C223.11 411.918 242.353 408.608 261.438 409.843C285.334 411.397 308.952 417.642 332.63 420.678C357.278 423.833 382.857 424.582 406.604 417.697C482.656 395.67 500.642 292.428 469.401 233.241C458.335 212.302 476.795 163.895 459.374 147.5C440.586 129.843 427.599 120.087 415.324 98.1239Z" fill="url(#paint0_linear_15070_28306)"/>
<g opacity="0.21">
<path d="M131.32 326.682C132.552 328.275 133.928 329.724 135.521 331.1C137.115 332.404 138.853 333.49 140.664 334.36L143.489 329.579C145.155 330.376 146.966 330.883 148.704 331.173L148.415 336.75C152.471 337.329 156.6 336.895 160.438 335.519L159.062 330.159C160.728 329.507 162.394 328.637 163.915 327.551L167.682 331.68C169.275 330.448 170.724 329.072 172.1 327.479C173.404 325.885 174.49 324.147 175.36 322.336L170.579 319.511C171.376 317.845 171.883 316.034 172.173 314.296L177.75 314.585C178.329 310.529 177.895 306.401 176.519 302.562L171.159 303.938C170.507 302.272 169.637 300.606 168.551 299.085L172.68 295.318C171.448 293.725 170.072 292.276 168.479 290.9C166.885 289.596 165.147 288.51 163.336 287.64L160.511 292.421C158.845 291.624 157.034 291.117 155.296 290.827L155.585 285.25C151.529 284.671 147.4 285.105 143.562 286.481L144.938 291.841C143.272 292.493 141.606 293.363 140.085 294.449L136.318 290.32C134.725 291.552 133.276 292.928 131.9 294.521C130.596 296.115 129.51 297.853 128.64 299.664L133.421 302.489C132.624 304.155 132.117 305.966 131.827 307.704L126.25 307.415C125.671 311.471 126.105 315.599 127.481 319.438L132.841 318.062C133.493 319.728 134.363 321.394 135.449 322.915L131.32 326.682ZM142.33 302.996C146.749 297.636 154.644 296.839 160.004 301.258C165.364 305.676 166.161 313.571 161.742 318.931C157.324 324.291 149.429 325.088 144.069 320.67C138.781 316.251 137.984 308.356 142.33 302.996ZM145.662 305.749C148.559 302.199 153.775 301.692 157.251 304.59C160.801 307.487 161.308 312.702 158.41 316.179C155.513 319.728 150.298 320.235 146.821 317.338C143.272 314.441 142.765 309.225 145.662 305.749Z" fill="url(#paint1_linear_15070_28306)"/>
<path d="M314.101 152.4C315.201 151.1 316.101 149.8 316.901 148.2C317.701 146.6 318.301 145.1 318.601 143.5L314.301 142C314.601 140.5 314.701 139 314.701 137.5L319.201 136.7C318.901 133.3 317.901 130.1 316.101 127.2L312.001 129.2C311.201 127.9 310.201 126.8 309.101 125.8L311.701 122.1C310.401 121 309.101 120.1 307.501 119.3C306.001 118.5 304.401 117.9 302.801 117.6L301.301 121.9C299.801 121.6 298.301 121.5 296.801 121.5L296.001 117C292.601 117.3 289.401 118.3 286.501 120.1L288.501 124.2C287.201 125 286.101 126 285.101 127.1L281.401 124.5C280.301 125.8 279.401 127.1 278.601 128.7C277.801 130.2 277.201 131.8 276.901 133.4L281.201 134.9C280.901 136.4 280.801 137.9 280.801 139.4L276.301 140.2C276.601 143.6 277.601 146.8 279.401 149.7L283.501 147.7C284.301 149 285.301 150.1 286.401 151.1L283.801 154.8C285.101 155.9 286.401 156.8 288.001 157.6C289.501 158.4 291.101 159 292.701 159.3L294.201 155C295.701 155.3 297.201 155.4 298.701 155.4L299.501 159.9C302.901 159.6 306.101 158.6 309.001 156.8L307.001 152.7C308.301 151.9 309.401 150.9 310.401 149.8L314.101 152.4ZM293.101 147.7C288.001 145.1 286.001 138.9 288.601 133.8C291.201 128.7 297.401 126.7 302.501 129.3C307.601 131.9 309.601 138.1 307.001 143.2C304.401 148.3 298.201 150.3 293.101 147.7Z" fill="url(#paint2_linear_15070_28306)"/>
<path d="M269.5 157.6H266.1C265.5 157.6 265 157.1 265 156.5V153.1C265 152.5 265.5 152 266.1 152H269.5C270.1 152 270.6 152.5 270.6 153.1V156.5C270.6 157.1 270.1 157.6 269.5 157.6Z" fill="#EDEEF7"/>
</g>
<path d="M425 82.5043C425 73.9416 415.787 67 404.421 67H79.579C68.2146 67 59 73.9416 59 82.5043V94H424.998V82.5043H425Z" fill="#EAF4FE"/>
<g filter="url(#filter0_d_15070_28306)">
<path d="M59 94V281.439C59 292.794 68.213 302 79.5775 302H404.421C415.785 302 425 292.794 425 281.439V94H59Z" fill="white"/>
</g>
<path d="M200.532 185H78.4678C74.9105 185 72 182.308 72 179.017V113.983C72 110.692 74.9105 108 78.4678 108H200.532C204.089 108 207 110.692 207 113.983V179.017C207 182.308 204.089 185 200.532 185Z" fill="#F2F5F6"/>
<rect x="104" y="120" width="72.446" height="8.31951" rx="4.15976" fill="#D8DEE6"/>
<rect x="104" y="134.32" width="94" height="4" rx="2" fill="#D8DEE6"/>
<rect x="104" y="144.32" width="47.7485" height="3.7816" rx="1.8908" fill="#D8DEE6"/>
<rect x="82.1247" y="121.125" width="14.3895" height="14.3895" rx="2.24949" stroke="#D8DEE6" stroke-width="2.24949"/>
<rect x="81" y="159" width="117" height="5" rx="2.5" fill="#D8DEE6"/>
<rect x="81" y="170" width="79" height="4" rx="2" fill="#D8DEE6"/>
<path d="M208.149 283H78.8511C75.083 283 72 280.937 72 278.416V228.584C72 226.063 75.083 224 78.8511 224H208.149C211.917 224 215 226.063 215 228.584V278.416C215 280.937 211.917 283 208.149 283Z" fill="#F2F5F6"/>
<path d="M123.508 252.754C123.508 264.216 114.216 273.508 102.754 273.508C91.2918 273.508 82 264.216 82 252.754C82 241.292 91.2918 232 102.754 232C114.216 232 123.508 241.292 123.508 252.754Z" fill="white" stroke="#D8DEE6" stroke-linecap="round"/>
<path opacity="0.15" d="M102.927 251.519C102.818 251.508 102.687 251.508 102.566 251.519C99.9668 251.431 97.9023 249.301 97.9023 246.68C97.9023 244.004 100.065 241.83 102.752 241.83C105.428 241.83 107.602 244.004 107.602 246.68C107.591 249.301 105.527 251.431 102.927 251.519Z" fill="#FF7300"/>
<path fill-rule="evenodd" clip-rule="evenodd" d="M102.941 253.23C105.047 253.23 107.195 253.759 108.855 254.868C110.347 255.861 111.202 257.253 111.202 258.751C111.202 260.249 110.347 261.643 108.856 262.642L108.855 262.642C107.19 263.756 105.04 264.287 102.933 264.287C100.826 264.287 98.676 263.756 97.0112 262.642C95.519 261.649 94.6641 260.257 94.6641 258.759C94.6641 257.261 95.5187 255.866 97.0101 254.868L97.0131 254.866L97.0131 254.866C98.6826 253.759 100.835 253.23 102.941 253.23ZM97.9201 256.231C96.7691 257.002 96.3025 257.933 96.3025 258.759C96.3025 259.584 96.7689 260.513 97.9196 261.279L97.9214 261.28C99.2603 262.176 101.075 262.649 102.933 262.649C104.791 262.649 106.605 262.176 107.944 261.28C109.096 260.509 109.563 259.577 109.563 258.751C109.563 257.925 109.097 256.996 107.946 256.231L107.945 256.23C106.612 255.34 104.8 254.869 102.941 254.869C101.083 254.869 99.2652 255.339 97.9201 256.231Z" fill="#FF7300"/>
<rect x="131.453" y="238" width="56" height="8" rx="4" fill="#D8DEE6"/>
<rect x="131.453" y="252" width="73" height="4" rx="2" fill="#D8DEE6"/>
<rect x="131.453" y="262" width="37" height="4" rx="2" fill="#D8DEE6"/>
<path d="M401.698 282H254.304C251.387 282 249 279.246 249 275.881V236.119C249 232.754 251.387 230 254.304 230H401.696C404.613 230 407 232.754 407 236.119V275.881C407.001 279.246 404.615 282 401.698 282Z" fill="#F2F5F6"/>
<path d="M267 242C267 240.895 267.895 240 269 240C270.105 240 271 240.895 271 242V272H267V242Z" fill="#D8DEE6"/>
<path d="M281 258C281 256.895 281.895 256 283 256C284.105 256 285 256.895 285 258V272H281V258Z" fill="#D8DEE6"/>
<path d="M295 242C295 240.895 295.895 240 297 240C298.105 240 299 240.895 299 242V272H295V242Z" fill="#D8DEE6"/>
<path d="M309 252C309 250.895 309.895 250 311 250C312.105 250 313 250.895 313 252V272H309V252Z" fill="#D8DEE6"/>
<path d="M323 242C323 240.895 323.895 240 325 240C326.105 240 327 240.895 327 242V272H323V242Z" fill="#D8DEE6"/>
<path d="M337 258C337 256.895 337.895 256 339 256C340.105 256 341 256.895 341 258V272H337V258Z" fill="#D8DEE6"/>
<path d="M351 242C351 240.895 351.895 240 353 240C354.105 240 355 240.895 355 242V272H351V242Z" fill="#D8DEE6"/>
<path d="M365 250C365 248.895 365.895 248 367 248C368.105 248 369 248.895 369 250V272H365V250Z" fill="#D8DEE6"/>
<path d="M379 258C379 256.895 379.895 256 381 256C382.105 256 383 256.895 383 258V272H379V258Z" fill="#D8DEE6"/>
<path d="M259.212 236.788C259.095 236.671 258.905 236.671 258.788 236.788L256.879 238.697C256.762 238.814 256.762 239.004 256.879 239.121C256.996 239.238 257.186 239.238 257.303 239.121L259 237.424L260.697 239.121C260.814 239.238 261.004 239.238 261.121 239.121C261.238 239.004 261.238 238.814 261.121 238.697L259.212 236.788ZM259.3 276L259.3 237L258.7 237L258.7 276L259.3 276Z" fill="#D8DEE6"/>
<path d="M398.212 276.212C398.329 276.095 398.329 275.905 398.212 275.788L396.303 273.879C396.186 273.762 395.996 273.762 395.879 273.879C395.762 273.996 395.762 274.186 395.879 274.303L397.576 276L395.879 277.697C395.762 277.814 395.762 278.004 395.879 278.121C395.996 278.238 396.186 278.238 396.303 278.121L398.212 276.212ZM259 276.3H398V275.7H259V276.3Z" fill="#D8DEE6"/>
<path d="M407.362 200H250.639C247.538 200 245 197.55 245 194.555V111.445C245 108.45 247.538 106 250.639 106H407.361C410.462 106 413 108.45 413 111.445V194.555C413.001 197.551 410.464 200 407.362 200Z" fill="#F2F5F6"/>
<path d="M81 80C81 82.2091 79.2091 84 77 84C74.7909 84 73 82.2091 73 80C73 77.7909 74.7909 76 77 76C79.2091 76 81 77.7909 81 80Z" fill="#FF6259"/>
<path d="M95 80C95 82.2091 93.2091 84 91 84C88.7909 84 87 82.2091 87 80C87 77.7909 88.7909 76 91 76C93.2091 76 95 77.7909 95 80Z" fill="#FFBE2F"/>
<path d="M109 80C109 82.2091 107.209 84 105 84C102.791 84 101 82.2091 101 80C101 77.7909 102.791 76 105 76C107.209 76 109 77.7909 109 80Z" fill="#29CD41"/>
<path opacity="0.15" d="M68 407C100.033 407 126 403.194 126 398.5C126 393.806 100.033 390 68 390C35.9675 390 10 393.806 10 398.5C10 403.194 35.9675 407 68 407Z" fill="#FF7300"/>
<path d="M87.2348 372.486L88.0647 389.046L103.039 394.797L71.6153 390.771L70.748 369.613" fill="#FFCBBD"/>
<path d="M88.859 385.476C89.8093 385.801 89.12 386.457 90.7114 388.372C92.3028 390.287 101.72 393.987 106.161 395.324C110.457 396.617 109.527 400.32 108.064 400.32C108.064 400.32 86.672 400.32 84.9762 400.32C83.2791 400.32 82.0477 398.948 80.736 398.948C80.38 398.948 79.6452 398.701 79.4378 398.956C79.1152 399.354 79.1473 400.32 79.1473 400.32H71.3188C70.4395 400.32 69.9242 399.757 69.9831 399.102L70.825 387.991C70.825 387.991 80.3854 389.289 83.077 388.503C84.1651 388.185 83.0248 387.355 83.4812 386.899C83.9376 386.442 87.9087 385.15 88.859 385.476Z" fill="#FFB156"/>
<path d="M56.4707 264.096C63.9191 327.094 63.5644 381.888 63.5644 381.888H88.8354C88.8354 381.888 92.8025 321.881 87.5638 259.752" fill="#3A67B3"/>
<path d="M48.3231 372.486L46.6675 389.046L61.6419 394.797L30.2168 390.771L31.8363 369.613" fill="#FFCBBD"/>
<path d="M47.4599 385.476C48.4102 385.801 47.7209 386.457 49.3123 388.372C50.9037 390.287 60.3209 393.987 64.7619 395.324C69.0582 396.617 68.128 400.32 66.6651 400.32C66.6651 400.32 45.2729 400.32 43.5771 400.32C41.88 400.32 40.6487 398.948 39.337 398.948C38.981 398.948 38.2462 398.701 38.0387 398.956C37.7161 399.354 37.7483 400.32 37.7483 400.32H29.9184C29.0391 400.32 28.5238 399.757 28.5827 399.102L29.4246 387.991C29.4246 387.991 38.985 389.289 41.6766 388.503C42.7647 388.185 41.6244 387.355 42.0808 386.899C42.5372 386.442 46.5083 385.15 47.4599 385.476Z" fill="#FFB156"/>
<path d="M30.7196 264.096C30.7196 325.79 25.8691 381.888 25.8691 381.888H51.1401C51.1401 381.888 62.9397 319.273 62.9397 259.752" fill="#3A67B3"/>
<path d="M83.814 260.437C75.1437 269.107 40.5117 266.242 40.5117 266.242L46.4062 189.487L62.0003 187.199C62.0003 187.199 92.4844 251.767 83.814 260.437Z" fill="#AED5FB"/>
<path d="M83.0633 207.187C83.0633 207.187 67.2658 186.675 61.1934 187.201C74.8173 223.99 70.4928 275.432 71.3266 276.267C72.1605 277.101 92.5809 272.791 92.5809 272.791C92.5809 272.791 91.5289 230.648 83.0633 207.187Z" fill="#80BFFE"/>
<path d="M28.5442 209.543C28.5442 209.543 29.4342 232.154 28.9725 251.053C28.6472 264.408 26.8176 275.909 27.175 276.266C28.0382 277.13 63.492 277.666 64.7849 276.373C65.0339 237.817 59.5276 202.37 47.0815 189.389L28.5442 209.543Z" fill="#80BFFE"/>
<path d="M61.1934 187.198C61.1934 187.198 79.218 185.549 85.9477 199.327C92.6786 213.105 98.272 236.312 91.541 241.092C84.81 245.871 46.4023 245.582 46.4023 245.582V230.566L76.3337 225.754L75.7568 203.866" fill="#5CA0E6"/>
<path d="M53.1836 199.926C54.1874 198.025 58.2455 191.81 59.0419 190.925C61.6478 188.031 65.7863 188.176 68.5622 190.909C68.8366 191.179 69.0748 191.673 68.7603 191.895C68.6184 191.996 68.427 191.976 68.2557 191.952C67.1769 191.802 67.4459 191.652 66.3685 191.502C67.288 191.634 66.6603 192.582 66.5398 193.503C67.4593 193.228 68.2088 194.379 67.8501 195.168C69.3211 195.32 69.3532 196.766 69.0587 198.052C68.8406 199.002 68.2999 199.876 67.545 200.495C67.3951 200.618 67.2224 200.737 67.0283 200.74C66.6228 200.748 66.3926 200.289 66.2614 199.906C66.3471 200.159 64.5322 202.335 64.3234 202.642C63.5792 203.736 62.8364 204.833 62.0922 205.929" fill="#FFCBBD"/>
<path d="M52.0039 200.558L53.4802 197.715L65.4471 205.505L63.4649 210.015" fill="#5CA0E5"/>
<path d="M47.0821 189.385C47.0821 189.385 23.9821 192.628 22.2448 206.096C20.5062 219.565 28.1098 249.76 42.4471 248.023C56.7844 246.286 65.4467 207.617 65.4467 207.617L52.0049 199.325L38.9712 220.703" fill="#5BA7F4"/>
<path d="M57.2249 166.069C58.5473 167.851 68.6846 176.667 62.1597 181.781C57.332 185.565 50.5421 183.429 46.5148 177.107C42.8087 171.289 49.3482 158.193 57.2249 166.069Z" fill="#FFC6AD"/>
<path d="M48.9368 176.035L47.4297 189.385C47.4297 189.385 50.231 191.586 56.0345 190.691C61.4645 189.852 61.5394 187.546 61.5394 187.546L60.81 178.937" fill="#FFC6AD"/>
<path d="M46.5678 177.014C47.1888 176.464 48.198 176.416 48.8686 176.903C49.0974 177.069 49.3183 177.301 49.602 177.297C49.954 177.293 50.1936 176.913 50.2217 176.562C50.3743 174.695 46.5611 173.565 47.9169 171.74C48.9181 170.391 51.1185 171.686 52.137 170.399C52.7005 169.687 52.4328 168.495 53.1261 167.909C53.7619 167.374 54.7081 167.722 55.5273 167.86C56.7318 168.062 58.0341 167.698 58.9122 166.848C60.4634 165.346 60.2091 162.936 58.773 161.465C57.3047 159.962 55.1913 159.295 53.1837 160.123C52.6349 160.35 52.1196 160.656 51.6364 161C51.1171 161.37 50.824 161.892 50.3703 162.324C49.0934 163.535 46.8703 163.507 45.8718 164.957C45.5613 165.406 45.4167 165.946 45.2106 166.453C44.7154 167.676 43.8668 168.724 42.9634 169.687C42.6502 170.021 42.325 170.349 42.076 170.735C41.4751 171.658 41.3573 172.835 41.5554 173.919C41.7053 174.738 42.0198 175.522 42.3986 176.261C42.7104 176.867 43.2498 177.337 43.6701 177.876C44.7529 179.264 45.9615 180.556 47.2772 181.727C47.6907 182.095 48.1351 182.463 48.6718 182.6C49.2085 182.738 49.8617 182.577 50.1294 182.093C50.6166 181.21 49.5793 180.283 48.6919 179.804" fill="#292466"/>
<path d="M47.9359 176.698C47.4982 176.443 46.904 176.56 46.5372 176.906C46.1705 177.254 46.0179 177.79 46.0621 178.293C46.1076 178.796 46.3311 179.27 46.6202 179.685C47.1556 180.453 47.9894 181.072 48.925 181.113C49.8606 181.155 50.8416 180.468 50.9153 179.535" fill="#F3AA8A"/>
<path d="M59.8158 183.1C59.8158 183.1 55.6466 185.599 51.1348 182.646" stroke="#E6926E" stroke-width="0.75" stroke-miterlimit="10" stroke-linecap="round" stroke-linejoin="round"/>
<path fill-rule="evenodd" clip-rule="evenodd" d="M327.933 211.627C327.933 211.627 327.933 210.637 327.933 209.524C327.933 208.472 327.529 207.514 326.785 206.771C326.071 206.06 325.079 205.627 324.055 205.658C323.993 205.658 323.993 205.658 323.931 205.658C322.876 205.658 321.915 206.06 321.201 206.771C320.488 207.483 320.053 208.472 320.053 209.524C320.053 210.637 320.053 211.627 320.053 211.627C320.053 212.121 320.426 212.492 320.922 212.492C321.418 212.492 321.79 212.121 321.79 211.627C321.79 211.627 321.79 210.637 321.79 209.524C321.79 208.967 322.039 208.41 322.442 208.008C322.845 207.606 323.404 207.359 323.962 207.359L324.086 207.359C324.644 207.359 325.203 207.606 325.606 208.008C326.009 208.41 326.258 208.967 326.258 209.524C326.258 210.637 326.258 211.627 326.258 211.627C326.258 212.121 326.63 212.492 327.126 212.492C327.529 212.461 327.902 212.09 327.933 211.627Z" fill="#D8DEE6"/>
<path fill-rule="evenodd" clip-rule="evenodd" d="M324.863 215.742L324.863 210.238C324.863 209.743 324.491 209.372 323.994 209.372C323.498 209.372 323.126 209.743 323.126 210.238L323.126 215.742C323.126 216.237 323.498 216.608 323.994 216.608C324.459 216.577 324.832 216.206 324.863 215.742Z" fill="#D8DEE6"/>
<path fill-rule="evenodd" clip-rule="evenodd" d="M320.052 214.35C320.052 214.35 320.052 215.339 320.052 216.452C320.052 217.504 320.455 218.463 321.168 219.174C321.882 219.885 322.875 220.318 323.898 220.287C323.96 220.287 323.96 220.287 324.022 220.287C325.077 220.349 326.07 219.916 326.783 219.205C327.497 218.493 327.931 217.504 327.931 216.452C327.931 215.339 327.931 214.35 327.931 214.35C327.931 213.855 327.559 213.484 327.063 213.484C326.566 213.484 326.194 213.855 326.194 214.35C326.194 214.35 326.194 215.339 326.194 216.452C326.194 217.009 325.946 217.566 325.542 217.968C325.139 218.37 324.581 218.617 324.022 218.617L323.898 218.617C323.34 218.617 322.782 218.37 322.378 217.968C321.975 217.566 321.727 217.009 321.727 216.452C321.727 215.339 321.727 214.35 321.727 214.35C321.727 213.855 321.355 213.484 320.858 213.484C320.424 213.484 320.052 213.855 320.052 214.35Z" fill="#D8DEE6"/>
<path d="M139.646 214.354C139.842 214.549 140.158 214.549 140.354 214.354L143.536 211.172C143.731 210.976 143.731 210.66 143.536 210.464C143.34 210.269 143.024 210.269 142.828 210.464L140 213.293L137.172 210.464C136.976 210.269 136.66 210.269 136.464 210.464C136.269 210.66 136.269 210.976 136.464 211.172L139.646 214.354ZM139.5 191L139.5 214L140.5 214L140.5 191L139.5 191Z" fill="#D8DEE6"/>
<g filter="url(#filter1_d_15070_28306)">
<path d="M173.268 352.77L193.413 317.305C193.747 316.685 194.445 316.521 195.064 316.859L211.947 326.246C214.248 327.526 215.824 329.813 216.203 332.423L216.873 337.04C217.14 338.878 216.794 340.75 215.89 342.364L201.555 367.944C200.922 369.091 199.493 369.514 198.348 368.872L173.769 354.874C173.091 354.408 172.807 353.449 173.268 352.77Z" fill="white"/>
</g>
<path d="M213.449 327.34L209.93 337.11L216.575 340.68C216.575 340.68 217.875 337.928 216.558 332.68C215.665 329.122 213.449 327.34 213.449 327.34Z" fill="#D8DEE6"/>
<path opacity="0.2" d="M207.646 333.46C207.553 333.425 207.553 333.425 207.46 333.39L195.091 326.107C194.904 326.037 194.821 325.687 194.89 325.5C194.959 325.314 195.307 325.232 195.493 325.301L207.862 332.584C208.048 332.654 208.132 333.004 208.063 333.191C208.053 333.506 207.832 333.529 207.646 333.46Z" fill="#0061BF"/>
<path opacity="0.2" d="M210.228 342.846C210.135 342.811 210.135 342.811 210.041 342.777L192.03 332.109C191.844 332.039 191.761 331.689 191.829 331.502C191.898 331.316 192.246 331.233 192.433 331.303L210.444 341.971C210.63 342.041 210.713 342.391 210.645 342.577C210.635 342.892 210.414 342.916 210.228 342.846Z" fill="#0061BF"/>
<path opacity="0.2" d="M205.765 350.346C205.672 350.312 205.672 350.312 205.579 350.277L187.567 339.609C187.381 339.539 187.298 339.189 187.366 339.002C187.435 338.816 187.783 338.733 187.97 338.803L205.981 349.471C206.167 349.541 206.25 349.891 206.182 350.077C206.113 350.264 205.951 350.416 205.765 350.346Z" fill="#0061BF"/>
<path opacity="0.2" d="M201.837 356.983C201.744 356.948 201.744 356.948 201.651 356.913L183.64 346.245C183.453 346.176 183.37 345.826 183.439 345.639C183.507 345.452 183.856 345.37 184.042 345.44L202.053 356.108C202.239 356.178 202.323 356.527 202.254 356.714C202.244 357.029 202.023 357.053 201.837 356.983Z" fill="#0061BF"/>
<path opacity="0.2" d="M198.661 362.727C198.568 362.692 198.568 362.692 198.475 362.657L180.464 351.989C180.278 351.92 180.194 351.57 180.263 351.383C180.332 351.196 180.68 351.114 180.866 351.184L198.877 361.852C199.064 361.922 199.147 362.272 199.078 362.458C199.103 362.68 198.882 362.704 198.661 362.727Z" fill="#0061BF"/>
<g filter="url(#filter2_d_15070_28306)">
<path d="M362 37.8083C362 31.2991 362 28.0445 364.022 26.0223C366.044 24.0001 369.299 24.0001 375.808 24.0001H462.973C469.482 24.0001 472.736 24.0001 474.759 26.0223C476.781 28.0445 476.781 31.2991 476.781 37.8083V61.4012C476.781 67.9105 476.781 71.1651 474.759 73.1872C472.736 75.2094 469.482 75.2094 462.973 75.2094H396.359C394.111 75.2094 392.988 75.2094 391.938 75.554C390.889 75.8987 389.984 76.565 388.173 77.8976L375.808 87.0001L375.39 81.1438C375.139 77.6358 372.22 74.9179 368.703 74.9179C365.001 74.9179 362 71.9167 362 68.2145V37.8083Z" fill="white"/>
</g>
<rect x="372" y="32.6914" width="92" height="6" rx="3" fill="#EBEFF2"/>
<rect x="372" y="43.0059" width="15.5342" height="3.45205" rx="1.72603" fill="#EBEFF2"/>
<rect x="391.85" y="43.0059" width="43" height="4" rx="2" fill="#EBEFF2"/>
<rect x="372" y="51.3223" width="84" height="3" rx="1.5" fill="#EBEFF2"/>
<rect x="372" y="58.6367" width="92" height="6" rx="3" fill="#EBEFF2"/>
<path d="M286 67V8C286 6.89543 286.895 6 288 6H361H429.5C430.605 6 431.5 6.89543 431.5 8V24" stroke="#A9CBF7" stroke-width="1.5" stroke-linecap="round" stroke-linejoin="round" stroke-dasharray="6 6"/>
<path opacity="0.2" d="M478.182 123.076H479.885C479.885 128.027 483.916 132.04 488.887 132.04V133.736C483.915 133.736 479.885 137.75 479.885 142.701H478.182C478.182 137.75 474.152 133.736 469.18 133.736V132.04C474.152 132.04 478.182 128.026 478.182 123.076Z" fill="url(#paint3_linear_15070_28306)"/>
<path d="M462.488 98H462.914C462.914 102.951 466.945 106.965 471.916 106.965V107.389C466.944 107.389 462.913 111.403 462.913 116.354H462.487C462.487 111.403 458.457 107.389 453.484 107.389V106.965C458.458 106.965 462.488 102.951 462.488 98Z" fill="url(#paint4_linear_15070_28306)"/>
<path opacity="0.2" d="M448.71 153.799C448.71 158.589 452.61 162.472 457.42 162.472C452.61 162.472 448.71 166.355 448.71 171.146C448.71 166.355 444.811 162.472 440 162.472C444.811 162.471 448.71 158.589 448.71 153.799Z" fill="url(#paint5_linear_15070_28306)"/>
<path opacity="0.4" d="M272.279 167.777H262.65C262.116 167.777 261.68 167.341 261.68 166.806C261.68 166.272 262.116 165.836 262.65 165.836H272.279C272.813 165.836 273.249 166.272 273.249 166.806C273.249 167.341 272.813 167.777 272.279 167.777Z" fill="#D8DEE6"/>
<path opacity="0.4" d="M295.547 167.777H276.172C275.638 167.777 275.201 167.341 275.201 166.806C275.201 166.272 275.638 165.836 276.172 165.836H295.547C296.082 165.836 296.518 166.272 296.518 166.806C296.52 167.341 296.082 167.777 295.547 167.777Z" fill="#D8DEE6"/>
<path d="M258.47 167.941C259.282 167.941 259.941 167.282 259.941 166.47C259.941 165.658 259.282 165 258.47 165C257.658 165 257 165.658 257 166.47C257 167.282 257.658 167.941 258.47 167.941Z" fill="#D8DEE6"/>
<path opacity="0.4" d="M285.92 171.121H295.548C296.082 171.121 296.519 171.557 296.519 172.092C296.519 172.626 296.082 173.062 295.548 173.062H285.92C285.386 173.062 284.949 172.626 284.949 172.092C284.949 171.557 285.386 171.121 285.92 171.121Z" fill="#D8DEE6"/>
<path opacity="0.4" d="M262.65 171.121H282.026C282.56 171.121 282.997 171.557 282.997 172.092C282.997 172.626 282.56 173.062 282.026 173.062H262.65C262.116 173.062 261.68 172.626 261.68 172.092C261.68 171.557 262.116 171.121 262.65 171.121Z" fill="#D8DEE6"/>
<path d="M258.47 173.226C259.282 173.226 259.941 172.568 259.941 171.756C259.941 170.943 259.282 170.285 258.47 170.285C257.658 170.285 257 170.943 257 171.756C257 172.568 257.658 173.226 258.47 173.226Z" fill="#D8DEE6"/>
<path opacity="0.4" d="M272.279 178.918H262.65C262.116 178.918 261.68 178.481 261.68 177.947C261.68 177.413 262.116 176.977 262.65 176.977H272.279C272.813 176.977 273.249 177.413 273.249 177.947C273.249 178.481 272.813 178.918 272.279 178.918Z" fill="#D8DEE6"/>
<path opacity="0.4" d="M295.547 178.918H276.172C275.638 178.918 275.201 178.481 275.201 177.947C275.201 177.413 275.638 176.977 276.172 176.977H295.547C296.082 176.977 296.518 177.413 296.518 177.947C296.52 178.481 296.082 178.918 295.547 178.918Z" fill="#D8DEE6"/>
<path d="M258.47 179.078C259.282 179.078 259.941 178.419 259.941 177.607C259.941 176.795 259.282 176.137 258.47 176.137C257.658 176.137 257 176.795 257 177.607C257 178.419 257.658 179.078 258.47 179.078Z" fill="#D8DEE6"/>
<path opacity="0.4" d="M285.92 182.264H295.548C296.082 182.264 296.519 182.7 296.519 183.234C296.519 183.768 296.082 184.205 295.548 184.205H285.92C285.386 184.205 284.949 183.768 284.949 183.234C284.949 182.7 285.386 182.264 285.92 182.264Z" fill="#D8DEE6"/>
<path opacity="0.4" d="M262.65 182.264H282.026C282.56 182.264 282.997 182.7 282.997 183.234C282.997 183.768 282.56 184.205 282.026 184.205H262.65C262.116 184.205 261.68 183.768 261.68 183.234C261.68 182.7 262.116 182.264 262.65 182.264Z" fill="#D8DEE6"/>
<path d="M258.47 184.365C259.282 184.365 259.941 183.706 259.941 182.894C259.941 182.082 259.282 181.424 258.47 181.424C257.658 181.424 257 182.082 257 182.894C257 183.706 257.658 184.365 258.47 184.365Z" fill="#D8DEE6"/>
<path opacity="0.7" d="M320 127.814V182.186C320 183.183 319.135 184 318.075 184H317.925C316.867 184 316 183.185 316 182.186V127.814C316 126.817 316.865 126 317.925 126H318.075C319.135 126 320 126.815 320 127.814Z" fill="#D8DEE6"/>
<path opacity="0.7" d="M334 132.657V182.343C334 183.254 333.135 184 332.075 184H331.925C330.867 184 330 183.255 330 182.343V132.657C330 131.746 330.865 131 331.925 131H332.075C333.135 131 334 131.745 334 132.657Z" fill="#D8DEE6"/>
<path opacity="0.7" d="M361 129.751V182.249C361 183.211 360.135 184 359.075 184H358.925C357.867 184 357 183.213 357 182.249V129.751C357 128.789 357.865 128 358.925 128H359.075C360.133 128 361 128.787 361 129.751Z" fill="#D8DEE6"/>
<path opacity="0.7" d="M347.021 124.908V182.092C347.021 183.141 346.158 184 345.101 184H344.951C343.896 184 343.031 183.142 343.031 182.092V124.908C343.031 123.859 343.894 123 344.951 123H345.101C346.158 123 347.021 123.858 347.021 124.908Z" fill="#D8DEE6"/>
<path opacity="0.7" d="M374 127.814V182.186C374 183.183 373.135 184 372.075 184H371.925C370.867 184 370 183.185 370 182.186V127.814C370 126.817 370.865 126 371.925 126H372.075C373.135 126 374 126.815 374 127.814Z" fill="#D8DEE6"/>
<path opacity="0.7" d="M401 129.751V182.249C401 183.211 400.135 184 399.075 184H398.925C397.867 184 397 183.213 397 182.249V129.751C397 128.789 397.865 128 398.925 128H399.075C400.135 128 401 128.787 401 129.751Z" fill="#D8DEE6"/>
<path opacity="0.7" d="M387 132.657V182.343C387 183.254 386.135 184 385.075 184H384.925C383.867 184 383 183.255 383 182.343V132.657C383 131.746 383.865 131 384.925 131H385.075C386.133 131 387 131.745 387 132.657Z" fill="#D8DEE6"/>
<path d="M318.487 189.814C319.308 189.814 319.973 189.184 319.973 188.407C319.973 187.63 319.308 187 318.487 187C317.666 187 317 187.63 317 188.407C317 189.184 317.666 189.814 318.487 189.814Z" fill="#D8DEE6"/>
<path d="M331.635 189.814C332.456 189.814 333.122 189.184 333.122 188.407C333.122 187.63 332.456 187 331.635 187C330.814 187 330.148 187.63 330.148 188.407C330.148 189.184 330.814 189.814 331.635 189.814Z" fill="#D8DEE6"/>
<path d="M345.518 189.814C346.339 189.814 347.005 189.184 347.005 188.407C347.005 187.63 346.339 187 345.518 187C344.697 187 344.031 187.63 344.031 188.407C344.031 189.184 344.697 189.814 345.518 189.814Z" fill="#D8DEE6"/>
<path d="M359.037 189.814C359.859 189.814 360.524 189.184 360.524 188.407C360.524 187.63 359.859 187 359.037 187C358.216 187 357.551 187.63 357.551 188.407C357.551 189.184 358.216 189.814 359.037 189.814Z" fill="#D8DEE6"/>
<path d="M372.551 189.814C373.372 189.814 374.038 189.184 374.038 188.407C374.038 187.63 373.372 187 372.551 187C371.73 187 371.064 187.63 371.064 188.407C371.064 189.184 371.73 189.814 372.551 189.814Z" fill="#D8DEE6"/>
<path d="M386.045 189.814C386.866 189.814 387.532 189.184 387.532 188.407C387.532 187.63 386.866 187 386.045 187C385.224 187 384.559 187.63 384.559 188.407C384.559 189.184 385.224 189.814 386.045 189.814Z" fill="#D8DEE6"/>
<path d="M399.561 189.814C400.382 189.814 401.048 189.184 401.048 188.407C401.048 187.63 400.382 187 399.561 187C398.74 187 398.074 187.63 398.074 188.407C398.074 189.184 398.74 189.814 399.561 189.814Z" fill="#D8DEE6"/>
<path opacity="0.7" d="M277 158C288.598 158 298 148.598 298 137C298 125.402 288.598 116 277 116C265.402 116 256 125.402 256 137C256 148.598 265.402 158 277 158Z" fill="#D8DEE6"/>
<path d="M285.616 143.016L281.046 140.788C280.616 140.576 280.348 140.154 280.348 139.682V138.106C280.459 137.973 280.572 137.825 280.691 137.662C281.284 136.846 281.758 135.937 282.105 134.954C282.779 134.654 283.218 134.002 283.218 133.269V131.399C283.218 130.951 283.045 130.515 282.739 130.176V127.692C282.764 127.436 282.872 125.907 281.739 124.648C280.756 123.553 279.161 123 276.999 123C274.836 123 273.244 123.553 272.261 124.648C271.128 125.909 271.233 127.438 271.261 127.692V130.176C270.955 130.515 270.782 130.951 270.782 131.399V133.269C270.782 133.836 271.045 134.365 271.499 134.718C271.936 136.41 272.854 137.687 273.174 138.094V139.638C273.174 140.089 272.922 140.504 272.515 140.72L268.249 142.992C266.861 143.731 266 145.145 266 146.688V148.199C266 150.415 273.195 151 276.999 151C280.806 151 288 150.415 288 148.199V146.78C288.001 145.177 287.085 143.734 285.616 143.016Z" fill="white"/>
<path opacity="0.2" d="M277 407C289.15 407 299 403.642 299 399.5C299 395.358 289.15 392 277 392C264.85 392 255 395.358 255 399.5C255 403.642 264.85 407 277 407Z" fill="#76B1EB"/>
<path d="M259.225 315.174C259.225 315.174 257.79 319.119 254.741 319.659C251.691 320.199 246.306 314.274 249.716 311.224C253.126 308.175 257.79 313.019 259.225 315.174Z" fill="#B7DBFF"/>
<path d="M263.889 295.79C263.889 295.79 259.404 306.74 261.199 312.119C262.994 317.499 274.119 321.454 277.348 314.454C280.578 307.455 273.399 297.564 270.719 295.446C268.04 293.328 264.789 293.995 263.889 295.79Z" fill="#B7DBFF"/>
<path d="M290.089 300.46C290.089 300.46 282.369 307.454 281.474 314.454C280.579 321.453 285.784 323.984 291.163 323.068C296.543 322.152 299.238 308.534 297.623 302.249C296.008 295.964 290.089 300.46 290.089 300.46Z" fill="#B7DBFF"/>
<path d="M291.522 339.217C291.522 339.217 282.907 339.577 282.553 343.701C282.198 347.826 286.317 348.726 290.447 345.136C294.577 341.546 295.112 339.392 291.522 339.217Z" fill="#B7DBFF"/>
<path d="M282.803 344.925L282.586 344.443C282.861 344.316 289.437 341.319 292.492 340.779L292.588 341.309C289.596 341.828 282.898 344.893 282.803 344.925Z" fill="#76B1EB"/>
<path d="M293.445 366.22C293.445 366.22 287.118 360.364 283.914 363.044C280.711 365.723 283.009 369.254 288.462 369.651C293.916 370.048 295.849 368.894 293.445 366.22Z" fill="#B7DBFF"/>
<path d="M292.715 368.443C290.232 366.696 283.317 364.091 283.248 364.064L283.433 363.566C283.719 363.672 290.481 366.214 293.017 368.009L292.715 368.443Z" fill="#76B1EB"/>
<path d="M260.072 364.5C260.072 364.5 268.792 356.425 273.176 360.084C277.56 363.743 274.426 368.651 266.907 369.202C259.389 369.752 256.757 368.18 260.072 364.5Z" fill="#B7DBFF"/>
<path d="M261.02 367.481L260.713 367.047C264.202 364.59 273.51 361.08 273.907 360.932L274.093 361.429C273.997 361.466 264.451 365.062 261.02 367.481Z" fill="#76B1EB"/>
<path d="M270.19 347.832C270.19 347.832 269.295 352.137 266.065 353.752C262.835 355.367 257.069 351.957 260.13 346.752C263.19 341.548 268.554 345.677 270.19 347.832Z" fill="#B7DBFF"/>
<path d="M262.635 334.372C262.635 334.372 261.02 330.782 254.74 333.117C248.461 335.452 245.946 339.037 249.895 340.292C253.845 341.547 262.635 334.372 262.635 334.372Z" fill="#B7DBFF"/>
<path d="M251.351 338.184L251.012 337.782C254.628 334.706 261.125 333.975 261.4 333.943L261.458 334.473C261.395 334.478 254.835 335.219 251.351 338.184Z" fill="#76B1EB"/>
<path d="M280.578 291.305C280.578 291.305 281.637 293.82 283.808 293.28C285.979 292.74 286.498 289.51 289.908 290.41C293.317 291.31 296.187 295.255 296.187 293.46C296.187 291.665 291.882 287 287.038 287C282.193 287 280.779 288.975 280.578 291.305Z" fill="#B7DBFF"/>
<path d="M274.13 344.157C273.912 343.278 273.645 342.412 273.33 341.563C270.233 333.298 262.99 334.574 262.683 334.632L262.582 334.102C262.667 334.102 270.567 332.678 273.828 341.367C274.15 342.233 274.422 343.117 274.644 344.014L274.13 344.157Z" fill="#76B1EB"/>
<path d="M294.879 326.06C294.879 326.06 296.494 322.47 302.773 324.805C309.053 327.14 311.568 330.724 307.618 331.979C303.668 333.234 294.879 326.06 294.879 326.06Z" fill="#B7DBFF"/>
<path d="M305.664 329.86C302.731 326.234 296.42 326.541 296.356 326.546L296.324 326.016C296.594 326.016 302.969 325.694 306.077 329.527L305.664 329.86Z" fill="#76B1EB"/>
<path d="M289.638 327.027L289.426 326.545C291.156 325.788 293.063 325.53 294.932 325.799L294.832 326.328C293.069 326.084 291.273 326.325 289.638 327.027Z" fill="#76B1EB"/>
<path d="M266.563 319.8C262.888 316.052 259.219 315.432 259.182 315.427C259.145 315.422 253.744 314.019 251.721 315.877L251.361 315.485C253.601 313.436 259.06 314.85 259.303 314.908C259.431 314.908 263.147 315.543 266.954 319.43L266.563 319.8Z" fill="#76B1EB"/>
<path opacity="0.5" d="M276.544 379.103H276.015C276.015 378.796 276.809 348.107 276.015 338.863C275.221 329.618 271.509 318.658 271.472 318.547L267.639 301.445L268.168 301.328L271.991 318.404C272.023 318.488 275.756 329.523 276.555 338.815C277.355 348.107 276.544 378.769 276.544 379.103Z" fill="#3588D8"/>
<path opacity="0.5" d="M278.403 379.044H277.873C277.873 378.758 278.154 350.749 279.213 342.78C280.272 334.812 284.544 322.21 284.587 322.083L291.184 307.951L291.661 308.179L285.079 322.279C285.047 322.379 280.796 334.923 279.742 342.849C278.688 350.775 278.403 378.758 278.403 379.044Z" fill="#3588D8"/>
<path opacity="0.5" d="M280.006 379.102L279.477 379.07C280.536 361.042 282.405 344.829 282.426 344.654L282.955 344.718C282.939 344.877 281.07 361.1 280.006 379.102Z" fill="#3588D8"/>
<path opacity="0.5" d="M273.843 379.045H273.314C273.314 378.785 273.843 353.275 272.784 349.87C272.419 348.69 271.927 347.975 271.36 347.811C271.182 347.768 270.997 347.767 270.819 347.808C270.641 347.848 270.475 347.929 270.333 348.044L270.275 348.091H270.195C270.148 348.091 265.335 348.695 263.63 351.432L263.18 351.152C264.922 348.356 269.406 347.663 270.063 347.578C270.266 347.424 270.5 347.318 270.75 347.268C270.999 347.218 271.257 347.224 271.503 347.287C272.266 347.509 272.864 348.319 273.287 349.701C274.368 353.19 273.865 377.991 273.843 379.045Z" fill="#3588D8"/>
<path opacity="0.5" d="M275.184 379.102H274.655C274.655 378.848 275.931 353.936 274.549 346.195L275.078 346.1C276.466 353.856 275.195 378.827 275.184 379.102Z" fill="#3588D8"/>
<path opacity="0.5" d="M280.822 379.102C280.822 377.577 280.489 341.61 283.687 333.085C284.457 330.813 285.917 328.838 287.864 327.436L288.161 327.87C286.305 329.211 284.914 331.1 284.185 333.27C281.008 341.705 281.347 378.726 281.352 379.097L280.822 379.102Z" fill="#3588D8"/>
<path opacity="0.5" d="M277.603 379.102L277.074 379.028C277.831 373.495 276.301 341.367 271.991 328.977C271.006 326.011 269.48 323.254 267.49 320.844L267.893 320.5C269.928 322.958 271.486 325.773 272.488 328.802C276.82 341.229 278.355 373.511 277.603 379.102Z" fill="#3588D8"/>
<path opacity="0.5" d="M278.403 379.038H277.873C277.873 378.726 278.058 347.572 278.318 332.18H278.847C278.588 347.577 278.403 378.726 278.403 379.038Z" fill="#3588D8"/>
<path d="M278.879 330.253H278.35C278.561 317.836 278.763 309.158 278.943 304.462C279.414 292.284 280.097 291.225 280.383 291.087C280.658 290.441 282.072 287.947 287.16 288.276L287.128 288.805C281.834 288.466 280.87 291.273 280.828 291.389L280.7 291.786L280.595 291.686C280.372 292.268 279.853 294.651 279.472 304.483C279.292 309.169 279.091 317.842 278.879 330.253Z" fill="#76B1EB"/>
<path d="M271.747 342.008C271.747 342.008 267.262 338.005 269.057 336.035C270.852 334.065 281.976 332.625 285.206 335.183C288.436 337.74 281.256 341.351 278.566 342.135C275.876 342.918 272.647 342.659 271.747 342.008Z" fill="#B7DBFF"/>
<path d="M276.057 339.921H275.527C275.529 339.506 275.563 339.091 275.628 338.682L276.157 338.766C276.095 339.148 276.061 339.534 276.057 339.921Z" fill="#76B1EB"/>
<path d="M276.545 337.104L276.016 336.956C276.322 335.922 276.712 334.915 277.18 333.943L277.657 334.176C277.213 335.123 276.841 336.102 276.545 337.104Z" fill="#76B1EB"/>
<path d="M271.747 368.164C271.747 368.164 267.262 364.161 269.057 362.191C270.852 360.222 281.976 358.782 285.206 361.339C288.436 363.896 281.256 367.507 278.566 368.291C275.876 369.075 272.647 368.815 271.747 368.164Z" fill="#87C4FF"/>
<path d="M276.057 366.083H275.527C275.527 363.467 277.116 360.232 277.195 360.1L277.672 360.333C277.656 360.364 276.057 363.594 276.057 366.083Z" fill="#76B1EB"/>
<path d="M275.087 357.098C275.087 357.098 272.042 354.381 273.26 353.047C274.478 351.713 282.034 350.733 284.226 352.47C286.418 354.207 281.547 356.653 279.715 357.188C277.883 357.722 275.696 357.542 275.087 357.098Z" fill="#B7DBFF"/>
<path d="M278.096 355.684H277.566C277.566 353.894 278.662 351.681 278.71 351.586L279.187 351.824C279.187 351.824 278.096 354.016 278.096 355.684Z" fill="#76B1EB"/>
<path d="M287.632 376C288.87 376 289.811 377.114 289.604 378.335L289.369 379.718L288.301 386.421L286.24 399.316C286.085 400.286 285.248 401 284.265 401H270.686C269.704 401 268.866 400.286 268.711 399.316L266.65 386.421L265.583 379.718L265.362 378.31C265.172 377.096 266.11 376 267.338 376H287.632Z" fill="#4991FF"/>
<path opacity="0.1" d="M411.091 415.361C449.67 415.361 480.944 411.508 480.944 406.755C480.944 402.002 449.67 398.148 411.091 398.148C372.512 398.148 341.238 402.002 341.238 406.755C341.238 411.508 372.512 415.361 411.091 415.361Z" fill="#FF7300"/>
<path d="M427.872 385.029L428.531 395.928L414.043 401.492H445.126L443.942 379.564" fill="#FFC6AD"/>
<path d="M427.68 392.472C426.761 392.786 427.429 393.421 425.888 395.274C424.348 397.127 415.236 400.707 410.94 402C406.783 403.251 407.683 406.834 409.098 406.834C409.098 406.834 429.796 406.834 431.437 406.834C433.077 406.834 434.27 405.507 435.539 405.507C435.884 405.507 436.595 405.267 436.795 405.515C437.107 405.899 437.076 406.834 437.076 406.834H444.651C445.502 406.834 446 406.289 445.943 405.656L445.129 394.905C445.129 394.905 435.879 396.161 433.274 395.401C432.221 395.093 433.325 394.29 432.883 393.848C432.442 393.407 428.599 392.158 427.68 392.472Z" fill="#292466"/>
<path d="M389.514 382.343L388.051 395.928L373.562 401.492L403.966 397.597L405.466 379.564" fill="#FFC6AD"/>
<path d="M387.199 392.472C386.28 392.786 386.947 393.421 385.407 395.274C383.867 397.127 374.756 400.707 370.459 402C366.302 403.251 367.202 406.834 368.618 406.834C368.618 406.834 389.315 406.834 390.956 406.834C392.598 406.834 393.79 405.507 395.059 405.507C395.403 405.507 396.114 405.267 396.315 405.515C396.627 405.899 396.596 406.834 396.596 406.834H404.17C405.021 406.834 405.52 406.289 405.461 405.656L404.647 394.905C404.647 394.905 395.397 396.161 392.793 395.401C391.74 395.093 392.843 394.29 392.401 393.848C391.96 393.407 388.119 392.158 387.199 392.472Z" fill="#292466"/>
<path d="M390.465 273.659C384.913 327.932 386.735 388.662 386.735 388.662H406.404C406.404 388.662 410.752 370.764 413.279 345.504C414.489 333.398 421.485 279.254 421.485 268.285" fill="#264B89"/>
<path d="M411.488 268.285C411.488 268.285 416.317 313.408 418.363 338.159C420.321 361.854 425.85 388.662 425.85 388.662H446.335C446.335 388.662 445.969 348.09 445.969 338.774C445.969 311.451 448.836 290.611 443.447 271.191" fill="#3A67B3"/>
<path d="M407.753 194.043L406.783 200.8C406.783 200.8 407.734 205.126 410.452 205.126C413.17 205.126 419.473 198.8 419.473 198.8L417.883 188.268" fill="#FFCBBD"/>
<path d="M406.542 181.136C406.542 181.136 401.182 191.725 404.165 194.707C407.146 197.69 413.507 196.084 415.886 193.706C418.263 191.327 419.452 181.816 418.773 181.136C418.094 180.456 409.771 175.53 406.542 181.136Z" fill="#FFCBBD"/>
<path d="M417.771 186.725C417.562 186.3 416.796 186.884 416.583 187.082C416.046 187.58 415.518 188.083 414.996 188.595C414.666 188.262 414.336 187.93 414.007 187.599C413.96 187.551 413.91 187.495 413.914 187.429C413.916 187.389 413.938 187.353 413.96 187.319C414.367 186.685 414.775 186.051 415.181 185.417C415.315 185.21 415.45 184.999 415.513 184.76C415.731 183.946 415.102 183.493 414.471 183.187C413.649 182.788 412.726 182.67 411.827 182.514C410.6 182.3 409.388 182.007 408.199 181.636C407.608 181.452 407.013 181.243 406.517 180.874C406.019 180.505 405.628 179.95 405.596 179.332C405.569 178.81 405.794 178.31 406.039 177.849C406.396 177.177 406.816 176.524 407.393 176.03C408.635 174.968 410.451 174.801 412.036 175.196C413.57 175.578 414.723 176.447 416.052 177.2C417.391 177.96 418.538 179.042 419.355 180.348C419.48 180.548 419.599 180.755 419.763 180.925C419.904 181.071 420.075 181.184 420.227 181.32C420.87 181.892 421.106 182.789 421.232 183.642C421.651 186.503 421.296 191.079 418.581 192.888C418.581 192.888 416.91 190.239 417.252 189.46" fill="#292466"/>
<path d="M415.783 187.963C415.974 187.547 416.266 187.178 416.624 186.893C416.831 186.729 417.07 186.59 417.331 186.552C418.407 186.394 418.582 187.768 418.582 188.537C418.582 190.087 416.781 192.388 415.781 191.157" fill="#FFCBBD"/>
<path d="M407.424 196.333C407.424 196.333 411.5 197.207 414.974 194.451" stroke="#F49C76" stroke-width="0.75" stroke-miterlimit="10" stroke-linejoin="round"/>
<path d="M410.814 203.036L421.661 200.131L426.171 201.804C426.171 201.804 419.128 268.283 418.329 268.283C417.53 268.283 400.225 261.782 399.094 260.652C397.964 259.521 395.375 208.742 395.375 208.742L402.637 201.021L406.162 200.695L410.814 203.036Z" fill="url(#paint6_linear_15070_28306)"/>
<path d="M406.161 200.694C406.161 200.694 404.644 208.516 407.643 208.258C409.926 208.061 411.084 203.506 411.084 203.506C411.084 203.506 412.031 207.607 414.096 208.757C418.011 210.937 421.66 200.129 421.66 200.129L419.192 196.939L411.088 202.403L406.951 198.33L406.161 200.694Z" fill="white"/>
<path d="M342.586 222.205C338.713 218.829 334.448 218.06 330.398 214.9C330.136 214.696 328.183 214.015 328.885 213.312C329.588 212.608 332.857 214.169 334.941 214.068C334.395 212.647 333.209 211.487 331.777 210.973C330.883 210.653 329.923 210.578 328.986 210.42C327.967 210.248 326 210.398 326 209.607C326 208.815 330.325 208.619 332.557 208.704C334.044 208.762 335.562 208.824 336.959 209.34C338.049 209.741 339.021 210.402 339.981 211.057C342.727 212.931 345.474 214.803 348.222 216.677" fill="#FFCBBD"/>
<path d="M391.52 203.506C380.121 206.917 369.66 222.243 364.982 222.705C361.239 223.076 345.316 212.79 345.316 212.79L335.742 226.193C335.742 226.193 353.656 243.457 369.034 243.457C381.302 243.457 394.127 228.424 394.127 228.424" fill="url(#paint7_linear_15070_28306)"/>
<path d="M444.526 250.915C444.526 244.648 441.567 220.107 439.304 214.189C439.304 214.189 440.599 210.545 437.494 207.439C434.389 204.334 424.336 201.021 424.336 201.021C415.983 211.973 410.145 247.695 410.145 247.695C410.145 247.695 403.406 209.449 402.638 201.021C402.638 201.021 393.317 202.696 391.522 203.509C389.727 204.322 389.524 218.367 389.524 218.367C389.524 218.367 386.738 240.645 386.738 257.008C386.738 273.368 386.738 290.079 386.738 290.079C386.738 290.079 406.642 291.953 407.645 290.949C409.113 288.417 410.773 272.847 410.773 272.847C410.773 272.847 414.173 287.271 415.818 290.949C420.157 292.951 449.921 288.512 449.921 288.512C449.921 288.512 444.526 257.181 444.526 250.915Z" fill="url(#paint8_linear_15070_28306)"/>
<path d="M453.642 269.682L435.439 290.372L407.496 265.945L425.7 245.254L453.642 269.682Z" fill="#0B0B3A"/>
<path d="M422.69 250.122L412.463 261.745L411.249 260.677C410.807 260.289 410.763 259.615 411.153 259.174L419.972 249.15C420.36 248.709 421.033 248.666 421.475 249.055L422.69 250.122Z" fill="#515BD4"/>
<path d="M412.967 251.879C412.115 252.847 412.152 254.272 413.05 255.061C413.947 255.851 415.365 255.706 416.216 254.737C417.068 253.77 417.031 252.344 416.133 251.556C415.237 250.767 413.819 250.911 412.967 251.879ZM415.361 253.986C414.959 254.445 414.287 254.513 413.862 254.139C413.437 253.765 413.419 253.09 413.823 252.632C414.226 252.173 414.898 252.105 415.323 252.479C415.747 252.852 415.765 253.527 415.361 253.986Z" fill="#515BD4"/>
<path d="M431.646 270.578L427.967 274.736C427.967 274.736 424.901 275.087 423.271 276.705C422.449 277.521 421.552 278.228 421.552 278.228L419.823 276.829C419.823 276.829 418.916 279.537 419.376 280.298C419.546 280.579 420.059 280.801 420.859 280.992C420.428 281.759 421.098 282.73 421.987 282.612C421.157 283.516 422.239 284.78 423.608 283.938C423.23 285.07 424.344 285.749 425.551 285.698C426.877 285.643 429.083 285.022 430.189 283.881C431.295 282.741 432.733 281.004 432.733 281.004L436.381 276.899" fill="#FFCBBD"/>
<path d="M421.729 278.291C421.729 278.291 421.439 278.613 421.069 279.089C420.978 279.205 420.883 279.34 420.829 279.469C420.794 279.534 420.806 279.595 420.806 279.595C420.791 279.52 420.847 279.629 420.911 279.709C421.039 279.892 421.105 279.903 421.245 279.984C421.368 280.05 421.519 280.056 421.68 280.05C422.013 280.025 422.375 279.871 422.711 279.719C423.043 279.556 423.37 279.401 423.639 279.248C424.187 278.95 424.595 278.805 424.595 278.805C424.595 278.805 424.311 279.119 423.848 279.547C423.368 279.947 422.729 280.56 421.732 280.694C421.48 280.702 421.205 280.675 420.966 280.543C420.74 280.447 420.501 280.164 420.431 280.017C420.4 279.928 420.312 279.893 420.277 279.626C420.289 279.442 420.359 279.321 420.421 279.236C420.549 279.059 420.684 278.942 420.81 278.835C421.326 278.436 421.729 278.291 421.729 278.291Z" fill="#E88872"/>
<path d="M424.334 201.02C424.334 201.02 441.1 203.575 449.92 214.709C460.538 228.111 463.907 240.122 462.105 249.346C459.146 264.489 438.461 280.533 438.461 280.533L428.192 272.784C428.192 272.784 442.088 248.476 441.044 242.557C440.001 236.639 430.079 223.585 430.079 223.585" fill="url(#paint9_linear_15070_28306)"/>
<g opacity="0.5">
<path opacity="0.2" d="M17.7043 92.0762H16.0013C16.0013 97.0275 11.9707 101.04 6.99962 101.04V102.736C11.9718 102.736 16.0013 106.75 16.0013 111.701H17.7043C17.7043 106.75 21.7348 102.736 26.707 102.736V101.04C21.7348 101.04 17.7043 97.0264 17.7043 92.0762Z" fill="#0061BF"/>
<path d="M33.3984 67H32.9725C32.9725 71.9513 28.9418 75.965 23.9708 75.965V76.3892C28.9429 76.3892 32.9736 80.4029 32.9736 85.3542H33.3995C33.3995 80.4029 37.4302 76.3892 42.4023 76.3892V75.965C37.4291 75.965 33.3984 71.9513 33.3984 67Z" fill="#0061BF"/>
<path opacity="0.2" d="M47.1767 122.799C47.1767 127.589 43.2771 131.472 38.4666 131.472C43.2771 131.472 47.1767 135.355 47.1767 140.146C47.1767 135.355 51.0762 131.472 55.8867 131.472C51.0762 131.471 47.1767 127.589 47.1767 122.799Z" fill="#0061BF"/>
</g>
</g>
<defs>
<filter id="filter0_d_15070_28306" x="15.3077" y="66.6923" width="453.385" height="295.385" filterUnits="userSpaceOnUse" color-interpolation-filters="sRGB">
<feFlood flood-opacity="0" result="BackgroundImageFix"/>
<feColorMatrix in="SourceAlpha" type="matrix" values="0 0 0 0 0 0 0 0 0 0 0 0 0 0 0 0 0 0 127 0" result="hardAlpha"/>
<feOffset dy="16.3846"/>
<feGaussianBlur stdDeviation="21.8462"/>
<feComposite in2="hardAlpha" operator="out"/>
<feColorMatrix type="matrix" values="0 0 0 0 0.117647 0 0 0 0 0.129412 0 0 0 0 0.176471 0 0 0 0.09 0"/>
<feBlend mode="normal" in2="BackgroundImageFix" result="effect1_dropShadow_15070_28306"/>
<feBlend mode="normal" in="SourceGraphic" in2="effect1_dropShadow_15070_28306" result="shape"/>
</filter>
<filter id="filter1_d_15070_28306" x="139.477" y="295.707" width="111.049" height="119.617" filterUnits="userSpaceOnUse" color-interpolation-filters="sRGB">
<feFlood flood-opacity="0" result="BackgroundImageFix"/>
<feColorMatrix in="SourceAlpha" type="matrix" values="0 0 0 0 0 0 0 0 0 0 0 0 0 0 0 0 0 0 127 0" result="hardAlpha"/>
<feOffset dy="12.5869"/>
<feGaussianBlur stdDeviation="16.7825"/>
<feComposite in2="hardAlpha" operator="out"/>
<feColorMatrix type="matrix" values="0 0 0 0 0.117647 0 0 0 0 0.129412 0 0 0 0 0.176471 0 0 0 0.09 0"/>
<feBlend mode="normal" in2="BackgroundImageFix" result="effect1_dropShadow_15070_28306"/>
<feBlend mode="normal" in="SourceGraphic" in2="effect1_dropShadow_15070_28306" result="shape"/>
</filter>
<filter id="filter2_d_15070_28306" x="327.479" y="2.42466" width="183.822" height="132.041" filterUnits="userSpaceOnUse" color-interpolation-filters="sRGB">
<feFlood flood-opacity="0" result="BackgroundImageFix"/>
<feColorMatrix in="SourceAlpha" type="matrix" values="0 0 0 0 0 0 0 0 0 0 0 0 0 0 0 0 0 0 127 0" result="hardAlpha"/>
<feOffset dy="12.9452"/>
<feGaussianBlur stdDeviation="17.2603"/>
<feComposite in2="hardAlpha" operator="out"/>
<feColorMatrix type="matrix" values="0 0 0 0 0.117647 0 0 0 0 0.129412 0 0 0 0 0.176471 0 0 0 0.08 0"/>
<feBlend mode="normal" in2="BackgroundImageFix" result="effect1_dropShadow_15070_28306"/>
<feBlend mode="normal" in="SourceGraphic" in2="effect1_dropShadow_15070_28306" result="shape"/>
</filter>
<linearGradient id="paint0_linear_15070_28306" x1="222.013" y1="36.995" x2="222.013" y2="422.999" gradientUnits="userSpaceOnUse">
<stop stop-color="#FF7300"/>
<stop offset="1" stop-color="#FF7300" stop-opacity="0"/>
</linearGradient>
<linearGradient id="paint1_linear_15070_28306" x1="126" y1="277.395" x2="158.595" y2="325.2" gradientUnits="userSpaceOnUse">
<stop stop-color="#FF7300"/>
<stop offset="1" stop-color="#FF7300" stop-opacity="0"/>
</linearGradient>
<linearGradient id="paint2_linear_15070_28306" x1="292.435" y1="114.908" x2="307.375" y2="151.659" gradientUnits="userSpaceOnUse">
<stop stop-color="#A2CEFA"/>
<stop offset="1" stop-color="#DCEDFF" stop-opacity="0"/>
</linearGradient>
<linearGradient id="paint3_linear_15070_28306" x1="488.88" y1="133.001" x2="469.162" y2="133.001" gradientUnits="userSpaceOnUse">
<stop stop-color="#FAB882"/>
<stop offset="1" stop-color="#FF7300"/>
</linearGradient>
<linearGradient id="paint4_linear_15070_28306" x1="471.91" y1="107.282" x2="453.468" y2="107.282" gradientUnits="userSpaceOnUse">
<stop stop-color="#FAB882"/>
<stop offset="1" stop-color="#FF7300"/>
</linearGradient>
<linearGradient id="paint5_linear_15070_28306" x1="457.414" y1="162.572" x2="439.984" y2="162.572" gradientUnits="userSpaceOnUse">
<stop stop-color="#FAB882"/>
<stop offset="1" stop-color="#FF7300"/>
</linearGradient>
<linearGradient id="paint6_linear_15070_28306" x1="426.16" y1="234.597" x2="395.347" y2="234.597" gradientUnits="userSpaceOnUse">
<stop stop-color="#FAB882"/>
<stop offset="1" stop-color="#FF7300"/>
</linearGradient>
<linearGradient id="paint7_linear_15070_28306" x1="394.106" y1="223.71" x2="335.69" y2="223.71" gradientUnits="userSpaceOnUse">
<stop stop-color="#FAB882"/>
<stop offset="1" stop-color="#FF7300"/>
</linearGradient>
<linearGradient id="paint8_linear_15070_28306" x1="449.899" y1="246.762" x2="386.681" y2="246.762" gradientUnits="userSpaceOnUse">
<stop stop-color="#FAB882"/>
<stop offset="1" stop-color="#FF7300"/>
</linearGradient>
<linearGradient id="paint9_linear_15070_28306" x1="462.552" y1="241.231" x2="424.3" y2="241.231" gradientUnits="userSpaceOnUse">
<stop stop-color="#FAB882"/>
<stop offset="1" stop-color="#FF7300"/>
</linearGradient>
<clipPath id="clip0_15070_28306">
<rect width="500" height="416" fill="white"/>
</clipPath>
</defs>
</svg>
