<svg width="1920" height="642" viewBox="0 0 1920 642" fill="none" xmlns="http://www.w3.org/2000/svg">
<rect width="1920" height="642" transform="matrix(-1 0 0 1 1920 0)" fill="url(#paint0_linear_15247_27327)"/>
<path opacity="0.14" d="M107.711 178.643L74 126.015L130.719 126.498L107.711 178.643Z" stroke="#0061BF" stroke-width="2"/>
<path opacity="0.14" d="M126.92 190.091L93.209 137.462L149.928 137.945L126.92 190.091Z" stroke="#0061BF" stroke-width="2"/>
<g opacity="0.15" clip-path="url(#clip0_15247_27327)">
<path d="M1777.21 488.683L1770.62 495.281C1767.88 498.017 1763.45 498.017 1760.72 495.282C1757.98 492.548 1757.98 488.117 1760.72 485.384L1773.92 472.184C1776.65 469.451 1781.08 469.451 1783.81 472.184C1784.72 473.096 1786.2 473.096 1787.11 472.184C1788.02 471.273 1788.02 469.796 1787.11 468.885C1782.56 464.329 1775.17 464.329 1770.62 468.885L1757.42 482.084C1752.86 486.64 1752.86 494.025 1757.42 498.581C1761.97 503.139 1769.36 503.139 1773.92 498.581L1780.51 491.983C1781.43 491.071 1781.43 489.594 1780.51 488.683C1779.6 487.772 1778.13 487.772 1777.21 488.683Z" fill="#0061BF"/>
<path d="M1806.58 465.915C1811.14 461.359 1811.14 453.974 1806.58 449.418C1802.03 444.862 1794.64 444.862 1790.08 449.417L1782.16 457.335C1781.25 458.246 1781.25 459.723 1782.16 460.635C1783.08 461.546 1784.55 461.546 1785.46 460.635L1793.38 452.718C1796.12 449.984 1800.55 449.984 1803.28 452.718C1806.01 455.451 1806.01 459.882 1803.28 462.615L1788.76 477.133C1786.03 479.866 1781.6 479.866 1778.87 477.133C1777.95 476.222 1776.48 476.222 1775.57 477.133C1774.66 478.044 1774.66 479.521 1775.57 480.433C1780.12 484.988 1787.51 484.988 1792.06 480.433L1806.58 465.915Z" fill="#0061BF"/>
<path d="M1797.65 486.35C1796.74 485.439 1795.26 485.439 1794.35 486.35C1793.44 487.262 1793.44 488.739 1794.35 489.65L1801.35 496.648C1802.26 497.559 1803.74 497.559 1804.65 496.648C1805.56 495.737 1805.56 494.259 1804.65 493.348L1797.65 486.35Z" fill="#0061BF"/>
<path d="M1766.35 461.653C1767.26 462.564 1768.74 462.564 1769.65 461.653C1770.56 460.742 1770.56 459.264 1769.65 458.353L1762.65 451.348C1761.74 450.437 1760.26 450.437 1759.35 451.348C1758.44 452.26 1758.44 453.737 1759.35 454.648L1766.35 461.653Z" fill="#0061BF"/>
<path d="M1807.67 481H1800.67C1799.38 481 1798.33 482.045 1798.33 483.333C1798.33 484.622 1799.38 485.667 1800.67 485.667H1807.67C1808.95 485.667 1810 484.622 1810 483.333C1810 482.045 1808.95 481 1807.67 481Z" fill="#0061BF"/>
<path d="M1772.67 457.667C1773.95 457.667 1775 456.622 1775 455.333V448.333C1775 447.045 1773.95 446 1772.67 446C1771.38 446 1770.33 447.045 1770.33 448.333V455.333C1770.33 456.622 1771.38 457.667 1772.67 457.667Z" fill="#0061BF"/>
<path d="M1756.33 467H1763.33C1764.62 467 1765.67 465.955 1765.67 464.666C1765.67 463.378 1764.62 462.333 1763.33 462.333H1756.33C1755.04 462.333 1754 463.378 1754 464.666C1754 465.955 1755.04 467 1756.33 467Z" fill="#0061BF"/>
<path d="M1791.33 490.333C1790.04 490.333 1789 491.378 1789 492.666V499.666C1789 500.955 1790.04 501.999 1791.33 501.999C1792.62 501.999 1793.67 500.955 1793.67 499.666V492.666C1793.67 491.378 1792.62 490.333 1791.33 490.333Z" fill="#0061BF"/>
</g>
<defs>
<linearGradient id="paint0_linear_15247_27327" x1="960" y1="0" x2="960" y2="642" gradientUnits="userSpaceOnUse">
<stop offset="0.0001" stop-color="#E6F2FF" stop-opacity="0.4"/>
<stop offset="1" stop-color="#D2E9FF"/>
</linearGradient>
<clipPath id="clip0_15247_27327">
<rect width="56" height="56" fill="white" transform="translate(1754 446)"/>
</clipPath>
</defs>
</svg>
