<svg width="515" height="408" viewBox="0 0 515 408" fill="none" xmlns="http://www.w3.org/2000/svg">
<ellipse opacity="0.3" cx="26.3108" cy="24.8757" rx="26.3108" ry="24.8757" transform="matrix(1 0 0 -1 250.172 363.173)" fill="url(#paint0_linear_15089_33523)"/>
<ellipse opacity="0.3" cx="17.7" cy="16.2649" rx="17.7" ry="16.2649" transform="matrix(1 0 0 -1 142.059 184.26)" fill="url(#paint1_linear_15089_33523)"/>
<ellipse cx="52.6024" cy="37.8757" rx="24.3973" ry="24.8757" fill="url(#paint2_linear_15089_33523)"/>
<ellipse cx="73.2196" cy="335.125" rx="24.3973" ry="24.8757" fill="url(#paint3_linear_15089_33523)"/>
<ellipse opacity="0.4" cx="30.1378" cy="30.1378" rx="30.1378" ry="30.1378" transform="matrix(-4.37114e-08 1 1 4.37114e-08 426.217 200.524)" fill="url(#paint4_linear_15089_33523)"/>
<circle opacity="0.5" cx="30.597" cy="83.3216" r="9.08919" fill="#EAF4FE"/>
<path d="M290.357 100.064H364.984C366.041 100.064 366.898 100.921 366.898 101.978V217.746" stroke="#EBEFF2" stroke-width="1.43514" stroke-linecap="round" stroke-linejoin="round" stroke-dasharray="5.74 5.74"/>
<g filter="url(#filter0_d_15089_33523)">
<rect x="263" y="216" width="213.357" height="135.859" rx="11.4811" fill="white"/>
</g>
<rect x="307.01" y="252.357" width="121.508" height="10.5243" rx="5.26216" fill="#EBEFF2"/>
<rect x="307.01" y="272.449" width="154.995" height="4.78378" rx="2.39189" fill="#EBEFF2"/>
<rect x="307.01" y="283.931" width="80.3676" height="4.78378" rx="2.39189" fill="#EBEFF2"/>
<rect x="278.306" y="253.314" width="19.1351" height="19.1351" rx="1.91351" stroke="#FF7300" stroke-width="1.91351"/>
<rect x="307.01" y="304.979" width="142.038" height="10.5243" rx="5.26216" fill="#EBEFF2"/>
<rect x="307.01" y="325.07" width="102.724" height="4.78378" rx="2.39189" fill="#EBEFF2"/>
<rect x="278.306" y="305.935" width="19.1351" height="19.1351" rx="1.91351" stroke="#0061BF" stroke-width="1.91351"/>
<path d="M285.001 231.287C285.001 233.388 283.288 235.091 281.175 235.091C279.062 235.091 277.35 233.388 277.35 231.287C277.35 229.186 279.062 227.482 281.175 227.482C283.288 227.482 285.001 229.186 285.001 231.287Z" fill="#FF6259"/>
<path d="M298.116 231.287C298.116 233.388 296.404 235.091 294.291 235.091C292.178 235.091 290.465 233.388 290.465 231.287C290.465 229.186 292.178 227.482 294.291 227.482C296.404 227.482 298.116 229.186 298.116 231.287Z" fill="#FFBE2F"/>
<path d="M311.234 231.287C311.234 233.388 309.521 235.091 307.408 235.091C305.295 235.091 303.582 233.388 303.582 231.287C303.582 229.186 305.295 227.482 307.408 227.482C309.521 227.482 311.234 229.186 311.234 231.287Z" fill="#29CD41"/>
<g filter="url(#filter1_d_15089_33523)">
<rect x="38.7285" y="24.4805" width="251.627" height="148.297" rx="11.4811" fill="white"/>
</g>
<rect x="50.209" y="54.1396" width="88.0216" height="62.1892" rx="7.65405" fill="#F2F5F6"/>
<rect x="147.799" y="54.1396" width="131.076" height="62.1892" rx="7.65405" fill="#EAF4FE"/>
<path d="M72.2115 132.594H52.1225C51.0657 132.594 50.209 133.45 50.209 134.507V152.686C50.209 153.742 51.0657 154.599 52.1225 154.599H72.2115C73.2683 154.599 74.1251 153.742 74.1251 152.686V134.507C74.1251 133.45 73.2683 132.594 72.2115 132.594Z" fill="#F2F5F6"/>
<path opacity="0.4" d="M85.1133 135.464H101.647" stroke="#0061BF" stroke-width="1.43514" stroke-miterlimit="10" stroke-linecap="round"/>
<path d="M85.1133 152.306H118.55" stroke="#F2F5F6" stroke-width="1.91351" stroke-miterlimit="10" stroke-linecap="round"/>
<path opacity="0.4" d="M85.1133 146.884H118.548" stroke="#0061BF" stroke-width="1.43514" stroke-miterlimit="10" stroke-linecap="round"/>
<path opacity="0.4" d="M85.1133 141.605H118.55" stroke="#0061BF" stroke-width="1.43514" stroke-miterlimit="10" stroke-linecap="round"/>
<path d="M149.708 132.594H129.619C128.562 132.594 127.705 133.45 127.705 134.507V152.686C127.705 153.742 128.562 154.599 129.619 154.599H149.708C150.764 154.599 151.621 153.742 151.621 152.686V134.507C151.621 133.45 150.764 132.594 149.708 132.594Z" fill="#F2F5F6"/>
<path d="M158.322 135.464H177.457" stroke="#F2F5F6" stroke-width="1.91351" stroke-miterlimit="10" stroke-linecap="round"/>
<path d="M158.322 152.686H195.636" stroke="#F2F5F6" stroke-width="1.91351" stroke-miterlimit="10" stroke-linecap="round"/>
<path d="M158.322 146.945H195.636" stroke="#F2F5F6" stroke-width="1.91351" stroke-miterlimit="10" stroke-linecap="round"/>
<path d="M158.322 141.204H195.636" stroke="#F2F5F6" stroke-width="1.91351" stroke-miterlimit="10" stroke-linecap="round"/>
<path d="M227.206 132.594H207.117C206.06 132.594 205.203 133.45 205.203 134.507V152.686C205.203 153.742 206.06 154.599 207.117 154.599H227.206C228.262 154.599 229.119 153.742 229.119 152.686V134.507C229.119 133.45 228.262 132.594 227.206 132.594Z" fill="#F2F5F6"/>
<path d="M239.646 135.464H259.738" stroke="#F2F5F6" stroke-width="1.91351" stroke-miterlimit="10" stroke-linecap="round"/>
<path d="M239.646 152.686H278.874" stroke="#F2F5F6" stroke-width="1.91351" stroke-miterlimit="10" stroke-linecap="round"/>
<path d="M239.646 146.945H278.874" stroke="#F2F5F6" stroke-width="1.91351" stroke-miterlimit="10" stroke-linecap="round"/>
<path d="M239.646 141.204H278.874" stroke="#F2F5F6" stroke-width="1.91351" stroke-miterlimit="10" stroke-linecap="round"/>
<path d="M94.1941 93.5259C99.0378 93.5259 102.964 89.5993 102.964 84.7556C102.964 79.9119 99.0378 75.9854 94.1941 75.9854C89.3504 75.9854 85.4238 79.9119 85.4238 84.7556C85.4238 89.5993 89.3504 93.5259 94.1941 93.5259Z" stroke="#FF7300" stroke-width="1.43514" stroke-linecap="round" stroke-linejoin="round"/>
<path d="M91.3604 84.957V83.4923C91.3604 81.6681 92.6496 80.9226 94.2282 81.8348L95.4999 82.5715L96.7716 83.3082C98.3503 84.2203 98.3503 85.7112 96.7716 86.6233L95.4999 87.36L94.2282 88.0967C92.6496 89.0088 91.3604 88.2634 91.3604 86.4391V84.957Z" stroke="#0061BF" stroke-width="1.43514" stroke-miterlimit="10" stroke-linecap="round" stroke-linejoin="round"/>
<path d="M60.7296 40.7222C60.7296 42.8233 59.0168 44.5265 56.9039 44.5265C54.791 44.5265 53.0781 42.8233 53.0781 40.7222C53.0781 38.6212 54.791 36.918 56.9039 36.918C59.0168 36.918 60.7296 38.6212 60.7296 40.7222Z" fill="#FF6259"/>
<path d="M73.8449 40.7222C73.8449 42.8233 72.132 44.5265 70.0191 44.5265C67.9062 44.5265 66.1934 42.8233 66.1934 40.7222C66.1934 38.6212 67.9062 36.918 70.0191 36.918C72.132 36.918 73.8449 38.6212 73.8449 40.7222Z" fill="#FFBE2F"/>
<path d="M86.9621 40.7222C86.9621 42.8233 85.2492 44.5265 83.1363 44.5265C81.0234 44.5265 79.3105 42.8233 79.3105 40.7222C79.3105 38.6212 81.0234 36.918 83.1363 36.918C85.2492 36.918 86.9621 38.6212 86.9621 40.7222Z" fill="#29CD41"/>
<g opacity="0.4">
<path opacity="0.2" d="M443.208 82.0576H444.912C444.912 87.0053 448.946 91.015 453.92 91.015V92.7096C448.945 92.7096 444.912 96.7204 444.912 101.668H443.208C443.208 96.7204 439.175 92.7096 434.199 92.7096V91.015C439.175 91.015 443.208 87.0043 443.208 82.0576Z" fill="#495B6D"/>
<path d="M427.504 57H427.931C427.931 61.9477 431.964 65.9585 436.939 65.9585V66.3824C431.963 66.3824 427.93 70.3932 427.93 75.3409H427.503C427.503 70.3932 423.47 66.3824 418.494 66.3824V65.9585C423.471 65.9585 427.504 61.9477 427.504 57Z" fill="#495B6D"/>
<path opacity="0.2" d="M413.716 112.758C413.716 117.545 417.618 121.425 422.432 121.425C417.618 121.425 413.716 125.305 413.716 130.092C413.716 125.305 409.814 121.425 405 121.425C409.814 121.424 413.716 117.545 413.716 112.758Z" fill="#495B6D"/>
</g>
<circle cx="362.593" cy="105.327" r="15.7865" fill="#FF7300"/>
<g clip-path="url(#clip0_15089_33523)">
<path fill-rule="evenodd" clip-rule="evenodd" d="M359.057 103.992C359.057 103.992 358.384 104.665 357.627 105.422C356.912 106.138 356.533 107.063 356.533 108.073C356.533 109.04 356.912 110.008 357.627 110.681C357.669 110.723 357.669 110.723 357.711 110.765C358.426 111.48 359.352 111.859 360.319 111.859C361.287 111.859 362.254 111.48 362.97 110.765C363.727 110.008 364.4 109.335 364.4 109.335C364.736 108.998 364.736 108.493 364.4 108.157C364.063 107.82 363.559 107.82 363.222 108.157C363.222 108.157 362.549 108.83 361.792 109.587C361.413 109.966 360.866 110.176 360.319 110.176C359.772 110.176 359.226 109.966 358.847 109.587L358.763 109.503C358.384 109.124 358.174 108.577 358.174 108.031C358.174 107.484 358.384 106.937 358.763 106.558C359.52 105.801 360.193 105.128 360.193 105.128C360.53 104.791 360.53 104.287 360.193 103.95C359.899 103.698 359.394 103.698 359.057 103.992Z" fill="white"/>
<path fill-rule="evenodd" clip-rule="evenodd" d="M363.936 103.276L360.192 107.02C359.855 107.356 359.855 107.861 360.192 108.197C360.528 108.534 361.033 108.534 361.37 108.197L365.114 104.453C365.45 104.117 365.45 103.612 365.114 103.276C364.777 102.981 364.272 102.981 363.936 103.276Z" fill="white"/>
<path fill-rule="evenodd" clip-rule="evenodd" d="M366.253 107.484C366.253 107.484 366.926 106.811 367.684 106.054C368.399 105.338 368.777 104.413 368.777 103.445C368.777 102.478 368.399 101.51 367.684 100.837C367.641 100.795 367.641 100.795 367.599 100.753C366.926 99.9958 365.959 99.6172 364.991 99.6172C364.024 99.6172 363.056 99.9958 362.341 100.711C361.584 101.468 360.911 102.141 360.911 102.141C360.574 102.478 360.574 102.983 360.911 103.319C361.247 103.656 361.752 103.656 362.089 103.319C362.089 103.319 362.762 102.646 363.519 101.889C363.897 101.51 364.444 101.3 364.991 101.3C365.538 101.3 366.085 101.51 366.464 101.889L366.548 101.973C366.926 102.352 367.137 102.898 367.137 103.445C367.137 103.992 366.926 104.539 366.548 104.918C365.79 105.675 365.117 106.348 365.117 106.348C364.781 106.685 364.781 107.189 365.117 107.526C365.412 107.82 365.917 107.82 366.253 107.484Z" fill="white"/>
</g>
<g filter="url(#filter2_d_15089_33523)">
<path d="M188.903 213.589L70.2655 219.397C64.1502 219.696 59.3457 224.741 59.3457 230.864V330.349C59.3457 336.194 63.7371 341.106 69.5456 341.758L188.183 355.08C194.989 355.845 200.946 350.519 200.946 343.671V225.057C200.946 218.496 195.457 213.269 188.903 213.589Z" fill="white"/>
</g>
<rect x="70.7305" y="306.957" width="50.1682" height="5.99023" rx="2.99512" fill="#EDF1F4"/>
<rect x="126.889" y="306.957" width="32.1975" height="5.99023" rx="2.99512" fill="#EDF1F4"/>
<rect x="165.077" y="306.957" width="22.4634" height="5.99023" rx="2.99512" fill="#EDF1F4"/>
<rect x="70.7305" y="320.436" width="53.1633" height="5.99023" rx="2.99512" fill="#EDF1F4"/>
<rect x="129.884" y="320.436" width="45.6755" height="5.99023" rx="2.99512" fill="#EDF1F4"/>
<rect x="89.4492" y="252.135" width="98.0901" height="5.99023" rx="2.99512" fill="#EBEFF2"/>
<rect x="89.4492" y="264.115" width="74.8779" height="2.99512" rx="1.49756" fill="#EBEFF2"/>
<circle cx="78.116" cy="259.52" r="7.3855" fill="#EBEFF2"/>
<g clip-path="url(#clip1_15089_33523)">
<path d="M76.7402 263.3C76.2988 263.301 75.8672 263.17 75.5 262.925C75.1329 262.68 74.8467 262.331 74.6777 261.923C74.5088 261.515 74.4646 261.066 74.5507 260.633C74.6369 260.2 74.8496 259.803 75.1619 259.491L76.4134 258.238L77.0664 258.891L75.8149 260.143C75.6934 260.265 75.597 260.409 75.5313 260.568C75.4655 260.727 75.4317 260.897 75.4317 261.069C75.4317 261.241 75.4656 261.411 75.5314 261.57C75.5972 261.729 75.6937 261.873 75.8152 261.994C75.9368 262.116 76.0811 262.212 76.2399 262.278C76.3987 262.344 76.5689 262.378 76.7408 262.378C76.9127 262.378 77.0828 262.344 77.2416 262.278C77.4004 262.212 77.5447 262.116 77.6662 261.994L78.918 260.742L79.5707 261.395L78.3189 262.647C78.1118 262.854 77.8658 263.019 77.5948 263.131C77.3239 263.243 77.0335 263.301 76.7402 263.3Z" fill="#AAB4BE"/>
<path d="M79.9874 260.978L79.3347 260.325L80.5865 259.073C80.8302 258.827 80.9666 258.495 80.9658 258.149C80.9651 257.803 80.8273 257.471 80.5826 257.226C80.3378 256.981 80.0061 256.843 79.66 256.842C79.3139 256.842 78.9815 256.978 78.7355 257.221L77.4828 258.473L76.8301 257.82L78.0828 256.568C78.5024 256.154 79.0688 255.923 79.6584 255.925C80.248 255.927 80.8129 256.162 81.2297 256.579C81.6466 256.996 81.8815 257.561 81.8833 258.15C81.8851 258.74 81.6535 259.306 81.2392 259.726L79.9874 260.978Z" fill="#AAB4BE"/>
<path d="M78.9171 258.238L76.8301 260.325L77.4829 260.978L79.5698 258.891L78.9171 258.238Z" fill="#AAB4BE"/>
</g>
<rect x="89.4492" y="276.096" width="98.0901" height="5.99023" rx="2.99512" fill="#EBEFF2"/>
<rect x="89.4492" y="288.076" width="69.6365" height="2.99512" rx="1.49756" fill="#EBEFF2"/>
<circle cx="78.116" cy="283.481" r="7.3855" fill="#EBEFF2"/>
<g clip-path="url(#clip2_15089_33523)">
<path d="M76.7012 287.217C76.2597 287.218 75.8281 287.087 75.4609 286.842C75.0938 286.597 74.8076 286.248 74.6387 285.84C74.4697 285.432 74.4255 284.983 74.5117 284.55C74.5979 284.117 74.8106 283.72 75.1228 283.408L76.3744 282.155L77.0274 282.808L75.7758 284.06C75.6543 284.182 75.5579 284.326 75.4922 284.485C75.4264 284.644 75.3926 284.814 75.3926 284.986C75.3927 285.158 75.4266 285.328 75.4924 285.487C75.5582 285.646 75.6546 285.79 75.7762 285.911C75.8977 286.033 76.042 286.129 76.2008 286.195C76.3596 286.261 76.5298 286.295 76.7017 286.295C76.8736 286.295 77.0438 286.261 77.2026 286.195C77.3614 286.129 77.5056 286.033 77.6271 285.911L78.879 284.659L79.5317 285.312L78.2798 286.564C78.0728 286.771 77.8267 286.936 77.5558 287.048C77.2848 287.16 76.9944 287.218 76.7012 287.217Z" fill="#AAB4BE"/>
<path d="M79.9483 284.895L79.2956 284.242L80.5475 282.99C80.7911 282.744 80.9275 282.412 80.9268 282.066C80.926 281.72 80.7882 281.388 80.5435 281.143C80.2988 280.898 79.9671 280.76 79.6209 280.759C79.2748 280.759 78.9424 280.895 78.6965 281.138L77.4437 282.39L76.791 281.737L78.0438 280.485C78.4634 280.071 79.0298 279.84 79.6194 279.842C80.209 279.844 80.7738 280.079 81.1907 280.496C81.6075 280.913 81.8425 281.478 81.8442 282.067C81.846 282.657 81.6145 283.223 81.2002 283.643L79.9483 284.895Z" fill="#AAB4BE"/>
<path d="M78.878 282.155L76.791 284.242L77.4438 284.895L79.5308 282.808L78.878 282.155Z" fill="#AAB4BE"/>
</g>
<path d="M76.4558 233.744C76.4558 235.319 75.1741 236.595 73.5931 236.595C72.0121 236.595 70.7305 235.319 70.7305 233.744C70.7305 232.17 72.0121 230.894 73.5931 230.894C75.1741 230.894 76.4558 232.17 76.4558 233.744Z" fill="#D8DEE6"/>
<path d="M86.2702 233.744C86.2702 235.319 84.9886 236.595 83.4076 236.595C81.8266 236.595 80.5449 235.319 80.5449 233.744C80.5449 232.17 81.8266 230.894 83.4076 230.894C84.9886 230.894 86.2702 232.17 86.2702 233.744Z" fill="#D8DEE6"/>
<path d="M96.0866 233.744C96.0866 235.319 94.805 236.595 93.224 236.595C91.643 236.595 90.3613 235.319 90.3613 233.744C90.3613 232.17 91.643 230.894 93.224 230.894C94.805 230.894 96.0866 232.17 96.0866 233.744Z" fill="#D8DEE6"/>
<path d="M223.371 288.122C222.643 287.395 222.148 286.468 221.947 285.46C221.746 284.451 221.848 283.405 222.242 282.455C222.636 281.504 223.302 280.692 224.158 280.121C225.013 279.549 226.019 279.244 227.047 279.245L231.173 279.243L231.174 281.394L227.048 281.396C226.647 281.396 226.251 281.475 225.881 281.628C225.511 281.782 225.175 282.006 224.892 282.29C224.608 282.573 224.384 282.909 224.231 283.279C224.077 283.649 223.999 284.046 223.999 284.446C223.999 284.847 224.078 285.243 224.231 285.613C224.384 285.983 224.609 286.319 224.892 286.602C225.175 286.886 225.512 287.11 225.882 287.263C226.252 287.417 226.648 287.495 227.049 287.495L231.174 287.495L231.174 289.646L227.049 289.646C226.366 289.647 225.689 289.513 225.058 289.251C224.427 288.99 223.853 288.606 223.371 288.122Z" fill="#D8DEE6"/>
<path d="M232.551 289.647L232.551 287.496L236.676 287.496C237.482 287.493 238.255 287.17 238.824 286.598C239.393 286.027 239.712 285.253 239.713 284.447C239.713 283.64 239.393 282.866 238.824 282.295C238.256 281.723 237.483 281.4 236.677 281.396L232.55 281.394L232.551 279.243L236.677 279.245C238.051 279.254 239.366 279.806 240.334 280.78C241.302 281.755 241.845 283.073 241.845 284.447C241.845 285.82 241.301 287.138 240.333 288.113C239.364 289.087 238.05 289.639 236.676 289.647H232.551Z" fill="#D8DEE6"/>
<path d="M235.303 283.369L228.426 283.369L228.426 285.52L235.303 285.52L235.303 283.369Z" fill="#D8DEE6"/>
<defs>
<filter id="filter0_d_15089_33523" x="224.73" y="192.081" width="289.897" height="212.4" filterUnits="userSpaceOnUse" color-interpolation-filters="sRGB">
<feFlood flood-opacity="0" result="BackgroundImageFix"/>
<feColorMatrix in="SourceAlpha" type="matrix" values="0 0 0 0 0 0 0 0 0 0 0 0 0 0 0 0 0 0 127 0" result="hardAlpha"/>
<feOffset dy="14.3514"/>
<feGaussianBlur stdDeviation="19.1351"/>
<feComposite in2="hardAlpha" operator="out"/>
<feColorMatrix type="matrix" values="0 0 0 0 0.117647 0 0 0 0 0.129412 0 0 0 0 0.176471 0 0 0 0.09 0"/>
<feBlend mode="normal" in2="BackgroundImageFix" result="effect1_dropShadow_15089_33523"/>
<feBlend mode="normal" in="SourceGraphic" in2="effect1_dropShadow_15089_33523" result="shape"/>
</filter>
<filter id="filter1_d_15089_33523" x="0.458244" y="0.561549" width="328.167" height="224.837" filterUnits="userSpaceOnUse" color-interpolation-filters="sRGB">
<feFlood flood-opacity="0" result="BackgroundImageFix"/>
<feColorMatrix in="SourceAlpha" type="matrix" values="0 0 0 0 0 0 0 0 0 0 0 0 0 0 0 0 0 0 127 0" result="hardAlpha"/>
<feOffset dy="14.3514"/>
<feGaussianBlur stdDeviation="19.1351"/>
<feComposite in2="hardAlpha" operator="out"/>
<feColorMatrix type="matrix" values="0 0 0 0 0.117647 0 0 0 0 0.129412 0 0 0 0 0.176471 0 0 0 0.09 0"/>
<feBlend mode="normal" in2="BackgroundImageFix" result="effect1_dropShadow_15089_33523"/>
<feBlend mode="normal" in="SourceGraphic" in2="effect1_dropShadow_15089_33523" result="shape"/>
</filter>
<filter id="filter2_d_15089_33523" x="21.0754" y="189.656" width="218.14" height="218.119" filterUnits="userSpaceOnUse" color-interpolation-filters="sRGB">
<feFlood flood-opacity="0" result="BackgroundImageFix"/>
<feColorMatrix in="SourceAlpha" type="matrix" values="0 0 0 0 0 0 0 0 0 0 0 0 0 0 0 0 0 0 127 0" result="hardAlpha"/>
<feOffset dy="14.3514"/>
<feGaussianBlur stdDeviation="19.1351"/>
<feComposite in2="hardAlpha" operator="out"/>
<feColorMatrix type="matrix" values="0 0 0 0 0.117647 0 0 0 0 0.129412 0 0 0 0 0.176471 0 0 0 0.09 0"/>
<feBlend mode="normal" in2="BackgroundImageFix" result="effect1_dropShadow_15089_33523"/>
<feBlend mode="normal" in="SourceGraphic" in2="effect1_dropShadow_15089_33523" result="shape"/>
</filter>
<linearGradient id="paint0_linear_15089_33523" x1="52.6216" y1="39.8518" x2="-24.8097" y2="-6.01162" gradientUnits="userSpaceOnUse">
<stop offset="0.199072" stop-color="#FF7300" stop-opacity="0"/>
<stop offset="1" stop-color="#FF7300" stop-opacity="0.46"/>
</linearGradient>
<linearGradient id="paint1_linear_15089_33523" x1="35.4" y1="26.057" x2="-15.9094" y2="-5.2118" gradientUnits="userSpaceOnUse">
<stop offset="0.199072" stop-color="#FF7300" stop-opacity="0"/>
<stop offset="1" stop-color="#FF7300" stop-opacity="0.46"/>
</linearGradient>
<linearGradient id="paint2_linear_15089_33523" x1="19.5943" y1="2.47568" x2="52.6121" y2="62.746" gradientUnits="userSpaceOnUse">
<stop stop-color="#DDEEFF"/>
<stop offset="1" stop-color="#EAF4FE" stop-opacity="0"/>
</linearGradient>
<linearGradient id="paint3_linear_15089_33523" x1="40.2115" y1="299.725" x2="73.2293" y2="359.995" gradientUnits="userSpaceOnUse">
<stop stop-color="#DDEEFF"/>
<stop offset="1" stop-color="#EAF4FE" stop-opacity="0"/>
</linearGradient>
<linearGradient id="paint4_linear_15089_33523" x1="33.6627" y1="73.008" x2="28.1949" y2="2.30039" gradientUnits="userSpaceOnUse">
<stop stop-color="#61D0FF" stop-opacity="0.34"/>
<stop offset="1" stop-color="#61D0FF" stop-opacity="0"/>
</linearGradient>
<clipPath id="clip0_15089_33523">
<rect width="12.2417" height="12.2417" fill="white" transform="translate(356.533 99.6172)"/>
</clipPath>
<clipPath id="clip1_15089_33523">
<rect width="7.3855" height="7.3855" fill="white" transform="translate(74.5078 255.915)"/>
</clipPath>
<clipPath id="clip2_15089_33523">
<rect width="7.3855" height="7.3855" fill="white" transform="translate(74.4688 279.832)"/>
</clipPath>
</defs>
</svg>
