<svg width="532" height="353" viewBox="0 0 532 353" fill="none" xmlns="http://www.w3.org/2000/svg">
<circle opacity="0.3" cx="51.5" cy="51.5" r="51.5" transform="matrix(-4.37114e-08 -1 -1 4.37114e-08 222 315)" fill="url(#paint0_linear_15089_33957)"/>
<circle cx="437" cy="285" r="45" fill="url(#paint1_linear_15089_33957)"/>
<ellipse cx="82.5" cy="43" rx="40.5" ry="41" fill="url(#paint2_linear_15089_33957)"/>
<circle cx="39.5" cy="92.5" r="14.5" fill="url(#paint3_linear_15089_33957)"/>
<circle cx="469.5" cy="20.5" r="14.5" fill="url(#paint4_linear_15089_33957)"/>
<g filter="url(#filter0_d_15089_33957)">
<rect x="55" y="29" width="410" height="262" rx="17.9959" fill="white"/>
</g>
<ellipse cx="79" cy="49" rx="4" ry="4" fill="#FF6259"/>
<ellipse cx="95" cy="49" rx="4" ry="4" fill="#FFBE2F"/>
<ellipse cx="111" cy="49" rx="4" ry="4" fill="#29CD41"/>
<path d="M438.713 52.3002L441.43 49.5835C441.75 49.2627 441.75 48.7377 441.43 48.4169L438.713 45.7002" stroke="#495B6D" stroke-width="1.5" stroke-miterlimit="10" stroke-linecap="round" stroke-linejoin="round"/>
<g filter="url(#filter1_d_15089_33957)">
<path d="M341.18 216.641C341.18 208.325 341.18 204.167 343.763 201.584C346.347 199 350.505 199 358.821 199H470.18C478.496 199 482.654 199 485.237 201.584C487.821 204.167 487.821 208.325 487.821 216.641V246.783C487.821 255.099 487.821 259.257 485.237 261.84C482.654 264.424 478.496 264.424 470.18 264.424H385.076C382.204 264.424 380.769 264.424 379.428 264.864C378.087 265.304 376.931 266.156 374.618 267.858L358.821 279.487L358.286 272.005C357.966 267.524 354.237 264.051 349.744 264.051C345.014 264.051 341.18 260.217 341.18 255.487V216.641Z" fill="white"/>
</g>
<circle cx="374.257" cy="230.982" r="20.9487" fill="white" fill-opacity="0.8" stroke="#EBEFF2" stroke-width="1.10256" stroke-linecap="round"/>
<path opacity="0.15" d="M374.435 229.736C374.325 229.725 374.193 229.725 374.071 229.736C371.447 229.648 369.363 227.498 369.363 224.851C369.363 222.15 371.546 219.956 374.259 219.956C376.96 219.956 379.154 222.15 379.154 224.851C379.143 227.498 377.059 229.648 374.435 229.736Z" fill="#FF7300"/>
<path d="M368.922 233.804C366.254 235.59 366.254 238.501 368.922 240.276C371.954 242.305 376.927 242.305 379.959 240.276C382.627 238.49 382.627 235.579 379.959 233.804C376.938 231.787 371.965 231.787 368.922 233.804Z" stroke="#FF7300" stroke-width="1.65385" stroke-linecap="round" stroke-linejoin="round"/>
<rect x="406.23" y="216.646" width="71.6666" height="7.89203" rx="3.94602" fill="#EBEFF2"/>
<rect x="406.23" y="230.052" width="19.8461" height="4.41025" rx="2.20513" fill="#EBEFF2"/>
<rect x="431.59" y="230.052" width="34.1795" height="4.41025" rx="2.20513" fill="#EBEFF2"/>
<rect x="406.23" y="239.975" width="65.0512" height="4.41025" rx="2.20513" fill="#EBEFF2"/>
<rect x="330.5" y="72.5" width="114" height="107.134" rx="6.36567" fill="white" stroke="#EBEFF2"/>
<rect opacity="0.1" x="340.299" y="99.4629" width="51.4925" height="34.3284" rx="3.43284" fill="#FF7300"/>
<rect x="399.085" y="104.183" width="36.903" height="2.57463" rx="1.28731" fill="#EBEFF2" stroke="#EBEFF2" stroke-width="0.858209"/>
<rect x="399.085" y="111.907" width="36.903" height="2.57463" rx="1.28731" fill="#EBEFF2" stroke="#EBEFF2" stroke-width="0.858209"/>
<rect x="399.085" y="119.631" width="36.903" height="2.57463" rx="1.28731" fill="#EBEFF2" stroke="#EBEFF2" stroke-width="0.858209"/>
<rect x="399.085" y="127.355" width="36.903" height="2.57463" rx="1.28731" fill="#EBEFF2" stroke="#EBEFF2" stroke-width="0.858209"/>
<rect x="340.728" y="141.085" width="95.2612" height="6.00746" rx="3.00373" fill="#EBEFF2" stroke="#EBEFF2" stroke-width="0.858209"/>
<rect x="340.728" y="152.242" width="78.097" height="2.57463" rx="1.28731" fill="#EBEFF2" stroke="#EBEFF2" stroke-width="0.858209"/>
<rect x="340.728" y="159.966" width="36.903" height="2.57463" rx="1.28731" fill="#EBEFF2" stroke="#EBEFF2" stroke-width="0.858209"/>
<circle cx="343.303" cy="85.3026" r="2.57463" fill="#EBEFF2" stroke="#EBEFF2" stroke-width="0.858209"/>
<circle cx="353.601" cy="85.3026" r="2.57463" fill="#EBEFF2" stroke="#EBEFF2" stroke-width="0.858209"/>
<circle cx="363.9" cy="85.3026" r="2.57463" fill="#EBEFF2" stroke="#EBEFF2" stroke-width="0.858209"/>
<rect x="158.783" y="72" width="68.1159" height="7.31599" rx="3.65799" fill="#EDF1F4"/>
<rect x="241.543" y="72" width="68.1159" height="7.31599" rx="3.65799" fill="#EDF1F4"/>
<rect x="75" y="72" width="68.1159" height="7.31599" rx="3.65799" fill="#EDF1F4"/>
<rect x="75" y="83.8887" width="45.9783" height="3.65799" rx="1.829" fill="#EDF1F4"/>
<rect x="75" y="101.264" width="235" height="7.31599" rx="3.65799" fill="#EDF1F4"/>
<rect x="75" y="113.152" width="158.625" height="3.65799" rx="1.829" fill="#EDF1F4"/>
<rect x="158.783" y="83.8887" width="45.9783" height="3.65799" rx="1.829" fill="#EDF1F4"/>
<rect x="241.543" y="83.8887" width="45.9783" height="3.65799" rx="1.829" fill="#EDF1F4"/>
<rect x="73" y="135" width="237" height="123" rx="7.31599" fill="#F2F5F6"/>
<path d="M107.624 156.144C107.008 156.144 106.468 156.036 106.004 155.82C105.54 155.604 105.176 155.296 104.912 154.896C104.656 154.496 104.524 154.02 104.516 153.468H105.86C105.868 153.916 106.024 154.296 106.328 154.608C106.632 154.92 107.06 155.076 107.612 155.076C108.1 155.076 108.48 154.96 108.752 154.728C109.032 154.488 109.172 154.184 109.172 153.816C109.172 153.52 109.104 153.28 108.968 153.096C108.84 152.912 108.66 152.76 108.428 152.64C108.204 152.52 107.944 152.412 107.648 152.316C107.352 152.22 107.04 152.116 106.712 152.004C106.064 151.788 105.576 151.508 105.248 151.164C104.928 150.82 104.768 150.368 104.768 149.808C104.76 149.336 104.868 148.924 105.092 148.572C105.324 148.22 105.644 147.948 106.052 147.756C106.468 147.556 106.952 147.456 107.504 147.456C108.048 147.456 108.524 147.556 108.932 147.756C109.348 147.956 109.672 148.236 109.904 148.596C110.136 148.948 110.256 149.36 110.264 149.832H108.92C108.92 149.616 108.864 149.412 108.752 149.22C108.64 149.02 108.476 148.856 108.26 148.728C108.044 148.6 107.78 148.536 107.468 148.536C107.068 148.528 106.736 148.628 106.472 148.836C106.216 149.044 106.088 149.332 106.088 149.7C106.088 150.028 106.184 150.28 106.376 150.456C106.568 150.632 106.832 150.78 107.168 150.9C107.504 151.012 107.888 151.144 108.32 151.296C108.736 151.432 109.108 151.596 109.436 151.788C109.764 151.98 110.024 152.232 110.216 152.544C110.416 152.856 110.516 153.252 110.516 153.732C110.516 154.156 110.408 154.552 110.192 154.92C109.976 155.28 109.652 155.576 109.22 155.808C108.788 156.032 108.256 156.144 107.624 156.144ZM111.859 156V147.36H113.131V151.008C113.331 150.664 113.607 150.396 113.959 150.204C114.319 150.004 114.715 149.904 115.147 149.904C115.859 149.904 116.419 150.128 116.827 150.576C117.235 151.024 117.439 151.692 117.439 152.58V156H116.179V152.712C116.179 151.56 115.719 150.984 114.799 150.984C114.319 150.984 113.919 151.152 113.599 151.488C113.287 151.824 113.131 152.304 113.131 152.928V156H111.859ZM120.953 156.144C120.449 156.144 120.033 156.06 119.705 155.892C119.377 155.724 119.133 155.504 118.973 155.232C118.813 154.952 118.733 154.648 118.733 154.32C118.733 153.744 118.957 153.288 119.405 152.952C119.853 152.616 120.493 152.448 121.325 152.448H122.885V152.34C122.885 151.876 122.757 151.528 122.501 151.296C122.253 151.064 121.929 150.948 121.529 150.948C121.177 150.948 120.869 151.036 120.605 151.212C120.349 151.38 120.193 151.632 120.137 151.968H118.865C118.905 151.536 119.049 151.168 119.297 150.864C119.553 150.552 119.873 150.316 120.257 150.156C120.649 149.988 121.077 149.904 121.541 149.904C122.373 149.904 123.017 150.124 123.473 150.564C123.929 150.996 124.157 151.588 124.157 152.34V156H123.053L122.945 154.98C122.777 155.308 122.533 155.584 122.213 155.808C121.893 156.032 121.473 156.144 120.953 156.144ZM121.205 155.112C121.549 155.112 121.837 155.032 122.069 154.872C122.309 154.704 122.493 154.484 122.621 154.212C122.757 153.94 122.841 153.64 122.873 153.312H121.457C120.953 153.312 120.593 153.4 120.377 153.576C120.169 153.752 120.065 153.972 120.065 154.236C120.065 154.508 120.165 154.724 120.365 154.884C120.573 155.036 120.853 155.112 121.205 155.112ZM128.352 156.144C127.776 156.144 127.268 156.008 126.828 155.736C126.388 155.464 126.044 155.092 125.796 154.62C125.548 154.148 125.424 153.612 125.424 153.012C125.424 152.412 125.548 151.88 125.796 151.416C126.044 150.944 126.388 150.576 126.828 150.312C127.276 150.04 127.788 149.904 128.364 149.904C128.836 149.904 129.248 149.996 129.6 150.18C129.96 150.364 130.24 150.624 130.44 150.96V147.36H131.712V156H130.572L130.44 155.076C130.248 155.356 129.984 155.604 129.648 155.82C129.312 156.036 128.88 156.144 128.352 156.144ZM128.58 155.04C129.124 155.04 129.568 154.852 129.912 154.476C130.264 154.1 130.44 153.616 130.44 153.024C130.44 152.424 130.264 151.94 129.912 151.572C129.568 151.196 129.124 151.008 128.58 151.008C128.036 151.008 127.588 151.196 127.236 151.572C126.884 151.94 126.708 152.424 126.708 153.024C126.708 153.416 126.788 153.764 126.948 154.068C127.108 154.372 127.328 154.612 127.608 154.788C127.896 154.956 128.22 155.04 128.58 155.04ZM134.012 158.64L135.44 155.508H135.092L132.74 150.048H134.12L135.944 154.452L137.852 150.048H139.196L135.356 158.64H134.012ZM145.281 156V148.632H142.797V147.6H149.025V148.632H146.553V156H145.281ZM151.234 156.144C150.73 156.144 150.314 156.06 149.986 155.892C149.658 155.724 149.414 155.504 149.254 155.232C149.094 154.952 149.014 154.648 149.014 154.32C149.014 153.744 149.238 153.288 149.686 152.952C150.134 152.616 150.774 152.448 151.606 152.448H153.166V152.34C153.166 151.876 153.038 151.528 152.782 151.296C152.534 151.064 152.21 150.948 151.81 150.948C151.458 150.948 151.15 151.036 150.886 151.212C150.63 151.38 150.474 151.632 150.418 151.968H149.146C149.186 151.536 149.33 151.168 149.578 150.864C149.834 150.552 150.154 150.316 150.538 150.156C150.93 149.988 151.358 149.904 151.822 149.904C152.654 149.904 153.298 150.124 153.754 150.564C154.21 150.996 154.438 151.588 154.438 152.34V156H153.334L153.226 154.98C153.058 155.308 152.814 155.584 152.494 155.808C152.174 156.032 151.754 156.144 151.234 156.144ZM151.486 155.112C151.83 155.112 152.118 155.032 152.35 154.872C152.59 154.704 152.774 154.484 152.902 154.212C153.038 153.94 153.122 153.64 153.154 153.312H151.738C151.234 153.312 150.874 153.4 150.658 153.576C150.45 153.752 150.346 153.972 150.346 154.236C150.346 154.508 150.446 154.724 150.646 154.884C150.854 155.036 151.134 155.112 151.486 155.112ZM158.741 156.144C158.157 156.144 157.633 156.012 157.169 155.748C156.713 155.484 156.353 155.12 156.089 154.656C155.833 154.184 155.705 153.64 155.705 153.024C155.705 152.408 155.833 151.868 156.089 151.404C156.353 150.932 156.713 150.564 157.169 150.3C157.633 150.036 158.157 149.904 158.741 149.904C159.477 149.904 160.093 150.096 160.589 150.48C161.093 150.864 161.417 151.384 161.561 152.04H160.229C160.149 151.712 159.973 151.456 159.701 151.272C159.429 151.088 159.109 150.996 158.741 150.996C158.429 150.996 158.141 151.076 157.877 151.236C157.613 151.388 157.401 151.616 157.241 151.92C157.081 152.216 157.001 152.584 157.001 153.024C157.001 153.464 157.081 153.836 157.241 154.14C157.401 154.436 157.613 154.664 157.877 154.824C158.141 154.984 158.429 155.064 158.741 155.064C159.109 155.064 159.429 154.972 159.701 154.788C159.973 154.604 160.149 154.344 160.229 154.008H161.561C161.425 154.648 161.105 155.164 160.601 155.556C160.097 155.948 159.477 156.144 158.741 156.144ZM165.32 156C164.736 156 164.272 155.86 163.928 155.58C163.584 155.292 163.412 154.784 163.412 154.056V151.116H162.392V150.048H163.412L163.568 148.536H164.684V150.048H166.364V151.116H164.684V154.056C164.684 154.384 164.752 154.612 164.888 154.74C165.032 154.86 165.276 154.92 165.62 154.92H166.304V156H165.32ZM168.395 148.92C168.155 148.92 167.955 148.848 167.795 148.704C167.643 148.552 167.567 148.364 167.567 148.14C167.567 147.916 167.643 147.732 167.795 147.588C167.955 147.436 168.155 147.36 168.395 147.36C168.635 147.36 168.831 147.436 168.983 147.588C169.143 147.732 169.223 147.916 169.223 148.14C169.223 148.364 169.143 148.552 168.983 148.704C168.831 148.848 168.635 148.92 168.395 148.92ZM167.759 156V150.048H169.031V156H167.759ZM173.53 156.144C172.946 156.144 172.422 156.012 171.958 155.748C171.502 155.484 171.142 155.12 170.878 154.656C170.622 154.184 170.494 153.64 170.494 153.024C170.494 152.408 170.622 151.868 170.878 151.404C171.142 150.932 171.502 150.564 171.958 150.3C172.422 150.036 172.946 149.904 173.53 149.904C174.266 149.904 174.882 150.096 175.378 150.48C175.882 150.864 176.206 151.384 176.35 152.04H175.018C174.938 151.712 174.762 151.456 174.49 151.272C174.218 151.088 173.898 150.996 173.53 150.996C173.218 150.996 172.93 151.076 172.666 151.236C172.402 151.388 172.19 151.616 172.03 151.92C171.87 152.216 171.79 152.584 171.79 153.024C171.79 153.464 171.87 153.836 172.03 154.14C172.19 154.436 172.402 154.664 172.666 154.824C172.93 154.984 173.218 155.064 173.53 155.064C173.898 155.064 174.218 154.972 174.49 154.788C174.762 154.604 174.938 154.344 175.018 154.008H176.35C176.214 154.648 175.894 155.164 175.39 155.556C174.886 155.948 174.266 156.144 173.53 156.144ZM180.106 156.144C179.354 156.144 178.734 155.96 178.246 155.592C177.758 155.224 177.478 154.736 177.406 154.128H178.69C178.754 154.4 178.906 154.636 179.146 154.836C179.386 155.028 179.702 155.124 180.094 155.124C180.478 155.124 180.758 155.044 180.934 154.884C181.11 154.724 181.198 154.54 181.198 154.332C181.198 154.028 181.074 153.824 180.826 153.72C180.586 153.608 180.25 153.508 179.818 153.42C179.482 153.348 179.146 153.252 178.81 153.132C178.482 153.012 178.206 152.844 177.982 152.628C177.766 152.404 177.658 152.104 177.658 151.728C177.658 151.208 177.858 150.776 178.258 150.432C178.658 150.08 179.218 149.904 179.938 149.904C180.602 149.904 181.138 150.064 181.546 150.384C181.962 150.704 182.206 151.156 182.278 151.74H181.054C181.014 151.484 180.894 151.284 180.694 151.14C180.502 150.996 180.242 150.924 179.914 150.924C179.594 150.924 179.346 150.992 179.17 151.128C178.994 151.256 178.906 151.424 178.906 151.632C178.906 151.84 179.026 152.004 179.266 152.124C179.514 152.244 179.838 152.352 180.238 152.448C180.638 152.536 181.006 152.64 181.342 152.76C181.686 152.872 181.962 153.04 182.17 153.264C182.378 153.488 182.482 153.816 182.482 154.248C182.49 154.792 182.278 155.244 181.846 155.604C181.422 155.964 180.842 156.144 180.106 156.144Z" fill="#8997A6"/>
<rect opacity="0.54" x="83.9568" y="145.957" width="12.0865" height="12.0865" rx="1.91351" stroke="#0061BF" stroke-width="1.91351"/>
<rect x="275" y="222" width="26" height="27" rx="5" fill="white"/>
<path d="M287.384 241.18C287.342 241.18 287.3 241.171 287.261 241.154C287.222 241.137 287.187 241.112 287.158 241.081L281.066 234.491C281.026 234.447 280.999 234.392 280.989 234.333C280.979 234.274 280.986 234.214 281.01 234.159C281.034 234.104 281.074 234.058 281.124 234.025C281.174 233.992 281.232 233.975 281.292 233.975H284.224C284.268 233.975 284.312 233.984 284.352 234.002C284.392 234.021 284.428 234.047 284.457 234.08L286.493 236.423C286.713 235.952 287.139 235.169 287.886 234.215C288.991 232.804 291.046 230.729 294.563 228.856C294.631 228.82 294.71 228.811 294.784 228.83C294.859 228.849 294.923 228.896 294.965 228.96C295.007 229.025 295.024 229.103 295.011 229.179C294.998 229.255 294.957 229.323 294.897 229.371C294.883 229.381 293.527 230.449 291.967 232.404C290.531 234.204 288.622 237.147 287.683 240.946C287.666 241.013 287.628 241.072 287.574 241.114C287.519 241.157 287.453 241.18 287.384 241.18L287.384 241.18Z" fill="#FF7300"/>
<g opacity="0.1">
<path opacity="0.1" d="M204.098 165.667C203.726 165.56 203.354 165.56 202.929 165.56C202.823 165.56 202.717 165.56 202.611 165.56C203.142 165.083 203.673 164.605 204.045 164.021C204.151 163.862 203.938 163.703 203.832 163.809C203.195 164.287 202.611 164.817 202.027 165.348C202.027 164.658 202.027 163.968 202.027 163.278C202.027 162.959 201.549 162.959 201.549 163.278C201.549 163.968 201.549 164.711 201.549 165.401C201.071 164.923 200.593 164.499 200.115 164.074C199.903 163.915 199.637 164.18 199.85 164.34C200.221 164.764 200.593 165.189 201.018 165.614C200.487 165.614 199.956 165.614 199.425 165.667C199.213 165.667 199.213 165.985 199.425 165.985C200.062 166.038 200.646 166.038 201.23 166.038C200.752 166.463 200.275 166.941 199.85 167.418C199.637 167.631 199.956 167.896 200.168 167.737C200.646 167.312 201.124 166.941 201.549 166.516C201.549 167.1 201.549 167.737 201.655 168.321C201.655 168.427 201.867 168.427 201.921 168.321C202.027 167.79 202.027 167.206 202.027 166.622C202.186 166.728 202.292 166.888 202.452 166.994C202.77 167.259 203.089 167.525 203.407 167.737C203.514 167.843 203.673 167.684 203.567 167.578C203.301 167.259 203.089 166.941 202.823 166.622C202.664 166.41 202.452 166.251 202.292 166.091C202.558 166.091 202.77 166.091 203.036 166.091C203.46 166.091 203.779 166.091 204.204 165.985C204.257 165.932 204.257 165.72 204.098 165.667Z" fill="#17BD8D"/>
<path opacity="0.1" d="M148.885 191.842C148.513 191.736 148.142 191.736 147.717 191.736C147.611 191.736 147.505 191.736 147.398 191.736C147.929 191.259 148.46 190.781 148.832 190.197C148.938 190.038 148.726 189.878 148.62 189.985C147.929 190.409 147.345 190.993 146.761 191.524C146.761 190.834 146.761 190.144 146.761 189.454C146.761 189.135 146.283 189.135 146.283 189.454C146.283 190.144 146.283 190.887 146.283 191.577C145.805 191.099 145.327 190.675 144.85 190.25C144.637 190.091 144.372 190.356 144.584 190.515C144.956 190.94 145.327 191.365 145.752 191.789C145.221 191.789 144.69 191.789 144.159 191.842C143.947 191.842 143.947 192.161 144.159 192.161C144.796 192.214 145.381 192.214 145.965 192.214C145.487 192.639 145.009 193.116 144.584 193.594C144.372 193.806 144.69 194.072 144.903 193.913C145.381 193.488 145.858 193.116 146.283 192.692C146.283 193.276 146.283 193.913 146.389 194.497C146.389 194.603 146.602 194.603 146.655 194.497C146.761 193.966 146.761 193.382 146.761 192.798C146.92 192.904 147.027 193.063 147.186 193.169C147.505 193.435 147.823 193.7 148.142 193.913C148.248 194.019 148.407 193.86 148.301 193.753C148.036 193.435 147.823 193.116 147.558 192.798C147.398 192.586 147.186 192.426 147.027 192.267C147.292 192.267 147.505 192.267 147.77 192.267C148.195 192.267 148.513 192.267 148.938 192.161C148.991 192.108 148.991 191.896 148.885 191.842Z" fill="#17BD8D"/>
<path d="M158.018 174.377C157.434 174.059 156.903 173.74 156.478 173.21C156 172.626 155.788 171.936 155.469 171.245C155.469 171.245 155.469 171.192 155.416 171.192L155.363 171.192C155.363 171.192 155.363 171.192 155.31 171.245C155.31 171.245 155.31 171.245 155.31 171.299C155.151 172.732 154.301 173.74 153.239 174.643C153.186 174.696 153.186 174.802 153.239 174.855C154.407 175.386 155.204 176.819 155.575 177.987C155.628 178.093 155.788 178.093 155.841 177.987C156.053 177.297 156.213 176.66 156.584 176.023C156.956 175.386 157.434 174.908 158.018 174.537C158.071 174.483 158.071 174.377 158.018 174.377Z" fill="#FF4E3E"/>
<path d="M238.969 191.2C238.385 190.881 237.854 190.563 237.482 190.032C237.004 189.448 236.792 188.758 236.473 188.068C236.473 188.068 236.473 188.015 236.42 188.015L236.367 188.015C236.367 188.015 236.367 188.015 236.314 188.068C236.314 188.068 236.314 188.068 236.314 188.121C236.155 189.554 235.305 190.563 234.243 191.465C234.19 191.518 234.19 191.624 234.243 191.677C235.411 192.208 236.208 193.641 236.579 194.809C236.632 194.915 236.792 194.915 236.845 194.809C237.057 194.119 237.216 193.482 237.588 192.845C237.96 192.208 238.438 191.73 239.022 191.359C239.022 191.359 239.022 191.253 238.969 191.2Z" fill="#FF4E3E"/>
<path d="M200.209 177.717C199.784 177.505 199.466 177.293 199.147 176.921C198.829 176.497 198.669 176.019 198.404 175.541C198.404 175.541 198.404 175.541 198.351 175.541L198.298 175.541C198.298 175.541 198.298 175.541 198.298 175.594C198.192 176.603 197.607 177.293 196.864 177.93C196.811 177.983 196.811 178.036 196.864 178.036C197.714 178.407 198.245 179.416 198.51 180.212C198.51 180.318 198.669 180.318 198.669 180.212C198.776 179.735 198.935 179.257 199.2 178.832C199.466 178.407 199.784 178.089 200.209 177.824C200.262 177.824 200.262 177.717 200.209 177.717Z" fill="#FF4E3E"/>
<path d="M186.56 187.033C185.817 186.661 185.232 186.29 184.755 185.653C184.171 184.91 183.905 184.113 183.533 183.264C183.533 183.264 183.533 183.211 183.48 183.211L183.427 183.211C183.427 183.211 183.374 183.211 183.374 183.264L183.374 183.317C183.162 185.016 182.153 186.29 180.879 187.351C180.826 187.404 180.826 187.564 180.932 187.564C182.365 188.201 183.321 189.899 183.746 191.333C183.799 191.492 184.011 191.492 184.064 191.333C184.277 190.536 184.542 189.74 184.967 188.997C185.392 188.254 185.976 187.67 186.719 187.245C186.613 187.245 186.666 187.086 186.56 187.033Z" fill="#FF4E3E"/>
<path d="M173.976 173.521C173.233 172.459 172.489 171.451 171.534 170.601C171.003 170.177 170.472 169.752 169.888 169.433C169.569 169.274 169.251 169.168 168.932 169.009C168.773 168.956 168.613 168.903 168.454 168.796C168.295 168.743 168.189 168.637 168.029 168.69C167.923 168.69 167.87 168.743 167.923 168.849C167.976 169.115 168.295 169.274 168.507 169.433C168.773 169.646 169.038 169.805 169.304 170.017C169.835 170.389 170.366 170.814 170.843 171.238C171.746 172.088 172.489 172.99 173.18 173.999C173.498 174.476 174.295 174.052 173.976 173.521Z" fill="#FF7300"/>
<path d="M173.362 194.812C172.937 193.804 171.928 193.273 170.92 192.848C169.911 192.424 168.743 192.052 167.681 192.211C166.672 192.318 165.557 192.955 165.185 193.91C164.92 194.6 164.654 195.609 165.291 196.14C165.61 196.458 166.194 196.511 166.513 196.193C167.044 195.715 166.566 194.972 166.141 194.6C164.389 193.008 161.415 193.273 159.451 194.176C158.23 194.706 157.168 195.609 156.531 196.83C156 197.785 155.416 199.484 156.106 200.492C156.212 200.652 156.424 200.652 156.531 200.492C157.115 199.696 157.115 198.528 157.539 197.679C157.964 196.777 158.654 196.033 159.451 195.556C161.097 194.494 163.911 193.963 165.61 195.131C165.822 195.29 166.406 195.662 166.088 195.98C165.822 196.246 165.398 195.98 165.238 195.768C164.601 194.6 166.141 193.326 167.097 193.061C168.052 192.795 169.167 193.061 170.07 193.432C171.079 193.751 172.247 194.335 172.831 195.184C173.096 195.29 173.468 195.078 173.362 194.812Z" fill="#0061BF"/>
<path d="M220.063 186.899C220.116 186.899 220.116 186.846 220.063 186.846C220.01 186.846 220.01 186.899 220.063 186.899Z" fill="#17BD8D"/>
<path d="M220.542 185.997C221.445 184.298 223.303 182.494 225.374 183.131C226.117 183.343 227.073 184.033 226.967 184.989C226.914 185.626 226.17 185.201 225.905 184.935C225.268 184.245 225.586 183.024 225.799 182.228C226.117 181.167 226.808 180.158 227.71 179.521C228.454 178.937 229.462 178.672 230.365 178.566C231.374 178.459 232.277 178.778 233.232 178.99C233.604 179.043 233.869 178.619 233.604 178.353C232.914 177.61 231.692 177.504 230.737 177.61C229.728 177.716 228.666 177.982 227.816 178.566C226.117 179.68 224.843 182.069 225.002 184.086C225.109 184.989 226.277 186.687 227.285 185.732C227.763 185.307 227.604 184.511 227.392 183.98C227.02 183.184 226.17 182.653 225.374 182.441C222.985 181.804 221.126 183.821 220.224 185.838C220.171 185.997 220.436 186.156 220.542 185.997Z" fill="#0061BF"/>
<path d="M174.641 183.296C173.897 182.234 172.942 181.438 171.827 180.907C171.242 180.642 170.658 180.429 170.074 180.323C169.543 180.217 168.747 180.164 168.269 180.429C168.163 180.483 168.163 180.642 168.269 180.748C168.694 181.013 169.331 181.066 169.809 181.173C170.393 181.332 170.871 181.491 171.402 181.757C172.411 182.234 173.366 182.924 174.057 183.774C174.322 184.092 174.906 183.668 174.641 183.296Z" fill="#FF7300"/>
<path d="M162.48 186.852C162.958 186.746 163.489 186.693 163.967 186.693C164.232 186.693 164.498 186.693 164.763 186.693C164.923 186.693 165.082 186.693 165.188 186.64C165.294 186.587 165.401 186.587 165.507 186.534C165.613 186.481 165.613 186.321 165.507 186.268C165.401 186.215 165.294 186.162 165.241 186.109C165.135 186.056 164.923 186.056 164.817 186.003C164.551 186.003 164.286 186.003 163.967 186.056C163.436 186.109 162.905 186.215 162.374 186.375C162.055 186.428 162.162 186.905 162.48 186.852Z" fill="#FF7300"/>
<path d="M218.894 200.118C220.381 199.216 221.973 198.473 223.673 197.995C224.469 197.783 225.319 197.57 226.168 197.464C226.646 197.411 227.071 197.358 227.549 197.305C227.92 197.305 228.292 197.305 228.61 197.146C228.717 197.093 228.717 196.933 228.61 196.88C228.239 196.721 227.867 196.774 227.442 196.774C226.964 196.774 226.54 196.827 226.062 196.827C225.159 196.88 224.257 197.04 223.354 197.252C221.549 197.677 219.956 198.473 218.469 199.641C218.257 199.853 218.575 200.278 218.894 200.118Z" fill="#FF7300"/>
<path d="M215.976 197.621C217.251 196.294 218.897 195.392 220.49 194.489C221.286 194.065 222.136 193.587 222.985 193.215C223.463 193.003 223.888 192.791 224.313 192.578C224.737 192.366 225.215 192.26 225.64 191.994C225.746 191.941 225.746 191.782 225.587 191.729C225.162 191.623 224.684 191.782 224.259 191.835C223.728 191.888 223.251 192.048 222.773 192.26C221.817 192.685 220.861 193.162 219.959 193.693C218.206 194.649 216.667 195.657 215.446 197.25C215.233 197.515 215.711 197.834 215.976 197.621Z" fill="#FF7300"/>
<path d="M207.53 172.408C207.477 172.248 207.477 172.089 207.424 171.877C207.424 171.771 207.37 171.718 207.37 171.665C207.37 171.611 207.37 171.558 207.317 171.505C207.317 171.452 207.264 171.452 207.264 171.399C207.211 171.346 207.158 171.293 207.105 171.293C207.052 171.293 206.999 171.346 206.946 171.399C206.946 171.452 206.893 171.452 206.893 171.505C206.893 171.558 206.893 171.611 206.893 171.665C206.893 171.771 206.893 171.877 206.946 171.983C206.946 172.142 206.999 172.302 207.052 172.461L207.052 172.408L207.052 172.461C207.052 172.514 207.105 172.62 207.158 172.673C207.211 172.726 207.317 172.779 207.37 172.726C207.424 172.726 207.53 172.673 207.53 172.62C207.53 172.62 207.53 172.514 207.53 172.408Z" fill="#17BD8D"/>
<path d="M209.657 180.049C209.71 178.669 210.135 177.448 210.613 176.174C210.878 175.537 211.144 174.953 211.463 174.369C211.781 173.786 212.1 173.308 212.259 172.671C212.259 172.565 212.153 172.405 212.047 172.512C211.781 172.724 211.622 172.883 211.409 173.149C211.25 173.414 211.091 173.732 210.932 173.998C210.613 174.635 210.294 175.272 210.029 175.962C209.551 177.236 209.286 178.669 209.232 180.049C209.286 180.315 209.657 180.315 209.657 180.049Z" fill="#FF7300"/>
<path d="M214.219 171.135C214.272 171.029 214.325 170.975 214.378 170.869C214.378 170.869 214.378 170.922 214.325 170.922C214.325 170.922 214.325 170.869 214.378 170.869L214.431 170.816C214.484 170.763 214.484 170.763 214.537 170.71C214.644 170.551 214.803 170.445 214.909 170.285C215.015 170.126 215.174 170.02 215.281 169.861C215.334 169.755 215.44 169.701 215.493 169.595C215.493 169.542 215.546 169.542 215.546 169.489C215.599 169.436 215.599 169.383 215.599 169.33C215.652 169.224 215.546 169.064 215.387 169.064C215.334 169.064 215.281 169.064 215.174 169.064C215.121 169.064 215.121 169.118 215.068 169.118C215.068 169.118 215.068 169.118 215.015 169.118C215.068 169.118 215.068 169.118 215.015 169.118C214.909 169.118 214.803 169.224 214.697 169.277C214.484 169.383 214.325 169.542 214.166 169.701C214.006 169.861 213.847 170.02 213.741 170.232C213.635 170.392 213.475 170.604 213.422 170.763C213.316 170.922 213.369 171.188 213.582 171.294C213.9 171.347 214.113 171.294 214.219 171.135Z" fill="#FF7300"/>
<path d="M212.364 181.06C212.523 180.635 212.735 180.264 212.895 179.839C213.054 179.415 213.213 179.043 213.426 178.618C213.638 178.247 213.797 177.822 214.01 177.45C214.222 177.079 214.541 176.707 214.594 176.283C214.594 176.123 214.434 176.07 214.328 176.07C213.903 176.176 213.691 176.654 213.426 176.973C213.107 177.344 212.895 177.769 212.682 178.194C212.47 178.618 212.31 179.043 212.151 179.521C212.098 179.733 211.992 179.945 211.992 180.211C211.939 180.423 211.939 180.688 211.939 180.901C211.886 181.166 212.257 181.272 212.364 181.06Z" fill="#FF7300"/>
<path d="M215.342 175.276C215.448 175.011 215.608 174.798 215.767 174.586C215.979 174.267 216.086 173.896 216.298 173.63C216.51 173.365 216.776 173.259 217.041 173.047C217.307 172.834 217.572 172.622 217.838 172.357C218.847 171.401 220.015 170.552 221.236 169.862C221.554 169.702 221.873 169.543 222.192 169.384C222.404 169.278 222.723 169.065 222.563 168.8C222.298 168.269 221.236 168.959 220.917 169.118C219.696 169.809 218.687 170.817 217.572 171.72C217.254 171.932 216.988 172.197 216.723 172.463C216.457 172.728 216.245 173.1 215.979 173.365C215.714 173.63 215.395 173.79 215.13 174.055C214.917 174.267 214.758 174.586 214.652 174.904C214.44 175.329 215.077 175.754 215.342 175.276Z" fill="#FF7300"/>
<path opacity="0.5" d="M190.17 178.087C190.382 177.663 190.435 177.132 190.382 176.654C190.382 176.123 190.329 175.593 190.223 175.115C190.223 175.009 190.011 175.009 190.011 175.115C189.957 175.593 189.957 176.07 189.957 176.601C189.957 177.026 189.957 177.503 189.798 177.875C189.692 178.14 190.064 178.353 190.17 178.087Z" fill="#0061BF"/>
<g opacity="0.5">
<path d="M190.277 171.186C190.277 170.709 190.33 170.231 190.277 169.806C190.224 169.328 190.064 168.904 189.799 168.479C189.746 168.373 189.533 168.426 189.587 168.585C189.799 169.435 189.799 170.337 189.799 171.239C189.746 171.505 190.277 171.505 190.277 171.186Z" fill="#0061BF"/>
</g>
<path opacity="0.5" d="M187.943 166.625C187.837 166.2 187.678 165.776 187.465 165.404C187.359 165.245 187.306 165.032 187.2 164.873C187.094 164.714 186.988 164.396 186.775 164.396C186.669 164.396 186.563 164.396 186.51 164.502C186.403 164.714 186.563 164.926 186.669 165.139C186.775 165.298 186.881 165.51 186.934 165.669C187.147 166.041 187.306 166.413 187.412 166.784C187.519 167.103 188.049 166.943 187.943 166.625Z" fill="#0061BF"/>
<path opacity="0.5" d="M190.382 165.88C190.488 165.455 190.541 164.977 190.594 164.5C190.594 164.287 190.594 164.022 190.594 163.81C190.594 163.597 190.594 163.332 190.488 163.119C190.435 162.96 190.223 162.96 190.169 163.119C190.063 163.332 190.063 163.597 190.063 163.81C190.063 164.022 190.063 164.234 190.063 164.447C190.063 164.871 190.01 165.296 189.957 165.72C189.957 165.827 190.01 165.986 190.116 165.986C190.223 166.092 190.382 166.039 190.382 165.88Z" fill="#0061BF"/>
<path opacity="0.5" d="M192.397 167.418C192.503 166.887 192.716 166.409 192.981 165.985C193.247 165.56 193.618 165.189 193.937 164.764C193.99 164.658 193.937 164.498 193.831 164.552C193.247 164.711 192.822 165.189 192.556 165.666C192.238 166.144 192.079 166.728 191.972 167.259C191.866 167.577 192.344 167.737 192.397 167.418Z" fill="#0061BF"/>
<path d="M227.284 188.65C227.337 188.597 227.337 188.544 227.39 188.491C227.443 188.385 227.496 188.279 227.496 188.172C227.496 188.066 227.496 188.013 227.549 187.907L227.549 187.854C227.549 187.801 227.549 187.748 227.549 187.695C227.549 187.589 227.549 187.482 227.496 187.376C227.496 187.27 227.443 187.217 227.39 187.164C227.284 186.952 227.071 186.792 226.806 186.739C226.912 186.792 227.018 186.845 227.124 186.952C227.018 186.845 226.912 186.792 226.806 186.792C226.7 186.739 226.593 186.739 226.54 186.792C226.434 186.792 226.381 186.845 226.275 186.899C226.169 186.952 226.062 187.058 226.009 187.164C226.169 187.058 226.275 186.952 226.434 186.845C226.381 186.845 226.328 186.899 226.275 186.899C226.169 186.952 226.062 187.005 226.009 187.058C225.956 187.111 225.903 187.164 225.85 187.217C225.85 187.27 225.797 187.27 225.797 187.323C225.797 187.376 225.744 187.429 225.744 187.482C225.797 187.429 225.797 187.323 225.85 187.27C225.85 187.323 225.797 187.323 225.797 187.376C225.797 187.429 225.744 187.429 225.744 187.482C225.691 187.535 225.691 187.642 225.638 187.695C225.585 187.801 225.531 187.907 225.531 188.066C225.478 188.172 225.531 188.332 225.531 188.438C225.585 188.544 225.638 188.65 225.691 188.756C225.744 188.863 225.85 188.969 225.956 189.022C226.009 189.075 226.115 189.075 226.169 189.128C226.328 189.181 226.54 189.181 226.7 189.128C226.753 189.075 226.859 189.075 226.912 189.022C227.124 188.916 227.231 188.756 227.284 188.65Z" fill="#FF7300"/>
<path d="M225.377 170.232C225.377 170.179 225.324 170.179 225.324 170.126C225.271 170.073 225.218 170.02 225.218 169.967C225.218 169.967 225.165 169.914 225.112 169.914C225.006 169.86 225.006 169.807 224.846 169.754C224.793 169.754 224.687 169.701 224.634 169.701C224.581 169.701 224.475 169.701 224.475 169.701L224.315 169.754C224.209 169.807 224.156 169.86 224.103 169.967C224.05 170.02 224.05 170.02 224.05 170.073C224.05 170.126 223.997 170.126 223.997 170.179C223.944 170.285 223.891 170.444 223.891 170.604C223.891 170.763 223.944 170.869 223.997 171.028C224.156 171.294 224.422 171.453 224.687 171.453C224.953 171.453 225.271 171.294 225.377 171.028C225.43 170.922 225.484 170.763 225.484 170.604C225.484 170.497 225.43 170.391 225.377 170.232Z" fill="#FF7300"/>
<path d="M186.242 176.602C185.817 175.169 186.029 173.629 186.295 172.196C186.295 172.09 186.189 172.037 186.136 172.143C185.605 173.576 185.445 175.222 185.87 176.708C185.87 176.973 186.295 176.867 186.242 176.602Z" fill="#17BD8D"/>
</g>
<path d="M206.538 200.975C206.194 204.314 204.714 207.434 202.347 209.813C199.979 212.192 196.867 213.688 193.53 214.049C193.463 214.048 193.396 214.061 193.334 214.086C193.272 214.112 193.215 214.149 193.168 214.197C193.12 214.244 193.083 214.301 193.057 214.363C193.032 214.425 193.019 214.492 193.02 214.559V225.473C193.02 225.744 192.913 226.003 192.721 226.194C192.53 226.386 192.271 226.493 192 226.493C191.729 226.493 191.47 226.386 191.279 226.194C191.087 226.003 190.98 225.744 190.98 225.473V221.513C190.97 221.381 190.913 221.257 190.82 221.163C190.726 221.07 190.602 221.013 190.47 221.003C185.933 220.636 181.63 218.839 178.18 215.871C174.73 212.902 172.31 208.916 171.27 204.485C171.231 204.354 171.219 204.216 171.235 204.08C171.251 203.944 171.293 203.813 171.361 203.694C171.428 203.574 171.519 203.47 171.628 203.387C171.736 203.304 171.861 203.243 171.993 203.209C172.126 203.175 172.264 203.167 172.399 203.188C172.534 203.208 172.664 203.255 172.781 203.327C172.898 203.398 172.999 203.492 173.078 203.604C173.158 203.715 173.214 203.841 173.244 203.975C174.169 207.952 176.326 211.536 179.407 214.215C182.488 216.895 186.337 218.533 190.404 218.897C190.536 218.963 190.662 218.897 190.788 218.771C190.855 218.733 190.908 218.677 190.943 218.608C190.977 218.54 190.99 218.463 190.98 218.387V214.559C190.981 214.492 190.968 214.425 190.943 214.363C190.917 214.301 190.88 214.244 190.832 214.197C190.785 214.149 190.728 214.112 190.666 214.086C190.604 214.061 190.537 214.048 190.47 214.049C187.149 213.679 184.05 212.199 181.674 209.849C179.299 207.462 177.816 204.331 177.474 200.981C177.455 200.858 177.393 200.746 177.3 200.664C177.207 200.582 177.088 200.535 176.964 200.531H166.05C165.772 200.531 165.504 200.42 165.308 200.223C165.111 200.027 165 199.76 165 199.481C165 199.203 165.111 198.935 165.308 198.739C165.504 198.542 165.772 198.431 166.05 198.431H170.196C170.32 198.426 170.438 198.378 170.531 198.296C170.624 198.214 170.685 198.103 170.706 197.981C170.978 193.451 172.661 189.12 175.519 185.595C178.377 182.07 182.266 179.528 186.642 178.325C186.907 178.275 187.181 178.328 187.408 178.473C187.635 178.619 187.798 178.845 187.864 179.107C187.929 179.369 187.891 179.646 187.759 179.881C187.627 180.116 187.41 180.291 187.152 180.371C183.237 181.427 179.75 183.678 177.177 186.812C174.604 189.945 173.074 193.804 172.8 197.849C172.783 197.924 172.784 198.001 172.802 198.075C172.82 198.149 172.855 198.218 172.905 198.277C172.954 198.335 173.017 198.381 173.087 198.411C173.157 198.441 173.234 198.454 173.31 198.449H176.94C177.064 198.445 177.183 198.398 177.276 198.316C177.369 198.234 177.431 198.122 177.45 197.999C177.79 194.654 179.269 191.527 181.639 189.143C184.009 186.758 187.127 185.261 190.47 184.901C190.537 184.902 190.604 184.889 190.666 184.864C190.728 184.839 190.785 184.801 190.832 184.753C190.88 184.706 190.917 184.649 190.943 184.587C190.968 184.525 190.981 184.458 190.98 184.391V173.477C190.98 173.207 191.087 172.947 191.279 172.756C191.47 172.564 191.729 172.457 192 172.457C192.271 172.457 192.53 172.564 192.721 172.756C192.913 172.947 193.02 173.207 193.02 173.477V185.855C193.027 185.999 193.003 186.144 192.951 186.279C192.899 186.413 192.819 186.536 192.717 186.638C192.615 186.74 192.492 186.82 192.358 186.872C192.223 186.924 192.078 186.948 191.934 186.941C180.84 186.941 175.296 200.525 183.138 208.373C190.98 216.221 204.366 210.605 204.558 199.475C204.556 199.341 204.582 199.207 204.632 199.083C204.683 198.958 204.758 198.845 204.853 198.75C204.948 198.655 205.061 198.58 205.186 198.529C205.31 198.479 205.444 198.453 205.578 198.455H217.95C218.228 198.455 218.496 198.566 218.692 198.763C218.889 198.959 219 199.227 219 199.505C219 199.784 218.889 200.051 218.692 200.247C218.496 200.444 218.228 200.555 217.95 200.555H213.87C213.743 200.55 213.62 200.594 213.525 200.678C213.43 200.762 213.371 200.879 213.36 201.005C213.029 205.563 211.266 209.9 208.323 213.396C205.381 216.893 201.409 219.37 196.974 220.475C195.636 220.793 195.174 218.753 196.524 218.435C200.484 217.45 204.036 215.248 206.678 212.138C209.321 209.029 210.921 205.168 211.254 201.101C211.271 201.027 211.27 200.949 211.252 200.875C211.234 200.801 211.199 200.732 211.149 200.673C211.1 200.615 211.037 200.569 210.967 200.539C210.897 200.509 210.82 200.496 210.744 200.501H207.048C206.924 200.505 206.805 200.552 206.712 200.634C206.619 200.716 206.557 200.828 206.538 200.951V200.975ZM214.8 184.007L207.426 191.339C207.246 191.535 206.996 191.651 206.73 191.663H201.816C201.682 191.675 201.552 191.718 201.438 191.789L192.702 200.591C192.506 200.775 192.246 200.875 191.977 200.87C191.708 200.866 191.451 200.758 191.261 200.568C191.07 200.378 190.961 200.122 190.956 199.853C190.95 199.585 191.049 199.324 191.232 199.127L199.968 190.319C200.027 190.29 200.076 190.244 200.11 190.188C200.144 190.132 200.161 190.067 200.16 190.001V185.075C200.159 184.933 200.186 184.792 200.241 184.661C200.296 184.53 200.376 184.412 200.478 184.313L207.81 176.987C207.952 176.834 208.136 176.727 208.339 176.68C208.542 176.634 208.755 176.649 208.949 176.725C209.143 176.801 209.31 176.933 209.428 177.105C209.546 177.277 209.609 177.481 209.61 177.689V181.709C209.618 181.842 209.675 181.966 209.769 182.06C209.863 182.154 209.988 182.211 210.12 182.219H214.074C214.285 182.214 214.493 182.272 214.67 182.386C214.847 182.5 214.986 182.665 215.068 182.859C215.151 183.054 215.173 183.268 215.131 183.475C215.09 183.682 214.987 183.871 214.836 184.019L214.8 184.007ZM206.4 189.407L210.672 185.135C210.746 185.066 210.799 184.978 210.823 184.879C210.847 184.781 210.842 184.678 210.808 184.583C210.774 184.488 210.713 184.405 210.632 184.344C210.552 184.283 210.455 184.247 210.354 184.241H208.554C208.275 184.248 208.005 184.144 207.802 183.953C207.599 183.763 207.479 183.5 207.468 183.221V181.475C207.467 181.372 207.437 181.271 207.379 181.185C207.322 181.099 207.241 181.032 207.146 180.991C207.05 180.951 206.946 180.94 206.844 180.958C206.742 180.977 206.648 181.025 206.574 181.097L202.374 185.369C202.262 185.467 202.193 185.605 202.182 185.753V189.071C202.181 189.138 202.194 189.205 202.219 189.267C202.245 189.329 202.282 189.386 202.33 189.433C202.377 189.481 202.434 189.519 202.496 189.544C202.558 189.569 202.625 189.582 202.692 189.581H206.07C206.202 189.581 206.328 189.581 206.388 189.449L206.4 189.407ZM200.664 199.487C200.666 201.203 200.16 202.88 199.208 204.308C198.257 205.735 196.903 206.848 195.319 207.506C193.734 208.164 191.99 208.337 190.308 208.003C188.625 207.67 187.079 206.844 185.866 205.632C184.652 204.419 183.826 202.874 183.491 201.191C183.156 199.509 183.328 197.765 183.985 196.18C184.641 194.595 185.754 193.241 187.18 192.288C188.607 191.336 190.284 190.828 192 190.829C192.258 190.849 192.499 190.965 192.674 191.155C192.85 191.344 192.948 191.593 192.948 191.852C192.948 192.111 192.85 192.36 192.674 192.549C192.499 192.739 192.258 192.855 192 192.875C190.25 192.875 188.571 193.57 187.333 194.808C186.095 196.046 185.4 197.725 185.4 199.475C185.4 201.225 186.095 202.904 187.333 204.142C188.571 205.38 190.25 206.075 192 206.075C195.828 206.075 198.378 203.207 198.564 199.475C198.558 199.33 198.582 199.186 198.634 199.051C198.686 198.916 198.766 198.793 198.868 198.689C198.969 198.586 199.091 198.505 199.226 198.451C199.36 198.397 199.504 198.372 199.649 198.376C199.794 198.38 199.936 198.414 200.068 198.475C200.199 198.537 200.316 198.625 200.412 198.733C200.507 198.842 200.58 198.969 200.624 199.107C200.669 199.245 200.684 199.391 200.67 199.535L200.664 199.487Z" fill="#0061BF"/>
<path opacity="0.2" d="M8.72278 160.572H7.3917C7.3917 164.437 4.24118 167.569 0.355549 167.569V168.893C4.24204 168.893 7.3917 172.025 7.3917 175.89H8.72278C8.72278 172.025 11.8733 168.893 15.7598 168.893V167.569C11.8733 167.569 8.72278 164.436 8.72278 160.572Z" fill="url(#paint5_linear_15089_33957)"/>
<path d="M20.9875 141H20.6546C20.6546 144.865 17.504 147.998 13.6184 147.998V148.329C17.5049 148.329 20.6554 151.461 20.6554 155.326H20.9884C20.9884 151.461 24.1389 148.329 28.0254 148.329V147.998C24.138 147.998 20.9875 144.865 20.9875 141Z" fill="url(#paint6_linear_15089_33957)"/>
<path opacity="0.2" d="M31.7582 184.553C31.7582 188.292 28.7102 191.323 24.95 191.323C28.7102 191.323 31.7582 194.354 31.7582 198.093C31.7582 194.354 34.8063 191.323 38.5664 191.323C34.8063 191.322 31.7582 188.292 31.7582 184.553Z" fill="url(#paint7_linear_15089_33957)"/>
<defs>
<filter id="filter0_d_15089_33957" x="10.0102" y="0.881388" width="499.98" height="351.98" filterUnits="userSpaceOnUse" color-interpolation-filters="sRGB">
<feFlood flood-opacity="0" result="BackgroundImageFix"/>
<feColorMatrix in="SourceAlpha" type="matrix" values="0 0 0 0 0 0 0 0 0 0 0 0 0 0 0 0 0 0 127 0" result="hardAlpha"/>
<feOffset dy="16.8712"/>
<feGaussianBlur stdDeviation="22.4949"/>
<feComposite in2="hardAlpha" operator="out"/>
<feColorMatrix type="matrix" values="0 0 0 0 0.117647 0 0 0 0 0.129412 0 0 0 0 0.176471 0 0 0 0.08 0"/>
<feBlend mode="normal" in2="BackgroundImageFix" result="effect1_dropShadow_15089_33957"/>
<feBlend mode="normal" in="SourceGraphic" in2="effect1_dropShadow_15089_33957" result="shape"/>
</filter>
<filter id="filter1_d_15089_33957" x="297.077" y="171.436" width="234.846" height="168.692" filterUnits="userSpaceOnUse" color-interpolation-filters="sRGB">
<feFlood flood-opacity="0" result="BackgroundImageFix"/>
<feColorMatrix in="SourceAlpha" type="matrix" values="0 0 0 0 0 0 0 0 0 0 0 0 0 0 0 0 0 0 127 0" result="hardAlpha"/>
<feOffset dy="16.5385"/>
<feGaussianBlur stdDeviation="22.0513"/>
<feComposite in2="hardAlpha" operator="out"/>
<feColorMatrix type="matrix" values="0 0 0 0 0.117647 0 0 0 0 0.129412 0 0 0 0 0.176471 0 0 0 0.08 0"/>
<feBlend mode="normal" in2="BackgroundImageFix" result="effect1_dropShadow_15089_33957"/>
<feBlend mode="normal" in="SourceGraphic" in2="effect1_dropShadow_15089_33957" result="shape"/>
</filter>
<linearGradient id="paint0_linear_15089_33957" x1="120.5" y1="51" x2="-47.9837" y2="52.6546" gradientUnits="userSpaceOnUse">
<stop stop-color="#FF7300" stop-opacity="0"/>
<stop offset="1" stop-color="#FF7300" stop-opacity="0.46"/>
</linearGradient>
<linearGradient id="paint1_linear_15089_33957" x1="492.524" y1="229.476" x2="430.105" y2="290.806" gradientUnits="userSpaceOnUse">
<stop stop-color="#EAF4FE"/>
<stop offset="1" stop-color="#EAF4FE" stop-opacity="0"/>
</linearGradient>
<linearGradient id="paint2_linear_15089_33957" x1="63.4412" y1="0.0705886" x2="97.4854" y2="76.4566" gradientUnits="userSpaceOnUse">
<stop stop-color="#EAF4FE" stop-opacity="0.65"/>
<stop offset="1" stop-color="#EAF4FE" stop-opacity="0"/>
</linearGradient>
<linearGradient id="paint3_linear_15089_33957" x1="32.6765" y1="77.3176" x2="44.6176" y2="104.441" gradientUnits="userSpaceOnUse">
<stop stop-color="#EAF4FE" stop-opacity="0.65"/>
<stop offset="1" stop-color="#EAF4FE" stop-opacity="0"/>
</linearGradient>
<linearGradient id="paint4_linear_15089_33957" x1="462.676" y1="5.31765" x2="474.618" y2="32.4412" gradientUnits="userSpaceOnUse">
<stop stop-color="#EAF4FE" stop-opacity="0.65"/>
<stop offset="1" stop-color="#EAF4FE" stop-opacity="0"/>
</linearGradient>
<linearGradient id="paint5_linear_15089_33957" x1="0.360889" y1="168.319" x2="15.7736" y2="168.319" gradientUnits="userSpaceOnUse">
<stop stop-color="#FAB882"/>
<stop offset="1" stop-color="#FF7300"/>
</linearGradient>
<linearGradient id="paint6_linear_15089_33957" x1="13.6234" y1="148.245" x2="28.0384" y2="148.245" gradientUnits="userSpaceOnUse">
<stop stop-color="#FAB882"/>
<stop offset="1" stop-color="#FF7300"/>
</linearGradient>
<linearGradient id="paint7_linear_15089_33957" x1="24.9548" y1="191.4" x2="38.5787" y2="191.4" gradientUnits="userSpaceOnUse">
<stop stop-color="#FAB882"/>
<stop offset="1" stop-color="#FF7300"/>
</linearGradient>
</defs>
</svg>
