<svg width="501" height="423" viewBox="0 0 501 423" fill="none" xmlns="http://www.w3.org/2000/svg">
<g clip-path="url(#clip0_15089_31966)">
<path fill-rule="evenodd" clip-rule="evenodd" d="M186.744 9.60886C285.728 5.98892 351.702 20.7684 386.797 124.771C424.047 235.166 391.488 291.665 304.011 357.134C229.434 412.948 148.351 325.325 74.8469 267.743C-3.07947 206.698 -2.13106 176.671 32.5014 77.3113C63.0791 -10.4157 102.899 12.6751 186.744 9.60886Z" fill="url(#paint0_linear_15089_31966)"/>
<g opacity="0.5">
<path d="M114.083 33.6316C118.168 33.6316 121.48 30.3114 121.48 26.2157C121.48 22.12 118.168 18.7998 114.083 18.7998C109.997 18.7998 106.686 22.12 106.686 26.2157C106.686 30.3114 109.997 33.6316 114.083 33.6316Z" fill="url(#paint1_linear_15089_31966)"/>
</g>
<g filter="url(#filter0_d_15089_31966)">
<path d="M68.4094 317.511C62.4082 317.511 57.5254 312.651 57.5254 306.676V53.6585C57.5254 47.6824 62.4082 42.8223 68.4094 42.8223H410.625C416.626 42.8223 421.509 47.6837 421.509 53.6585V306.675C421.509 312.65 416.626 317.51 410.625 317.51H68.4094V317.511Z" fill="white"/>
</g>
<path d="M421.509 72.0667H57.5254V55.1949C57.5254 48.3609 62.6787 42.8223 69.0344 42.8223H409.998C416.354 42.8223 421.507 48.3623 421.507 55.1949V72.0667H421.509Z" fill="#0061BF"/>
<path d="M79.1204 57.2428C79.1204 59.4388 77.3301 61.219 75.1217 61.219C72.9133 61.219 71.123 59.4388 71.123 57.2428C71.123 55.0468 72.9133 53.2666 75.1217 53.2666C77.3301 53.2666 79.1204 55.0468 79.1204 57.2428Z" fill="#FF6259"/>
<path d="M92.8294 57.2428C92.8294 59.4388 91.0391 61.219 88.8307 61.219C86.6223 61.219 84.832 59.4388 84.832 57.2428C84.832 55.0468 86.6223 53.2666 88.8307 53.2666C91.0391 53.2666 92.8294 55.0468 92.8294 57.2428Z" fill="#FFBE2F"/>
<path d="M106.538 57.2428C106.538 59.4388 104.748 61.219 102.54 61.219C100.331 61.219 98.541 59.4388 98.541 57.2428C98.541 55.0468 100.331 53.2666 102.54 53.2666C104.748 53.2666 106.538 55.0468 106.538 57.2428Z" fill="#29CD41"/>
<path d="M395.02 207.844H323.532C322.189 207.844 321.1 206.797 321.1 205.504V160.053C321.1 158.76 322.189 157.711 323.532 157.711H395.02C396.363 157.711 397.452 158.759 397.452 160.053V205.504C397.452 206.795 396.363 207.844 395.02 207.844Z" fill="#EBEFF2"/>
<path d="M393.941 273.644H321.474C320.112 273.644 319.008 272.596 319.008 271.302V225.851C319.008 224.558 320.112 223.511 321.474 223.511H393.941C395.302 223.511 396.407 224.558 396.407 225.851V271.302C396.407 272.595 395.302 273.644 393.941 273.644Z" fill="#F2F5F6"/>
<path opacity="0.2" d="M372.495 184.805H345.13C343.988 184.805 343.064 183.883 343.064 182.747C343.064 181.611 343.99 180.688 345.13 180.688H372.495C373.636 180.688 374.56 181.611 374.56 182.747C374.56 183.883 373.635 184.805 372.495 184.805Z" fill="#051F39"/>
<g opacity="0.5">
<path d="M364.665 249.254L370.208 254.811C372.019 256.627 372.019 259.573 370.208 261.388C368.397 263.204 365.458 263.204 363.647 261.388L354.775 252.494C352.963 250.677 352.963 247.733 354.775 245.917C355.751 244.939 357.053 244.488 358.33 244.563" stroke="#AAB4BE" stroke-width="2" stroke-miterlimit="10" stroke-linecap="round"/>
<path d="M351.011 247.452L345.468 241.895C343.657 240.079 343.657 237.134 345.468 235.318C347.279 233.502 350.217 233.502 352.028 235.318L360.9 244.212C362.712 246.028 362.712 248.973 360.9 250.789C359.925 251.767 358.622 252.219 357.345 252.144" stroke="#AAB4BE" stroke-width="2" stroke-miterlimit="10" stroke-linecap="round"/>
</g>
<path opacity="0.15" d="M434.06 387.489C467.564 387.489 494.724 384.917 494.724 381.744C494.724 378.572 467.564 376 434.06 376C400.557 376 373.396 378.572 373.396 381.744C373.396 384.917 400.557 387.489 434.06 387.489Z" fill="#0061BF"/>
<path d="M408.073 286.309C422.309 274.679 428.526 349.987 426.57 369.507C424.614 389.028 418.995 369.337 412.533 339.044C406.072 308.751 402.472 290.885 408.073 286.309Z" fill="#EDAC98"/>
<path d="M430.831 371.74L431.271 376.395L420.243 380.368L412.348 378.281L416.816 376.665C416.816 376.665 419.762 375.267 420.131 373.586C420.499 371.904 430.831 371.74 430.831 371.74Z" fill="#FFC6AD"/>
<path d="M431.085 373.769C431.085 373.769 423.181 381.535 416.816 376.663C416.816 376.663 407.19 378.342 407.26 381.249C407.33 384.155 413.879 383.255 413.879 383.255L431.792 382.582C431.792 382.582 432.615 378.608 431.085 373.769Z" fill="#202F87"/>
<path d="M448.807 284.272C464.692 275.002 459.025 350.353 454.032 369.329C449.039 388.305 446.577 367.981 444.944 337.054C443.313 306.126 442.558 287.92 448.807 284.272Z" fill="#EDAC98"/>
<path d="M458.086 372.569L457.543 376.502L446.306 379.841L438.543 377.309L443.097 375.949C443.097 375.949 446.118 374.721 446.581 373.063C447.045 371.407 458.086 372.569 458.086 372.569Z" fill="#FFC6AD"/>
<path d="M457.987 373.881C457.987 373.881 449.172 381.174 443.095 375.948C443.095 375.948 433.389 377.078 433.292 379.983C433.195 382.888 439.786 382.361 439.786 382.361L457.708 382.707C457.708 382.707 459.238 378.801 457.987 373.881Z" fill="#202F87"/>
<path d="M467.652 157.323C466.776 159.652 464.461 161.137 461.989 161.369C450.886 162.409 406.521 167.482 405.292 159.381C403.847 149.859 444.203 148.079 453.81 149.122C461.816 149.99 469.769 151.694 467.652 157.323Z" fill="#EDAC98"/>
<path d="M421.03 150.699L412.445 150.74L401.602 131.474L391.939 134.196C391.939 134.196 400.077 159.256 403.983 162.986C407.889 166.716 425.628 162.175 425.547 161.932C425.464 161.688 421.03 150.699 421.03 150.699Z" fill="#FFC6AD"/>
<path d="M406.161 160.967C403.778 160.643 401.842 158.883 400.893 156.681C396.455 146.381 380.926 109.545 384.266 106.024C388.152 101.924 413.134 154.277 411.561 156.829C410.38 158.743 409.417 161.411 406.161 160.967Z" fill="#FFC6AD"/>
<path d="M390.523 109.053L391.055 108.486L391.067 108.483L391.064 108.471L390.733 105.392C390.642 104.602 390.369 103.849 389.921 103.196L387.294 100.86C387.294 100.86 386.21 100.91 387.319 102.572C387.608 103.006 387.633 103.838 387.617 104.517L386.31 103.031L382.839 99.6329C381.957 98.7551 380.166 98.3833 379.079 99.3835C379.079 99.3835 377.673 100.908 378.568 103.076L379.552 106.198C380.346 107.724 380.674 109.052 382.001 110.151L385.867 112.832L390.523 109.053Z" fill="#EDAC98"/>
<path d="M421.056 150.23C420.836 150.243 420.665 150.421 420.666 150.64C420.678 153.312 420.756 168.896 420.868 169.229C420.99 169.594 437.834 170.69 437.834 170.69L434.782 149.442L421.056 150.23Z" fill="url(#paint2_linear_15089_31966)"/>
<path fill-rule="evenodd" clip-rule="evenodd" d="M404.636 92.9561H333.555C332.36 92.9561 331.383 93.9314 331.383 95.1247V132.759C331.383 133.952 332.36 134.929 333.555 134.929H404.636C405.831 134.929 406.808 133.952 406.808 132.759V95.1247C406.808 93.9314 405.831 92.9561 404.636 92.9561Z" fill="#FFF1EA"/>
<path d="M344.993 126.917C344.533 126.917 344.16 126.544 344.16 126.086C344.16 117.546 345.529 112.924 348.122 112.717C350.195 112.542 351.747 115.293 352.198 118.087C352.776 121.679 353.39 123.321 353.744 123.873C353.877 123.661 354.086 123.244 354.339 122.437C355.524 118.649 356.527 117.044 357.799 116.901C359.075 116.757 359.848 118.072 360.59 119.345C360.909 119.89 361.501 120.905 361.799 120.987C361.794 120.98 362.088 120.857 362.586 119.901C362.702 119.637 363.05 118.08 363.387 116.573C365.644 106.46 367.201 101.312 369.424 101.312C369.435 101.312 369.446 101.312 369.455 101.312C370.853 101.343 371.732 103.099 372.49 107.374C374.181 116.91 375.389 117.741 375.612 117.811C375.977 117.724 376.77 116.266 377.15 115.565C377.969 114.058 378.669 112.753 379.837 112.877C380.877 112.984 381.373 114.187 381.724 115.35C381.75 115.439 381.813 115.802 381.897 116.345C382.708 121.577 383.329 123.378 383.706 123.971C383.879 123.683 384.173 123.048 384.528 121.693C385.236 118.994 386.875 114.469 389.51 114.55C391.567 114.607 393.109 117.284 394.223 122.738C394.316 123.189 394.026 123.627 393.573 123.72C393.121 123.814 392.683 123.522 392.592 123.071C391.238 116.452 389.642 116.218 389.464 116.213C389.459 116.213 389.454 116.213 389.45 116.213C388.737 116.213 387.279 117.777 386.14 122.116C385.625 124.077 384.94 125.881 383.649 125.811C382.164 125.736 381.305 123.411 380.249 116.6C380.186 116.191 380.144 115.906 380.12 115.804C379.927 115.163 379.764 114.827 379.659 114.653C379.354 115 378.904 115.828 378.615 116.359C377.725 117.997 376.803 119.693 375.34 119.452C373.857 119.211 372.525 117.115 370.849 107.664C370.206 104.036 369.587 103.186 369.402 103.005C367.926 103.885 365.74 113.68 365.013 116.935C364.448 119.466 364.25 120.314 364.063 120.67C363.628 121.508 362.92 122.623 361.823 122.649C361.808 122.649 361.795 122.651 361.782 122.651C360.591 122.651 359.86 121.396 359.15 120.182C358.835 119.643 358.247 118.637 357.955 118.553C357.917 118.577 357.191 118.901 355.929 122.933C355.513 124.264 354.901 125.792 353.657 125.691C353.025 125.647 351.713 125.552 350.552 118.351C350.149 115.845 348.943 114.307 348.255 114.376C347.414 114.442 345.825 116.977 345.825 126.085C345.825 126.544 345.452 126.917 344.993 126.917Z" fill="#FF7300"/>
<path d="M438.529 162.253C438.337 164.732 436.528 166.799 434.219 167.707C423.843 171.78 382.64 188.94 379.2 181.498C375.157 172.751 413.428 159.866 422.947 158.207C430.879 156.825 438.993 156.259 438.529 162.253Z" fill="#EDAC98"/>
<path d="M432.627 150.249V143.114C432.627 143.114 426.025 142.65 424.631 137.091C423.236 131.53 423.05 117.999 426.49 113.274C429.931 108.547 451.132 109.659 452.527 123.839C453.922 138.018 451.225 154.607 451.225 154.607L432.627 150.249Z" fill="#FFC6AD"/>
<path d="M382.15 181.974C379.747 182.069 377.532 180.673 376.211 178.671C370.036 169.302 348.29 135.736 350.96 131.686C354.069 126.973 387.842 174.171 386.74 176.959C385.915 179.048 385.433 181.843 382.15 181.974Z" fill="#EDAC98"/>
<path d="M397.634 165.012L385.835 169.797L357.584 135.97L352.396 140.315C352.396 140.315 376.356 183.339 381.848 185.043C387.34 186.746 403.534 180.177 403.534 180.177L397.634 165.012Z" fill="#FFC6AD"/>
<path d="M357.054 136.538L357.587 135.971L357.598 135.967L357.595 135.955L357.264 132.876C357.173 132.086 356.901 131.333 356.452 130.68L353.825 128.345C353.825 128.345 352.741 128.394 353.85 130.057C354.139 130.491 354.164 131.323 354.148 132.002L352.841 130.516L349.37 127.117C348.488 126.24 346.697 125.868 345.61 126.868C345.61 126.868 344.204 128.393 345.099 130.56L346.083 133.682C346.877 135.208 347.205 136.537 348.532 137.636L352.399 140.316L357.054 136.538Z" fill="#FFC6AD"/>
<path d="M410.529 290.611C415.688 291.891 424.831 273.081 430.95 248.596C437.069 224.112 437.847 203.225 432.688 201.944C427.528 200.663 418.385 219.474 412.266 243.958C406.147 268.443 405.369 289.33 410.529 290.611Z" fill="#EDAC98"/>
<path d="M451.301 294.659C456.618 294.666 460.955 274.217 460.987 248.986C461.02 223.754 456.737 203.295 451.42 203.288C446.103 203.281 441.766 223.73 441.733 248.961C441.7 274.193 445.984 294.652 451.301 294.659Z" fill="#EDAC98"/>
<path d="M400.3 284.313C400.688 307.304 420.235 373.654 420.235 373.654L431.077 372.078C431.077 372.078 429.163 316.534 420.235 286.883L436.872 254.537L437.357 260.41L446.577 373.059H458.083C458.083 373.059 463.158 320.251 460.925 289.854C460.925 289.854 467.677 233.688 461.923 215.961C456.003 197.751 417.657 216.514 417.657 216.514C417.657 216.514 400.037 268.12 400.3 284.313Z" fill="#3A67B3"/>
<path d="M415.439 175.201C415.439 176.984 415.467 178.863 415.509 180.783C415.898 196.991 417.658 216.514 417.658 216.514C417.658 216.514 446.036 212.674 462.95 219.168C462.95 219.168 465.64 164.618 463.034 155.347C461.274 149.074 449.558 147.554 442.169 147.236C436.472 146.974 430.774 148.218 425.824 151.022C421.319 153.565 416.855 157.612 415.981 163.871C415.592 166.689 415.439 170.683 415.439 175.201Z" fill="url(#paint3_linear_15089_31966)"/>
<path d="M415.439 175.201C415.439 176.983 415.467 178.862 415.509 180.783C418.184 178.766 422.677 175.118 422.677 175.118L415.439 175.201Z" fill="#EA7515"/>
<path d="M440.8 169C436.841 166.042 433.666 161.762 431.658 157.616C429.027 152.185 428.933 145.928 431.381 140.414C432.952 136.877 437.08 134.169 435.417 129.86C434.487 127.45 429.652 128.841 427.699 125.69C425.746 122.539 423.933 120.87 424.072 117.348C424.211 113.827 426.21 107.154 439.229 108.776C452.248 110.398 457.022 117.719 458.695 126.616C459.218 129.396 460.685 132.285 462.397 135.226C462.968 136.206 463.566 137.192 464.165 138.182C467.818 144.217 471.922 150.997 470.277 158.378C467.534 170.697 450.83 176.495 440.8 169Z" fill="#202F87"/>
<path d="M429.746 149.168C429.746 149.168 418.403 154.945 397.324 164.501C397.042 164.629 396.895 164.951 396.993 165.244L402.322 181.285C402.519 181.878 403.168 182.191 403.756 181.978L422.678 175.117L429.746 149.168Z" fill="url(#paint4_linear_15089_31966)"/>
<path d="M436.873 254.537L437.358 260.41L448.173 236.599L436.873 254.537Z" fill="#255098"/>
<rect x="109" y="260" width="185" height="10" rx="5" fill="#EBEFF2"/>
<rect x="109" y="279.777" width="135" height="5" rx="2.5" fill="#EBEFF2"/>
<rect x="76.0864" y="261.086" width="21.7279" height="21.7279" rx="2.17279" stroke="#EBEFF2" stroke-width="2.17279"/>
<path d="M301.97 186.444H77.0889C75.9352 186.444 75 187.38 75 188.533C75 189.687 75.9352 190.622 77.0889 190.622H301.97C303.123 190.622 304.058 189.687 304.058 188.533C304.058 187.38 303.123 186.444 301.97 186.444Z" fill="#EBEFF2"/>
<path d="M267.454 198.978H77.0889C75.9352 198.978 75 199.913 75 201.066C75 202.22 75.9352 203.155 77.0889 203.155H267.454C268.608 203.155 269.543 202.22 269.543 201.066C269.543 199.913 268.608 198.978 267.454 198.978Z" fill="#EBEFF2"/>
<path d="M301.97 210.467H77.0889C75.9352 210.467 75 211.402 75 212.556C75 213.709 75.9352 214.645 77.0889 214.645H301.97C303.123 214.645 304.058 213.709 304.058 212.556C304.058 211.402 303.123 210.467 301.97 210.467Z" fill="#EBEFF2"/>
<path d="M276.867 223H77.0889C75.9352 223 75 223.935 75 225.089C75 226.243 75.9352 227.178 77.0889 227.178H276.867C278.021 227.178 278.956 226.243 278.956 225.089C278.956 223.935 278.021 223 276.867 223Z" fill="#EBEFF2"/>
<path d="M301.97 235.533H77.0889C75.9352 235.533 75 236.468 75 237.622C75 238.776 75.9352 239.711 77.0889 239.711H301.97C303.123 239.711 304.058 238.776 304.058 237.622C304.058 236.468 303.123 235.533 301.97 235.533Z" fill="#EBEFF2"/>
<rect x="154" y="111" width="140" height="10" rx="5" fill="#EBEFF2"/>
<rect x="154" y="132" width="140" height="5" rx="2.5" fill="#EBEFF2"/>
<rect x="154" y="148" width="140" height="5" rx="2.5" fill="#EBEFF2"/>
<rect x="154" y="164" width="140" height="7" rx="3.5" fill="#EBEFF2"/>
<rect x="75" y="111" width="67" height="60" rx="4" fill="#F2F5F6"/>
<mask id="path-53-inside-1_15089_31966" fill="white">
<path d="M109.458 143.521H107.167C106.791 143.521 106.479 143.209 106.479 142.833C106.479 142.457 106.791 142.146 107.167 142.146H109.458C111.86 142.146 113.813 140.193 113.813 137.792C113.813 135.39 111.86 133.438 109.458 133.438H104.875C102.473 133.438 100.521 135.39 100.521 137.792C100.521 138.8 100.878 139.781 101.52 140.56C101.758 140.853 101.722 141.284 101.428 141.532C101.135 141.77 100.704 141.733 100.457 141.44C99.6042 140.413 99.1367 139.121 99.1367 137.792C99.1367 134.629 101.703 132.062 104.866 132.062H109.449C112.612 132.062 115.178 134.629 115.178 137.792C115.178 140.954 112.621 143.521 109.458 143.521Z"/>
</mask>
<path d="M109.458 143.521H107.167C106.791 143.521 106.479 143.209 106.479 142.833C106.479 142.457 106.791 142.146 107.167 142.146H109.458C111.86 142.146 113.813 140.193 113.813 137.792C113.813 135.39 111.86 133.438 109.458 133.438H104.875C102.473 133.438 100.521 135.39 100.521 137.792C100.521 138.8 100.878 139.781 101.52 140.56C101.758 140.853 101.722 141.284 101.428 141.532C101.135 141.77 100.704 141.733 100.457 141.44C99.6042 140.413 99.1367 139.121 99.1367 137.792C99.1367 134.629 101.703 132.062 104.866 132.062H109.449C112.612 132.062 115.178 134.629 115.178 137.792C115.178 140.954 112.621 143.521 109.458 143.521Z" fill="#292D32"/>
<path d="M101.52 140.56L103.072 139.299L103.064 139.289L101.52 140.56ZM101.428 141.532L102.69 143.084L102.704 143.072L102.718 143.06L101.428 141.532ZM100.457 141.44L98.918 142.718L98.9231 142.724L98.9281 142.73L100.457 141.44ZM109.458 141.521H107.167V145.521H109.458V141.521ZM107.167 141.521C107.895 141.521 108.479 142.105 108.479 142.833H104.479C104.479 144.314 105.686 145.521 107.167 145.521V141.521ZM108.479 142.833C108.479 143.562 107.895 144.146 107.167 144.146V140.146C105.686 140.146 104.479 141.353 104.479 142.833H108.479ZM107.167 144.146H109.458V140.146H107.167V144.146ZM109.458 144.146C112.965 144.146 115.813 141.298 115.813 137.792H111.813C111.813 139.089 110.755 140.146 109.458 140.146V144.146ZM115.813 137.792C115.813 134.285 112.965 131.437 109.458 131.437V135.438C110.755 135.438 111.813 136.495 111.813 137.792H115.813ZM109.458 131.437H104.875V135.438H109.458V131.437ZM104.875 131.437C101.369 131.437 98.5209 134.285 98.5209 137.792H102.521C102.521 136.495 103.578 135.438 104.875 135.438V131.437ZM98.5209 137.792C98.5209 139.272 99.0446 140.7 99.9762 141.831L103.064 139.289C102.712 138.861 102.521 138.328 102.521 137.792H98.5209ZM99.9678 141.821C99.5248 141.276 99.5915 140.465 100.139 140.003L102.718 143.06C103.852 142.104 103.992 140.431 103.072 139.299L99.9678 141.821ZM100.167 139.979C100.712 139.536 101.524 139.603 101.985 140.15L98.9281 142.73C99.8849 143.864 101.558 144.004 102.69 143.084L100.167 139.979ZM101.995 140.162C101.44 139.493 101.137 138.652 101.137 137.792H97.1367C97.1367 139.589 97.7686 141.333 98.918 142.718L101.995 140.162ZM101.137 137.792C101.137 135.734 102.808 134.062 104.866 134.062V130.062C100.599 130.062 97.1367 133.525 97.1367 137.792H101.137ZM104.866 134.062H109.449V130.062H104.866V134.062ZM109.449 134.062C111.507 134.062 113.178 135.734 113.178 137.792H117.178C117.178 133.525 113.716 130.062 109.449 130.062V134.062ZM113.178 137.792C113.178 139.854 111.512 141.521 109.458 141.521V145.521C113.73 145.521 117.178 142.055 117.178 137.792H113.178Z" fill="#FF7300" mask="url(#path-53-inside-1_15089_31966)"/>
<path d="M118.479 144.208C118.479 142.964 118.039 141.76 117.253 140.806L117.543 140.56L117.017 140.997L118.479 144.208ZM117.021 141.001L117.029 140.994L117.256 140.81C117.358 140.936 117.343 141.126 117.217 141.233C117.069 141.358 116.872 141.315 116.779 141.205L117.021 141.001Z" fill="#292D32" stroke="#0061BF" stroke-width="2"/>
<path d="M73.568 93.012L71.3 84.6H72.668L74.336 91.56L76.256 84.6H77.66L79.52 91.56L81.188 84.6H82.556L80.252 93H78.764L76.928 86.412L75.032 93L73.568 93.012ZM83.6751 93V84.36H84.9471V88.008C85.1471 87.664 85.4231 87.396 85.7751 87.204C86.1351 87.004 86.5311 86.904 86.9631 86.904C87.6751 86.904 88.2351 87.128 88.6431 87.576C89.0511 88.024 89.2551 88.692 89.2551 89.58V93H87.9951V89.712C87.9951 88.56 87.5351 87.984 86.6151 87.984C86.1351 87.984 85.7351 88.152 85.4151 88.488C85.1031 88.824 84.9471 89.304 84.9471 89.928V93H83.6751ZM92.7692 93.144C92.2652 93.144 91.8492 93.06 91.5212 92.892C91.1932 92.724 90.9492 92.504 90.7892 92.232C90.6292 91.952 90.5492 91.648 90.5492 91.32C90.5492 90.744 90.7732 90.288 91.2212 89.952C91.6692 89.616 92.3092 89.448 93.1412 89.448H94.7012V89.34C94.7012 88.876 94.5732 88.528 94.3172 88.296C94.0692 88.064 93.7452 87.948 93.3452 87.948C92.9932 87.948 92.6852 88.036 92.4212 88.212C92.1652 88.38 92.0092 88.632 91.9532 88.968H90.6812C90.7212 88.536 90.8652 88.168 91.1132 87.864C91.3692 87.552 91.6892 87.316 92.0732 87.156C92.4652 86.988 92.8932 86.904 93.3572 86.904C94.1892 86.904 94.8332 87.124 95.2892 87.564C95.7452 87.996 95.9732 88.588 95.9732 89.34V93H94.8692L94.7612 91.98C94.5932 92.308 94.3492 92.584 94.0292 92.808C93.7092 93.032 93.2892 93.144 92.7692 93.144ZM93.0212 92.112C93.3652 92.112 93.6532 92.032 93.8852 91.872C94.1252 91.704 94.3092 91.484 94.4372 91.212C94.5732 90.94 94.6572 90.64 94.6892 90.312H93.2732C92.7692 90.312 92.4092 90.4 92.1932 90.576C91.9852 90.752 91.8812 90.972 91.8812 91.236C91.8812 91.508 91.9812 91.724 92.1812 91.884C92.3892 92.036 92.6692 92.112 93.0212 92.112ZM99.8352 93C99.2512 93 98.7872 92.86 98.4432 92.58C98.0992 92.292 97.9272 91.784 97.9272 91.056V88.116H96.9072V87.048H97.9272L98.0832 85.536H99.1992V87.048H100.879V88.116H99.1992V91.056C99.1992 91.384 99.2672 91.612 99.4032 91.74C99.5472 91.86 99.7912 91.92 100.135 91.92H100.819V93H99.8352ZM105.934 85.92C105.694 85.92 105.494 85.848 105.334 85.704C105.182 85.552 105.106 85.364 105.106 85.14C105.106 84.916 105.182 84.732 105.334 84.588C105.494 84.436 105.694 84.36 105.934 84.36C106.174 84.36 106.37 84.436 106.522 84.588C106.682 84.732 106.762 84.916 106.762 85.14C106.762 85.364 106.682 85.552 106.522 85.704C106.37 85.848 106.174 85.92 105.934 85.92ZM105.298 93V87.048H106.57V93H105.298ZM110.625 93.144C109.873 93.144 109.253 92.96 108.765 92.592C108.277 92.224 107.997 91.736 107.925 91.128H109.209C109.273 91.4 109.425 91.636 109.665 91.836C109.905 92.028 110.221 92.124 110.613 92.124C110.997 92.124 111.277 92.044 111.453 91.884C111.629 91.724 111.717 91.54 111.717 91.332C111.717 91.028 111.593 90.824 111.345 90.72C111.105 90.608 110.769 90.508 110.337 90.42C110.001 90.348 109.665 90.252 109.329 90.132C109.001 90.012 108.725 89.844 108.501 89.628C108.285 89.404 108.177 89.104 108.177 88.728C108.177 88.208 108.377 87.776 108.777 87.432C109.177 87.08 109.737 86.904 110.457 86.904C111.121 86.904 111.657 87.064 112.065 87.384C112.481 87.704 112.725 88.156 112.797 88.74H111.573C111.533 88.484 111.413 88.284 111.213 88.14C111.021 87.996 110.761 87.924 110.433 87.924C110.113 87.924 109.865 87.992 109.689 88.128C109.513 88.256 109.425 88.424 109.425 88.632C109.425 88.84 109.545 89.004 109.785 89.124C110.033 89.244 110.357 89.352 110.757 89.448C111.157 89.536 111.525 89.64 111.861 89.76C112.205 89.872 112.481 90.04 112.689 90.264C112.897 90.488 113.001 90.816 113.001 91.248C113.009 91.792 112.797 92.244 112.365 92.604C111.941 92.964 111.361 93.144 110.625 93.144ZM117.461 93V84.6H118.733L122.945 90.924V84.6H124.217V93H122.945L118.733 86.676V93H117.461ZM126.594 85.92C126.354 85.92 126.154 85.848 125.994 85.704C125.842 85.552 125.766 85.364 125.766 85.14C125.766 84.916 125.842 84.732 125.994 84.588C126.154 84.436 126.354 84.36 126.594 84.36C126.834 84.36 127.03 84.436 127.182 84.588C127.342 84.732 127.422 84.916 127.422 85.14C127.422 85.364 127.342 85.552 127.182 85.704C127.03 85.848 126.834 85.92 126.594 85.92ZM125.958 93V87.048H127.23V93H125.958ZM131.729 93.144C131.145 93.144 130.621 93.012 130.157 92.748C129.701 92.484 129.341 92.12 129.077 91.656C128.821 91.184 128.693 90.64 128.693 90.024C128.693 89.408 128.821 88.868 129.077 88.404C129.341 87.932 129.701 87.564 130.157 87.3C130.621 87.036 131.145 86.904 131.729 86.904C132.465 86.904 133.081 87.096 133.577 87.48C134.081 87.864 134.405 88.384 134.549 89.04H133.217C133.137 88.712 132.961 88.456 132.689 88.272C132.417 88.088 132.097 87.996 131.729 87.996C131.417 87.996 131.129 88.076 130.865 88.236C130.601 88.388 130.389 88.616 130.229 88.92C130.069 89.216 129.989 89.584 129.989 90.024C129.989 90.464 130.069 90.836 130.229 91.14C130.389 91.436 130.601 91.664 130.865 91.824C131.129 91.984 131.417 92.064 131.729 92.064C132.097 92.064 132.417 91.972 132.689 91.788C132.961 91.604 133.137 91.344 133.217 91.008H134.549C134.413 91.648 134.093 92.164 133.589 92.556C133.085 92.948 132.465 93.144 131.729 93.144ZM135.929 93V84.36H137.201V88.008C137.401 87.664 137.677 87.396 138.029 87.204C138.389 87.004 138.785 86.904 139.217 86.904C139.929 86.904 140.489 87.128 140.897 87.576C141.305 88.024 141.509 88.692 141.509 89.58V93H140.249V89.712C140.249 88.56 139.789 87.984 138.869 87.984C138.389 87.984 137.989 88.152 137.669 88.488C137.357 88.824 137.201 89.304 137.201 89.928V93H135.929ZM145.791 93.144C145.207 93.144 144.687 93.016 144.231 92.76C143.783 92.496 143.431 92.132 143.175 91.668C142.919 91.204 142.791 90.664 142.791 90.048C142.791 89.424 142.915 88.876 143.163 88.404C143.419 87.932 143.771 87.564 144.219 87.3C144.675 87.036 145.203 86.904 145.803 86.904C146.387 86.904 146.895 87.036 147.327 87.3C147.759 87.556 148.095 87.9 148.335 88.332C148.575 88.764 148.695 89.24 148.695 89.76C148.695 89.84 148.691 89.928 148.683 90.024C148.683 90.112 148.679 90.212 148.671 90.324H144.039C144.079 90.9 144.267 91.34 144.603 91.644C144.947 91.94 145.343 92.088 145.791 92.088C146.151 92.088 146.451 92.008 146.691 91.848C146.939 91.68 147.123 91.456 147.243 91.176H148.515C148.355 91.736 148.035 92.204 147.555 92.58C147.083 92.956 146.495 93.144 145.791 93.144ZM145.791 87.948C145.367 87.948 144.991 88.076 144.663 88.332C144.335 88.58 144.135 88.956 144.063 89.46H147.423C147.399 88.996 147.235 88.628 146.931 88.356C146.627 88.084 146.247 87.948 145.791 87.948ZM153.086 93V84.6H158.426V85.632H154.358V88.248H158.066V89.256H154.358V91.968H158.426V93H153.086ZM162.606 93.144C162.03 93.144 161.522 93.008 161.082 92.736C160.642 92.464 160.298 92.092 160.05 91.62C159.802 91.148 159.678 90.612 159.678 90.012C159.678 89.412 159.802 88.88 160.05 88.416C160.298 87.944 160.642 87.576 161.082 87.312C161.53 87.04 162.042 86.904 162.618 86.904C163.09 86.904 163.502 86.996 163.854 87.18C164.214 87.364 164.494 87.624 164.694 87.96V84.36H165.966V93H164.826L164.694 92.076C164.502 92.356 164.238 92.604 163.902 92.82C163.566 93.036 163.134 93.144 162.606 93.144ZM162.834 92.04C163.378 92.04 163.822 91.852 164.166 91.476C164.518 91.1 164.694 90.616 164.694 90.024C164.694 89.424 164.518 88.94 164.166 88.572C163.822 88.196 163.378 88.008 162.834 88.008C162.29 88.008 161.842 88.196 161.49 88.572C161.138 88.94 160.962 89.424 160.962 90.024C160.962 90.416 161.042 90.764 161.202 91.068C161.362 91.372 161.582 91.612 161.862 91.788C162.15 91.956 162.474 92.04 162.834 92.04ZM168.29 85.92C168.05 85.92 167.85 85.848 167.69 85.704C167.538 85.552 167.462 85.364 167.462 85.14C167.462 84.916 167.538 84.732 167.69 84.588C167.85 84.436 168.05 84.36 168.29 84.36C168.53 84.36 168.726 84.436 168.878 84.588C169.038 84.732 169.118 84.916 169.118 85.14C169.118 85.364 169.038 85.552 168.878 85.704C168.726 85.848 168.53 85.92 168.29 85.92ZM167.654 93V87.048H168.926V93H167.654ZM173.101 93C172.517 93 172.053 92.86 171.709 92.58C171.365 92.292 171.193 91.784 171.193 91.056V88.116H170.173V87.048H171.193L171.349 85.536H172.465V87.048H174.145V88.116H172.465V91.056C172.465 91.384 172.533 91.612 172.669 91.74C172.813 91.86 173.057 91.92 173.401 91.92H174.085V93H173.101ZM177.832 93.144C177.08 93.144 176.46 92.96 175.972 92.592C175.484 92.224 175.204 91.736 175.132 91.128H176.416C176.48 91.4 176.632 91.636 176.872 91.836C177.112 92.028 177.428 92.124 177.82 92.124C178.204 92.124 178.484 92.044 178.66 91.884C178.836 91.724 178.924 91.54 178.924 91.332C178.924 91.028 178.8 90.824 178.552 90.72C178.312 90.608 177.976 90.508 177.544 90.42C177.208 90.348 176.872 90.252 176.536 90.132C176.208 90.012 175.932 89.844 175.708 89.628C175.492 89.404 175.384 89.104 175.384 88.728C175.384 88.208 175.584 87.776 175.984 87.432C176.384 87.08 176.944 86.904 177.664 86.904C178.328 86.904 178.864 87.064 179.272 87.384C179.688 87.704 179.932 88.156 180.004 88.74H178.78C178.74 88.484 178.62 88.284 178.42 88.14C178.228 87.996 177.968 87.924 177.64 87.924C177.32 87.924 177.072 87.992 176.896 88.128C176.72 88.256 176.632 88.424 176.632 88.632C176.632 88.84 176.752 89.004 176.992 89.124C177.24 89.244 177.564 89.352 177.964 89.448C178.364 89.536 178.732 89.64 179.068 89.76C179.412 89.872 179.688 90.04 179.896 90.264C180.104 90.488 180.208 90.816 180.208 91.248C180.216 91.792 180.004 92.244 179.572 92.604C179.148 92.964 178.568 93.144 177.832 93.144ZM187.44 93.144C186.824 93.144 186.284 93.036 185.82 92.82C185.356 92.604 184.992 92.296 184.728 91.896C184.472 91.496 184.34 91.02 184.332 90.468H185.676C185.684 90.916 185.84 91.296 186.144 91.608C186.448 91.92 186.876 92.076 187.428 92.076C187.916 92.076 188.296 91.96 188.568 91.728C188.848 91.488 188.988 91.184 188.988 90.816C188.988 90.52 188.92 90.28 188.784 90.096C188.656 89.912 188.476 89.76 188.244 89.64C188.02 89.52 187.76 89.412 187.464 89.316C187.168 89.22 186.856 89.116 186.528 89.004C185.88 88.788 185.392 88.508 185.064 88.164C184.744 87.82 184.584 87.368 184.584 86.808C184.576 86.336 184.684 85.924 184.908 85.572C185.14 85.22 185.46 84.948 185.868 84.756C186.284 84.556 186.768 84.456 187.32 84.456C187.864 84.456 188.34 84.556 188.748 84.756C189.164 84.956 189.488 85.236 189.72 85.596C189.952 85.948 190.072 86.36 190.08 86.832H188.736C188.736 86.616 188.68 86.412 188.568 86.22C188.456 86.02 188.292 85.856 188.076 85.728C187.86 85.6 187.596 85.536 187.284 85.536C186.884 85.528 186.552 85.628 186.288 85.836C186.032 86.044 185.904 86.332 185.904 86.7C185.904 87.028 186 87.28 186.192 87.456C186.384 87.632 186.648 87.78 186.984 87.9C187.32 88.012 187.704 88.144 188.136 88.296C188.552 88.432 188.924 88.596 189.252 88.788C189.58 88.98 189.84 89.232 190.032 89.544C190.232 89.856 190.332 90.252 190.332 90.732C190.332 91.156 190.224 91.552 190.008 91.92C189.792 92.28 189.468 92.576 189.036 92.808C188.604 93.032 188.072 93.144 187.44 93.144ZM194.459 93.144C193.875 93.144 193.355 93.016 192.899 92.76C192.451 92.496 192.099 92.132 191.843 91.668C191.587 91.204 191.459 90.664 191.459 90.048C191.459 89.424 191.583 88.876 191.831 88.404C192.087 87.932 192.439 87.564 192.887 87.3C193.343 87.036 193.871 86.904 194.471 86.904C195.055 86.904 195.563 87.036 195.995 87.3C196.427 87.556 196.763 87.9 197.003 88.332C197.243 88.764 197.363 89.24 197.363 89.76C197.363 89.84 197.359 89.928 197.351 90.024C197.351 90.112 197.347 90.212 197.339 90.324H192.707C192.747 90.9 192.935 91.34 193.271 91.644C193.615 91.94 194.011 92.088 194.459 92.088C194.819 92.088 195.119 92.008 195.359 91.848C195.607 91.68 195.791 91.456 195.911 91.176H197.183C197.023 91.736 196.703 92.204 196.223 92.58C195.751 92.956 195.163 93.144 194.459 93.144ZM194.459 87.948C194.035 87.948 193.659 88.076 193.331 88.332C193.003 88.58 192.803 88.956 192.731 89.46H196.091C196.067 88.996 195.903 88.628 195.599 88.356C195.295 88.084 194.915 87.948 194.459 87.948ZM198.683 93V87.048H199.823L199.931 88.176C200.139 87.784 200.427 87.476 200.795 87.252C201.171 87.02 201.623 86.904 202.151 86.904V88.236H201.803C201.451 88.236 201.135 88.296 200.855 88.416C200.583 88.528 200.363 88.724 200.195 89.004C200.035 89.276 199.955 89.656 199.955 90.144V93H198.683ZM204.91 93L202.678 87.048H204.01L205.666 91.788L207.322 87.048H208.642L206.422 93H204.91ZM210.407 85.92C210.167 85.92 209.967 85.848 209.807 85.704C209.655 85.552 209.579 85.364 209.579 85.14C209.579 84.916 209.655 84.732 209.807 84.588C209.967 84.436 210.167 84.36 210.407 84.36C210.647 84.36 210.843 84.436 210.995 84.588C211.155 84.732 211.235 84.916 211.235 85.14C211.235 85.364 211.155 85.552 210.995 85.704C210.843 85.848 210.647 85.92 210.407 85.92ZM209.771 93V87.048H211.043V93H209.771ZM215.542 93.144C214.958 93.144 214.434 93.012 213.97 92.748C213.514 92.484 213.154 92.12 212.89 91.656C212.634 91.184 212.506 90.64 212.506 90.024C212.506 89.408 212.634 88.868 212.89 88.404C213.154 87.932 213.514 87.564 213.97 87.3C214.434 87.036 214.958 86.904 215.542 86.904C216.278 86.904 216.894 87.096 217.39 87.48C217.894 87.864 218.218 88.384 218.362 89.04H217.03C216.95 88.712 216.774 88.456 216.502 88.272C216.23 88.088 215.91 87.996 215.542 87.996C215.23 87.996 214.942 88.076 214.678 88.236C214.414 88.388 214.202 88.616 214.042 88.92C213.882 89.216 213.802 89.584 213.802 90.024C213.802 90.464 213.882 90.836 214.042 91.14C214.202 91.436 214.414 91.664 214.678 91.824C214.942 91.984 215.23 92.064 215.542 92.064C215.91 92.064 216.23 91.972 216.502 91.788C216.774 91.604 216.95 91.344 217.03 91.008H218.362C218.226 91.648 217.906 92.164 217.402 92.556C216.898 92.948 216.278 93.144 215.542 93.144ZM222.526 93.144C221.942 93.144 221.422 93.016 220.966 92.76C220.518 92.496 220.166 92.132 219.91 91.668C219.654 91.204 219.526 90.664 219.526 90.048C219.526 89.424 219.65 88.876 219.898 88.404C220.154 87.932 220.506 87.564 220.954 87.3C221.41 87.036 221.938 86.904 222.538 86.904C223.122 86.904 223.63 87.036 224.062 87.3C224.494 87.556 224.83 87.9 225.07 88.332C225.31 88.764 225.43 89.24 225.43 89.76C225.43 89.84 225.426 89.928 225.418 90.024C225.418 90.112 225.414 90.212 225.406 90.324H220.774C220.814 90.9 221.002 91.34 221.338 91.644C221.682 91.94 222.078 92.088 222.526 92.088C222.886 92.088 223.186 92.008 223.426 91.848C223.674 91.68 223.858 91.456 223.978 91.176H225.25C225.09 91.736 224.77 92.204 224.29 92.58C223.818 92.956 223.23 93.144 222.526 93.144ZM222.526 87.948C222.102 87.948 221.726 88.076 221.398 88.332C221.07 88.58 220.87 88.956 220.798 89.46H224.158C224.134 88.996 223.97 88.628 223.666 88.356C223.362 88.084 222.982 87.948 222.526 87.948ZM227.253 93.072C227.013 93.072 226.813 92.996 226.653 92.844C226.501 92.684 226.425 92.496 226.425 92.28C226.425 92.056 226.501 91.868 226.653 91.716C226.813 91.556 227.013 91.476 227.253 91.476C227.493 91.476 227.689 91.556 227.841 91.716C227.993 91.868 228.069 92.056 228.069 92.28C228.069 92.496 227.993 92.684 227.841 92.844C227.689 92.996 227.493 93.072 227.253 93.072ZM229.855 93.072C229.615 93.072 229.415 92.996 229.255 92.844C229.103 92.684 229.027 92.496 229.027 92.28C229.027 92.056 229.103 91.868 229.255 91.716C229.415 91.556 229.615 91.476 229.855 91.476C230.095 91.476 230.291 91.556 230.443 91.716C230.595 91.868 230.671 92.056 230.671 92.28C230.671 92.496 230.595 92.684 230.443 92.844C230.291 92.996 230.095 93.072 229.855 93.072ZM232.456 93.072C232.216 93.072 232.016 92.996 231.856 92.844C231.704 92.684 231.628 92.496 231.628 92.28C231.628 92.056 231.704 91.868 231.856 91.716C232.016 91.556 232.216 91.476 232.456 91.476C232.696 91.476 232.892 91.556 233.044 91.716C233.196 91.868 233.272 92.056 233.272 92.28C233.272 92.496 233.196 92.684 233.044 92.844C232.892 92.996 232.696 93.072 232.456 93.072ZM235.058 93.072C234.818 93.072 234.618 92.996 234.458 92.844C234.306 92.684 234.23 92.496 234.23 92.28C234.23 92.056 234.306 91.868 234.458 91.716C234.618 91.556 234.818 91.476 235.058 91.476C235.298 91.476 235.494 91.556 235.646 91.716C235.798 91.868 235.874 92.056 235.874 92.28C235.874 92.496 235.798 92.684 235.646 92.844C235.494 92.996 235.298 93.072 235.058 93.072ZM237.66 93.072C237.42 93.072 237.22 92.996 237.06 92.844C236.908 92.684 236.832 92.496 236.832 92.28C236.832 92.056 236.908 91.868 237.06 91.716C237.22 91.556 237.42 91.476 237.66 91.476C237.9 91.476 238.096 91.556 238.248 91.716C238.4 91.868 238.476 92.056 238.476 92.28C238.476 92.496 238.4 92.684 238.248 92.844C238.096 92.996 237.9 93.072 237.66 93.072Z" fill="#AAB4BE"/>
<path opacity="0.2" d="M44.1194 87.8125H45.9005C45.9005 92.9839 50.1163 97.1748 55.3157 97.1748V98.9459C50.1151 98.9459 45.9005 103.138 45.9005 108.309H44.1194C44.1194 103.138 39.9037 98.9459 34.7031 98.9459V97.1748C39.9037 97.1748 44.1194 92.9827 44.1194 87.8125Z" fill="url(#paint5_linear_15089_31966)"/>
<path d="M27.7046 61.6221H28.1501C28.1501 66.7934 32.3658 70.9855 37.5652 70.9855V71.4286C32.3647 71.4286 28.149 75.6206 28.149 80.792H27.7034C27.7034 75.6206 23.4877 71.4286 18.2871 71.4286V70.9855C23.4888 70.9855 27.7046 66.7934 27.7046 61.6221Z" fill="url(#paint6_linear_15089_31966)"/>
<path opacity="0.2" d="M13.2937 119.9C13.2937 124.904 17.3723 128.959 22.4038 128.959C17.3723 128.959 13.2937 133.015 13.2937 138.018C13.2937 133.015 9.21506 128.959 4.18359 128.959C9.21506 128.958 13.2937 124.904 13.2937 119.9Z" fill="url(#paint7_linear_15089_31966)"/>
<path opacity="0.2" d="M381.955 323.857H383.736C383.736 329.029 387.952 333.22 393.152 333.22V334.991C387.951 334.991 383.736 339.183 383.736 344.354H381.955C381.955 339.183 377.74 334.991 372.539 334.991V333.22C377.74 333.22 381.955 329.028 381.955 323.857Z" fill="url(#paint8_linear_15089_31966)"/>
<path d="M365.54 297.667H365.986C365.986 302.838 370.202 307.03 375.401 307.03V307.473C370.201 307.473 365.985 311.666 365.985 316.837H365.539C365.539 311.666 361.324 307.473 356.123 307.473V307.03C361.325 307.03 365.54 302.838 365.54 297.667Z" fill="url(#paint9_linear_15089_31966)"/>
<path opacity="0.2" d="M351.13 355.945C351.13 360.949 355.208 365.004 360.24 365.004C355.208 365.004 351.13 369.06 351.13 374.063C351.13 369.06 347.051 365.004 342.02 365.004C347.051 365.003 351.13 360.949 351.13 355.945Z" fill="url(#paint10_linear_15089_31966)"/>
<path d="M61.4313 331.435C77.5114 345.698 100.243 337.143 125.356 348.558C91.6815 393.077 36.4037 387.661 15.7703 359.403C-4.86315 331.144 24.3291 273.846 43.1679 260.091C58.6786 264.212 40.6237 312.98 61.4313 331.435Z" fill="#B6DAFF"/>
<path d="M136.283 331.535C139.336 332.642 141.857 333.536 143.604 334.172C147.689 332.005 151.486 331.717 153.339 331.611C154.675 331.535 155.1 332.247 155.222 332.763C155.283 333.02 155.116 333.263 154.857 333.293C153.597 333.445 151.243 334.157 151.03 335.066C150.802 336.097 160.674 337.097 160.765 338.537C160.811 339.113 153.764 338.598 153.764 338.598C153.764 338.598 161.206 340.583 160.614 341.402C160.021 342.22 153.248 341.311 153.248 341.311C153.248 341.311 160.431 344.19 159.49 344.766C158.548 345.342 152.686 343.902 152.686 343.902C155.192 345.236 156.027 346.145 156.3 346.646C156.422 346.888 156.255 347.146 155.981 347.1C153.369 346.736 148.798 344.039 145.699 342.068V342.084L145.684 342.19C141.538 342.569 137.392 342.675 133.261 342.569C134.415 338.946 135.402 335.264 136.283 331.535Z" fill="#F28766"/>
<path d="M91.1767 284.007L109.311 321.306L142.936 332.566L141.614 343.827C141.614 343.827 101.793 341.402 95.3836 334.991C88.9745 328.595 76.8094 297.693 76.3537 294.601C75.9133 291.509 91.1767 284.007 91.1767 284.007Z" fill="#4995E1"/>
<path d="M79.9985 278.644C79.9985 278.644 88.3971 287.222 88.0782 293.951C87.7441 300.68 87.1973 337.661 87.1973 337.661L90.6297 339.313L97.707 336.766C97.707 336.766 94.2747 297.695 94.1684 293.496C94.0621 289.298 92.8471 282.902 88.8528 281.129C84.8737 279.371 79.9985 278.644 79.9985 278.644Z" fill="#80BFFE"/>
<path d="M188.949 353.438C203.878 355.332 214.099 356.711 214.099 356.711L217.41 370.927L187.491 371.261C188.25 365.35 188.706 359.409 188.949 353.438Z" fill="#FFCBC2"/>
<path d="M212.323 355.351C212.323 355.351 215.409 352.22 216.672 349.489C217.936 346.758 217.231 334.49 223.534 335.305V363.672V364.978L223.828 366.189V371.851C223.828 371.851 217.378 374.038 213.454 371.994C213.454 371.994 217.231 367.904 215.556 363.401C213.866 358.897 212.323 355.351 212.323 355.351Z" fill="#F2A448"/>
<path d="M196.682 352.438V372.595L136.039 362.475L53.3424 372.595C53.3424 372.595 58.3543 343.754 70.0031 340.071C81.6519 336.403 196.682 352.438 196.682 352.438Z" fill="#264B89"/>
<path d="M185.307 349.062L206.205 360.671L207.891 370.613L203.091 376.206L198.505 374.69C198.505 374.69 198.429 374.66 198.277 374.599C196.773 373.978 188.132 370.431 175.967 365.369C179.247 360.034 182.406 354.624 185.307 349.062Z" fill="#FFCBC2"/>
<path d="M205.582 358.776C205.582 358.776 209.941 357.275 212.431 355.305C214.922 353.335 220.253 341.437 225.645 345.196L211.824 371.916C211.277 373.911 210.852 374.432 210.852 374.432L208.088 379.767C208.088 379.767 201.102 378.766 198.505 374.992C198.505 374.992 203.972 372.931 204.625 367.9C205.263 362.837 205.582 358.776 205.582 358.776Z" fill="#FFB156"/>
<path d="M196.914 353.775L188.515 370.992L135.648 350.016C135.648 350.016 74.8221 383.783 58.45 377.387C42.0779 370.992 41.197 339.634 47.834 335.891C54.4709 332.132 90.6778 337.149 90.6778 337.149L92.5154 338.77C92.5154 338.77 128.57 323.539 137.197 323.978C145.808 324.418 196.914 353.775 196.914 353.775Z" fill="#3A67B3"/>
<path d="M48.1793 281.93C49.9106 280.309 52.2343 279.46 54.6187 279.384C56.8209 279.308 58.5827 278.839 60.0255 278.187C62.4251 270.776 60.1014 256.772 59.7977 254.998C59.7825 254.938 59.7824 254.877 59.7673 254.816L79.0098 265.607C78.6909 266.138 78.5086 266.881 78.4327 267.714C78.2656 269.427 78.5086 271.609 78.8427 273.595C79.2376 275.822 79.754 277.793 79.9818 278.581C81.5461 280.475 83.6268 281.445 86.4061 282.946C86.3757 283.658 86.4213 284.401 86.558 285.174C87.3781 289.645 85.9201 295.904 86.1327 300.542C86.3757 305.952 86.558 311.318 86.5124 316.743C86.4516 323.488 86.1783 329.929 85.6923 336.431H49.2272C50.2751 326.731 47.7996 312.303 45.0658 296.404C43.6838 288.462 45.7645 284.204 48.1793 281.93Z" fill="#FFCBC2"/>
<path d="M78.8398 273.58C68.3757 274.899 63.0905 262.441 62.893 261.971C64.8218 265.032 67.6163 266.578 70.3653 267.321C73.7369 268.245 77.0022 267.927 78.369 267.73C78.3842 267.73 78.4146 267.73 78.4298 267.715C78.2475 269.427 78.4905 271.595 78.8398 273.58Z" fill="#E7AFA5"/>
<path d="M80.0891 278.963C80.0891 278.963 84.1746 287.389 81.213 289.314C78.2666 291.224 59.829 278.129 59.829 278.129C59.829 278.129 49.8053 279.311 46.9956 286.374C44.2011 293.436 48.1803 337.146 48.1803 337.146C48.1803 337.146 82.0939 339.207 90.6444 337.146C90.6444 337.146 90.4925 315.519 91.5253 308.744C92.558 301.969 91.9353 290.526 89.8243 285.904C88.746 283.479 80.0891 278.963 80.0891 278.963Z" fill="#80BFFE"/>
<path d="M59.5405 277.61C59.5405 277.61 75.2443 284.9 73.6952 292.842C72.1461 300.783 65.2966 379.594 65.2966 379.594C65.2966 379.594 44.7175 380.261 36.9871 376.29C29.2415 372.319 46.7223 318.455 45.8414 313.378C44.9606 308.301 40.3132 285.567 46.9501 281.369C53.5718 277.17 59.5405 277.61 59.5405 277.61Z" fill="#5BA7F4"/>
<path d="M115.65 299.477L113.43 297.277L126.241 284.404L128.461 286.604L115.65 299.477Z" fill="#292466"/>
<path d="M122.687 300.601C122.687 300.601 121.973 301.934 121.441 302.177C120.91 302.419 118.161 303.086 118.055 303.071C117.933 303.177 115.412 305.299 111.645 308.391C110.476 306.83 109.276 305.269 108.046 303.708C107.211 302.647 106.421 301.571 105.616 300.479C107.271 299.722 108.669 299.1 109.732 298.615L112.131 296.751C113.21 295.417 116.323 290.386 117.781 290.492C119.543 290.613 119.437 291.31 119.437 291.31C119.437 291.31 116.718 294.781 117.326 296.16C117.903 297.463 123.871 290.977 123.871 290.977L125.451 289.719C125.451 289.719 125.724 293.356 124.418 294.569C124.418 294.569 125.193 296.554 123.75 298.07C123.765 298.055 123.689 300.01 122.687 300.601Z" fill="#FFCBC2"/>
<path d="M61.0907 283.353L73.0281 313.149L111.3 296.811C111.3 296.811 117.937 305.192 117.269 305.42C116.601 305.647 82.7632 338.535 68.6085 336.095C54.4538 333.67 44.9465 292.173 44.9465 292.173L61.0907 283.353Z" fill="#5BA7F4"/>
<path d="M54.4366 249.013C54.9378 247.437 56.6236 246.179 58.3094 246.588C58.4309 246.619 58.6132 246.694 58.8106 246.785C58.5828 241.284 59.3877 235.252 63.2301 231.917C71.4921 224.749 83.3231 227.265 85.8443 233.706C88.7147 241.072 88.8665 250.195 88.7602 258.001C88.745 259.016 88.7147 260.062 88.3805 261.032C87.0744 264.73 81.774 267.018 78.205 267.761C73.6032 268.716 68.9862 267.519 65.3868 264.518C62.5315 262.138 60.6786 258.804 59.8889 255.182C59.0688 255.258 57.9145 255.061 57.6563 254.954C56.6236 254.56 55.6516 253.696 55.0593 252.787C54.2999 251.696 54.0265 250.271 54.4366 249.013Z" fill="#FFCBC2"/>
<path d="M82.739 246.649C82.739 247.846 83.2098 248.816 83.8021 248.816C84.3945 248.816 84.8652 247.846 84.8652 246.649C84.8652 245.451 84.3945 244.481 83.8021 244.481C83.2098 244.481 82.739 245.451 82.739 246.649Z" fill="#292466"/>
<path d="M74.6146 248.816C74.0274 248.816 73.5515 247.846 73.5515 246.649C73.5515 245.452 74.0274 244.481 74.6146 244.481C75.2017 244.481 75.6777 245.452 75.6777 246.649C75.6777 247.846 75.2017 248.816 74.6146 248.816Z" fill="#292466"/>
<path d="M83.1836 253.199C82.8191 253.912 82.2572 254.533 81.5889 255.018C80.9207 255.503 80.0853 255.806 79.2196 255.806C78.354 255.791 77.5187 255.488 76.8656 254.988C76.5163 254.76 76.2429 254.442 75.9543 254.169C75.7113 253.851 75.4683 253.533 75.2405 253.199C75.5747 253.442 75.8632 253.699 76.167 253.942C76.5011 254.139 76.8048 254.397 77.139 254.563C77.792 254.942 78.521 255.139 79.2348 255.154C79.9638 255.169 80.6777 254.942 81.3459 254.594C81.9838 254.23 82.6065 253.76 83.1836 253.199Z" fill="#292466"/>
<path d="M80.3262 257.047C80.0224 257.32 79.6123 257.411 79.2175 257.426C78.8226 257.411 78.4126 257.305 78.0936 257.047C78.4885 257.107 78.8378 257.183 79.2175 257.168C79.582 257.183 79.9313 257.123 80.3262 257.047Z" fill="#292466"/>
<path d="M76.5631 239.149C76.0619 238.71 75.5152 238.573 74.9229 238.543C74.3458 238.528 73.7383 238.604 73.1763 238.785C72.5992 238.967 72.0828 239.286 71.6424 239.664C71.1868 240.028 70.8526 240.528 70.5945 241.013C70.4578 241.256 70.5489 241.559 70.7919 241.695C70.9893 241.801 71.2172 241.771 71.3842 241.62L71.4298 241.574C71.7791 241.256 72.1132 240.968 72.4777 240.741C72.827 240.498 73.2371 240.377 73.6319 240.271C74.042 240.18 74.4521 240.134 74.8773 240.149C75.3026 240.165 75.7582 240.18 76.2138 240.074L76.3505 240.043C76.6391 239.968 76.8061 239.68 76.7454 239.407C76.6998 239.301 76.639 239.21 76.5631 239.149Z" fill="#121B46"/>
<path d="M81.3481 243.148C81.5303 243.967 81.667 244.77 81.8189 245.573C81.9708 246.377 82.1227 247.18 82.3505 247.938C82.396 248.135 82.4568 248.317 82.5327 248.498C82.5935 248.65 82.715 248.938 82.715 249.196C82.7453 249.741 82.396 250.272 81.9556 250.484C81.5 250.742 80.9836 250.696 80.5735 250.56C80.1635 250.408 79.799 250.181 79.48 249.908C80.2394 250.196 81.1355 250.423 81.667 250.014C81.9404 249.817 82.0771 249.544 82.0467 249.241C82.0315 249.09 81.9859 248.999 81.8948 248.756C81.8189 248.559 81.743 248.347 81.6822 248.15C81.4544 247.331 81.3329 246.498 81.2873 245.664C81.2266 244.8 81.2418 243.967 81.3481 243.148Z" fill="#292466"/>
<path d="M53.5858 241.118C54.2237 239.102 55.1957 236.798 57.2915 236.434C56.5018 234.692 56.5169 232.585 57.3523 230.842C58.0812 229.342 59.3722 228.144 60.7694 227.22C62.7134 225.931 64.946 225.068 67.2697 224.734C70.8083 224.219 74.423 224.916 77.9161 225.598C79.7386 225.947 82.0167 226.25 83.8392 226.598C85.6617 225.174 88.5473 225.931 90.0205 227.705C91.5089 229.493 91.8582 231.963 91.8126 234.267C91.6911 238.844 90.2179 243.239 88.5625 247.513C88.441 245.74 88.2436 243.982 87.9854 242.239C87.3475 240.345 86.2236 238.587 84.8264 237.147C80.4068 241.618 73.3143 243.209 67.4063 241.087C67.2241 242.557 66.8596 243.891 66.2673 245.255C65.5687 246.862 64.3992 248.499 62.6679 248.817C61.9085 248.953 60.9821 248.711 60.7239 247.998C60.4961 247.347 58.8406 246.71 58.8406 246.771C58.6432 246.68 58.4761 246.619 58.3394 246.574C56.6536 246.149 54.983 247.422 54.4818 248.999C54.0718 250.257 54.3452 251.681 55.059 252.773C55.6665 253.697 56.6233 254.561 57.656 254.94C57.9142 255.046 59.0684 255.243 59.9037 255.167C60.3138 257.077 61.0125 258.911 62.03 260.547C60.6024 260.699 59.1292 260.623 57.8535 259.941C56.0462 258.986 54.9982 257.062 54.1173 255.228C53.3276 253.591 52.5834 251.924 52.2948 250.135C51.7937 247.135 52.6745 244.073 53.5858 241.118Z" fill="#292466"/>
<g opacity="0.5">
<g filter="url(#filter1_d_15089_31966)">
<path d="M281.727 333.171L276.104 357.475L254.16 352.372L261.502 320.645L276.04 324.025L281.727 333.171Z" fill="white"/>
</g>
<path d="M274.32 331.449L281.726 333.171L276.039 324.024L274.32 331.449Z" fill="#AAB4BE"/>
<path d="M278.439 336.957L261.021 332.906L260.814 333.802L278.232 337.853L278.439 336.957Z" fill="#AAB4BE"/>
<path d="M277.582 340.651L260.164 336.6L259.957 337.495L277.374 341.546L277.582 340.651Z" fill="#AAB4BE"/>
<path d="M276.728 344.343L259.311 340.292L259.103 341.188L276.521 345.239L276.728 344.343Z" fill="#AAB4BE"/>
</g>
</g>
<defs>
<filter id="filter0_d_15089_31966" x="13.8331" y="15.5146" width="451.368" height="362.073" filterUnits="userSpaceOnUse" color-interpolation-filters="sRGB">
<feFlood flood-opacity="0" result="BackgroundImageFix"/>
<feColorMatrix in="SourceAlpha" type="matrix" values="0 0 0 0 0 0 0 0 0 0 0 0 0 0 0 0 0 0 127 0" result="hardAlpha"/>
<feOffset dy="16.3846"/>
<feGaussianBlur stdDeviation="21.8462"/>
<feComposite in2="hardAlpha" operator="out"/>
<feColorMatrix type="matrix" values="0 0 0 0 0.117647 0 0 0 0 0.129412 0 0 0 0 0.176471 0 0 0 0.09 0"/>
<feBlend mode="normal" in2="BackgroundImageFix" result="effect1_dropShadow_15089_31966"/>
<feBlend mode="normal" in="SourceGraphic" in2="effect1_dropShadow_15089_31966" result="shape"/>
</filter>
<filter id="filter1_d_15089_31966" x="214.16" y="295.645" width="107.567" height="116.83" filterUnits="userSpaceOnUse" color-interpolation-filters="sRGB">
<feFlood flood-opacity="0" result="BackgroundImageFix"/>
<feColorMatrix in="SourceAlpha" type="matrix" values="0 0 0 0 0 0 0 0 0 0 0 0 0 0 0 0 0 0 127 0" result="hardAlpha"/>
<feOffset dy="15"/>
<feGaussianBlur stdDeviation="20"/>
<feComposite in2="hardAlpha" operator="out"/>
<feColorMatrix type="matrix" values="0 0 0 0 0.117647 0 0 0 0 0.129412 0 0 0 0 0.176471 0 0 0 0.05 0"/>
<feBlend mode="normal" in2="BackgroundImageFix" result="effect1_dropShadow_15089_31966"/>
<feBlend mode="normal" in="SourceGraphic" in2="effect1_dropShadow_15089_31966" result="shape"/>
</filter>
<linearGradient id="paint0_linear_15089_31966" x1="366.946" y1="39.6173" x2="123.579" y2="347.496" gradientUnits="userSpaceOnUse">
<stop stop-color="#D9ECFF"/>
<stop offset="1" stop-color="#DCEDFF" stop-opacity="0.42"/>
</linearGradient>
<linearGradient id="paint1_linear_15089_31966" x1="114.083" y1="11.8866" x2="114.083" y2="30.4755" gradientUnits="userSpaceOnUse">
<stop offset="0.225344" stop-color="#85BFFF"/>
<stop offset="1" stop-color="#85BFFF" stop-opacity="0"/>
</linearGradient>
<linearGradient id="paint2_linear_15089_31966" x1="421.877" y1="149.25" x2="420.654" y2="160.188" gradientUnits="userSpaceOnUse">
<stop stop-color="#FEB274"/>
<stop offset="0.614583" stop-color="#FF7300"/>
<stop offset="1" stop-color="#FF7300"/>
</linearGradient>
<linearGradient id="paint3_linear_15089_31966" x1="464.154" y1="183.597" x2="415.396" y2="183.597" gradientUnits="userSpaceOnUse">
<stop stop-color="#FF7300"/>
<stop offset="0.395833" stop-color="#FF9D4D"/>
<stop offset="1" stop-color="#FF7300"/>
</linearGradient>
<linearGradient id="paint4_linear_15089_31966" x1="429.734" y1="165.795" x2="396.933" y2="165.795" gradientUnits="userSpaceOnUse">
<stop stop-color="#FF7300"/>
<stop offset="0.395833" stop-color="#FF9D4D"/>
<stop offset="1" stop-color="#FF7300"/>
</linearGradient>
<linearGradient id="paint5_linear_15089_31966" x1="55.3085" y1="98.1781" x2="34.6846" y2="98.1781" gradientUnits="userSpaceOnUse">
<stop stop-color="#FAB882"/>
<stop offset="1" stop-color="#FF7300"/>
</linearGradient>
<linearGradient id="paint6_linear_15089_31966" x1="37.5586" y1="71.3167" x2="18.2697" y2="71.3167" gradientUnits="userSpaceOnUse">
<stop stop-color="#FAB882"/>
<stop offset="1" stop-color="#FF7300"/>
</linearGradient>
<linearGradient id="paint7_linear_15089_31966" x1="22.3975" y1="129.063" x2="4.16718" y2="129.063" gradientUnits="userSpaceOnUse">
<stop stop-color="#FAB882"/>
<stop offset="1" stop-color="#FF7300"/>
</linearGradient>
<linearGradient id="paint8_linear_15089_31966" x1="393.144" y1="334.223" x2="372.52" y2="334.223" gradientUnits="userSpaceOnUse">
<stop stop-color="#FAB882"/>
<stop offset="1" stop-color="#FF7300"/>
</linearGradient>
<linearGradient id="paint9_linear_15089_31966" x1="375.395" y1="307.362" x2="356.106" y2="307.362" gradientUnits="userSpaceOnUse">
<stop stop-color="#FAB882"/>
<stop offset="1" stop-color="#FF7300"/>
</linearGradient>
<linearGradient id="paint10_linear_15089_31966" x1="360.233" y1="365.108" x2="342.003" y2="365.108" gradientUnits="userSpaceOnUse">
<stop stop-color="#FAB882"/>
<stop offset="1" stop-color="#FF7300"/>
</linearGradient>
<clipPath id="clip0_15089_31966">
<rect width="501" height="423" fill="white"/>
</clipPath>
</defs>
</svg>
