<svg width="40" height="40" viewBox="0 0 40 40" fill="none" xmlns="http://www.w3.org/2000/svg">
<path d="M28.334 22.3327V27.3327C28.334 33.9993 25.6673 36.666 19.0007 36.666H12.6673C6.00065 36.666 3.33398 33.9993 3.33398 27.3327V20.9993C3.33398 14.3327 6.00065 11.666 12.6673 11.666H17.6673" stroke="#FF7300" stroke-width="2" stroke-linecap="round" stroke-linejoin="round"/>
<path d="M28.3327 22.3327H22.9993C18.9993 22.3327 17.666 20.9993 17.666 16.9993V11.666L28.3327 22.3327Z" stroke="#FF7300" stroke-width="2" stroke-linecap="round" stroke-linejoin="round"/>
<path d="M19.334 3.33398H26.0007" stroke="#0061BF" stroke-width="2" stroke-linecap="round" stroke-linejoin="round"/>
<path d="M11.666 8.33398C11.666 5.56732 13.8993 3.33398 16.666 3.33398H21.0327" stroke="#0061BF" stroke-width="1.5" stroke-linecap="round" stroke-linejoin="round"/>
<path d="M36.6658 13.334V23.6507C36.6658 26.234 34.5658 28.334 31.9824 28.334" stroke="#0061BF" stroke-width="1.5" stroke-linecap="round" stroke-linejoin="round"/>
<path d="M36.666 13.334H31.666C27.916 13.334 26.666 12.084 26.666 8.33398V3.33398L36.666 13.334Z" stroke="#0061BF" stroke-width="1.5" stroke-linecap="round" stroke-linejoin="round"/>
</svg>
