<svg width="20" height="20" viewBox="0 0 20 20" fill="none" xmlns="http://www.w3.org/2000/svg">
<path fill-rule="evenodd" clip-rule="evenodd" d="M18.2493 5.20065H1.74935C1.24335 5.20065 0.832682 4.78241 0.832682 4.26701C0.832682 3.75162 1.24335 3.33337 1.74935 3.33337H18.2493C18.7553 3.3334 19.166 3.75165 19.166 4.26704C19.166 4.78241 18.7553 5.20065 18.2493 5.20065ZM9.42477 15.5534H18.2493C18.7553 15.5534 19.166 15.9717 19.166 16.4871C19.166 17.0025 18.7553 17.4207 18.2493 17.4207H9.42477C8.91878 17.4207 8.5081 17.0025 8.5081 16.487C8.5081 15.9717 8.91878 15.5534 9.42477 15.5534ZM18.2493 9.44666H1.74935C1.24335 9.44666 0.832682 9.86496 0.832682 10.3803C0.832682 10.8957 1.24335 11.314 1.74935 11.314H18.2493C18.7553 11.314 19.166 10.8957 19.166 10.3803C19.166 9.86493 18.7553 9.44666 18.2493 9.44666Z" fill="#051F39"/>
</svg>
