<svg width="40" height="40" viewBox="0 0 40 40" fill="none" xmlns="http://www.w3.org/2000/svg">
<g id="vuesax/linear/search-favorite">
<g id="vuesax/linear/search-favorite_2">
<g id="search-favorite">
<path id="Vector" d="M34.9997 19.1673C34.9997 27.9173 27.9163 35.0007 19.1663 35.0007C10.4163 35.0007 3.33301 27.9173 3.33301 19.1673C3.33301 10.4173 10.4163 3.33398 19.1663 3.33398" stroke="#FF7300" stroke-width="2" stroke-linecap="round" stroke-linejoin="round"/>
<path id="Vector_2" d="M36.6663 36.6673L33.333 33.334" stroke="#FF7300" stroke-width="2" stroke-linecap="round" stroke-linejoin="round"/>
<path id="Vector_3" d="M24.1665 10.2165C23.5832 8.38314 24.2665 6.09981 26.1999 5.48314C27.2165 5.14981 28.4665 5.43314 29.1832 6.41648C29.8499 5.39981 31.1499 5.16648 32.1499 5.48314C34.0832 6.09981 34.7665 8.38314 34.1832 10.2165C33.2665 13.1331 30.0665 14.6498 29.1832 14.6498C28.2832 14.6498 25.1165 13.1665 24.1665 10.2165Z" stroke="#0061BF" stroke-width="2" stroke-linecap="round" stroke-linejoin="round"/>
</g>
</g>
</g>
</svg>
