<svg width="40" height="40" viewBox="0 0 40 40" fill="none" xmlns="http://www.w3.org/2000/svg">
<path d="M25.6499 8.68398L27.9999 13.384C28.3166 14.034 29.1666 14.6506 29.8832 14.784L34.1333 15.484C36.8499 15.934 37.4833 17.9006 35.5333 19.8673L32.2166 23.184C31.6666 23.734 31.3499 24.8173 31.5333 25.6006L32.4832 29.7007C33.2332 32.934 31.4999 34.2006 28.6499 32.5006L24.6666 30.134C23.9499 29.7006 22.7499 29.7006 22.0333 30.134L18.0499 32.5006C15.1999 34.184 13.4666 32.934 14.2166 29.7007L15.1666 25.6006C15.3499 24.834 15.0333 23.7506 14.4833 23.184L11.1666 19.8673C9.2166 17.9173 9.84993 15.9506 12.5666 15.484L16.8166 14.784C17.5332 14.6673 18.3833 14.034 18.6999 13.384L21.0499 8.68398C22.2999 6.13398 24.3666 6.13398 25.6499 8.68398Z" stroke="#FF7300" stroke-width="2" stroke-linecap="round" stroke-linejoin="round"/>
<path d="M13.333 8.33398H3.33301" stroke="#0061BF" stroke-width="2" stroke-linecap="round" stroke-linejoin="round"/>
<path d="M8.33301 31.666H3.33301" stroke="#0061BF" stroke-width="2" stroke-linecap="round" stroke-linejoin="round"/>
<path d="M4.99967 20H3.33301" stroke="#0061BF" stroke-width="2" stroke-linecap="round" stroke-linejoin="round"/>
</svg>
