<svg width="40" height="40" viewBox="0 0 40 40" fill="none" xmlns="http://www.w3.org/2000/svg">
<g id="vuesax/linear/people">
<g id="vuesax/linear/people_2">
<g id="people">
<g id="Group">
<path id="Vector" d="M29.9998 11.934C29.8998 11.9173 29.7831 11.9173 29.6831 11.934C27.3831 11.8507 25.5498 9.96732 25.5498 7.63399C25.5498 5.25065 27.4665 3.33398 29.8498 3.33398C32.2331 3.33398 34.1498 5.26732 34.1498 7.63399C34.1331 9.96732 32.2998 11.8507 29.9998 11.934Z" stroke="#FF7300" stroke-width="2" stroke-linecap="round" stroke-linejoin="round"/>
<path id="Vector_2" d="M28.2834 24.0676C30.5667 24.4509 33.0834 24.0509 34.8501 22.8676C37.2001 21.3009 37.2001 18.7343 34.8501 17.1676C33.0667 15.9843 30.5167 15.5842 28.2334 15.9842" stroke="#FF7300" stroke-width="2" stroke-linecap="round" stroke-linejoin="round"/>
</g>
<g id="Group_2">
<path id="Vector_3" d="M9.95078 11.934C10.0508 11.9173 10.1674 11.9173 10.2674 11.934C12.5674 11.8507 14.4008 9.96732 14.4008 7.63399C14.4008 5.25065 12.4841 3.33398 10.1008 3.33398C7.71745 3.33398 5.80078 5.26732 5.80078 7.63399C5.81745 9.96732 7.65078 11.8507 9.95078 11.934Z" stroke="#FF7300" stroke-width="2" stroke-linecap="round" stroke-linejoin="round"/>
<path id="Vector_4" d="M11.6671 24.0676C9.38372 24.4509 6.86706 24.0509 5.10039 22.8676C2.75039 21.3009 2.75039 18.7343 5.10039 17.1676C6.88372 15.9843 9.43372 15.5842 11.7171 15.9842" stroke="#FF7300" stroke-width="1.5" stroke-linecap="round" stroke-linejoin="round"/>
</g>
<g id="Group_3">
<path id="Vector_5" d="M19.9998 24.3832C19.8998 24.3665 19.7831 24.3665 19.6831 24.3832C17.3831 24.2999 15.5498 22.4165 15.5498 20.0832C15.5498 17.6999 17.4665 15.7832 19.8498 15.7832C22.2331 15.7832 24.1498 17.7165 24.1498 20.0832C24.1331 22.4165 22.2998 24.3165 19.9998 24.3832Z" stroke="#0061BF" stroke-width="1.5" stroke-linecap="round" stroke-linejoin="round"/>
<path id="Vector_6" d="M15.1502 29.6336C12.8002 31.2003 12.8002 33.7669 15.1502 35.3336C17.8169 37.1169 22.1835 37.1169 24.8502 35.3336C27.2002 33.7669 27.2002 31.2003 24.8502 29.6336C22.2002 27.8669 17.8169 27.8669 15.1502 29.6336Z" stroke="#0061BF" stroke-width="1.5" stroke-linecap="round" stroke-linejoin="round"/>
</g>
</g>
</g>
</g>
</svg>
