<svg width="86" height="86" viewBox="0 0 86 86" fill="none" xmlns="http://www.w3.org/2000/svg">
<circle cx="43" cy="43" r="43" fill="#D3F4FF"/>
<g clip-path="url(#clip0_601_139940)">
<path d="M42.9995 45.9999C43.8433 45.9999 45.0794 43.3268 45.2216 39.25H40.7773C40.9195 43.3267 42.1557 45.9999 42.9995 45.9999Z" fill="#009FD3"/>
<path d="M45.4004 31.4297C46.2053 33.0014 46.6576 35.3424 46.735 37.7494H50.4227C50.1234 34.7932 48.1237 32.3587 45.4004 31.4297Z" fill="#009FD3"/>
<path d="M35.5762 37.7494H39.2639C39.3414 35.3424 39.7936 33.0014 40.5985 31.4297C37.8752 32.3587 35.8755 34.7932 35.5762 37.7494Z" fill="#009FD3"/>
<path d="M42.9995 31C42.1557 31 40.9195 33.6731 40.7773 37.7499H45.2216C45.0794 33.6732 43.8433 31 42.9995 31Z" fill="#009FD3"/>
<path d="M53.4996 25H32.5C30.8454 25 29.5 26.3454 29.5 28V57.9996C29.5 59.6541 30.8454 60.9995 32.5 60.9995H53.4997C55.1542 60.9995 56.4996 59.6541 56.4996 57.9995V28C56.4996 26.3454 55.1542 25 53.4996 25ZM48.2497 56.4995H37.7499C37.3353 56.4995 36.9998 56.1641 36.9998 55.7495C36.9998 55.335 37.3353 54.9995 37.7499 54.9995H48.2497C48.6642 54.9995 48.9997 55.335 48.9997 55.7495C48.9997 56.1641 48.6643 56.4995 48.2497 56.4995ZM51.2497 51.9996H34.7499C34.3354 51.9996 33.9999 51.6641 33.9999 51.2496C33.9999 50.835 34.3354 50.4996 34.7499 50.4996H51.2497C51.6643 50.4996 51.9997 50.835 51.9997 51.2496C51.9997 51.6641 51.6642 51.9996 51.2497 51.9996ZM42.9998 47.4997C38.037 47.4997 33.9999 43.4626 33.9999 38.4998C33.9999 33.537 38.037 29.4999 42.9998 29.4999C47.9626 29.4999 51.9997 33.537 51.9997 38.4998C51.9997 43.4626 47.9626 47.4997 42.9998 47.4997Z" fill="#009FD3"/>
<path d="M45.4004 45.5697C48.1237 44.6406 50.1234 42.206 50.4227 39.25H46.735C46.6576 41.657 46.2053 43.9979 45.4004 45.5697Z" fill="#009FD3"/>
<path d="M35.5762 39.25C35.8755 42.2061 37.8752 44.6406 40.5985 45.5697C39.7936 43.9979 39.3414 41.657 39.2639 39.25H35.5762Z" fill="#009FD3"/>
</g>
<defs>
<clipPath id="clip0_601_139940">
<rect width="35.9995" height="35.9995" fill="white" transform="translate(25 25)"/>
</clipPath>
</defs>
</svg>
