<svg width="87" height="86" viewBox="0 0 87 86" fill="none" xmlns="http://www.w3.org/2000/svg">
<circle cx="43.5" cy="43" r="43" fill="#D3F4FF"/>
<path d="M24.2172 51.5128C24.072 51.5151 23.9296 51.4744 23.8094 51.3961C23.6893 51.3178 23.5972 51.2058 23.5457 51.0753C23.4943 50.9449 23.486 50.8024 23.522 50.6673C23.5581 50.5321 23.6366 50.411 23.747 50.3204L29.462 46.6303L24.4006 41.8132L25.6748 41.2012L31.7401 44.6497L39.4863 40.0111L42.6506 38.1164L39.7166 35.3228L38.9267 34.5708L30.4142 26.4657L33.4703 25L41.4634 29.8961L43.6591 31.2375L49.2025 34.625L61.5706 31.0343C63.2867 31.032 64.2365 33.1842 62.7954 34.3517L52.6278 41.4022L51.9225 48.0169L50.6718 59.5343L47.6157 61L46.9809 55.1509L46.7458 52.9513L46.3532 49.3538L45.8078 44.3222L43.1395 45.3137L33.8394 48.7712L32.8567 55.6003L31.5849 56.2123L31.0395 51.1921L30.8373 49.3267L24.3653 51.4902C24.3167 51.502 24.2672 51.5096 24.2172 51.5128Z" fill="#009FD3"/>
</svg>
