<svg width="40" height="40" viewBox="0 0 40 40" fill="none" xmlns="http://www.w3.org/2000/svg">
<g id="vuesax/linear/hierarchy-square-2">
<g id="vuesax/linear/hierarchy-square-2_2">
<g id="hierarchy-square-2">
<path id="Vector" d="M13 17V24" stroke="#0061BF" stroke-width="2" stroke-linecap="round" stroke-linejoin="round"/>
<path id="Vector_2" d="M13.25 16.5C15.0449 16.5 16.5 15.0449 16.5 13.25C16.5 11.4551 15.0449 10 13.25 10C11.4551 10 10 11.4551 10 13.25C10 15.0449 11.4551 16.5 13.25 16.5Z" stroke="#0061BF" stroke-width="2" stroke-linecap="round" stroke-linejoin="round"/>
<path id="Vector_3" d="M13 30C14.6568 30 16 28.6569 16 27C16 25.3432 14.6568 24 13 24C11.3431 24 10 25.3432 10 27C10 28.6569 11.3431 30 13 30Z" stroke="#0061BF" stroke-width="2" stroke-linecap="round" stroke-linejoin="round"/>
<path id="Vector_4" d="M27 30C28.6568 30 30 28.6569 30 27C30 25.3432 28.6568 24 27 24C25.3431 24 24 25.3432 24 27C24 28.6569 25.3431 30 27 30Z" stroke="#0061BF" stroke-width="2" stroke-linecap="round" stroke-linejoin="round"/>
<path id="Vector_5" d="M13.1338 17C13.5838 18.75 15.1838 20.05 17.0671 20.0333L20.5004 20.0167C23.1171 20 25.3505 21.6833 26.1671 24.0333" stroke="#0061BF" stroke-width="1.5" stroke-linecap="round" stroke-linejoin="round"/>
<path id="Vector_6" d="M14.9997 36.6673H24.9997C33.333 36.6673 36.6663 33.334 36.6663 25.0007V15.0007C36.6663 6.66732 33.333 3.33398 24.9997 3.33398H14.9997C6.66634 3.33398 3.33301 6.66732 3.33301 15.0007V25.0007C3.33301 33.334 6.66634 36.6673 14.9997 36.6673Z" stroke="#FF7300" stroke-width="1.5" stroke-linecap="round" stroke-linejoin="round"/>
</g>
</g>
</g>
</svg>
