<svg width="60" height="60" viewBox="0 0 60 60" fill="none" xmlns="http://www.w3.org/2000/svg">
<circle cx="30" cy="30" r="30" fill="#D3F4FF"/>
<g clip-path="url(#clip0_660_137930)">
<path d="M36.7202 19.2772H29.3514C28.885 19.2772 28.4371 19.4629 28.1071 19.7929L18.5154 29.3828C17.8282 30.07 17.8282 31.1841 18.5154 31.8722L25.8843 39.241C26.5715 39.9283 27.6856 39.9283 28.3728 39.241L37.9645 29.6512C38.2945 29.3203 38.4801 28.8724 38.4801 28.4051V21.0372C38.4801 20.0648 37.6926 19.2772 36.7202 19.2772ZM33.6403 25.437C32.9117 25.437 32.3204 24.8457 32.3204 24.117C32.3204 23.3884 32.9117 22.7971 33.6403 22.7971C34.3689 22.7971 34.9603 23.3884 34.9603 24.117C34.9603 24.8457 34.3689 25.437 33.6403 25.437Z" fill="#009FD3"/>
<path d="M40.2431 21.0371L40.2422 29.2287C40.2422 29.6344 40.0811 30.0242 39.7934 30.3111L30.0469 40.0576L30.1965 40.2072C30.8837 40.8944 31.9978 40.8944 32.685 40.2072L41.4864 31.4075C41.8173 31.0775 42.003 30.6296 42.003 30.1632V22.797C42.003 21.8247 41.2154 21.0371 40.2431 21.0371Z" fill="#009FD3"/>
</g>
<defs>
<clipPath id="clip0_660_137930">
<rect width="24" height="24" fill="white" transform="translate(18 18)"/>
</clipPath>
</defs>
</svg>
