<svg width="571" height="395" viewBox="0 0 571 395" fill="none" xmlns="http://www.w3.org/2000/svg">
<circle cx="15.3957" cy="15.3957" r="15.3957" transform="matrix(1 0 0 -1 474 345.791)" fill="url(#paint0_linear_15040_16657)"/>
<circle cx="32.5" cy="32.5" r="32.5" transform="matrix(-1 0 0 1 306 23)" fill="url(#paint1_linear_15040_16657)"/>
<circle cx="11.5" cy="11.5" r="11.5" transform="matrix(-1 0 0 1 316 0)" fill="url(#paint2_linear_15040_16657)"/>
<g filter="url(#filter0_d_15040_16657)">
<path d="M246.371 36.6424L87.1655 31.3114C68.7565 30.695 59.552 30.3868 53.776 35.9727C48 41.5585 48 50.7682 48 69.1874V227.503C48 247.329 48 257.242 54.3371 262.894C60.6743 268.545 70.5227 267.414 90.2196 265.153L249.425 246.876C265.4 245.042 273.387 244.125 278.194 238.735C283 233.345 283 225.305 283 209.226V74.5183C283 57.1927 283 48.53 277.672 43.021C272.345 37.5121 263.687 37.2222 246.371 36.6424Z" fill="white"/>
</g>
<path d="M79.1527 55.0592C79.1527 57.3011 77.3277 59.1185 75.0764 59.1185C72.8251 59.1185 71 57.3011 71 55.0592C71 52.8174 72.8251 51 75.0764 51C77.3277 51 79.1527 52.8174 79.1527 55.0592Z" fill="#FF6259"/>
<path d="M93.1288 55.0592C93.1288 57.3011 91.3038 59.1185 89.0524 59.1185C86.8011 59.1185 84.9761 57.3011 84.9761 55.0592C84.9761 52.8174 86.8011 51 89.0524 51C91.3038 51 93.1288 52.8174 93.1288 55.0592Z" fill="#FFBE2F"/>
<path d="M107.105 55.0592C107.105 57.3011 105.28 59.1185 103.029 59.1185C100.777 59.1185 98.9521 57.3011 98.9521 55.0592C98.9521 52.8174 100.777 51 103.029 51C105.28 51 107.105 52.8174 107.105 55.0592Z" fill="#29CD41"/>
<rect x="102" y="115" width="95.7876" height="11" rx="5.5" fill="#EBEFF2"/>
<rect x="102" y="136" width="123" height="5" rx="2.5" fill="#EBEFF2"/>
<rect x="102" y="148" width="63.1327" height="5" rx="2.5" fill="#EBEFF2"/>
<rect x="72" y="116" width="20" height="20" rx="2" stroke="#EBEFF2" stroke-width="2"/>
<rect x="102" y="168" width="112" height="11" rx="5.5" fill="#EBEFF2"/>
<rect x="102" y="189" width="81" height="5" rx="2.5" fill="#EBEFF2"/>
<rect x="72" y="169" width="20" height="20" rx="2" stroke="#EBEFF2" stroke-width="2"/>
<rect x="97.6562" y="76" width="139.679" height="8.53002" rx="4.26501" fill="#EBEFF2"/>
<rect x="97.6562" y="93.0596" width="106.625" height="4.26501" rx="2.13251" fill="#EBEFF2"/>
<circle cx="81.5169" cy="86.5169" r="10.5169" fill="#EBEFF2"/>
<g clip-path="url(#clip0_15040_16657)">
<path d="M79.5598 91.8989C78.9312 91.8992 78.3165 91.713 77.7937 91.3639C77.2709 91.0148 76.8634 90.5184 76.6228 89.9376C76.3822 89.3568 76.3193 88.7177 76.442 88.1011C76.5647 87.4846 76.8676 86.9183 77.3123 86.4739L79.0944 84.6904L80.0243 85.6194L78.2421 87.4033C78.0691 87.5764 77.9319 87.7819 77.8382 88.0081C77.7446 88.2342 77.6964 88.4766 77.6965 88.7213C77.6965 88.9661 77.7448 89.2084 77.8385 89.4345C77.9322 89.6607 78.0695 89.8661 78.2426 90.0391C78.4157 90.2122 78.6212 90.3494 78.8473 90.443C79.0734 90.5367 79.3158 90.5848 79.5606 90.5848C79.8053 90.5848 80.0477 90.5365 80.2738 90.4428C80.4999 90.3491 80.7053 90.2118 80.8784 90.0387L82.661 88.2561L83.5904 89.1855L81.8078 90.9681C81.5129 91.2638 81.1625 91.4982 80.7767 91.6579C80.3909 91.8177 79.9774 91.8995 79.5598 91.8989Z" fill="#AAB4BE"/>
<path d="M84.1849 88.5916L83.2555 87.6622L85.0381 85.8795C85.3851 85.5295 85.5793 85.0562 85.5782 84.5633C85.5772 84.0704 85.3809 83.598 85.0325 83.2494C84.684 82.9008 84.2116 82.7044 83.7187 82.7032C83.2258 82.702 82.7525 82.896 82.4023 83.2429L80.6184 85.0255L79.689 84.0956L81.4729 82.313C82.0704 81.7232 82.8769 81.3937 83.7165 81.3965C84.5561 81.3993 85.3604 81.7341 85.954 82.3278C86.5476 82.9216 86.8822 83.7261 86.8847 84.5656C86.8872 85.4052 86.5575 86.2117 85.9675 86.809L84.1849 88.5916Z" fill="#AAB4BE"/>
<path d="M82.6608 84.6903L79.689 87.6621L80.6185 88.5917L83.5904 85.6198L82.6608 84.6903Z" fill="#AAB4BE"/>
</g>
<path d="M174 256V362.867C174 364.045 174.955 365 176.133 365H414.867C416.045 365 417 364.045 417 362.867V319.5" stroke="#AAB4BE" stroke-width="1.4" stroke-linecap="round" stroke-linejoin="round" stroke-dasharray="8 8"/>
<circle cx="295.5" cy="365.5" r="16.5" fill="#FF7300"/>
<g clip-path="url(#clip1_15040_16657)">
<path fill-rule="evenodd" clip-rule="evenodd" d="M291.804 364.105C291.804 364.105 291.1 364.808 290.309 365.6C289.561 366.347 289.166 367.315 289.166 368.37C289.166 369.381 289.561 370.392 290.309 371.096C290.353 371.14 290.353 371.14 290.397 371.184C291.144 371.931 292.111 372.327 293.123 372.327C294.134 372.327 295.145 371.931 295.893 371.184C296.684 370.392 297.388 369.689 297.388 369.689C297.74 369.337 297.74 368.81 297.388 368.458C297.036 368.106 296.508 368.106 296.157 368.458C296.157 368.458 295.453 369.161 294.662 369.953C294.266 370.348 293.694 370.568 293.123 370.568C292.551 370.568 291.98 370.348 291.584 369.953L291.496 369.865C291.1 369.469 290.88 368.897 290.88 368.326C290.88 367.754 291.1 367.183 291.496 366.787C292.287 365.995 292.991 365.292 292.991 365.292C293.343 364.94 293.343 364.413 292.991 364.061C292.683 363.797 292.155 363.797 291.804 364.105Z" fill="white"/>
<path fill-rule="evenodd" clip-rule="evenodd" d="M296.904 363.356L292.99 367.269C292.639 367.621 292.639 368.148 292.99 368.5C293.342 368.852 293.87 368.852 294.222 368.5L298.135 364.587C298.487 364.235 298.487 363.708 298.135 363.356C297.783 363.048 297.255 363.048 296.904 363.356Z" fill="white"/>
<path fill-rule="evenodd" clip-rule="evenodd" d="M299.324 367.754C299.324 367.754 300.028 367.051 300.819 366.26C301.567 365.512 301.963 364.545 301.963 363.533C301.963 362.522 301.567 361.511 300.819 360.807C300.775 360.763 300.775 360.763 300.731 360.719C300.028 359.928 299.017 359.532 298.005 359.532C296.994 359.532 295.983 359.928 295.235 360.675C294.444 361.467 293.74 362.17 293.74 362.17C293.389 362.522 293.389 363.05 293.74 363.402C294.092 363.753 294.62 363.753 294.972 363.402C294.972 363.402 295.675 362.698 296.466 361.907C296.862 361.511 297.434 361.291 298.005 361.291C298.577 361.291 299.149 361.511 299.544 361.907L299.632 361.995C300.028 362.39 300.248 362.962 300.248 363.533C300.248 364.105 300.028 364.677 299.632 365.072C298.841 365.864 298.137 366.567 298.137 366.567C297.786 366.919 297.786 367.447 298.137 367.798C298.445 368.106 298.973 368.106 299.324 367.754Z" fill="white"/>
</g>
<g filter="url(#filter1_d_15040_16657)">
<path d="M483.157 120.049L357.951 126.487C340.931 127.362 332.42 127.799 327.21 133.284C322 138.769 322 147.291 322 164.334V274.6C322 290.633 322 298.65 326.787 304.034C331.574 309.419 339.535 310.358 355.458 312.236L480.663 327.006C500.409 329.335 510.282 330.5 516.641 324.847C523 319.193 523 309.252 523 289.37V157.896C523 139.174 523 129.813 517.102 124.21C511.203 118.607 501.854 119.087 483.157 120.049Z" fill="white"/>
</g>
<rect x="338.213" y="247.708" width="71.4389" height="8.53002" rx="4.26501" fill="#EDF1F4"/>
<rect x="418.182" y="247.708" width="45.8489" height="8.53002" rx="4.26501" fill="#EDF1F4"/>
<rect x="472.561" y="247.708" width="31.9876" height="8.53002" rx="4.26501" fill="#EDF1F4"/>
<rect x="338.213" y="266.9" width="75.7039" height="8.53002" rx="4.26501" fill="#EDF1F4"/>
<rect x="422.447" y="266.9" width="65.0414" height="8.53002" rx="4.26501" fill="#EDF1F4"/>
<rect x="338.213" y="286.094" width="120.487" height="8.53002" rx="4.26501" fill="#EDF1F4"/>
<rect x="364.869" y="171.004" width="139.679" height="8.53002" rx="4.26501" fill="#EBEFF2"/>
<rect x="364.869" y="188.063" width="106.625" height="4.26501" rx="2.13251" fill="#EBEFF2"/>
<circle cx="348.73" cy="181.521" r="10.5169" fill="#EBEFF2"/>
<g clip-path="url(#clip2_15040_16657)">
<path d="M346.773 186.903C346.144 186.903 345.529 186.717 345.007 186.368C344.484 186.019 344.076 185.522 343.836 184.942C343.595 184.361 343.532 183.722 343.655 183.105C343.778 182.488 344.08 181.922 344.525 181.478L346.307 179.694L347.237 180.623L345.455 182.407C345.282 182.58 345.145 182.786 345.051 183.012C344.957 183.238 344.909 183.48 344.909 183.725C344.909 183.97 344.958 184.212 345.051 184.438C345.145 184.665 345.282 184.87 345.455 185.043C345.629 185.216 345.834 185.353 346.06 185.447C346.286 185.541 346.529 185.589 346.773 185.589C347.018 185.589 347.261 185.54 347.487 185.447C347.713 185.353 347.918 185.216 348.091 185.043L349.874 183.26L350.803 184.189L349.021 185.972C348.726 186.268 348.375 186.502 347.99 186.662C347.604 186.822 347.19 186.903 346.773 186.903Z" fill="#AAB4BE"/>
<path d="M351.398 183.595L350.468 182.666L352.251 180.883C352.598 180.533 352.792 180.06 352.791 179.567C352.79 179.074 352.594 178.602 352.245 178.253C351.897 177.905 351.425 177.708 350.932 177.707C350.439 177.706 349.965 177.9 349.615 178.247L347.831 180.029L346.902 179.1L348.686 177.317C349.283 176.727 350.09 176.398 350.929 176.4C351.769 176.403 352.573 176.738 353.167 177.332C353.76 177.925 354.095 178.73 354.098 179.57C354.1 180.409 353.77 181.216 353.18 181.813L351.398 183.595Z" fill="#AAB4BE"/>
<path d="M349.874 179.694L346.902 182.666L347.831 183.596L350.803 180.624L349.874 179.694Z" fill="#AAB4BE"/>
</g>
<rect x="364.869" y="205.124" width="139.679" height="8.53002" rx="4.26501" fill="#EBEFF2"/>
<rect x="364.869" y="222.184" width="99.1615" height="4.26501" rx="2.13251" fill="#EBEFF2"/>
<circle cx="348.73" cy="215.641" r="10.5169" fill="#EBEFF2"/>
<g clip-path="url(#clip3_15040_16657)">
<path d="M346.712 220.96C346.084 220.961 345.469 220.775 344.946 220.425C344.423 220.076 344.016 219.58 343.775 218.999C343.535 218.418 343.472 217.779 343.594 217.163C343.717 216.546 344.02 215.98 344.465 215.535L346.247 213.752L347.177 214.681L345.394 216.465C345.221 216.638 345.084 216.843 344.991 217.07C344.897 217.296 344.849 217.538 344.849 217.783C344.849 218.028 344.897 218.27 344.991 218.496C345.085 218.722 345.222 218.928 345.395 219.101C345.568 219.274 345.774 219.411 346 219.505C346.226 219.598 346.468 219.646 346.713 219.646C346.958 219.646 347.2 219.598 347.426 219.504C347.652 219.411 347.858 219.273 348.031 219.1L349.813 217.318L350.743 218.247L348.96 220.03C348.665 220.325 348.315 220.56 347.929 220.719C347.543 220.879 347.13 220.961 346.712 220.96Z" fill="#AAB4BE"/>
<path d="M351.337 217.653L350.408 216.724L352.19 214.941C352.537 214.591 352.732 214.118 352.731 213.625C352.73 213.132 352.533 212.66 352.185 212.311C351.836 211.962 351.364 211.766 350.871 211.765C350.378 211.764 349.905 211.958 349.555 212.304L347.771 214.087L346.841 213.157L348.625 211.375C349.223 210.785 350.029 210.455 350.869 210.458C351.708 210.461 352.513 210.796 353.106 211.389C353.7 211.983 354.035 212.788 354.037 213.627C354.04 214.467 353.71 215.273 353.12 215.871L351.337 217.653Z" fill="#AAB4BE"/>
<path d="M349.813 213.752L346.841 216.724L347.771 217.653L350.743 214.681L349.813 213.752Z" fill="#AAB4BE"/>
</g>
<path d="M346.366 147.54C346.366 149.782 344.541 151.599 342.289 151.599C340.038 151.599 338.213 149.782 338.213 147.54C338.213 145.298 340.038 143.48 342.289 143.48C344.541 143.48 346.366 145.298 346.366 147.54Z" fill="#D8DEE6"/>
<path d="M360.342 147.54C360.342 149.782 358.517 151.599 356.265 151.599C354.014 151.599 352.189 149.782 352.189 147.54C352.189 145.298 354.014 143.48 356.265 143.48C358.517 143.48 360.342 145.298 360.342 147.54Z" fill="#D8DEE6"/>
<path d="M374.318 147.54C374.318 149.782 372.493 151.599 370.241 151.599C367.99 151.599 366.165 149.782 366.165 147.54C366.165 145.298 367.99 143.48 370.241 143.48C372.493 143.48 374.318 145.298 374.318 147.54Z" fill="#D8DEE6"/>
<rect x="71" y="212" width="74" height="23" rx="11.5" fill="#EBEFF2"/>
<path d="M85.884 228V218.9H89.251C89.979 218.9 90.5813 219.021 91.058 219.264C91.5347 219.507 91.89 219.84 92.124 220.265C92.358 220.69 92.475 221.166 92.475 221.695C92.475 222.198 92.3623 222.661 92.137 223.086C91.9117 223.502 91.5607 223.84 91.084 224.1C90.6073 224.351 89.9963 224.477 89.251 224.477H87.548V228H85.884ZM87.548 223.125H89.147C89.7277 223.125 90.1437 222.999 90.395 222.748C90.655 222.488 90.785 222.137 90.785 221.695C90.785 221.244 90.655 220.893 90.395 220.642C90.1437 220.382 89.7277 220.252 89.147 220.252H87.548V223.125ZM96.1595 228.156C95.3535 228.156 94.7295 227.905 94.2875 227.402C93.8542 226.899 93.6375 226.163 93.6375 225.192V221.552H95.2885V225.036C95.2885 225.591 95.4012 226.015 95.6265 226.31C95.8518 226.605 96.2072 226.752 96.6925 226.752C97.1518 226.752 97.5288 226.587 97.8235 226.258C98.1268 225.929 98.2785 225.469 98.2785 224.88V221.552H99.9425V228H98.4735L98.3435 226.908C98.1442 227.289 97.8538 227.593 97.4725 227.818C97.0998 228.043 96.6622 228.156 96.1595 228.156ZM105.473 228.156C104.987 228.156 104.563 228.065 104.199 227.883C103.835 227.701 103.54 227.445 103.315 227.116L103.133 228H101.651V218.64H103.315V222.475C103.523 222.189 103.796 221.938 104.134 221.721C104.48 221.504 104.927 221.396 105.473 221.396C106.079 221.396 106.621 221.543 107.098 221.838C107.574 222.133 107.951 222.536 108.229 223.047C108.506 223.558 108.645 224.139 108.645 224.789C108.645 225.439 108.506 226.02 108.229 226.531C107.951 227.034 107.574 227.432 107.098 227.727C106.621 228.013 106.079 228.156 105.473 228.156ZM105.122 226.7C105.65 226.7 106.088 226.522 106.435 226.167C106.781 225.812 106.955 225.352 106.955 224.789C106.955 224.226 106.781 223.762 106.435 223.398C106.088 223.034 105.65 222.852 105.122 222.852C104.584 222.852 104.142 223.034 103.796 223.398C103.458 223.753 103.289 224.213 103.289 224.776C103.289 225.339 103.458 225.803 103.796 226.167C104.142 226.522 104.584 226.7 105.122 226.7ZM110.131 228V218.64H111.795V228H110.131ZM114.392 220.551C114.089 220.551 113.838 220.46 113.638 220.278C113.448 220.096 113.352 219.866 113.352 219.589C113.352 219.312 113.448 219.086 113.638 218.913C113.838 218.731 114.089 218.64 114.392 218.64C114.696 218.64 114.943 218.731 115.133 218.913C115.333 219.086 115.432 219.312 115.432 219.589C115.432 219.866 115.333 220.096 115.133 220.278C114.943 220.46 114.696 220.551 114.392 220.551ZM113.56 228V221.552H115.224V228H113.56ZM119.626 228.156C119.054 228.156 118.552 228.065 118.118 227.883C117.685 227.692 117.338 227.432 117.078 227.103C116.818 226.774 116.662 226.392 116.61 225.959H118.287C118.339 226.21 118.478 226.427 118.703 226.609C118.937 226.782 119.236 226.869 119.6 226.869C119.964 226.869 120.229 226.795 120.393 226.648C120.567 226.501 120.653 226.332 120.653 226.141C120.653 225.864 120.532 225.677 120.289 225.582C120.047 225.478 119.709 225.378 119.275 225.283C118.998 225.222 118.716 225.149 118.43 225.062C118.144 224.975 117.88 224.867 117.637 224.737C117.403 224.598 117.213 224.425 117.065 224.217C116.918 224 116.844 223.736 116.844 223.424C116.844 222.852 117.07 222.371 117.52 221.981C117.98 221.591 118.621 221.396 119.444 221.396C120.207 221.396 120.814 221.574 121.264 221.929C121.724 222.284 121.997 222.774 122.083 223.398H120.51C120.415 222.921 120.055 222.683 119.431 222.683C119.119 222.683 118.877 222.744 118.703 222.865C118.539 222.986 118.456 223.138 118.456 223.32C118.456 223.511 118.582 223.662 118.833 223.775C119.085 223.888 119.418 223.992 119.834 224.087C120.285 224.191 120.697 224.308 121.069 224.438C121.451 224.559 121.754 224.746 121.979 224.997C122.205 225.24 122.317 225.591 122.317 226.05C122.326 226.449 122.222 226.808 122.005 227.129C121.789 227.45 121.477 227.701 121.069 227.883C120.662 228.065 120.181 228.156 119.626 228.156ZM123.791 228V218.64H125.455V222.54C125.672 222.185 125.962 221.907 126.326 221.708C126.699 221.5 127.124 221.396 127.6 221.396C128.398 221.396 129.013 221.647 129.446 222.15C129.888 222.653 130.109 223.389 130.109 224.36V228H128.458V224.516C128.458 223.961 128.346 223.537 128.12 223.242C127.904 222.947 127.557 222.8 127.08 222.8C126.612 222.8 126.222 222.965 125.91 223.294C125.607 223.623 125.455 224.083 125.455 224.672V228H123.791Z" fill="#AAB4BE"/>
<defs>
<filter id="filter0_d_15040_16657" x="0.628483" y="1.38108" width="329.743" height="330.761" filterUnits="userSpaceOnUse" color-interpolation-filters="sRGB">
<feFlood flood-opacity="0" result="BackgroundImageFix"/>
<feColorMatrix in="SourceAlpha" type="matrix" values="0 0 0 0 0 0 0 0 0 0 0 0 0 0 0 0 0 0 127 0" result="hardAlpha"/>
<feOffset dy="17.7643"/>
<feGaussianBlur stdDeviation="23.6858"/>
<feComposite in2="hardAlpha" operator="out"/>
<feColorMatrix type="matrix" values="0 0 0 0 0.117647 0 0 0 0 0.129412 0 0 0 0 0.176471 0 0 0 0.08 0"/>
<feBlend mode="normal" in2="BackgroundImageFix" result="effect1_dropShadow_15040_16657"/>
<feBlend mode="normal" in="SourceGraphic" in2="effect1_dropShadow_15040_16657" result="shape"/>
</filter>
<filter id="filter1_d_15040_16657" x="274.628" y="89.8479" width="295.743" height="304.22" filterUnits="userSpaceOnUse" color-interpolation-filters="sRGB">
<feFlood flood-opacity="0" result="BackgroundImageFix"/>
<feColorMatrix in="SourceAlpha" type="matrix" values="0 0 0 0 0 0 0 0 0 0 0 0 0 0 0 0 0 0 127 0" result="hardAlpha"/>
<feOffset dy="17.7643"/>
<feGaussianBlur stdDeviation="23.6858"/>
<feComposite in2="hardAlpha" operator="out"/>
<feColorMatrix type="matrix" values="0 0 0 0 0.117647 0 0 0 0 0.129412 0 0 0 0 0.176471 0 0 0 0.08 0"/>
<feBlend mode="normal" in2="BackgroundImageFix" result="effect1_dropShadow_15040_16657"/>
<feBlend mode="normal" in="SourceGraphic" in2="effect1_dropShadow_15040_16657" result="shape"/>
</filter>
<linearGradient id="paint0_linear_15040_16657" x1="15.3957" y1="0" x2="15.3957" y2="30.7915" gradientUnits="userSpaceOnUse">
<stop stop-color="#EAF4FE"/>
<stop offset="1" stop-color="#EAF4FE" stop-opacity="0"/>
</linearGradient>
<linearGradient id="paint1_linear_15040_16657" x1="32.5" y1="0" x2="32.5" y2="65" gradientUnits="userSpaceOnUse">
<stop stop-color="#EAF4FE"/>
<stop offset="1" stop-color="#EAF4FE" stop-opacity="0"/>
</linearGradient>
<linearGradient id="paint2_linear_15040_16657" x1="11.5" y1="0" x2="11.5" y2="23" gradientUnits="userSpaceOnUse">
<stop stop-color="#EAF4FE"/>
<stop offset="1" stop-color="#EAF4FE" stop-opacity="0"/>
</linearGradient>
<clipPath id="clip0_15040_16657">
<rect width="10.5169" height="10.5169" fill="white" transform="translate(76.3813 81.3818)"/>
</clipPath>
<clipPath id="clip1_15040_16657">
<rect width="12.795" height="12.795" fill="white" transform="translate(289.166 359.532)"/>
</clipPath>
<clipPath id="clip2_15040_16657">
<rect width="10.5169" height="10.5169" fill="white" transform="translate(343.594 176.386)"/>
</clipPath>
<clipPath id="clip3_15040_16657">
<rect width="10.5169" height="10.5169" fill="white" transform="translate(343.534 210.443)"/>
</clipPath>
</defs>
</svg>
