<svg width="521" height="407" viewBox="0 0 521 407" fill="none" xmlns="http://www.w3.org/2000/svg">
<circle cx="74.0885" cy="309.746" r="32.362" fill="url(#paint0_linear_15055_22833)"/>
<ellipse cx="35.5" cy="36.5" rx="35.5" ry="36.5" transform="matrix(-4.37114e-08 -1 -1 4.37114e-08 472.999 301)" fill="url(#paint1_linear_15055_22833)"/>
<circle cx="9.66029" cy="9.66029" r="9.66029" transform="matrix(-1 0 0 1 109.451 340.108)" fill="url(#paint2_linear_15055_22833)"/>
<circle opacity="0.3" cx="33.328" cy="33.328" r="33.328" transform="matrix(-1 0 0 1 106.415 17.5908)" fill="url(#paint3_linear_15055_22833)"/>
<rect x="378.5" y="4.5" width="91" height="91" stroke="#D8DEE6" stroke-linecap="square" stroke-linejoin="round" stroke-dasharray="5.8 5.8"/>
<circle opacity="0.4" cx="147.606" cy="303.647" r="15.6183" fill="url(#paint4_linear_15055_22833)"/>
<g filter="url(#filter0_d_15055_22833)">
<rect x="60.0815" y="37.8115" width="386.412" height="286.911" rx="23.7561" fill="white"/>
</g>
<path d="M92.9267 61.479C92.9267 63.8798 90.9804 65.8261 88.5796 65.8261C86.1787 65.8261 84.2324 63.8798 84.2324 61.479C84.2324 59.0781 86.1787 57.1318 88.5796 57.1318C90.9804 57.1318 92.9267 59.0781 92.9267 61.479Z" fill="#FF6259"/>
<path d="M107.417 61.479C107.417 63.8798 105.471 65.8261 103.07 65.8261C100.669 65.8261 98.7227 63.8798 98.7227 61.479C98.7227 59.0781 100.669 57.1318 103.07 57.1318C105.471 57.1318 107.417 59.0781 107.417 61.479Z" fill="#FFBE2F"/>
<path d="M121.907 61.479C121.907 63.8798 119.961 65.8261 117.56 65.8261C115.159 65.8261 113.213 63.8798 113.213 61.479C113.213 59.0781 115.159 57.1318 117.56 57.1318C119.961 57.1318 121.907 59.0781 121.907 61.479Z" fill="#29CD41"/>
<rect x="79.4014" y="85.1465" width="113.233" height="68.3301" rx="7.80916" fill="#F2F5F6"/>
<path d="M142.122 115.712L145.999 115.712C147.607 115.712 148.908 117.288 148.908 119.233C148.908 121.178 147.606 122.755 146 122.755L138.244 122.755C136.638 122.755 135.337 121.179 135.337 119.234C135.337 118.585 134.903 118.06 134.367 118.06C133.832 118.06 133.398 118.585 133.398 119.234C133.398 122.475 135.567 125.103 138.244 125.103L146 125.103C148.677 125.103 150.846 122.475 150.846 119.234C150.847 115.991 148.677 113.364 145.999 113.364H142.122C141.587 113.364 141.153 113.89 141.153 114.538C141.153 115.186 141.587 115.712 142.122 115.712Z" fill="#D8DEE6"/>
<path d="M121.959 119.232C121.959 122.474 124.129 125.102 126.806 125.102L131.458 125.102C131.993 125.102 132.427 124.576 132.427 123.928C132.427 123.28 131.993 122.754 131.458 122.754L126.806 122.754C125.2 122.754 123.898 121.177 123.898 119.232C123.898 117.287 125.199 115.711 126.806 115.711L135.336 115.711C136.942 115.711 138.244 117.287 138.243 119.232C138.243 119.881 138.678 120.406 139.213 120.406C139.748 120.406 140.182 119.881 140.182 119.232C140.182 115.991 138.013 113.363 135.336 113.363L126.806 113.363C124.129 113.363 121.959 115.991 121.959 119.232Z" fill="#D8DEE6"/>
<rect x="209.251" y="88.293" width="218.323" height="10.6263" rx="5.31316" fill="#EBEFF2"/>
<rect x="209.399" y="110.248" width="122" height="11" rx="5.5" fill="#EDF1F4"/>
<rect x="337.399" y="110.248" width="47" height="11" rx="5.5" fill="#EDF1F4"/>
<rect x="209.63" y="131.282" width="161.141" height="4.88072" rx="2.44036" transform="rotate(-0.0292754 209.63 131.282)" fill="#EDF1F4"/>
<rect x="209.399" y="146.248" width="80" height="5" rx="2.5" fill="#EDF1F4"/>
<rect x="296.399" y="146.248" width="34" height="5" rx="2.5" fill="#EDF1F4"/>
<g opacity="0.15">
<path d="M113.459 198.141L108.24 185.935C107.289 183.701 105.872 182.433 104.254 182.35C102.654 182.267 101.103 183.384 99.9191 185.518L96.7509 191.204C96.084 192.405 95.1335 193.122 94.0997 193.205C93.0492 193.305 91.9987 192.755 91.1483 191.671L90.7815 191.204C89.5976 189.72 88.1303 189.003 86.6296 189.153C85.1289 189.303 83.8449 190.337 82.9946 192.021L80.1099 197.774C79.0761 199.858 79.1761 202.276 80.3934 204.244C81.6106 206.211 83.7282 207.395 86.046 207.395H107.322C109.557 207.395 111.641 206.278 112.875 204.41C114.142 202.543 114.342 200.192 113.459 198.141Z" fill="#FF7300"/>
<path d="M88.3664 184.069C91.479 184.069 94.0023 181.545 94.0023 178.433C94.0023 175.32 91.479 172.797 88.3664 172.797C85.2538 172.797 82.7305 175.32 82.7305 178.433C82.7305 181.545 85.2538 184.069 88.3664 184.069Z" fill="#FF7300"/>
</g>
<rect x="79.4014" y="224.965" width="75.2306" height="10.6263" rx="5.31316" fill="#EBEFF2"/>
<rect x="79.4014" y="245.249" width="96.6029" height="4.83014" rx="2.41507" fill="#EBEFF2"/>
<rect x="79.4014" y="256.843" width="49.5838" height="4.83014" rx="2.41507" fill="#EBEFF2"/>
<g opacity="0.15">
<path d="M239.041 198.141L233.822 185.935C232.871 183.701 231.454 182.433 229.836 182.35C228.236 182.267 226.685 183.384 225.501 185.518L222.333 191.204C221.666 192.405 220.716 193.122 219.682 193.205C218.631 193.305 217.581 192.755 216.73 191.671L216.364 191.204C215.18 189.72 213.712 189.003 212.212 189.153C210.711 189.303 209.427 190.337 208.577 192.021L205.692 197.774C204.658 199.858 204.758 202.276 205.975 204.244C207.193 206.211 209.31 207.395 211.628 207.395H232.904C235.139 207.395 237.223 206.278 238.457 204.41C239.724 202.543 239.924 200.192 239.041 198.141Z" fill="#219FFF"/>
<path d="M213.947 184.069C217.06 184.069 219.583 181.545 219.583 178.433C219.583 175.32 217.06 172.797 213.947 172.797C210.835 172.797 208.312 175.32 208.312 178.433C208.312 181.545 210.835 184.069 213.947 184.069Z" fill="#219FFF"/>
</g>
<rect x="204.983" y="224.962" width="75.2306" height="10.6263" rx="5.31316" fill="#EBEFF2"/>
<rect x="204.983" y="245.249" width="96.6029" height="4.83014" rx="2.41507" fill="#EBEFF2"/>
<rect x="204.983" y="256.84" width="49.5838" height="4.83014" rx="2.41507" fill="#EBEFF2"/>
<g opacity="0.15">
<path d="M364.626 198.141L359.407 185.935C358.456 183.701 357.039 182.433 355.421 182.35C353.821 182.267 352.27 183.384 351.086 185.518L347.918 191.204C347.251 192.405 346.301 193.122 345.267 193.205C344.216 193.305 343.166 192.755 342.315 191.671L341.948 191.204C340.765 189.72 339.297 189.003 337.797 189.153C336.296 189.303 335.012 190.337 334.162 192.021L331.277 197.774C330.243 199.858 330.343 202.276 331.56 204.244C332.778 206.211 334.895 207.395 337.213 207.395H358.489C360.724 207.395 362.808 206.278 364.042 204.41C365.309 202.543 365.509 200.192 364.626 198.141Z" fill="#FF4E3E"/>
<path d="M339.532 184.069C342.645 184.069 345.168 181.545 345.168 178.433C345.168 175.32 342.645 172.797 339.532 172.797C336.42 172.797 333.896 175.32 333.896 178.433C333.896 181.545 336.42 184.069 339.532 184.069Z" fill="#FF4E3E"/>
</g>
<rect x="330.568" y="224.962" width="75.2306" height="10.6263" rx="5.31316" fill="#EBEFF2"/>
<rect x="330.568" y="245.248" width="96.6029" height="4.83014" rx="2.41507" fill="#EBEFF2"/>
<circle cx="91.4767" cy="293.069" r="12.0754" fill="#EBEFF2"/>
<g clip-path="url(#clip0_15055_22833)">
<path d="M89.4714 298.154C88.8641 298.154 88.2703 297.974 87.7653 297.637C87.2602 297.3 86.8666 296.82 86.6341 296.259C86.4017 295.698 86.3409 295.081 86.4595 294.485C86.578 293.89 86.8706 293.343 87.3002 292.913L89.0218 291.19L89.9201 292.088L88.1984 293.811C88.0313 293.978 87.8987 294.177 87.8082 294.395C87.7178 294.614 87.6713 294.848 87.6713 295.084C87.6714 295.321 87.718 295.555 87.8085 295.773C87.899 295.992 88.0317 296.19 88.1989 296.357C88.3661 296.525 88.5646 296.657 88.783 296.748C89.0015 296.838 89.2356 296.885 89.4721 296.885C89.7085 296.885 89.9426 296.838 90.1611 296.747C90.3795 296.657 90.578 296.524 90.7451 296.357L92.4672 294.635L93.365 295.533L91.643 297.255C91.3581 297.54 91.0196 297.767 90.6469 297.921C90.2742 298.076 89.8747 298.155 89.4714 298.154Z" fill="#AAB4BE"/>
<path d="M93.9399 294.958L93.0421 294.061L94.7641 292.339C95.0993 292 95.2869 291.543 95.2859 291.067C95.2848 290.591 95.0953 290.135 94.7586 289.798C94.422 289.461 93.9657 289.271 93.4896 289.27C93.0134 289.269 92.5562 289.456 92.2179 289.791L90.4945 291.514L89.5967 290.615L91.32 288.893C91.8972 288.323 92.6764 288.005 93.4874 288.008C94.2984 288.011 95.0755 288.334 95.6489 288.908C96.2223 289.481 96.5455 290.258 96.548 291.069C96.5504 291.88 96.2319 292.659 95.662 293.236L93.9399 294.958Z" fill="#AAB4BE"/>
<path d="M92.4676 291.191L89.5967 294.062L90.4947 294.96L93.3655 292.089L92.4676 291.191Z" fill="#AAB4BE"/>
</g>
<rect x="119.552" y="282.927" width="222.187" height="7.72823" rx="3.86412" fill="#EBEFF2"/>
<rect x="119.552" y="298.383" width="155.531" height="4.83014" rx="2.41507" fill="#EBEFF2"/>
<g filter="url(#filter1_d_15055_22833)">
<path d="M361 292.772C361 285.808 361 282.327 363.163 280.163C365.326 278 368.808 278 375.771 278H469.016C475.979 278 479.461 278 481.624 280.163C483.787 282.327 483.787 285.808 483.787 292.772V318.01C483.787 324.973 483.787 328.455 481.624 330.618C479.461 332.781 475.979 332.781 469.016 332.781H397.756C395.351 332.781 394.149 332.781 393.026 333.15C391.904 333.519 390.935 334.232 388.999 335.657L375.771 345.395L375.324 339.13C375.056 335.377 371.933 332.47 368.171 332.47V332.47C364.211 332.47 361 329.259 361 325.299V292.772Z" fill="white"/>
</g>
<circle cx="388.698" cy="304.777" r="17.541" fill="white" fill-opacity="0.8" stroke="#EBEFF2" stroke-width="0.923211" stroke-linecap="round"/>
<path opacity="0.15" d="M388.846 303.735C388.754 303.726 388.643 303.726 388.542 303.735C386.344 303.661 384.6 301.861 384.6 299.645C384.6 297.383 386.428 295.546 388.699 295.546C390.961 295.546 392.798 297.383 392.798 299.645C392.788 301.861 391.044 303.661 388.846 303.735Z" fill="#FF7300"/>
<path d="M384.23 307.141C381.996 308.637 381.996 311.074 384.23 312.56C386.769 314.259 390.933 314.259 393.472 312.56C395.706 311.065 395.706 308.628 393.472 307.141C390.942 305.452 386.778 305.452 384.23 307.141Z" stroke="#FF7300" stroke-width="1.38482" stroke-linecap="round" stroke-linejoin="round"/>
<rect x="415.471" y="292.774" width="60.0087" height="6.60825" rx="3.30412" fill="#EBEFF2"/>
<rect x="415.471" y="303.998" width="16.6178" height="3.69285" rx="1.84642" fill="#EBEFF2"/>
<rect x="436.704" y="303.998" width="28.6195" height="3.69285" rx="1.84642" fill="#EBEFF2"/>
<rect x="415.471" y="312.308" width="54.4695" height="3.69285" rx="1.84642" fill="#EBEFF2"/>
<rect x="301.588" y="18.5889" width="115.923" height="34.777" rx="5.79617" fill="#0061BF"/>
<path d="M310.282 28.1551C310.282 27.3548 310.931 26.7061 311.731 26.7061C312.532 26.7061 313.18 27.3548 313.18 28.1551V47.5723H310.282V28.1551Z" fill="white"/>
<path d="M319.942 35.8826C319.942 35.0824 320.591 34.4336 321.391 34.4336C322.192 34.4336 322.84 35.0824 322.84 35.8826V47.5716H319.942V35.8826Z" fill="white"/>
<path d="M329.604 32.0194C329.604 31.2191 330.253 30.5703 331.054 30.5703C331.854 30.5703 332.503 31.2191 332.503 32.0194V47.5724H329.604V32.0194Z" fill="white"/>
<path d="M339.263 28.1551C339.263 27.3548 339.911 26.7061 340.712 26.7061C341.512 26.7061 342.161 27.3548 342.161 28.1551V47.5723H339.263V28.1551Z" fill="white"/>
<path d="M348.924 33.5643C348.924 32.764 349.573 32.1152 350.373 32.1152C351.173 32.1152 351.822 32.764 351.822 33.5643V47.5717H348.924V33.5643Z" fill="white"/>
<path d="M358.583 36.6561C358.583 35.8558 359.232 35.207 360.032 35.207C360.832 35.207 361.481 35.8558 361.481 36.6561V47.5722H358.583V36.6561Z" fill="white"/>
<path d="M368.244 25.8367C368.244 25.0365 368.893 24.3877 369.693 24.3877C370.493 24.3877 371.142 25.0365 371.142 25.8367V47.5724H368.244V25.8367Z" fill="white"/>
<path d="M377.904 36.6561C377.904 35.8558 378.553 35.207 379.353 35.207C380.154 35.207 380.802 35.8558 380.802 36.6561V47.5722H377.904V36.6561Z" fill="white"/>
<path d="M387.563 31.2459C387.563 30.4456 388.212 29.7969 389.013 29.7969C389.813 29.7969 390.462 30.4456 390.462 31.2459V47.5718H387.563V31.2459Z" fill="white"/>
<path d="M397.226 33.5643C397.226 32.764 397.874 32.1152 398.675 32.1152C399.475 32.1152 400.124 32.764 400.124 33.5643V47.5717H397.226V33.5643Z" fill="white"/>
<path d="M406.885 30.4725C406.885 29.6722 407.534 29.0234 408.334 29.0234C409.134 29.0234 409.783 29.6722 409.783 30.4725V47.5712H406.885V30.4725Z" fill="white"/>
<defs>
<filter id="filter0_d_15055_22833" x="0.691296" y="0.692623" width="505.192" height="405.691" filterUnits="userSpaceOnUse" color-interpolation-filters="sRGB">
<feFlood flood-opacity="0" result="BackgroundImageFix"/>
<feColorMatrix in="SourceAlpha" type="matrix" values="0 0 0 0 0 0 0 0 0 0 0 0 0 0 0 0 0 0 127 0" result="hardAlpha"/>
<feOffset dy="22.2713"/>
<feGaussianBlur stdDeviation="29.6951"/>
<feComposite in2="hardAlpha" operator="out"/>
<feColorMatrix type="matrix" values="0 0 0 0 0.117647 0 0 0 0 0.129412 0 0 0 0 0.176471 0 0 0 0.08 0"/>
<feBlend mode="normal" in2="BackgroundImageFix" result="effect1_dropShadow_15055_22833"/>
<feBlend mode="normal" in="SourceGraphic" in2="effect1_dropShadow_15055_22833" result="shape"/>
</filter>
<filter id="filter1_d_15055_22833" x="324.072" y="254.92" width="196.644" height="141.251" filterUnits="userSpaceOnUse" color-interpolation-filters="sRGB">
<feFlood flood-opacity="0" result="BackgroundImageFix"/>
<feColorMatrix in="SourceAlpha" type="matrix" values="0 0 0 0 0 0 0 0 0 0 0 0 0 0 0 0 0 0 127 0" result="hardAlpha"/>
<feOffset dy="13.8482"/>
<feGaussianBlur stdDeviation="18.4642"/>
<feComposite in2="hardAlpha" operator="out"/>
<feColorMatrix type="matrix" values="0 0 0 0 0.117647 0 0 0 0 0.129412 0 0 0 0 0.176471 0 0 0 0.08 0"/>
<feBlend mode="normal" in2="BackgroundImageFix" result="effect1_dropShadow_15055_22833"/>
<feBlend mode="normal" in="SourceGraphic" in2="effect1_dropShadow_15055_22833" result="shape"/>
</filter>
<linearGradient id="paint0_linear_15055_22833" x1="74.0885" y1="277.384" x2="74.0885" y2="342.108" gradientUnits="userSpaceOnUse">
<stop stop-color="#EAF4FE"/>
<stop offset="1" stop-color="#EAF4FE" stop-opacity="0"/>
</linearGradient>
<linearGradient id="paint1_linear_15055_22833" x1="35.5" y1="0" x2="35.5" y2="73" gradientUnits="userSpaceOnUse">
<stop stop-color="#EAF4FE"/>
<stop offset="1" stop-color="#EAF4FE" stop-opacity="0"/>
</linearGradient>
<linearGradient id="paint2_linear_15055_22833" x1="9.66029" y1="0" x2="9.66029" y2="19.3206" gradientUnits="userSpaceOnUse">
<stop stop-color="#EAF4FE"/>
<stop offset="1" stop-color="#EAF4FE" stop-opacity="0"/>
</linearGradient>
<linearGradient id="paint3_linear_15055_22833" x1="80.5932" y1="43.9324" x2="6.6656" y2="16.058" gradientUnits="userSpaceOnUse">
<stop stop-color="#FF7300" stop-opacity="0.46"/>
<stop offset="1" stop-color="#FF7300" stop-opacity="0"/>
</linearGradient>
<linearGradient id="paint4_linear_15055_22833" x1="149.432" y1="325.863" x2="146.599" y2="289.22" gradientUnits="userSpaceOnUse">
<stop stop-color="#46BDF0" stop-opacity="0.34"/>
<stop offset="1" stop-color="#61D0FF" stop-opacity="0"/>
</linearGradient>
<clipPath id="clip0_15055_22833">
<rect width="10.1596" height="10.1596" fill="white" transform="translate(86.4014 287.994)"/>
</clipPath>
</defs>
</svg>
