<svg width="504" height="387" viewBox="0 0 504 387" fill="none" xmlns="http://www.w3.org/2000/svg">
<circle opacity="0.3" cx="40" cy="40" r="40" transform="matrix(1 0 0 -1 23 102)" fill="url(#paint0_linear_15067_23775)"/>
<circle opacity="0.3" cx="11" cy="11" r="11" transform="matrix(1 0 0 -1 17 129)" fill="url(#paint1_linear_15067_23775)"/>
<circle opacity="0.3" cx="11" cy="11" r="11" transform="matrix(1 0 0 -1 477 22)" fill="url(#paint2_linear_15067_23775)"/>
<circle cx="33.5" cy="33.5" r="33.5" transform="matrix(1 0 0 -1 405 341)" fill="url(#paint3_linear_15067_23775)"/>
<circle cx="476" cy="260" r="12" fill="url(#paint4_linear_15067_23775)"/>
<g filter="url(#filter0_d_15067_23775)">
<rect x="52" y="47" width="400" height="269" rx="20.5665" fill="white"/>
</g>
<rect x="110" y="257" width="163" height="10" rx="5" fill="#EBEFF2"/>
<rect x="110" y="276.777" width="135" height="5" rx="2.5" fill="#EBEFF2"/>
<rect x="110" y="291.555" width="109" height="5" rx="2.5" fill="#EBEFF2"/>
<rect x="77.0864" y="258.086" width="21.7279" height="21.7279" rx="2.17279" stroke="#EBEFF2" stroke-width="2.17279"/>
<rect x="76" y="145" width="78.712" height="62.47" rx="10.4117" fill="#F2F5F6"/>
<rect x="76" y="213.978" width="78.3204" height="10.4117" rx="5.20583" fill="#F2F5F6"/>
<rect x="76" y="230.896" width="52.8663" height="5.20583" rx="2.60292" fill="#F2F5F6"/>
<rect x="166.712" y="145" width="78.712" height="62.47" rx="10.4117" fill="#F2F5F6"/>
<rect x="167.96" y="213.978" width="78.3204" height="10.4117" rx="5.20583" fill="#F2F5F6"/>
<rect x="167.96" y="230.896" width="52.8663" height="5.20583" rx="2.60292" fill="#F2F5F6"/>
<rect x="258.28" y="145" width="78.712" height="62.47" rx="10.4117" fill="#F2F5F6"/>
<rect x="348.993" y="145" width="78.712" height="62.47" rx="10.4117" fill="#F2F5F6"/>
<rect x="76" y="67" width="352" height="64" rx="8" fill="#F2F5F6"/>
<g opacity="0.5" clip-path="url(#clip0_15067_23775)">
<path d="M374.626 77.0008C373.725 77.139 373.84 78.3758 374.692 78.3758C374.692 78.3758 382.989 78.3872 389.362 79.5735C392.601 80.1763 395.12 81.0612 396.011 82.1771C396.409 82.6746 396.403 83.202 396.072 83.8166C395.67 84.5608 394.663 85.5714 392.875 86.7397C390.702 88.159 389.348 89.3505 388.632 90.4954C388.274 91.0678 388.075 91.643 388.078 92.2154C388.081 92.7879 388.302 93.3266 388.646 93.7636C389.335 94.6375 390.466 95.206 391.854 95.7025C392.926 96.0859 394.181 96.4172 395.512 96.719L386.436 105.797C383.852 105.837 381.445 106.069 379.426 106.729C377.371 107.401 375.681 108.549 374.767 110.379C373.605 112.704 374.19 114.852 375.031 116.347C375.872 117.843 377 118.778 377 118.778C377.703 119.367 378.587 118.311 377.883 117.722C377.883 117.722 376.945 116.937 376.24 115.683C375.562 114.477 375.081 112.828 375.996 110.998C376.713 109.562 378.019 108.639 379.853 108.04C381.301 107.567 383.07 107.317 385.008 107.218L380.994 111.237C380.901 111.328 380.836 111.444 380.807 111.571L378.827 120.158C378.713 120.664 379.157 121.093 379.649 120.982L388.241 119C388.366 118.972 388.483 118.903 388.574 118.813L399.629 107.759C402.624 107.885 405.44 107.877 407.775 107.43C410.182 106.969 412.168 106.002 413.108 104.122C413.476 103.386 413.617 102.667 413.488 101.964C413.362 101.279 412.982 100.686 412.469 100.198C411.638 99.4081 410.398 98.8131 409.044 98.3424L416.975 90.4094C418.35 89.0344 418.334 86.835 416.975 85.4762L414.331 82.8323C413.652 82.1529 412.759 81.8038 411.865 81.8038C410.97 81.8038 410.077 82.1529 409.398 82.8323L407.451 84.7793C407.438 84.79 407.428 84.8011 407.415 84.8129L404.111 88.1187C404.105 88.1244 404.1 88.1303 404.095 88.1362L396.67 95.5615C395.035 95.2118 393.519 94.8382 392.317 94.4081C391.036 93.9502 390.116 93.4019 389.729 92.911C389.536 92.6655 389.456 92.4386 389.454 92.2101C389.453 91.9761 389.54 91.6355 389.799 91.2205C390.318 90.3903 391.536 89.252 393.626 87.8864C395.514 86.6532 396.686 85.5665 397.279 84.4705C397.94 83.2505 397.746 82.1717 397.097 81.3352C395.91 79.8064 393 78.8545 389.613 78.224C383.032 76.9992 374.692 77.0008 374.692 77.0008C374.672 76.9997 374.648 76.9997 374.626 77.0008ZM411.865 83.1841C412.404 83.1841 412.943 83.3873 413.362 83.8058L416 86.4457C416.832 87.2773 416.837 88.603 416 89.44L414.506 90.9358L408.872 85.3016L410.367 83.8058C410.786 83.3873 411.325 83.1841 411.865 83.1841ZM407.9 86.2738L413.534 91.9079L411.204 94.2363L405.571 88.6034L407.9 86.2738ZM404.598 89.5756L410.232 95.2097L389.168 116.276L388.759 114.231C388.695 113.909 388.412 113.678 388.084 113.678H386.13V111.724C386.13 111.396 385.899 111.113 385.577 111.049L383.538 110.642L404.598 89.5756ZM407.955 99.4286C409.629 99.9624 410.85 100.552 411.525 101.193C411.886 101.536 412.069 101.865 412.133 102.214C412.197 102.562 412.149 102.968 411.879 103.507C411.202 104.862 409.716 105.654 407.515 106.075C405.693 106.424 403.42 106.489 400.959 106.426L407.955 99.4286ZM382.365 111.811L384.755 112.287V114.368C384.755 114.746 385.063 115.053 385.44 115.053H387.52L387.998 117.446L387.739 117.705L385.083 118.318L381.493 114.729L382.104 112.071L382.365 111.811ZM381.127 116.308L383.497 118.682L380.416 119.391L381.127 116.308Z" fill="#0061BF"/>
</g>
<g opacity="0.5">
<path d="M99.1527 83.0592C99.1527 85.3011 97.3277 87.1185 95.0764 87.1185C92.8251 87.1185 91 85.3011 91 83.0592C91 80.8174 92.8251 79 95.0764 79C97.3277 79 99.1527 80.8174 99.1527 83.0592Z" fill="#AAB4BE"/>
<path d="M113.129 83.0592C113.129 85.3011 111.304 87.1185 109.053 87.1185C106.802 87.1185 104.977 85.3011 104.977 83.0592C104.977 80.8174 106.802 79 109.053 79C111.304 79 113.129 80.8174 113.129 83.0592Z" fill="#AAB4BE"/>
<path d="M127.105 83.0592C127.105 85.3011 125.28 87.1185 123.029 87.1185C120.777 87.1185 118.952 85.3011 118.952 83.0592C118.952 80.8174 120.777 79 123.029 79C125.28 79 127.105 80.8174 127.105 83.0592Z" fill="#AAB4BE"/>
</g>
<rect x="300" y="223" width="129" height="75" rx="12" fill="white" stroke="#EBEFF2" stroke-linecap="round"/>
<rect x="311" y="257.5" width="86" height="7" rx="3.5" fill="#EBEFF2"/>
<g clip-path="url(#clip1_15067_23775)">
<path d="M417.857 260.64L414.62 257.21C414.421 256.999 414.089 256.989 413.877 257.188C413.667 257.387 413.657 257.719 413.856 257.93L416.754 261L413.856 264.07C413.657 264.281 413.667 264.613 413.877 264.812C413.979 264.908 414.109 264.955 414.238 264.955C414.377 264.955 414.517 264.9 414.62 264.791L417.857 261.361C418.048 261.158 418.048 260.842 417.857 260.64Z" fill="#AAB4BE"/>
<path d="M408.144 264.07L405.247 261L408.144 257.93C408.343 257.719 408.334 257.387 408.123 257.188C407.912 256.989 407.58 256.999 407.381 257.21L404.143 260.64C403.952 260.842 403.952 261.158 404.143 261.36L407.381 264.791C407.484 264.9 407.623 264.955 407.763 264.955C407.892 264.955 408.022 264.908 408.123 264.812C408.334 264.613 408.343 264.281 408.144 264.07Z" fill="#AAB4BE"/>
<path d="M411.85 255.441C411.563 255.397 411.295 255.594 411.251 255.88L409.711 265.96C409.667 266.247 409.864 266.515 410.151 266.559C410.178 266.563 410.204 266.565 410.231 266.565C410.486 266.565 410.71 266.379 410.749 266.119L412.289 256.039C412.333 255.752 412.136 255.484 411.85 255.441Z" fill="#AAB4BE"/>
</g>
<g clip-path="url(#clip2_15067_23775)">
<path d="M324.857 280.64L321.62 277.21C321.421 276.999 321.089 276.989 320.877 277.188C320.667 277.387 320.657 277.719 320.856 277.93L323.754 281L320.856 284.07C320.657 284.281 320.667 284.613 320.877 284.812C320.979 284.908 321.109 284.955 321.238 284.955C321.377 284.955 321.517 284.9 321.62 284.791L324.857 281.361C325.048 281.158 325.048 280.842 324.857 280.64Z" fill="#AAB4BE"/>
<path d="M315.144 284.07L312.247 281L315.144 277.93C315.343 277.719 315.334 277.387 315.123 277.188C314.912 276.989 314.58 276.999 314.381 277.21L311.143 280.64C310.952 280.842 310.952 281.158 311.143 281.36L314.381 284.791C314.484 284.9 314.623 284.955 314.763 284.955C314.892 284.955 315.022 284.908 315.123 284.812C315.334 284.613 315.343 284.281 315.144 284.07Z" fill="#AAB4BE"/>
<path d="M318.85 275.441C318.563 275.397 318.295 275.594 318.251 275.88L316.711 285.96C316.667 286.247 316.864 286.515 317.151 286.559C317.178 286.563 317.204 286.565 317.231 286.565C317.486 286.565 317.71 286.379 317.749 286.119L319.289 276.039C319.333 275.752 319.136 275.484 318.85 275.441Z" fill="#AAB4BE"/>
</g>
<rect x="329" y="278" width="45" height="6" rx="3" fill="#EBEFF2"/>
<rect x="378" y="278" width="15" height="6" rx="3" fill="#EBEFF2"/>
<rect x="397" y="278.5" width="21" height="5" rx="2.5" fill="#EBEFF2"/>
<path d="M313.14 243.01L311.25 236H312.39L313.78 241.8L315.38 236H316.55L318.1 241.8L319.49 236H320.63L318.71 243H317.47L315.94 237.51L314.36 243L313.14 243.01ZM321.436 243V238.04H322.386L322.476 238.98C322.649 238.653 322.889 238.397 323.196 238.21C323.509 238.017 323.886 237.92 324.326 237.92V239.03H324.036C323.742 239.03 323.479 239.08 323.246 239.18C323.019 239.273 322.836 239.437 322.696 239.67C322.562 239.897 322.496 240.213 322.496 240.62V243H321.436ZM325.834 237.1C325.634 237.1 325.468 237.04 325.334 236.92C325.208 236.793 325.144 236.637 325.144 236.45C325.144 236.263 325.208 236.11 325.334 235.99C325.468 235.863 325.634 235.8 325.834 235.8C326.034 235.8 326.198 235.863 326.324 235.99C326.458 236.11 326.524 236.263 326.524 236.45C326.524 236.637 326.458 236.793 326.324 236.92C326.198 237.04 326.034 237.1 325.834 237.1ZM325.304 243V238.04H326.364V243H325.304ZM329.844 243C329.357 243 328.97 242.883 328.684 242.65C328.397 242.41 328.254 241.987 328.254 241.38V238.93H327.404V238.04H328.254L328.384 236.78H329.314V238.04H330.714V238.93H329.314V241.38C329.314 241.653 329.37 241.843 329.484 241.95C329.604 242.05 329.807 242.1 330.094 242.1H330.664V243H329.844ZM334 243.12C333.513 243.12 333.08 243.013 332.7 242.8C332.326 242.58 332.033 242.277 331.82 241.89C331.606 241.503 331.5 241.053 331.5 240.54C331.5 240.02 331.603 239.563 331.81 239.17C332.023 238.777 332.316 238.47 332.69 238.25C333.07 238.03 333.51 237.92 334.01 237.92C334.496 237.92 334.92 238.03 335.28 238.25C335.64 238.463 335.92 238.75 336.12 239.11C336.32 239.47 336.42 239.867 336.42 240.3C336.42 240.367 336.416 240.44 336.41 240.52C336.41 240.593 336.406 240.677 336.4 240.77H332.54C332.573 241.25 332.73 241.617 333.01 241.87C333.296 242.117 333.626 242.24 334 242.24C334.3 242.24 334.55 242.173 334.75 242.04C334.956 241.9 335.11 241.713 335.21 241.48H336.27C336.136 241.947 335.87 242.337 335.47 242.65C335.076 242.963 334.586 243.12 334 243.12ZM334 238.79C333.646 238.79 333.333 238.897 333.06 239.11C332.786 239.317 332.62 239.63 332.56 240.05H335.36C335.34 239.663 335.203 239.357 334.95 239.13C334.696 238.903 334.38 238.79 334 238.79ZM340.079 243V236H344.469V236.86H341.139V239.07H343.899V239.92H341.139V243H340.079ZM347.545 243.12C347.071 243.12 346.645 243.013 346.265 242.8C345.891 242.58 345.595 242.277 345.375 241.89C345.155 241.497 345.045 241.04 345.045 240.52C345.045 240 345.155 239.547 345.375 239.16C345.601 238.767 345.905 238.463 346.285 238.25C346.665 238.03 347.088 237.92 347.555 237.92C348.028 237.92 348.451 238.03 348.825 238.25C349.205 238.463 349.505 238.767 349.725 239.16C349.951 239.547 350.065 240 350.065 240.52C350.065 241.04 349.951 241.497 349.725 241.89C349.505 242.277 349.205 242.58 348.825 242.8C348.445 243.013 348.018 243.12 347.545 243.12ZM347.545 242.21C347.798 242.21 348.031 242.147 348.245 242.02C348.465 241.893 348.641 241.707 348.775 241.46C348.908 241.207 348.975 240.893 348.975 240.52C348.975 240.147 348.908 239.837 348.775 239.59C348.648 239.337 348.475 239.147 348.255 239.02C348.041 238.893 347.808 238.83 347.555 238.83C347.301 238.83 347.065 238.893 346.845 239.02C346.631 239.147 346.458 239.337 346.325 239.59C346.191 239.837 346.125 240.147 346.125 240.52C346.125 240.893 346.191 241.207 346.325 241.46C346.458 241.707 346.631 241.893 346.845 242.02C347.058 242.147 347.291 242.21 347.545 242.21ZM351.211 243V238.04H352.161L352.251 238.98C352.424 238.653 352.664 238.397 352.971 238.21C353.284 238.017 353.661 237.92 354.101 237.92V239.03H353.811C353.518 239.03 353.254 239.08 353.021 239.18C352.794 239.273 352.611 239.437 352.471 239.67C352.338 239.897 352.271 240.213 352.271 240.62V243H351.211ZM360.189 243.12C359.689 243.12 359.236 243.023 358.829 242.83C358.429 242.63 358.109 242.327 357.869 241.92C357.636 241.513 357.519 240.997 357.519 240.37V236H358.579V240.38C358.579 240.993 358.726 241.443 359.019 241.73C359.313 242.017 359.709 242.16 360.209 242.16C360.703 242.16 361.096 242.017 361.389 241.73C361.683 241.443 361.829 240.993 361.829 240.38V236H362.889V240.37C362.889 240.997 362.766 241.513 362.519 241.92C362.279 242.327 361.953 242.63 361.539 242.83C361.133 243.023 360.683 243.12 360.189 243.12ZM366.189 243.12C365.562 243.12 365.046 242.967 364.639 242.66C364.232 242.353 363.999 241.947 363.939 241.44H365.009C365.062 241.667 365.189 241.863 365.389 242.03C365.589 242.19 365.852 242.27 366.179 242.27C366.499 242.27 366.732 242.203 366.879 242.07C367.026 241.937 367.099 241.783 367.099 241.61C367.099 241.357 366.996 241.187 366.789 241.1C366.589 241.007 366.309 240.923 365.949 240.85C365.669 240.79 365.389 240.71 365.109 240.61C364.836 240.51 364.606 240.37 364.419 240.19C364.239 240.003 364.149 239.753 364.149 239.44C364.149 239.007 364.316 238.647 364.649 238.36C364.982 238.067 365.449 237.92 366.049 237.92C366.602 237.92 367.049 238.053 367.389 238.32C367.736 238.587 367.939 238.963 367.999 239.45H366.979C366.946 239.237 366.846 239.07 366.679 238.95C366.519 238.83 366.302 238.77 366.029 238.77C365.762 238.77 365.556 238.827 365.409 238.94C365.262 239.047 365.189 239.187 365.189 239.36C365.189 239.533 365.289 239.67 365.489 239.77C365.696 239.87 365.966 239.96 366.299 240.04C366.632 240.113 366.939 240.2 367.219 240.3C367.506 240.393 367.736 240.533 367.909 240.72C368.082 240.907 368.169 241.18 368.169 241.54C368.176 241.993 367.999 242.37 367.639 242.67C367.286 242.97 366.802 243.12 366.189 243.12Z" fill="#495B6D"/>
<defs>
<filter id="filter0_d_15067_23775" x="0.583675" y="14.8648" width="502.833" height="371.833" filterUnits="userSpaceOnUse" color-interpolation-filters="sRGB">
<feFlood flood-opacity="0" result="BackgroundImageFix"/>
<feColorMatrix in="SourceAlpha" type="matrix" values="0 0 0 0 0 0 0 0 0 0 0 0 0 0 0 0 0 0 127 0" result="hardAlpha"/>
<feOffset dy="19.2811"/>
<feGaussianBlur stdDeviation="25.7082"/>
<feComposite in2="hardAlpha" operator="out"/>
<feColorMatrix type="matrix" values="0 0 0 0 0.117647 0 0 0 0 0.129412 0 0 0 0 0.176471 0 0 0 0.08 0"/>
<feBlend mode="normal" in2="BackgroundImageFix" result="effect1_dropShadow_15067_23775"/>
<feBlend mode="normal" in="SourceGraphic" in2="effect1_dropShadow_15067_23775" result="shape"/>
</filter>
<linearGradient id="paint0_linear_15067_23775" x1="96.7273" y1="52.7273" x2="8" y2="19.2727" gradientUnits="userSpaceOnUse">
<stop stop-color="#FF7300" stop-opacity="0.46"/>
<stop offset="1" stop-color="#FF7300" stop-opacity="0"/>
</linearGradient>
<linearGradient id="paint1_linear_15067_23775" x1="26.6" y1="14.5" x2="2.2" y2="5.3" gradientUnits="userSpaceOnUse">
<stop stop-color="#FF7300" stop-opacity="0.46"/>
<stop offset="1" stop-color="#FF7300" stop-opacity="0"/>
</linearGradient>
<linearGradient id="paint2_linear_15067_23775" x1="26.6" y1="14.5" x2="2.2" y2="5.3" gradientUnits="userSpaceOnUse">
<stop stop-color="#FF7300" stop-opacity="0.46"/>
<stop offset="1" stop-color="#FF7300" stop-opacity="0"/>
</linearGradient>
<linearGradient id="paint3_linear_15067_23775" x1="17.7353" y1="-1.57647" x2="45.3235" y2="61.0882" gradientUnits="userSpaceOnUse">
<stop stop-color="#EAF4FE" stop-opacity="0.65"/>
<stop offset="1" stop-color="#EAF4FE" stop-opacity="0"/>
</linearGradient>
<linearGradient id="paint4_linear_15067_23775" x1="476" y1="248" x2="476" y2="272" gradientUnits="userSpaceOnUse">
<stop stop-color="#EAF4FE"/>
<stop offset="1" stop-color="#EAF4FE" stop-opacity="0"/>
</linearGradient>
<clipPath id="clip0_15067_23775">
<rect width="44" height="44" fill="white" transform="translate(374 77)"/>
</clipPath>
<clipPath id="clip1_15067_23775">
<rect width="14" height="14" fill="white" transform="translate(404 254)"/>
</clipPath>
<clipPath id="clip2_15067_23775">
<rect width="14" height="14" fill="white" transform="translate(311 274)"/>
</clipPath>
</defs>
</svg>
