<svg width="18" height="22" viewBox="0 0 18 22" fill="none" xmlns="http://www.w3.org/2000/svg">
<rect width="18" height="22" rx="6" fill="#009FD3"/>
<path d="M10.808 16.812L9.716 15.06C9.612 15.084 9.496 15.1 9.368 15.108C9.24 15.124 9.108 15.132 8.972 15.132C8.1 15.132 7.408 14.98 6.896 14.676C6.392 14.372 6.032 13.908 5.816 13.284C5.6 12.66 5.492 11.876 5.492 10.932C5.492 9.98 5.6 9.192 5.816 8.568C6.032 7.936 6.392 7.46 6.896 7.14C7.408 6.82 8.1 6.66 8.972 6.66C9.844 6.66 10.532 6.82 11.036 7.14C11.548 7.452 11.912 7.924 12.128 8.556C12.352 9.188 12.464 9.98 12.464 10.932C12.464 11.844 12.368 12.604 12.176 13.212C11.984 13.812 11.652 14.268 11.18 14.58L12.176 16.152L10.808 16.812ZM8.972 13.74C9.476 13.74 9.856 13.64 10.112 13.44C10.368 13.232 10.54 12.92 10.628 12.504C10.724 12.08 10.772 11.556 10.772 10.932C10.772 10.316 10.724 9.796 10.628 9.372C10.54 8.94 10.364 8.612 10.1 8.388C9.844 8.164 9.468 8.052 8.972 8.052C8.476 8.052 8.096 8.164 7.832 8.388C7.576 8.612 7.396 8.936 7.292 9.36C7.196 9.784 7.148 10.308 7.148 10.932C7.148 11.548 7.196 12.068 7.292 12.492C7.388 12.908 7.564 13.22 7.82 13.428C8.084 13.636 8.468 13.74 8.972 13.74Z" fill="white"/>
</svg>
