<svg width="40" height="40" viewBox="0 0 40 40" fill="none" xmlns="http://www.w3.org/2000/svg">
<path d="M36.666 8.583V13.083C36.666 16.833 35.166 18.333 31.416 18.333H26.916C23.166 18.333 21.666 16.833 21.666 13.083V8.583C21.666 4.833 23.166 3.33301 26.916 3.33301H31.416C35.166 3.33301 36.666 4.833 36.666 8.583Z" stroke="#0061BF" stroke-width="2" stroke-linecap="round" stroke-linejoin="round"/>
<path d="M18.334 26.917V31.417C18.334 35.167 16.834 36.667 13.084 36.667H8.58399C4.83399 36.667 3.33398 35.167 3.33398 31.417V26.917C3.33398 23.167 4.83399 21.667 8.58399 21.667H13.084C16.834 21.667 18.334 23.167 18.334 26.917Z" stroke="#FF7300" stroke-width="2" stroke-linecap="round" stroke-linejoin="round"/>
<path d="M28.9665 18.3332V22.6999C28.9665 27.1832 27.1832 28.9666 22.6999 28.9666H18.3332V26.9165C18.3332 23.1665 16.8332 21.6665 13.0832 21.6665H11.0332V17.2999C11.0332 12.8166 12.8165 11.0332 17.2999 11.0332H21.6665V13.0832C21.6665 16.8332 23.1665 18.3332 26.9165 18.3332H28.9665Z" stroke="#FF7300" stroke-width="2" stroke-linecap="round" stroke-linejoin="round"/>
</svg>
