<svg width="40" height="40" viewBox="0 0 40 40" fill="none" xmlns="http://www.w3.org/2000/svg">
<path d="M11.168 15.4336L20.0013 20.5503L28.768 15.4669" stroke="#FF7300" stroke-width="2" stroke-linecap="round" stroke-linejoin="round"/>
<path d="M20.002 29.6165V20.5332" stroke="#FF7300" stroke-width="2" stroke-linecap="round" stroke-linejoin="round"/>
<path d="M17.9338 10.4837L12.6004 13.4504C11.4004 14.1171 10.4004 15.8004 10.4004 17.1837V22.8337C10.4004 24.2171 11.3837 25.9004 12.6004 26.5671L17.9338 29.5337C19.0671 30.1671 20.9337 30.1671 22.0837 29.5337L27.4171 26.5671C28.6171 25.9004 29.6171 24.2171 29.6171 22.8337V17.1671C29.6171 15.7837 28.6338 14.1004 27.4171 13.4337L22.0837 10.4671C20.9337 9.83374 19.0671 9.83375 17.9338 10.4837Z" stroke="#FF7300" stroke-width="2" stroke-linecap="round" stroke-linejoin="round"/>
<path d="M36.6667 25C36.6667 31.45 31.45 36.6667 25 36.6667L26.75 33.75" stroke="#0061BF" stroke-width="1.5" stroke-linecap="round" stroke-linejoin="round"/>
<path d="M3.33398 14.9997C3.33398 8.54967 8.55065 3.33301 15.0007 3.33301L13.2507 6.24967" stroke="#0061BF" stroke-width="1.5" stroke-linecap="round" stroke-linejoin="round"/>
</svg>
