<svg width="40" height="40" viewBox="0 0 40 40" fill="none" xmlns="http://www.w3.org/2000/svg">
<path d="M13.2332 24.1835C12.1999 23.8001 11.2832 23.0501 10.6999 21.9835C9.36653 19.5501 10.1832 16.3835 12.5499 14.9168L16.4499 12.5001C18.7999 11.0335 21.8332 11.8334 23.1665 14.2501C24.4999 16.6834 23.6832 19.8501 21.3165 21.3168L20.7999 21.6835" stroke="#0061BF" stroke-width="2" stroke-linecap="round" stroke-linejoin="round"/>
<path d="M26.85 15.75C27.8833 16.1333 28.8 16.8833 29.3833 17.95C30.7167 20.3833 29.9 23.55 27.5333 25.0167L23.6333 27.4333C21.2833 28.9 18.25 28.1 16.9167 25.6833C15.5833 23.25 16.4 20.0833 18.7667 18.6167L19.2833 18.25" stroke="#0061BF" stroke-width="2" stroke-linecap="round" stroke-linejoin="round"/>
<path d="M20.0007 36.6663C29.2054 36.6663 36.6673 29.2044 36.6673 19.9997C36.6673 10.7949 29.2054 3.33301 20.0007 3.33301C10.7959 3.33301 3.33398 10.7949 3.33398 19.9997C3.33398 29.2044 10.7959 36.6663 20.0007 36.6663Z" stroke="#FF7300" stroke-width="2" stroke-linecap="round" stroke-linejoin="round"/>
</svg>
