<svg width="30" height="30" viewBox="0 0 30 30" fill="none" xmlns="http://www.w3.org/2000/svg">
<path d="M12.1758 4.21875H0.878906C0.393448 4.21875 0 4.6122 0 5.09766V16.3946C0 16.88 0.393448 17.2735 0.878906 17.2735H5.64835V24.8673C5.64835 25.3526 6.04179 25.7462 6.52725 25.7462H9.35165C9.73 25.7462 10.0658 25.5041 10.1852 25.1452L13.0094 16.6724C13.0394 16.5829 13.0547 16.4891 13.0547 16.3946V5.09766C13.0547 4.6122 12.6613 4.21875 12.1758 4.21875Z" fill="#009FD3"/>
<path d="M29.1211 4.21875H17.8242C17.3388 4.21875 16.9453 4.6122 16.9453 5.09766V16.3946C16.9453 16.88 17.3388 17.2735 17.8242 17.2735H22.5939V24.8673C22.5939 25.3526 22.9873 25.7462 23.4728 25.7462H26.297C26.6753 25.7462 27.0111 25.5041 27.1308 25.1452L29.955 16.6724C29.9847 16.5829 30 16.4891 30 16.3946V5.09766C30 4.6122 29.6066 4.21875 29.1211 4.21875Z" fill="#009FD3"/>
</svg>
