<svg width="508" height="508" viewBox="0 0 508 508" fill="none" xmlns="http://www.w3.org/2000/svg">
<circle cx="254" cy="254" r="254" transform="matrix(-1 0 0 1 508 0)" fill="url(#paint0_linear_15053_24350)"/>
<path opacity="0.2" d="M341 86.838C341 89.505 343.171 91.676 345.836 91.676C348.503 91.676 350.672 89.505 350.672 86.838C350.672 84.174 348.503 82 345.836 82C343.171 82 341 84.173 341 86.838ZM342.855 86.838C342.855 85.194 344.192 83.855 345.836 83.855C347.482 83.855 348.817 85.195 348.817 86.838C348.817 88.484 347.482 89.819 345.836 89.819C344.192 89.818 342.855 88.484 342.855 86.838Z" fill="#0061BF"/>
<g opacity="0.5">
<path opacity="0.2" d="M73.1825 232.076H74.8854C74.8854 237.027 78.916 241.04 83.8871 241.04V242.736C78.9149 242.736 74.8854 246.75 74.8854 251.701H73.1825C73.1825 246.75 69.1519 242.736 64.1797 242.736V241.04C69.1519 241.04 73.1825 237.026 73.1825 232.076Z" fill="#0061BF"/>
<path d="M57.4893 207H57.9152C57.9152 211.951 61.9459 215.965 66.9169 215.965V216.389C61.9448 216.389 57.9141 220.403 57.9141 225.354H57.4882C57.4882 220.403 53.4575 216.389 48.4854 216.389V215.965C53.4586 215.965 57.4893 211.951 57.4893 207Z" fill="#0061BF"/>
<path opacity="0.2" d="M43.7101 262.799C43.7101 267.589 47.6096 271.472 52.4201 271.472C47.6096 271.472 43.7101 275.355 43.7101 280.146C43.7101 275.355 39.8105 271.472 35 271.472C39.8105 271.471 43.7101 267.589 43.7101 262.799Z" fill="#0061BF"/>
</g>
<path opacity="0.2" d="M252 38.838C252 41.505 254.171 43.676 256.836 43.676C259.503 43.676 261.672 41.505 261.672 38.838C261.672 36.174 259.503 34 256.836 34C254.171 34 252 36.174 252 38.838ZM253.854 38.838C253.854 37.194 255.191 35.855 256.835 35.855C258.481 35.855 259.816 37.195 259.816 38.838C259.816 40.484 258.481 41.819 256.835 41.819C255.191 41.819 253.854 40.484 253.854 38.838Z" fill="url(#paint1_linear_15053_24350)"/>
<path d="M112.337 75.4082C111.66 75.4082 111.118 75.9602 111.118 76.6322C111.118 77.3122 111.66 77.8472 112.337 77.8472H124.528C125.203 77.8472 125.75 77.3122 125.75 76.6322C125.75 75.9602 125.203 75.4082 124.528 75.4082H112.337Z" fill="#CBDBEF"/>
<path d="M129.753 75.4082C129.083 75.4082 128.534 75.9602 128.534 76.6322C128.534 77.3122 129.084 77.8472 129.753 77.8472H131.99C132.665 77.8472 133.207 77.3122 133.207 76.6322C133.207 75.9602 132.665 75.4082 131.99 75.4082H129.753Z" fill="#CBDBEF"/>
<path d="M136.894 104.843C139.783 104.843 142.125 102.501 142.125 99.6119C142.125 96.7229 139.783 94.3809 136.894 94.3809C134.005 94.3809 131.663 96.7229 131.663 99.6119C131.663 102.501 134.005 104.843 136.894 104.843Z" fill="#EEF5FF"/>
<path opacity="0.3" d="M44.3837 338.149C45.0476 335.338 43.3066 332.52 40.495 331.856C37.6834 331.193 34.866 332.934 34.2021 335.745C33.5382 338.557 35.2793 341.374 38.0908 342.038C40.9024 342.702 43.7198 340.961 44.3837 338.149Z" fill="#0061BF"/>
<path d="M399.773 74.1666C401.805 74.1666 403.452 72.5195 403.452 70.4876C403.452 68.4557 401.805 66.8086 399.773 66.8086C397.741 66.8086 396.094 68.4557 396.094 70.4876C396.094 72.5195 397.741 74.1666 399.773 74.1666Z" fill="#EEF5FF"/>
<path d="M249.226 68.6233C250.221 64.4088 247.611 60.1857 243.397 59.1905C239.182 58.1954 234.959 60.8051 233.964 65.0195C232.969 69.2339 235.579 73.4571 239.793 74.4523C244.007 75.4474 248.231 72.8377 249.226 68.6233Z" fill="#EEF5FF"/>
<path d="M46.634 190.952C50.9644 190.952 54.475 187.441 54.475 183.111C54.475 178.78 50.9644 175.27 46.634 175.27C42.3035 175.27 38.793 178.78 38.793 183.111C38.793 187.441 42.3035 190.952 46.634 190.952Z" fill="#EEF5FF"/>
<path d="M176.973 330.229C176.963 330.293 176.952 330.347 176.952 330.411C176.77 331.739 176.567 333.078 176.374 334.406C175.967 337.244 175.56 340.072 175.164 342.91C174.596 346.83 174.04 350.761 173.472 354.692C173.001 358.002 172.53 361.301 172.058 364.61C171.929 365.52 171.79 366.431 171.662 367.341C171.609 367.769 171.544 368.209 171.48 368.637C170.762 373.639 170.045 378.641 169.327 383.643C168.631 388.559 167.924 393.486 167.217 398.403C167.153 398.885 167.078 399.367 167.014 399.849C166.136 399.249 165.268 398.628 164.422 397.985C163.555 397.332 162.708 396.646 161.873 395.95C161.948 395.404 162.034 394.847 162.109 394.3C162.816 389.298 163.534 384.296 164.251 379.294C164.958 374.367 165.665 369.451 166.361 364.524C167.014 360.004 167.657 355.473 168.31 350.953C168.835 347.258 169.37 343.552 169.895 339.857C170.249 337.361 170.613 334.855 170.966 332.359C171.095 331.438 171.234 330.506 171.362 329.585C171.63 327.689 172.926 326.415 174.511 326.511C175.977 326.598 177.23 328.462 176.973 330.229Z" fill="#EBEFF2"/>
<path d="M415.415 332.945H123.237C122.265 332.945 121.477 332.157 121.477 331.185V322.83C121.477 321.858 122.265 321.07 123.237 321.07H415.415C416.387 321.07 417.175 321.858 417.175 322.83V331.185C417.175 332.157 416.387 332.945 415.415 332.945Z" fill="#D8DEE6"/>
<path d="M162.198 321.299H190.235L200.403 268.339C202.033 259.85 195.527 251.975 186.883 251.975C180.281 251.975 174.608 256.662 173.363 263.146L162.198 321.299Z" fill="#D8DEE6"/>
<path d="M242.469 316.574H168.217V321.299H242.469V316.574Z" fill="#AAB4BE"/>
<g filter="url(#filter0_d_15053_24350)">
<path d="M278.252 300.451H118.181C113.909 300.451 110.328 297.225 109.882 292.975L99.7551 196.282C99.2401 191.358 103.102 187.07 108.054 187.07H268.125C272.397 187.07 275.979 190.296 276.423 194.545L286.55 291.238C287.066 296.163 283.205 300.451 278.252 300.451Z" fill="white"/>
</g>
<path d="M113.369 288.592L103.659 195.874C103.528 194.612 103.923 193.398 104.77 192.455C105.62 191.513 106.785 190.994 108.054 190.994H268.125C270.395 190.994 272.285 192.696 272.522 194.953L282.328 288.591H113.369V288.592Z" fill="#EBEFF2"/>
<path d="M242.857 262.896L235.902 270.107C221.742 270.107 210.607 263.317 200.994 254.767L200.976 254.748C198.863 252.871 196.825 250.905 194.841 248.91L194.821 248.891V248.89C192.222 246.274 189.717 243.605 187.278 240.999C177.008 230.023 167.302 219.658 156.296 219.658C146.642 219.658 138.791 227.509 138.791 237.162C138.791 246.815 146.642 254.666 156.296 254.666V270.107C138.133 270.107 123.357 255.33 123.357 237.162C123.357 219 138.133 204.223 156.296 204.223C173.995 204.223 186.478 217.559 198.55 230.449C200.987 233.053 203.401 235.631 205.826 238.075C207.426 239.693 209.033 241.253 210.658 242.723C218.314 249.66 226.324 254.665 235.9 254.665L242.857 262.896Z" fill="#9AC4ED"/>
<path d="M235.905 270.105L242.86 262.894L235.905 254.667C245.557 254.667 253.409 246.815 253.409 237.163C253.409 227.511 245.557 219.658 235.905 219.658C224.212 219.658 212.323 231.507 200.825 242.966C187.438 256.309 173.596 270.105 156.297 270.105L149.701 262.756L156.297 254.668C167.217 254.668 178.248 243.674 189.928 232.034C203.647 218.361 217.833 204.221 235.905 204.221C254.068 204.221 268.846 218.999 268.846 237.164C268.845 255.327 254.068 270.105 235.905 270.105Z" fill="#FFAF6D"/>
<g opacity="0.3">
<path d="M210.659 242.723L200.994 254.766L200.976 254.747L194.821 248.889L205.827 238.074C207.428 239.693 209.035 241.253 210.659 242.723Z" fill="#091022"/>
</g>
<path d="M377.969 425.698C386.745 413.857 395.428 401.921 404.797 390.539C395.273 367.722 384.186 343.592 378.645 340.26L353.472 343.765L310.283 349.775C305.434 350.45 300.585 351.125 295.735 351.799C289.419 378.886 279.316 389.413 273 416.5C306 436.5 370.644 435.508 372.483 433.059C374.322 430.61 376.148 428.155 377.969 425.698Z" fill="#3A67B3"/>
<path d="M304.507 204.961C305.256 202.106 305.472 192.165 313.969 193.267C322.467 194.369 327.283 190.344 333.161 193.188C339.038 196.032 338.382 198.649 340.444 200.152C343.524 202.397 348.848 205.897 347.964 212.326C347.145 218.28 351.087 218.418 352.269 224.078C353.589 230.402 351.607 232.861 349.373 234.029C347.139 235.197 345.781 234.072 343.464 236.687C341.147 239.301 337.9 238.528 337.9 238.528L319.174 239.21C319.174 239.21 316.547 240.789 313.741 238.343C310.935 235.897 308.612 235.459 305.933 236.049C303.254 236.639 299.311 232.409 301.228 227.357C301.638 226.276 304.334 223.212 302.238 217.509C299.827 210.949 303.319 209.492 304.507 204.961Z" fill="#292466"/>
<path d="M310.092 208.016C310.092 208.016 309.154 222.314 312.407 227.733C315.66 233.152 319.709 233.862 319.709 233.862C319.709 233.862 319.689 241.557 319.038 242.063C318.441 242.527 317.542 242.62 317.542 242.62C317.542 242.62 318.997 256.524 327.081 255.51C340.586 253.816 342.133 241.893 342.133 241.893C342.133 241.893 338.26 240.655 337.765 239.654C337.27 238.653 336.82 225.003 336.484 223.1C337.493 223.525 343.06 221.759 342.772 217.789C341.683 213.193 337.203 215.161 335.593 217.139C335.593 217.139 334.64 216.464 334.174 213.437C333.708 210.41 331.934 210.189 330.096 209.014C328.257 207.839 327.677 206.215 326.548 205.288C324.331 202.555 320.064 204.529 320.064 204.529C317.508 203.768 316.085 202.657 313.238 203.659C311.364 204.317 310.543 204.539 310.092 208.016Z" fill="#FBC4BB"/>
<path d="M319.71 233.862C319.71 233.862 329.921 238.385 335.663 226.221C335.663 226.221 333.333 240.863 319.602 238.127L319.71 233.862Z" fill="#E8A99E"/>
<path d="M336.826 220.623C336.698 220.606 336.581 220.527 336.522 220.401C336.43 220.205 336.514 219.972 336.709 219.88L340.318 218.18C340.514 218.087 340.747 218.172 340.839 218.367C340.931 218.563 340.847 218.796 340.652 218.888L337.043 220.588C336.973 220.622 336.898 220.632 336.826 220.623Z" fill="#292466"/>
<path d="M318.511 222.441C317.708 222.337 316.916 222.024 316.801 221.214C316.608 219.866 318.507 215.454 318.724 214.956C318.811 214.758 319.042 214.668 319.24 214.753C319.438 214.839 319.529 215.07 319.443 215.269C318.657 217.074 317.456 220.254 317.577 221.103C317.672 221.766 319.405 221.751 320.182 221.642C320.395 221.612 320.594 221.761 320.625 221.975C320.655 222.189 320.506 222.387 320.292 222.417C320.124 222.441 319.311 222.545 318.511 222.441Z" fill="#292466"/>
<path d="M313.613 215.722C313.589 216.392 314.062 216.952 314.67 216.974C315.278 216.996 315.79 216.47 315.813 215.801C315.837 215.131 315.364 214.571 314.756 214.549C314.148 214.527 313.636 215.053 313.613 215.722Z" fill="#292466"/>
<path d="M322.78 211.687C322.673 211.673 322.573 211.616 322.507 211.52C322.384 211.342 322.43 211.098 322.608 210.975C322.634 210.957 325.225 209.22 327.463 211.412C327.618 211.563 327.62 211.811 327.469 211.966C327.318 212.121 327.069 212.124 326.915 211.972C325.132 210.226 323.135 211.563 323.051 211.621C322.97 211.678 322.873 211.699 322.78 211.687Z" fill="#292466"/>
<path d="M312.85 211.221C312.762 211.21 312.677 211.168 312.612 211.098C312.466 210.939 312.476 210.691 312.636 210.544C313.927 209.359 315.63 210.07 316.351 210.612C316.524 210.742 316.559 210.988 316.429 211.161C316.299 211.334 316.053 211.368 315.881 211.239C315.811 211.187 314.295 210.086 313.167 211.122C313.077 211.203 312.961 211.236 312.85 211.221Z" fill="#292466"/>
<path d="M325.092 216.476C325.117 215.786 324.629 215.209 324.004 215.186C323.378 215.164 322.85 215.705 322.826 216.395C322.801 217.085 323.289 217.663 323.915 217.685C324.54 217.707 325.068 217.166 325.092 216.476Z" fill="#292466"/>
<path d="M318.901 226.339C318.893 226.338 318.887 226.337 318.882 226.337C318.668 226.308 318.518 226.111 318.547 225.896C318.576 225.682 318.772 225.532 318.986 225.56C318.986 225.56 318.988 225.56 318.99 225.561C319.111 225.577 323.75 226.153 325.224 223.785C325.338 223.601 325.58 223.545 325.764 223.659C325.948 223.773 326.004 224.015 325.89 224.199C324.17 226.96 319.296 226.39 318.901 226.339Z" fill="#292466"/>
<path d="M293.054 312.239C285.438 304.635 279.919 294.987 271.487 288.215C271.471 288.202 271.458 288.188 271.443 288.175C269.917 290.569 268.39 292.964 266.864 295.358C266.571 295.818 265.985 295.991 265.488 295.766L227.33 278.406C226.937 278.227 226.691 277.839 226.692 277.407C226.697 273.769 226.177 269.269 224.029 266.069C223.916 265.9 223.85 265.706 223.845 265.503L223.566 253.962C223.539 252.835 222.011 252.465 221.502 253.47C220.258 255.924 220.055 260.602 220.03 262.73C219.785 262.628 219.53 262.536 219.267 262.454C218.875 261.92 218.523 261.602 218.231 261.567C218.231 261.567 210.719 250.38 207.365 248.188C206.948 247.915 206.396 248.199 206.374 248.698C206.309 250.191 207.007 253.79 212.567 260.893C212.2 260.935 211.825 260.997 211.442 261.08C210.552 259.866 203.565 250.407 200.427 248.356C200.01 248.083 199.176 248.511 199.154 249.009C199.089 250.492 202.439 255.285 208.124 262.4C207.783 262.605 207.443 262.835 207.106 263.091C204.662 260.013 198.813 252.855 195.918 251.071C195.455 250.786 194.531 251.235 194.506 251.756C194.434 253.265 197.935 258.043 203.913 265.143C204.233 265.523 204.253 266.065 203.977 266.477C203.973 266.483 203.969 266.488 203.966 266.494C203.615 267.018 202.884 267.119 202.391 266.726C199.29 264.262 195.483 261.319 193.489 260.091C193.026 259.806 192.101 260.255 192.077 260.776C192.007 262.248 195.345 266.23 201.054 272.93C201.045 272.961 201.035 272.992 201.026 273.023C201.026 273.023 206.842 284.022 217.375 290.488L217.703 290.231C232.416 307.082 243.49 320.432 250.74 329.321C258.535 338.877 263.306 344.987 268.986 344.199C277.252 343.053 289.051 327.447 294.622 322.772C294.646 322.752 294.67 322.734 294.696 322.717C296.636 321.431 298.409 319.839 299.976 317.985C297.452 316.348 295.148 314.331 293.054 312.239Z" fill="#FBC4BB"/>
<path d="M390 345.459C390 345.459 360.258 258.692 355.125 254.31C351.826 251.493 349.041 249.18 348.72 244.531C348.634 243.278 348.741 241.96 348.217 240.804C347.264 238.758 344.168 238.008 342.337 239.39C341.941 239.69 341.577 240.076 341.084 240.161C340.077 240.322 339.445 239.197 338.738 238.501C337.549 237.301 335.461 237.184 333.982 238.04C332.515 238.897 331.669 240.568 331.615 242.239C331.079 239.947 328.455 238.33 326.088 238.812C323.71 239.305 322.007 241.822 322.489 244.125C322.168 242.497 320.272 241.715 318.644 241.212C317.766 240.944 316.834 240.666 315.956 240.923C314.542 241.33 313.889 242.905 313.696 244.318C312.989 249.609 315.431 255.189 313.278 260.374C311.296 265.108 304.12 266.983 300.232 269.885C299.973 270.078 294.45 274.392 294.812 274.93C295.055 275.292 297.398 273.123 298.846 273.627C303.111 275.113 297.816 299.179 294.619 322.775C292.744 336.615 291.714 349.394 291.205 360.882C336.883 376.586 390 345.459 390 345.459Z" fill="url(#paint2_linear_15053_24350)"/>
<path d="M351.472 254.02C352.194 253.751 353.001 253.985 353.731 254.234C367.049 258.783 377.633 268.453 385.294 279.632C389.245 285.397 393.196 291.162 397.147 296.928C397.643 297.651 398.224 298.39 398.795 299.15C399.945 300.68 401.057 302.295 401.358 304.037C401.853 306.902 399.944 308.582 398.075 310.522C394.119 314.63 389.702 318.322 384.927 321.512C384.539 321.771 384.099 322.039 383.633 321.973C383.115 321.9 382.759 321.446 382.466 321.026C378.446 315.256 375.312 308.895 373.111 302.274C371.096 296.212 371.234 289.389 366.233 284.765C363.829 282.543 361.426 280.32 359.022 278.098C356.877 276.115 354.7 274.093 353.244 271.592C352.345 270.048 351.745 268.36 351.15 266.684C350.355 264.444 349.097 261.755 349.349 259.358C349.496 257.947 349.877 254.614 351.472 254.02Z" fill="url(#paint3_linear_15053_24350)"/>
<path d="M303 428C305.5 428 313.5 432.378 321.34 425.054C328.804 416.227 354.337 334.828 379.805 309.201C391.553 297.379 452.466 280.995 448.912 322.126C445.18 365.315 439.284 402.537 416.57 432.305C391.552 465.09 319.859 437.349 303 428Z" fill="#EBEFF2"/>
<path d="M325.232 265.213L319.212 267.141C318.912 265.599 318.709 264.742 318.709 264.742L325.232 265.213Z" fill="#F89D13"/>
<path d="M297.986 260.215C306.82 255.342 317.11 251.987 326.987 257.151C333.995 260.815 334.452 270.991 333.742 277.62C332.982 284.716 330.064 291.562 325.903 297.11C319.998 304.982 312.283 312.13 304.711 318.283C300.933 321.353 298.408 320.282 295.42 316.88C295.416 316.876 295.412 316.871 295.409 316.867C290.505 311.276 285.6 305.685 280.732 300.063C278.551 297.545 267.764 288.086 267.462 283.47C267.418 282.793 267.599 282.22 268.066 281.788C277.096 273.439 287.164 266.183 297.986 260.215Z" fill="url(#paint4_linear_15053_24350)"/>
<g filter="url(#filter1_d_15053_24350)">
<path d="M337 132.808C337 126.299 337 123.044 339.022 121.022C341.044 119 344.299 119 350.808 119H437.973C444.482 119 447.736 119 449.759 121.022C451.781 123.044 451.781 126.299 451.781 132.808V156.401C451.781 162.91 451.781 166.165 449.759 168.187C447.736 170.209 444.482 170.209 437.973 170.209H371.359C369.111 170.209 367.988 170.209 366.938 170.554C365.889 170.899 364.984 171.565 363.173 172.898L350.808 182L350.39 176.144C350.139 172.636 347.22 169.918 343.703 169.918C340.001 169.918 337 166.917 337 163.214V132.808Z" fill="white"/>
</g>
<rect x="347" y="127.691" width="92" height="6" rx="3" fill="#EBEFF2"/>
<rect x="347" y="138.006" width="15.5342" height="3.45205" rx="1.72603" fill="#EBEFF2"/>
<rect x="366.85" y="138.006" width="43" height="4" rx="2" fill="#EBEFF2"/>
<rect x="347" y="146.322" width="84" height="3" rx="1.5" fill="#EBEFF2"/>
<rect x="347" y="153.637" width="92" height="6" rx="3" fill="#EBEFF2"/>
<path d="M249 109V136.69C249 137.795 248.105 138.69 247 138.69H204C202.895 138.69 202 139.586 202 140.69V187" stroke="#A9CBF7" stroke-width="1.5" stroke-linecap="round" stroke-linejoin="round" stroke-dasharray="6 6"/>
<path d="M261 187V154C261 152.895 261.895 152 263 152H336" stroke="#A9CBF7" stroke-width="1.5" stroke-linecap="round" stroke-linejoin="round" stroke-dasharray="6 6"/>
<g filter="url(#filter2_d_15053_24350)">
<path d="M92 111.586C92 103.296 92 99.1508 94.6064 96.5754C97.2128 94 101.408 94 109.798 94H152.202C160.592 94 164.787 94 167.394 96.5754C170 99.1508 170 103.296 170 111.586V128.414C170 136.704 170 140.849 167.394 143.425C164.787 146 160.592 146 152.202 146H109.798C101.408 146 97.2128 146 94.6064 143.425C92 140.849 92 136.704 92 128.414V111.586Z" fill="white"/>
</g>
<path opacity="0.3" d="M92 101.333C92 97.2832 95.0855 94 98.8916 94H163.108C166.915 94 170 97.2832 170 101.333V105H92V101.333Z" fill="#80BFFE"/>
<path opacity="0.4" d="M102.338 100.148C102.338 101.458 101.304 102.488 99.9882 102.488C98.6725 102.488 97.6387 101.458 97.6387 100.148C97.6387 98.838 98.6725 97.8086 99.9882 97.8086C101.304 97.8086 102.338 98.838 102.338 100.148Z" fill="#0061BF"/>
<path opacity="0.4" d="M109.917 100.148C109.917 101.458 108.883 102.488 107.567 102.488C106.252 102.488 105.218 101.458 105.218 100.148C105.218 98.838 106.252 97.8086 107.567 97.8086C108.883 97.8086 109.917 98.838 109.917 100.148Z" fill="#0061BF"/>
<path d="M101.398 118.799C101.398 117.506 102.45 116.459 103.748 116.459L-nan -nanL103.748 116.459C105.046 116.459 106.097 117.506 106.097 118.799V136.112H101.398V118.799Z" fill="#EBEFF2"/>
<path d="M109.857 120.67C109.857 119.378 110.909 118.33 112.207 118.33L-nan -nanL112.207 118.33C113.505 118.33 114.556 119.378 114.556 120.67V136.111H109.857V120.67Z" fill="#EBEFF2"/>
<path d="M118.315 123.478C118.315 122.186 119.367 121.139 120.665 121.139L-nan -nanL120.665 121.139C121.963 121.139 123.014 122.186 123.014 123.478V136.112H118.315V123.478Z" fill="#EBEFF2"/>
<path fill-rule="evenodd" clip-rule="evenodd" d="M98.5631 111.156C98.9091 111.156 99.1896 111.436 99.1896 111.78V139.074H127.026C127.372 139.074 127.653 139.354 127.653 139.698C127.653 140.043 127.372 140.322 127.026 140.322H98.5631C98.217 140.322 97.9365 140.043 97.9365 139.698V111.78C97.9365 111.436 98.217 111.156 98.5631 111.156Z" fill="#EBEFF2"/>
<path fill-rule="evenodd" clip-rule="evenodd" d="M98.5639 111.156C98.7301 111.156 98.8895 111.222 99.007 111.339L100.872 113.196C101.117 113.44 101.117 113.835 100.872 114.079C100.627 114.322 100.231 114.322 99.986 114.079L98.5641 112.663L97.1429 114.078C96.8983 114.322 96.5016 114.322 96.2569 114.079C96.0121 113.835 96.012 113.44 96.2566 113.196L98.1208 111.339C98.2383 111.222 98.3977 111.156 98.5639 111.156Z" fill="#EBEFF2"/>
<path d="M138.99 118.799C138.99 117.506 140.042 116.459 141.34 116.459L-nan -nanL141.34 116.459C142.637 116.459 143.689 117.506 143.689 118.799V136.112H138.99V118.799Z" fill="#EBEFF2"/>
<path d="M147.449 120.67C147.449 119.378 148.501 118.33 149.799 118.33L-nan -nanL149.799 118.33C151.096 118.33 152.148 119.378 152.148 120.67V136.111H147.449V120.67Z" fill="#EBEFF2"/>
<path d="M155.907 123.478C155.907 122.186 156.959 121.139 158.257 121.139L-nan -nanL158.257 121.139C159.554 121.139 160.606 122.186 160.606 123.478V136.112H155.907V123.478Z" fill="#EBEFF2"/>
<path fill-rule="evenodd" clip-rule="evenodd" d="M136.155 111.156C136.501 111.156 136.781 111.436 136.781 111.78V139.074H164.618C164.964 139.074 165.245 139.354 165.245 139.698C165.245 140.043 164.964 140.322 164.618 140.322H136.155C135.809 140.322 135.528 140.043 135.528 139.698V111.78C135.528 111.436 135.809 111.156 136.155 111.156Z" fill="#EBEFF2"/>
<path fill-rule="evenodd" clip-rule="evenodd" d="M136.156 111.156C136.322 111.156 136.481 111.222 136.599 111.339L138.464 113.196C138.709 113.44 138.709 113.835 138.464 114.079C138.219 114.322 137.822 114.322 137.578 114.079L136.156 112.663L134.735 114.078C134.49 114.322 134.093 114.322 133.849 114.079C133.604 113.835 133.604 113.44 133.848 113.196L135.713 111.339C135.83 111.222 135.989 111.156 136.156 111.156Z" fill="#EBEFF2"/>
<path d="M215.553 59H291.447C293.385 59 295 60.6216 295 62.5676V99.4324C295 101.378 293.385 103 291.447 103H215.553C213.615 103 212 101.378 212 99.4324V62.5676C212.108 60.6216 213.615 59 215.553 59Z" fill="#C6E2FD"/>
<g filter="url(#filter3_d_15053_24350)">
<path d="M212 70V105.503C212 107.41 213.617 109 215.557 109H291.443C293.383 109 295 107.41 295 105.503V70H212Z" fill="white"/>
</g>
<path opacity="0.2" d="M223 64.5C223 65.9 221.9 67 220.5 67C219.1 67 218 65.9 218 64.5C218 63.1 219.1 62 220.5 62C221.9 62 223 63.1 223 64.5Z" fill="#0061BF"/>
<path opacity="0.2" d="M230 64.5C230 65.9 228.9 67 227.5 67C226.1 67 225 65.9 225 64.5C225 63.1 226.1 62 227.5 62C228.9 62 230 63.1 230 64.5Z" fill="#0061BF"/>
<path d="M267.303 81H256.07C255.277 80.9999 254.49 81.1485 253.741 81.4398C255.216 82.0172 256.485 83.1196 257.358 84.5811H267.307C267.839 84.5702 268.367 84.6789 268.861 84.901C269.355 85.1231 269.804 85.4541 270.184 85.8746C270.563 86.2951 270.864 86.7967 271.07 87.3501C271.275 87.9035 271.381 88.4977 271.381 89.0979C271.381 89.698 271.275 90.2922 271.07 90.8456C270.864 91.399 270.563 91.9006 270.184 92.3211C269.804 92.7416 269.355 93.0726 268.861 93.2947C268.367 93.5168 267.839 93.6255 267.307 93.6146H256.07C255.224 93.6131 254.401 93.309 253.717 92.7458C253.034 92.1827 252.527 91.3896 252.268 90.4804C252.009 89.5712 252.013 88.5928 252.277 87.6858C252.542 86.7788 253.054 85.9898 253.741 85.4322C253.062 84.8788 252.246 84.5815 251.409 84.5826H250.125C249.328 85.917 248.902 87.4898 248.902 89.0994C248.902 90.7089 249.328 92.2817 250.125 93.6161C250.78 94.7192 251.665 95.6231 252.703 96.2477C253.741 96.8723 254.899 97.1984 256.075 97.1972H267.309C269.211 97.1972 271.036 96.344 272.381 94.8252C273.726 93.3064 274.482 91.2465 274.482 89.0986C274.482 86.9507 273.726 84.8908 272.381 83.372C271.036 81.8532 269.211 81 267.309 81H267.303Z" fill="#0061BF"/>
<path d="M258.575 89.1001C258.576 90.71 258.15 92.2834 257.352 93.6176H256.068C255.232 93.6176 254.417 93.3198 253.739 92.7665C254.426 92.2088 254.939 91.4195 255.203 90.5122C255.468 89.6049 255.471 88.6262 255.212 87.7169C254.952 86.8076 254.445 86.0145 253.761 85.4515C253.078 84.8886 252.254 84.5849 251.408 84.5841H240.173C239.124 84.6056 238.125 85.091 237.391 85.9357C236.656 86.7804 236.245 87.917 236.245 89.1008C236.245 90.2847 236.656 91.4213 237.391 92.266C238.125 93.1107 239.124 93.5961 240.173 93.6176H250.124C250.997 95.0789 252.266 96.1812 253.741 96.7589C252.99 97.0493 252.201 97.1974 251.408 97.1972H240.173C239.231 97.1972 238.298 96.9877 237.428 96.5807C236.558 96.1737 235.767 95.5772 235.101 94.8252C234.435 94.0732 233.906 93.1804 233.546 92.1978C233.186 91.2152 233 90.1621 233 89.0986C233 88.0351 233.186 86.982 233.546 85.9994C233.906 85.0168 234.435 84.1241 235.101 83.372C235.767 82.62 236.558 82.0235 237.428 81.6165C238.298 81.2095 239.231 81 240.173 81H251.408C253.309 81.0028 255.132 81.8569 256.477 83.3751C257.821 84.8933 258.578 86.9516 258.58 89.0986L258.575 89.1001Z" fill="#FF7300"/>
<path opacity="0.2" d="M481.182 209.076H482.885C482.885 214.027 486.916 218.04 491.887 218.04V219.736C486.915 219.736 482.885 223.75 482.885 228.701H481.182C481.182 223.75 477.152 219.736 472.18 219.736V218.04C477.152 218.04 481.182 214.026 481.182 209.076Z" fill="url(#paint5_linear_15053_24350)"/>
<path d="M465.489 184H465.915C465.915 188.951 469.946 192.965 474.917 192.965V193.389C469.945 193.389 465.914 197.403 465.914 202.354H465.488C465.488 197.403 461.458 193.389 456.485 193.389V192.965C461.459 192.965 465.489 188.951 465.489 184Z" fill="url(#paint6_linear_15053_24350)"/>
<path opacity="0.2" d="M451.71 239.799C451.71 244.589 455.61 248.472 460.42 248.472C455.61 248.472 451.71 252.355 451.71 257.146C451.71 252.355 447.811 248.472 443 248.472C447.811 248.471 451.71 244.589 451.71 239.799Z" fill="url(#paint7_linear_15053_24350)"/>
<path opacity="0.05" d="M122 452C134.15 452 144 448.642 144 444.5C144 440.358 134.15 437 122 437C109.85 437 100 440.358 100 444.5C100 448.642 109.85 452 122 452Z" fill="#0061BF"/>
<path d="M125.269 384.494C124.531 387.627 123.748 390.709 123.595 393.925C123.684 394.084 123.665 394.669 123.595 394.51C123.595 395.031 122.786 394.935 122.786 394.421C122.786 394.09 122.786 393.753 122.786 393.436C120.94 391.141 118.26 389.692 116.096 387.716C114.354 386.152 113.084 384.134 112.429 381.888C110.634 375.705 112.314 369.178 110.156 362.982C108.291 357.669 104.949 353.042 102.123 348.225C99.137 343.141 96.9344 337.777 96.7116 331.81C96.5397 327.24 97.0808 321.152 100.569 317.733C104.262 314.098 108.845 316.818 111.678 320.059C119.877 329.458 123.671 341.336 125.205 353.481C126.052 360.205 126.931 366.966 126.727 373.747C126.599 377.369 126.111 380.969 125.269 384.494Z" fill="#B7DBFF"/>
<path opacity="0.4" d="M123.614 396.397C124.063 390.046 123.988 383.669 123.391 377.331C123.392 377.31 123.392 377.289 123.391 377.268C123.493 372.12 123.9 366.991 123.697 361.837C123.447 356.272 122.688 350.741 121.43 345.314C121.43 345.25 121.316 345.269 121.328 345.314C122.333 350.655 122.933 356.063 123.124 361.494C123.225 364.405 123.202 367.313 123.054 370.22C123.003 371.167 122.914 372.126 122.85 373.073C120.708 358.622 115.476 344.8 107.508 332.546C107.406 332.381 107.107 332.546 107.209 332.731C112.899 342.044 117.113 352.179 119.699 362.778C115.752 355.482 109.793 349.483 105.375 342.473C105.375 342.435 105.286 342.473 105.305 342.511C109.278 350.322 115.841 356.493 120.023 364.163C120.743 367.296 121.341 370.461 121.78 373.645C122.372 378.01 122.691 382.408 122.735 386.813C120.329 382.333 117.834 378.043 115.873 373.302C115.867 373.289 115.86 373.278 115.85 373.269C115.84 373.259 115.828 373.252 115.816 373.247C115.803 373.242 115.789 373.239 115.776 373.239C115.762 373.24 115.749 373.243 115.736 373.248C115.723 373.253 115.712 373.261 115.703 373.271C115.693 373.281 115.686 373.292 115.681 373.305C115.676 373.318 115.673 373.331 115.673 373.345C115.674 373.359 115.676 373.372 115.682 373.385C117.35 378.31 119.597 383.616 122.748 387.817C122.748 390.935 122.661 394.054 122.487 397.172C121.997 405.484 120.577 413.695 119.941 421.957C119.935 422.008 119.949 422.058 119.981 422.098C120.012 422.138 120.059 422.164 120.109 422.17C120.16 422.176 120.211 422.161 120.251 422.13C120.291 422.098 120.317 422.052 120.323 422.001C122.001 413.551 123.1 404.996 123.614 396.397Z" fill="#3588D8"/>
<path opacity="0.4" d="M114.791 332.28C114.791 332.223 114.676 332.28 114.696 332.324C116.217 336.525 117.076 340.777 118.178 345.079C118.188 345.116 118.213 345.149 118.245 345.169C118.278 345.19 118.318 345.198 118.356 345.192C118.395 345.186 118.429 345.166 118.454 345.135C118.479 345.105 118.491 345.067 118.49 345.028C118.044 340.662 116.484 336.309 114.791 332.28Z" fill="#3588D8"/>
<path d="M153.413 349.89C152.398 352.351 151.231 354.747 149.918 357.065C147.175 362.028 144.323 366.597 143.801 372.361C143.572 374.942 143.489 377.535 142.7 379.988C141.985 382.128 140.955 384.15 139.644 385.987C136.677 390.302 132.966 394.026 130.216 398.507C127.352 403.177 125.236 408.265 123.946 413.587C123.882 413.88 123.424 413.797 123.487 413.511C123.49 413.488 123.49 413.464 123.487 413.441C123.483 413.432 123.481 413.422 123.481 413.412C123.481 413.403 123.483 413.393 123.487 413.384C123.048 400.985 124.041 388.491 127.829 376.613C129.5 371.395 131.508 366.289 133.838 361.329C135.869 357.027 138.396 352.883 141.961 349.667C144.272 347.589 149.282 343.649 152.573 345.733C154.171 346.75 154.037 348.333 153.413 349.89Z" fill="#B7DBFF"/>
<path opacity="0.4" d="M140.935 377.987C138.744 381.584 136.333 385.043 133.717 388.346C132.513 389.909 131.297 391.466 130.094 393.036C129.528 393.773 128.891 394.51 128.369 395.311C128.7 394.008 129.006 392.699 129.349 391.396C130.954 385.136 132.494 378.813 134.881 372.795C137.211 366.903 140.318 361.355 143.501 355.915C143.59 355.776 143.355 355.668 143.272 355.807C140.649 360.116 137.982 364.419 135.779 368.963C134.559 371.496 133.496 374.103 132.596 376.767C133.61 371.115 135.024 365.542 136.829 360.091C136.829 360.04 136.779 360.008 136.759 360.059C134.386 365.572 132.902 371.426 132.361 377.402C131.822 379.012 131.323 380.637 130.865 382.277C128.91 389.21 127.191 396.22 125.6 403.249C125.572 398.625 125.973 394.008 126.797 389.458C126.797 389.356 126.657 389.331 126.631 389.458C125.421 394.202 125.016 399.115 125.434 403.992C124.832 406.67 124.244 409.345 123.671 412.019C122.455 417.738 120.953 423.553 120.24 429.355C120.237 429.37 120.238 429.386 120.241 429.401C120.245 429.415 120.251 429.43 120.26 429.442C120.269 429.454 120.28 429.465 120.293 429.473C120.306 429.481 120.32 429.486 120.335 429.489C120.35 429.491 120.366 429.491 120.381 429.487C120.396 429.484 120.41 429.478 120.422 429.469C120.434 429.46 120.445 429.449 120.453 429.436C120.461 429.423 120.467 429.409 120.469 429.394C121.322 426.267 121.838 423.038 122.532 419.861C123.225 416.683 123.951 413.506 124.69 410.328C125.772 405.714 126.892 401.111 128.051 396.518C128.821 394.834 130.304 393.341 131.418 391.93C132.641 390.379 133.863 388.829 135.053 387.253C137.287 384.337 139.286 381.249 141.031 378.019C141.082 377.968 140.974 377.923 140.935 377.987Z" fill="#3588D8"/>
<path opacity="0.4" d="M141.438 372.686C138.727 376.171 136.381 379.923 134.436 383.884C134.436 383.935 134.486 383.992 134.518 383.941C136.893 380.224 139.229 376.474 141.604 372.756C141.61 372.693 141.508 372.629 141.438 372.686Z" fill="#3588D8"/>
<path d="M88.6015 361.634C90.2121 364.405 92.0455 367.722 91.358 371.046C90.9187 373.15 89.3782 374.859 89.0981 377.001C88.4615 381.735 93.1977 384.868 96.6226 387.105C105.147 392.692 116.841 397.668 118.394 409.075C118.451 409.482 119.152 409.38 119.101 408.98C119.106 408.957 119.106 408.933 119.101 408.91C119.101 408.91 119.145 408.872 119.145 408.84C120.261 403.081 120.207 397.158 118.986 391.421C117.713 385.542 115.166 380.261 112.111 375.094C106.98 366.356 101.543 357.402 93.7834 350.71C91.6381 348.86 87.2392 345.524 85.5077 349.705C83.8462 353.773 86.6281 358.259 88.6015 361.634Z" fill="#B7DBFF"/>
<path opacity="0.4" d="M96.4062 380.166C102.059 386.273 111.048 389.699 115.911 396.543C113.028 386.057 108.272 376.62 100.92 368.428C100.887 368.385 100.872 368.332 100.876 368.279C100.879 368.226 100.902 368.175 100.94 368.137C100.978 368.1 101.029 368.077 101.082 368.073C101.136 368.069 101.189 368.085 101.232 368.117C106.438 373.166 110.601 379.186 113.486 385.835C112.142 381.193 110.376 376.683 108.209 372.362C108.197 372.33 108.196 372.295 108.208 372.262C108.219 372.23 108.242 372.203 108.271 372.185C108.301 372.168 108.336 372.161 108.37 372.167C108.404 372.173 108.434 372.19 108.457 372.216C111.144 376.94 113.063 382.06 114.142 387.386C120.558 402.879 121.144 421.068 119.807 437.388C119.807 437.623 119.432 437.629 119.438 437.388C119.807 424.519 119.597 411.421 116.51 398.85C116.446 398.583 116.37 398.329 116.306 398.069C111.01 390.697 102.059 387.265 96.3043 380.274C96.2407 380.198 96.3425 380.096 96.4062 380.166Z" fill="#3588D8"/>
<path opacity="0.4" d="M95.0943 374.916C98.0609 377.636 100.983 380.413 103.956 383.133C103.956 383.133 103.956 383.209 103.911 383.19C100.55 380.922 97.5226 378.197 94.9161 375.094C94.8977 375.07 94.8888 375.039 94.8909 375.009C94.8931 374.978 94.9062 374.949 94.9279 374.928C94.9496 374.906 94.9783 374.893 95.0089 374.891C95.0395 374.889 95.0698 374.898 95.0943 374.916Z" fill="#3588D8"/>
<path opacity="0.4" d="M94.6234 363.14C97.2609 367.437 100.241 371.516 103.536 375.335C103.54 375.34 103.544 375.346 103.546 375.352C103.549 375.359 103.55 375.366 103.549 375.372C103.549 375.379 103.547 375.386 103.544 375.392C103.542 375.398 103.538 375.404 103.533 375.408C103.528 375.413 103.522 375.416 103.515 375.419C103.509 375.421 103.502 375.422 103.495 375.422C103.488 375.422 103.482 375.42 103.476 375.417C103.469 375.414 103.464 375.41 103.459 375.405C99.764 371.911 96.7185 367.791 94.4643 363.235C94.4579 363.215 94.4586 363.193 94.4662 363.173C94.4738 363.153 94.488 363.136 94.5063 363.125C94.5247 363.114 94.5462 363.109 94.5675 363.112C94.5887 363.115 94.6084 363.125 94.6234 363.14Z" fill="#3588D8"/>
<path d="M107.385 442.094C107.215 443.298 108.149 444.374 109.365 444.374H132.809C134.012 444.374 134.942 443.321 134.794 442.128L131.511 415.623C131.387 414.621 130.535 413.869 129.526 413.869H113.114C112.117 413.869 111.273 414.603 111.133 415.589L107.385 442.094Z" fill="#4991FF"/>
<path opacity="0.3" d="M129 147V161.941C129 163.046 129.895 163.941 131 163.941H152C153.105 163.941 154 164.837 154 165.941V187" stroke="#0061BF" stroke-width="1.5" stroke-linecap="round" stroke-linejoin="round" stroke-dasharray="6 6"/>
<defs>
<filter id="filter0_d_15053_24350" x="59.709" y="162.07" width="266.888" height="193.381" filterUnits="userSpaceOnUse" color-interpolation-filters="sRGB">
<feFlood flood-opacity="0" result="BackgroundImageFix"/>
<feColorMatrix in="SourceAlpha" type="matrix" values="0 0 0 0 0 0 0 0 0 0 0 0 0 0 0 0 0 0 127 0" result="hardAlpha"/>
<feOffset dy="15"/>
<feGaussianBlur stdDeviation="20"/>
<feComposite in2="hardAlpha" operator="out"/>
<feColorMatrix type="matrix" values="0 0 0 0 0.117647 0 0 0 0 0.129412 0 0 0 0 0.176471 0 0 0 0.05 0"/>
<feBlend mode="normal" in2="BackgroundImageFix" result="effect1_dropShadow_15053_24350"/>
<feBlend mode="normal" in="SourceGraphic" in2="effect1_dropShadow_15053_24350" result="shape"/>
</filter>
<filter id="filter1_d_15053_24350" x="302.479" y="97.4247" width="183.822" height="132.041" filterUnits="userSpaceOnUse" color-interpolation-filters="sRGB">
<feFlood flood-opacity="0" result="BackgroundImageFix"/>
<feColorMatrix in="SourceAlpha" type="matrix" values="0 0 0 0 0 0 0 0 0 0 0 0 0 0 0 0 0 0 127 0" result="hardAlpha"/>
<feOffset dy="12.9452"/>
<feGaussianBlur stdDeviation="17.2603"/>
<feComposite in2="hardAlpha" operator="out"/>
<feColorMatrix type="matrix" values="0 0 0 0 0.117647 0 0 0 0 0.129412 0 0 0 0 0.176471 0 0 0 0.08 0"/>
<feBlend mode="normal" in2="BackgroundImageFix" result="effect1_dropShadow_15053_24350"/>
<feBlend mode="normal" in="SourceGraphic" in2="effect1_dropShadow_15053_24350" result="shape"/>
</filter>
<filter id="filter2_d_15053_24350" x="53.2124" y="69.7577" width="155.575" height="129.575" filterUnits="userSpaceOnUse" color-interpolation-filters="sRGB">
<feFlood flood-opacity="0" result="BackgroundImageFix"/>
<feColorMatrix in="SourceAlpha" type="matrix" values="0 0 0 0 0 0 0 0 0 0 0 0 0 0 0 0 0 0 127 0" result="hardAlpha"/>
<feOffset dy="14.5454"/>
<feGaussianBlur stdDeviation="19.3938"/>
<feComposite in2="hardAlpha" operator="out"/>
<feColorMatrix type="matrix" values="0 0 0 0 0.117647 0 0 0 0 0.129412 0 0 0 0 0.176471 0 0 0 0.08 0"/>
<feBlend mode="normal" in2="BackgroundImageFix" result="effect1_dropShadow_15053_24350"/>
<feBlend mode="normal" in="SourceGraphic" in2="effect1_dropShadow_15053_24350" result="shape"/>
</filter>
<filter id="filter3_d_15053_24350" x="172" y="45" width="163" height="119" filterUnits="userSpaceOnUse" color-interpolation-filters="sRGB">
<feFlood flood-opacity="0" result="BackgroundImageFix"/>
<feColorMatrix in="SourceAlpha" type="matrix" values="0 0 0 0 0 0 0 0 0 0 0 0 0 0 0 0 0 0 127 0" result="hardAlpha"/>
<feOffset dy="15"/>
<feGaussianBlur stdDeviation="20"/>
<feComposite in2="hardAlpha" operator="out"/>
<feColorMatrix type="matrix" values="0 0 0 0 0.117647 0 0 0 0 0.129412 0 0 0 0 0.176471 0 0 0 0.05 0"/>
<feBlend mode="normal" in2="BackgroundImageFix" result="effect1_dropShadow_15053_24350"/>
<feBlend mode="normal" in="SourceGraphic" in2="effect1_dropShadow_15053_24350" result="shape"/>
</filter>
<linearGradient id="paint0_linear_15053_24350" x1="468.923" y1="-67.8962" x2="128" y2="450.5" gradientUnits="userSpaceOnUse">
<stop stop-color="#EAF4FE"/>
<stop offset="1" stop-color="#DCEDFF" stop-opacity="0"/>
</linearGradient>
<linearGradient id="paint1_linear_15053_24350" x1="261.669" y1="38.8933" x2="251.991" y2="38.8933" gradientUnits="userSpaceOnUse">
<stop stop-color="#FAB882"/>
<stop offset="1" stop-color="#FF7300"/>
</linearGradient>
<linearGradient id="paint2_linear_15053_24350" x1="389.966" y1="302.128" x2="291.116" y2="302.128" gradientUnits="userSpaceOnUse">
<stop stop-color="#FF7300"/>
<stop offset="1" stop-color="#FAB882"/>
</linearGradient>
<linearGradient id="paint3_linear_15053_24350" x1="401.419" y1="288.331" x2="349.269" y2="288.331" gradientUnits="userSpaceOnUse">
<stop stop-color="#FF7300"/>
<stop offset="1" stop-color="#FAB882"/>
</linearGradient>
<linearGradient id="paint4_linear_15053_24350" x1="333.963" y1="287.702" x2="267.396" y2="287.702" gradientUnits="userSpaceOnUse">
<stop stop-color="#FF7300"/>
<stop offset="1" stop-color="#FAB882"/>
</linearGradient>
<linearGradient id="paint5_linear_15053_24350" x1="491.88" y1="219.001" x2="472.162" y2="219.001" gradientUnits="userSpaceOnUse">
<stop stop-color="#FAB882"/>
<stop offset="1" stop-color="#FF7300"/>
</linearGradient>
<linearGradient id="paint6_linear_15053_24350" x1="474.911" y1="193.282" x2="456.469" y2="193.282" gradientUnits="userSpaceOnUse">
<stop stop-color="#FAB882"/>
<stop offset="1" stop-color="#FF7300"/>
</linearGradient>
<linearGradient id="paint7_linear_15053_24350" x1="460.414" y1="248.572" x2="442.984" y2="248.572" gradientUnits="userSpaceOnUse">
<stop stop-color="#FAB882"/>
<stop offset="1" stop-color="#FF7300"/>
</linearGradient>
</defs>
</svg>
