<svg width="52" height="52" viewBox="0 0 52 52" fill="none" xmlns="http://www.w3.org/2000/svg">
<circle cx="26" cy="26" r="26" fill="#009FD3"/>
<path d="M35.7849 19.6331C35.7466 19.2166 35.4741 18.8577 35.0826 18.7108L26.4988 15.4896C26.401 15.4407 26.2966 15.4077 26.188 15.3896C25.9517 15.3417 25.7039 15.3822 25.4867 15.495L16.9168 18.7108C16.5252 18.8577 16.2527 19.2166 16.2145 19.6331C16.2028 19.7599 15.1886 32.3065 25.3858 37.0027C25.3964 37.0102 25.4081 37.0177 25.4198 37.024C25.5922 37.1295 25.7879 37.1818 25.9838 37.1818C26.0136 37.1818 26.0434 37.1807 26.0732 37.1786C26.2499 37.1669 26.4255 37.1126 26.5819 37.0177C36.813 32.3331 35.7967 19.761 35.7849 19.6331ZM31.1517 23.7542L26.4834 28.6356C26.2805 28.8476 26.0008 28.9691 25.7074 28.9723C25.7031 28.9723 25.6994 28.9723 25.6951 28.9723C25.4059 28.9723 25.1284 28.8572 24.9239 28.6526L22.7421 26.4708C22.3159 26.0447 22.3159 25.3544 22.7421 24.9282C23.1682 24.5019 23.8585 24.5021 24.2847 24.9282L25.6777 26.3216L29.5753 22.2456C29.9912 21.8099 30.6837 21.795 31.1174 22.2116C31.5528 22.6282 31.5682 23.3185 31.1517 23.7542Z" fill="white"/>
</svg>
