<svg width="52" height="52" viewBox="0 0 52 52" fill="none" xmlns="http://www.w3.org/2000/svg">
<circle cx="26" cy="26" r="26" fill="#009FD3"/>
<g clip-path="url(#clip0_614_2988)">
<path d="M28.444 19.7067C24.8235 19.7067 21.8779 22.6522 21.8779 26.2727C21.8779 29.8932 24.8235 32.8387 28.444 32.8387C32.0645 32.8387 35.01 29.8932 35.01 26.2727C35.01 22.6522 32.0645 19.7067 28.444 19.7067ZM31.5402 27.0398H27.6769V21.6556H29.211V25.5057H31.5402V27.0398Z" fill="white"/>
<path d="M28.4737 15.6263C26.1379 15.62 23.977 16.3665 22.2188 17.636H16.4132C15.498 17.636 14.756 18.378 14.756 19.2932C14.756 20.2085 15.498 20.9505 16.4132 20.9505H19.2219C18.6868 21.8758 18.2873 22.8893 18.0497 23.9636H14.5664C13.6512 23.9637 12.9092 24.7056 12.9092 25.6209C12.9092 26.5362 13.6512 27.2781 14.5664 27.2781H17.8455C17.9445 28.335 18.198 29.3469 18.5833 30.2913H17.3996C16.4843 30.2913 15.7423 31.0332 15.7423 31.9485C15.7423 32.8638 16.4843 33.6057 17.3996 33.6057H20.7262C22.6659 35.6467 25.4065 36.9192 28.4444 36.9192C34.3243 36.9192 39.0909 32.1527 39.0909 26.2728C39.0909 20.3904 34.356 15.6421 28.4737 15.6263ZM28.4444 34.3728C23.978 34.3728 20.3443 30.7391 20.3443 26.2727C20.3443 21.8063 23.978 18.1726 28.4444 18.1726C32.9108 18.1726 36.5445 21.8063 36.5445 26.2727C36.5445 30.7391 32.9108 34.3728 28.4444 34.3728Z" fill="white"/>
</g>
<defs>
<clipPath id="clip0_614_2988">
<rect width="26.1817" height="26.1817" fill="white" transform="translate(12.9092 13.1818)"/>
</clipPath>
</defs>
</svg>
