<svg width="52" height="52" viewBox="0 0 52 52" fill="none" xmlns="http://www.w3.org/2000/svg">
<circle cx="26" cy="26" r="26" fill="#009FD3"/>
<g clip-path="url(#clip0_165_79970)">
<path d="M38.6777 14.2345C38.6657 13.8328 38.3431 13.51 37.9416 13.4978L27.5845 13.1824C27.3731 13.1764 27.1698 13.2573 27.0214 13.4073L14.2375 26.3228C12.6708 27.9056 12.6708 30.4808 14.2375 32.0637L20.2826 38.1709C21.0438 38.9401 22.0567 39.3638 23.1344 39.3638C24.2123 39.3638 25.2252 38.9401 25.9865 38.1709L38.7705 25.2551C38.9168 25.1073 38.9961 24.906 38.9899 24.698L38.6777 14.2345ZM28.8467 30.2855C28.6983 30.4337 28.5039 30.508 28.3094 30.508C28.115 30.508 27.9206 30.4339 27.7722 30.2855L27.4418 29.9549L26.8949 30.5018C26.7465 30.65 26.5522 30.7241 26.3578 30.7241C26.1632 30.7241 25.9689 30.65 25.8207 30.5016C25.5238 30.205 25.5238 29.724 25.8207 29.4274L27.2753 27.9728C27.5475 27.7005 27.5473 27.2575 27.2751 26.9852C27.0026 26.7127 26.5597 26.7125 26.2875 26.9848L25.9169 27.3551C25.9169 27.3553 25.9169 27.3553 25.9167 27.3553L25.5462 27.7261C25.1139 28.1583 24.546 28.3745 23.9784 28.3745C23.4103 28.3745 22.8424 28.1583 22.4099 27.7257C21.991 27.3068 21.7603 26.7501 21.7601 26.1576C21.7601 25.6445 21.9333 25.1581 22.2519 24.765L21.9125 24.4254C21.6159 24.1287 21.6159 23.6477 21.9125 23.3511C22.2092 23.0545 22.6902 23.0545 22.9868 23.3511L23.3174 23.6817L23.6637 23.3351C23.9604 23.0385 24.4414 23.0385 24.7382 23.3351C25.0348 23.632 25.0348 24.113 24.7382 24.4096L23.4838 25.6638C23.3519 25.7957 23.2794 25.9709 23.2794 26.1574C23.2794 26.344 23.3521 26.5194 23.4842 26.6514C23.7566 26.9239 24.1997 26.9239 24.4717 26.6518L24.8425 26.2811C24.8425 26.2811 24.8425 26.2809 24.8427 26.2809L25.213 25.9103C26.0777 25.0458 27.4846 25.046 28.3493 25.9107C29.1579 26.7191 29.2104 28.0015 28.5073 28.8714L28.8467 29.211C29.1433 29.5079 29.1433 29.9889 28.8467 30.2855ZM34.2212 21.232C33.777 21.6762 33.1933 21.8983 32.6098 21.8983C32.0261 21.8983 31.4425 21.6762 30.9982 21.232C30.5678 20.8015 30.3306 20.2292 30.3306 19.6204C30.3306 19.0117 30.5678 18.4394 30.9982 18.009C31.8867 17.1205 33.3327 17.1203 34.2212 18.009C35.1099 18.8975 35.1099 20.3435 34.2212 21.232Z" fill="white"/>
</g>
<defs>
<clipPath id="clip0_165_79970">
<rect width="26.1817" height="26.1817" fill="white" transform="translate(12.9092 13.1818)"/>
</clipPath>
</defs>
</svg>
