<svg width="52" height="52" viewBox="0 0 52 52" fill="none" xmlns="http://www.w3.org/2000/svg">
<circle cx="26" cy="26" r="26" fill="#009FD3"/>
<g clip-path="url(#clip0_614_2999)">
<path d="M9.48707 39.3953C9.34744 39.4351 9.19935 39.4326 9.063 39.3881C8.92666 39.3436 8.80872 39.2592 8.72527 39.1466C8.64183 39.0339 8.59696 38.8984 8.59678 38.7585C8.59661 38.6187 8.64114 38.4813 8.7243 38.3652L13.2895 33.3217L7.15377 29.9788L8.22614 29.0579L14.9773 30.819L21.259 24.3336L23.8251 21.6844L20.2681 19.7454L19.3105 19.2235L8.9902 13.5977L11.5629 11.391L20.5508 14.0515L23.0189 14.7789L29.2501 16.6163L40.2674 9.94679C41.9245 9.50043 43.3989 11.3335 42.3091 12.8342L34.3128 22.2761L35.3435 28.8478L37.1164 40.2966L34.5437 42.5033L32.4168 37.0178L31.6204 34.954L30.31 31.5807L28.481 26.8617L26.1602 28.5099L18.0718 34.2567L18.8902 41.1075L17.8201 42.0278L15.9939 37.3198L15.3158 35.5703L9.62428 39.3351C9.58044 39.3591 9.53451 39.3792 9.48707 39.3953Z" fill="white"/>
</g>
<defs>
<clipPath id="clip0_614_2999">
<rect width="26.1817" height="26.1817" fill="white" transform="translate(12.9092 13.1818)"/>
</clipPath>
</defs>
</svg>
