<svg width="52" height="52" viewBox="0 0 52 52" fill="none" xmlns="http://www.w3.org/2000/svg">
<circle cx="26" cy="26" r="26" fill="#009FD3"/>
<g clip-path="url(#clip0_614_3008)">
<path d="M15.2614 28.6249H13.6762C13.2523 28.6249 12.9092 28.968 12.9092 29.392V38.5965C12.9092 39.0205 13.2523 39.3635 13.6762 39.3635H15.2614C16.5303 39.3635 17.5626 38.3313 17.5626 37.0624V30.9261C17.5626 29.6572 16.5303 28.6249 15.2614 28.6249Z" fill="white"/>
<path d="M30.6533 13.1818C26.005 13.1818 22.2158 16.971 22.2158 21.6193C22.2158 23.6443 22.9368 25.5005 24.1334 26.9579C25.0999 27.234 26.005 27.7249 26.772 28.4C26.9163 28.5082 26.9977 28.5069 27.1555 28.5227H29.8863C30.9448 28.5227 31.8806 29.0442 32.4175 29.8727C36.222 29.0596 39.0908 25.6693 39.0908 21.6193C39.0908 16.971 35.3016 13.1818 30.6533 13.1818ZM31.4357 25.3164H31.4203V26.2216C31.4203 26.6511 31.0829 26.9886 30.6533 26.9886C30.2237 26.9886 29.8863 26.6511 29.8863 26.2216V25.3164C29.38 25.1476 28.9044 24.8255 28.4903 24.3193C28.2141 23.9971 28.2602 23.5215 28.5823 23.2454C28.9044 22.9693 29.3953 23.0153 29.6561 23.3375C30.0704 23.8284 30.5306 24.0125 30.9141 23.8744C31.2209 23.767 31.4203 23.4755 31.4203 23.1534C31.4203 22.7238 31.0829 22.3863 30.6533 22.3863C29.38 22.3863 28.3522 21.3585 28.3522 20.0852C28.3522 19.1647 28.9044 18.321 29.7635 17.9682C29.7943 17.9528 29.8402 17.9528 29.8863 17.9374V17.017C29.8863 16.5874 30.2237 16.25 30.6533 16.25C31.0829 16.25 31.4203 16.5874 31.4203 17.017V17.9374C31.8192 18.0756 32.2027 18.275 32.5556 18.6124C32.8624 18.9039 32.8624 19.3948 32.5709 19.7017C32.2794 20.0086 31.7885 20.0085 31.4817 19.717C31.1135 19.3641 30.6994 19.2261 30.3618 19.3795C30.0703 19.5023 29.8863 19.7784 29.8863 20.0852C29.8863 20.5147 30.2237 20.8523 30.6533 20.8523C31.9266 20.8523 32.9544 21.8801 32.9544 23.1534C32.9544 24.1199 32.3407 24.9789 31.4357 25.3164Z" fill="white"/>
<path d="M38.8608 30.113C38.7687 29.9596 38.6461 29.8369 38.508 29.7295C37.9432 29.2354 36.9916 29.2821 36.437 29.8829L32.9546 33.9023L32.8472 34.0249C32.4177 34.5004 31.804 34.7613 31.1597 34.7613H25.1563C24.7267 34.7613 24.3893 34.4237 24.3893 33.9942C24.3893 33.5647 24.7267 33.2272 25.1563 33.2272H29.8864C30.7302 33.2272 31.4205 32.5369 31.4205 31.6931V31.6778C31.4052 30.834 30.7302 30.159 29.8864 30.159H27.0586C26.5986 30.159 26.1056 29.9901 25.7086 29.6528C23.8371 28.0113 21.1063 27.9039 19.0967 29.3V38.7346C20.6154 39.1488 22.1802 39.3636 23.7603 39.3636H30.6535C32.3409 39.3636 33.9364 38.5658 34.9489 37.2158L38.6308 32.3068C39.168 31.6016 39.2085 30.6346 38.8608 30.113Z" fill="white"/>
</g>
<defs>
<clipPath id="clip0_614_3008">
<rect width="26.1817" height="26.1817" fill="white" transform="translate(12.9092 13.1818)"/>
</clipPath>
</defs>
</svg>
