<svg width="60" height="60" viewBox="0 0 60 60" fill="none" xmlns="http://www.w3.org/2000/svg">
<rect x="0.5" y="0.5" width="59" height="59" rx="7.5" fill="white" stroke="#D8DEE6"/>
<path d="M23.9668 30.0001L27.9835 34.0335L36.0335 25.9668" stroke="#0061BF" stroke-width="2" stroke-linecap="round" stroke-linejoin="round"/>
<path d="M27.9168 14.0832C29.0668 13.0999 30.9501 13.0999 32.1168 14.0832L34.7501 16.3499C35.2501 16.7832 36.1835 17.1332 36.8501 17.1332H39.6835C41.4501 17.1332 42.9001 18.5832 42.9001 20.3499V23.1832C42.9001 23.8332 43.2501 24.7832 43.6835 25.2832L45.9501 27.9165C46.9335 29.0665 46.9335 30.9499 45.9501 32.1165L43.6835 34.7499C43.2501 35.2499 42.9001 36.1832 42.9001 36.8499V39.6832C42.9001 41.4499 41.4501 42.8999 39.6835 42.8999H36.8501C36.2001 42.8999 35.2501 43.2499 34.7501 43.6832L32.1168 45.9499C30.9668 46.9332 29.0835 46.9332 27.9168 45.9499L25.2835 43.6832C24.7835 43.2499 23.8501 42.8999 23.1835 42.8999H20.3001C18.5335 42.8999 17.0835 41.4499 17.0835 39.6832V36.8332C17.0835 36.1832 16.7335 35.2499 16.3168 34.7499L14.0668 32.0999C13.1001 30.9499 13.1001 29.0832 14.0668 27.9332L16.3168 25.2832C16.7335 24.7832 17.0835 23.8499 17.0835 23.1999V20.3332C17.0835 18.5665 18.5335 17.1165 20.3001 17.1165H23.1835C23.8335 17.1165 24.7835 16.7665 25.2835 16.3332L27.9168 14.0832Z" stroke="#FF7300" stroke-width="2" stroke-linecap="round" stroke-linejoin="round"/>
</svg>
