<svg width="582" height="379" viewBox="0 0 582 379" fill="none" xmlns="http://www.w3.org/2000/svg">
<ellipse cx="211.5" cy="189.5" rx="211.5" ry="189.5" transform="matrix(-1 0 0 1 476 0)" fill="url(#paint0_linear_15227_31435)"/>
<g filter="url(#filter0_d_15227_31435)">
<rect x="86.002" y="52.2266" width="390" height="258" rx="17.1488" fill="white"/>
</g>
<path opacity="0.3" d="M86.002 69.7266C86.002 60.0616 93.837 52.2266 103.502 52.2266H459.502C468.615 52.2266 476.002 59.6139 476.002 68.7266V79.2266H86.002V69.7266Z" fill="#0061BF"/>
<circle cx="426.335" cy="68.514" r="3.33524" fill="#FF6259"/>
<circle cx="437.769" cy="68.514" r="3.33524" fill="#FFBE2F"/>
<circle cx="449.206" cy="68.514" r="3.33524" fill="#29CD41"/>
<rect x="105.832" y="96.9296" width="73.3753" height="191.538" rx="3.33524" stroke="#F2F5F6" stroke-width="0.952926"/>
<g opacity="0.6">
<path d="M169.736 165.065H115.299C115.069 165.065 114.883 164.862 114.883 164.61V160.756C114.883 160.504 115.069 160.301 115.299 160.301H169.736C169.966 160.301 170.153 160.504 170.153 160.756V164.61C170.153 164.862 169.966 165.065 169.736 165.065Z" fill="#D8DEE6"/>
<path d="M152.713 172.689H115.17C115.011 172.689 114.883 172.526 114.883 172.325V169.241C114.883 169.04 115.011 168.877 115.17 168.877H152.713C152.872 168.877 153 169.04 153 169.241V172.325C153 172.525 152.872 172.689 152.713 172.689Z" fill="#D8DEE6"/>
<path d="M168.605 152.398H116.43C115.575 152.398 114.883 151.707 114.883 150.855V107.526C114.883 106.674 115.575 105.983 116.43 105.983H168.605C169.46 105.983 170.152 106.674 170.152 107.526V150.855C170.153 151.707 169.46 152.398 168.605 152.398Z" fill="#D8DEE6"/>
</g>
<rect x="277.84" y="101.218" width="160.092" height="9.52926" rx="4.76463" fill="#EBEFF2"/>
<rect x="277.84" y="120.276" width="184.868" height="4.76463" rx="2.38232" fill="#EBEFF2"/>
<rect x="277.84" y="134.57" width="165.809" height="4.76463" rx="2.38232" fill="#EBEFF2"/>
<rect x="277.84" y="148.864" width="135.316" height="4.76463" rx="2.38232" fill="#EBEFF2"/>
<rect x="277.84" y="163.158" width="160.092" height="4.76463" rx="2.38232" fill="#EBEFF2"/>
<rect x="194.002" y="96.2266" width="74.3283" height="76.2341" rx="3.81171" fill="#F2F5F6"/>
<mask id="mask0_15227_31435" style="mask-type:luminance" maskUnits="userSpaceOnUse" x="210" y="113" width="44" height="44">
<path d="M210.002 113.227H253.002V156.227H210.002V113.227Z" fill="white"/>
</mask>
<g mask="url(#mask0_15227_31435)">
<path d="M230.533 140.216C230.533 141.469 229.517 142.485 228.264 142.485C227.01 142.485 225.994 141.469 225.994 140.216C225.994 138.963 227.01 137.947 228.264 137.947C229.517 137.947 230.533 138.963 230.533 140.216Z" stroke="#FF7300" stroke-width="1.5" stroke-miterlimit="10" stroke-linecap="round" stroke-linejoin="round"/>
<path d="M230.533 137.731V142.704" stroke="#FF7300" stroke-width="1.5" stroke-miterlimit="10" stroke-linecap="round" stroke-linejoin="round"/>
<path d="M237.15 140.216C237.15 141.469 236.134 142.485 234.881 142.485C233.627 142.485 232.611 141.469 232.611 140.216C232.611 138.963 233.627 137.947 234.881 137.947C236.134 137.947 237.15 138.963 237.15 140.216Z" stroke="#FF7300" stroke-width="1.5" stroke-miterlimit="10" stroke-linecap="round" stroke-linejoin="round"/>
<path d="M237.15 137.731V142.704" stroke="#FF7300" stroke-width="1.5" stroke-miterlimit="10" stroke-linecap="round" stroke-linejoin="round"/>
<path d="M241.455 138.866C242.596 138.866 243.521 139.725 243.521 140.785C243.521 141.845 242.596 142.704 241.455 142.704C240.314 142.704 239.389 141.845 239.389 140.785" stroke="#FF7300" stroke-width="1.5" stroke-miterlimit="10" stroke-linecap="round" stroke-linejoin="round"/>
<path d="M241.455 138.865C240.314 138.865 239.389 138.006 239.389 136.946C239.389 135.886 240.314 135.027 241.455 135.027C242.596 135.027 243.521 135.886 243.521 136.946" stroke="#FF7300" stroke-width="1.5" stroke-miterlimit="10" stroke-linecap="round" stroke-linejoin="round"/>
<path d="M221.83 138.866C222.971 138.866 223.896 139.725 223.896 140.785C223.896 141.845 222.971 142.704 221.83 142.704C220.689 142.704 219.764 141.845 219.764 140.785" stroke="#FF7300" stroke-width="1.5" stroke-miterlimit="10" stroke-linecap="round" stroke-linejoin="round"/>
<path d="M221.83 138.865C220.689 138.865 219.764 138.006 219.764 136.946C219.764 135.886 220.689 135.027 221.83 135.027C222.971 135.027 223.896 135.886 223.896 136.946" stroke="#FF7300" stroke-width="1.5" stroke-miterlimit="10" stroke-linecap="round" stroke-linejoin="round"/>
<path d="M232.971 147.009H246.722C249.777 147.009 252.327 144.581 252.371 141.526C252.41 138.79 250.464 136.471 247.845 135.979C247.236 135.865 246.812 135.317 246.842 134.698C247.022 130.934 243.326 128.086 239.757 129.121C239.143 129.299 238.493 128.995 238.254 128.402C237.845 127.384 237.263 126.454 236.547 125.646" stroke="#FF7300" stroke-width="1.5" stroke-miterlimit="10" stroke-linecap="round" stroke-linejoin="round"/>
<path d="M234.28 123.771C232.862 122.929 231.206 122.445 229.437 122.445C224.342 122.445 220.227 126.443 219.952 131.406C219.913 132.105 219.292 132.626 218.596 132.554C214.42 132.127 210.592 135.423 210.631 139.833C210.667 143.82 213.967 147.009 217.955 147.009H230.031" stroke="#FF7300" stroke-width="1.5" stroke-miterlimit="10" stroke-linecap="round" stroke-linejoin="round"/>
</g>
<rect x="193.98" y="188.888" width="58.1285" height="44.7875" rx="7.62341" fill="#F2F5F6"/>
<rect x="193.98" y="239.392" width="57.1756" height="6.67048" rx="3.33524" fill="#F2F5F6"/>
<path d="M223.639 210.805C223.639 213.078 221.802 214.914 219.529 214.914C217.257 214.914 215.42 213.078 215.42 210.805C215.42 208.532 217.257 206.695 219.529 206.695" stroke="#AAB4BE" stroke-width="1.14351" stroke-linecap="round" stroke-linejoin="round"/>
<path d="M221.137 210.805C221.137 208.439 223.059 206.517 225.425 206.517C227.791 206.517 229.713 208.439 229.713 210.805C229.713 213.17 227.791 215.093 225.425 215.093" stroke="#AAB4BE" stroke-width="1.14351" stroke-linecap="round" stroke-linejoin="round"/>
<rect x="264.496" y="188.888" width="58.1285" height="44.7875" rx="7.62341" fill="#F2F5F6"/>
<rect x="264.496" y="239.393" width="57.1756" height="6.67048" rx="3.33524" fill="#F2F5F6"/>
<rect x="335.014" y="188.888" width="57.1756" height="44.7875" rx="7.62341" fill="#F2F5F6"/>
<path d="M364.67 210.805C364.67 213.078 362.833 214.914 360.561 214.914C358.288 214.914 356.451 213.078 356.451 210.805C356.451 208.532 358.288 206.695 360.561 206.695" stroke="#FF7300" stroke-width="1.14351" stroke-linecap="round" stroke-linejoin="round"/>
<path d="M362.168 210.805C362.168 208.439 364.09 206.517 366.456 206.517C368.822 206.517 370.744 208.439 370.744 210.805C370.744 213.17 368.822 215.093 366.456 215.093" stroke="#0061BF" stroke-width="1.14351" stroke-linecap="round" stroke-linejoin="round"/>
<rect x="335.014" y="239.393" width="57.1756" height="6.67048" rx="3.33524" fill="#F2F5F6"/>
<rect x="404.578" y="188.888" width="58.1285" height="44.7875" rx="7.62341" fill="#F2F5F6"/>
<rect x="404.578" y="239.392" width="57.1756" height="6.67048" rx="3.33524" fill="#F2F5F6"/>
<rect x="194.002" y="262.227" width="221.079" height="9.52926" rx="4.76463" fill="#EBEFF2"/>
<rect x="194.002" y="281.073" width="169" height="5" rx="2.5" fill="#EBEFF2"/>
<path d="M477 221.227C484.211 221.227 492.862 221.227 504.997 221.227C506.102 221.227 507 222.122 507 223.227V258.227" stroke="#A9CBF7" stroke-width="1.5" stroke-linecap="round" stroke-linejoin="round" stroke-dasharray="6 6"/>
<g filter="url(#filter1_d_15227_31435)">
<rect x="444" y="257.227" width="104.92" height="61" rx="9.76" fill="white"/>
</g>
<rect x="452.945" y="285.286" width="69.9467" height="5.69333" rx="2.84667" fill="#EDF1F4"/>
<g clip-path="url(#clip0_15227_31435)">
<path d="M539.855 287.842L537.222 285.052C537.06 284.88 536.79 284.873 536.618 285.035C536.447 285.196 536.439 285.467 536.601 285.638L538.958 288.135L536.601 290.632C536.439 290.803 536.447 291.073 536.618 291.235C536.701 291.313 536.806 291.352 536.911 291.352C537.025 291.352 537.138 291.307 537.222 291.218L539.855 288.428C540.01 288.263 540.01 288.006 539.855 287.842Z" fill="#AAB4BE"/>
<path d="M531.957 290.631L529.6 288.135L531.957 285.638C532.119 285.467 532.111 285.196 531.939 285.034C531.768 284.873 531.497 284.88 531.336 285.052L528.702 287.842C528.547 288.006 528.547 288.263 528.702 288.428L531.336 291.218C531.42 291.307 531.533 291.352 531.646 291.352C531.751 291.352 531.857 291.313 531.939 291.235C532.111 291.073 532.119 290.803 531.957 290.631Z" fill="#AAB4BE"/>
<path d="M534.971 283.612C534.738 283.577 534.52 283.737 534.484 283.97L533.232 292.168C533.196 292.402 533.356 292.619 533.589 292.655C533.611 292.658 533.633 292.66 533.654 292.66C533.862 292.66 534.044 292.509 534.076 292.297L535.328 284.099C535.364 283.866 535.204 283.648 534.971 283.612Z" fill="#AAB4BE"/>
</g>
<g clip-path="url(#clip1_15227_31435)">
<path d="M464.214 304.105L461.581 301.316C461.419 301.144 461.149 301.136 460.978 301.298C460.806 301.46 460.798 301.73 460.96 301.902L463.317 304.398L460.96 306.895C460.798 307.067 460.806 307.337 460.978 307.499C461.06 307.577 461.166 307.615 461.271 307.615C461.384 307.615 461.497 307.57 461.581 307.482L464.214 304.692C464.37 304.527 464.37 304.27 464.214 304.105Z" fill="#AAB4BE"/>
<path d="M456.316 306.895L453.96 304.398L456.316 301.902C456.478 301.73 456.47 301.46 456.299 301.298C456.127 301.136 455.857 301.144 455.695 301.316L453.062 304.105C452.906 304.27 452.906 304.527 453.062 304.692L455.695 307.481C455.779 307.57 455.892 307.615 456.006 307.615C456.111 307.615 456.216 307.577 456.299 307.499C456.47 307.337 456.478 307.067 456.316 306.895Z" fill="#AAB4BE"/>
<path d="M459.33 299.876C459.097 299.841 458.879 300.001 458.843 300.234L457.591 308.432C457.555 308.665 457.715 308.883 457.949 308.919C457.97 308.922 457.992 308.924 458.014 308.924C458.221 308.924 458.403 308.772 458.435 308.561L459.688 300.363C459.723 300.129 459.563 299.912 459.33 299.876Z" fill="#AAB4BE"/>
</g>
<rect x="467.586" y="301.96" width="36.6" height="4.88" rx="2.44" fill="#EDF1F4"/>
<rect x="507.439" y="301.96" width="12.2" height="4.88" rx="2.44" fill="#EDF1F4"/>
<rect x="522.893" y="302.367" width="17.08" height="4.06667" rx="2.03333" fill="#EDF1F4"/>
<rect x="453" y="268.227" width="82" height="4" rx="2" fill="#EDF1F4"/>
<path opacity="0.2" d="M498.316 55.2012H500.016C500.016 60.1768 504.04 64.2092 509.003 64.2092V65.9133C504.039 65.9133 500.016 69.9467 500.016 74.9223H498.316C498.316 69.9467 494.292 65.9133 489.328 65.9133V64.2092C494.292 64.2092 498.316 60.1757 498.316 55.2012Z" fill="url(#paint1_linear_15227_31435)"/>
<path d="M482.645 30H483.071C483.071 34.9757 487.095 39.0091 492.058 39.0091V39.4354C487.094 39.4354 483.07 43.4688 483.07 48.4445H482.644C482.644 43.4688 478.62 39.4354 473.656 39.4354V39.0091C478.621 39.0091 482.645 34.9757 482.645 30Z" fill="url(#paint2_linear_15227_31435)"/>
<path opacity="0.2" d="M468.891 86.0732C468.891 90.8871 472.784 94.7894 477.587 94.7894C472.784 94.7894 468.891 98.6916 468.891 103.506C468.891 98.6916 464.998 94.7894 460.195 94.7894C464.998 94.7883 468.891 90.8871 468.891 86.0732Z" fill="url(#paint3_linear_15227_31435)"/>
<g filter="url(#filter2_d_15227_31435)">
<rect x="33.002" y="33" width="147" height="79" rx="13.1512" fill="white"/>
</g>
<rect x="74.9219" y="46.9727" width="86.3047" height="8.21949" rx="4.10975" fill="#EDF1F4"/>
<rect x="74.9219" y="62.5898" width="56.7145" height="4.10975" rx="2.05487" fill="#EDF1F4"/>
<circle cx="59.3048" cy="56.836" r="9.86339" fill="#EDF1F4"/>
<g clip-path="url(#clip2_15227_31435)">
<path d="M57.4697 61.8836C56.8801 61.8839 56.3037 61.7092 55.8134 61.3818C55.323 61.0544 54.9409 60.5889 54.7152 60.0442C54.4895 59.4995 54.4305 58.9001 54.5456 58.3218C54.6607 57.7436 54.9448 57.2125 55.3618 56.7957L57.0333 55.123L57.9053 55.9943L56.2339 57.6674C56.0716 57.8297 55.9429 58.0224 55.8551 58.2345C55.7673 58.4466 55.7221 58.6739 55.7221 58.9035C55.7222 59.133 55.7674 59.3603 55.8553 59.5724C55.9432 59.7844 56.072 59.9771 56.2343 60.1394C56.3967 60.3017 56.5894 60.4304 56.8015 60.5182C57.0136 60.606 57.2409 60.6512 57.4704 60.6512C57.7 60.6511 57.9273 60.6059 58.1393 60.518C58.3514 60.4301 58.544 60.3013 58.7063 60.139L60.3782 58.4671L61.2499 59.3388L59.578 61.0107C59.3015 61.2879 58.9728 61.5078 58.611 61.6576C58.2492 61.8074 57.8613 61.8842 57.4697 61.8836Z" fill="#889FB7"/>
<path d="M61.8064 58.7812L60.9348 57.9096L62.6066 56.2377C62.932 55.9094 63.1142 55.4655 63.1132 55.0033C63.1122 54.541 62.9281 54.0979 62.6013 53.771C62.2745 53.4441 61.8315 53.2599 61.3692 53.2587C60.9069 53.2576 60.463 53.4396 60.1346 53.7649L58.4615 55.4367L57.5898 54.5646L59.2629 52.8928C59.8233 52.3396 60.5797 52.0306 61.3671 52.0332C62.1545 52.0358 62.9089 52.3498 63.4656 52.9067C64.0223 53.4635 64.3361 54.218 64.3385 55.0054C64.3408 55.7928 64.0316 56.5492 63.4783 57.1094L61.8064 58.7812Z" fill="#889FB7"/>
<path d="M60.377 55.122L57.5898 57.9092L58.4617 58.781L61.2488 55.9938L60.377 55.122Z" fill="#889FB7"/>
</g>
<rect x="74.9219" y="78.6992" width="86.3047" height="8.21949" rx="4.10975" fill="#EDF1F4"/>
<rect x="74.9219" y="94.3164" width="56.7145" height="4.10975" rx="2.05487" fill="#EDF1F4"/>
<circle cx="59.3048" cy="88.5626" r="9.86339" fill="#EDF1F4"/>
<g clip-path="url(#clip3_15227_31435)">
<path d="M57.4131 93.5515C56.8235 93.5518 56.247 93.3772 55.7567 93.0498C55.2664 92.7224 54.8842 92.2569 54.6586 91.7122C54.4329 91.1675 54.3739 90.5681 54.489 89.9898C54.6041 89.4116 54.8881 88.8804 55.3052 88.4637L56.9766 86.791L57.8487 87.6623L56.1773 89.3354C56.015 89.4977 55.8863 89.6904 55.7985 89.9025C55.7106 90.1146 55.6655 90.3419 55.6655 90.5715C55.6655 90.801 55.7108 91.0283 55.7987 91.2404C55.8866 91.4524 56.0153 91.6451 56.1777 91.8074C56.34 91.9697 56.5327 92.0984 56.7448 92.1862C56.9569 92.274 57.1842 92.3192 57.4138 92.3191C57.6433 92.3191 57.8706 92.2738 58.0827 92.186C58.2947 92.0981 58.4874 91.9693 58.6497 91.807L60.3215 90.1351L61.1932 91.0068L59.5214 92.6786C59.2448 92.9559 58.9162 93.1758 58.5544 93.3256C58.1925 93.4754 57.8047 93.5522 57.4131 93.5515Z" fill="#889FB7"/>
<path d="M61.7498 90.4492L60.8781 89.5775L62.55 87.9057C62.8754 87.5773 63.0575 87.1335 63.0565 86.6712C63.0555 86.209 62.8715 85.7659 62.5447 85.439C62.2179 85.112 61.7748 84.9278 61.3126 84.9267C60.8503 84.9256 60.4064 85.1075 60.078 85.4328L58.4049 87.1047L57.5332 86.2326L59.2063 84.5608C59.7666 84.0076 60.5231 83.6986 61.3105 83.7012C62.0979 83.7038 62.8523 84.0178 63.409 84.5747C63.9657 85.1315 64.2795 85.886 64.2818 86.6734C64.2842 87.4608 63.975 88.2171 63.4216 88.7774L61.7498 90.4492Z" fill="#889FB7"/>
<path d="M60.3204 86.79L57.5332 89.5771L58.405 90.449L61.1922 87.6618L60.3204 86.79Z" fill="#889FB7"/>
</g>
<path opacity="0.2" d="M193.002 342.727C193.002 344.913 175.02 346.802 148.978 347.688C138.845 348.033 127.491 348.227 115.502 348.227C72.6999 348.227 38.002 345.764 38.002 342.727C38.002 339.689 72.6999 337.227 115.502 337.227C158.304 337.227 193.002 339.689 193.002 342.727Z" fill="#FF7300"/>
<path d="M98.8571 299.435L63.0947 318.277C63.0947 318.277 89.8082 333.452 115.356 327.165C140.905 320.879 144.805 309.4 144.805 309.4L98.8571 299.435Z" fill="#3A67B3"/>
<path d="M115.359 303.806C115.359 303.806 176.344 297.868 180.017 314.163C185.579 338.827 102.855 338.827 102.855 338.827L95.7306 322.263L129.63 308.989" fill="#3F6DBB"/>
<path d="M117.127 342.674L133.971 342.065C133.971 342.065 136.66 341.211 138.362 336.167C140.065 331.123 139.376 330.669 139.376 330.669L119.742 328.47" fill="#FEDED0"/>
<path d="M95.7372 301.697C95.7372 301.697 49.1003 304.521 51.0623 325.725C53.026 346.929 122.551 345.234 122.551 345.234L127.572 324.188C127.572 324.188 91.6427 316.301 76.4212 316.301" fill="#3F6DBB"/>
<path d="M132.821 329.707C132.821 329.707 133.012 330.611 132.478 331.146C131.944 331.68 130.806 330.876 129.576 332.106C128.434 333.248 127.856 338.08 128.322 339.031C128.789 339.981 129.852 339.848 129.787 340.442C129.649 341.71 128.16 342.275 128.16 342.275C128.16 342.275 131.894 342.809 136.804 343.162C145.55 343.792 148.185 343.693 151.393 343.162C154.008 342.73 157.093 337.87 153.761 334.538C148.757 329.535 137.816 329.869 137.816 329.869L132.821 329.707Z" fill="#FFB156"/>
<path d="M110.165 223.765C110.165 223.765 114.401 234.759 110.92 238.437C109.112 240.348 103.659 240.793 101.297 238.988C99.5427 237.648 96.8062 229.184 97.7513 227.671C101.363 221.886 110.165 223.765 110.165 223.765Z" fill="#FFC6AD"/>
<path d="M96.3681 234.608L95.5952 246.574C95.5952 246.574 103.264 252.589 109.551 245.838L108.218 238.047L96.3681 234.608Z" fill="#FFC6AD"/>
<path d="M93.2563 231.23C92.7018 228.729 91.105 224.666 92.6199 223.084C93.1915 222.487 93.9541 222.098 94.5154 221.492C95.0715 220.891 95.394 220.116 95.7642 219.386C96.404 218.12 97.2399 216.915 98.4086 216.111C99.5772 215.308 101.12 214.958 102.447 215.46C102.936 215.646 103.39 215.939 103.906 216.033C104.511 216.144 105.125 215.965 105.729 215.844C107.336 215.519 109.022 215.598 110.593 216.069C112.47 216.634 114.282 217.908 114.829 219.79C115.379 221.673 114.123 224.06 112.165 224.15C111.236 224.193 110.203 223.772 109.433 224.292C109.177 224.466 108.991 224.722 108.78 224.949C107.833 225.959 106.251 226.312 104.965 225.802C103.307 225.145 102.483 224.843 102.196 226.858C101.988 228.319 100.922 229.623 99.5312 230.116C98.7055 230.409 97.7603 230.449 97.0745 230.993C96.3664 231.556 96.1225 232.631 96.52 233.445C96.6684 233.749 96.8936 234.017 96.9926 234.339C97.2689 235.235 96.5097 236.09 95.8171 236.721C93.7954 234.223 93.6112 232.834 93.2563 231.23Z" fill="#0B0B3A"/>
<path d="M99.5807 230.93C97.9307 228.736 96.3784 228.937 95.4274 229.992C94.1604 231.4 96.034 234.69 97.0055 235.305C98.9767 236.55 100.681 236.575 101.002 235.126" fill="#FFCBBD"/>
<path d="M108.594 240.244C104.46 241.229 100.876 238.55 100.876 238.55" stroke="#DC9D81" stroke-width="0.75" stroke-miterlimit="10" stroke-linecap="round" stroke-linejoin="round"/>
<path d="M122.596 248.678C122.596 248.678 132.595 251.2 136.393 267.648C138.595 277.187 141.076 286.869 141.076 286.869C141.076 286.869 157.174 288.662 162.438 290.287L160.465 299.431C160.465 299.431 129.388 302.156 122.543 295.31C115.7 288.466 118.498 270.339 118.498 270.339" fill="url(#paint4_linear_15227_31435)"/>
<path d="M105.337 248.32L93.9712 246.791L91.3848 247.358C91.3848 247.358 111.358 303.705 111.798 303.705C112.238 303.705 119.195 302.56 119.195 302.56L114.016 247.044L111.581 246.071L105.337 248.32Z" fill="url(#paint5_linear_15227_31435)"/>
<path d="M112.903 287.448C102.588 259.915 91.1146 247.359 91.1146 247.359C91.1146 247.359 78.6979 248.53 75.1868 254.69C70.7954 262.396 75.9921 273.206 77.0737 288.533C78.1554 303.858 79.4008 299.951 79.4008 299.951C79.4008 299.951 94.757 305.804 108.366 305.804C108.366 305.804 124.129 305.329 128.182 303.708C128.182 303.708 128.182 291.33 128.182 281.658C128.182 271.984 130.624 256.465 125.666 250.427C123.489 247.776 113.744 247.049 113.744 247.049L112.903 287.448Z" fill="url(#paint6_linear_15227_31435)"/>
<path d="M164.852 304.732H117.937L121.608 276.66C121.726 275.756 122.497 275.08 123.408 275.08H166.768C167.807 275.08 168.61 275.995 168.475 277.025L164.852 304.732Z" fill="#292466"/>
<path d="M148.363 289.7C148.239 291.475 146.7 292.915 144.926 292.915C143.151 292.915 141.812 291.477 141.937 289.7C142.061 287.926 143.6 286.485 145.374 286.485C147.149 286.485 148.486 287.924 148.363 289.7Z" fill="#B6C2FF"/>
<path d="M95.7691 243.942L105.026 247.719L109.23 243.942L111.584 246.074C111.584 246.074 112.028 250.991 109.839 251.701C107.748 252.38 105.135 248.611 105.135 248.611C105.135 248.611 104.072 252.375 102.116 253.415C98.4961 255.337 93.9743 246.792 93.9743 246.792L95.7691 243.942Z" fill="white"/>
<path d="M120.765 300.375C122.785 300.241 131.929 299.782 131.933 300.328C131.936 300.854 128.918 301.491 129.077 301.752C129.302 302.122 131.649 302.117 132.965 301.994C134.139 301.883 136.041 301.898 136.155 302.402C136.372 303.361 129.926 303.886 129.926 303.886C129.991 304.176 136.752 302.025 137.017 302.808C137.399 303.938 130.1 305.637 129.906 305.951C129.906 305.951 135.826 302.721 136.107 303.557C136.389 304.393 131.175 307.408 129.411 307.712C130.812 307.192 134.707 304.141 134.913 304.751C135.12 305.361 131.602 307.574 131.003 307.768C126.089 309.371 121.282 309.396 121.282 309.396" fill="#FFCBBD"/>
<path d="M90.5353 270.368C90.5353 285.883 91.3832 292.536 91.3832 292.536C91.3832 292.536 104.897 297.28 121.098 298.959C120.149 305.078 119.194 312.873 119.194 312.873C119.194 312.873 87.3347 310.586 78.2073 304.176C68.3497 297.251 67.2579 256.7 78.7447 251.2" fill="url(#paint7_linear_15227_31435)"/>
<defs>
<filter id="filter0_d_15227_31435" x="43.13" y="25.4316" width="475.744" height="343.744" filterUnits="userSpaceOnUse" color-interpolation-filters="sRGB">
<feFlood flood-opacity="0" result="BackgroundImageFix"/>
<feColorMatrix in="SourceAlpha" type="matrix" values="0 0 0 0 0 0 0 0 0 0 0 0 0 0 0 0 0 0 127 0" result="hardAlpha"/>
<feOffset dy="16.077"/>
<feGaussianBlur stdDeviation="21.436"/>
<feComposite in2="hardAlpha" operator="out"/>
<feColorMatrix type="matrix" values="0 0 0 0 0.117647 0 0 0 0 0.129412 0 0 0 0 0.176471 0 0 0 0.08 0"/>
<feBlend mode="normal" in2="BackgroundImageFix" result="effect1_dropShadow_15227_31435"/>
<feBlend mode="normal" in="SourceGraphic" in2="effect1_dropShadow_15227_31435" result="shape"/>
</filter>
<filter id="filter1_d_15227_31435" x="411.467" y="236.893" width="169.987" height="126.067" filterUnits="userSpaceOnUse" color-interpolation-filters="sRGB">
<feFlood flood-opacity="0" result="BackgroundImageFix"/>
<feColorMatrix in="SourceAlpha" type="matrix" values="0 0 0 0 0 0 0 0 0 0 0 0 0 0 0 0 0 0 127 0" result="hardAlpha"/>
<feOffset dy="12.2"/>
<feGaussianBlur stdDeviation="16.2667"/>
<feComposite in2="hardAlpha" operator="out"/>
<feColorMatrix type="matrix" values="0 0 0 0 0.117647 0 0 0 0 0.129412 0 0 0 0 0.176471 0 0 0 0.08 0"/>
<feBlend mode="normal" in2="BackgroundImageFix" result="effect1_dropShadow_15227_31435"/>
<feBlend mode="normal" in="SourceGraphic" in2="effect1_dropShadow_15227_31435" result="shape"/>
</filter>
<filter id="filter2_d_15227_31435" x="0.123985" y="12.4513" width="212.756" height="144.756" filterUnits="userSpaceOnUse" color-interpolation-filters="sRGB">
<feFlood flood-opacity="0" result="BackgroundImageFix"/>
<feColorMatrix in="SourceAlpha" type="matrix" values="0 0 0 0 0 0 0 0 0 0 0 0 0 0 0 0 0 0 127 0" result="hardAlpha"/>
<feOffset dy="12.3292"/>
<feGaussianBlur stdDeviation="16.439"/>
<feComposite in2="hardAlpha" operator="out"/>
<feColorMatrix type="matrix" values="0 0 0 0 0.117647 0 0 0 0 0.129412 0 0 0 0 0.176471 0 0 0 0.08 0"/>
<feBlend mode="normal" in2="BackgroundImageFix" result="effect1_dropShadow_15227_31435"/>
<feBlend mode="normal" in="SourceGraphic" in2="effect1_dropShadow_15227_31435" result="shape"/>
</filter>
<linearGradient id="paint0_linear_15227_31435" x1="367.627" y1="1.01097e-05" x2="120.868" y2="323.003" gradientUnits="userSpaceOnUse">
<stop stop-color="#D5EAFF"/>
<stop offset="1" stop-color="#D9ECFF" stop-opacity="0"/>
</linearGradient>
<linearGradient id="paint1_linear_15227_31435" x1="508.996" y1="65.1745" x2="489.31" y2="65.1745" gradientUnits="userSpaceOnUse">
<stop stop-color="#FAB882"/>
<stop offset="1" stop-color="#FF7300"/>
</linearGradient>
<linearGradient id="paint2_linear_15227_31435" x1="492.051" y1="39.3277" x2="473.64" y2="39.3277" gradientUnits="userSpaceOnUse">
<stop stop-color="#FAB882"/>
<stop offset="1" stop-color="#FF7300"/>
</linearGradient>
<linearGradient id="paint3_linear_15227_31435" x1="477.581" y1="94.8891" x2="460.18" y2="94.8891" gradientUnits="userSpaceOnUse">
<stop stop-color="#FAB882"/>
<stop offset="1" stop-color="#FF7300"/>
</linearGradient>
<linearGradient id="paint4_linear_15227_31435" x1="117.807" y1="274.592" x2="163.604" y2="274.592" gradientUnits="userSpaceOnUse">
<stop stop-color="#FAB882"/>
<stop offset="1" stop-color="#FF7300"/>
</linearGradient>
<linearGradient id="paint5_linear_15227_31435" x1="91.307" y1="275.191" x2="119.924" y2="275.191" gradientUnits="userSpaceOnUse">
<stop stop-color="#FAB882"/>
<stop offset="1" stop-color="#FF7300"/>
</linearGradient>
<linearGradient id="paint6_linear_15227_31435" x1="73.2964" y1="276.735" x2="130.234" y2="276.735" gradientUnits="userSpaceOnUse">
<stop stop-color="#FAB882"/>
<stop offset="1" stop-color="#FF7300"/>
</linearGradient>
<linearGradient id="paint7_linear_15227_31435" x1="70.3289" y1="282.361" x2="122.425" y2="282.361" gradientUnits="userSpaceOnUse">
<stop stop-color="#FAB882"/>
<stop offset="1" stop-color="#FF7300"/>
</linearGradient>
<clipPath id="clip0_15227_31435">
<rect width="11.3867" height="11.3867" fill="white" transform="translate(528.586 282.439)"/>
</clipPath>
<clipPath id="clip1_15227_31435">
<rect width="11.3867" height="11.3867" fill="white" transform="translate(452.945 298.707)"/>
</clipPath>
<clipPath id="clip2_15227_31435">
<rect width="9.86339" height="9.86339" fill="white" transform="translate(54.4883 52.0195)"/>
</clipPath>
<clipPath id="clip3_15227_31435">
<rect width="9.86339" height="9.86339" fill="white" transform="translate(54.4316 83.6875)"/>
</clipPath>
</defs>
</svg>
