<svg width="538" height="402" viewBox="0 0 538 402" fill="none" xmlns="http://www.w3.org/2000/svg">
<g clip-path="url(#clip0_15211_29407)">
<g opacity="0.5">
<path d="M442.944 168.79L437.697 167.648C437.594 167.625 437.537 167.527 437.574 167.437L441.57 157.792C441.601 157.719 441.685 157.677 441.77 157.693L447.403 158.743C447.51 158.763 447.571 158.866 447.529 158.958L443.147 168.696C443.114 168.768 443.028 168.808 442.944 168.79Z" fill="url(#paint0_linear_15211_29407)"/>
<path d="M169.262 40.1881C169.172 40.0919 169.206 39.9281 169.325 39.8835C171.445 39.0942 173.354 38.4896 175.606 39.1419C177.707 39.7505 179.897 46.6425 180.291 47.9349C180.324 48.0425 180.259 48.1563 180.156 48.1729C178.099 48.5035 175.547 49.5304 173.751 48.1856C171.343 46.3819 171.378 42.4543 169.262 40.1881Z" fill="url(#paint1_linear_15211_29407)"/>
<path d="M136.389 134.308C136.271 134.426 136.03 134.364 136.024 134.214C135.959 132.774 136.447 129.597 134.472 127.428C132.414 125.167 132.623 123.218 132.623 122.316C132.623 122.188 132.803 122.111 132.939 122.181L135.378 123.428C139.595 125.584 140.549 130.145 137.435 133.261L136.389 134.308Z" fill="url(#paint2_linear_15211_29407)"/>
<path d="M322.102 208.644L316.837 207.666C316.734 207.647 316.635 207.708 316.626 207.797L315.587 217.405C315.579 217.478 315.634 217.545 315.718 217.563L321.285 218.762C321.391 218.785 321.496 218.721 321.503 218.628L322.239 208.799C322.244 208.725 322.186 208.66 322.102 208.644Z" fill="url(#paint3_linear_15211_29407)"/>
<path d="M79.6997 86.3908L82.9481 82.3342C83.0115 82.255 82.9887 82.1401 82.8995 82.0892L73.2701 76.5896C73.1972 76.5479 73.1035 76.5637 73.0494 76.6268L69.4419 80.8378C69.3731 80.918 69.3968 81.0388 69.4912 81.0894L79.4797 86.4346C79.5542 86.4745 79.6477 86.4558 79.6997 86.3908Z" fill="url(#paint4_linear_15211_29407)"/>
<path d="M232.508 79.7053L238.44 76.6461C238.516 76.6067 238.615 76.6187 238.675 76.6746L243.458 81.1052C243.537 81.1786 243.518 81.2949 243.419 81.3477L237.751 84.3722C237.676 84.412 237.579 84.4021 237.517 84.3486L232.471 79.9527C232.387 79.8794 232.405 79.7586 232.508 79.7053Z" fill="url(#paint5_linear_15211_29407)"/>
<path d="M461.478 64.3607L465.237 60.9421C465.31 60.8754 465.302 60.7654 465.221 60.7073L456.394 54.4453C456.327 54.3977 456.232 54.4017 456.17 54.4545L452.035 57.9759C451.956 58.043 451.964 58.1587 452.051 58.2169L461.254 64.3762C461.323 64.4219 461.418 64.4154 461.478 64.3607Z" fill="url(#paint6_linear_15211_29407)"/>
<path d="M87.1527 17.9374C87.1435 17.7886 87.3422 17.7097 87.4549 17.8177C88.5314 18.8492 90.5038 21.4528 93.3323 22.0331C96.28 22.6379 97.5485 24.1888 98.197 24.8563C98.2893 24.9513 98.229 25.1012 98.0915 25.1204L95.6286 25.4635C91.3697 26.0568 87.4761 23.177 87.2338 19.2549L87.1527 17.9374Z" fill="url(#paint7_linear_15211_29407)"/>
<path d="M375.169 99.8629L372.159 94.4787C372.12 94.4094 372.133 94.3208 372.189 94.2669L376.656 89.9946C376.73 89.924 376.846 89.9417 376.898 90.0317L379.875 95.1779C379.915 95.2457 379.904 95.3333 379.85 95.3884L375.416 99.8987C375.342 99.9739 375.222 99.9565 375.169 99.8629Z" fill="url(#paint8_linear_15211_29407)"/>
<path d="M282.366 116.666C282.285 116.581 282.316 116.435 282.423 116.395C284.331 115.694 286.049 115.156 288.076 115.736C289.967 116.277 291.938 122.403 292.293 123.552C292.322 123.648 292.264 123.749 292.17 123.764C290.32 124.058 288.022 124.97 286.407 123.775C284.239 122.172 284.271 118.681 282.366 116.666Z" fill="url(#paint9_linear_15211_29407)"/>
<path d="M337.87 63.238L341.053 59.5937C341.115 59.5226 341.092 59.4194 341.005 59.3736L331.571 54.433C331.499 54.3955 331.407 54.4096 331.354 54.4664L327.82 58.2494C327.753 58.3215 327.776 58.43 327.868 58.4754L337.655 63.2775C337.727 63.3131 337.819 63.2964 337.87 63.238Z" fill="url(#paint10_linear_15211_29407)"/>
<path d="M482.325 260.938L477.568 257.918C477.475 257.859 477.456 257.734 477.528 257.653L485.289 248.815C485.348 248.748 485.448 248.732 485.526 248.778L490.703 251.834C490.801 251.892 490.821 252.023 490.744 252.106L482.564 260.908C482.502 260.974 482.401 260.987 482.325 260.938Z" fill="url(#paint11_linear_15211_29407)"/>
<path d="M93.7666 179.842C93.8458 179.743 93.8065 179.583 93.6925 179.547C91.6724 178.896 89.8585 178.415 87.785 179.191C85.8505 179.915 84.1389 186.824 83.8336 188.119C83.8082 188.227 83.8741 188.335 83.972 188.345C85.9105 188.548 88.3466 189.406 89.9593 187.976C92.1226 186.059 91.8986 182.198 93.7666 179.842Z" fill="url(#paint12_linear_15211_29407)"/>
</g>
<path opacity="0.08" d="M498.521 271.532C498.61 270.587 498.689 269.65 498.827 268.712C500.305 258.65 507.183 183.003 400.29 87.8696C285.356 -14.3832 159.77 100.463 138.082 130.484C116.394 160.505 110.068 206.622 93.3269 176.268C82.9805 157.509 109.96 134.031 71.7374 143.865C47.2214 150.162 1.67756 205.851 39.0133 301.501C76.349 397.15 181.202 470.223 281.976 464.863C411.572 458.024 487.919 374.495 481.819 368.286C475.72 362.076 427.496 380.599 438.098 367.699C448.533 354.992 495.477 307.035 498.521 271.532Z" fill="url(#paint13_linear_15211_29407)"/>
<path opacity="0.5" fill-rule="evenodd" clip-rule="evenodd" d="M355.661 336.885C356.615 349.993 358.545 351.801 371.025 352.809C358.545 353.82 356.615 355.625 355.661 368.733C354.707 355.625 352.776 353.82 340.296 352.809C352.777 351.801 354.707 349.993 355.661 336.885ZM304.926 371.453C305.436 378.447 306.466 379.415 313.129 379.954C306.466 380.491 305.436 381.456 304.926 388.455C304.417 381.456 303.387 380.491 296.723 379.954C303.387 379.415 304.417 378.447 304.926 371.453ZM327.145 317.602C327.66 324.688 328.705 325.665 335.453 326.211C328.705 326.758 327.66 327.735 327.145 334.821C326.63 327.735 325.585 326.758 318.835 326.211C325.585 325.665 326.629 324.688 327.145 317.602Z" fill="#FF7300"/>
<path d="M427.747 224.207C428.364 228.873 428.982 233.54 429.599 238.206C421.579 238.047 413.925 238.654 405.906 238.881C408.545 237.331 414.146 234.24 416.134 230.238" fill="#FFC6B0"/>
<path d="M429.412 244.376H424.837C424.823 243.969 424.918 242.815 424.801 242.458C423.938 242.458 422.096 242.574 421.853 242.661C421.652 242.731 421.312 243.135 421 243.534C420.582 244.07 419.911 244.378 419.203 244.378H401.016C398.771 244.378 398.417 242.017 400.814 240.886C402.986 239.86 407.715 237.643 407.921 237.603C415.155 238.217 426.985 237.051 429.3 234.883C431.057 236.529 429.44 244.33 429.412 244.376Z" fill="#0B0B3A"/>
<path d="M423.365 149.734C426.596 190.005 428.77 231.979 428.77 231.979L416.127 230.241C416.127 230.241 402.711 176.21 399.266 149.734" fill="#FFC6B0"/>
<path d="M391.318 224.207C391.934 228.873 392.553 233.54 393.169 238.206C385.149 238.047 377.495 238.654 369.477 238.881C372.115 237.331 377.717 234.24 379.704 230.238" fill="#FFC6B0"/>
<path d="M392.983 244.376H388.408C388.393 243.969 388.488 242.815 388.371 242.458C387.508 242.458 385.665 242.574 385.423 242.661C385.222 242.731 384.882 243.135 384.57 243.534C384.152 244.07 383.481 244.378 382.773 244.378H364.587C362.341 244.378 361.987 242.017 364.384 240.886C366.556 239.86 371.286 237.643 371.491 237.603C378.726 238.217 390.557 237.051 392.87 234.883C394.627 236.529 393.012 244.33 392.983 244.376Z" fill="#0B0B3A"/>
<path d="M398.281 149.734C395.69 189.987 392.343 231.979 392.343 231.979L379.699 230.241C379.699 230.241 374.18 178.429 374.18 149.734" fill="#FFC6B0"/>
<path d="M415.009 107.133C426.566 133.844 427.869 163.38 427.869 163.38C427.869 163.38 411.418 167.707 397.986 167.707C384.554 167.707 370.551 165.572 370.551 165.572C370.551 165.572 374.133 119.408 379.67 105.271" fill="#182270"/>
<path d="M411.656 116.408C419.525 132.656 423.445 164.43 423.445 164.43" stroke="#2944B7" stroke-width="0.789267" stroke-miterlimit="10" stroke-linejoin="round"/>
<path d="M369.02 55.1509L369.807 60.5746C369.807 60.5746 373.745 63.1171 377.054 61.7765C380.54 60.3629 380.353 58.4571 380.353 58.4571L376.172 48.5137" fill="#FFCBBD"/>
<path d="M363.29 46.1177C362.612 49.2472 364.682 58.0881 369.286 57.7333C374.14 57.3579 377.745 53.3625 376.006 47.911C374.179 42.1806 365.073 37.8916 363.29 46.1177Z" fill="#FFCBBD"/>
<path d="M369.449 58.131C371.814 57.7425 374.683 56.4896 375.936 53.2637" stroke="#E88872" stroke-width="0.789267" stroke-miterlimit="10" stroke-linejoin="round"/>
<path d="M375.194 47.6151C375.192 47.6355 375.191 47.6574 375.188 47.6779C375.182 47.748 375.291 47.748 375.297 47.6779C375.299 47.6574 375.3 47.6355 375.303 47.6151C375.309 47.545 375.199 47.545 375.194 47.6151Z" fill="#FF855A"/>
<path d="M375.394 48.9823C373.87 48.772 373.039 47.7746 372.461 46.4369C371.465 47.2416 369.759 47.1321 368.771 46.6896C367.782 46.2471 367.151 45.5053 366.641 44.5925C365.89 46.142 364.761 47.1102 363.012 47.4928C362.507 44.9255 364.006 42.1961 366.336 40.692C368.666 39.1878 371.947 38.8359 374.372 40.0523C376.797 41.2688 378.475 43.9953 378.781 46.5961C378.978 48.2697 378.513 51.627 377.098 51.4269C376.426 51.3349 375.394 48.9823 375.394 48.9823Z" fill="#292466"/>
<path d="M374.36 48.7895C374.316 48.6055 374.433 48.0184 374.985 47.684C375.958 47.097 376.882 48.2521 376.981 49.305C377.043 49.9665 376.924 50.52 376.586 51.1158C376.14 51.9015 375.402 52.214 374.808 51.4926" fill="#FFCBBD"/>
<path d="M368.157 39.8949C367.321 39.7956 366.817 38.8917 366.962 38.1016C367.11 37.3116 367.742 36.6617 368.447 36.2003C368.789 35.9754 369.16 35.7826 369.558 35.6687C370.154 35.4978 370.788 35.5124 371.395 35.6044C372.124 35.7169 372.867 35.9651 373.316 36.5099C373.888 37.2021 373.829 38.255 373.315 39.0158C372.8 39.7766 371.906 40.2644 370.982 40.4732" fill="#292466"/>
<path d="M370.307 85.5406C362.02 106.943 339.755 130.033 339.755 130.033L332.5 124.527C332.5 124.527 348.017 102.723 354.98 80.5098" fill="#F9BDA4"/>
<path d="M334.351 122.082C332.471 124.833 325.632 131.966 325.973 132.554C326.314 133.141 328.756 130.662 328.94 131.193C329.124 131.725 325.645 135.777 326.153 136.278C326.842 136.957 330.169 132.627 330.169 132.627C330.169 132.627 326.778 137.54 327.557 137.968C328.109 138.27 330.882 134.632 332.127 133.366C330.964 134.898 329.392 137.592 329.972 137.895C330.548 138.195 332.492 135.757 334.088 133.962C333.203 135.168 331.722 137.446 332.244 137.75C332.764 138.052 337.934 132.43 342.578 126.958" fill="#FFCBBD"/>
<path d="M329.969 130.855C329.969 130.855 333.143 130.112 334.297 129.107" stroke="#E8927E" stroke-width="0.789267" stroke-miterlimit="10"/>
<path d="M368.253 61.5879C358.75 64.5217 354.207 81.2002 354.207 81.2002L364.739 85.7039L369.406 64.142" fill="url(#paint14_linear_15211_29407)"/>
<path d="M368.255 61.5911C370.983 62.092 371.642 62.1095 373.574 61.4961C377.051 60.3936 379.7 58.6207 379.7 58.6207C379.7 58.6207 389.659 58.1388 399.361 68.3992C404.327 73.6491 412.618 88.5986 417.546 108.57C399.048 114.562 372.098 118.292 372.098 118.292C372.098 118.292 362.299 80.5127 362.658 69.3031C362.778 65.5398 368.255 61.5911 368.255 61.5911Z" fill="url(#paint15_linear_15211_29407)"/>
<path d="M379.44 56.2793L373.129 61.6344L377.164 66.8989L381.349 58.6158L379.44 56.2793Z" fill="white"/>
<path d="M373.133 61.6364L369.559 58.8281L368.262 61.5911L370.183 67.4047L373.133 61.6364Z" fill="white"/>
<g filter="url(#filter0_d_15211_29407)">
<path d="M439.502 350.817H121.308C115.912 350.817 111.539 346.437 111.539 341.032V111.952C111.539 106.546 115.914 102.166 121.308 102.166H439.5C444.896 102.166 449.269 106.548 449.269 111.952V341.032C449.271 346.437 444.896 350.817 439.502 350.817Z" fill="white"/>
</g>
<path d="M440.502 102.428H121.267C116.161 102.428 112.02 106.576 112.02 111.691V127.005H449.75V111.691C449.752 106.576 445.611 102.428 440.502 102.428Z" fill="#EAF4FE"/>
<g opacity="0.75">
<path d="M379.073 219.932C377.274 217.22 374.197 215.434 370.703 215.434V225.493L379.073 219.932Z" fill="#B6C2FF"/>
</g>
<path d="M378.343 221.419L369.976 226.979V216.92C364.429 216.92 359.934 221.424 359.934 226.979C359.934 232.534 364.43 237.038 369.976 237.038C375.522 237.038 380.019 232.534 380.019 226.979C380.019 224.922 379.401 223.013 378.343 221.419Z" fill="#E6E8FC"/>
<path d="M391.293 218.766H411.975" stroke="#EBEFF2" stroke-width="2.10471" stroke-miterlimit="10" stroke-linecap="round"/>
<path d="M391.293 234.707H433.117" stroke="#EBEFF2" stroke-width="2.10471" stroke-miterlimit="10" stroke-linecap="round"/>
<path d="M391.293 229.576H433.117" stroke="#EBEFF2" stroke-width="2.10471" stroke-miterlimit="10" stroke-linecap="round"/>
<path d="M391.293 224.584H433.117" stroke="#EBEFF2" stroke-width="2.10471" stroke-miterlimit="10" stroke-linecap="round"/>
<path d="M381.111 249.859H359.816C358.653 249.859 357.711 250.802 357.711 251.964V268.854C357.711 270.017 358.653 270.959 359.816 270.959H381.111C382.273 270.959 383.215 270.017 383.215 268.854V251.964C383.215 250.802 382.273 249.859 381.111 249.859Z" fill="#EBEFF2"/>
<path d="M390.98 249.859H412.049" stroke="#EBEFF2" stroke-width="2.10471" stroke-miterlimit="10" stroke-linecap="round"/>
<path d="M390.98 266.516H433.118" stroke="#EBEFF2" stroke-width="2.10471" stroke-miterlimit="10" stroke-linecap="round"/>
<path d="M390.98 260.965H433.118" stroke="#EBEFF2" stroke-width="2.10471" stroke-miterlimit="10" stroke-linecap="round"/>
<path d="M390.98 256.523H433.118" stroke="#EBEFF2" stroke-width="2.10471" stroke-miterlimit="10" stroke-linecap="round"/>
<path d="M381.111 283.178H359.816C358.653 283.178 357.711 284.12 357.711 285.282V302.172C357.711 303.335 358.653 304.277 359.816 304.277H381.111C382.273 304.277 383.215 303.335 383.215 302.172V285.282C383.215 284.12 382.273 283.178 381.111 283.178Z" fill="#EBEFF2"/>
<path d="M390.98 283.178H412.049" stroke="#EBEFF2" stroke-width="2.10471" stroke-miterlimit="10" stroke-linecap="round"/>
<path d="M390.98 299.834H433.118" stroke="#EBEFF2" stroke-width="2.10471" stroke-miterlimit="10" stroke-linecap="round"/>
<path d="M390.98 294.283H433.118" stroke="#EBEFF2" stroke-width="2.10471" stroke-miterlimit="10" stroke-linecap="round"/>
<path d="M390.98 289.842H433.118" stroke="#EBEFF2" stroke-width="2.10471" stroke-miterlimit="10" stroke-linecap="round"/>
<path d="M381.111 317.6H359.816C358.653 317.6 357.711 318.542 357.711 319.704V335.484C357.711 336.646 358.653 337.589 359.816 337.589H381.111C382.273 337.589 383.215 336.646 383.215 335.484V319.704C383.215 318.542 382.273 317.6 381.111 317.6Z" fill="#EBEFF2"/>
<path d="M390.98 317.6H412.049" stroke="#EBEFF2" stroke-width="2.10471" stroke-miterlimit="10" stroke-linecap="round"/>
<path d="M390.98 333.146H433.118" stroke="#EBEFF2" stroke-width="2.10471" stroke-miterlimit="10" stroke-linecap="round"/>
<path d="M390.98 327.596H433.118" stroke="#EBEFF2" stroke-width="2.10471" stroke-miterlimit="10" stroke-linecap="round"/>
<path d="M390.98 323.15H433.118" stroke="#EBEFF2" stroke-width="2.10471" stroke-miterlimit="10" stroke-linecap="round"/>
<path d="M378.66 149.438L183.11 149.437" stroke="#EBEFF2" stroke-width="2.10471" stroke-miterlimit="10"/>
<path d="M351.902 139.494L209.869 139.494" stroke="#EBEFF2" stroke-width="2.10471" stroke-miterlimit="10"/>
<path d="M211.574 253.185V328.317H227.952V242.221L211.574 253.185Z" fill="#EBEFF2"/>
<path d="M189.665 267.848L181.477 263.023V328.314H197.852V262.363L189.665 267.848Z" fill="#EBEFF2"/>
<path d="M159.579 250.121L151.391 254.929V328.315H167.767V254.944L159.579 250.121Z" fill="#EBEFF2"/>
<path d="M301.84 235.658V328.317H318.216V226.668L301.84 235.658Z" fill="#EBEFF2"/>
<path d="M249.848 227.555L241.66 233.037V328.315H258.036V233.03L249.848 227.555Z" fill="#EBEFF2"/>
<path d="M279.94 247.675L271.75 242.199V328.315H288.128V243.18L279.94 247.675Z" fill="#EBEFF2"/>
<path d="M132.605 239.869V328.709H351.056" stroke="#D8DEE6" stroke-width="1.05236" stroke-miterlimit="10"/>
<path d="M129.281 242.038L132.905 239.559L136.528 242.038" stroke="#EBEFF2" stroke-width="1.05236" stroke-miterlimit="10"/>
<path d="M348.543 325.838L352.166 328.315L348.543 330.794" stroke="#EBEFF2" stroke-width="1.05236" stroke-miterlimit="10"/>
<path d="M137.066 257.74L159.584 244.514L189.675 262.241L249.853 221.947L279.944 242.067L338.435 209.965" stroke="#D8DEE6" stroke-width="1.05236" stroke-miterlimit="10"/>
<path d="M331.129 208.775L338.079 209.855L336.241 216.31" stroke="#D8DEE6" stroke-width="1.05236" stroke-miterlimit="10"/>
<path d="M151.391 339.215H167.28" stroke="#EBEFF2" stroke-width="3.15707" stroke-miterlimit="10" stroke-linecap="round"/>
<path d="M181.727 339.215H197.616" stroke="#EBEFF2" stroke-width="3.15707" stroke-miterlimit="10" stroke-linecap="round"/>
<path d="M212.059 339.215H227.948" stroke="#EBEFF2" stroke-width="3.15707" stroke-miterlimit="10" stroke-linecap="round"/>
<path d="M242.398 339.215H258.287" stroke="#EBEFF2" stroke-width="3.15707" stroke-miterlimit="10" stroke-linecap="round"/>
<path d="M272.727 339.215H288.616" stroke="#EBEFF2" stroke-width="3.15707" stroke-miterlimit="10" stroke-linecap="round"/>
<path d="M303.066 339.215H318.953" stroke="#EBEFF2" stroke-width="3.15707" stroke-miterlimit="10" stroke-linecap="round"/>
<ellipse cx="130.948" cy="113.828" rx="3.88111" ry="3.88674" fill="#FF6259"/>
<ellipse cx="144.252" cy="113.828" rx="3.88111" ry="3.88674" fill="#FFBE2F"/>
<ellipse cx="157.561" cy="113.828" rx="3.88111" ry="3.88674" fill="#29CD41"/>
<path d="M138.512 194.686H169.03" stroke="#EBEFF2" stroke-width="2.10471" stroke-miterlimit="10" stroke-linecap="round"/>
<path d="M174.291 164.168H133.249C132.087 164.168 131.145 165.11 131.145 166.273V186.267C131.145 187.43 132.087 188.372 133.249 188.372H174.291C175.454 188.372 176.396 187.43 176.396 186.267V166.273C176.396 165.11 175.454 164.168 174.291 164.168Z" fill="#EBEFF2"/>
<path d="M154.295 181.006C157.189 181.006 159.557 178.638 159.557 175.744C159.557 172.85 157.189 170.482 154.295 170.482C151.401 170.482 149.033 172.85 149.033 175.744C149.033 178.638 151.401 181.006 154.295 181.006Z" stroke="#0061BF" stroke-width="0.631414" stroke-linecap="round" stroke-linejoin="round"/>
<path d="M152.059 175.745L153.548 177.234L156.531 174.256" stroke="#0061BF" stroke-width="0.631414" stroke-linecap="round" stroke-linejoin="round"/>
<path d="M200.25 194.336H237.952" stroke="#EBEFF2" stroke-width="2.10471" stroke-miterlimit="10" stroke-linecap="round"/>
<path d="M239.537 164.168H198.495C197.333 164.168 196.391 165.11 196.391 166.273V186.267C196.391 187.43 197.333 188.372 198.495 188.372H239.537C240.7 188.372 241.642 187.43 241.642 186.267V166.273C241.642 165.11 240.7 164.168 239.537 164.168Z" fill="#EBEFF2"/>
<path d="M219.541 181.006C222.435 181.006 224.803 178.638 224.803 175.744C224.803 172.85 222.435 170.482 219.541 170.482C216.647 170.482 214.279 172.85 214.279 175.744C214.279 178.638 216.647 181.006 219.541 181.006Z" stroke="#FF7300" stroke-width="0.631414" stroke-linecap="round" stroke-linejoin="round"/>
<path d="M217.305 175.745L218.794 177.234L221.777 174.256" stroke="#FF7300" stroke-width="0.631414" stroke-linecap="round" stroke-linejoin="round"/>
<path d="M265.844 194.686H296.362" stroke="#EBEFF2" stroke-width="2.10471" stroke-miterlimit="10" stroke-linecap="round"/>
<path d="M301.623 164.168H260.581C259.419 164.168 258.477 165.11 258.477 166.273V186.267C258.477 187.43 259.419 188.372 260.581 188.372H301.623C302.786 188.372 303.728 187.43 303.728 186.267V166.273C303.728 165.11 302.786 164.168 301.623 164.168Z" fill="#EBEFF2"/>
<path d="M281.627 181.006C284.521 181.006 286.889 178.638 286.889 175.744C286.889 172.85 284.521 170.482 281.627 170.482C278.733 170.482 276.365 172.85 276.365 175.744C276.365 178.638 278.733 181.006 281.627 181.006Z" stroke="#0061BF" stroke-width="0.631414" stroke-linecap="round" stroke-linejoin="round"/>
<path d="M279.391 175.745L280.88 177.234L283.863 174.256" stroke="#0061BF" stroke-width="0.631414" stroke-linecap="round" stroke-linejoin="round"/>
<path d="M324.426 194.336H362.128" stroke="#EBEFF2" stroke-width="2.10471" stroke-miterlimit="10" stroke-linecap="round"/>
<path d="M363.713 164.168H322.671C321.509 164.168 320.566 165.11 320.566 166.273V186.267C320.566 187.43 321.509 188.372 322.671 188.372H363.713C364.875 188.372 365.818 187.43 365.818 186.267V166.273C365.818 165.11 364.875 164.168 363.713 164.168Z" fill="#EBEFF2"/>
<path d="M343.717 181.006C346.611 181.006 348.979 178.638 348.979 175.744C348.979 172.85 346.611 170.482 343.717 170.482C340.823 170.482 338.455 172.85 338.455 175.744C338.455 178.638 340.823 181.006 343.717 181.006Z" stroke="#FF7300" stroke-width="0.631414" stroke-linecap="round" stroke-linejoin="round"/>
<path d="M341.48 175.745L342.97 177.234L345.953 174.256" stroke="#FF7300" stroke-width="0.631414" stroke-linecap="round" stroke-linejoin="round"/>
<path d="M390.023 194.686H420.542" stroke="#EBEFF2" stroke-width="2.10471" stroke-miterlimit="10" stroke-linecap="round"/>
<path d="M425.803 164.168H384.761C383.599 164.168 382.656 165.11 382.656 166.273V186.267C382.656 187.43 383.599 188.372 384.761 188.372H425.803C426.965 188.372 427.908 187.43 427.908 186.267V166.273C427.908 165.11 426.965 164.168 425.803 164.168Z" fill="#EBEFF2"/>
<path d="M405.807 181.006C408.701 181.006 411.068 178.638 411.068 175.744C411.068 172.85 408.701 170.482 405.807 170.482C402.913 170.482 400.545 172.85 400.545 175.744C400.545 178.638 402.913 181.006 405.807 181.006Z" stroke="#0061BF" stroke-width="0.631414" stroke-linecap="round" stroke-linejoin="round"/>
<path d="M403.57 175.745L405.059 177.234L408.043 174.256" stroke="#0061BF" stroke-width="0.631414" stroke-linecap="round" stroke-linejoin="round"/>
<path opacity="0.1" d="M48.332 388.674H511.847" stroke="#FF7300" stroke-width="4.20942" stroke-miterlimit="10"/>
<path d="M97.7234 226.505C97.7234 226.505 100.653 233.24 98.2461 235.493C96.9954 236.664 93.2246 236.937 91.5905 235.831C90.3776 235.01 88.4851 229.825 89.1387 228.898C91.6365 225.354 97.7234 226.505 97.7234 226.505Z" fill="#FFC6AD"/>
<path d="M90.865 233.613L90.0846 242.47C90.0846 242.47 94.6507 245.933 97.9297 241.16L97.0458 236.044L90.865 233.613Z" fill="#FFC6AD"/>
<path d="M87.9241 231.996C87.5988 230.527 87.0354 227.498 87.9241 226.569C88.2593 226.218 88.7066 225.989 89.0358 225.633C89.3621 225.281 89.5512 224.825 89.7684 224.396C90.1436 223.653 90.634 222.945 91.3195 222.473C92.005 222.001 92.9096 221.795 93.6882 222.09C93.9754 222.199 94.2416 222.372 94.5438 222.427C94.899 222.492 95.2593 222.387 95.6135 222.316C96.5562 222.125 97.5449 222.171 98.4666 222.448C99.5673 222.78 100.63 223.528 100.951 224.634C101.274 225.74 100.537 227.142 99.3882 227.195C98.8438 227.22 98.2374 226.973 97.7861 227.278C97.636 227.381 97.5269 227.531 97.4028 227.664C96.8474 228.258 95.9198 228.465 95.1652 228.165C94.1925 227.779 93.7092 227.602 93.5411 228.786C93.419 229.644 92.7935 230.41 91.9779 230.699C91.4936 230.872 90.9392 230.895 90.5369 231.215C90.1216 231.545 89.9785 232.177 90.2117 232.655C90.2987 232.833 90.4308 232.991 90.4889 233.18C90.651 233.706 91.3895 235.925 89.7994 234.58C88.7391 233.683 88.1322 232.938 87.9241 231.996Z" fill="#292466"/>
<path d="M90.7904 231.471C90.1479 230.477 89.5435 230.568 89.1732 231.046C88.6799 231.684 89.4094 233.174 89.7876 233.453C90.5552 234.017 91.2187 234.028 91.3438 233.372" fill="#FFCBBD"/>
<path d="M98.1689 371.916C98.1689 371.916 96.657 374.39 96.7933 375.123C96.9301 375.855 98.7479 383.612 99.7498 384.124C100.751 384.637 103.288 384.537 102.719 385.544C102.289 386.306 97.7547 387.317 94.73 387.91C93.847 388.083 90.9959 381.394 90.3923 380.458C89.5159 379.098 87.4518 376.058 87.6456 374.907C87.7399 374.345 88.5394 373.038 89.7905 371.69C91.1066 370.272 92.039 367.621 92.039 367.621L98.1689 371.916Z" fill="#FFC6AD"/>
<path d="M120.132 371.209C120.132 371.209 119.62 376.755 119.621 376.768C119.691 377.609 119.668 379.734 119.853 380.467C120.549 383.221 131.65 374.985 128.565 374.47C128.286 374.423 127.275 373.741 126.956 372.825C126.464 371.413 127.177 369.305 127.177 369.305L120.132 371.209Z" fill="#FFC6AD"/>
<path d="M115.625 271.51C115.625 271.51 118.833 280.404 118.867 280.54C122.594 295.298 132.793 323.386 132.939 326.302C133.294 333.413 127.442 371.636 127.442 371.636L119.328 372.691L119.151 328.751L111.173 313.072L97.5234 281.541L115.625 271.51Z" fill="#264B89"/>
<path d="M91.2288 286.289L91.9183 295.315L96.8632 331.93L90.25 370.62C90.25 370.62 93.6939 375.131 97.0687 375.031L112.556 333.1L116.238 283.542L113.14 273.525L91.2288 286.289Z" fill="#3A67B3"/>
<path d="M89.8694 371.617C89.8694 371.617 97.7965 383.506 99.7673 383.677C100.291 383.722 102.706 383.561 103.4 384.474C103.609 384.749 104.051 386.125 104.051 386.125C104.051 386.125 97.6933 390.86 94.1059 388.995C90.8537 387.304 89.9003 383.676 88.7791 381.269C87.6579 378.862 85.1854 376.871 86.3246 374.243C87.0103 372.661 89.8694 371.617 89.8694 371.617Z" fill="#292466"/>
<path d="M119.354 381.877C118.972 379.889 119.657 376.702 119.657 376.702C119.657 376.702 122.955 377.209 124.392 376.62C125.828 376.032 128.523 374.451 128.523 374.451C134.964 374.904 140.075 374.62 139.588 376.423C139.1 378.226 120.903 389.924 119.354 381.877Z" fill="#292466"/>
<path d="M134.742 241.498L139.031 244.797C139.858 244.158 141.665 241.469 142.835 240.631L138.917 236.346C138.594 236.109 138.421 235.719 138.459 235.319C138.486 235.037 138.526 234.771 138.567 234.659C138.689 234.32 138.798 233.916 138.92 233.577C139.043 233.238 138.234 232.557 137.809 232.436C137.384 232.315 137.243 233.949 137.058 234.434C136.502 235.899 135.833 239.908 135.705 240.572L134.742 241.498Z" fill="#FFC6AD"/>
<path d="M139.5 244.375C138.296 243.087 136.596 242.364 135.335 241.025L116.302 254.165C116.302 254.165 106.09 240.591 97.9378 241.163C97.9378 243.128 97.0312 242.966 95.9766 243.782C99.4735 249.687 101.309 254.462 103.479 257.156C108.366 263.223 115.827 266.117 117.284 265.447C118.926 264.692 139.073 244.895 139.5 244.375Z" fill="#5BA7F4"/>
<path d="M56.7594 200.325C57.3399 201.994 58.3443 204.621 58.3443 204.621C58.3726 205.375 58.5168 208.512 58.7007 212.355L63.64 209.435C63.64 209.435 62.8814 203.233 63.0705 202.823C63.2304 202.475 63.604 202.834 64.9198 200.169C65.2996 199.399 65.2435 198.121 65.2435 198.121C65.2435 198.121 65.1633 196.549 64.8224 196.446C64.4816 196.343 64.1356 196.625 64.0481 196.909C63.9607 197.194 64.0617 197.818 63.9743 198.103C63.8869 198.388 63.1726 198.811 62.8547 198.835C62.5367 198.86 62.3768 194.217 62.3768 194.217C62.3768 194.217 62.4071 192.89 62.4488 192.452C62.4844 192.078 62.6714 190.971 62.6714 190.971C62.6714 190.971 62.858 189.377 62.3997 189.317C62.1295 189.282 61.6018 190.626 61.2929 192.02C60.9605 193.521 60.8515 195.082 60.7079 195.08C60.3712 195.075 60.2641 192.531 60.2641 192.531C60.2641 192.531 60.4649 191.334 60.3956 190.79C60.6325 190.082 60.7007 188.816 60.14 188.785C60.0365 188.78 59.4893 190.447 59.4893 190.447C59.4893 190.447 59.329 191.592 59.2209 192.131C59.0309 193.083 59.1487 194.53 59.0672 195.186C58.9995 195.732 58.8604 195.529 58.8106 195.558C58.7719 195.58 58.761 194.842 58.7297 193.828C58.7139 193.318 58.5945 192.742 58.6609 192.15C58.7223 191.602 58.7064 190.83 58.6862 190.366C58.6289 189.05 57.8834 189.283 57.7541 190.509C57.705 190.976 57.6549 191.486 57.6064 192.002C57.4171 194.01 57.64 195.891 57.4463 195.932C57.1952 195.986 56.9778 192.536 56.9778 192.536C56.9778 192.536 56.376 190.689 56.1872 192.5C55.9679 194.602 56.2014 196.263 56.2159 196.335C56.3128 196.829 56.1785 198.656 56.7594 200.325Z" fill="#FFC6AD"/>
<path d="M102.956 244.319C102.956 244.319 100.174 241.742 97.9316 241.162C94.6628 245.09 90.7403 243.126 90.0865 242.472C89.3619 242.559 87.7315 269.233 87.6168 279.45C87.5022 289.666 88.7461 291.321 88.7461 291.321C88.7461 291.321 98.2612 292.286 105.04 290.846C112.09 289.348 119.642 284.518 119.642 284.518C119.642 284.518 111.218 265.935 109.283 260.048C107.347 254.162 102.956 244.319 102.956 244.319Z" fill="#ACD5FE"/>
<path d="M90.0889 242.471L67.7498 224.137C67.7498 224.137 64.8524 205.25 64.5923 204.565C64.3366 203.893 59.2471 204.519 57.4033 204.565C56.8117 204.58 58.7334 224.549 59.9852 227.803C61.4638 231.646 77.2727 247.983 77.2727 247.983C77.2727 247.983 80.8479 257.478 81.0668 264.754C81.4301 276.84 80.6278 293.634 81.1628 294.088C84.3471 295.701 95.7279 294.442 96.3069 293.109C102.697 278.381 90.0889 242.471 90.0889 242.471Z" fill="#5BA7F4"/>
<path d="M106.354 248.452C106.354 248.452 115.009 270.366 118.088 278.089C118.421 278.925 120.095 284.387 120.157 284.933C120.293 286.143 115.55 288.316 114.956 288.301C114.425 288.287 107.457 265.143 103.408 253.901C102.036 250.091 100.025 246.584 97.4727 243.552L97.9323 241.162C97.9323 241.162 104.105 242 106.354 248.452Z" fill="#5BA7F4"/>
<path d="M143.634 238.702C143.574 238.376 143.47 238.043 143.336 237.711C143.184 237.356 142.937 236.928 142.769 236.802C142.662 236.722 142.583 236.464 142.481 236.202C142.448 236.118 142.406 236.037 142.353 235.963C142.352 235.962 142.35 235.96 142.349 235.959C142.195 235.746 142.002 235.568 141.788 235.415C141.585 235.271 141.409 235.081 141.183 234.757C141.008 234.506 140.779 234.292 140.504 234.158C140.233 234.025 140.026 234.022 139.928 234.189C139.48 234.962 137.235 237.428 138.144 238.621C138.905 239.619 139.897 240.658 140.102 241.13C140.383 241.777 141.369 241.732 141.959 241.507C143.069 241.081 143.942 240.379 143.634 238.702Z" fill="#FFC6AD"/>
<path d="M384.024 127.008C383.664 130.256 380.97 139.505 381.556 139.887C382.142 140.268 383.136 137.026 383.555 137.423C383.974 137.82 382.807 142.905 383.501 143.139C384.442 143.456 385.34 138.188 385.34 138.188C385.34 138.188 384.664 144.005 385.565 144.059C386.204 144.097 386.938 139.681 387.446 138.026C387.14 139.885 387.026 142.952 387.689 142.978C388.348 143.004 388.915 140.008 389.482 137.734C389.271 139.184 389.036 141.843 389.649 141.895C390.258 141.946 392.184 134.749 393.712 127.906" fill="#F9BDA4"/>
<path d="M399.067 80.5098C401.668 103.145 392.504 133.053 392.504 133.053L383.404 131.094C383.404 131.094 387.109 105.119 382.938 82.3016" fill="#F9BDA4"/>
<path d="M390.022 62.1641C398.685 68.2508 399.374 81.1937 399.374 81.1937L382.844 84.313C382.844 84.313 382.023 74.2411 381.902 70.7917" fill="url(#paint16_linear_15211_29407)"/>
<path d="M109.277 144.319C119.684 144.319 128.12 135.869 128.12 125.445C128.12 115.021 119.684 106.57 109.277 106.57C98.87 106.57 90.4336 115.021 90.4336 125.445C90.4336 135.869 98.87 144.319 109.277 144.319Z" fill="#FF7300"/>
<path d="M109.273 139.099C116.802 139.099 122.905 132.985 122.905 125.444C122.905 117.903 116.802 111.789 109.273 111.789C101.744 111.789 95.6406 117.903 95.6406 125.444C95.6406 132.985 101.744 139.099 109.273 139.099Z" fill="white"/>
<path d="M109.274 134.824C114.445 134.824 118.637 130.625 118.637 125.445C118.637 120.265 114.445 116.066 109.274 116.066C104.102 116.066 99.9102 120.265 99.9102 125.445C99.9102 130.625 104.102 134.824 109.274 134.824Z" fill="#FF7300"/>
<path d="M109.276 130.36C111.986 130.36 114.182 128.16 114.182 125.447C114.182 122.733 111.986 120.533 109.276 120.533C106.567 120.533 104.371 122.733 104.371 125.447C104.371 128.16 106.567 130.36 109.276 130.36Z" fill="white"/>
<path d="M110.029 126.206H106.949L110.029 123.121V126.206Z" fill="#0029B7"/>
<path d="M90.0554 106.202H86.5312V105.312H89.1668V102.672H90.0554V106.202Z" fill="#0029B7"/>
<path d="M88.4421 104.587H84.918V103.697H87.5535V101.057H88.4421V104.587Z" fill="#0029B7"/>
<path d="M109.475 125.028L88.1641 103.682L87.5357 104.311L108.847 125.657L109.475 125.028Z" fill="#0029B7"/>
<path d="M425.586 208.253C426.057 210.171 426.906 213.201 426.906 213.201C426.839 214.034 426.59 217.501 426.295 221.751L432.597 219.251C432.597 219.251 432.522 212.327 432.803 211.903C433.041 211.545 433.44 211.992 435.372 209.252C435.93 208.462 436.034 207.049 436.034 207.049C436.034 207.049 436.149 205.31 435.755 205.148C435.361 204.986 434.909 205.245 434.766 205.546C434.623 205.846 434.66 206.547 434.518 206.847C434.375 207.147 433.463 207.509 433.079 207.491C432.695 207.472 433.127 202.346 433.127 202.346C433.127 202.346 433.341 200.893 433.45 200.417C433.543 200.011 433.915 198.823 433.915 198.823C433.915 198.823 434.353 197.097 433.812 196.966C433.493 196.888 432.682 198.29 432.125 199.777C431.526 201.379 431.186 203.078 431.015 203.055C430.612 203.001 430.825 200.191 430.825 200.191C430.825 200.191 431.226 198.904 431.216 198.296C431.595 197.552 431.846 196.171 431.179 196.057C431.057 196.036 430.178 197.79 430.178 197.79C430.178 197.79 429.832 199.025 429.631 199.602C429.276 200.62 429.222 202.228 429.037 202.937C428.883 203.526 428.743 203.284 428.68 203.308C428.631 203.327 428.717 202.514 428.815 201.396C428.865 200.833 428.799 200.184 428.958 199.542C429.105 198.948 429.19 198.098 429.228 197.585C429.336 196.131 428.412 196.28 428.093 197.609C427.972 198.116 427.844 198.668 427.717 199.228C427.221 201.407 427.234 203.506 426.997 203.524C426.69 203.547 426.892 199.724 426.892 199.724C426.892 199.724 426.42 197.609 425.951 199.572C425.406 201.851 425.463 203.708 425.471 203.79C425.521 204.347 425.115 206.336 425.586 208.253Z" fill="#FFC6AD"/>
<path d="M493.48 203.202C493.009 205.119 492.159 208.15 492.159 208.15C492.227 208.983 492.475 212.45 492.77 216.7L486.468 214.2C486.468 214.2 486.543 207.276 486.262 206.852C486.025 206.494 485.625 206.941 483.693 204.201C483.136 203.411 483.031 201.998 483.031 201.998C483.031 201.998 482.916 200.259 483.31 200.097C483.704 199.935 484.156 200.194 484.299 200.495C484.442 200.796 484.405 201.496 484.548 201.796C484.691 202.097 485.602 202.459 485.986 202.44C486.37 202.421 485.938 197.295 485.938 197.295C485.938 197.295 485.724 195.842 485.615 195.366C485.522 194.961 485.15 193.772 485.15 193.772C485.15 193.772 484.713 192.047 485.253 191.915C485.572 191.837 486.384 193.239 486.94 194.726C487.54 196.328 487.879 198.027 488.051 198.004C488.453 197.95 488.24 195.14 488.24 195.14C488.24 195.14 487.839 193.853 487.849 193.245C487.471 192.501 487.219 191.12 487.886 191.006C488.009 190.985 488.888 192.739 488.888 192.739C488.888 192.739 489.233 193.974 489.434 194.551C489.789 195.569 489.843 197.177 490.029 197.886C490.183 198.476 490.322 198.233 490.386 198.258C490.435 198.277 490.349 197.463 490.25 196.346C490.201 195.782 490.266 195.133 490.107 194.491C489.96 193.898 489.876 193.047 489.837 192.534C489.729 191.081 490.653 191.229 490.972 192.558C491.094 193.065 491.221 193.617 491.349 194.177C491.845 196.356 491.831 198.456 492.068 198.473C492.376 198.496 492.173 194.674 492.173 194.674C492.173 194.674 492.646 192.558 493.115 194.522C493.659 196.8 493.602 198.658 493.595 198.74C493.545 199.296 493.95 201.284 493.48 203.202Z" fill="#FFC6AD"/>
<path d="M475.243 366.121C475.243 366.121 478.737 370.415 479.608 370.943C480.479 371.471 479.22 377.71 476.848 378.119C475.512 378.35 474.769 376.892 474.769 376.892L475.153 375.095L470.16 369.997L475.243 366.121Z" fill="#F7A491"/>
<path d="M457.244 367.182C457.244 367.182 460.156 371.883 460.952 372.517C461.747 373.151 459.694 379.179 457.289 379.284C455.934 379.344 455.385 377.804 455.385 377.804L455.997 376.07L451.703 370.382L457.244 367.182Z" fill="#F7A491"/>
<path d="M460.767 372.332C460.767 372.332 459.094 374.446 458.181 375.288C457.003 376.374 455.494 377.436 455.494 377.436C455.494 377.436 453.785 380.51 453.318 381.582C452.278 383.971 451.11 386.632 451.278 387.968C451.332 388.398 452.305 388.852 453.116 388.605C456.491 387.577 465.122 379.752 466.212 377.652C467.469 375.229 460.767 372.332 460.767 372.332Z" fill="#292466"/>
<path d="M436.131 300.729C436.445 299.859 436.746 299.055 437.036 298.299C440.626 299.075 444.682 299.929 448.853 300.811L449.361 315.963C449.358 314.793 446.225 340.132 446.225 340.132C446.225 340.132 454.331 357.917 459.875 368.284C457.599 371.097 456.531 372.004 453.237 373.922C444.631 363.698 433.368 344.989 432.901 341.878C432.632 340.088 432.39 311.163 436.131 300.729Z" fill="#264B89"/>
<path d="M468.174 305.111C467.077 316.919 464.638 339.491 464.842 341.306C465.454 343.57 476.304 364.458 478.256 367.499C476.706 369.812 474.304 372.314 471.723 373.005C471.214 373.141 453.311 347.892 452.334 345.888C451.231 343.623 449.393 331.264 449.36 315.963L448.852 300.811C455.802 302.279 462.192 303.719 468.174 305.111Z" fill="#3A67B3"/>
<path d="M445.357 251.291L453.538 252.404C453.538 252.404 460.083 252.522 460.894 252.522C461.706 252.522 466.858 282.139 468.345 293.27C469.833 304.401 468.681 306.372 468.681 306.372C468.681 306.372 458.308 308.683 450.634 308.01C442.654 307.309 433.676 303.039 433.676 303.039C433.676 303.039 440.497 281.649 441.849 274.971C443.201 268.292 445.357 251.291 445.357 251.291Z" fill="#FAB882"/>
<path d="M425.518 215.459C425.518 215.459 424.992 237.511 425.832 239.198C427.052 241.651 440.789 259.05 440.789 259.05C440.789 259.05 434.227 286.266 431.468 295.665C431.19 296.611 429.96 302.725 429.96 303.321C429.96 304.643 435.766 306.321 436.455 306.221C437.072 306.132 442.137 280.243 445.371 267.574C446.466 263.281 448.346 259.225 450.918 255.604L453.166 252.437L435.908 235.293C435.908 235.293 433.781 216.211 433.781 214.63C433.781 214.216 426.355 213.905 425.518 215.459Z" fill="url(#paint17_linear_15211_29407)"/>
<path d="M460.61 252.52L482.132 230.788C482.132 230.788 485.13 210.238 485.343 209.464C485.553 208.703 490.897 208.292 493.051 208.084C493.742 208.018 492.689 229.973 491.659 233.653C490.442 238.001 474.175 257.809 474.175 257.809C474.175 257.809 471.259 268.538 471.961 276.408C473.128 289.48 476.272 307.46 475.708 308.025C472.211 310.208 458.787 310.442 457.938 309.085C448.555 294.111 460.61 252.52 460.61 252.52Z" fill="url(#paint18_linear_15211_29407)"/>
<path d="M479.41 370.779C479.41 370.779 478.023 373.088 477.226 374.038C476.198 375.265 474.838 376.509 474.838 376.509C474.838 376.509 473.539 379.774 473.214 380.897C472.49 383.397 471.673 386.415 472.013 387.72C472.122 388.138 473.051 388.938 473.818 388.443C476.778 386.534 484.686 377.587 485.496 375.366C486.43 372.804 479.41 370.779 479.41 370.779Z" fill="#292466"/>
<path d="M454.138 224.206C455.053 224.239 455.969 224.232 456.882 224.152C457.913 224.062 459.23 223.996 459.986 224.154C461.577 224.486 464.102 225.606 464.945 227.674C465.995 230.249 469.749 229.865 465.302 239.634C460.267 250.692 454.386 247.072 454.304 246.822C454.223 246.573 451.396 237.455 451.396 237.455C451.396 237.455 447.876 240.914 447.935 240.76C447.991 240.613 443.143 223.813 454.138 224.206Z" fill="#0E2E35"/>
<path d="M453.651 248.386L453.064 252.712C453.064 252.712 451.751 258.945 453.441 260.147C455.131 261.348 460.628 252.535 460.628 252.535L460.047 241.572L453.651 248.386Z" fill="#FFC6AD"/>
<path d="M460.233 245.125C458.837 248.864 455.512 251.162 453.152 252.054L453.649 248.386L460.046 241.572L460.233 245.125Z" fill="#EEB298"/>
<path d="M458.134 229.174C454.988 227.385 450.966 228.931 449.784 232.286C449.27 233.745 448.702 235.594 448.266 237.65C447.215 242.595 448.864 247.912 451.131 248.34C453.398 248.769 460.284 246.74 461.874 239.738C462.856 235.415 461.436 231.052 458.134 229.174Z" fill="#FFC6AD"/>
<path d="M462.107 238.307C462.107 238.307 459.294 237.978 458.964 235.982C458.634 233.986 456.568 229.172 451.672 229.016C446.776 228.86 456.847 226.878 457.194 227.008C457.541 227.138 461.716 228.666 461.716 228.666C461.716 228.666 463.93 232.484 463.936 232.815C463.942 233.146 463.674 236.627 463.674 236.627L462.107 238.307Z" fill="#0E2E35"/>
<path d="M459.775 238.887C459.565 240.402 460.119 241.821 461.013 242.056C461.907 242.291 462.802 241.255 463.013 239.739C463.223 238.224 462.669 236.806 461.775 236.57C460.881 236.335 459.985 237.372 459.775 238.887Z" fill="#EEB298"/>
</g>
<defs>
<filter id="filter0_d_15211_29407" x="81.163" y="86.978" width="398.483" height="309.403" filterUnits="userSpaceOnUse" color-interpolation-filters="sRGB">
<feFlood flood-opacity="0" result="BackgroundImageFix"/>
<feColorMatrix in="SourceAlpha" type="matrix" values="0 0 0 0 0 0 0 0 0 0 0 0 0 0 0 0 0 0 127 0" result="hardAlpha"/>
<feOffset dy="15.188"/>
<feGaussianBlur stdDeviation="15.188"/>
<feComposite in2="hardAlpha" operator="out"/>
<feColorMatrix type="matrix" values="0 0 0 0 0.117647 0 0 0 0 0.129412 0 0 0 0 0.176471 0 0 0 0.06 0"/>
<feBlend mode="normal" in2="BackgroundImageFix" result="effect1_dropShadow_15211_29407"/>
<feBlend mode="normal" in="SourceGraphic" in2="effect1_dropShadow_15211_29407" result="shape"/>
</filter>
<linearGradient id="paint0_linear_15211_29407" x1="447.539" y1="163.305" x2="437.554" y2="163.305" gradientUnits="userSpaceOnUse">
<stop stop-color="#FAB882"/>
<stop offset="1" stop-color="#FF7300"/>
</linearGradient>
<linearGradient id="paint1_linear_15211_29407" x1="180.296" y1="43.9196" x2="169.201" y2="43.9196" gradientUnits="userSpaceOnUse">
<stop stop-color="#FAB882"/>
<stop offset="1" stop-color="#FF7300"/>
</linearGradient>
<linearGradient id="paint2_linear_15211_29407" x1="139.268" y1="128.332" x2="132.611" y2="128.332" gradientUnits="userSpaceOnUse">
<stop stop-color="#FAB882"/>
<stop offset="1" stop-color="#FF7300"/>
</linearGradient>
<linearGradient id="paint3_linear_15211_29407" x1="322.237" y1="213.278" x2="315.58" y2="213.278" gradientUnits="userSpaceOnUse">
<stop stop-color="#FAB882"/>
<stop offset="1" stop-color="#FF7300"/>
</linearGradient>
<linearGradient id="paint4_linear_15211_29407" x1="82.9794" y1="81.5675" x2="69.3901" y2="81.5675" gradientUnits="userSpaceOnUse">
<stop stop-color="#FAB882"/>
<stop offset="1" stop-color="#FF7300"/>
</linearGradient>
<linearGradient id="paint5_linear_15211_29407" x1="243.503" y1="80.5542" x2="232.408" y2="80.5542" gradientUnits="userSpaceOnUse">
<stop stop-color="#FAB882"/>
<stop offset="1" stop-color="#FF7300"/>
</linearGradient>
<linearGradient id="paint6_linear_15211_29407" x1="465.283" y1="59.4665" x2="451.968" y2="59.4665" gradientUnits="userSpaceOnUse">
<stop stop-color="#FAB882"/>
<stop offset="1" stop-color="#FF7300"/>
</linearGradient>
<linearGradient id="paint7_linear_15211_29407" x1="98.2374" y1="21.6988" x2="87.1424" y2="21.6988" gradientUnits="userSpaceOnUse">
<stop stop-color="#FAB882"/>
<stop offset="1" stop-color="#FF7300"/>
</linearGradient>
<linearGradient id="paint8_linear_15211_29407" x1="379.896" y1="95.0056" x2="372.13" y2="95.0056" gradientUnits="userSpaceOnUse">
<stop stop-color="#FAB882"/>
<stop offset="1" stop-color="#FF7300"/>
</linearGradient>
<linearGradient id="paint9_linear_15211_29407" x1="292.297" y1="119.983" x2="282.311" y2="119.983" gradientUnits="userSpaceOnUse">
<stop stop-color="#FAB882"/>
<stop offset="1" stop-color="#FF7300"/>
</linearGradient>
<linearGradient id="paint10_linear_15211_29407" x1="341.083" y1="58.9049" x2="327.769" y2="58.9049" gradientUnits="userSpaceOnUse">
<stop stop-color="#FAB882"/>
<stop offset="1" stop-color="#FF7300"/>
</linearGradient>
<linearGradient id="paint11_linear_15211_29407" x1="490.786" y1="254.93" x2="477.472" y2="254.93" gradientUnits="userSpaceOnUse">
<stop stop-color="#FAB882"/>
<stop offset="1" stop-color="#FF7300"/>
</linearGradient>
<linearGradient id="paint12_linear_15211_29407" x1="93.8047" y1="183.845" x2="83.8191" y2="183.845" gradientUnits="userSpaceOnUse">
<stop stop-color="#FAB882"/>
<stop offset="1" stop-color="#FF7300"/>
</linearGradient>
<linearGradient id="paint13_linear_15211_29407" x1="233.66" y1="32.7421" x2="233.66" y2="465.14" gradientUnits="userSpaceOnUse">
<stop stop-color="#FF7300"/>
<stop offset="1" stop-color="#FF7300" stop-opacity="0"/>
</linearGradient>
<linearGradient id="paint14_linear_15211_29407" x1="369.401" y1="73.7838" x2="354.193" y2="73.7838" gradientUnits="userSpaceOnUse">
<stop stop-color="#FAB882"/>
<stop offset="1" stop-color="#FF7300"/>
</linearGradient>
<linearGradient id="paint15_linear_15211_29407" x1="417.527" y1="88.7957" x2="362.599" y2="88.7957" gradientUnits="userSpaceOnUse">
<stop stop-color="#FAB882"/>
<stop offset="1" stop-color="#FF7300"/>
</linearGradient>
<linearGradient id="paint16_linear_15211_29407" x1="399.368" y1="73.3652" x2="381.887" y2="73.3652" gradientUnits="userSpaceOnUse">
<stop stop-color="#FAB882"/>
<stop offset="1" stop-color="#FF7300"/>
</linearGradient>
<linearGradient id="paint17_linear_15211_29407" x1="453.157" y1="260.785" x2="425.33" y2="260.785" gradientUnits="userSpaceOnUse">
<stop stop-color="#FAB882"/>
<stop offset="1" stop-color="#FF7300"/>
</linearGradient>
<linearGradient id="paint18_linear_15211_29407" x1="493.259" y1="259.588" x2="454.328" y2="259.588" gradientUnits="userSpaceOnUse">
<stop stop-color="#FAB882"/>
<stop offset="1" stop-color="#FF7300"/>
</linearGradient>
<clipPath id="clip0_15211_29407">
<rect width="536.702" height="402" fill="white" transform="translate(0.648438)"/>
</clipPath>
</defs>
</svg>
