<svg width="60" height="60" viewBox="0 0 60 60" fill="none" xmlns="http://www.w3.org/2000/svg">
<rect x="0.5" y="0.5" width="59" height="59" rx="7.5" fill="white" stroke="#D8DEE6"/>
<path d="M47.7143 30.6897C47.7143 21.5484 40.2097 14.1379 30.9524 14.1379M47.7143 30.6897C47.7143 37.8964 43.05 44.0274 36.5397 46.2996M47.7143 30.6897H51.9048M14.1905 30.6897C14.1905 21.5484 21.695 14.1379 30.9524 14.1379M14.1905 30.6897C14.1905 38.4021 19.5324 44.8825 26.7619 46.7199V50M14.1905 30.6897H10M30.9524 14.1379V10" stroke="#FF7300" stroke-width="1.5" stroke-linecap="round"/>
<path d="M20.952 25.4149C20.0418 27.0552 19.5234 28.9431 19.5234 30.952C19.5234 37.2638 24.6402 42.3806 30.952 42.3806C37.2638 42.3806 42.3806 37.2638 42.3806 30.952C42.3806 24.6402 37.2638 19.5234 30.952 19.5234C28.2493 19.5234 25.7657 20.4616 23.8092 22.0301" stroke="#FF7300" stroke-width="1.5" stroke-linecap="round" stroke-linejoin="round"/>
<path d="M36.0304 30.9521C36.0304 28.1468 33.7563 25.8727 30.9511 25.8727M36.0304 30.9521C36.0304 31.733 35.8542 32.4728 35.5393 33.1338M36.0304 30.9521H38.5701M30.9511 36.0314C28.1458 36.0314 25.8717 33.7573 25.8717 30.9521M30.9511 36.0314C32.1523 36.0314 33.2561 35.6145 34.1257 34.9174M30.9511 36.0314V38.5711M25.8717 30.9521C25.8717 28.1468 28.1458 25.8727 30.9511 25.8727M25.8717 30.9521H23.332M30.9511 25.8727V23.333" stroke="#0061BF" stroke-width="1.5" stroke-linecap="round"/>
</svg>
