<svg width="589" height="405" viewBox="0 0 589 405" fill="none" xmlns="http://www.w3.org/2000/svg">
<g clip-path="url(#clip0_15188_42561)">
<path opacity="0.08" fill-rule="evenodd" clip-rule="evenodd" d="M302.182 401.212C369.584 401.212 431.612 402.254 480.836 404.001C601.299 332.816 559.586 194.066 516.333 115.582C456.136 6.35325 313.896 -32.9054 255.062 54.2447C175.203 172.537 98.1654 131.258 56.5665 221.096C14.9688 310.935 78.1426 397.06 123.527 404.001C172.751 402.254 234.779 401.212 302.182 401.212ZM196.633 98.3072C165.799 122.568 114.801 141.368 97.8649 115.575C85.212 96.305 100.798 60.1509 131.323 32.7383C161.826 5.3476 199.226 45.329 221.5 65.5C247.934 89.4345 220.377 79.6236 196.633 98.3072Z" fill="url(#paint0_linear_15188_42561)"/>
<g clip-path="url(#clip1_15188_42561)">
<path d="M396.679 348.273C394.035 348.273 391.885 346.122 391.885 343.478C391.885 340.834 394.035 338.684 396.679 338.684C399.322 338.684 401.472 340.834 401.472 343.478C401.472 346.122 399.322 348.273 396.679 348.273ZM396.679 339.812C394.657 339.812 393.013 341.457 393.013 343.478C393.013 345.5 394.657 347.145 396.679 347.145C398.7 347.145 400.344 345.5 400.344 343.478C400.345 341.457 398.7 339.812 396.679 339.812Z" fill="#0061BF"/>
<path d="M555.606 210.637C552.963 210.637 550.812 208.486 550.812 205.842C550.812 203.198 552.963 201.047 555.606 201.047C558.25 201.047 560.4 203.198 560.4 205.842C560.4 208.486 558.25 210.637 555.606 210.637ZM555.606 202.175C553.585 202.175 551.941 203.82 551.941 205.842C551.941 207.863 553.585 209.508 555.606 209.508C557.628 209.508 559.272 207.863 559.272 205.842C559.272 203.82 557.628 202.175 555.606 202.175Z" fill="#0061BF"/>
<path d="M21.1691 177.533C23.505 177.533 25.3987 175.639 25.3987 173.303C25.3987 170.966 23.505 169.072 21.1691 169.072C18.8331 169.072 16.9395 170.966 16.9395 173.303C16.9395 175.639 18.8331 177.533 21.1691 177.533Z" fill="#FF7300"/>
<path d="M11.7938 271.589C9.15043 271.589 7 269.439 7 266.795C7 264.151 9.15043 262 11.7938 262C14.4372 262 16.5876 264.151 16.5876 266.795C16.5873 269.439 14.4369 271.589 11.7938 271.589ZM11.7938 263.128C9.77234 263.128 8.12812 264.773 8.12812 266.795C8.12812 268.816 9.7726 270.461 11.7938 270.461C13.815 270.461 15.4595 268.816 15.4595 266.795C15.4595 264.773 13.815 263.128 11.7938 263.128Z" fill="#0061BF"/>
<path d="M195.626 337.273C192.982 337.273 190.832 335.122 190.832 332.478C190.832 329.834 192.982 327.684 195.626 327.684C198.269 327.684 200.42 329.834 200.42 332.478C200.42 335.122 198.269 337.273 195.626 337.273ZM195.626 328.812C193.604 328.812 191.96 330.457 191.96 332.478C191.96 334.5 193.605 336.145 195.626 336.145C197.647 336.145 199.292 334.5 199.292 332.478C199.292 330.457 197.647 328.812 195.626 328.812Z" fill="#0061BF"/>
<g filter="url(#filter0_d_15188_42561)">
<path d="M525.811 69.648C525.811 60.5097 538.435 53.1016 554.009 53.1016C569.582 53.1016 582.207 60.5097 582.207 69.648C582.207 78.7865 569.582 86.1947 554.009 86.1947C550.608 86.1947 547.349 85.8413 544.33 85.194C542.22 87.7332 538.569 90.0008 532.412 91.3089C532.412 91.3089 534.672 87.16 536.055 82.4075C529.798 79.3724 525.811 74.7835 525.811 69.648Z" fill="white"/>
</g>
<path d="M570.271 65.5117H538.125V66.6398H570.271V65.5117Z" fill="#D8DEE6"/>
<path d="M561.811 71.7168H538.125V72.8449H561.811V71.7168Z" fill="#D8DEE6"/>
<g filter="url(#filter1_d_15188_42561)">
<path d="M484.817 296H102.184C97.6639 296 94 292.683 94 288.592V42.408C94 38.3167 97.6639 35 102.184 35H484.816C489.336 35 493 38.3167 493 42.408V288.592C493 292.683 489.336 296 484.817 296Z" fill="white"/>
</g>
<path d="M113 46.0469H473.789C479.864 46.0469 484.789 50.9717 484.789 57.0469V271.521C484.789 277.596 479.864 282.521 473.789 282.521H113C106.925 282.521 102 277.596 102 271.521V57.0469C102 50.9718 106.925 46.0469 113 46.0469Z" stroke="#EBEFF2" stroke-width="2"/>
<path d="M343.234 62H266.44C263.613 62 261.32 64.2922 261.32 67.1198C261.32 69.9473 263.613 72.2395 266.44 72.2395H343.234C346.062 72.2395 348.354 69.9473 348.354 67.1198C348.354 64.2922 346.062 62 343.234 62Z" fill="#F2F5F6"/>
<path d="M415.757 82.2383H193.915C192.857 82.2383 192 83.0957 192 84.1535C192 85.2112 192.857 86.0686 193.915 86.0686H415.757C416.815 86.0686 417.672 85.2112 417.672 84.1535C417.672 83.0957 416.815 82.2383 415.757 82.2383Z" fill="#F2F5F6"/>
<path d="M447.697 208.842H360.627V212.672H447.697V208.842Z" fill="#EBEFF2"/>
<path d="M435.602 218.357H360.627V222.188H435.602V218.357Z" fill="#EBEFF2"/>
<path d="M407.917 227.873H360.627V231.703H407.917V227.873Z" fill="#EBEFF2"/>
<path d="M437.211 245.586H360.627V249.416H437.211V245.586Z" fill="#EBEFF2"/>
<path d="M426.572 255.102H360.627V258.932H426.572V255.102Z" fill="#EBEFF2"/>
<path d="M169.422 199.449H138.465C136.808 199.449 135.465 200.792 135.465 202.449V254.753C135.465 256.41 136.808 257.753 138.465 257.753H169.422C171.079 257.753 172.422 256.41 172.422 254.753V202.449C172.422 200.792 171.079 199.449 169.422 199.449Z" fill="#F2F5F6"/>
<path d="M220.347 199.357H184.803C183.146 199.357 181.803 200.701 181.803 202.357V215.616C181.803 217.273 183.146 218.616 184.803 218.616H220.346C222.003 218.616 223.346 217.273 223.346 215.616V202.357C223.346 200.701 222.003 199.357 220.347 199.357Z" fill="#F2F5F6"/>
<path d="M220.347 228H184.803C183.146 228 181.803 229.343 181.803 231V254.832C181.803 256.489 183.146 257.832 184.803 257.832H220.346C222.003 257.832 223.346 256.489 223.346 254.832V231C223.346 229.343 222.003 228 220.347 228Z" fill="#F2F5F6"/>
<path d="M329.911 258.253H252.986C249.709 258.253 247.043 255.57 247.043 252.272V213.386C247.043 210.088 249.709 207.404 252.986 207.404H329.911C333.189 207.404 335.855 210.088 335.855 213.386V252.272C335.855 255.57 333.189 258.253 329.911 258.253ZM252.986 208.34C250.222 208.34 247.973 210.604 247.973 213.386V252.272C247.973 255.054 250.222 257.317 252.986 257.317H329.911C332.675 257.317 334.925 255.054 334.925 252.272V213.386C334.925 210.604 332.676 208.34 329.911 208.34H252.986Z" fill="#D8DEE6"/>
<path d="M256.495 247.053C256.38 247.284 256.099 247.377 255.869 247.261C255.64 247.146 255.547 246.868 255.661 246.638L259.437 239.037C260.056 237.793 261.723 237.542 262.68 238.551L265.172 241.179C266.146 242.205 267.849 241.924 268.44 240.638L273.774 229.043C274.346 227.8 275.97 227.485 276.965 228.426L283.892 234.975C284.681 235.721 285.92 235.701 286.685 234.931L295.603 225.956C296.257 225.297 297.279 225.176 298.069 225.662L306.494 230.844C307.298 231.338 308.338 231.203 308.989 230.52L321.859 217.016C322.038 216.828 322.335 216.822 322.521 217.002C322.705 217.18 322.712 217.473 322.535 217.659L309.143 231.711C308.492 232.394 307.451 232.529 306.647 232.035L298.209 226.845C297.419 226.359 296.397 226.48 295.743 227.139L286.705 236.235C285.94 237.004 284.701 237.024 283.913 236.278L277.268 229.996C276.273 229.055 274.649 229.37 274.077 230.613L268.71 242.278C268.119 243.564 266.416 243.846 265.442 242.819L262.92 240.16C261.964 239.151 260.296 239.402 259.678 240.646L256.495 247.053Z" fill="#D8DEE6"/>
<path d="M301.5 245H291.5C290.119 245 289 246.119 289 247.5C289 248.881 290.119 250 291.5 250H301.5C302.881 250 304 248.881 304 247.5C304 246.119 302.881 245 301.5 245Z" fill="#D8DEE6"/>
<path d="M324 246H311C310.448 246 310 246.448 310 247C310 247.552 310.448 248 311 248H324C324.552 248 325 247.552 325 247C325 246.448 324.552 246 324 246Z" fill="#D8DEE6"/>
<path d="M288.314 182C280.158 182.019 272.256 179.243 266 174.161L288.685 151L317 167.374C313.804 171.894 309.521 175.588 304.522 178.137C299.523 180.685 293.96 182.011 288.314 182Z" fill="#FF7300"/>
<path d="M291 147V115C299.299 115.495 307.133 119.021 313.026 124.915C318.919 130.808 322.466 138.662 323 147H291Z" fill="#17BD8D"/>
<path d="M303 151H329C328.723 156.237 327.469 161.348 325.32 166L303 151Z" fill="#17BD8D"/>
<path d="M263.191 172C257.261 165.749 253.969 157.453 254 148.837C254.032 140.185 257.359 131.87 263.303 125.584C269.248 119.298 277.364 115.513 286 115V148.012L263.191 172Z" fill="#0061BF"/>
<path d="M209.47 108H153.53C148.819 108 145 111.819 145 116.53V143.47C145 148.181 148.819 152 153.53 152H209.47C214.181 152 218 148.181 218 143.47V116.53C218 111.819 214.181 108 209.47 108Z" fill="#F2F5F6"/>
<path d="M156.344 163H139.656C139.482 163 139.315 162.895 139.192 162.707C139.069 162.52 139 162.265 139 162C139 161.735 139.069 161.48 139.192 161.293C139.315 161.105 139.482 161 139.656 161H156.344C156.518 161 156.685 161.105 156.808 161.293C156.931 161.48 157 161.735 157 162C157 162.265 156.931 162.52 156.808 162.707C156.685 162.895 156.518 163 156.344 163Z" fill="#F2F5F6"/>
<path d="M203.203 163H171.797C171.585 163 171.383 162.895 171.233 162.707C171.084 162.52 171 162.265 171 162C171 161.735 171.084 161.48 171.233 161.293C171.383 161.105 171.585 161 171.797 161H203.203C203.415 161 203.617 161.105 203.767 161.293C203.916 161.48 204 161.735 204 162C204 162.131 203.979 162.261 203.939 162.383C203.899 162.504 203.841 162.614 203.767 162.707C203.693 162.8 203.605 162.874 203.508 162.924C203.412 162.974 203.308 163 203.203 163Z" fill="#F2F5F6"/>
<path d="M217.807 162.808H209.565C209.336 162.807 209.117 162.715 208.955 162.553C208.794 162.39 208.703 162.171 208.703 161.942C208.704 161.714 208.796 161.495 208.957 161.334C209.118 161.173 209.337 161.081 209.565 161.08H217.807C218.036 161.08 218.255 161.171 218.418 161.332C218.58 161.494 218.672 161.713 218.673 161.942C218.673 162.171 218.582 162.392 218.42 162.554C218.257 162.717 218.037 162.808 217.807 162.808Z" fill="#F2F5F6"/>
<path d="M218.08 173H139.92C139.676 173 139.442 172.895 139.269 172.707C139.097 172.52 139 172.265 139 172C139 171.735 139.097 171.48 139.269 171.293C139.442 171.105 139.676 171 139.92 171H218.08C218.324 171 218.558 171.105 218.731 171.293C218.903 171.48 219 171.735 219 172C219 172.265 218.903 172.52 218.731 172.707C218.558 172.895 218.324 173 218.08 173Z" fill="#F2F5F6"/>
<path d="M179.074 182H139.926C139.68 182 139.445 181.895 139.271 181.707C139.098 181.52 139 181.265 139 181C139 180.735 139.098 180.48 139.271 180.293C139.445 180.105 139.68 180 139.926 180H179.074C179.32 180 179.555 180.105 179.729 180.293C179.902 180.48 180 180.735 180 181C180 181.265 179.902 181.52 179.729 181.707C179.555 181.895 179.32 182 179.074 182Z" fill="#F2F5F6"/>
<path d="M217.68 182.23H185.234C184.97 182.23 184.717 182.125 184.53 181.939C184.343 181.752 184.238 181.498 184.238 181.234C184.238 180.97 184.343 180.717 184.53 180.53C184.717 180.343 184.97 180.238 185.234 180.238H217.68C217.944 180.238 218.197 180.343 218.384 180.53C218.571 180.717 218.676 180.97 218.676 181.234C218.676 181.365 218.65 181.495 218.6 181.615C218.55 181.736 218.477 181.846 218.384 181.939C218.292 182.031 218.182 182.104 218.061 182.154C217.94 182.205 217.811 182.23 217.68 182.23Z" fill="#F2F5F6"/>
<path d="M158.412 144.178L169.045 127.37C169.159 127.166 169.327 126.998 169.53 126.883C169.733 126.768 169.964 126.711 170.197 126.717C170.431 126.724 170.658 126.794 170.854 126.921C171.05 127.047 171.208 127.225 171.311 127.435L180.365 143.371C180.476 143.593 180.649 143.779 180.863 143.905C181.077 144.032 181.323 144.094 181.571 144.085C181.82 144.075 182.06 143.994 182.264 143.852C182.468 143.71 182.626 143.512 182.72 143.282L184.762 139.133C184.86 138.896 185.026 138.693 185.239 138.55C185.452 138.407 185.703 138.33 185.96 138.33C186.217 138.33 186.467 138.407 186.681 138.55C186.894 138.693 187.06 138.896 187.158 139.133L188.891 142.654C188.995 142.912 189.179 143.13 189.415 143.277C189.652 143.423 189.929 143.491 190.207 143.469C190.484 143.447 190.748 143.338 190.959 143.156C191.17 142.975 191.318 142.731 191.381 142.46L196.142 128.58C196.216 128.288 196.387 128.03 196.628 127.849C196.868 127.667 197.163 127.573 197.464 127.582C197.765 127.591 198.054 127.702 198.284 127.897C198.513 128.092 198.669 128.359 198.726 128.655L203.433 144.591C203.736 145.617 203.069 146.683 202.128 146.683H159.528C158.402 146.693 157.75 145.224 158.412 144.178Z" fill="#D8DEE6"/>
<path d="M183.173 126.409C185.393 126.409 187.192 124.34 187.192 121.788C187.192 119.235 185.393 117.166 183.173 117.166C180.954 117.166 179.154 119.235 179.154 121.788C179.154 124.34 180.954 126.409 183.173 126.409Z" fill="#D8DEE6"/>
<path d="M170.668 119.806C170.595 119.806 170.521 119.815 170.449 119.831C170.449 119.766 170.449 119.706 170.449 119.641C170.478 119.186 170.326 118.737 170.027 118.393C169.728 118.048 169.306 117.835 168.85 117.799C168.468 117.819 168.105 117.971 167.821 118.227C167.537 118.484 167.351 118.83 167.292 119.208C167.21 119.118 167.112 119.045 167.001 118.995C166.89 118.944 166.771 118.917 166.649 118.914C166.477 118.92 166.309 118.973 166.165 119.068C166.021 119.163 165.906 119.296 165.832 119.452C165.678 119.374 165.508 119.331 165.334 119.328C164.971 119.379 164.638 119.56 164.397 119.837C164.156 120.114 164.023 120.469 164.023 120.837C164.023 121.204 164.156 121.559 164.397 121.836C164.638 122.113 164.971 122.294 165.334 122.346C165.637 122.342 165.927 122.225 166.146 122.017C166.689 122.483 167.388 122.729 168.103 122.704C168.777 122.723 169.437 122.509 169.971 122.097C170.163 122.279 170.418 122.383 170.683 122.386C170.992 122.338 171.273 122.182 171.476 121.946C171.679 121.709 171.791 121.408 171.791 121.096C171.791 120.784 171.679 120.482 171.476 120.246C171.273 120.009 170.992 119.853 170.683 119.806H170.668Z" fill="#D8DEE6"/>
<path d="M198.555 119.806C198.481 119.807 198.408 119.815 198.336 119.831C198.341 119.768 198.341 119.704 198.336 119.641C198.365 119.186 198.213 118.737 197.914 118.393C197.615 118.048 197.192 117.835 196.737 117.799C196.355 117.819 195.992 117.971 195.708 118.227C195.424 118.484 195.237 118.83 195.178 119.208C195.097 119.118 194.998 119.045 194.888 118.995C194.777 118.944 194.657 118.917 194.536 118.914C194.363 118.92 194.196 118.973 194.052 119.068C193.908 119.163 193.793 119.296 193.719 119.452C193.565 119.374 193.394 119.331 193.221 119.328C192.858 119.379 192.525 119.56 192.284 119.837C192.043 120.114 191.91 120.469 191.91 120.837C191.91 121.204 192.043 121.559 192.284 121.836C192.525 122.113 192.858 122.294 193.221 122.346C193.523 122.342 193.813 122.224 194.033 122.017C194.575 122.483 195.271 122.728 195.985 122.704C196.661 122.723 197.322 122.509 197.858 122.097C198.048 122.28 198.301 122.383 198.565 122.386C198.873 122.338 199.155 122.182 199.358 121.946C199.561 121.709 199.673 121.408 199.673 121.096C199.673 120.784 199.561 120.482 199.358 120.246C199.155 120.009 198.873 119.853 198.565 119.806H198.555Z" fill="#D8DEE6"/>
<path d="M365.378 118H443.622C446.039 118 448 120.128 448 122.756V182.247C448 184.872 446.039 187 443.622 187H365.378C362.961 187 361 184.872 361 182.247V122.756C361 120.128 362.961 118 365.378 118Z" fill="#F2F5F6"/>
<path d="M381.285 164.504H375.285V178.504H381.285V164.504Z" fill="#D8DEE6"/>
<path d="M390.285 155.504H385.285V178.504H390.285V155.504Z" fill="#D8DEE6"/>
<path d="M399.285 168.504H394.285V178.504H399.285V168.504Z" fill="#D8DEE6"/>
<path d="M409.285 149.504H404.285V178.504H409.285V149.504Z" fill="#D8DEE6"/>
<path d="M418.285 157.504H413.285V178.504H418.285V157.504Z" fill="#D8DEE6"/>
<path d="M428.285 150.504H422.285V178.504H428.285V150.504Z" fill="#D8DEE6"/>
<path d="M437.285 139.504H432.285V178.504H437.285V139.504Z" fill="#D8DEE6"/>
<path d="M432.501 127.625L427.381 127.303L422.26 126.98C421.96 126.965 421.842 127.319 422.045 127.625L424.487 131.258L414.743 137.774L411.282 135.046L410.261 134.229L409.143 134.929L395.154 143.641L391.313 141.964L390.52 141.618L389.873 141.94L373.96 149.847C373.864 149.896 373.79 149.979 373.752 150.08C373.713 150.181 373.714 150.292 373.754 150.393C373.793 150.494 373.869 150.576 373.966 150.623C374.062 150.67 374.173 150.679 374.276 150.648L377.575 149.642L390.458 145.707L394.575 147.506L395.482 147.899L396.318 147.378L410.01 138.832L413.506 141.585L414.578 142.44L415.71 141.682L426.608 134.396L427.437 135.635L429.08 138.05C429.256 138.315 429.559 138.368 429.699 138.193C429.725 138.165 429.743 138.13 429.751 138.093L431.371 133.206L432.907 128.58L432.991 128.319C433.011 128.241 433.013 128.159 432.998 128.08C432.983 128 432.951 127.925 432.904 127.859C432.858 127.793 432.798 127.738 432.728 127.698C432.659 127.657 432.581 127.633 432.501 127.625Z" fill="#D8DEE6"/>
<circle cx="116.5" cy="63.5" r="3.5" fill="#FF6259"/>
<circle cx="128.5" cy="63.5" r="3.5" fill="#FFBE2F"/>
<circle cx="140.5" cy="63.5" r="3.5" fill="#29CD41"/>
<path d="M465.713 67.2992L468.43 64.5826C468.75 64.2617 468.75 63.7367 468.43 63.4159L465.713 60.6992" stroke="#0061BF" stroke-width="1.5" stroke-miterlimit="10" stroke-linecap="round" stroke-linejoin="round"/>
<path d="M95.1509 186.683C95.1509 186.683 108.194 202.24 102.222 205.697C96.2508 209.155 90.3609 208.598 88.2372 206.641C85.9256 204.51 79.6234 199.235 80.8517 195.326C82.5799 189.826 89.6512 184.327 95.1509 186.683Z" fill="#FFC6AD"/>
<path d="M94.6793 206.326L95.3086 217.326L81.9518 214.341L86.1731 201.268" fill="#FFC6AD"/>
<path d="M85.0826 205.489C86.4101 205.303 87.6884 204.774 88.7571 203.965C89.186 203.642 89.5742 202.948 89.1296 202.647C88.899 202.492 88.5922 202.577 88.3146 202.592C87.4453 202.635 86.7419 201.926 86.1721 201.268C85.5094 200.504 84.8332 199.692 84.6036 198.708C84.374 197.723 84.7455 196.52 85.6816 196.138C86.5718 195.776 87.5977 196.274 88.2676 196.964C88.4555 197.157 88.6496 197.379 88.9168 197.421C89.3572 197.491 89.714 197.003 89.7109 196.558C89.7078 196.112 89.4709 195.708 89.2903 195.301C88.8019 194.2 88.7049 192.93 89.0201 191.767C89.1839 191.162 89.403 190.387 88.9021 190.01C88.5744 189.764 88.1122 189.854 87.7177 189.968C86.2295 190.397 84.7894 190.996 83.4348 191.748C80.9062 193.153 79.2562 196.497 79.7624 199.361C80.2539 202.135 82.842 204.105 85.0826 205.489Z" fill="#292466"/>
<path d="M79.906 199.948C80.2849 197.645 81.6832 195.369 83.6713 194.147C86.4086 192.465 89.2263 190.914 92.1128 189.503C93.4215 188.862 94.8397 188.161 95.4847 186.854C95.8478 186.117 95.9157 185.274 95.947 184.453C95.9992 183.091 95.9616 181.698 95.4961 180.417C95.0297 179.137 94.0706 177.974 92.7724 177.564C90.9012 176.973 88.9174 178.041 87.4 179.285C83.6494 182.358 82.5 183.453 79.5 187.5C77.5 190 77.5 190.5 76.5718 192.934C76 194.434 75.3466 198.84 79.906 199.948Z" fill="#292466"/>
<path d="M126.27 235.897L158.773 226.947C158.773 226.947 165.297 216.044 166.797 216.294C168.297 216.545 164.39 221.741 166.391 222.075C167.507 222.262 171.162 222.146 171.867 221.574C172.571 221.001 174.465 216.208 174.953 216.29C175.78 216.43 175.046 222.996 173.577 224.466C172.506 225.536 168.165 228.719 164.604 230.494C161.018 232.282 126.044 256.968 119.295 255.84" fill="#EF9D7D"/>
<path d="M139.311 232.027L143.589 231.129L145.049 244.128L133.351 248.505" fill="#FE8623"/>
<path d="M72.5647 223.304C72.5647 223.304 76.3634 211.42 88.6265 213.356C100.891 215.292 123.267 234.764 123.267 234.764L140.145 231.886L141.73 253.802C141.73 253.802 128.078 261.52 119.532 261.52C101.968 261.52 77.6689 229.62 77.6689 229.62" fill="#FAB882"/>
<path d="M96.9727 250.088C85.0966 241.258 82.2268 233.215 77.6684 233.215" stroke="#1B5889" stroke-miterlimit="10"/>
<path d="M61.6016 315.48C61.6016 315.48 48.6621 313.178 44.2102 312.462C35.5661 311.073 26.6404 310.961 30.1333 307.468C34.6906 302.911 55.9662 293.016 55.9662 293.016L66.9238 301.749L61.6016 315.48Z" fill="#FC9745"/>
<path d="M125.348 355.691L120.303 376.904C126.879 386.5 128.412 376.505 128.412 376.505L140.639 353.676" fill="#FFC6AD"/>
<path d="M119.171 380.859L120.302 376.903C125.857 380.315 128.411 376.504 128.411 376.504L139.245 379.738C142.385 380.829 142.829 384.314 140.638 384.314H121.777C119.977 384.314 118.677 382.59 119.171 380.859Z" fill="#292466"/>
<path d="M49.8848 360.322H28.2711C21.0005 366.064 30.424 367.904 30.424 367.904L51.7695 373.644" fill="#FFC6AD"/>
<path d="M24.2312 360.421L28.2709 360.322C26.1003 365.313 30.4238 367.904 30.4238 367.904C30.4238 367.904 28.5204 374.878 28.5204 375.657C28.5204 376.435 30.5 378.162 29.6818 379.309C28.8637 380.456 24.3042 379.851 23.6948 378.292C22.0501 374.084 21.0003 362.859 21.0003 362.859C21.0003 361.174 22.3705 360.616 24.2312 360.421Z" fill="#292466"/>
<path d="M89.7098 288.097C89.7098 288.097 123.387 355.196 112.815 370.572C106.77 379.363 96.2489 380.434 81.9487 380.434C75.5504 380.434 43.912 380.434 43.912 380.434L38.5898 360.192L86.0813 357.826C86.0813 357.826 51.67 325.85 49.826 312.025C47.4602 294.284 56.0354 278.908 56.0354 278.908" fill="#264B89"/>
<path d="M105.378 287.574C105.378 287.574 107.595 291.328 109.849 291.328C119.017 291.328 140.29 291.328 145.037 291.328C158.639 291.328 168.793 299.154 164.16 320.375C159.526 341.597 149.269 369.982 149.269 369.982H121.087L131.391 326.237C131.391 326.237 98.3086 326.237 93.2826 326.237C77.6591 326.237 68.8658 313.801 76.2001 291.328" fill="#264B89"/>
<path d="M99.2062 233.373C99.2062 233.373 103.263 271.91 106.076 288.658C99.5715 300.485 52.1541 299.4 50.0846 297.33C48.0152 295.26 57.7905 246.638 65.799 234.96C73.8064 223.282 99.2062 219.772 99.2062 233.373Z" fill="#FFD273"/>
<path d="M84.6908 213.489C84.6908 213.489 63.8984 212.337 54.6626 247.483C45.2704 283.225 30.1341 307.468 30.1341 307.468C30.1341 307.468 35.877 305.465 45.8339 306.546C62.3517 308.34 82.8885 316.961 82.8885 316.961C82.8885 316.961 90.6497 300.448 95.9626 280.552C105.953 243.14 99.2812 220.7 99.2812 220.7L84.6908 213.489Z" fill="url(#paint1_linear_15188_42561)"/>
<path d="M178.677 180.03L186.82 182.699L175.944 215.88L167.801 213.211L178.677 180.03Z" fill="#D8DEE6"/>
<path d="M209.718 99.1746C232.535 106.653 244.971 131.214 237.491 154.031C230.013 176.849 205.452 189.283 182.635 181.804C159.817 174.325 147.383 149.765 154.862 126.948C162.341 104.131 186.9 91.6952 209.718 99.1746ZM184.563 175.923C204.133 182.337 225.197 171.673 231.611 152.102C238.025 132.533 227.36 111.468 207.791 105.054C188.221 98.6403 167.157 109.305 160.743 128.874C154.328 148.445 164.993 169.509 184.563 175.923Z" fill="#AAB4BE"/>
<path d="M161.387 246.63C164.726 247.725 168.32 245.905 169.414 242.566L184.307 197.171L172.216 193.209L157.323 238.604C156.229 241.942 158.048 245.535 161.387 246.63Z" fill="#AAB4BE"/>
<path d="M130.059 243.661L160.474 230.537C160.474 230.537 166.998 219.634 168.498 219.884C169.998 220.135 166.092 225.331 168.092 225.665C169.208 225.851 172.863 225.736 173.568 225.164C174.272 224.591 176.166 219.798 176.654 219.88C177.481 220.02 176.748 226.586 175.278 228.056C174.208 229.127 169.866 232.31 166.306 234.085C162.72 235.873 129.833 264.733 123.083 263.605" fill="#FFBEA1"/>
<path d="M134.625 240.688L143.87 237.064L148.998 250.609L136.374 259.42" fill="#FE8623"/>
<path d="M76.201 217.327C76.201 217.327 80.0425 211.591 92.2399 213.912C99.2768 215.251 126.835 243.298 126.835 243.298L140.466 238.352L147.896 261.863C147.896 261.863 131.102 272.437 122.557 272.437C104.993 272.437 80.6937 240.536 80.6937 240.536" fill="url(#paint2_linear_15188_42561)"/>
<path d="M83.4336 291.328L70.0288 292.584V294.702L82.0759 294.669L83.4336 291.328Z" fill="#292466"/>
<ellipse opacity="0.1" cx="497.5" cy="379" rx="65.5" ry="7" fill="#FF7300"/>
<ellipse opacity="0.1" cx="82.5" cy="386" rx="89.5" ry="7" fill="#FF7300"/>
<path d="M522.401 346L523.608 376.822L540.07 374.249V347.236L522.401 346Z" fill="#FFCBC2"/>
<path d="M542.118 377.36C541.653 378.078 536.072 377.403 535.587 377.517C535.101 377.632 533.734 374.764 532.817 375.191C531.901 375.614 530.779 376.957 529.431 377.572C528.172 378.144 507.503 378.005 503.502 377.517C503.174 377.475 502.948 377.186 503.01 376.872C503.161 376.095 503.51 374.582 504.187 373.076C504.795 371.72 505.67 370.358 506.909 369.539C510.116 367.394 516.833 366.556 519.274 365.128C521.723 363.7 524.459 360.247 525.915 360.905C527.372 361.567 530.108 364.58 534.074 364.158C538.041 363.743 539.874 362.887 540.941 363.748C541.612 364.291 542.083 369.292 542.227 373.076C542.317 375.293 542.289 377.095 542.118 377.36Z" fill="#292466"/>
<path d="M479.405 343L480.612 373.822L497.074 371.249V344.236L479.405 343Z" fill="#FFCBC2"/>
<path d="M498.118 380.36C497.653 381.078 492.072 380.403 491.587 380.517C491.101 380.632 489.734 377.764 488.817 378.191C487.901 378.614 486.779 379.957 485.431 380.572C484.172 381.144 463.503 381.005 459.502 380.517C459.174 380.475 458.948 380.186 459.01 379.872C459.161 379.095 459.51 377.582 460.187 376.076C460.795 374.72 461.67 373.358 462.909 372.539C466.116 370.394 472.833 369.556 475.274 368.128C477.723 366.7 480.459 363.247 481.915 363.905C483.372 364.567 486.108 367.58 490.074 367.158C494.041 366.743 495.874 365.887 496.941 366.748C497.612 367.291 498.083 372.292 498.227 376.076C498.317 378.293 498.289 380.095 498.118 380.36Z" fill="#292466"/>
<path d="M515 176L514.896 176.43L511.436 191.24L503.892 223.518C502.839 228.666 502.047 234.221 501.464 240.036C497.785 276.772 502.537 323.724 505.007 343.976C505.653 349.294 501.839 354 496.9 354H483.176C480.018 354 477.142 352.02 475.777 348.932C458.281 309.152 461.126 249.744 464.637 235.205C470.192 212.205 474.016 177.89 474.016 177.89L485.677 177.347L515 176Z" fill="#3A67B3"/>
<path d="M546.045 343.365C545.921 348.464 541.759 352.537 536.661 352.537H523.938C519.235 352.537 515.253 349.051 514.644 344.38C512.219 325.878 506.309 279.262 502.959 240.08C501.211 219.525 500.173 201.023 500.714 189.696C500.906 185.397 501.335 182.137 502.045 180.185L517.498 176.654L533.232 173.066C533.232 173.066 537.135 177.229 540.722 199.398C544.455 222.526 547.827 265.272 546.045 343.365Z" fill="#3A67B3"/>
<path d="M498.142 91.3203H485.092V113.105H498.142V91.3203Z" fill="#FFC6AD"/>
<path d="M491.205 100.379C491.205 100.379 489.885 105.128 485.092 108.378V98.8672L491.205 100.379Z" fill="#EDB49B"/>
<path d="M478.361 80.2031L477.444 89.3729C477.444 89.3729 471.834 95.5 474.5 95.5C477.364 95.5 478.246 96.2503 478.246 96.2503C478.246 96.2503 476.642 108.171 491.195 100.377L494.29 82.4955L480.5 79L478.361 80.2031Z" fill="#FFC6AD"/>
<path d="M478.361 80.2016C478.361 80.2016 482.315 79.6859 483.346 83.8694C484.378 88.0532 485.753 90.6321 489.248 87.7094L493.087 81.4051L486.498 78.6543L478.361 80.2016Z" fill="#292466"/>
<path d="M478.361 80.2023C478.361 77.2221 482.864 68.1085 494 70.0001C498.985 70.8469 502.765 76.0101 504 80.4317C505.401 85.4506 502.772 91.9359 499.848 95.5616C499.848 95.5616 497.04 99.9745 493.259 91.8938L486.784 83.1825L485.409 80.4317L478.361 80.2023Z" fill="#292466"/>
<path d="M489.048 92.9855C490.638 93.9034 492.779 93.1698 493.831 91.3471C494.883 89.5243 494.448 87.3026 492.858 86.3847C491.269 85.4668 489.128 86.2003 488.075 88.0231C487.023 89.8458 487.459 92.0676 489.048 92.9855Z" fill="#EDB49B"/>
<path d="M518.552 108.348C543.554 116.433 563.293 150.278 540.171 150.842C517.048 151.406 502.949 129.971 502.949 129.971L518.552 108.348Z" fill="#5BA7F4"/>
<path d="M407.918 134.163C407.918 134.163 395.566 128.778 395.148 129.979C394.73 131.18 397.648 132.672 397.648 132.672C397.648 132.672 389.702 131.541 389.04 132.728C388.379 133.916 391.715 134.207 391.715 134.207C391.715 134.207 388.311 134.019 387.961 135.117C387.611 136.215 390.324 136.684 390.324 136.684C390.324 136.684 387.562 136.478 387.387 137.693C387.212 138.907 389.352 139.292 389.352 139.292C389.352 139.292 387.63 139.037 388.049 140.497C388.467 141.957 404.82 144.919 404.82 144.919L410.525 139.292L407.918 134.163Z" fill="#E2AC94"/>
<path d="M531.392 183.829L475.571 189.922C470.868 190.429 466.796 186.672 466.942 181.934L467.642 158.897L467.969 148.28L467.98 148.021C467.98 148.021 467.574 148.506 466.762 149.262C466.762 149.273 466.751 149.273 466.739 149.285C466.209 149.77 465.51 150.367 464.641 151.022C457.231 156.618 437.47 166.23 404.816 144.919L407.918 134.167L443.166 135.611C443.166 135.611 458.968 122.84 473 114.074C482.17 108.343 492.783 105.173 503.589 105.455C508.473 105.579 513.717 106.358 518.556 108.343C530.456 113.262 536.355 157.17 538.295 175.255C538.758 179.531 535.667 183.367 531.392 183.829Z" fill="#80BFFE"/>
<path d="M472.966 144.072C472.966 144.072 472.617 153.165 467.643 158.897L467.97 148.28C469.83 146.769 471.962 144.998 472.966 144.072Z" fill="#5BA7F4"/>
</g>
<path opacity="0.5" fill-rule="evenodd" clip-rule="evenodd" d="M314.151 300.365C315.011 312.169 316.752 313.796 328.007 314.704C316.752 315.615 315.011 317.24 314.151 329.044C313.29 317.24 311.549 315.615 300.295 314.704C311.55 313.796 313.29 312.169 314.151 300.365ZM268.398 331.493C268.857 337.791 269.786 338.663 275.795 339.148C269.786 339.632 268.857 340.501 268.398 346.804C267.939 340.501 267.01 339.632 261 339.148C267.01 338.663 267.939 337.791 268.398 331.493ZM288.435 283C288.899 289.381 289.841 290.261 295.927 290.753C289.841 291.245 288.899 292.125 288.435 298.506C287.97 292.125 287.028 291.245 280.941 290.753C287.028 290.261 287.97 289.381 288.435 283Z" fill="#FF7300"/>
</g>
<defs>
<filter id="filter0_d_15188_42561" x="485.811" y="28.1016" width="136.396" height="118.207" filterUnits="userSpaceOnUse" color-interpolation-filters="sRGB">
<feFlood flood-opacity="0" result="BackgroundImageFix"/>
<feColorMatrix in="SourceAlpha" type="matrix" values="0 0 0 0 0 0 0 0 0 0 0 0 0 0 0 0 0 0 127 0" result="hardAlpha"/>
<feOffset dy="15"/>
<feGaussianBlur stdDeviation="20"/>
<feComposite in2="hardAlpha" operator="out"/>
<feColorMatrix type="matrix" values="0 0 0 0 0.117647 0 0 0 0 0.129412 0 0 0 0 0.176471 0 0 0 0.05 0"/>
<feBlend mode="normal" in2="BackgroundImageFix" result="effect1_dropShadow_15188_42561"/>
<feBlend mode="normal" in="SourceGraphic" in2="effect1_dropShadow_15188_42561" result="shape"/>
</filter>
<filter id="filter1_d_15188_42561" x="65.1352" y="20.5676" width="456.73" height="318.73" filterUnits="userSpaceOnUse" color-interpolation-filters="sRGB">
<feFlood flood-opacity="0" result="BackgroundImageFix"/>
<feColorMatrix in="SourceAlpha" type="matrix" values="0 0 0 0 0 0 0 0 0 0 0 0 0 0 0 0 0 0 127 0" result="hardAlpha"/>
<feOffset dy="14.4324"/>
<feGaussianBlur stdDeviation="14.4324"/>
<feComposite in2="hardAlpha" operator="out"/>
<feColorMatrix type="matrix" values="0 0 0 0 0.117647 0 0 0 0 0.129412 0 0 0 0 0.176471 0 0 0 0.06 0"/>
<feBlend mode="normal" in2="BackgroundImageFix" result="effect1_dropShadow_15188_42561"/>
<feBlend mode="normal" in="SourceGraphic" in2="effect1_dropShadow_15188_42561" result="shape"/>
</filter>
<linearGradient id="paint0_linear_15188_42561" x1="270.457" y1="0.141072" x2="270.457" y2="404" gradientUnits="userSpaceOnUse">
<stop stop-color="#FF7300"/>
<stop offset="1" stop-color="#FF7300" stop-opacity="0"/>
</linearGradient>
<linearGradient id="paint1_linear_15188_42561" x1="30.1589" y1="265.815" x2="101.527" y2="265.815" gradientUnits="userSpaceOnUse">
<stop stop-color="#FAB882"/>
<stop offset="1" stop-color="#FF7300"/>
</linearGradient>
<linearGradient id="paint2_linear_15188_42561" x1="76.2259" y1="243.236" x2="147.961" y2="243.236" gradientUnits="userSpaceOnUse">
<stop stop-color="#FAB882"/>
<stop offset="1" stop-color="#FF7300"/>
</linearGradient>
<clipPath id="clip0_15188_42561">
<rect width="589" height="405" fill="white"/>
</clipPath>
<clipPath id="clip1_15188_42561">
<rect width="603" height="384" fill="white" transform="translate(0 20)"/>
</clipPath>
</defs>
</svg>
