<svg width="40" height="40" viewBox="0 0 40 40" fill="none" xmlns="http://www.w3.org/2000/svg">
<path d="M36.6673 21.6673V15.0007C36.6673 6.66732 33.334 3.33398 25.0007 3.33398H15.0007C6.66732 3.33398 3.33398 6.66732 3.33398 15.0007V25.0007C3.33398 33.334 6.66732 36.6673 15.0007 36.6673H21.6673" stroke="#FF7300" stroke-width="2" stroke-linecap="round" stroke-linejoin="round"/>
<path d="M36.6673 21.6673V15.0007C36.6673 6.66732 33.334 3.33398 25.0007 3.33398H15.0007C6.66732 3.33398 3.33398 6.66732 3.33398 15.0007V25.0007C3.33398 33.334 6.66732 36.6673 15.0007 36.6673H21.6673" stroke="#FF7300" stroke-width="2" stroke-linecap="round" stroke-linejoin="round"/>
<path d="M36.6673 21.6673V15.0007C36.6673 6.66732 33.334 3.33398 25.0007 3.33398H15.0007C6.66732 3.33398 3.33398 6.66732 3.33398 15.0007V25.0007C3.33398 33.334 6.66732 36.6673 15.0007 36.6673H21.6673" stroke="#FF7300" stroke-width="2" stroke-linecap="round" stroke-linejoin="round"/>
<path d="M26.666 32.384L29.2993 35.0007L34.9993 28.334" stroke="#0061BF" stroke-width="2" stroke-linecap="round" stroke-linejoin="round"/>
<path d="M11.666 17.5V22.5" stroke="#0061BF" stroke-width="1.5" stroke-linecap="round" stroke-linejoin="round"/>
<path d="M20 17.5V22.5" stroke="#0061BF" stroke-width="1.5" stroke-linecap="round" stroke-linejoin="round"/>
<path d="M28.334 17.5V22.5" stroke="#0061BF" stroke-width="1.5" stroke-linecap="round" stroke-linejoin="round"/>
</svg>
