<svg width="562" height="455" viewBox="0 0 562 455" fill="none" xmlns="http://www.w3.org/2000/svg">
<g clip-path="url(#clip0_15207_34226)">
<ellipse cx="234" cy="225.5" rx="234" ry="225.5" transform="matrix(-1 0 0 1 478 -1)" fill="url(#paint0_linear_15207_34226)"/>
<g filter="url(#filter0_d_15207_34226)">
<path d="M488.476 303.37H105.7C97.6452 303.37 91.1172 296.441 91.1172 287.896V36.4739C91.1172 27.9272 97.6462 21 105.7 21H488.477C496.53 21 503.059 27.9282 503.059 36.4739V287.895C503.059 296.441 496.53 303.37 488.476 303.37Z" fill="white"/>
</g>
<rect x="306.535" y="115.122" width="87.3637" height="9.80699" rx="4.9035" fill="#EBEFF2"/>
<rect x="306.535" y="133.846" width="112.183" height="4.45772" rx="2.22886" fill="#EBEFF2"/>
<rect x="306.535" y="144.543" width="57.5806" height="4.45772" rx="2.22886" fill="#EBEFF2"/>
<rect x="279.383" y="116.247" width="17.8157" height="17.3645" rx="2.24949" stroke="#EBEFF2" stroke-width="2.24949"/>
<rect x="306.535" y="171.29" width="87.3637" height="9.80699" rx="4.9035" fill="#EBEFF2"/>
<rect x="306.535" y="190.014" width="112.183" height="4.45772" rx="2.22886" fill="#EBEFF2"/>
<rect x="306.535" y="200.711" width="57.5806" height="4.45772" rx="2.22886" fill="#EBEFF2"/>
<rect x="279.383" y="172.415" width="17.8157" height="17.3645" rx="2.24949" stroke="#EBEFF2" stroke-width="2.24949"/>
<rect x="120.453" y="115.123" width="141.796" height="85.5666" rx="12.7222" fill="#F2F5F6"/>
<path d="M195.77 164.298H197.692C201.538 164.298 204.695 161.153 204.695 157.295C204.695 153.45 201.55 150.292 197.692 150.292H195.77" stroke="#FF7300" stroke-width="2" stroke-linecap="round" stroke-linejoin="round"/>
<path d="M188.142 150.292H186.232C182.374 150.292 179.229 153.437 179.229 157.295C179.229 161.141 182.374 164.298 186.232 164.298H188.142" stroke="#0061BF" stroke-width="2" stroke-linecap="round" stroke-linejoin="round"/>
<path d="M186.867 157.295H197.054" stroke="#0061BF" stroke-width="2" stroke-linecap="round" stroke-linejoin="round"/>
<rect x="125.344" y="216.581" width="169.911" height="11.0014" rx="5.50071" fill="#F2F5F6"/>
<rect x="125.344" y="237.361" width="123.46" height="6.1119" rx="3.05595" fill="#F2F5F6"/>
<rect x="125.344" y="253.253" width="154.02" height="9.77904" rx="4.88952" fill="#F2F5F6"/>
<rect x="125.344" y="274.033" width="144.241" height="6.1119" rx="3.05595" fill="#F2F5F6"/>
<circle cx="116.175" cy="42.3916" r="4.27833" fill="#FF6259"/>
<circle cx="130.845" cy="42.3916" r="4.27833" fill="#FFBE2F"/>
<circle cx="145.513" cy="42.3916" r="4.27833" fill="#29CD41"/>
<path opacity="0.1" d="M145.904 447C158.331 447 168.404 443.866 168.404 440C168.404 436.134 158.331 433 145.904 433C133.478 433 123.404 436.134 123.404 440C123.404 443.866 133.478 447 145.904 447Z" fill="#0061BF"/>
<path d="M49.5084 337.065C49.5084 337.065 49.021 338.823 33.6852 335.489C28.6031 334.384 30.6855 328.748 44.421 328.777C47.9676 328.784 50.8161 328.459 51.6831 329.519C54.6828 333.187 49.5084 337.065 49.5084 337.065Z" fill="#292466"/>
<path d="M150.619 273.797L101.566 271.906C98.8607 277.323 97.3402 286.884 96.3923 294.619C95.5804 301.245 97.0928 327.637 96.7927 344.344C96.778 345.166 64.6667 333.013 50.3983 330.666C46.3629 330.002 46.3363 334.006 47.0112 334.922C47.6879 335.84 48.9986 336.9 51.3636 338.53C64.933 347.877 102.365 377.293 109.973 369.379C116 363.111 121.672 338.978 124.608 323.051C126.202 314.402 128.292 308.111 128.429 308.404C130.281 312.395 138.623 340.64 139.612 356.544C141.128 380.935 141.22 400.536 139.612 432.195C141.805 433.815 143.465 434.216 146.459 433.181C155.402 389.723 162.128 376.411 162.685 348.643C162.833 341.275 161.589 320.869 157.819 306.968C153.264 290.167 152.97 285.859 150.619 273.797Z" fill="#3A67B3"/>
<path d="M156.537 443.564C159.179 438.467 150.788 437.917 146.659 432.147C144.87 433.03 143.154 433.079 139.563 432.147C139.12 434.105 139.059 435.8 139.055 437.945C139.054 438.405 140.844 439.205 143.639 440.975C147.938 443.698 150.734 444.194 156.537 443.564Z" fill="#292466"/>
<path d="M96.8493 271.589C96.689 273.942 99.5073 276.311 101.83 276.955C110.032 279.228 113.292 279.683 124.608 277.816C139.124 275.422 156.077 277.697 153.784 269.144C151.486 260.568 154.907 244.278 155.036 239.807C155.583 220.815 156.448 201.997 156.448 201.997C156.448 201.997 158.861 197.635 158.861 192.291C158.861 180.521 146.612 179.787 143.277 178.899C138.596 177.652 134.375 177.704 134.375 177.704C132.577 179.005 120.012 177.772 111.04 177.371C87.5683 178.93 91.3563 184.524 70.7703 194.464C59.823 199.751 47.3752 186.096 42.8514 174.184C42.1661 172.38 41.7863 170.796 41.3739 168.964C40.9615 167.132 32.2601 168.497 32.1103 170.895C31.9805 172.971 31.9127 175.41 32.0269 178.064C32.5263 189.687 35.0703 209.924 52.4274 217.193C60.5772 220.606 88.7623 212.256 91.2493 211.618C92.6132 211.267 98.466 221.636 96.8493 236.14C95.4113 249.041 97.3531 264.191 96.8493 271.589Z" fill="url(#paint1_linear_15207_34226)"/>
<path d="M40.5557 164.413C39.8279 166.045 38.9248 167.773 38.8734 169.647C38.8459 170.649 34.2945 172.583 33.0991 170.05C31.8828 167.474 31.1039 165.691 30.514 162.587C30.2469 161.183 30.1 159.863 30.0369 158.719C29.9877 157.828 29.9899 157.042 30.0305 156.408C30.2722 152.6 44.5627 146.532 42.3983 158.949C41.8992 161.811 40.8899 163.663 40.5557 164.413Z" fill="#FFCBBD"/>
<path d="M130.832 172.385C130.832 172.385 127.891 177.363 133.051 177.701C133.327 177.719 134.059 177.718 134.375 177.702C134.375 177.702 135.139 185 126.861 184.955C111.688 184.872 111.039 177.369 111.039 177.369C111.039 177.369 113.79 177.382 114.743 176.886C116.408 176.02 118.674 173.935 118.489 168.696C118.268 162.411 129.864 168.015 130.832 172.385Z" fill="#FFCBBD"/>
<path d="M45.5037 335.795C45.5037 335.795 49.7528 331.033 52.3773 331.02C48.7652 329.054 46.6708 329.249 45.9208 329.933C45.1708 330.617 45.1039 334.72 45.5037 335.795Z" fill="#323270"/>
<path d="M153.261 207.741C153.261 207.741 188.273 202.13 191.946 183.813C195.62 165.496 179.125 125.89 179.125 125.89C179.125 125.89 169.279 119.572 168.691 132.639C168.103 145.707 174.569 174.139 167.809 180.457C164.63 183.429 160.412 184.02 156.836 183.813C152.809 183.58 151.124 182.512 147.113 180.39C143.102 178.268 143.562 203.146 153.261 207.741Z" fill="url(#paint2_linear_15207_34226)"/>
<path d="M168.171 123.898C168.171 123.898 165.76 120.878 163.941 116.008C162.122 111.137 165.884 107.95 168.983 107.798C172.083 107.645 177.805 109.823 176.712 115.466C175.62 121.108 176.497 124.665 176.934 126.955C177.371 129.245 170.272 135.2 168.171 123.898Z" fill="#FFCBBD"/>
<path d="M109.971 152.629C110.361 135.237 121.918 132.984 132.078 136.81C142.378 140.689 144.136 149.999 138.671 164.368C137.738 166.82 120.964 180.855 112.136 163.569C111.571 162.461 109.87 157.118 109.971 152.629Z" fill="#292466"/>
<path d="M116.907 156.97C116.907 156.97 118.382 151.325 120.794 148.382C123.909 144.58 124.154 145.343 128.425 145.294C131.141 145.262 140.921 150.44 140.673 158.403C140.653 159.033 140.599 159.683 140.508 160.352C139.373 168.697 137.921 176.418 130.181 175.946C125.242 175.644 117.148 174.663 116.454 163.994C114.342 163.291 113.374 161.98 113.083 160.355C112.538 157.305 114.839 156.252 116.907 156.97Z" fill="#FFCBBD"/>
<path d="M116.09 146.902C116.515 151.098 130.977 153.019 138.02 152.337C145.062 151.654 145.666 147.693 145.24 143.498C144.815 139.303 141.148 136.864 134.105 137.546C127.062 138.229 115.664 142.707 116.09 146.902Z" fill="#292466"/>
<path d="M115.593 154.037C115.593 154.037 125.863 152.527 129.506 148.657C133.15 144.787 119.87 141.839 119.87 141.839C119.87 141.839 113.258 147.922 115.593 154.037Z" fill="#323270"/>
<g filter="url(#filter1_d_15207_34226)">
<path d="M521.879 219.025H441.188C435.527 219.025 430.938 215.624 430.938 211.428V122.72C430.938 118.524 435.527 115.123 441.188 115.123H521.879C527.54 115.123 532.129 118.524 532.129 122.72V211.428C532.129 215.624 527.54 219.025 521.879 219.025Z" fill="white"/>
</g>
<path opacity="0.2" d="M452.593 149.41C446.13 149.41 440.873 144.151 440.873 137.687C440.873 131.223 446.13 125.964 452.593 125.964C459.055 125.964 464.312 131.223 464.312 137.687C464.312 144.151 459.055 149.41 452.593 149.41ZM452.593 126.997C446.7 126.997 441.906 131.792 441.906 137.687C441.906 143.581 446.7 148.377 452.593 148.377C458.485 148.377 463.279 143.581 463.279 137.687C463.279 131.792 458.485 126.997 452.593 126.997Z" fill="#0061BF"/>
<path d="M457.308 133.336L450.857 139.803L447.858 136.803C447.184 136.129 446.092 136.129 445.418 136.803C444.744 137.477 444.744 138.571 445.418 139.245L449.764 143.593C450.368 144.196 451.346 144.197 451.95 143.594L459.764 135.792C460.439 135.118 460.439 134.024 459.765 133.35L459.75 133.335C459.076 132.66 457.982 132.661 457.308 133.336Z" fill="#0061BF"/>
<g opacity="0.2">
<path d="M519.138 135.353H470.643C469.443 135.353 468.471 134.38 468.471 133.18C468.471 131.98 469.443 131.008 470.643 131.008H519.138C520.338 131.008 521.31 131.981 521.31 133.18C521.31 134.38 520.338 135.353 519.138 135.353Z" fill="#0061BF"/>
<path d="M510.482 144.37H470.643C469.443 144.37 468.471 143.398 468.471 142.198C468.471 140.998 469.443 140.025 470.643 140.025H510.482C511.682 140.025 512.654 140.998 512.654 142.198C512.654 143.398 511.682 144.37 510.482 144.37Z" fill="#0061BF"/>
</g>
<path opacity="0.2" d="M452.593 178.408C446.13 178.408 440.873 173.149 440.873 166.685C440.873 160.221 446.13 154.962 452.593 154.962C459.055 154.962 464.312 160.221 464.312 166.685C464.312 173.149 459.055 178.408 452.593 178.408ZM452.593 155.995C446.7 155.995 441.906 160.79 441.906 166.685C441.906 172.58 446.7 177.375 452.593 177.375C458.485 177.375 463.279 172.58 463.279 166.685C463.28 160.79 458.485 155.995 452.593 155.995Z" fill="#FF7300"/>
<path d="M457.308 162.333L450.857 168.8L447.858 165.8C447.184 165.126 446.092 165.126 445.418 165.8C444.744 166.474 444.744 167.568 445.418 168.242L449.764 172.59C450.368 173.193 451.346 173.194 451.95 172.591L459.764 164.789C460.439 164.115 460.439 163.021 459.765 162.346L459.75 162.332C459.076 161.657 457.982 161.658 457.308 162.333Z" fill="#FF7300"/>
<g opacity="0.2">
<path d="M519.138 164.349H470.643C469.443 164.349 468.471 163.376 468.471 162.176C468.471 160.976 469.443 160.004 470.643 160.004H519.138C520.338 160.004 521.31 160.977 521.31 162.176C521.31 163.376 520.338 164.349 519.138 164.349Z" fill="#0061BF"/>
<path d="M510.482 173.368H470.643C469.443 173.368 468.471 172.396 468.471 171.196C468.471 169.996 469.443 169.023 470.643 169.023H510.482C511.682 169.023 512.654 169.996 512.654 171.196C512.654 172.396 511.682 173.368 510.482 173.368Z" fill="#0061BF"/>
</g>
<path opacity="0.2" d="M452.593 207.411C446.13 207.411 440.873 202.152 440.873 195.688C440.873 189.224 446.13 183.965 452.593 183.965C459.055 183.965 464.312 189.224 464.312 195.688C464.312 202.152 459.055 207.411 452.593 207.411ZM452.593 184.998C446.7 184.998 441.906 189.793 441.906 195.688C441.906 201.582 446.7 206.378 452.593 206.378C458.485 206.378 463.279 201.582 463.279 195.688C463.28 189.793 458.485 184.998 452.593 184.998Z" fill="#0061BF"/>
<path d="M457.308 191.335L450.857 197.802L447.858 194.802C447.184 194.128 446.092 194.128 445.418 194.802C444.744 195.476 444.744 196.57 445.418 197.244L449.764 201.592C450.368 202.195 451.346 202.196 451.95 201.593L459.764 193.791C460.439 193.117 460.439 192.023 459.765 191.349L459.75 191.334C459.076 190.659 457.982 190.66 457.308 191.335Z" fill="#0061BF"/>
<g opacity="0.2">
<path d="M519.138 193.35H470.643C469.443 193.35 468.471 192.377 468.471 191.177C468.471 189.977 469.443 189.005 470.643 189.005H519.138C520.338 189.005 521.31 189.978 521.31 191.177C521.31 192.377 520.338 193.35 519.138 193.35Z" fill="#0061BF"/>
<path d="M510.482 202.37H470.643C469.443 202.37 468.471 201.398 468.471 200.198C468.471 198.998 469.443 198.025 470.643 198.025H510.482C511.682 198.025 512.654 198.998 512.654 200.198C512.654 201.398 511.682 202.37 510.482 202.37Z" fill="#0061BF"/>
</g>
<path d="M474.471 291.146H314.063C309.751 291.146 306.256 288.189 306.256 284.54V236.633C306.256 232.985 309.751 230.027 314.063 230.027H474.471C478.783 230.027 482.279 232.985 482.279 236.633V284.54C482.279 288.189 478.783 291.146 474.471 291.146Z" fill="white" stroke="#F2F5F6" stroke-miterlimit="10"/>
<path d="M459.505 256.92H374.259C371.807 256.92 369.82 255.551 369.82 253.864C369.82 252.176 371.807 250.808 374.259 250.808H459.505C461.956 250.808 463.944 252.176 463.944 253.864C463.944 255.551 461.956 256.92 459.505 256.92Z" fill="#F2F5F6"/>
<path d="M459.505 269.144H374.259C371.807 269.144 369.82 267.776 369.82 266.088C369.82 264.4 371.807 263.032 374.259 263.032H459.505C461.956 263.032 463.944 264.4 463.944 266.088C463.944 267.776 461.956 269.144 459.505 269.144Z" fill="#F2F5F6"/>
<path d="M459.505 244.696H374.259C371.807 244.696 369.82 243.328 369.82 241.64C369.82 239.952 371.807 238.584 374.259 238.584H459.505C461.956 238.584 463.944 239.952 463.944 241.64C463.944 243.328 461.956 244.696 459.505 244.696Z" fill="#F2F5F6"/>
<path d="M405.773 281.368H374.206C371.784 281.368 369.82 280 369.82 278.312C369.82 276.624 371.784 275.256 374.206 275.256H405.773C408.195 275.256 410.159 276.624 410.159 278.312C410.159 280 408.195 281.368 405.773 281.368Z" fill="#F2F5F6"/>
<path d="M336.967 278.126C346.667 278.126 354.53 270.263 354.53 260.563C354.53 250.863 346.667 243 336.967 243C327.268 243 319.404 250.863 319.404 260.563C319.404 270.263 327.268 278.126 336.967 278.126Z" fill="#FFF1EA"/>
<path opacity="0.3" d="M327.238 259.796L334.514 267.779L346.696 253.635" stroke="#FF7300" stroke-width="3.5" stroke-miterlimit="10" stroke-linecap="round" stroke-linejoin="round"/>
<rect x="112.396" y="61.8379" width="369.381" height="30.7819" rx="15.3909" stroke="#EBEFF2"/>
<path d="M467.196 84.5267L463.153 80.3574C463.97 79.2305 464.417 77.8526 464.417 76.4416C464.417 72.8311 461.57 69.8945 458.069 69.8945C454.567 69.8945 451.719 72.8319 451.719 76.4416C451.719 80.0513 454.567 82.9886 458.069 82.9886C459.084 82.9886 460.091 82.7321 460.996 82.2444L465.202 86.5825C465.469 86.8571 465.823 87.0078 466.199 87.0078C466.576 87.0078 466.929 86.8563 467.196 86.5817C467.463 86.3071 467.61 85.9417 467.61 85.5534C467.609 85.1659 467.462 84.8013 467.196 84.5267ZM462.626 76.4416C462.626 79.0332 460.581 81.1411 458.069 81.1411C455.555 81.1411 453.51 79.0332 453.51 76.4416C453.51 73.8499 455.555 71.742 458.069 71.742C460.581 71.742 462.626 73.8499 462.626 76.4416Z" fill="#D8DEE6"/>
<path opacity="0.1" d="M502.775 403.689C526.246 403.689 545.274 400.878 545.274 397.41C545.274 393.942 526.246 391.131 502.775 391.131C479.303 391.131 460.275 393.942 460.275 397.41C460.275 400.878 479.303 403.689 502.775 403.689Z" fill="#0061BF"/>
<path d="M507.895 347.231C507.289 349.803 506.646 352.333 506.521 354.973C506.594 355.104 506.578 355.584 506.521 355.453C506.521 355.881 505.857 355.803 505.857 355.38C505.857 355.109 505.857 354.833 505.857 354.572C504.342 352.688 502.141 351.499 500.364 349.876C498.934 348.592 497.892 346.935 497.354 345.092C495.88 340.015 497.26 334.657 495.488 329.57C493.957 325.209 491.213 321.41 488.893 317.456C486.442 313.282 484.634 308.878 484.451 303.979C484.31 300.228 484.754 295.23 487.618 292.423C490.649 289.439 494.412 291.672 496.737 294.332C503.469 302.049 506.584 311.8 507.843 321.77C508.538 327.29 509.259 332.842 509.092 338.408C508.987 341.382 508.586 344.337 507.895 347.231Z" fill="#B7DBFF"/>
<path opacity="0.4" d="M506.535 357.003C506.903 351.789 506.842 346.554 506.352 341.351C506.353 341.333 506.353 341.316 506.352 341.298C506.435 337.072 506.77 332.862 506.603 328.631C506.398 324.062 505.775 319.521 504.742 315.066C504.742 315.014 504.648 315.029 504.658 315.066C505.483 319.45 505.976 323.891 506.132 328.349C506.216 330.739 506.197 333.126 506.075 335.512C506.033 336.29 505.96 337.078 505.907 337.855C504.149 325.991 499.854 314.644 493.312 304.584C493.229 304.448 492.983 304.584 493.067 304.735C497.739 312.381 501.197 320.702 503.321 329.403C500.08 323.413 495.189 318.488 491.562 312.734C491.562 312.702 491.488 312.734 491.504 312.765C494.765 319.177 500.153 324.243 503.587 330.54C504.178 333.112 504.669 335.711 505.029 338.325C505.515 341.908 505.777 345.519 505.813 349.135C503.838 345.457 501.789 341.935 500.18 338.043C500.175 338.033 500.169 338.023 500.161 338.015C500.153 338.008 500.143 338.002 500.133 337.997C500.122 337.993 500.111 337.991 500.1 337.991C500.089 337.992 500.078 337.994 500.067 337.998C500.057 338.003 500.048 338.009 500.04 338.017C500.032 338.025 500.026 338.035 500.022 338.045C500.018 338.056 500.016 338.067 500.016 338.078C500.016 338.089 500.018 338.1 500.023 338.111C501.392 342.154 503.237 346.511 505.824 349.959C505.824 352.519 505.752 355.079 505.61 357.639C505.207 364.463 504.042 371.204 503.519 377.987C503.514 378.028 503.526 378.07 503.552 378.103C503.578 378.135 503.616 378.157 503.658 378.161C503.699 378.166 503.741 378.154 503.774 378.129C503.807 378.103 503.828 378.065 503.833 378.023C505.21 371.086 506.113 364.063 506.535 357.003Z" fill="#3588D8"/>
<path opacity="0.4" d="M499.291 304.364C499.291 304.317 499.197 304.364 499.213 304.401C500.462 307.85 501.167 311.34 502.071 314.872C502.08 314.903 502.1 314.929 502.127 314.946C502.154 314.963 502.186 314.97 502.218 314.965C502.25 314.96 502.278 314.943 502.298 314.918C502.319 314.894 502.329 314.862 502.327 314.83C501.962 311.246 500.681 307.672 499.291 304.364Z" fill="#3588D8"/>
<path d="M531.001 318.822C530.168 320.843 529.209 322.81 528.132 324.712C525.879 328.787 523.538 332.538 523.11 337.27C522.921 339.389 522.853 341.517 522.205 343.531C521.619 345.288 520.773 346.948 519.697 348.456C517.261 351.999 514.215 355.056 511.957 358.735C509.606 362.569 507.869 366.746 506.809 371.115C506.757 371.355 506.381 371.287 506.433 371.053C506.435 371.034 506.435 371.014 506.433 370.995C506.429 370.988 506.428 370.98 506.428 370.972C506.428 370.964 506.429 370.956 506.433 370.948C506.072 360.769 506.887 350.512 509.997 340.761C511.369 336.477 513.017 332.285 514.931 328.213C516.598 324.681 518.673 321.279 521.599 318.639C523.496 316.933 527.609 313.699 530.311 315.41C531.623 316.245 531.513 317.544 531.001 318.822Z" fill="#B7DBFF"/>
<path opacity="0.4" d="M520.759 341.887C518.96 344.84 516.981 347.68 514.833 350.391C513.845 351.675 512.847 352.953 511.859 354.242C511.394 354.847 510.871 355.452 510.443 356.109C510.714 355.04 510.965 353.965 511.248 352.896C512.565 347.756 513.829 342.565 515.789 337.624C517.702 332.788 520.252 328.233 522.865 323.767C522.938 323.652 522.745 323.564 522.677 323.679C520.524 327.216 518.334 330.748 516.526 334.478C515.524 336.558 514.651 338.698 513.913 340.885C514.745 336.245 515.906 331.67 517.388 327.195C517.388 327.153 517.346 327.127 517.331 327.169C515.383 331.695 514.164 336.501 513.72 341.407C513.277 342.729 512.868 344.063 512.491 345.409C510.887 351.101 509.476 356.856 508.169 362.626C508.146 358.83 508.475 355.04 509.152 351.304C509.152 351.221 509.037 351.2 509.016 351.304C508.022 355.199 507.69 359.232 508.033 363.236C507.539 365.435 507.056 367.631 506.586 369.826C505.588 374.521 504.354 379.295 503.769 384.059C503.767 384.071 503.767 384.084 503.77 384.096C503.773 384.108 503.778 384.119 503.785 384.13C503.793 384.14 503.802 384.148 503.812 384.155C503.823 384.162 503.835 384.166 503.847 384.168C503.86 384.17 503.872 384.17 503.884 384.167C503.897 384.164 503.908 384.159 503.918 384.152C503.929 384.145 503.937 384.135 503.944 384.125C503.95 384.114 503.955 384.102 503.957 384.09C504.657 381.523 505.081 378.873 505.65 376.264C506.22 373.655 506.816 371.047 507.422 368.438C508.31 364.65 509.23 360.871 510.181 357.101C510.814 355.718 512.031 354.492 512.946 353.334C513.949 352.061 514.953 350.788 515.93 349.494C517.764 347.1 519.405 344.565 520.838 341.913C520.879 341.871 520.791 341.835 520.759 341.887Z" fill="#3588D8"/>
<path opacity="0.4" d="M521.169 337.538C518.943 340.398 517.017 343.479 515.42 346.731C515.42 346.773 515.462 346.819 515.488 346.778C517.437 343.726 519.355 340.647 521.305 337.595C521.31 337.543 521.226 337.491 521.169 337.538Z" fill="#3588D8"/>
<path d="M477.793 328.464C479.115 330.739 480.62 333.462 480.056 336.191C479.695 337.918 478.43 339.321 478.2 341.079C477.678 344.966 481.566 347.538 484.378 349.375C491.375 353.961 500.976 358.046 502.251 367.411C502.298 367.745 502.873 367.662 502.831 367.333C502.835 367.314 502.835 367.295 502.831 367.276C502.831 367.276 502.868 367.244 502.868 367.218C503.784 362.491 503.739 357.628 502.737 352.918C501.692 348.092 499.601 343.756 497.093 339.514C492.881 332.34 488.417 324.989 482.047 319.495C480.286 317.977 476.674 315.238 475.253 318.671C473.889 322.01 476.173 325.694 477.793 328.464Z" fill="#B7DBFF"/>
<path opacity="0.4" d="M484.2 343.678C488.841 348.691 496.22 351.504 500.213 357.123C497.845 348.514 493.941 340.766 487.905 334.041C487.879 334.006 487.866 333.963 487.869 333.919C487.872 333.875 487.891 333.834 487.922 333.803C487.953 333.771 487.995 333.753 488.038 333.749C488.082 333.746 488.126 333.759 488.161 333.786C492.435 337.931 495.853 342.873 498.222 348.331C497.119 344.52 495.668 340.818 493.889 337.271C493.879 337.244 493.879 337.215 493.889 337.189C493.898 337.162 493.916 337.14 493.941 337.126C493.965 337.111 493.994 337.106 494.021 337.111C494.049 337.115 494.075 337.129 494.093 337.151C496.299 341.029 497.875 345.233 498.76 349.604C504.028 362.324 504.509 377.256 503.411 390.654C503.411 390.847 503.103 390.853 503.108 390.654C503.411 380.089 503.239 369.336 500.704 359.017C500.652 358.797 500.589 358.589 500.537 358.375C496.189 352.323 488.841 349.505 484.116 343.766C484.064 343.704 484.148 343.62 484.2 343.678Z" fill="#3588D8"/>
<path opacity="0.4" d="M483.122 339.369C485.558 341.602 487.957 343.882 490.397 346.115C490.397 346.115 490.397 346.177 490.361 346.161C487.601 344.3 485.116 342.062 482.976 339.515C482.961 339.495 482.954 339.47 482.955 339.445C482.957 339.42 482.968 339.396 482.986 339.378C483.003 339.36 483.027 339.35 483.052 339.348C483.077 339.346 483.102 339.353 483.122 339.369Z" fill="#3588D8"/>
<path opacity="0.4" d="M482.74 329.7C484.905 333.228 487.352 336.577 490.056 339.712C490.06 339.716 490.063 339.721 490.065 339.726C490.067 339.732 490.068 339.737 490.067 339.743C490.067 339.748 490.066 339.754 490.064 339.759C490.061 339.764 490.058 339.768 490.054 339.772C490.05 339.776 490.045 339.779 490.04 339.781C490.034 339.783 490.029 339.783 490.023 339.783C490.018 339.783 490.012 339.782 490.007 339.779C490.002 339.777 489.997 339.774 489.994 339.77C486.96 336.901 484.46 333.518 482.609 329.778C482.604 329.762 482.604 329.744 482.611 329.727C482.617 329.711 482.628 329.697 482.644 329.688C482.659 329.679 482.676 329.675 482.694 329.677C482.711 329.68 482.727 329.688 482.74 329.7Z" fill="#3588D8"/>
<path d="M493.268 394.111C493.097 395.315 494.032 396.391 495.248 396.391H513.677C514.88 396.391 515.81 395.338 515.662 394.145L513.055 373.102C512.931 372.1 512.08 371.348 511.071 371.348H498.224C497.228 371.348 496.383 372.081 496.244 373.068L493.268 394.111Z" fill="#4991FF"/>
<path d="M74.7883 109.614C77.7815 106.305 79.6057 101.921 79.6057 97.112C79.6057 86.8069 71.2368 78.4521 60.9142 78.4521C50.5915 78.4521 42.2227 86.8069 42.2227 97.112C42.2227 107.417 50.5915 115.772 60.9142 115.772C63.3051 115.772 65.5878 115.318 67.6896 114.502L77.7231 118.591L74.7883 109.614Z" fill="white"/>
<path d="M52.5687 99.5535C53.6713 99.5535 54.5652 98.6612 54.5652 97.5605C54.5652 96.4597 53.6713 95.5674 52.5687 95.5674C51.4661 95.5674 50.5723 96.4597 50.5723 97.5605C50.5723 98.6612 51.4661 99.5535 52.5687 99.5535Z" fill="#FF7300"/>
<path d="M60.9144 99.5535C62.017 99.5535 62.9109 98.6612 62.9109 97.5605C62.9109 96.4597 62.017 95.5674 60.9144 95.5674C59.8118 95.5674 58.918 96.4597 58.918 97.5605C58.918 98.6612 59.8118 99.5535 60.9144 99.5535Z" fill="#FF7300"/>
<path d="M69.2601 99.5535C70.3627 99.5535 71.2566 98.6612 71.2566 97.5605C71.2566 96.4597 70.3627 95.5674 69.2601 95.5674C68.1575 95.5674 67.2637 96.4597 67.2637 97.5605C67.2637 98.6612 68.1575 99.5535 69.2601 99.5535Z" fill="#FF7300"/>
<path d="M124.805 82.0059V81.0939C125.349 80.6619 125.869 80.2259 126.365 79.7859C126.861 79.3459 127.301 78.9139 127.685 78.4899C128.077 78.0579 128.385 77.6379 128.609 77.2299C128.833 76.8139 128.945 76.4139 128.945 76.0299C128.945 75.7739 128.901 75.5339 128.813 75.3099C128.725 75.0779 128.581 74.8939 128.381 74.7579C128.181 74.6139 127.913 74.5419 127.577 74.5419C127.073 74.5419 126.693 74.7019 126.437 75.0219C126.189 75.3419 126.069 75.7259 126.077 76.1739H124.841C124.849 75.5819 124.973 75.0859 125.213 74.6859C125.461 74.2859 125.789 73.9819 126.197 73.7739C126.613 73.5659 127.081 73.4619 127.601 73.4619C128.393 73.4619 129.025 73.6859 129.497 74.1339C129.977 74.5739 130.217 75.1899 130.217 75.9819C130.217 76.4539 130.101 76.9219 129.869 77.3859C129.645 77.8499 129.349 78.2979 128.981 78.7299C128.621 79.1539 128.233 79.5539 127.817 79.9299C127.401 80.3059 127.005 80.6459 126.629 80.9499H130.469V82.0059H124.805ZM135.107 82.1499C134.347 82.1499 133.691 81.9699 133.139 81.6099C132.595 81.2419 132.175 80.7339 131.879 80.0859C131.591 79.4299 131.447 78.6699 131.447 77.8059C131.447 76.9419 131.591 76.1859 131.879 75.5379C132.175 74.8819 132.595 74.3739 133.139 74.0139C133.691 73.6459 134.347 73.4619 135.107 73.4619C135.867 73.4619 136.519 73.6459 137.063 74.0139C137.607 74.3739 138.023 74.8819 138.311 75.5379C138.607 76.1859 138.755 76.9419 138.755 77.8059C138.755 78.6699 138.607 79.4299 138.311 80.0859C138.023 80.7339 137.607 81.2419 137.063 81.6099C136.519 81.9699 135.867 82.1499 135.107 82.1499ZM135.107 81.0099C135.563 81.0099 135.967 80.8819 136.319 80.6259C136.679 80.3699 136.959 80.0019 137.159 79.5219C137.359 79.0419 137.459 78.4699 137.459 77.8059C137.459 77.1419 137.359 76.5699 137.159 76.0899C136.959 75.6099 136.679 75.2419 136.319 74.9859C135.967 74.7299 135.563 74.6019 135.107 74.6019C134.643 74.6019 134.235 74.7299 133.883 74.9859C133.531 75.2419 133.255 75.6099 133.055 76.0899C132.855 76.5699 132.755 77.1419 132.755 77.8059C132.755 78.4699 132.855 79.0419 133.055 79.5219C133.255 80.0019 133.531 80.3699 133.883 80.6259C134.235 80.8819 134.643 81.0099 135.107 81.0099ZM143.532 82.1499C142.772 82.1499 142.116 81.9699 141.564 81.6099C141.02 81.2419 140.6 80.7339 140.304 80.0859C140.016 79.4299 139.872 78.6699 139.872 77.8059C139.872 76.9419 140.016 76.1859 140.304 75.5379C140.6 74.8819 141.02 74.3739 141.564 74.0139C142.116 73.6459 142.772 73.4619 143.532 73.4619C144.292 73.4619 144.944 73.6459 145.488 74.0139C146.032 74.3739 146.448 74.8819 146.736 75.5379C147.032 76.1859 147.18 76.9419 147.18 77.8059C147.18 78.6699 147.032 79.4299 146.736 80.0859C146.448 80.7339 146.032 81.2419 145.488 81.6099C144.944 81.9699 144.292 82.1499 143.532 82.1499ZM143.532 81.0099C143.988 81.0099 144.392 80.8819 144.744 80.6259C145.104 80.3699 145.384 80.0019 145.584 79.5219C145.784 79.0419 145.884 78.4699 145.884 77.8059C145.884 77.1419 145.784 76.5699 145.584 76.0899C145.384 75.6099 145.104 75.2419 144.744 74.9859C144.392 74.7299 143.988 74.6019 143.532 74.6019C143.068 74.6019 142.66 74.7299 142.308 74.9859C141.956 75.2419 141.68 75.6099 141.48 76.0899C141.28 76.5699 141.18 77.1419 141.18 77.8059C141.18 78.4699 141.28 79.0419 141.48 79.5219C141.68 80.0019 141.956 80.3699 142.308 80.6259C142.66 80.8819 143.068 81.0099 143.532 81.0099ZM148.466 79.0539V77.9859H150.734V75.8619H151.838V77.9859H154.106V79.0539H151.838V81.1899H150.734V79.0539H148.466ZM158.16 82.0059L161.256 73.6059H162.648L165.72 82.0059H164.376L163.656 79.9539H160.224L159.504 82.0059H158.16ZM160.584 78.9459H163.296L161.94 75.1179L160.584 78.9459ZM169.279 80.1819C168.967 80.1819 168.679 80.1459 168.415 80.0739L167.899 80.5779C167.987 80.6339 168.095 80.6819 168.223 80.7219C168.351 80.7619 168.531 80.7979 168.763 80.8299C168.995 80.8619 169.311 80.8939 169.711 80.9259C170.503 80.9979 171.075 81.1899 171.427 81.5019C171.779 81.8059 171.955 82.2139 171.955 82.7259C171.955 83.0779 171.859 83.4099 171.667 83.7219C171.483 84.0419 171.191 84.2979 170.791 84.4899C170.399 84.6899 169.895 84.7899 169.279 84.7899C168.447 84.7899 167.771 84.6299 167.251 84.3099C166.739 83.9979 166.483 83.5219 166.483 82.8819C166.483 82.6339 166.547 82.3859 166.675 82.1379C166.811 81.8979 167.023 81.6699 167.311 81.4539C167.143 81.3819 166.995 81.3059 166.867 81.2259C166.747 81.1379 166.639 81.0499 166.543 80.9619V80.6739L167.575 79.6179C167.111 79.2179 166.879 78.6939 166.879 78.0459C166.879 77.6539 166.971 77.2979 167.155 76.9779C167.347 76.6499 167.623 76.3899 167.983 76.1979C168.343 76.0059 168.775 75.9099 169.279 75.9099C169.615 75.9099 169.927 75.9579 170.215 76.0539H172.435V76.8939L171.379 76.9539C171.571 77.2819 171.667 77.6459 171.667 78.0459C171.667 78.4459 171.571 78.8059 171.379 79.1259C171.195 79.4459 170.923 79.7019 170.563 79.8939C170.211 80.0859 169.783 80.1819 169.279 80.1819ZM169.279 79.1859C169.647 79.1859 169.943 79.0899 170.167 78.8979C170.399 78.6979 170.515 78.4179 170.515 78.0579C170.515 77.6899 170.399 77.4099 170.167 77.2179C169.943 77.0259 169.647 76.9299 169.279 76.9299C168.903 76.9299 168.599 77.0259 168.367 77.2179C168.143 77.4099 168.031 77.6899 168.031 78.0579C168.031 78.4179 168.143 78.6979 168.367 78.8979C168.599 79.0899 168.903 79.1859 169.279 79.1859ZM167.683 82.7619C167.683 83.1059 167.835 83.3619 168.139 83.5299C168.443 83.7059 168.823 83.7939 169.279 83.7939C169.719 83.7939 170.075 83.6979 170.347 83.5059C170.619 83.3219 170.755 83.0739 170.755 82.7619C170.755 82.5299 170.663 82.3299 170.479 82.1619C170.295 82.0019 169.947 81.9019 169.435 81.8619C169.051 81.8379 168.711 81.8019 168.415 81.7539C168.135 81.9059 167.943 82.0699 167.839 82.2459C167.735 82.4219 167.683 82.5939 167.683 82.7619ZM176.119 82.1499C175.535 82.1499 175.015 82.0219 174.559 81.7659C174.111 81.5019 173.759 81.1379 173.503 80.6739C173.247 80.2099 173.119 79.6699 173.119 79.0539C173.119 78.4299 173.243 77.8819 173.491 77.4099C173.747 76.9379 174.099 76.5699 174.547 76.3059C175.003 76.0419 175.531 75.9099 176.131 75.9099C176.715 75.9099 177.223 76.0419 177.655 76.3059C178.087 76.5619 178.423 76.9059 178.663 77.3379C178.903 77.7699 179.023 78.2459 179.023 78.7659C179.023 78.8459 179.019 78.9339 179.011 79.0299C179.011 79.1179 179.007 79.2179 178.999 79.3299H174.367C174.407 79.9059 174.595 80.3459 174.931 80.6499C175.275 80.9459 175.671 81.0939 176.119 81.0939C176.479 81.0939 176.779 81.0139 177.019 80.8539C177.267 80.6859 177.451 80.4619 177.571 80.1819H178.843C178.683 80.7419 178.363 81.2099 177.883 81.5859C177.411 81.9619 176.823 82.1499 176.119 82.1499ZM176.119 76.9539C175.695 76.9539 175.319 77.0819 174.991 77.3379C174.663 77.5859 174.463 77.9619 174.391 78.4659H177.751C177.727 78.0019 177.563 77.6339 177.259 77.3619C176.955 77.0899 176.575 76.9539 176.119 76.9539ZM180.343 82.0059V76.0539H181.471L181.567 77.0979C181.751 76.7299 182.019 76.4419 182.371 76.2339C182.731 76.0179 183.143 75.9099 183.607 75.9099C184.327 75.9099 184.891 76.1339 185.299 76.5819C185.715 77.0299 185.923 77.6979 185.923 78.5859V82.0059H184.663V78.7179C184.663 77.5659 184.191 76.9899 183.247 76.9899C182.775 76.9899 182.383 77.1579 182.071 77.4939C181.767 77.8299 181.615 78.3099 181.615 78.9339V82.0059H180.343ZM190.241 82.1499C189.657 82.1499 189.133 82.0179 188.669 81.7539C188.213 81.4899 187.853 81.1259 187.589 80.6619C187.333 80.1899 187.205 79.6459 187.205 79.0299C187.205 78.4139 187.333 77.8739 187.589 77.4099C187.853 76.9379 188.213 76.5699 188.669 76.3059C189.133 76.0419 189.657 75.9099 190.241 75.9099C190.977 75.9099 191.593 76.1019 192.089 76.4859C192.593 76.8699 192.917 77.3899 193.061 78.0459H191.729C191.649 77.7179 191.473 77.4619 191.201 77.2779C190.929 77.0939 190.609 77.0019 190.241 77.0019C189.929 77.0019 189.641 77.0819 189.377 77.2419C189.113 77.3939 188.901 77.6219 188.741 77.9259C188.581 78.2219 188.501 78.5899 188.501 79.0299C188.501 79.4699 188.581 79.8419 188.741 80.1459C188.901 80.4419 189.113 80.6699 189.377 80.8299C189.641 80.9899 189.929 81.0699 190.241 81.0699C190.609 81.0699 190.929 80.9779 191.201 80.7939C191.473 80.6099 191.649 80.3499 191.729 80.0139H193.061C192.925 80.6539 192.605 81.1699 192.101 81.5619C191.597 81.9539 190.977 82.1499 190.241 82.1499ZM195.161 74.9259C194.921 74.9259 194.721 74.8539 194.561 74.7099C194.409 74.5579 194.333 74.3699 194.333 74.1459C194.333 73.9219 194.409 73.7379 194.561 73.5939C194.721 73.4419 194.921 73.3659 195.161 73.3659C195.401 73.3659 195.597 73.4419 195.749 73.5939C195.909 73.7379 195.989 73.9219 195.989 74.1459C195.989 74.3699 195.909 74.5579 195.749 74.7099C195.597 74.8539 195.401 74.9259 195.161 74.9259ZM194.525 82.0059V76.0539H195.797V82.0059H194.525ZM200.26 82.1499C199.676 82.1499 199.156 82.0219 198.7 81.7659C198.252 81.5019 197.9 81.1379 197.644 80.6739C197.388 80.2099 197.26 79.6699 197.26 79.0539C197.26 78.4299 197.384 77.8819 197.632 77.4099C197.888 76.9379 198.24 76.5699 198.688 76.3059C199.144 76.0419 199.672 75.9099 200.272 75.9099C200.856 75.9099 201.364 76.0419 201.796 76.3059C202.228 76.5619 202.564 76.9059 202.804 77.3379C203.044 77.7699 203.164 78.2459 203.164 78.7659C203.164 78.8459 203.16 78.9339 203.152 79.0299C203.152 79.1179 203.148 79.2179 203.14 79.3299H198.508C198.548 79.9059 198.736 80.3459 199.072 80.6499C199.416 80.9459 199.812 81.0939 200.26 81.0939C200.62 81.0939 200.92 81.0139 201.16 80.8539C201.408 80.6859 201.592 80.4619 201.712 80.1819H202.984C202.824 80.7419 202.504 81.2099 202.024 81.5859C201.552 81.9619 200.964 82.1499 200.26 82.1499ZM200.26 76.9539C199.836 76.9539 199.46 77.0819 199.132 77.3379C198.804 77.5859 198.604 77.9619 198.532 78.4659H201.892C201.868 78.0019 201.704 77.6339 201.4 77.3619C201.096 77.0899 200.716 76.9539 200.26 76.9539ZM206.86 82.1499C206.108 82.1499 205.488 81.9659 205 81.5979C204.512 81.2299 204.232 80.7419 204.16 80.1339H205.444C205.508 80.4059 205.66 80.6419 205.9 80.8419C206.14 81.0339 206.456 81.1299 206.848 81.1299C207.232 81.1299 207.512 81.0499 207.688 80.8899C207.864 80.7299 207.952 80.5459 207.952 80.3379C207.952 80.0339 207.828 79.8299 207.58 79.7259C207.34 79.6139 207.004 79.5139 206.572 79.4259C206.236 79.3539 205.9 79.2579 205.564 79.1379C205.236 79.0179 204.96 78.8499 204.736 78.6339C204.52 78.4099 204.412 78.1099 204.412 77.7339C204.412 77.2139 204.612 76.7819 205.012 76.4379C205.412 76.0859 205.972 75.9099 206.692 75.9099C207.356 75.9099 207.892 76.0699 208.3 76.3899C208.716 76.7099 208.96 77.1619 209.032 77.7459H207.808C207.768 77.4899 207.648 77.2899 207.448 77.1459C207.256 77.0019 206.996 76.9299 206.668 76.9299C206.348 76.9299 206.1 76.9979 205.924 77.1339C205.748 77.2619 205.66 77.4299 205.66 77.6379C205.66 77.8459 205.78 78.0099 206.02 78.1299C206.268 78.2499 206.592 78.3579 206.992 78.4539C207.392 78.5419 207.76 78.6459 208.096 78.7659C208.44 78.8779 208.716 79.0459 208.924 79.2699C209.132 79.4939 209.236 79.8219 209.236 80.2539C209.244 80.7979 209.032 81.2499 208.6 81.6099C208.176 81.9699 207.596 82.1499 206.86 82.1499Z" fill="#AAB4BE"/>
<path d="M219.262 379.499L211.331 381.473C210.661 381.64 210.504 382.657 211.062 383.213L216.662 388.791C217.124 389.251 217.792 389.085 217.984 388.462L220.315 380.909C220.548 380.157 219.932 379.332 219.262 379.499Z" stroke="#FF7300" stroke-width="2" stroke-miterlimit="10"/>
<path opacity="0.2" d="M318.235 367.386C319.988 367.386 321.409 365.965 321.409 364.212C321.409 362.459 319.988 361.038 318.235 361.038C316.482 361.038 315.061 362.459 315.061 364.212C315.061 365.965 316.482 367.386 318.235 367.386Z" stroke="#0061BF" stroke-width="2" stroke-miterlimit="10"/>
<path opacity="0.2" d="M343.191 333.321L350.201 329.12C350.793 328.765 350.647 327.746 349.951 327.377L342.969 323.673C342.393 323.368 341.803 323.721 341.8 324.373L341.771 332.277C341.77 333.066 342.599 333.676 343.191 333.321Z" stroke="#0061BF" stroke-width="2" stroke-miterlimit="10"/>
<path d="M518.824 25.759L525.834 21.558C526.426 21.203 526.28 20.184 525.584 19.815L518.601 16.111C518.025 15.806 517.435 16.159 517.432 16.811L517.404 24.715C517.403 25.504 518.232 26.114 518.824 25.759Z" stroke="#FF796D" stroke-width="2" stroke-miterlimit="10"/>
<path d="M56.5965 53.3464C59.4005 53.3464 61.6735 51.0733 61.6735 48.2694C61.6735 45.4654 59.4005 43.1924 56.5965 43.1924C53.7926 43.1924 51.5195 45.4654 51.5195 48.2694C51.5195 51.0733 53.7926 53.3464 56.5965 53.3464Z" fill="#0061BF"/>
</g>
<defs>
<filter id="filter0_d_15207_34226" x="30.7252" y="-16.745" width="532.725" height="403.154" filterUnits="userSpaceOnUse" color-interpolation-filters="sRGB">
<feFlood flood-opacity="0" result="BackgroundImageFix"/>
<feColorMatrix in="SourceAlpha" type="matrix" values="0 0 0 0 0 0 0 0 0 0 0 0 0 0 0 0 0 0 127 0" result="hardAlpha"/>
<feOffset dy="22.647"/>
<feGaussianBlur stdDeviation="30.196"/>
<feComposite in2="hardAlpha" operator="out"/>
<feColorMatrix type="matrix" values="0 0 0 0 0.117647 0 0 0 0 0.129412 0 0 0 0 0.176471 0 0 0 0.05 0"/>
<feBlend mode="normal" in2="BackgroundImageFix" result="effect1_dropShadow_15207_34226"/>
<feBlend mode="normal" in="SourceGraphic" in2="effect1_dropShadow_15207_34226" result="shape"/>
</filter>
<filter id="filter1_d_15207_34226" x="399.498" y="95.4731" width="164.071" height="166.782" filterUnits="userSpaceOnUse" color-interpolation-filters="sRGB">
<feFlood flood-opacity="0" result="BackgroundImageFix"/>
<feColorMatrix in="SourceAlpha" type="matrix" values="0 0 0 0 0 0 0 0 0 0 0 0 0 0 0 0 0 0 127 0" result="hardAlpha"/>
<feOffset dy="11.7899"/>
<feGaussianBlur stdDeviation="15.7199"/>
<feComposite in2="hardAlpha" operator="out"/>
<feColorMatrix type="matrix" values="0 0 0 0 0.117647 0 0 0 0 0.129412 0 0 0 0 0.176471 0 0 0 0.08 0"/>
<feBlend mode="normal" in2="BackgroundImageFix" result="effect1_dropShadow_15207_34226"/>
<feBlend mode="normal" in="SourceGraphic" in2="effect1_dropShadow_15207_34226" result="shape"/>
</filter>
<linearGradient id="paint0_linear_15207_34226" x1="406.736" y1="1.20303e-05" x2="108.169" y2="363.366" gradientUnits="userSpaceOnUse">
<stop stop-color="#D5EAFF"/>
<stop offset="1" stop-color="#D9ECFF" stop-opacity="0"/>
</linearGradient>
<linearGradient id="paint1_linear_15207_34226" x1="158.817" y1="224.181" x2="31.8544" y2="224.181" gradientUnits="userSpaceOnUse">
<stop stop-color="#FAB882"/>
<stop offset="1" stop-color="#FF7300"/>
</linearGradient>
<linearGradient id="paint2_linear_15207_34226" x1="192.464" y1="166.529" x2="144.695" y2="166.529" gradientUnits="userSpaceOnUse">
<stop stop-color="#FAB882"/>
<stop offset="1" stop-color="#FF7300"/>
</linearGradient>
<clipPath id="clip0_15207_34226">
<rect width="562" height="455" fill="white"/>
</clipPath>
</defs>
</svg>
