<svg width="558" height="487" viewBox="0 0 558 487" fill="none" xmlns="http://www.w3.org/2000/svg">
<ellipse cx="260" cy="258.5" rx="235" ry="225.5" fill="url(#paint0_linear_15209_29295)"/>
<path opacity="0.2" d="M515.199 61.7784L516.718 60.6216C520.103 65.0667 526.442 65.9311 530.875 62.5545L532.035 64.0768C527.6 67.4542 526.751 73.7946 530.136 78.2396L528.617 79.3963C525.232 74.9513 518.893 74.0858 514.458 77.4632L513.299 75.9408C517.733 72.5635 518.584 66.2224 515.199 61.7784Z" fill="url(#paint1_linear_15209_29295)"/>
<path d="M484.058 49.9251L484.438 49.6357C487.823 54.0807 494.162 54.9462 498.596 51.5695L498.886 51.9504C494.451 55.3277 493.601 61.6688 496.986 66.1138L496.606 66.4032C493.221 61.9582 486.882 61.0927 482.447 64.4701L482.157 64.0893C486.592 60.7112 487.443 54.3701 484.058 49.9251Z" fill="url(#paint2_linear_15209_29295)"/>
<path opacity="0.2" d="M509.919 109.377C513.194 113.677 519.327 114.514 523.617 111.247C519.327 114.514 518.504 120.649 521.779 124.95C518.504 120.649 512.371 119.812 508.081 123.08C512.37 119.811 513.194 113.677 509.919 109.377Z" fill="url(#paint3_linear_15209_29295)"/>
<path opacity="0.2" d="M375.199 403.778L376.718 402.622C380.103 407.067 386.442 407.931 390.875 404.554L392.035 406.077C387.6 409.454 386.751 415.795 390.136 420.24L388.617 421.396C385.232 416.951 378.893 416.086 374.458 419.463L373.299 417.941C377.733 414.563 378.584 408.222 375.199 403.778Z" fill="url(#paint4_linear_15209_29295)"/>
<path d="M344.058 391.925L344.438 391.636C347.823 396.081 354.162 396.946 358.596 393.57L358.886 393.95C354.451 397.328 353.601 403.669 356.986 408.114L356.606 408.403C353.221 403.958 346.882 403.093 342.447 406.47L342.157 406.089C346.592 402.711 347.443 396.37 344.058 391.925Z" fill="url(#paint5_linear_15209_29295)"/>
<path opacity="0.2" d="M369.919 451.377C373.194 455.677 379.327 456.514 383.617 453.247C379.327 456.514 378.504 462.649 381.779 466.95C378.504 462.649 372.371 461.812 368.081 465.08C372.37 461.811 373.194 455.677 369.919 451.377Z" fill="url(#paint6_linear_15209_29295)"/>
<g opacity="0.5">
<path opacity="0.3" d="M193.344 483.109C193.259 483.109 193.174 483.094 193.09 483.063C174.939 476.293 158.509 466.614 144.255 454.296C143.949 454.031 143.913 453.565 144.177 453.257C144.44 452.948 144.902 452.913 145.208 453.178C159.331 465.383 175.611 474.972 193.598 481.681C193.977 481.823 194.171 482.247 194.03 482.628C193.921 482.925 193.641 483.109 193.344 483.109Z" fill="#051F39"/>
<path opacity="0.3" d="M223.957 480.566C223.917 480.566 223.877 480.563 223.836 480.556C200.192 476.612 178.761 467.814 160.138 454.408C159.809 454.171 159.734 453.711 159.969 453.38C160.204 453.05 160.661 452.973 160.99 453.21C179.428 466.484 200.654 475.195 224.075 479.103C224.474 479.17 224.744 479.549 224.678 479.95C224.618 480.311 224.308 480.566 223.957 480.566Z" fill="#051F39"/>
<path opacity="0.3" d="M181.33 485.757C180.713 486.101 180.116 486.308 179.454 486.449C178.802 486.585 178.107 486.631 177.416 486.502C177.072 486.438 176.73 486.34 176.403 486.201C176.238 486.118 176.089 486.068 175.912 485.954L175.651 485.776L175.435 485.578C174.885 485.037 174.59 484.462 174.281 483.918C173.982 483.373 173.708 482.846 173.404 482.37C173.102 481.895 172.767 481.47 172.388 481.192C171.754 480.655 170.557 480.746 169.358 480.817C168.751 480.852 168.12 480.893 167.45 480.849C166.789 480.802 166.047 480.672 165.376 480.228C165.003 479.96 164.732 479.603 164.572 479.274C164.4 478.94 164.289 478.615 164.195 478.299C164.012 477.667 163.896 477.06 163.758 476.485C163.621 475.92 163.468 475.348 163.23 474.977C163.113 474.783 163.004 474.704 162.817 474.591C162.638 474.49 162.402 474.432 162.155 474.388C161.643 474.318 161.068 474.343 160.469 474.387C160.17 474.408 159.861 474.433 159.535 474.441C159.207 474.444 158.868 474.461 158.43 474.317C158.142 474.223 157.984 473.911 158.078 473.621C158.171 473.334 158.474 473.176 158.76 473.264L158.789 473.273C158.932 473.317 159.212 473.322 159.487 473.301C159.766 473.282 160.06 473.247 160.365 473.214C160.971 473.147 161.613 473.081 162.308 473.146C162.658 473.193 163.023 473.26 163.388 473.437C163.736 473.605 164.112 473.922 164.313 474.253C164.739 474.911 164.887 475.547 165.058 476.155C165.217 476.762 165.346 477.352 165.516 477.888C165.675 478.427 165.928 478.889 166.16 479.046C166.511 479.276 167.002 479.386 167.542 479.417C168.083 479.449 168.665 479.412 169.267 479.372C169.871 479.333 170.496 479.28 171.173 479.317C171.512 479.341 171.863 479.376 172.232 479.489L172.507 479.576L172.782 479.709C172.977 479.794 173.112 479.912 173.268 480.02C173.863 480.475 174.273 481.043 174.618 481.594C174.963 482.149 175.243 482.708 175.524 483.234C175.806 483.749 176.087 484.271 176.4 484.596L176.515 484.712L176.628 484.793C176.7 484.852 176.841 484.907 176.943 484.966C177.171 485.073 177.412 485.152 177.662 485.209C178.654 485.428 179.834 485.216 180.803 484.788L180.845 484.77C181.122 484.647 181.445 484.775 181.566 485.054C181.681 485.316 181.574 485.621 181.33 485.757Z" fill="#051F39"/>
</g>
<g opacity="0.5">
<path opacity="0.3" d="M343.344 44.4694C343.428 44.4694 343.514 44.4843 343.598 44.5155C361.748 51.2852 378.179 60.9638 392.432 73.2825C392.739 73.5475 392.774 74.0128 392.511 74.3213C392.247 74.6304 391.785 74.6651 391.479 74.4003C377.357 62.1954 361.076 52.6057 343.089 45.8968C342.71 45.7554 342.517 45.3315 342.657 44.95C342.767 44.6534 343.046 44.4694 343.344 44.4694Z" fill="#FF7300"/>
<path opacity="0.3" d="M312.731 47.0117C312.77 47.0117 312.811 47.0148 312.851 47.0217C336.496 50.9662 357.927 59.764 376.549 73.17C376.878 73.4068 376.954 73.8667 376.719 74.1976C376.484 74.5284 376.026 74.6052 375.698 74.3682C357.259 61.0943 336.034 52.3827 312.612 48.4751C312.213 48.4086 311.944 48.0293 312.01 47.6279C312.069 47.2673 312.379 47.0117 312.731 47.0117Z" fill="#FF7300"/>
<path opacity="0.3" d="M355.357 41.8208C355.974 41.4771 356.572 41.27 357.234 41.129C357.886 40.9936 358.58 40.9475 359.271 41.0765C359.616 41.1406 359.957 41.2386 360.284 41.3773C360.449 41.4604 360.598 41.5099 360.775 41.6246L361.036 41.8025L361.253 41.9996C361.802 42.5411 362.097 43.1163 362.406 43.6599C362.705 44.2047 362.98 44.7321 363.284 45.2083C363.586 45.6836 363.92 46.1085 364.3 46.3865C364.933 46.9228 366.131 46.8321 367.329 46.7609C367.936 46.7257 368.567 46.6853 369.237 46.729C369.899 46.776 370.64 46.9065 371.312 47.3506C371.684 47.6185 371.955 47.9747 372.116 48.3041C372.287 48.6381 372.398 48.9631 372.492 49.2793C372.676 49.9112 372.792 50.5177 372.93 51.0932C373.066 51.658 373.219 52.2303 373.458 52.6007C373.575 52.7947 373.684 52.874 373.87 52.9876C374.049 53.088 374.285 53.1457 374.532 53.19C375.045 53.2606 375.619 53.2352 376.219 53.1909C376.517 53.1702 376.827 53.1452 377.153 53.1368C377.481 53.1343 377.819 53.1172 378.258 53.2611C378.546 53.3555 378.703 53.6671 378.61 53.957C378.517 54.2437 378.213 54.4018 377.928 54.3145L377.899 54.3054C377.756 54.2615 377.475 54.2559 377.201 54.2776C376.921 54.296 376.627 54.3308 376.323 54.3644C375.716 54.4315 375.074 54.4976 374.379 54.4319C374.029 54.3853 373.664 54.3181 373.3 54.1408C372.952 53.9735 372.575 53.6564 372.374 53.3254C371.948 52.6675 371.8 52.0312 371.629 51.4232C371.47 50.8159 371.341 50.2257 371.172 49.6898C371.013 49.1511 370.76 48.6894 370.527 48.5323C370.176 48.3021 369.686 48.192 369.145 48.1611C368.604 48.129 368.022 48.1662 367.42 48.2065C366.817 48.2453 366.191 48.2978 365.515 48.2613C365.175 48.237 364.824 48.2023 364.456 48.0887L364.181 48.0021L363.905 47.8693C363.71 47.7838 363.575 47.6662 363.419 47.5584C362.825 47.1027 362.415 46.5355 362.07 45.9842C361.725 45.4292 361.445 44.8698 361.163 44.3439C360.881 43.8288 360.6 43.3069 360.288 42.9824L360.173 42.8664L360.06 42.7847C359.987 42.7261 359.847 42.6711 359.744 42.6118C359.516 42.5051 359.276 42.4263 359.026 42.3693C358.034 42.1504 356.854 42.3626 355.885 42.79L355.843 42.8085C355.566 42.9308 355.243 42.8036 355.121 42.5246C355.006 42.2622 355.114 41.9575 355.357 41.8208Z" fill="#FF7300"/>
</g>
<g filter="url(#filter0_d_15209_29295)">
<path d="M51 122.21H503V419.381H68C58.6112 419.381 51 411.77 51 402.381V122.21Z" fill="white"/>
</g>
<path d="M502.5 121.71H51.5V101.32C51.5 93.1023 57.7077 86.5 65.2927 86.5H488.707C496.292 86.5 502.5 93.1023 502.5 101.32V121.71Z" fill="white" stroke="#F2F5F6"/>
<circle cx="79.5" cy="104.5" r="3.5" fill="#FF6259"/>
<circle cx="91.5" cy="104.5" r="3.5" fill="#FFBE2F"/>
<circle cx="103.5" cy="104.5" r="3.5" fill="#29CD41"/>
<path d="M68.312 147.19L71.408 138.79H72.8L75.872 147.19H74.528L73.808 145.138H70.376L69.656 147.19H68.312ZM70.736 144.13H73.448L72.092 140.302L70.736 144.13ZM76.9954 147.19V141.238H78.1234L78.2314 142.078C78.4234 141.774 78.6754 141.534 78.9874 141.358C79.3074 141.182 79.6754 141.094 80.0914 141.094C81.0354 141.094 81.6914 141.466 82.0594 142.21C82.2754 141.866 82.5634 141.594 82.9234 141.394C83.2914 141.194 83.6874 141.094 84.1114 141.094C84.8554 141.094 85.4394 141.318 85.8634 141.766C86.2874 142.214 86.4994 142.882 86.4994 143.77V147.19H85.2274V143.902C85.2274 142.75 84.7874 142.174 83.9074 142.174C83.4594 142.174 83.0914 142.342 82.8034 142.678C82.5234 143.014 82.3834 143.494 82.3834 144.118V147.19H81.1114V143.902C81.1114 142.75 80.6674 142.174 79.7794 142.174C79.3394 142.174 78.9754 142.342 78.6874 142.678C78.4074 143.014 78.2674 143.494 78.2674 144.118V147.19H76.9954ZM90.0036 147.334C89.4996 147.334 89.0836 147.25 88.7556 147.082C88.4276 146.914 88.1836 146.694 88.0236 146.422C87.8636 146.142 87.7836 145.838 87.7836 145.51C87.7836 144.934 88.0076 144.478 88.4556 144.142C88.9036 143.806 89.5436 143.638 90.3756 143.638H91.9356V143.53C91.9356 143.066 91.8076 142.718 91.5516 142.486C91.3036 142.254 90.9796 142.138 90.5796 142.138C90.2276 142.138 89.9196 142.226 89.6556 142.402C89.3996 142.57 89.2436 142.822 89.1876 143.158H87.9156C87.9556 142.726 88.0996 142.358 88.3476 142.054C88.6036 141.742 88.9236 141.506 89.3076 141.346C89.6996 141.178 90.1276 141.094 90.5916 141.094C91.4236 141.094 92.0676 141.314 92.5236 141.754C92.9796 142.186 93.2076 142.778 93.2076 143.53V147.19H92.1036L91.9956 146.17C91.8276 146.498 91.5836 146.774 91.2636 146.998C90.9436 147.222 90.5236 147.334 90.0036 147.334ZM90.2556 146.302C90.5996 146.302 90.8876 146.222 91.1196 146.062C91.3596 145.894 91.5436 145.674 91.6716 145.402C91.8076 145.13 91.8916 144.83 91.9236 144.502H90.5076C90.0036 144.502 89.6436 144.59 89.4276 144.766C89.2196 144.942 89.1156 145.162 89.1156 145.426C89.1156 145.698 89.2156 145.914 89.4156 146.074C89.6236 146.226 89.9036 146.302 90.2556 146.302ZM94.2947 147.19V146.158L97.4747 142.294H94.3427V141.238H98.9147V142.27L95.7107 146.134H98.9747V147.19H94.2947ZM101.001 140.11C100.761 140.11 100.561 140.038 100.401 139.894C100.249 139.742 100.173 139.554 100.173 139.33C100.173 139.106 100.249 138.922 100.401 138.778C100.561 138.626 100.761 138.55 101.001 138.55C101.241 138.55 101.437 138.626 101.589 138.778C101.749 138.922 101.829 139.106 101.829 139.33C101.829 139.554 101.749 139.742 101.589 139.894C101.437 140.038 101.241 140.11 101.001 140.11ZM100.365 147.19V141.238H101.637V147.19H100.365ZM103.316 147.19V141.238H104.444L104.54 142.282C104.724 141.914 104.992 141.626 105.344 141.418C105.704 141.202 106.116 141.094 106.58 141.094C107.3 141.094 107.864 141.318 108.272 141.766C108.688 142.214 108.896 142.882 108.896 143.77V147.19H107.636V143.902C107.636 142.75 107.164 142.174 106.22 142.174C105.748 142.174 105.356 142.342 105.044 142.678C104.74 143.014 104.588 143.494 104.588 144.118V147.19H103.316ZM112.83 145.366C112.518 145.366 112.23 145.33 111.966 145.258L111.45 145.762C111.538 145.818 111.646 145.866 111.774 145.906C111.902 145.946 112.082 145.982 112.314 146.014C112.546 146.046 112.862 146.078 113.262 146.11C114.054 146.182 114.626 146.374 114.978 146.686C115.33 146.99 115.506 147.398 115.506 147.91C115.506 148.262 115.41 148.594 115.218 148.906C115.034 149.226 114.742 149.482 114.342 149.674C113.95 149.874 113.446 149.974 112.83 149.974C111.998 149.974 111.322 149.814 110.802 149.494C110.29 149.182 110.034 148.706 110.034 148.066C110.034 147.818 110.098 147.57 110.226 147.322C110.362 147.082 110.574 146.854 110.862 146.638C110.694 146.566 110.546 146.49 110.418 146.41C110.298 146.322 110.19 146.234 110.094 146.146V145.858L111.126 144.802C110.662 144.402 110.43 143.878 110.43 143.23C110.43 142.838 110.522 142.482 110.706 142.162C110.898 141.834 111.174 141.574 111.534 141.382C111.894 141.19 112.326 141.094 112.83 141.094C113.166 141.094 113.478 141.142 113.766 141.238H115.986V142.078L114.93 142.138C115.122 142.466 115.218 142.83 115.218 143.23C115.218 143.63 115.122 143.99 114.93 144.31C114.746 144.63 114.474 144.886 114.114 145.078C113.762 145.27 113.334 145.366 112.83 145.366ZM112.83 144.37C113.198 144.37 113.494 144.274 113.718 144.082C113.95 143.882 114.066 143.602 114.066 143.242C114.066 142.874 113.95 142.594 113.718 142.402C113.494 142.21 113.198 142.114 112.83 142.114C112.454 142.114 112.15 142.21 111.918 142.402C111.694 142.594 111.582 142.874 111.582 143.242C111.582 143.602 111.694 143.882 111.918 144.082C112.15 144.274 112.454 144.37 112.83 144.37ZM111.234 147.946C111.234 148.29 111.386 148.546 111.69 148.714C111.994 148.89 112.374 148.978 112.83 148.978C113.27 148.978 113.626 148.882 113.898 148.69C114.17 148.506 114.306 148.258 114.306 147.946C114.306 147.714 114.214 147.514 114.03 147.346C113.846 147.186 113.498 147.086 112.986 147.046C112.602 147.022 112.262 146.986 111.966 146.938C111.686 147.09 111.494 147.254 111.39 147.43C111.286 147.606 111.234 147.778 111.234 147.946ZM120.192 147.19V138.79H123.084C123.748 138.79 124.292 138.902 124.716 139.126C125.148 139.35 125.468 139.654 125.676 140.038C125.884 140.414 125.988 140.834 125.988 141.298C125.988 141.818 125.848 142.29 125.568 142.714C125.296 143.138 124.868 143.442 124.284 143.626L126.072 147.19H124.596L122.964 143.806H121.464V147.19H120.192ZM121.464 142.846H123.012C123.588 142.846 124.008 142.706 124.272 142.426C124.544 142.146 124.68 141.782 124.68 141.334C124.68 140.886 124.548 140.53 124.284 140.266C124.02 139.994 123.592 139.858 123 139.858H121.464V142.846ZM129.865 147.334C129.281 147.334 128.761 147.206 128.305 146.95C127.857 146.686 127.505 146.322 127.249 145.858C126.993 145.394 126.865 144.854 126.865 144.238C126.865 143.614 126.989 143.066 127.237 142.594C127.493 142.122 127.845 141.754 128.293 141.49C128.749 141.226 129.277 141.094 129.877 141.094C130.461 141.094 130.969 141.226 131.401 141.49C131.833 141.746 132.169 142.09 132.409 142.522C132.649 142.954 132.769 143.43 132.769 143.95C132.769 144.03 132.765 144.118 132.757 144.214C132.757 144.302 132.753 144.402 132.745 144.514H128.113C128.153 145.09 128.341 145.53 128.677 145.834C129.021 146.13 129.417 146.278 129.865 146.278C130.225 146.278 130.525 146.198 130.765 146.038C131.013 145.87 131.197 145.646 131.317 145.366H132.589C132.429 145.926 132.109 146.394 131.629 146.77C131.157 147.146 130.569 147.334 129.865 147.334ZM129.865 142.138C129.441 142.138 129.065 142.266 128.737 142.522C128.409 142.77 128.209 143.146 128.137 143.65H131.497C131.473 143.186 131.309 142.818 131.005 142.546C130.701 142.274 130.321 142.138 129.865 142.138ZM136.465 147.334C135.713 147.334 135.093 147.15 134.605 146.782C134.117 146.414 133.837 145.926 133.765 145.318H135.049C135.113 145.59 135.265 145.826 135.505 146.026C135.745 146.218 136.061 146.314 136.453 146.314C136.837 146.314 137.117 146.234 137.293 146.074C137.469 145.914 137.557 145.73 137.557 145.522C137.557 145.218 137.433 145.014 137.185 144.91C136.945 144.798 136.609 144.698 136.177 144.61C135.841 144.538 135.505 144.442 135.169 144.322C134.841 144.202 134.565 144.034 134.341 143.818C134.125 143.594 134.017 143.294 134.017 142.918C134.017 142.398 134.217 141.966 134.617 141.622C135.017 141.27 135.577 141.094 136.297 141.094C136.961 141.094 137.497 141.254 137.905 141.574C138.321 141.894 138.565 142.346 138.637 142.93H137.413C137.373 142.674 137.253 142.474 137.053 142.33C136.861 142.186 136.601 142.114 136.273 142.114C135.953 142.114 135.705 142.182 135.529 142.318C135.353 142.446 135.265 142.614 135.265 142.822C135.265 143.03 135.385 143.194 135.625 143.314C135.873 143.434 136.197 143.542 136.597 143.638C136.997 143.726 137.365 143.83 137.701 143.95C138.045 144.062 138.321 144.23 138.529 144.454C138.737 144.678 138.841 145.006 138.841 145.438C138.849 145.982 138.637 146.434 138.205 146.794C137.781 147.154 137.201 147.334 136.465 147.334ZM142.426 147.334C141.706 147.334 141.138 147.11 140.722 146.662C140.314 146.214 140.11 145.546 140.11 144.658V141.238H141.382V144.526C141.382 145.678 141.854 146.254 142.798 146.254C143.27 146.254 143.658 146.086 143.962 145.75C144.266 145.414 144.418 144.934 144.418 144.31V141.238H145.69V147.19H144.562L144.466 146.146C144.282 146.514 144.01 146.806 143.65 147.022C143.298 147.23 142.89 147.334 142.426 147.334ZM147.308 147.19V138.55H148.58V147.19H147.308ZM152.687 147.19C152.103 147.19 151.639 147.05 151.295 146.77C150.951 146.482 150.779 145.974 150.779 145.246V142.306H149.759V141.238H150.779L150.935 139.726H152.051V141.238H153.731V142.306H152.051V145.246C152.051 145.574 152.119 145.802 152.255 145.93C152.399 146.05 152.643 146.11 152.987 146.11H153.671V147.19H152.687ZM157.418 147.334C156.666 147.334 156.046 147.15 155.558 146.782C155.07 146.414 154.79 145.926 154.718 145.318H156.002C156.066 145.59 156.218 145.826 156.458 146.026C156.698 146.218 157.014 146.314 157.406 146.314C157.79 146.314 158.07 146.234 158.246 146.074C158.422 145.914 158.51 145.73 158.51 145.522C158.51 145.218 158.386 145.014 158.138 144.91C157.898 144.798 157.562 144.698 157.13 144.61C156.794 144.538 156.458 144.442 156.122 144.322C155.794 144.202 155.518 144.034 155.294 143.818C155.078 143.594 154.97 143.294 154.97 142.918C154.97 142.398 155.17 141.966 155.57 141.622C155.97 141.27 156.53 141.094 157.25 141.094C157.914 141.094 158.45 141.254 158.858 141.574C159.274 141.894 159.518 142.346 159.59 142.93H158.366C158.326 142.674 158.206 142.474 158.006 142.33C157.814 142.186 157.554 142.114 157.226 142.114C156.906 142.114 156.658 142.182 156.482 142.318C156.306 142.446 156.218 142.614 156.218 142.822C156.218 143.03 156.338 143.194 156.578 143.314C156.826 143.434 157.15 143.542 157.55 143.638C157.95 143.726 158.318 143.83 158.654 143.95C158.998 144.062 159.274 144.23 159.482 144.454C159.69 144.678 159.794 145.006 159.794 145.438C159.802 145.982 159.59 146.434 159.158 146.794C158.734 147.154 158.154 147.334 157.418 147.334Z" fill="#AAB4BE"/>
<path d="M144 229H74C71.2386 229 69 231.239 69 234V403C69 405.761 71.2386 408 74 408H144C146.761 408 149 405.761 149 403V234C149 231.239 146.761 229 144 229Z" fill="#F2F5F6"/>
<path d="M143.884 216.104H73.9727C71.2112 216.104 68.9727 213.866 68.9727 211.104V168.663C68.9727 165.901 71.2112 163.663 73.9727 163.663H143.884C146.646 163.663 148.884 165.901 148.884 168.662V211.104C148.884 213.866 146.646 216.104 143.884 216.104Z" fill="#F2F5F6"/>
<rect x="267" y="229" width="122" height="5" rx="2.5" fill="#EBEFF2"/>
<rect x="267" y="246" width="122" height="5" rx="2.5" fill="#EBEFF2"/>
<rect x="267" y="263" width="122" height="5" rx="2.5" fill="#EBEFF2"/>
<rect x="267" y="280" width="122" height="5" rx="2.5" fill="#EBEFF2"/>
<rect x="267" y="297" width="122" height="5" rx="2.5" fill="#EBEFF2"/>
<rect x="161" y="226.707" width="93" height="80" rx="5.2211" fill="#F2F5F6"/>
<rect x="399" y="226.707" width="92" height="80" rx="5.2211" fill="#F2F5F6"/>
<path d="M456.747 272.47H456.747C457.663 272.469 458.541 272.105 459.188 271.457C459.835 270.81 460.199 269.932 460.2 269.017V269.016V253.96V253.96C460.199 253.044 459.835 252.167 459.188 251.519C458.541 250.872 457.663 250.508 456.747 250.507H456.747L441.691 250.507L441.69 250.507C440.775 250.508 439.897 250.872 439.25 251.519C438.602 252.167 438.238 253.044 438.237 253.96V253.96V265.885C438.237 266.063 438.308 266.233 438.433 266.358C438.559 266.483 438.729 266.554 438.906 266.554C439.084 266.554 439.254 266.483 439.379 266.358C439.505 266.233 439.575 266.063 439.575 265.885V256.497L458.862 256.513V269.016C458.862 269.577 458.639 270.115 458.242 270.512C457.845 270.908 457.308 271.131 456.747 271.132H444.735C444.558 271.132 444.388 271.202 444.262 271.328C444.137 271.453 444.066 271.623 444.066 271.801C444.066 271.978 444.137 272.148 444.262 272.274C444.388 272.399 444.558 272.47 444.735 272.47H456.747ZM441.691 251.845H456.747C456.747 251.845 456.747 251.845 456.747 251.845C457.308 251.845 457.846 252.068 458.242 252.465C458.639 252.862 458.862 253.399 458.862 253.96V255.166L439.575 255.15V253.945C439.58 253.386 439.805 252.853 440.201 252.46C440.597 252.066 441.132 251.845 441.691 251.845C441.691 251.845 441.691 251.845 441.691 251.845Z" fill="#FF7300" stroke="#FF7300" stroke-width="0.4"/>
<path d="M457.148 254.305C457.518 254.305 457.817 254.006 457.817 253.637C457.817 253.267 457.518 252.968 457.148 252.968C456.779 252.968 456.48 253.267 456.48 253.637C456.48 254.006 456.779 254.305 457.148 254.305Z" fill="#FF7300" stroke="#FF7300" stroke-width="0.4"/>
<path d="M455.289 254.305C455.658 254.305 455.958 254.006 455.958 253.637C455.958 253.267 455.658 252.968 455.289 252.968C454.92 252.968 454.62 253.267 454.62 253.637C454.62 254.006 454.92 254.305 455.289 254.305Z" fill="#FF7300" stroke="#FF7300" stroke-width="0.4"/>
<path d="M453.428 254.305C453.797 254.305 454.096 254.006 454.096 253.637C454.096 253.267 453.797 252.968 453.428 252.968C453.058 252.968 452.759 253.267 452.759 253.637C452.759 254.006 453.058 254.305 453.428 254.305Z" fill="#FF7300" stroke="#FF7300" stroke-width="0.4"/>
<path d="M446.182 264.525C446.12 264.463 446.047 264.414 445.965 264.38M446.182 264.525L446.041 264.667M446.182 264.525C446.182 264.525 446.182 264.525 446.182 264.525L446.041 264.667M446.182 264.525C446.244 264.588 446.294 264.661 446.327 264.742C446.361 264.824 446.378 264.911 446.378 264.998C446.378 265.086 446.361 265.173 446.327 265.255C446.294 265.336 446.244 265.409 446.182 265.471L446.041 265.33C446.084 265.287 446.119 265.235 446.143 265.178C446.166 265.121 446.178 265.06 446.178 264.998C446.178 264.937 446.166 264.876 446.143 264.819C446.119 264.762 446.084 264.71 446.041 264.667M445.965 264.38L446.041 264.667M445.965 264.38C445.884 264.347 445.797 264.329 445.709 264.329M445.965 264.38L445.709 264.329M445.709 264.329C445.621 264.329 445.534 264.347 445.453 264.38M445.709 264.329L445.453 264.38M445.453 264.38C445.372 264.414 445.298 264.463 445.236 264.525M445.453 264.38L445.236 264.525M445.236 264.525L439.131 270.631L445.236 264.525ZM440.077 271.577L446.182 265.472L439.272 271.436L439.131 271.577C439.131 271.577 439.131 271.577 439.131 271.577C439.193 271.639 439.267 271.688 439.348 271.722C439.429 271.756 439.516 271.773 439.604 271.773C439.692 271.773 439.779 271.756 439.86 271.722C439.941 271.688 440.015 271.639 440.077 271.577Z" fill="#FF7300" stroke="#FF7300" stroke-width="0.4"/>
<path d="M444.514 269.158C444.435 269.147 444.359 269.123 444.288 269.086L444.382 268.909L444.288 269.086C444.21 269.044 444.141 268.988 444.085 268.92C444.029 268.852 443.987 268.774 443.961 268.69C443.935 268.606 443.926 268.517 443.935 268.429C443.943 268.342 443.968 268.257 444.01 268.179C444.051 268.101 444.107 268.032 444.175 267.976C444.243 267.92 444.321 267.877 444.406 267.852C444.49 267.826 444.578 267.817 444.666 267.825L444.667 267.825C444.959 267.854 445.254 267.818 445.531 267.72C445.807 267.621 446.058 267.462 446.266 267.255C446.266 267.255 446.266 267.255 446.266 267.255L448.372 265.149C448.714 264.772 448.898 264.277 448.887 263.768C448.875 263.258 448.667 262.771 448.306 262.41C447.945 262.048 447.459 261.84 446.949 261.827C446.44 261.815 445.945 261.999 445.568 262.34L443.462 264.446C443.462 264.446 443.462 264.446 443.462 264.446C443.261 264.648 443.106 264.89 443.007 265.157C442.909 265.424 442.868 265.71 442.889 265.994L442.889 265.994C442.902 266.171 442.844 266.346 442.728 266.481L442.577 266.35L442.728 266.481C442.612 266.615 442.447 266.698 442.27 266.711C442.092 266.724 441.917 266.665 441.783 266.549C441.649 266.433 441.566 266.268 441.553 266.091L444.514 269.158ZM444.514 269.158L444.514 269.165C444.623 269.175 444.731 269.18 444.839 269.18L444.514 269.158ZM447.186 268.21L449.295 266.101L449.296 266.101L449.304 266.091C449.859 265.459 450.153 264.639 450.128 263.798C450.102 262.957 449.758 262.157 449.166 261.56C448.574 260.962 447.777 260.611 446.936 260.578C446.096 260.545 445.274 260.831 444.636 261.38L444.63 261.385L444.625 261.391L442.516 263.5L442.516 263.5C442.179 263.838 441.918 264.244 441.752 264.691C441.586 265.138 441.518 265.615 441.553 266.091C441.553 266.091 441.553 266.091 441.553 266.091L447.186 268.21Z" fill="#FF7300" stroke="#FF7300" stroke-width="0.4"/>
<path d="M440.587 266.914C440.131 266.897 439.676 266.974 439.251 267.141C438.826 267.307 438.44 267.559 438.116 267.881L438.116 267.881L436.007 269.99C436.007 269.99 436.007 269.99 436.007 269.99C435.695 270.299 435.448 270.666 435.279 271.071C435.109 271.475 435.022 271.909 435.021 272.348C435.02 272.787 435.106 273.221 435.273 273.627C435.441 274.032 435.687 274.4 435.997 274.71L435.997 274.71C436.621 275.333 437.466 275.682 438.347 275.682C439.228 275.682 440.074 275.333 440.698 274.71L440.698 274.71L442.806 272.602C442.806 272.602 442.806 272.602 442.807 272.601C443.141 272.272 443.402 271.875 443.572 271.437C443.742 270.999 443.818 270.53 443.794 270.061L443.794 270.061C443.784 269.883 443.705 269.717 443.573 269.598C443.441 269.48 443.267 269.418 443.09 269.427C442.913 269.437 442.746 269.516 442.628 269.648C442.509 269.78 442.447 269.954 442.457 270.131L442.457 270.131C442.472 270.41 442.428 270.688 442.329 270.949C442.229 271.209 442.076 271.446 441.88 271.643C441.88 271.643 441.88 271.643 441.879 271.643L439.77 273.752L439.77 273.753C439.398 274.129 438.893 274.341 438.366 274.344C437.838 274.347 437.33 274.14 436.955 273.769C436.58 273.398 436.367 272.893 436.364 272.365C436.361 271.838 436.568 271.33 436.939 270.955C436.939 270.955 436.939 270.955 436.939 270.955L439.048 268.846L439.048 268.846L439.049 268.845C439.243 268.648 439.475 268.494 439.732 268.391C439.989 268.289 440.264 268.241 440.54 268.251C440.628 268.254 440.715 268.24 440.798 268.209C440.88 268.178 440.955 268.131 441.02 268.071L440.883 267.925L441.02 268.071C441.084 268.012 441.136 267.94 441.172 267.86C441.209 267.78 441.229 267.693 441.232 267.606C441.235 267.518 441.221 267.43 441.19 267.348C441.159 267.266 441.113 267.19 441.053 267.126C440.993 267.062 440.921 267.01 440.841 266.973C440.761 266.937 440.675 266.917 440.587 266.914ZM440.587 266.914C440.587 266.914 440.587 266.914 440.587 266.914L440.58 267.113L440.587 266.913C440.587 266.914 440.587 266.914 440.587 266.914Z" fill="#FF7300" stroke="#FF7300" stroke-width="0.4"/>
<path d="M433.253 280.907H433.253H448.309H448.31C449.225 280.906 450.103 280.542 450.75 279.895C451.398 279.248 451.762 278.37 451.763 277.454V277.454V273.509C451.763 273.332 451.692 273.162 451.567 273.036C451.441 272.911 451.271 272.841 451.094 272.841C450.916 272.841 450.746 272.911 450.621 273.036C450.495 273.162 450.425 273.332 450.425 273.509V277.454C450.424 278.015 450.201 278.553 449.805 278.949C449.408 279.346 448.87 279.569 448.309 279.57H433.253C432.692 279.569 432.155 279.346 431.758 278.949C431.361 278.553 431.138 278.015 431.138 277.454C431.138 277.454 431.137 277.454 431.137 277.454L431.138 264.97H437.031C437.209 264.97 437.379 264.899 437.504 264.774C437.63 264.648 437.7 264.478 437.7 264.301C437.7 264.123 437.63 263.953 437.504 263.828C437.379 263.702 437.209 263.632 437.031 263.632H431.138L431.137 262.398C431.137 262.398 431.138 262.398 431.138 262.398C431.138 261.837 431.361 261.299 431.758 260.902C432.154 260.506 432.692 260.283 433.253 260.282C433.253 260.282 433.253 260.282 433.253 260.282L437.031 260.282C437.209 260.282 437.379 260.212 437.504 260.086C437.63 259.961 437.7 259.791 437.7 259.613C437.7 259.436 437.63 259.266 437.504 259.14C437.379 259.015 437.209 258.945 437.031 258.945L433.253 258.945L433.253 258.945C432.337 258.945 431.459 259.309 430.812 259.957C430.165 260.604 429.801 261.482 429.8 262.398V262.398L429.8 277.454L429.8 277.454C429.801 278.37 430.165 279.248 430.812 279.895C431.459 280.542 432.337 280.906 433.253 280.907Z" fill="#FF7300" stroke="#FF7300" stroke-width="0.4"/>
<path d="M207.098 264.207L207.098 264.207C207.224 264.081 207.394 264.011 207.571 264.011C207.749 264.011 207.919 264.081 208.045 264.207C208.17 264.332 208.24 264.503 208.24 264.68C208.24 264.857 208.17 265.028 208.045 265.153C208.045 265.153 208.045 265.153 208.045 265.153L203.306 269.894C203.306 269.894 203.306 269.894 203.305 269.894C203.243 269.957 203.17 270.006 203.088 270.039C203.007 270.073 202.92 270.09 202.832 270.09C202.745 270.09 202.657 270.073 202.576 270.039C202.495 270.006 202.421 269.957 202.359 269.894C202.359 269.894 202.359 269.894 202.359 269.894L202.501 269.753C202.457 269.709 202.423 269.658 202.399 269.601C202.375 269.544 202.363 269.483 202.363 269.421C202.363 269.36 202.375 269.299 202.399 269.242C202.423 269.185 202.457 269.133 202.501 269.09L207.098 264.207ZM207.098 264.207L202.359 268.948L207.098 264.207Z" fill="#0061BF" stroke="#0061BF" stroke-width="0.4"/>
<path d="M205.456 268.718L205.343 268.553C205.415 268.503 205.497 268.468 205.583 268.45C205.668 268.431 205.757 268.43 205.844 268.446C205.93 268.461 206.013 268.494 206.087 268.542C206.161 268.59 206.225 268.652 206.275 268.725L206.111 268.838L206.275 268.725C206.325 268.797 206.361 268.879 206.379 268.966C206.397 269.052 206.398 269.141 206.382 269.227C206.277 269.8 206 270.327 205.588 270.739L203.823 272.503L203.82 272.506L203.82 272.506C203.276 273.028 202.55 273.316 201.796 273.308C201.043 273.3 200.322 272.998 199.789 272.465C199.256 271.932 198.953 271.212 198.945 270.458C198.937 269.705 199.224 268.978 199.745 268.434L199.749 268.43L199.749 268.43L201.515 266.673C201.515 266.673 201.515 266.673 201.516 266.673C201.927 266.26 202.454 265.984 203.027 265.879L205.456 268.718ZM205.456 268.718L205.343 268.553C205.27 268.603 205.208 268.667 205.161 268.741L205.329 268.849L205.161 268.741C205.113 268.815 205.08 268.898 205.065 268.984L205.065 268.986C205.012 269.29 204.867 269.572 204.651 269.793L202.887 271.557L202.886 271.558C202.743 271.701 202.573 271.816 202.385 271.894C202.198 271.972 201.997 272.012 201.793 272.013C201.383 272.013 200.989 271.851 200.699 271.562C200.555 271.418 200.441 271.248 200.363 271.06C200.284 270.873 200.244 270.672 200.244 270.469C200.243 270.059 200.405 269.665 200.695 269.374C200.695 269.374 200.695 269.374 200.695 269.374L202.459 267.61C202.679 267.394 202.961 267.249 203.266 267.197L203.266 267.197L203.268 267.196C203.442 267.164 203.597 267.064 203.698 266.918C203.799 266.772 203.838 266.592 203.806 266.417C203.774 266.243 203.674 266.088 203.528 265.987C203.382 265.886 203.202 265.847 203.027 265.879L205.456 268.718Z" fill="#0061BF" stroke="#0061BF" stroke-width="0.4"/>
<path d="M204.812 263.362L204.812 263.362C204.4 263.774 204.123 264.301 204.018 264.874L204.018 264.874L204.017 264.883C203.994 265.054 204.038 265.226 204.139 265.365C204.24 265.504 204.39 265.599 204.559 265.63C204.728 265.661 204.903 265.626 205.046 265.532C205.19 265.437 205.292 265.292 205.331 265.124L205.331 265.124L205.333 265.113C205.386 264.808 205.531 264.526 205.747 264.305L207.511 262.541L207.512 262.541C207.801 262.249 208.195 262.085 208.606 262.084C209.018 262.083 209.412 262.245 209.704 262.535C209.995 262.825 210.16 263.218 210.161 263.629C210.162 264.04 210 264.435 209.71 264.727C209.71 264.727 209.71 264.727 209.71 264.727L207.946 266.491C207.727 266.706 207.448 266.849 207.146 266.903C206.972 266.921 206.812 267.006 206.7 267.14C206.586 267.277 206.531 267.453 206.547 267.63C206.563 267.807 206.649 267.971 206.785 268.085C206.917 268.195 207.086 268.25 207.257 268.24C207.291 268.242 207.326 268.241 207.36 268.238L207.369 268.237L207.377 268.236C207.951 268.131 208.478 267.854 208.89 267.442L210.654 265.677C210.922 265.41 211.135 265.092 211.28 264.743C211.425 264.393 211.5 264.019 211.5 263.64C211.5 263.262 211.426 262.887 211.282 262.537C211.137 262.187 210.925 261.869 210.658 261.601C210.39 261.333 210.073 261.121 209.723 260.976C209.374 260.83 208.999 260.755 208.621 260.755C208.242 260.755 207.867 260.829 207.517 260.973C207.167 261.118 206.85 261.33 206.582 261.597C206.582 261.597 206.582 261.597 206.582 261.597L204.812 263.362Z" fill="#0061BF" stroke="#0061BF" stroke-width="0.4"/>
<path d="M196.69 253.508L196.012 254.186V253.028H196.012L196.012 253.025C196.007 252.742 196.058 252.461 196.163 252.198C196.267 251.935 196.422 251.695 196.62 251.492C196.817 251.289 197.053 251.128 197.313 251.017C197.573 250.906 197.853 250.847 198.135 250.845H199.093C199.27 250.845 199.441 250.774 199.566 250.649C199.691 250.523 199.762 250.353 199.762 250.176C199.762 249.998 199.691 249.828 199.566 249.703C199.441 249.577 199.27 249.507 199.093 249.507L198.134 249.507L198.133 249.507C197.675 249.51 197.222 249.603 196.8 249.782C196.378 249.96 195.995 250.22 195.674 250.547C195.352 250.874 195.099 251.26 194.927 251.685C194.756 252.11 194.67 252.564 194.674 253.022V254.241L193.94 253.508L193.94 253.507L193.933 253.501C193.805 253.386 193.638 253.324 193.467 253.329C193.295 253.333 193.132 253.403 193.011 253.525C192.889 253.647 192.82 253.81 192.816 253.982C192.812 254.153 192.874 254.32 192.99 254.447L192.989 254.447L192.996 254.454L194.843 256.301C194.843 256.301 194.843 256.301 194.843 256.301C194.905 256.363 194.979 256.412 195.06 256.446C195.141 256.48 195.228 256.497 195.316 256.497C195.404 256.497 195.491 256.48 195.572 256.446C195.653 256.412 195.727 256.363 195.789 256.301C195.789 256.301 195.789 256.301 195.789 256.301L195.817 256.273L197.636 254.454C197.761 254.328 197.832 254.158 197.832 253.981C197.832 253.803 197.761 253.633 197.636 253.508C197.511 253.382 197.34 253.312 197.163 253.312C196.986 253.312 196.815 253.382 196.69 253.508Z" fill="#0061BF" stroke="#0061BF" stroke-width="0.4"/>
<path d="M219.988 275.228L219.309 275.906C219.184 276.032 219.014 276.102 218.836 276.102C218.659 276.102 218.489 276.032 218.363 275.906C218.238 275.781 218.167 275.611 218.167 275.433C218.167 275.256 218.238 275.086 218.363 274.96L220.182 273.141L220.21 273.113L220.21 273.113L220.352 273.255L219.988 275.228ZM219.988 275.228V276.386H219.987L219.988 276.389C219.992 276.672 219.941 276.953 219.837 277.216C219.732 277.479 219.577 277.719 219.379 277.922C219.182 278.125 218.946 278.286 218.686 278.397C218.426 278.508 218.147 278.567 217.864 278.57H216.906C216.729 278.57 216.559 278.64 216.433 278.765C216.308 278.891 216.237 279.061 216.237 279.238C216.237 279.416 216.308 279.586 216.433 279.711C216.559 279.837 216.729 279.907 216.906 279.907L217.865 279.907L217.866 279.907C218.324 279.904 218.777 279.811 219.2 279.632C219.622 279.454 220.004 279.194 220.326 278.867C220.647 278.541 220.901 278.154 221.072 277.729C221.244 277.304 221.329 276.85 221.325 276.392V275.174L222.059 275.909C222.185 276.034 222.355 276.105 222.532 276.105C222.71 276.105 222.88 276.034 223.005 275.909C223.131 275.783 223.201 275.613 223.201 275.436C223.201 275.258 223.131 275.088 223.005 274.962L221.156 273.113L221.156 273.113L221.015 273.255L219.988 275.228Z" fill="#0061BF" stroke="#0061BF" stroke-width="0.4"/>
<path d="M217.603 274.736V265.845H220.891C222.404 265.845 223.2 264.565 223.2 263.402V263.301C223.2 263.123 223.13 262.953 223.004 262.828C222.879 262.703 222.709 262.632 222.531 262.632H221.324C221.325 262.616 221.325 262.6 221.325 262.585V262.584L221.325 250.893L221.325 250.891C221.321 250.52 221.169 250.166 220.904 249.906C220.64 249.647 220.283 249.504 219.912 249.507H202.65C202.28 249.504 201.923 249.647 201.658 249.906C201.393 250.166 201.242 250.52 201.238 250.891L201.238 250.891V250.893V257.945L194.221 257.945L194.221 257.945C193.844 257.945 193.483 258.095 193.217 258.362C192.951 258.628 192.801 258.989 192.8 259.365V259.366V274.734C192.8 275.111 192.95 275.472 193.216 275.739C193.482 276.006 193.844 276.156 194.221 276.157H194.221H204.533V278.57H199.094C198.916 278.57 198.746 278.64 198.621 278.765C198.495 278.891 198.425 279.061 198.425 279.238C198.425 279.416 198.495 279.586 198.621 279.711C198.746 279.837 198.916 279.907 199.094 279.907H211.281C211.459 279.907 211.629 279.837 211.754 279.711C211.88 279.586 211.95 279.416 211.95 279.238C211.95 279.061 211.88 278.891 211.754 278.765C211.629 278.64 211.459 278.57 211.281 278.57H205.87V276.157H216.182L216.182 276.157C216.559 276.156 216.92 276.006 217.186 275.74C217.452 275.474 217.602 275.113 217.603 274.736V274.736ZM216.182 257.945H202.575V250.901C202.577 250.886 202.584 250.872 202.596 250.861C202.608 250.85 202.625 250.844 202.642 250.844L202.642 250.845H202.649H219.913V250.845L219.921 250.844C219.938 250.844 219.954 250.85 219.967 250.861L220.101 250.713L219.967 250.861C219.978 250.872 219.986 250.886 219.987 250.901V262.575C219.986 262.591 219.978 262.605 219.967 262.615C219.954 262.627 219.938 262.633 219.921 262.632L219.921 262.632H219.913H217.605V259.366L217.605 259.365C217.605 258.988 217.454 258.627 217.188 258.361C216.921 258.094 216.559 257.945 216.182 257.945ZM220.893 264.507H220.891H217.605V263.97H221.743C221.686 264.093 221.602 264.203 221.496 264.292C221.327 264.433 221.113 264.509 220.893 264.507ZM216.266 259.369L216.268 274.734C216.267 274.757 216.258 274.778 216.242 274.794C216.226 274.81 216.204 274.819 216.181 274.82H194.223C194.201 274.819 194.179 274.81 194.163 274.794C194.147 274.778 194.138 274.756 194.138 274.734V259.368C194.138 259.345 194.147 259.324 194.163 259.308C194.179 259.292 194.201 259.283 194.223 259.282H216.18C216.202 259.283 216.224 259.292 216.24 259.308C216.256 259.324 216.265 259.345 216.266 259.368C216.266 259.368 216.266 259.369 216.266 259.369Z" fill="#0061BF" stroke="#0061BF" stroke-width="0.4"/>
<path opacity="0.2" d="M172.72 349.446C166.257 349.446 161 344.187 161 337.723C161 331.259 166.257 326 172.72 326C179.182 326 184.439 331.259 184.439 337.723C184.439 344.187 179.182 349.446 172.72 349.446ZM172.72 327.033C166.827 327.033 162.032 331.828 162.032 337.723C162.032 343.618 166.827 348.413 172.72 348.413C178.612 348.413 183.406 343.618 183.406 337.723C183.406 331.828 178.612 327.033 172.72 327.033Z" fill="#0061BF"/>
<path d="M177.435 333.372L170.984 339.839L167.985 336.84C167.311 336.165 166.219 336.165 165.545 336.839C164.871 337.514 164.87 338.607 165.545 339.281L169.891 343.629C170.495 344.232 171.473 344.233 172.077 343.63L179.891 335.828C180.565 335.154 180.566 334.06 179.892 333.386L179.877 333.371C179.203 332.696 178.109 332.697 177.435 333.372Z" fill="#0061BF"/>
<rect x="189" y="331" width="300" height="4" rx="2" fill="#EBEFF2"/>
<rect x="189" y="342" width="227" height="4" rx="2" fill="#EBEFF2"/>
<path opacity="0.2" d="M172.72 390.446C166.257 390.446 161 385.187 161 378.723C161 372.259 166.257 367 172.72 367C179.182 367 184.439 372.259 184.439 378.723C184.439 385.187 179.182 390.446 172.72 390.446ZM172.72 368.033C166.827 368.033 162.032 372.829 162.032 378.723C162.032 384.618 166.827 389.413 172.72 389.413C178.612 389.413 183.406 384.618 183.406 378.723C183.407 372.829 178.612 368.033 172.72 368.033Z" fill="#FF7300"/>
<path d="M177.435 374.371L170.984 380.838L167.985 377.838C167.311 377.164 166.219 377.164 165.545 377.838C164.871 378.513 164.87 379.606 165.545 380.28L169.891 384.628C170.495 385.231 171.473 385.232 172.077 384.629L179.891 376.827C180.565 376.153 180.566 375.059 179.892 374.385L179.877 374.37C179.203 373.695 178.109 373.696 177.435 374.371Z" fill="#FF7300"/>
<rect x="191" y="372" width="300" height="4" rx="2" fill="#EBEFF2"/>
<rect x="191" y="383" width="227" height="4" rx="2" fill="#EBEFF2"/>
<rect x="161" y="164" width="105.129" height="46" rx="5" fill="#F2F5F6"/>
<rect x="277.578" y="164" width="105.129" height="46" rx="5" fill="#F2F5F6"/>
<rect x="394" y="164" width="97" height="46" rx="5" fill="#F2F5F6"/>
<path d="M34.1538 452.673C33.4804 458.105 32.8082 463.539 32.1348 468.972C40.882 468.786 49.2289 469.494 57.9748 469.757C55.0976 467.953 46.9674 461.718 46.9674 461.718" fill="#FFC6AD"/>
<path d="M32.3329 476.161H37.3229C37.5127 476.161 37.8242 476.161 38.3095 476.161C39.251 476.161 39.5478 476.161 40.5965 476.161C40.8146 476.243 41.2855 476.161 41.6575 476.161C42.4015 476.161 42.6964 476.161 43.4686 476.161H63.3027C65.7503 476.161 66.1376 473.412 63.5247 472.095C61.1554 470.901 55.9974 468.318 55.7729 468.274C47.8826 468.988 34.9818 467.63 32.4573 465.106C30.5396 467.023 32.3034 476.105 32.3329 476.161Z" fill="#FFA53C"/>
<path d="M38.9601 391.901C35.4578 426.145 33.0996 461.837 33.0996 461.837H46.9529C46.9529 461.837 61.3547 414.414 65.0916 391.901" fill="#FFC6AD"/>
<path d="M84.3511 451.106C83.6777 456.539 83.0055 461.973 82.332 467.405C91.0792 467.219 99.4262 467.927 108.172 468.19C105.295 466.387 97.0184 459.648 97.0184 459.648" fill="#FFC6AD"/>
<path d="M82.3075 474.59H87.2975C87.4873 474.59 87.7988 474.59 88.2841 474.59C89.2257 474.59 89.5224 474.59 90.5711 474.59C90.7892 474.672 91.2601 474.59 91.6321 474.59C92.3761 474.59 92.671 474.59 93.4432 474.59H113.277C115.725 474.59 116.112 471.841 113.499 470.524C111.13 469.329 105.972 466.747 105.747 466.702C97.8572 467.417 84.9564 466.058 82.4319 463.535C80.5142 465.452 82.278 474.534 82.3075 474.59Z" fill="#FFA53C"/>
<path d="M77.127 390.33C79.6857 424.63 84.1547 460.411 84.1547 460.411L96.6437 461.01C96.6437 461.01 100.935 414.78 100.935 390.33" fill="#FFC6AD"/>
<path d="M114.936 404.615C114.936 404.615 106.961 414.657 92.189 411.404C77.4263 408.16 80.0847 416.722 71.8081 418.495C63.5406 420.268 40.5015 405.794 32.8187 419.381C32.8187 419.381 28.2462 367.93 30.3288 335.367C30.8958 326.575 31.9416 319.156 33.705 314.503L69.0523 314.016L76.8325 313.909C76.8325 313.909 76.859 314.078 76.9211 314.414C77.0541 315.115 77.3199 316.542 77.7629 318.58C80.6517 331.99 90.7891 371.759 114.936 404.615Z" fill="#264B89"/>
<path d="M40.0874 357.784L45.7782 338.471C46.5587 335.822 45.0442 333.042 42.3955 332.261L13.3138 323.688C10.6651 322.907 7.88514 324.421 7.10464 327.07L1.41385 346.383C0.633355 349.032 2.14785 351.813 4.79656 352.593L33.8783 361.166C36.527 361.947 39.3069 360.433 40.0874 357.784Z" fill="#D3DFFF"/>
<path d="M40.4593 336.131L39.6094 335.881L37.073 344.489L37.923 344.739L40.4593 336.131Z" fill="#051F39"/>
<path d="M35.1487 334.566L34.2988 334.315L28.1928 355.038L29.0427 355.288L35.1487 334.566Z" fill="#051F39"/>
<path d="M29.8304 333L28.9805 332.749L22.8744 353.471L23.7243 353.722L29.8304 333Z" fill="#051F39"/>
<path d="M24.5238 331.433L23.6738 331.183L17.5678 351.905L18.4177 352.156L24.5238 331.433Z" fill="#051F39"/>
<path d="M19.2073 329.868L18.3574 329.617L13.6918 345.451L14.5417 345.702L19.2073 329.868Z" fill="#051F39"/>
<path d="M99.1895 261.619C99.1895 261.619 100.282 251.088 101.265 251.266C102.248 251.444 102.14 254.017 102.14 254.017C102.14 254.017 104.438 248.144 105.505 248.15C106.573 248.157 105.482 250.552 105.482 250.552C105.482 250.552 106.669 248.15 107.556 248.335C108.442 248.52 107.714 250.558 107.714 250.558C107.714 250.558 108.641 248.589 109.539 248.938C110.437 249.288 109.873 250.901 109.873 250.901C109.873 250.901 110.364 249.624 111.201 250.475C112.038 251.325 107.743 263.657 107.743 263.657L101.689 265.385L99.1895 261.619Z" fill="#FFCCB6"/>
<path d="M107.771 263.69C107.771 263.69 102.49 285.414 89.1715 291.76C86.0522 293.258 82.49 293.905 78.4583 293.231L76.0746 288.986L60.4434 261.173L65.902 259.259C65.902 259.259 78.307 258.737 84.8118 274.025C86.1633 276.02 91.0147 273.44 99.2823 261.032L107.771 263.69Z" fill="url(#paint7_linear_15209_29295)"/>
<path d="M89.1711 291.76C86.0518 293.258 82.4896 293.905 78.4579 293.232L76.0742 288.986L76.6856 278.607C76.6856 278.607 85.724 283.739 89.1711 291.76Z" fill="url(#paint8_linear_15209_29295)"/>
<path d="M34.1529 333.67C34.1529 333.67 32.9577 343.897 31.9117 343.723C30.8657 343.55 30.9924 340.976 30.9924 340.976C30.9924 340.976 28.518 346.862 27.3809 346.86C26.2438 346.858 27.4164 344.458 27.4164 344.458C27.4164 344.458 26.141 346.865 25.198 346.685C24.2549 346.504 25.0395 344.462 25.0395 344.462C25.0395 344.462 24.0433 346.436 23.0884 346.09C22.1335 345.745 22.742 344.129 22.742 344.129C22.742 344.129 22.2129 345.408 21.3258 344.561C20.4385 343.714 25.0703 331.358 25.0703 331.358L31.5255 329.602L34.1529 333.67Z" fill="#FFCCB6"/>
<path d="M55.3441 259.478C29.1296 262.653 21.4129 298.993 24.4036 333.116L34.1511 333.707C34.1511 333.707 35.7755 300.322 49.2151 284.368L60.4393 261.176L55.3441 259.478Z" fill="url(#paint9_linear_15209_29295)"/>
<path d="M60.4394 261.176C60.4394 261.176 73.0987 266.884 78.6049 273.436C85.7693 294.091 77.4228 293.688 77.1275 314.517C55.5229 314.517 45.7026 314.517 36.668 314.517L44.4893 272.55L60.4394 261.176Z" fill="url(#paint10_linear_15209_29295)"/>
<path d="M70.8691 239.943C72.5521 234.071 66.6448 227.202 55.3467 233.037C55.3467 233.037 44.1225 234.957 46.1162 254.456L57.9311 254.9L70.8691 239.943Z" fill="#292466"/>
<path d="M57.709 232.63C59.2534 226.426 52.5141 225.433 51.3909 229.238C51.2412 229.746 47.9569 227.935 47.0383 230.893C45.9854 234.285 49.6445 236.542 53.7776 235.691L57.709 232.63Z" fill="#292466"/>
<path d="M65.9032 247.587V259.26C65.9032 259.26 64.2391 267.287 60.808 267.38C57.3612 267.474 55.3496 259.481 55.3496 259.481L55.6419 247.365L65.9032 247.587Z" fill="#FFCCB6"/>
<path d="M65.9028 251.575V259.065C62.2521 257.478 60.6836 252.683 60.6836 252.683L65.9028 251.575Z" fill="#EDB7A0"/>
<path d="M70.8684 239.943C70.8684 239.943 74.4975 259.109 60.6868 252.683L56.1504 247.476L58.973 236.951L66.2312 235.179L70.8684 239.943Z" fill="#FFCCB6"/>
<path d="M70.8689 239.942C70.8689 239.942 67.9737 235.437 64.3555 237.616C60.7373 239.795 60.9217 247.439 57.1558 245.519C53.3897 243.598 55.5681 237.69 55.5681 237.69L61.1064 233.479L67.3093 234.181L70.8689 239.942Z" fill="#292466"/>
<path d="M57.6887 248.809C58.9424 248.085 59.2893 246.338 58.4635 244.907C57.6376 243.476 55.9517 242.903 54.6979 243.627C53.4441 244.352 53.0972 246.098 53.9231 247.529C54.749 248.96 56.4349 249.533 57.6887 248.809Z" fill="#FFCCB6"/>
<path d="M60.8837 274.471C61.8625 274.471 62.656 273.678 62.656 272.699C62.656 271.719 61.8625 270.926 60.8837 270.926C59.9048 270.926 59.1113 271.719 59.1113 272.699C59.1113 273.678 59.9048 274.471 60.8837 274.471Z" fill="#FF790C"/>
<path d="M456.041 18.4459H483.345C485.079 18.4459 486.487 17.045 486.487 15.3043V3.14163C486.487 1.40747 485.079 0 483.345 0H464.347C462.612 0 461.205 1.40747 461.205 3.14163V13.8723L456.041 18.4459ZM478.269 9.22247C478.269 8.11061 479.173 7.21247 480.285 7.21247C481.397 7.21247 482.302 8.11061 482.302 9.22247C482.302 10.3343 481.397 11.2391 480.285 11.2391C479.173 11.2391 478.269 10.3343 478.269 9.22247ZM471.264 9.22247C471.264 8.11061 472.169 7.21247 473.281 7.21247C474.393 7.21247 475.291 8.11061 475.291 9.22247C475.291 10.3343 474.393 11.2391 473.281 11.2391C472.169 11.2391 471.264 10.3343 471.264 9.22247ZM464.259 9.22247C464.259 8.11061 465.157 7.21247 466.27 7.21247C467.382 7.21247 468.286 8.11061 468.286 9.22247C468.286 10.3343 467.382 11.2391 466.27 11.2391C465.157 11.2391 464.259 10.3343 464.259 9.22247Z" fill="#F2F5F6"/>
<path d="M434.614 4.93911C434.11 5.00878 433.288 4.12758 432.93 3.85361C431.222 2.545 429.189 2.23526 427.091 2.39813C424.444 2.60337 422.548 4.14735 420.895 6.06603C419.737 7.41231 418.523 8.80001 416.898 9.51833C415.209 10.2658 413.146 10.2564 411.763 11.4803C409.99 13.0507 410.025 16.068 408.127 17.4858C407.376 18.047 406.428 18.2644 405.588 18.6843C404.183 19.3876 403.094 20.6971 402.658 22.2072C402.431 22.9915 402.362 23.8482 401.902 24.5232C401.198 25.5532 399.836 25.8337 398.724 26.3986C396.944 27.3033 395.692 29.094 395.243 31.039C394.91 32.4804 394.934 34.1185 393.946 35.219C392.935 36.346 391.124 36.6774 390.64 38.243C390.134 39.8783 391.131 41.0297 391.355 42.5134C391.602 44.1619 390.456 45.1627 390.088 46.7161C389.752 48.1348 390.399 49.7325 391.628 50.5177C392.418 51.0232 393.407 51.2134 394.097 51.8498C395.308 52.9664 395.116 54.9171 395.797 56.4159C396.611 58.2046 398.696 59.1913 400.659 59.0915C402.621 58.9917 404.441 57.9702 405.898 56.6522C407.077 55.5864 408.085 54.3042 409.452 53.4955C411.429 52.3252 414.003 52.2367 415.697 50.6843C416.746 49.7221 417.287 48.3448 417.968 47.0936C418.928 45.3265 419.861 45.125 421.42 44.3267C422.935 43.5509 423.376 42.0982 424.416 40.8518C425.935 39.0329 428.713 38.4106 429.771 36.2914C430.352 35.1277 430.466 34.4103 431.695 33.8502C432.714 33.386 433.773 33.4171 434.804 32.663C436.834 31.1765 438.271 29.5524 438.658 27.0086C438.885 25.5146 439.074 23.8868 440.129 22.8051C440.534 22.3899 441.052 22.0754 441.358 21.584C442.107 20.378 441.268 18.866 440.924 17.4887C440.379 15.3092 441.827 13.6551 441.308 11.5716C440.881 9.8582 440.073 8.01201 438.922 6.65444C437.833 5.36935 436.297 4.7094 434.614 4.93911Z" fill="#292466"/>
<path d="M436.652 122.351L437.607 140.181L440.027 144.916L444.93 140.181L445.779 120.123L436.652 122.351Z" fill="#FFC6AD"/>
<path d="M437.641 140.235C437.641 140.235 436.01 145.455 436.336 146.433C436.662 147.413 451.778 156.765 451.778 156.765C451.778 156.765 452.865 155.025 452.54 153.068C452.214 151.111 445.622 147.949 445.144 140.236C444.913 136.493 440.368 137.963 440.873 140.889C441.268 143.186 437.641 140.235 437.641 140.235Z" fill="#292466"/>
<path d="M452.26 119.783L453.214 137.612L455.634 142.348L460.537 137.612L461.386 117.555L452.26 119.783Z" fill="#FFC6AD"/>
<path d="M453.248 137.666C453.248 137.666 451.617 142.885 451.944 143.864C452.27 144.843 467.386 154.195 467.386 154.195C467.386 154.195 468.474 152.455 468.148 150.498C467.821 148.54 461.23 145.379 460.753 137.666C460.521 133.922 455.977 135.393 456.48 138.319C456.877 140.617 453.248 137.666 453.248 137.666Z" fill="#292466"/>
<path d="M452.375 37.8718C452.375 37.8718 457.864 50.0692 459.287 53.7287C460.711 57.3881 460.913 64.0969 451.358 62.6734C441.804 61.2499 442.82 37.2617 442.82 37.2617L452.375 37.8718Z" fill="#FFC6AD"/>
<path d="M421.458 68.6633C421.458 68.6633 415.439 85.3233 421.666 88.8208C427.893 92.3173 443.667 90.6717 443.667 90.6717L444.289 126.747H465.46L464.214 87.5856C464.214 87.5856 465.114 77.2051 454.874 75.0389C440.209 71.9368 441.512 68.1729 441.512 68.1729L421.458 68.6633Z" fill="#264B89"/>
<path d="M410.095 68.668C410.095 68.668 404.076 85.4795 410.302 89.008C416.529 92.5366 432.303 90.8759 432.303 90.8759L432.925 129.273H454.096L452.85 87.7625C452.85 87.7625 453.956 75.8183 443.51 75.1019C431.093 74.2508 430.334 68.9335 430.334 68.9335L410.095 68.668Z" fill="#3A67B3"/>
<path d="M436.77 28.715C434.611 28.2866 432.772 26.5402 432.23 24.4079C434.285 24.3118 436.099 22.7773 436.903 20.8831C437.707 18.9889 437.619 16.8113 437.066 14.8295C436.513 12.8478 436.634 10.4024 434.544 9.21093C431.43 7.43456 428.577 11.5551 426.745 14.0566C424.913 16.5571 425.401 19.8813 424.145 22.797C424.059 22.9966 422.864 26.0262 422.114 27.3075C421.365 28.5888 420.271 29.7289 418.871 30.2223C421.513 32.1654 424.874 33.121 428.141 32.8386C431.407 32.5571 434.5 31.0818 436.77 28.715Z" fill="#FFC6AD"/>
<path d="M403.238 38.3316L411.351 46.8555L408.056 69.5841L444.649 68.7707L447.409 46.9017L453.437 37.4834C453.437 37.4834 449.546 27.986 433.188 28.4417C418.212 28.8606 406.177 29.3558 403.238 38.3316Z" fill="#80BFFE"/>
<path d="M410.533 61.4962H424.222L428.621 40.2109H456.958L452.559 65.1698H412.654L410.083 62.5751C409.687 62.176 409.971 61.4962 410.533 61.4962Z" fill="#292466"/>
<path d="M403.229 38.0693C403.229 38.0693 399.002 57.5442 397.872 62.8191C396.741 68.0931 397.778 72.5199 409.08 71.3892C420.381 70.2594 422.359 68.5639 427.727 69.7878C433.095 71.0116 434.697 68.1863 434.697 65.9259C434.697 63.6655 434.519 63.3407 434.519 63.3407C434.519 63.3407 429.799 63.3831 423.301 63.8538C416.803 64.3245 407.95 63.6655 407.95 63.6655L411.599 46.4393L403.229 38.0693Z" fill="#FFC6AD"/>
<path d="M441.898 54.0182C443.905 54.0182 445.532 52.9783 445.532 51.6956C445.532 50.4129 443.905 49.373 441.898 49.373C439.891 49.373 438.264 50.4129 438.264 51.6956C438.264 52.9783 439.891 54.0182 441.898 54.0182Z" fill="white"/>
<path d="M423.933 20.4469C424.696 20.5786 426.837 18.4099 427.017 17.3632C427.198 16.3164 426.017 13.9706 425.255 13.8389C424.492 13.7071 423.44 15.1436 423.259 16.1903C423.078 17.237 423.17 20.3151 423.933 20.4469Z" fill="#FFC6AD"/>
<defs>
<filter id="filter0_d_15209_29295" x="11" y="97.21" width="532" height="377.171" filterUnits="userSpaceOnUse" color-interpolation-filters="sRGB">
<feFlood flood-opacity="0" result="BackgroundImageFix"/>
<feColorMatrix in="SourceAlpha" type="matrix" values="0 0 0 0 0 0 0 0 0 0 0 0 0 0 0 0 0 0 127 0" result="hardAlpha"/>
<feOffset dy="15"/>
<feGaussianBlur stdDeviation="20"/>
<feComposite in2="hardAlpha" operator="out"/>
<feColorMatrix type="matrix" values="0 0 0 0 0.117647 0 0 0 0 0.129412 0 0 0 0 0.176471 0 0 0 0.07 0"/>
<feBlend mode="normal" in2="BackgroundImageFix" result="effect1_dropShadow_15209_29295"/>
<feBlend mode="normal" in="SourceGraphic" in2="effect1_dropShadow_15209_29295" result="shape"/>
</filter>
<linearGradient id="paint0_linear_15209_29295" x1="57.9904" y1="81.5692" x2="416.504" y2="484.446" gradientUnits="userSpaceOnUse">
<stop stop-color="#FFF1EA"/>
<stop offset="1" stop-color="#FFF1EA" stop-opacity="0"/>
</linearGradient>
<linearGradient id="paint1_linear_15209_29295" x1="531.526" y1="63.4216" x2="513.94" y2="76.8153" gradientUnits="userSpaceOnUse">
<stop stop-color="#FAB882"/>
<stop offset="1" stop-color="#FF7300"/>
</linearGradient>
<linearGradient id="paint2_linear_15209_29295" x1="498.807" y1="51.8585" x2="482.359" y2="64.3852" gradientUnits="userSpaceOnUse">
<stop stop-color="#FAB882"/>
<stop offset="1" stop-color="#FF7300"/>
</linearGradient>
<linearGradient id="paint3_linear_15209_29295" x1="523.68" y1="111.34" x2="508.134" y2="123.179" gradientUnits="userSpaceOnUse">
<stop stop-color="#FAB882"/>
<stop offset="1" stop-color="#FF7300"/>
</linearGradient>
<linearGradient id="paint4_linear_15209_29295" x1="391.526" y1="405.422" x2="373.94" y2="418.815" gradientUnits="userSpaceOnUse">
<stop stop-color="#FAB882"/>
<stop offset="1" stop-color="#FF7300"/>
</linearGradient>
<linearGradient id="paint5_linear_15209_29295" x1="358.807" y1="393.859" x2="342.359" y2="406.385" gradientUnits="userSpaceOnUse">
<stop stop-color="#FAB882"/>
<stop offset="1" stop-color="#FF7300"/>
</linearGradient>
<linearGradient id="paint6_linear_15209_29295" x1="383.68" y1="453.34" x2="368.134" y2="465.179" gradientUnits="userSpaceOnUse">
<stop stop-color="#FAB882"/>
<stop offset="1" stop-color="#FF7300"/>
</linearGradient>
<linearGradient id="paint7_linear_15209_29295" x1="107.755" y1="276.573" x2="60.4007" y2="276.573" gradientUnits="userSpaceOnUse">
<stop stop-color="#FAB882"/>
<stop offset="1" stop-color="#FF7300"/>
</linearGradient>
<linearGradient id="paint8_linear_15209_29295" x1="89.1665" y1="286.138" x2="76.0624" y2="286.138" gradientUnits="userSpaceOnUse">
<stop stop-color="#FAB882"/>
<stop offset="1" stop-color="#FF7300"/>
</linearGradient>
<linearGradient id="paint9_linear_15209_29295" x1="60.4266" y1="297.017" x2="23.7639" y2="297.017" gradientUnits="userSpaceOnUse">
<stop stop-color="#FAB882"/>
<stop offset="1" stop-color="#FF7300"/>
</linearGradient>
<linearGradient id="paint10_linear_15209_29295" x1="83.3252" y1="292.623" x2="30.7069" y2="292.623" gradientUnits="userSpaceOnUse">
<stop stop-color="#FAB882"/>
<stop offset="1" stop-color="#FD8D31"/>
</linearGradient>
</defs>
</svg>
