<svg width="60" height="60" viewBox="0 0 60 60" fill="none" xmlns="http://www.w3.org/2000/svg">
<rect x="0.5" y="0.5" width="59" height="59" rx="7.5" fill="white" stroke="#D8DEE6"/>
<path d="M32.3826 35.0004H17.3326C14.2993 35.0004 12.3659 31.7504 13.8326 29.0838L17.7159 22.0171L21.3493 15.4004C22.8659 12.6504 26.8326 12.6504 28.3493 15.4004L31.9993 22.0171L33.7493 25.2004L35.8826 29.0838C37.3493 31.7504 35.4159 35.0004 32.3826 35.0004Z" stroke="#FF7300" stroke-width="2" stroke-linecap="round" stroke-linejoin="round"/>
<path d="M46.6667 35.8333C46.6667 41.8167 41.8167 46.6667 35.8333 46.6667C29.85 46.6667 25 41.8167 25 35.8333C25 35.55 25.0167 35.2833 25.0333 35H32.3833C35.4167 35 37.35 31.75 35.8833 29.0834L33.75 25.2C34.4167 25.0667 35.1167 25 35.8333 25C41.8167 25 46.6667 29.85 46.6667 35.8333Z" stroke="#0061BF" stroke-width="2" stroke-linecap="round" stroke-linejoin="round"/>
</svg>
