<svg width="1920" height="635" viewBox="0 0 1920 635" fill="none" xmlns="http://www.w3.org/2000/svg">
<rect width="1920" height="635" transform="matrix(-1 0 0 1 1920 0)" fill="url(#paint0_linear_15318_34701)"/>
<path opacity="0.1" d="M107.711 168.643L74 116.015L130.719 116.498L107.711 168.643Z" stroke="#FF7300" stroke-width="2"/>
<path opacity="0.1" d="M126.92 180.091L93.209 127.462L149.928 127.945L126.92 180.091Z" stroke="#FF7300" stroke-width="2"/>
<g opacity="0.1" clip-path="url(#clip0_15318_34701)">
<path d="M1782.21 550.683L1775.62 557.281C1772.88 560.017 1768.45 560.017 1765.72 557.282C1762.98 554.548 1762.98 550.117 1765.72 547.384L1778.92 534.184C1781.65 531.451 1786.08 531.451 1788.81 534.184C1789.72 535.096 1791.2 535.096 1792.11 534.184C1793.02 533.273 1793.02 531.796 1792.11 530.885C1787.56 526.329 1780.17 526.329 1775.62 530.885L1762.42 544.084C1757.86 548.64 1757.86 556.025 1762.42 560.581C1766.97 565.139 1774.36 565.139 1778.92 560.581L1785.51 553.983C1786.43 553.071 1786.43 551.594 1785.51 550.683C1784.6 549.772 1783.13 549.772 1782.21 550.683Z" fill="#FF7300"/>
<path d="M1811.58 527.915C1816.14 523.359 1816.14 515.974 1811.58 511.418C1807.03 506.862 1799.64 506.862 1795.08 511.417L1787.16 519.335C1786.25 520.246 1786.25 521.723 1787.16 522.635C1788.08 523.546 1789.55 523.546 1790.46 522.635L1798.38 514.718C1801.12 511.984 1805.55 511.984 1808.28 514.718C1811.01 517.451 1811.01 521.882 1808.28 524.615L1793.76 539.133C1791.03 541.866 1786.6 541.866 1783.87 539.133C1782.95 538.222 1781.48 538.222 1780.57 539.133C1779.66 540.044 1779.66 541.521 1780.57 542.433C1785.12 546.988 1792.51 546.988 1797.06 542.433L1811.58 527.915Z" fill="#FF7300"/>
<path d="M1802.65 548.35C1801.74 547.439 1800.26 547.439 1799.35 548.35C1798.44 549.262 1798.44 550.739 1799.35 551.65L1806.35 558.648C1807.26 559.559 1808.74 559.559 1809.65 558.648C1810.56 557.737 1810.56 556.259 1809.65 555.348L1802.65 548.35Z" fill="#FF7300"/>
<path d="M1771.35 523.653C1772.26 524.564 1773.74 524.564 1774.65 523.653C1775.56 522.742 1775.56 521.264 1774.65 520.353L1767.65 513.348C1766.74 512.437 1765.26 512.437 1764.35 513.348C1763.44 514.26 1763.44 515.737 1764.35 516.648L1771.35 523.653Z" fill="#FF7300"/>
<path d="M1812.67 543H1805.67C1804.38 543 1803.33 544.045 1803.33 545.333C1803.33 546.622 1804.38 547.667 1805.67 547.667H1812.67C1813.95 547.667 1815 546.622 1815 545.333C1815 544.045 1813.95 543 1812.67 543Z" fill="#FF7300"/>
<path d="M1777.67 519.667C1778.95 519.667 1780 518.622 1780 517.333V510.333C1780 509.045 1778.95 508 1777.67 508C1776.38 508 1775.33 509.045 1775.33 510.333V517.333C1775.33 518.622 1776.38 519.667 1777.67 519.667Z" fill="#FF7300"/>
<path d="M1761.33 529H1768.33C1769.62 529 1770.67 527.955 1770.67 526.666C1770.67 525.378 1769.62 524.333 1768.33 524.333H1761.33C1760.04 524.333 1759 525.378 1759 526.666C1759 527.955 1760.04 529 1761.33 529Z" fill="#FF7300"/>
<path d="M1796.33 552.333C1795.04 552.333 1794 553.378 1794 554.666V561.666C1794 562.955 1795.04 563.999 1796.33 563.999C1797.62 563.999 1798.67 562.955 1798.67 561.666V554.666C1798.67 553.378 1797.62 552.333 1796.33 552.333Z" fill="#FF7300"/>
</g>
<defs>
<linearGradient id="paint0_linear_15318_34701" x1="960" y1="0" x2="960" y2="635" gradientUnits="userSpaceOnUse">
<stop stop-color="#FFF6EE" stop-opacity="0.71"/>
<stop offset="1" stop-color="#FFECDC"/>
</linearGradient>
<clipPath id="clip0_15318_34701">
<rect width="56" height="56" fill="white" transform="translate(1759 508)"/>
</clipPath>
</defs>
</svg>
