<svg width="520" height="520" viewBox="0 0 520 520" fill="none" xmlns="http://www.w3.org/2000/svg">
<circle cx="260" cy="260" r="260" transform="matrix(-1 0 0 1 520 0)" fill="url(#paint0_linear_15053_26267)"/>
<g clip-path="url(#clip0_15053_26267)">
<path opacity="0.2" d="M390.929 101.659L390.912 100.65C393.181 100.615 395.416 99.9858 397.358 98.8302L397.867 99.6926C395.779 100.943 393.38 101.624 390.929 101.659ZM383.931 99.9255C381.79 98.7526 379.987 97.0278 378.71 94.9495L379.564 94.4234C380.755 96.3552 382.429 97.9506 384.414 99.0458L383.931 99.9255ZM402.941 94.57L402.07 94.0699C403.192 92.1122 403.787 89.87 403.787 87.602C403.787 87.326 403.778 87.05 403.761 86.7741L404.762 86.7137C404.779 87.0069 404.788 87.3001 404.788 87.602C404.788 90.0425 404.15 92.4572 402.941 94.57ZM376.639 88.0418C376.63 87.8952 376.63 87.7399 376.63 87.5933C376.63 85.308 377.191 83.0313 378.261 81.022L379.15 81.4963C378.157 83.3677 377.64 85.4805 377.64 87.602C377.64 87.74 377.64 87.8779 377.648 88.0159L376.639 88.0418ZM401.63 80.4183C400.378 78.521 398.652 76.9774 396.633 75.9511L397.091 75.0543C399.265 76.1581 401.121 77.8225 402.467 79.8664L401.63 80.4183ZM383.697 76.5721L383.154 75.7269C385.216 74.4161 387.589 73.6658 390.032 73.5537L390.075 74.5541C387.814 74.6576 385.605 75.3561 383.697 76.5721Z" fill="#FF7300"/>
<path opacity="0.2" d="M87.8715 302.256C86.6066 302.187 85.3463 302.013 84.1181 301.741L84.2331 301.217C85.4336 301.484 86.6664 301.654 87.8991 301.723L87.8715 302.256ZM91.6616 302.16L91.6064 301.627C92.8346 301.498 94.0581 301.268 95.2448 300.942L95.3874 301.456C94.1685 301.792 92.9174 302.026 91.6616 302.16ZM80.4936 300.615C79.3206 300.146 78.1799 299.572 77.1036 298.919L77.3842 298.459C78.4375 299.098 79.5506 299.659 80.696 300.119L80.4936 300.615ZM98.943 300.155L98.7176 299.668C99.8353 299.153 100.921 298.542 101.942 297.848L102.241 298.289C101.201 299.002 100.088 299.631 98.943 300.155ZM74.0356 296.698C73.0789 295.88 72.1773 294.974 71.3632 294.009L71.7725 293.664C72.5683 294.607 73.4468 295.489 74.3806 296.289L74.0356 296.698ZM105.199 295.926L104.831 295.535C105.728 294.689 106.56 293.761 107.31 292.782L107.738 293.108C106.969 294.11 106.114 295.057 105.199 295.926ZM69.1645 290.929C68.516 289.849 67.9548 288.704 67.4902 287.532L67.987 287.334C68.4378 288.479 68.9897 289.596 69.6199 290.653L69.1645 290.929ZM109.78 289.922L109.306 289.669C109.886 288.58 110.378 287.44 110.773 286.268L111.279 286.438C110.879 287.637 110.373 288.81 109.78 289.922ZM66.3955 283.905C66.1333 282.677 65.9677 281.413 65.9033 280.149L66.4369 280.121C66.4967 281.358 66.6577 282.59 66.9153 283.79L66.3955 283.905ZM112.195 282.765L111.666 282.677C111.864 281.468 111.965 280.227 111.965 278.99C111.965 278.236 111.928 277.473 111.854 276.729L112.388 276.678C112.461 277.441 112.503 278.223 112.503 278.995C112.503 280.254 112.397 281.528 112.195 282.765ZM66.5519 276.425L66.0183 276.365C66.1609 275.11 66.4047 273.86 66.7451 272.646L67.2602 272.793C66.9291 273.975 66.6899 275.198 66.5519 276.425ZM111.192 273.088C110.875 271.897 110.451 270.725 109.945 269.603L110.433 269.382C110.953 270.532 111.385 271.731 111.712 272.95L111.192 273.088ZM68.5573 269.323L68.0744 269.093C68.6125 267.953 69.2473 266.845 69.9603 265.806L70.4018 266.109C69.7027 267.13 69.0817 268.21 68.5573 269.323ZM108.147 266.367C107.462 265.341 106.689 264.367 105.847 263.466L106.238 263.103C107.098 264.027 107.889 265.024 108.589 266.072L108.147 266.367ZM72.7385 263.241L72.3521 262.868C73.226 261.958 74.1782 261.112 75.1855 260.354L75.5075 260.781C74.5232 261.526 73.594 262.349 72.7385 263.241ZM103.11 260.974C102.135 260.22 101.091 259.54 100.006 258.956L100.258 258.487C101.367 259.085 102.439 259.784 103.437 260.556L103.11 260.974ZM78.6399 258.809L78.3915 258.335C79.5092 257.752 80.6868 257.255 81.8827 256.86L82.0529 257.37C80.8799 257.752 79.73 258.234 78.6399 258.809ZM96.6155 257.462C95.4518 257.062 94.2467 256.754 93.0278 256.547L93.1197 256.018C94.3663 256.23 95.599 256.547 96.7903 256.956L96.6155 257.462ZM85.6452 256.497L85.5624 255.968C86.7492 255.784 87.9681 255.688 89.1732 255.688C89.1778 255.688 89.1778 255.688 89.1824 255.688H89.3388L89.3342 256.225H89.1824C88.0187 256.216 86.8136 256.317 85.6452 256.497Z" fill="#FF7300"/>
<path opacity="0.2" d="M312.381 133.548C309.947 133.367 307.617 132.694 305.468 131.556L305.943 130.668C307.971 131.746 310.163 132.375 312.458 132.548L312.381 133.548ZM319.517 132.617L319.189 131.668C321.355 130.909 323.306 129.736 324.997 128.167L325.679 128.9C323.884 130.573 321.813 131.815 319.517 132.617ZM299.937 126.959C298.418 125.045 297.331 122.889 296.701 120.543L297.676 120.284C298.263 122.501 299.29 124.536 300.731 126.338L299.937 126.959ZM329.838 123.053L328.915 122.647C329.83 120.552 330.296 118.318 330.296 116.016H331.305C331.305 118.456 330.813 120.828 329.838 123.053ZM330.201 114.205C329.95 111.919 329.251 109.755 328.104 107.763L328.975 107.262C330.192 109.375 330.943 111.678 331.202 114.101L330.201 114.205ZM297.305 113.515L296.312 113.359C296.675 110.953 297.521 108.685 298.824 106.624L299.678 107.159C298.453 109.108 297.65 111.247 297.305 113.515ZM323.599 102.7C321.752 101.329 319.681 100.372 317.446 99.8545L317.671 98.8714C320.044 99.4147 322.236 100.432 324.203 101.89L323.599 102.7ZM304.398 102.295L303.829 101.467C305.848 100.096 308.083 99.1732 310.482 98.7334L310.663 99.7165C308.411 100.13 306.297 101.001 304.398 102.295Z" fill="#FF7300"/>
<g opacity="0.1">
<path d="M364.064 74.0281C364.064 77.3569 361.363 80.0561 358.032 80.0561C354.701 80.0561 352 77.3569 352 74.0281C352 70.6993 354.701 68 358.032 68C361.363 68 364.064 70.6993 364.064 74.0281Z" fill="url(#paint1_linear_15053_26267)"/>
</g>
<path d="M429.963 144.44H393.071C390.633 144.44 388.648 146.309 388.648 148.625V171.133C388.648 173.44 390.623 175.318 393.071 175.318H404.051H408.065L405.908 188.422L413.674 181.523L418.982 175.318H429.963C432.401 175.318 434.385 173.449 434.385 171.133V148.625C434.385 146.309 432.401 144.44 429.963 144.44Z" fill="#0061BF"/>
<path d="M406.839 168.155C409.756 168.517 412.725 168.535 415.65 168.207C416.358 168.129 417.082 168.026 417.678 167.646C418.282 167.276 418.722 166.62 418.567 165.93C419.102 165.922 419.533 165.525 419.913 165.154C420.068 164.999 420.224 164.844 420.319 164.645C420.431 164.421 420.448 164.162 420.431 163.912C420.388 163.119 420.016 162.386 419.326 161.998C419.956 161.808 420.482 161.291 420.672 160.661C420.862 160.032 420.715 159.307 420.293 158.798C420.016 158.462 419.671 158.298 419.274 158.134C419.559 157.876 419.965 157.746 420.189 157.436C420.5 157.005 420.336 156.349 419.939 155.987C419.542 155.625 418.99 155.495 418.455 155.444C417.479 155.357 416.504 155.487 415.529 155.521C414.554 155.556 413.501 155.375 412.638 154.926C412.448 153.641 412.759 152.296 412.414 151.045C411.991 149.51 410.515 148.32 408.928 148.225C408.626 148.208 408.28 148.243 408.082 148.476C407.935 148.648 407.909 148.89 407.909 149.114C407.901 150.149 408.298 151.149 408.531 152.158C408.772 153.167 408.833 154.314 408.237 155.168C408.004 155.504 407.685 155.771 407.495 156.134C407.236 156.625 407.262 157.22 407.124 157.763C406.986 158.307 406.563 158.876 406.011 158.816L406.839 168.155Z" fill="white"/>
<path d="M406.365 169.242H402.879C402.611 169.242 402.387 169.026 402.387 168.75V156.608C402.387 156.34 402.602 156.116 402.879 156.116H406.365C406.632 156.116 406.857 156.332 406.857 156.608V168.75C406.857 169.026 406.641 169.242 406.365 169.242Z" fill="white"/>
<path d="M405.062 157.754C405.062 158.056 404.82 158.298 404.518 158.298C404.216 158.298 403.975 158.056 403.975 157.754C403.975 157.452 404.216 157.211 404.518 157.211C404.812 157.211 405.062 157.452 405.062 157.754Z" fill="white"/>
<path d="M343.007 418.473H183.136C173.419 418.473 165.54 410.599 165.54 400.888V129.582C165.54 119.872 173.419 111.998 183.136 111.998H343.007C352.724 111.998 360.602 119.872 360.602 129.582V400.888C360.602 410.599 352.724 418.473 343.007 418.473Z" fill="#EBEFF2"/>
<path d="M283.8 119.431H242.376C241.185 119.431 240.22 120.396 240.22 121.587C240.22 122.777 241.185 123.743 242.376 123.743H283.8C284.991 123.743 285.956 122.777 285.956 121.587C285.956 120.396 284.991 119.431 283.8 119.431Z" fill="#AAB4BE"/>
<path d="M280.161 402.251H245.973C243.568 402.251 241.618 404.201 241.618 406.606C241.618 409.011 243.568 410.961 245.973 410.961H280.161C282.566 410.961 284.516 409.011 284.516 406.606C284.516 404.201 282.566 402.251 280.161 402.251Z" fill="#AAB4BE"/>
<path d="M345.908 131.756H180.226C174.703 131.756 170.226 136.233 170.226 141.756V385.792C170.226 391.315 174.703 395.792 180.226 395.792H345.908C351.43 395.792 355.908 391.315 355.908 385.792V141.756C355.908 136.233 351.43 131.756 345.908 131.756Z" fill="white"/>
<path d="M186.734 332.682C190.852 332.682 194.19 329.346 194.19 325.231C194.19 321.116 190.852 317.78 186.734 317.78C182.616 317.78 179.278 321.116 179.278 325.231C179.278 329.346 182.616 332.682 186.734 332.682Z" fill="#EBEFF2"/>
<path d="M187.598 386.15C191.715 386.15 195.053 382.814 195.053 378.699C195.053 374.584 191.715 371.248 187.598 371.248C183.48 371.248 180.142 374.584 180.142 378.699C180.142 382.814 183.48 386.15 187.598 386.15Z" fill="#EBEFF2"/>
<path d="M209.938 332.682C214.056 332.682 217.394 329.346 217.394 325.231C217.394 321.116 214.056 317.78 209.938 317.78C205.821 317.78 202.482 321.116 202.482 325.231C202.482 329.346 205.821 332.682 209.938 332.682Z" fill="#EBEFF2"/>
<path d="M262.827 319.453H226.968C225.904 319.453 225.041 320.316 225.041 321.381C225.041 322.445 225.904 323.308 226.968 323.308H262.827C263.891 323.308 264.754 322.445 264.754 321.381C264.754 320.316 263.891 319.453 262.827 319.453Z" fill="#D8DEE6"/>
<path d="M343.591 340.987H182.544C181.479 340.987 180.616 341.85 180.616 342.915C180.616 343.979 181.479 344.842 182.544 344.842H343.591C344.655 344.842 345.518 343.979 345.518 342.915C345.518 341.85 344.655 340.987 343.591 340.987Z" fill="#D8DEE6"/>
<path d="M321.771 348.826H182.833C181.642 348.826 180.677 349.791 180.677 350.982C180.677 352.173 181.642 353.138 182.833 353.138H321.771C322.962 353.138 323.927 352.173 323.927 350.982C323.927 349.791 322.962 348.826 321.771 348.826Z" fill="#D8DEE6"/>
<path d="M257.913 356.588H182.833C181.642 356.588 180.677 357.553 180.677 358.744C180.677 359.935 181.642 360.9 182.833 360.9H257.913C259.103 360.9 260.069 359.935 260.069 358.744C260.069 357.553 259.103 356.588 257.913 356.588Z" fill="#D8DEE6"/>
<path d="M267.405 376.423H204.406C203.215 376.423 202.25 377.388 202.25 378.579C202.25 379.77 203.215 380.735 204.406 380.735H267.405C268.595 380.735 269.56 379.77 269.56 378.579C269.56 377.388 268.595 376.423 267.405 376.423Z" fill="#D8DEE6"/>
<path d="M287.128 326.655H226.968C225.904 326.655 225.041 327.518 225.041 328.583C225.041 329.647 225.904 330.51 226.968 330.51H287.128C288.192 330.51 289.055 329.647 289.055 328.583C289.055 327.518 288.192 326.655 287.128 326.655Z" fill="#D8DEE6"/>
<path d="M355.909 187.362H170.227V307.941H355.909V187.362Z" fill="#EBEFF2"/>
<path d="M323.151 209.465C323.151 210.155 322.59 210.724 321.891 210.724C321.2 210.724 320.631 210.164 320.631 209.465C320.631 208.767 321.192 208.206 321.891 208.206C322.59 208.215 323.151 208.775 323.151 209.465Z" fill="#FF9F9E"/>
<path opacity="0.1" d="M188.012 288.458C191.587 288.458 194.484 285.563 194.484 281.99C194.484 278.418 191.587 275.522 188.012 275.522C184.438 275.522 181.54 278.418 181.54 281.99C181.54 285.563 184.438 288.458 188.012 288.458Z" fill="#292466"/>
<path opacity="0.1" d="M333.852 235.853C337.426 235.853 340.324 232.957 340.324 229.385C340.324 225.813 337.426 222.917 333.852 222.917C330.278 222.917 327.38 225.813 327.38 229.385C327.38 232.957 330.278 235.853 333.852 235.853Z" fill="#292466"/>
<path opacity="0.1" d="M195.779 296.219C197.923 296.219 199.662 294.482 199.662 292.339C199.662 290.196 197.923 288.458 195.779 288.458C193.634 288.458 191.896 290.196 191.896 292.339C191.896 294.482 193.634 296.219 195.779 296.219Z" fill="#292466"/>
<path opacity="0.1" d="M341.619 243.614C343.763 243.614 345.502 241.877 345.502 239.733C345.502 237.59 343.763 235.853 341.619 235.853C339.474 235.853 337.735 237.59 337.735 239.733C337.735 241.877 339.474 243.614 341.619 243.614Z" fill="#292466"/>
<path d="M337.856 290.857C336.121 290.857 334.715 289.452 334.715 287.718C334.715 285.985 336.121 284.579 337.856 284.579C339.591 284.579 340.997 285.985 340.997 287.718C340.997 289.452 339.591 290.857 337.856 290.857ZM337.856 285.579C336.674 285.579 335.716 286.537 335.716 287.718C335.716 288.9 336.674 289.857 337.856 289.857C339.038 289.857 339.996 288.9 339.996 287.718C339.987 286.537 339.03 285.579 337.856 285.579Z" fill="#FF9F9E"/>
<path d="M239.194 285.322C239.194 285.322 232.186 296.917 230.132 306.944H277.393C277.393 306.944 273.764 289.552 269.656 285.44L239.194 285.322Z" fill="#3A67B3"/>
<path d="M293.569 237.678L287.737 237.852C287.737 237.852 285.851 246.423 283.268 257.862C282.415 256.506 281.612 255.225 280.878 254.031C278.276 259.125 275.089 263.871 271.653 268.443C273.602 271.746 275.836 275.347 278.376 279.104C278.413 279.154 278.444 279.21 278.481 279.26C282.988 285.903 293.382 283.464 294.44 275.509C294.453 275.416 294.465 275.328 294.478 275.235C296.059 263.305 296.326 250.236 293.569 237.678Z" fill="#FBC4BB"/>
<path d="M290.122 229.048C289.991 227.531 289.792 225.945 289.543 225.994C289.132 226.081 288.889 227.139 288.715 228.482C289.194 228.632 289.667 228.824 290.122 229.048Z" fill="#F28766"/>
<path d="M292.586 230.915C292.561 229.285 292.442 226.094 291.901 225.802C291.478 225.572 291.011 227.612 290.693 229.36C291.434 229.795 292.094 230.324 292.586 230.915Z" fill="#F28766"/>
<path d="M296.649 228.757C296.263 229.037 295.61 229.821 294.769 232.035C294.769 232.035 295.336 227.053 294.776 226.344C294.328 225.784 293.22 229.578 292.778 231.177C293.058 231.556 293.276 231.961 293.394 232.378C293.568 233.018 293.612 233.597 293.55 234.113C294.24 235.985 293.089 238.181 291.091 238.865C290.313 239.133 289.516 239.17 288.726 239.064C288.109 239.276 287.45 239.338 286.858 239.238C287.307 240.028 287.848 240.831 288.502 241.627L292.56 240.856C292.56 240.856 297.004 232.471 297.06 228.963C297.06 228.739 296.836 228.627 296.649 228.757Z" fill="#FBC4BB"/>
<path d="M282.409 266.9C282.359 265.382 282.428 263.871 282.533 262.366C282.583 261.613 282.658 260.86 282.733 260.114C282.814 259.367 282.901 258.615 283.006 257.868L283.592 258.061C282.857 259.181 282.11 260.288 281.264 261.339C281.793 260.095 282.409 258.913 283.05 257.738L283.722 256.5L283.635 257.931C283.592 258.683 283.523 259.436 283.455 260.182C283.374 260.935 283.299 261.681 283.199 262.428C282.994 263.927 282.758 265.42 282.409 266.9Z" fill="#EDB1A8"/>
<path d="M284.469 226.654L291.465 239.748C291.764 240.314 292.417 240.587 293.033 240.413C294.322 240.052 296.37 239.237 296.874 237.589C297.627 235.132 291.309 222.903 291.309 222.903L284.469 226.654Z" fill="#0061BF"/>
<path d="M276.95 209.66L274.584 210.369C273.869 210.581 273.427 211.29 273.539 212.024C273.862 214.164 274.809 218.841 277.497 225.055C277.796 225.752 278.574 226.113 279.296 225.895L281.394 225.267L276.95 209.66Z" fill="#004689"/>
<path d="M288.596 203.333L277.454 206.661C275.817 207.152 275.88 212.197 277.597 217.926C279.315 223.661 282.029 227.909 283.672 227.418L294.814 224.09L288.596 203.333Z" fill="#0061BF"/>
<path d="M294.671 212.826C296.389 218.561 296.451 223.599 294.814 224.09C293.177 224.582 290.457 220.327 288.739 214.598C287.021 208.863 286.959 203.825 288.596 203.334C290.233 202.848 292.953 207.097 294.671 212.826Z" fill="#004689"/>
<path opacity="0.2" d="M309.609 189.936L288.976 205.847L289.044 207.265C289.312 212.652 291.042 218.02 293.961 222.511L319.68 222.666L309.609 189.936Z" fill="#0061BF"/>
<path d="M322.748 203.876L322.748 203.876C324.101 208.392 324.483 212.709 324.025 216.027C323.56 219.393 322.271 221.529 320.488 222.063C319.111 222.475 317.455 221.933 315.715 220.454C313.987 218.985 312.264 216.66 310.809 213.736L310.809 213.736C309.963 212.04 309.214 210.145 308.599 208.105C308.052 206.269 307.66 204.459 307.421 202.743C306.954 199.37 307.076 196.348 307.704 194.068C308.337 191.77 309.445 190.342 310.859 189.918C312.645 189.386 314.898 190.464 317.137 193.022C319.344 195.544 321.397 199.36 322.748 203.876Z" fill="#D4E1ED" stroke="#0061BF"/>
<path d="M314.806 202.191L317.041 209.656L310.368 213.966C309.509 212.243 308.75 210.321 308.128 208.256C307.574 206.396 307.175 204.561 306.933 202.82L314.806 202.191Z" fill="#0061BF"/>
<path d="M317.626 205.413C318.242 207.471 317.981 209.375 317.041 209.655C316.101 209.935 314.838 208.491 314.221 206.433C313.605 204.374 313.867 202.47 314.806 202.19C315.746 201.904 317.01 203.347 317.626 205.413Z" fill="#00498E"/>
<path d="M287.425 240.537C287.425 240.537 285.01 235.225 285.247 234.012C285.49 232.805 288.241 229.844 289.535 230.33C290.836 230.815 288.838 234.559 288.838 234.559C288.838 234.559 292.069 238.484 291.708 240.481C291.353 242.471 287.425 240.537 287.425 240.537Z" fill="#FBC4BB"/>
<path d="M263.83 236.258C263.83 236.258 274.374 241.837 276.185 244.008C277.996 246.185 282.832 256.448 282.832 256.448L272.313 270.581C272.313 270.581 261.085 253.855 263.83 236.258Z" fill="#5BA7F4"/>
<path d="M265.921 239.922C265.473 239.176 265.33 238.442 265.405 237.764C264.807 237.335 264.278 236.856 263.799 236.277C263.612 235.605 263.183 233.963 262.859 232.116C262.573 230.461 262.367 228.645 262.51 227.214V227.208C262.579 226.505 262.728 225.896 262.996 225.448L246.975 216.447C246.987 216.503 246.993 216.547 247.006 216.603C247.261 218.089 249.19 229.752 247.211 235.941C246.004 236.495 244.522 236.887 242.686 236.955C240.707 237.024 238.765 237.726 237.327 239.082C235.771 240.544 234.389 243.007 234.364 247.113C235.833 247.293 237.296 247.585 238.759 247.847C243.128 248.63 247.491 249.47 251.873 250.192C257.519 251.125 263.313 251.33 269.027 251.964C268.772 247.71 267.938 243.3 265.921 239.922Z" fill="#FBC4BB"/>
<path d="M262.859 232.114C254.151 233.215 249.738 222.822 249.576 222.43C251.182 224.98 253.516 226.274 255.794 226.883C258.595 227.648 261.315 227.393 262.46 227.225C262.479 227.219 262.498 227.219 262.516 227.213C262.367 228.644 262.566 230.46 262.859 232.114Z" fill="#EDB2A8"/>
<path d="M246.812 235.797C246.812 235.797 257.088 247.149 260.107 245.339C263.126 243.529 263.891 236.599 263.891 236.599C263.891 236.599 274.249 245.575 275.699 248.474C277.149 251.372 277.031 257.051 273.402 265.99C269.773 274.928 271.136 287.008 271.136 287.008H237.986C237.986 287.008 240.768 281.21 239.922 274.443C239.075 267.681 231.096 246.054 231.096 246.054C231.096 246.054 229.527 236.158 246.812 235.797Z" fill="#80BFFE"/>
<path d="M227.661 266.415C226.982 265.78 226.298 265.158 225.625 264.524C222.507 261.569 219.289 258.758 216.202 255.815C215.343 256.748 214.472 257.713 213.588 258.708C211.596 260.953 209.567 263.354 207.538 265.892C204.955 269.133 204.849 273.692 207.282 277.051C208.895 279.272 210.588 281.48 212.38 283.644C217.59 289.952 223.559 295.904 230.35 300.837L234.582 296.837C234.582 296.837 228.644 286.245 221.524 273.275C223.627 270.918 225.688 268.617 227.661 266.415Z" fill="#FBC4BB"/>
<path d="M230.069 299.643C230.069 299.643 232.316 308.861 234.607 311.517C234.756 311.685 234.999 311.623 235.049 311.405C235.155 310.939 235.117 309.919 234.277 307.71C234.277 307.71 237.165 311.816 238.055 311.971C238.945 312.127 236.02 306.392 236.02 306.392C236.02 306.392 239.754 310.659 240.563 310.466C241.373 310.279 237.806 304.961 237.806 304.961C237.806 304.961 241.908 309.135 242.194 308.749C242.904 307.791 237.302 301.776 237.999 301.254C238.615 300.794 240.464 301.627 241.335 302.218C241.516 302.342 241.752 302.286 241.852 302.087C242.045 301.696 242.163 301.011 241.292 300.333C239.947 299.282 237.009 297.062 232.596 296.371L230.069 299.643Z" fill="#FBC4BB"/>
<path d="M218.767 270.464C219.433 270.725 219.943 271.142 220.41 271.596C220.864 272.069 221.281 272.573 221.543 273.238C220.877 272.977 220.366 272.56 219.893 272.106C219.445 271.639 219.028 271.129 218.767 270.464Z" fill="#EDB1A8"/>
<path d="M213.326 258.266L225.414 269.382L240.645 253.676C240.645 253.676 241.634 237.379 238.366 237.087C233.518 236.645 217.92 251.623 213.326 258.266Z" fill="#5BA7F4"/>
<path d="M271.05 212.614C270.869 207.892 270.297 203.041 268.672 198.861C266.581 193.486 256.715 191.396 249.844 197.368C246.651 200.142 245.978 205.174 246.165 209.765C245.997 209.684 245.848 209.622 245.754 209.597C244.354 209.248 242.947 210.3 242.53 211.618C242.194 212.663 242.424 213.851 243.022 214.772C243.52 215.537 244.329 216.252 245.188 216.582C245.406 216.663 246.371 216.825 247.055 216.769C247.715 219.792 249.252 222.578 251.636 224.556C254.643 227.051 258.489 228.052 262.317 227.256C265.292 226.64 269.693 224.737 270.788 221.645C271.075 220.837 271.1 219.972 271.112 219.12C271.118 218.921 271.118 218.728 271.118 218.529C271.131 216.626 271.131 214.629 271.05 212.614Z" fill="#FBC4BB"/>
<path d="M260.518 203.387C260.108 203.02 259.641 202.902 259.149 202.884C258.664 202.871 258.166 202.927 257.693 203.089C257.213 203.232 256.778 203.499 256.41 203.823C256.031 204.134 255.757 204.544 255.533 204.942C255.421 205.148 255.495 205.403 255.695 205.515C255.856 205.608 256.056 205.577 256.186 205.459L256.224 205.428C256.51 205.166 256.784 204.917 257.095 204.737C257.394 204.538 257.724 204.426 258.06 204.339C258.396 204.264 258.744 204.221 259.105 204.239C259.46 204.252 259.834 204.271 260.22 204.177L260.332 204.152C260.568 204.096 260.711 203.854 260.655 203.617C260.63 203.524 260.581 203.443 260.518 203.387Z" fill="#121B46"/>
<path d="M269.574 200.43C269.182 198.732 268.479 197.158 267.278 195.852C264.719 193.053 260.63 192.294 256.839 192.207C254.287 192.145 251.661 192.331 249.364 193.445C245.735 195.193 243.557 198.894 240.893 201.91C236.915 206.42 231.507 209.636 225.65 210.986C220.857 212.087 215.871 211.95 210.966 212.391C206.062 212.827 200.995 213.959 197.229 217.131C194.298 219.594 192.294 223.196 188.876 224.931C186.984 225.902 184.824 226.194 182.702 226.474L179.235 226.922C174.137 227.593 171.249 233.291 173.932 237.683C173.944 237.714 173.969 237.739 173.982 237.776C175.743 240.6 178.582 242.796 179.652 245.955C180.629 248.848 179.957 252.014 180.187 255.055C180.567 259.839 183.287 264.274 187.047 267.253C190.812 270.233 195.536 271.831 200.31 272.354C202.06 272.547 203.821 272.603 205.582 272.516C205.352 270.195 206.012 267.807 207.543 265.885C209.572 263.347 211.601 260.952 213.593 258.694C213.624 258.657 213.655 258.62 213.693 258.589L213.332 258.253C217.925 251.616 233.517 236.631 238.366 237.073C239.536 236.806 240.631 236.812 241.621 237.036C241.97 236.98 242.324 236.949 242.679 236.936C244.515 236.874 246.003 236.488 247.204 235.935C249.128 229.932 247.372 218.792 247.024 216.758C246.339 216.814 245.399 216.658 245.181 216.578C244.322 216.254 243.513 215.533 243.022 214.767C242.418 213.847 242.194 212.665 242.53 211.614C242.916 210.401 244.148 209.424 245.437 209.549C246.04 210.581 246.775 211.533 247.621 212.373C247.883 212.634 248.2 212.901 248.574 212.877C249.053 212.852 249.364 212.373 249.588 211.943C249.881 211.396 250.379 210.836 250.671 210.289C254.113 210.488 257.611 208.958 259.802 206.296C260.474 205.481 261.022 204.573 261.57 203.671C262.304 202.464 263.033 201.257 263.767 200.051C265.392 201.861 267.962 205.139 270.377 205.425C270.377 205.443 270.458 203.067 269.574 200.43Z" fill="#292466"/>
<path d="M109.776 389.862C108.042 390.492 106.609 391.001 105.617 391.363C103.295 390.13 101.138 389.966 100.085 389.905C99.3258 389.862 99.0842 390.268 99.0152 390.561C98.9806 390.707 99.0756 390.845 99.2223 390.863C99.9385 390.949 101.276 391.354 101.397 391.872C101.526 392.458 95.9171 393.027 95.8654 393.847C95.8395 394.174 99.8436 393.881 99.8436 393.881C99.8436 393.881 95.6151 395.011 95.9517 395.476C96.2882 395.942 100.137 395.425 100.137 395.425C100.137 395.425 96.0552 397.063 96.5903 397.391C97.1253 397.719 100.456 396.899 100.456 396.899C99.0324 397.658 98.5578 398.176 98.4024 398.46C98.3334 398.598 98.4283 398.745 98.5837 398.719C100.068 398.512 102.665 396.977 104.426 395.856V395.864L104.435 395.925C106.79 396.14 109.146 396.201 111.493 396.14C110.838 394.079 110.277 391.984 109.776 389.862Z" fill="#F28766"/>
<path d="M135.406 362.818L125.102 384.042L105.996 390.449L106.747 396.857C106.747 396.857 129.374 395.477 133.015 391.829C136.657 388.19 143.569 370.606 143.828 368.846C144.078 367.087 135.406 362.818 135.406 362.818Z" fill="#4995E1"/>
<path d="M141.757 359.767C141.757 359.767 136.985 364.648 137.166 368.477C137.356 372.306 137.667 393.348 137.667 393.348L135.717 394.288L131.695 392.839C131.695 392.839 133.646 370.607 133.706 368.218C133.766 365.829 134.457 362.19 136.726 361.181C138.987 360.181 141.757 359.767 141.757 359.767Z" fill="#80BFFE"/>
<path d="M79.8485 402.324C71.3657 403.402 65.558 404.187 65.558 404.187L63.6768 412.276L80.677 412.466C80.2455 409.103 79.9866 405.722 79.8485 402.324Z" fill="#FFCBC2"/>
<path d="M66.7403 403.817C66.7403 403.817 64.9281 401.929 64.186 400.281C63.4439 398.634 63.8581 391.235 60.156 391.727V408.836C60.156 408.836 62.1971 409.698 61.6748 410.354C61.2635 410.871 59.9834 410.354 59.9834 410.354V413.769C59.9834 413.769 63.7718 415.089 66.0759 413.855C66.0759 413.855 63.8581 411.389 64.8418 408.672C65.8342 405.956 66.7403 403.817 66.7403 403.817Z" fill="#FFB156"/>
<path d="M75.457 401.756V413.225L109.915 407.467L156.903 413.225C156.903 413.225 154.055 396.814 147.436 394.718C140.817 392.632 75.457 401.756 75.457 401.756Z" fill="#264B89"/>
<path d="M81.92 399.834L70.0458 406.44L69.0879 412.097L71.8148 415.279L74.421 414.417C74.421 414.417 74.4641 414.4 74.5504 414.365C75.4047 414.012 80.3149 411.994 87.2272 409.113C85.3632 406.078 83.5683 402.999 81.92 399.834Z" fill="#FFCBC2"/>
<path d="M70.3996 405.362C70.3996 405.362 67.923 404.508 66.5077 403.387C65.0925 402.266 62.0635 395.496 59 397.635L66.8529 412.839C66.8529 412.839 69.0738 412.669 68.9067 413.494C68.7757 414.141 67.4052 414.27 67.4052 414.27L68.9758 417.306C68.9758 417.306 72.9454 416.736 74.421 414.589C74.421 414.589 71.3144 413.416 70.9433 410.553C70.5809 407.673 70.3996 405.362 70.3996 405.362Z" fill="#FFB156"/>
<path d="M75.3271 402.515L80.0993 412.312L110.139 400.377C110.139 400.377 144.7 419.591 154.003 415.951C163.305 412.312 163.806 394.469 160.035 392.339C156.264 390.201 135.691 393.055 135.691 393.055L134.647 393.978C134.647 393.978 114.16 385.311 109.259 385.561C104.366 385.811 75.3271 402.515 75.3271 402.515Z" fill="#3A67B3"/>
<path d="M159.835 361.637C158.851 360.714 157.531 360.231 156.176 360.188C154.925 360.145 153.924 359.878 153.104 359.507C151.741 355.29 153.061 347.321 153.234 346.312C153.242 346.278 153.242 346.243 153.251 346.209L142.317 352.349C142.498 352.651 142.602 353.074 142.645 353.548C142.74 354.522 142.602 355.764 142.412 356.894C142.188 358.162 141.894 359.283 141.765 359.731C140.876 360.809 139.694 361.361 138.115 362.215C138.132 362.62 138.106 363.043 138.028 363.483C137.562 366.027 138.391 369.588 138.27 372.227C138.132 375.306 138.028 378.359 138.054 381.446C138.089 385.284 138.244 388.949 138.52 392.648H159.24C158.644 387.129 160.051 378.919 161.604 369.873C162.39 365.354 161.207 362.931 159.835 361.637Z" fill="#FFCBC2"/>
<path d="M142.413 356.886C148.359 357.636 151.362 350.548 151.474 350.28C150.378 352.022 148.79 352.902 147.228 353.324C145.313 353.851 143.457 353.669 142.681 353.557C142.672 353.557 142.655 353.557 142.646 353.549C142.75 354.523 142.612 355.756 142.413 356.886Z" fill="#E7AFA5"/>
<path d="M141.705 359.948C141.705 359.948 139.384 364.743 141.067 365.838C142.741 366.925 153.217 359.474 153.217 359.474C153.217 359.474 158.913 360.146 160.509 364.165C162.097 368.184 159.836 393.055 159.836 393.055C159.836 393.055 140.566 394.228 135.708 393.055C135.708 393.055 135.794 380.749 135.207 376.894C134.62 373.039 134.974 366.528 136.174 363.898C136.786 362.518 141.705 359.948 141.705 359.948Z" fill="#80BFFE"/>
<path d="M153.382 359.179C153.382 359.179 144.459 363.327 145.339 367.846C146.22 372.365 150.112 417.209 150.112 417.209C150.112 417.209 161.805 417.589 166.197 415.329C170.598 413.07 160.665 382.421 161.166 379.532C161.667 376.643 164.307 363.707 160.536 361.318C156.774 358.929 153.382 359.179 153.382 359.179Z" fill="#5BA7F4"/>
<path d="M121.498 371.622L122.76 370.37L115.481 363.045L114.219 364.297L121.498 371.622Z" fill="#292466"/>
<path d="M117.5 372.261C117.5 372.261 117.906 373.02 118.208 373.158C118.51 373.296 120.072 373.676 120.132 373.667C120.201 373.727 121.634 374.935 123.774 376.694C124.438 375.806 125.12 374.917 125.819 374.029C126.294 373.425 126.742 372.813 127.2 372.192C126.259 371.761 125.465 371.408 124.861 371.132L123.498 370.071C122.885 369.312 121.116 366.449 120.287 366.509C119.286 366.578 119.347 366.975 119.347 366.975C119.347 366.975 120.892 368.95 120.546 369.734C120.218 370.476 116.827 366.785 116.827 366.785L115.93 366.069C115.93 366.069 115.774 368.139 116.516 368.829C116.516 368.829 116.076 369.959 116.896 370.821C116.887 370.812 116.931 371.925 117.5 372.261Z" fill="#FFCBC2"/>
<path d="M152.501 362.446L145.718 379.401L123.972 370.104C123.972 370.104 120.201 374.873 120.581 375.003C120.96 375.132 140.187 393.846 148.23 392.457C156.272 391.077 161.674 367.465 161.674 367.465L152.501 362.446Z" fill="#5BA7F4"/>
<path d="M156.28 342.907C155.996 342.01 155.038 341.294 154.08 341.527C154.011 341.544 153.907 341.587 153.795 341.639C153.925 338.509 153.467 335.076 151.284 333.179C146.589 329.1 139.867 330.532 138.435 334.197C136.804 338.388 136.717 343.58 136.778 348.021C136.786 348.599 136.804 349.194 136.993 349.746C137.736 351.85 140.747 353.152 142.775 353.575C145.39 354.118 148.013 353.437 150.059 351.729C151.681 350.375 152.734 348.478 153.182 346.417C153.648 346.46 154.304 346.348 154.451 346.288C155.038 346.063 155.59 345.572 155.927 345.054C156.358 344.433 156.513 343.623 156.28 342.907Z" fill="#FFCBC2"/>
<path d="M140.195 341.562C140.195 342.244 139.928 342.796 139.591 342.796C139.255 342.796 138.987 342.244 138.987 341.562C138.987 340.881 139.255 340.329 139.591 340.329C139.928 340.329 140.195 340.881 140.195 341.562Z" fill="#292466"/>
<path d="M144.812 342.796C145.146 342.796 145.416 342.243 145.416 341.562C145.416 340.881 145.146 340.329 144.812 340.329C144.478 340.329 144.208 340.881 144.208 341.562C144.208 342.243 144.478 342.796 144.812 342.796Z" fill="#292466"/>
<path d="M139.944 345.288C140.151 345.693 140.471 346.047 140.85 346.323C141.23 346.599 141.705 346.771 142.197 346.771C142.689 346.763 143.163 346.59 143.534 346.306C143.733 346.176 143.888 345.995 144.052 345.84C144.19 345.659 144.328 345.478 144.458 345.288C144.268 345.426 144.104 345.573 143.931 345.711C143.741 345.823 143.569 345.969 143.379 346.064C143.008 346.28 142.594 346.392 142.188 346.401C141.774 346.409 141.368 346.28 140.989 346.081C140.626 345.874 140.272 345.607 139.944 345.288Z" fill="#292466"/>
<path d="M141.566 347.478C141.739 347.633 141.972 347.685 142.196 347.693C142.421 347.685 142.654 347.624 142.835 347.478C142.611 347.512 142.412 347.555 142.196 347.547C141.989 347.555 141.791 347.521 141.566 347.478Z" fill="#292466"/>
<path d="M143.707 337.293C143.992 337.043 144.303 336.966 144.639 336.948C144.967 336.94 145.312 336.983 145.632 337.086C145.96 337.19 146.253 337.371 146.503 337.586C146.762 337.793 146.952 338.078 147.099 338.354C147.176 338.492 147.125 338.665 146.987 338.742C146.874 338.802 146.745 338.785 146.65 338.699L146.624 338.673C146.426 338.492 146.236 338.328 146.029 338.199C145.83 338.061 145.597 337.992 145.373 337.931C145.14 337.88 144.907 337.854 144.665 337.862C144.424 337.871 144.165 337.88 143.906 337.819L143.828 337.802C143.664 337.759 143.569 337.595 143.604 337.44C143.63 337.38 143.664 337.328 143.707 337.293Z" fill="#121B46"/>
<path d="M140.989 339.569C140.885 340.035 140.807 340.492 140.721 340.949C140.635 341.406 140.549 341.863 140.419 342.294C140.393 342.407 140.359 342.51 140.316 342.614C140.281 342.7 140.212 342.864 140.212 343.01C140.195 343.321 140.393 343.623 140.643 343.743C140.902 343.89 141.196 343.864 141.429 343.786C141.662 343.7 141.869 343.571 142.05 343.416C141.619 343.579 141.109 343.709 140.807 343.476C140.652 343.364 140.574 343.209 140.592 343.036C140.6 342.95 140.626 342.898 140.678 342.76C140.721 342.648 140.764 342.527 140.799 342.415C140.928 341.95 140.997 341.475 141.023 341.001C141.058 340.509 141.049 340.035 140.989 339.569Z" fill="#292466"/>
<path d="M156.764 338.414C156.401 337.267 155.849 335.956 154.658 335.749C155.107 334.758 155.098 333.559 154.624 332.567C154.209 331.713 153.476 331.032 152.682 330.506C151.577 329.773 150.309 329.282 148.989 329.092C146.978 328.799 144.924 329.195 142.939 329.583C141.904 329.782 140.609 329.954 139.574 330.153C138.538 329.342 136.899 329.773 136.061 330.782C135.216 331.8 135.017 333.205 135.043 334.516C135.112 337.121 135.949 339.622 136.89 342.053C136.959 341.044 137.071 340.044 137.218 339.052C137.58 337.974 138.219 336.974 139.013 336.155C141.524 338.699 145.554 339.604 148.911 338.397C149.014 339.233 149.222 339.992 149.558 340.768C149.955 341.683 150.62 342.614 151.603 342.795C152.035 342.873 152.561 342.735 152.708 342.329C152.837 341.959 153.778 341.596 153.778 341.631C153.89 341.579 153.985 341.545 154.063 341.519C155.021 341.277 155.97 342.002 156.255 342.899C156.488 343.614 156.332 344.425 155.927 345.046C155.581 345.572 155.038 346.064 154.451 346.279C154.304 346.339 153.648 346.452 153.174 346.408C152.941 347.495 152.544 348.539 151.966 349.47C152.777 349.556 153.614 349.513 154.339 349.125C155.366 348.582 155.961 347.486 156.462 346.443C156.91 345.512 157.333 344.563 157.497 343.545C157.782 341.838 157.282 340.096 156.764 338.414Z" fill="#292466"/>
<g filter="url(#filter0_d_15053_26267)">
<path d="M190.613 77.8083C190.613 71.2991 190.613 68.0444 188.591 66.0223C186.569 64.0001 183.314 64.0001 176.805 64.0001H103.808C97.2986 64.0001 94.044 64.0001 92.0218 66.0223C89.9997 68.0444 89.9997 71.2991 89.9997 77.8083V95.1254C89.9997 101.635 89.9997 104.889 92.0218 106.911C94.044 108.934 97.2986 108.934 103.808 108.934H159.932C162.181 108.934 163.306 108.934 164.356 109.279C165.406 109.624 166.312 110.291 168.123 111.626L178.509 119.279L178.876 114.136C179.096 111.06 181.655 108.678 184.737 108.678C187.983 108.678 190.613 106.047 190.613 102.802V77.8083Z" fill="white"/>
</g>
<path d="M98.9121 86.4474C98.9121 78.401 105.423 71.8779 113.455 71.8779C121.487 71.8779 127.998 78.401 127.998 86.4474C127.998 94.4941 121.487 101.017 113.455 101.017C105.423 101.017 98.9121 94.4941 98.9121 86.4474Z" fill="white"/>
<path d="M103.218 97.0413C105.837 99.5157 109.366 101.035 113.252 101.035C117.139 101.035 120.668 99.5155 123.287 97.0413C120.257 96.1017 116.852 95.5732 113.252 95.5732C109.653 95.5732 106.248 96.1017 103.218 97.0413Z" fill="#D8DEE6"/>
<path d="M117.939 77.935C117.28 77.5099 116.513 77.2842 115.729 77.2842H111.113C110.083 77.2842 109.091 77.6742 108.335 78.3763L108.082 78.6114C106.883 79.7261 106.464 81.4501 107.019 82.9916L108.537 87.2074L118.268 87.1463L119.641 82.5394C120.16 80.7966 119.467 78.9199 117.939 77.935Z" fill="#292466"/>
<path d="M115.533 79.773C115.512 79.7636 115.469 79.7451 115.469 79.7451L108.485 84.2857V87.0243C108.485 88.5912 109.217 89.985 110.355 90.8883V95.0608C110.355 96.7104 111.691 98.0475 113.339 98.0475C114.987 98.0475 116.323 96.7104 116.323 95.0608V90.9957C117.543 90.0983 118.338 88.656 118.338 87.0243V84.12C118.338 82.1855 117.186 80.5201 115.533 79.773Z" fill="#FFCBC2"/>
<path opacity="0.1" d="M113.253 101.764C111.316 101.764 109.377 101.392 107.525 100.647C103.72 99.1162 100.738 96.1935 99.1285 92.4174C97.5192 88.6413 97.4751 84.4639 99.0045 80.6548C100.534 76.8455 103.454 73.8606 107.226 72.2495C114.644 69.0814 123.306 72.2368 126.944 79.4326C127.125 79.7908 126.982 80.2281 126.624 80.4094C126.268 80.5902 125.83 80.4474 125.649 80.089C122.355 73.5743 114.513 70.7182 107.796 73.5864C104.38 75.045 101.737 77.7477 100.352 81.1967C98.9672 84.6456 99.0071 88.4279 100.464 91.847C101.921 95.266 104.621 97.9123 108.067 99.2984C111.512 100.684 115.291 100.645 118.707 99.1861C122.403 97.6075 125.235 94.5058 126.477 90.6762C126.6 90.2943 127.011 90.0858 127.391 90.2093C127.773 90.3332 127.982 90.7432 127.858 91.1249C126.486 95.3542 123.359 98.7796 119.276 100.523C117.34 101.35 115.297 101.764 113.253 101.764Z" fill="#AAB4BE"/>
<rect x="131.172" y="74.7871" width="56.0959" height="6.17736" rx="3.08868" fill="#EBEFF2"/>
<rect x="131.172" y="85.2793" width="15.5342" height="3.45205" rx="1.72603" fill="#EBEFF2"/>
<rect x="151.021" y="85.2793" width="26.7534" height="3.45205" rx="1.72603" fill="#EBEFF2"/>
<rect x="131.172" y="93.0469" width="50.9178" height="3.45205" rx="1.72603" fill="#EBEFF2"/>
<rect x="182.402" y="143.578" width="120" height="10" rx="5" fill="#F2F5F6"/>
<rect x="182.402" y="161.578" width="177" height="5" rx="2.5" fill="#F2F5F6"/>
<rect x="182.402" y="174.578" width="134" height="5" rx="2.5" fill="#F2F5F6"/>
<ellipse cx="368.5" cy="440" rx="76.5" ry="3" fill="url(#paint2_linear_15053_26267)"/>
<g clip-path="url(#clip1_15053_26267)">
<path d="M355.277 421.631L350.458 434.403H340.989L339.856 431.837L344.505 417.014L355.277 421.631Z" fill="#FBC4BB"/>
<path d="M399.785 420.89V432.463L393.492 435.941L389.183 435.599L388.276 420.263" fill="#FBC4BB"/>
<path d="M341.843 418.211L355.873 423.51L380.962 356.294L386.578 422.66H401.375C401.375 422.66 405.645 362.771 406.398 333.115C406.505 328.781 406.545 325.09 406.478 322.33L406.512 315.933H365.826L365.34 318.016L341.843 418.211Z" fill="#3A67B3"/>
<path d="M365.339 318.016C371.215 321.298 386.577 323.676 395.931 321.747C397.297 327.314 402.3 332.271 406.397 333.115C406.503 328.781 406.543 325.09 406.476 322.33L406.51 315.933H365.824L365.339 318.016Z" fill="url(#paint3_linear_15053_26267)"/>
<path d="M340.47 276.013L349.428 274.993C350.335 274.889 350.986 274.067 350.883 273.156L348.717 253.937C348.614 253.026 347.796 252.371 346.89 252.475L337.932 253.495C337.026 253.599 336.375 254.421 336.478 255.332L338.644 274.551C338.746 275.462 339.564 276.117 340.47 276.013Z" fill="#292466"/>
<path d="M346.292 256.197C345.752 256.197 345.314 255.757 345.314 255.214C345.314 254.671 345.752 254.23 346.292 254.23C346.832 254.23 347.27 254.671 347.27 255.214C347.27 255.757 346.832 256.197 346.292 256.197Z" fill="#5C55B9"/>
<path d="M343.68 266.061C342.392 266.061 341.348 265.011 341.348 263.716C341.348 262.421 342.392 261.371 343.68 261.371C344.969 261.371 346.013 262.421 346.013 263.716C346.013 265.011 344.969 266.061 343.68 266.061Z" fill="#5C55B9"/>
<path d="M338.059 275.807L349.084 303.005C350.236 305.838 352.788 307.855 355.8 308.304C356.226 308.371 356.652 308.397 357.072 308.397C360.496 308.397 363.655 306.334 365.007 303.078L368.798 293.981L368.391 291.415L367.099 283.209L359.93 278.761L357.052 285.473L355.56 288.963C355.56 288.963 343.482 273.911 342.749 272.833C342.01 271.748 347.072 271.319 346.559 269.396C346.053 267.474 343.668 267.769 343.668 267.769C343.668 267.769 345.58 266.871 344.987 265.806C344.427 264.794 342.149 264.7 341.903 264.694C342.096 264.694 343.615 264.66 342.775 263.535C341.882 262.343 336.653 262.383 335.334 266.442C334.014 270.508 338.059 275.807 338.059 275.807Z" fill="#FBC4BB"/>
<path d="M355.873 283.009C359.783 288.482 364.207 289.165 364.207 289.165C364.207 289.165 364.973 310.802 364.207 316.871C373.773 320.703 388.817 322.21 399.03 319.256C401.349 318.586 403.42 317.682 405.119 316.53C405.372 314.439 405.405 311.947 405.325 309.429C405.105 302.576 404.013 295.495 404.013 295.495C404.166 295.495 404.319 295.489 404.473 295.475C411.261 295.214 414.659 291.496 416.185 288.984C416.984 287.671 417.277 286.686 417.277 286.686C417.277 286.686 412.007 268.981 408.01 262.998C404.013 257.01 396.525 257.351 388.444 253.761L378.237 254.873C378.237 254.873 369.31 256.414 366.079 258.805C362.848 261.197 360.383 273.516 355.873 283.009Z" fill="url(#paint4_linear_15053_26267)"/>
<path d="M388.872 252.911C390.715 254.054 393.062 256.673 391.038 261.314C389.014 265.955 383.296 264.583 382.519 261.864C378.933 265.038 375.404 263.345 375.765 259.46C376.127 255.575 380.539 253.968 381.569 253.743C382.6 253.517 388.872 252.911 388.872 252.911Z" fill="url(#paint5_linear_15053_26267)"/>
<path d="M393.889 239.446L395.451 236.26C396.319 234.489 395.854 232.349 394.33 231.103C395.756 227.34 393.605 223.175 389.728 222.164C387.738 221.644 385.838 221.086 384.767 220.612C381.799 219.298 379.086 216.995 377.37 218.484C375.653 219.973 378.122 222.299 378.122 222.299C378.122 222.299 375.997 221.808 374.676 220.429C373.355 219.05 371.347 219.818 371.205 221.753C371.064 223.688 373.358 225.923 373.358 225.923L371.891 225.719C370.855 225.574 369.907 226.325 369.805 227.373C369.745 227.986 369.993 228.59 370.466 228.982L373.254 231.296L388.62 241.744L391.17 241.819L393.889 239.446Z" fill="#292466"/>
<path d="M378.391 255.937C378.377 256.493 378.351 256.828 378.351 256.828C378.351 256.828 378.424 257.163 378.584 257.659C379.044 259.032 380.21 261.632 382.548 261.698C388.844 261.879 390.143 255.294 390.143 255.294C390.143 255.294 390.056 254.731 389.95 253.854C389.95 253.848 389.95 253.848 389.95 253.848C389.676 251.557 389.25 247.109 389.81 244.838L385.546 245.655L377.272 247.256C378.524 248.937 378.47 253.894 378.391 255.937Z" fill="#FBC4BB"/>
<path d="M378.393 255.94C383.9 254.962 386.424 250.681 389.205 246.507L385.544 245.655L377.273 247.254C378.524 248.94 378.473 253.898 378.393 255.94Z" fill="#F0ABA0"/>
<path d="M390.199 233.795C390.199 233.795 390.337 237.955 390.124 240.138C390.081 240.581 390.665 240.8 390.95 240.449C391.483 239.789 391.809 238.837 391.809 238.837C391.809 238.837 393.139 237.604 394.475 238.664C395.81 239.724 393.833 244.753 390.921 243.079C390.921 243.079 387.127 251.856 379.048 251.629C370.97 251.401 372.134 241.118 372.316 238.142C372.498 235.167 370.332 231.566 370.738 229.211C377.927 232.658 390.199 233.795 390.199 233.795Z" fill="#FBC4BB"/>
<mask id="path-108-inside-1_15053_26267" fill="white">
<path d="M379.067 240.108L377.409 243.698C377.114 244.335 377.336 245.093 377.927 245.468L378.771 246.004"/>
</mask>
<path d="M377.409 243.698L377.863 243.908L377.863 243.908L377.409 243.698ZM377.927 245.468L377.659 245.89L377.659 245.89L377.927 245.468ZM379.521 240.318L377.863 243.908L376.955 243.489L378.613 239.899L379.521 240.318ZM377.863 243.908C377.673 244.319 377.816 244.806 378.195 245.046L377.659 245.89C376.856 245.38 376.555 244.352 376.955 243.488L377.863 243.908ZM378.195 245.046L379.039 245.582L378.504 246.426L377.659 245.89L378.195 245.046Z" fill="#292466" mask="url(#path-108-inside-1_15053_26267)"/>
<path d="M382.054 247.311C382.054 247.311 380.597 248.401 379.134 247.503L382.054 247.311Z" fill="#292466"/>
<path d="M382.513 241.307C382.121 241.307 381.804 240.988 381.804 240.594C381.804 240.2 382.121 239.881 382.513 239.881C382.904 239.881 383.222 240.2 383.222 240.594C383.222 240.988 382.904 241.307 382.513 241.307Z" fill="#292466"/>
<path d="M375.688 240.679C375.297 240.679 374.979 240.36 374.979 239.966C374.979 239.572 375.297 239.253 375.688 239.253C376.08 239.253 376.397 239.572 376.397 239.966C376.397 240.36 376.08 240.679 375.688 240.679Z" fill="#292466"/>
<path d="M384.535 238.636L384.576 238.544L384.519 238.734L381.28 238.211L381.285 238.013C382.133 237.918 382.956 238.051 383.564 238.207C383.869 238.285 384.121 238.369 384.297 238.434C384.386 238.466 384.455 238.493 384.502 238.513C384.526 238.523 384.544 238.53 384.557 238.536L384.571 238.542L384.575 238.544L384.576 238.544L384.576 238.544L384.576 238.544L384.535 238.636Z" fill="#292466" stroke="#292466" stroke-width="0.2" stroke-linecap="round"/>
<path d="M374.39 237.734L374.374 237.536L374.395 237.634L374.374 237.536L374.374 237.536L374.375 237.536L374.376 237.536L374.38 237.535L374.395 237.532C374.408 237.529 374.428 237.526 374.453 237.521C374.503 237.512 374.577 237.5 374.67 237.486C374.855 237.46 375.119 237.431 375.433 237.419C376.061 237.394 376.893 237.436 377.704 237.707L377.667 237.902L374.39 237.734Z" fill="#292466" stroke="#292466" stroke-width="0.2" stroke-linecap="round"/>
<path d="M393.533 239.996C392.659 239.838 392.228 241.479 392.277 242.251L393.533 239.996Z" fill="#292466"/>
<path d="M397.544 321.575C400.435 328.502 405.459 329.105 405.459 329.105L406.871 327.464L418.27 314.213C420.522 311.601 421.328 308.03 420.428 304.694L416.971 291.886L416.185 288.985C414.659 291.497 411.262 295.215 404.473 295.477L404.985 296.89L408.01 305.243L405.325 309.43L399.03 319.257L397.864 321.073L397.544 321.575Z" fill="#FBC4BB"/>
<path d="M412.07 438.5L402.508 430.962C401.36 430.057 399.76 430.005 398.557 430.834L393.113 434.584C392.584 434.948 391.958 435.143 391.317 435.143H388.786L387.822 439.632H411.681C412.28 439.632 412.541 438.871 412.07 438.5Z" fill="#292466"/>
<path d="M351.366 439.633V433.262H342.493C341.783 433.262 341.136 432.852 340.831 432.206L340.411 431.318C340.019 430.489 339.01 430.167 338.214 430.617L325.495 437.814C324.628 438.304 324.975 439.633 325.97 439.633H351.366Z" fill="#292466"/>
</g>
<path opacity="0.2" d="M449.214 360.102H450.684C450.684 364.371 454.162 367.832 458.452 367.832V369.294C454.161 369.294 450.684 372.756 450.684 377.026H449.214C449.214 372.756 445.736 369.294 441.445 369.294V367.832C445.736 367.832 449.214 364.371 449.214 360.102Z" fill="url(#paint6_linear_15053_26267)"/>
<path d="M435.67 338.477H436.038C436.038 342.746 439.516 346.208 443.806 346.208V346.574C439.515 346.574 436.037 350.035 436.037 354.305H435.669C435.669 350.035 432.191 346.574 427.9 346.574V346.208C432.192 346.208 435.67 342.746 435.67 338.477Z" fill="url(#paint7_linear_15053_26267)"/>
<path opacity="0.2" d="M423.78 386.597C423.78 390.728 427.145 394.077 431.296 394.077C427.145 394.077 423.78 397.425 423.78 401.556C423.78 397.425 420.415 394.077 416.264 394.077C420.415 394.076 423.78 390.728 423.78 386.597Z" fill="url(#paint8_linear_15053_26267)"/>
<path opacity="0.2" d="M98.853 213.496H100.323C100.323 217.766 103.801 221.226 108.091 221.226V222.689C103.8 222.689 100.323 226.15 100.323 230.42H98.853C98.853 226.15 95.3748 222.689 91.084 222.689V221.226C95.3748 221.226 98.853 217.765 98.853 213.496Z" fill="url(#paint9_linear_15053_26267)"/>
<path d="M85.311 191.871H85.6786C85.6786 196.141 89.1568 199.602 93.4467 199.602V199.968C89.1559 199.968 85.6776 203.43 85.6776 207.699H85.31C85.31 203.43 81.8318 199.968 77.541 199.968V199.602C81.8327 199.602 85.311 196.141 85.311 191.871Z" fill="url(#paint10_linear_15053_26267)"/>
<path opacity="0.2" d="M73.4197 239.991C73.4197 244.122 76.7848 247.471 80.9361 247.471C76.7848 247.471 73.4197 250.82 73.4197 254.951C73.4197 250.82 70.0546 247.471 65.9033 247.471C70.0546 247.47 73.4197 244.122 73.4197 239.991Z" fill="url(#paint11_linear_15053_26267)"/>
</g>
<defs>
<filter id="filter0_d_15053_26267" x="55.4795" y="42.4247" width="169.654" height="124.32" filterUnits="userSpaceOnUse" color-interpolation-filters="sRGB">
<feFlood flood-opacity="0" result="BackgroundImageFix"/>
<feColorMatrix in="SourceAlpha" type="matrix" values="0 0 0 0 0 0 0 0 0 0 0 0 0 0 0 0 0 0 127 0" result="hardAlpha"/>
<feOffset dy="12.9452"/>
<feGaussianBlur stdDeviation="17.2603"/>
<feComposite in2="hardAlpha" operator="out"/>
<feColorMatrix type="matrix" values="0 0 0 0 0.117647 0 0 0 0 0.129412 0 0 0 0 0.176471 0 0 0 0.08 0"/>
<feBlend mode="normal" in2="BackgroundImageFix" result="effect1_dropShadow_15053_26267"/>
<feBlend mode="normal" in="SourceGraphic" in2="effect1_dropShadow_15053_26267" result="shape"/>
</filter>
<linearGradient id="paint0_linear_15053_26267" x1="36.5" y1="56" x2="451.5" y2="503.5" gradientUnits="userSpaceOnUse">
<stop stop-color="#FFF1EA"/>
<stop offset="1" stop-color="#FFF1EA" stop-opacity="0"/>
</linearGradient>
<linearGradient id="paint1_linear_15053_26267" x1="357.438" y1="68.3927" x2="357.438" y2="80.0562" gradientUnits="userSpaceOnUse">
<stop stop-color="#FF7300"/>
<stop offset="1" stop-color="#FF7300" stop-opacity="0"/>
</linearGradient>
<linearGradient id="paint2_linear_15053_26267" x1="302.739" y1="437.646" x2="303.088" y2="447.238" gradientUnits="userSpaceOnUse">
<stop stop-color="#FBE4D8"/>
<stop offset="1" stop-color="#FFECE2" stop-opacity="0"/>
</linearGradient>
<linearGradient id="paint3_linear_15053_26267" x1="386.443" y1="323.682" x2="364.692" y2="378.103" gradientUnits="userSpaceOnUse">
<stop stop-color="#303563"/>
<stop offset="1" stop-color="#5561A0"/>
</linearGradient>
<linearGradient id="paint4_linear_15053_26267" x1="355.894" y1="287.67" x2="417.333" y2="287.67" gradientUnits="userSpaceOnUse">
<stop stop-color="#FF7300"/>
<stop offset="1" stop-color="#FAB882"/>
</linearGradient>
<linearGradient id="paint5_linear_15053_26267" x1="384.779" y1="262.676" x2="374.17" y2="223.163" gradientUnits="userSpaceOnUse">
<stop offset="6.8e-07" stop-color="white"/>
<stop offset="1" stop-color="#9569FA"/>
</linearGradient>
<linearGradient id="paint6_linear_15053_26267" x1="458.446" y1="368.66" x2="441.43" y2="368.66" gradientUnits="userSpaceOnUse">
<stop stop-color="#FAB882"/>
<stop offset="1" stop-color="#FF7300"/>
</linearGradient>
<linearGradient id="paint7_linear_15053_26267" x1="443.801" y1="346.481" x2="427.886" y2="346.481" gradientUnits="userSpaceOnUse">
<stop stop-color="#FAB882"/>
<stop offset="1" stop-color="#FF7300"/>
</linearGradient>
<linearGradient id="paint8_linear_15053_26267" x1="431.291" y1="394.162" x2="416.25" y2="394.162" gradientUnits="userSpaceOnUse">
<stop stop-color="#FAB882"/>
<stop offset="1" stop-color="#FF7300"/>
</linearGradient>
<linearGradient id="paint9_linear_15053_26267" x1="108.085" y1="222.055" x2="91.0687" y2="222.055" gradientUnits="userSpaceOnUse">
<stop stop-color="#FAB882"/>
<stop offset="1" stop-color="#FF7300"/>
</linearGradient>
<linearGradient id="paint10_linear_15053_26267" x1="93.4411" y1="199.876" x2="77.5267" y2="199.876" gradientUnits="userSpaceOnUse">
<stop stop-color="#FAB882"/>
<stop offset="1" stop-color="#FF7300"/>
</linearGradient>
<linearGradient id="paint11_linear_15053_26267" x1="80.9309" y1="247.557" x2="65.8898" y2="247.557" gradientUnits="userSpaceOnUse">
<stop stop-color="#FAB882"/>
<stop offset="1" stop-color="#FF7300"/>
</linearGradient>
<clipPath id="clip0_15053_26267">
<rect width="403" height="393" fill="white" transform="translate(59 55)"/>
</clipPath>
<clipPath id="clip1_15053_26267">
<rect width="95.788" height="221.633" fill="white" transform="matrix(-1 0 0 1 420.789 218)"/>
</clipPath>
</defs>
</svg>
