<svg width="149" height="40" viewBox="0 0 149 40" fill="none" xmlns="http://www.w3.org/2000/svg">
<path d="M66.2179 0.0352585C65.6303 0.0352585 64.9975 0.168362 64.4098 0.345836C62.3757 1.1001 60.8841 2.20931 59.7088 3.80658C58.9404 4.91579 58.3528 6.11374 57.9911 7.35605C56.9967 10.5062 56.9967 14.455 56.9063 17.4277C56.8611 20.711 56.9515 24.0386 57.7199 27.2331C57.9007 27.8099 58.5336 27.9874 59.2116 27.943C61.2005 27.8099 61.5169 25.5471 61.7429 24.083C62.0141 22.6632 62.0141 21.199 62.0593 19.7349C62.4662 19.6905 62.8278 19.6017 63.2346 19.5574C65.8111 19.1137 67.8452 18.4925 68.5684 17.8714C69.0657 17.4277 69.2465 15.4755 68.252 14.8987C67.3932 14.5437 65.4043 14.6325 62.9182 14.7656C62.647 14.81 62.4209 14.81 62.1497 14.81C62.1949 13.5233 62.2401 12.281 62.3305 11.083C62.3757 10.1513 62.5566 9.13079 62.7826 8.19905C63.4154 6.06937 64.6359 4.42773 66.7151 4.02842C67.8 3.85094 68.6136 4.16153 69.5177 4.4721C70.7833 4.91579 70.7381 2.87484 70.1053 1.81C69.3821 0.656417 67.8 0.0352585 66.2179 0.0352585Z" fill="#003445"/>
<path d="M72.9043 12.2366C71.3222 14.1001 70.373 16.7622 70.2826 19.025C70.1018 20.6666 70.2374 22.3526 70.9154 23.8611C71.8647 26.1683 74.2152 27.6768 76.5205 27.943C78.1478 28.0761 79.9558 27.5881 81.1311 26.612C82.3515 25.5471 83.3008 23.6393 82.1255 23.1512C81.3571 22.885 79.775 24.2604 78.1025 24.2604C75.3 24.2161 74.8932 22.042 75.0288 20.356C77.6957 20.1342 80.5435 18.9362 82.0803 17.0284C83.12 15.8304 83.9336 12.9908 82.442 11.3048C79.9558 8.46526 75.2096 9.75195 72.9043 12.2366ZM79.3682 14.2332C79.1422 15.1649 76.1589 17.0284 75.2548 17.4721C75.3904 16.141 76.8369 13.1683 78.2834 12.9021C78.5998 12.8577 79.6846 12.9908 79.3682 14.2332Z" fill="#003445"/>
<path d="M87.339 12.2366C85.7569 14.1001 84.8076 16.7622 84.7172 19.025C84.5364 20.6666 84.672 22.3526 85.3501 23.8611C86.2993 26.1683 88.6498 27.6768 90.9551 27.943C92.5824 28.0761 94.3905 27.5881 95.5657 26.612C96.7862 25.5471 97.7354 23.6393 96.5602 23.1512C95.7918 22.885 94.2097 24.2604 92.5372 24.2604C89.7347 24.2161 89.3279 22.042 89.4635 20.356C92.1304 20.1342 94.9781 18.9362 96.515 17.0284C97.5546 15.8304 98.3683 12.9908 96.8766 11.3048C94.3905 8.46526 89.6443 9.75195 87.339 12.2366ZM93.8029 14.2332C93.5769 15.1649 90.5935 17.0284 89.6895 17.4721C89.8251 16.141 91.2715 13.1683 92.718 12.9021C93.0344 12.8577 94.1193 12.9908 93.8029 14.2332Z" fill="#003445"/>
<path d="M102.21 0.390204C101.577 1.14447 100.989 3.09668 100.537 5.62568C100.085 8.24342 99.8592 11.1717 99.7688 14.1444C99.7688 15.0318 99.7688 15.8748 99.7688 16.6291C99.7236 18.4038 99.7236 20.2673 99.7688 22.397C99.8592 24.571 100.04 26.6563 100.808 27.4106C101.667 28.1649 103.159 28.0761 103.882 27.455C104.696 26.7007 104.967 24.6154 105.057 22.397C105.057 20.4891 104.967 18.0932 104.967 16.6291C104.967 15.8748 104.967 15.0762 104.967 14.2332C105.057 11.1274 105.238 8.68711 105.374 5.98063C105.555 3.496 105.6 1.54378 105.238 0.745152C104.651 -0.275322 102.707 -0.0978482 102.21 0.390204Z" fill="#003445"/>
<path d="M119.078 0.0351562C118.491 0.0351562 117.858 0.168485 117.27 0.34626C115.235 1.1018 113.743 2.21289 112.568 3.81287C111.799 4.92396 111.211 6.12394 110.85 7.36836C109.855 10.5239 109.855 14.4793 109.765 17.4571C109.719 20.7459 109.81 24.0792 110.579 27.2791C110.759 27.8569 111.392 28.0347 112.071 27.9902C114.06 27.8569 114.376 25.5903 114.602 24.1236C114.874 22.7014 114.874 21.2348 114.919 19.7681C115.326 19.7237 115.688 19.6348 116.094 19.5904C118.672 19.1459 120.706 18.5237 121.43 17.9015C121.927 17.4571 122.108 15.5015 121.113 14.9238C120.254 14.5682 118.265 14.6571 115.778 14.7905C115.507 14.8349 115.281 14.8349 115.009 14.8349C115.055 13.546 115.1 12.3016 115.19 11.1016C115.235 10.1683 115.416 9.1461 115.642 8.21279C116.275 6.07949 117.496 4.43508 119.576 4.03508C120.661 3.85731 121.475 4.16842 122.379 4.47952C123.645 4.92396 123.6 2.87955 122.967 1.8129C122.243 0.657367 120.661 0.0351562 119.078 0.0351562Z" fill="#009FD3"/>
<path d="M137.487 10.3018C136.718 10.3018 135.95 10.924 135.633 11.6351C134.639 13.9461 134.503 16.4794 134.458 18.9683C134.458 21.4571 134.503 24.1237 135.995 26.257C137.171 28.0348 139.838 28.5681 141.601 27.3681C142.732 26.7015 143.319 25.5015 143.862 24.346C143.862 25.6348 143.817 26.9237 143.772 28.257C143.636 30.4347 142.822 36.2124 140.788 36.5235C139.522 36.6568 139.024 34.5236 137.713 35.0569C135.633 36.0346 137.532 39.7679 141.33 39.9901C147.253 40.3012 148.202 33.1458 148.474 27.2348C148.609 24.8348 148.564 22.3904 148.564 19.9905C148.474 17.5905 148.474 15.1461 147.615 12.9239C147.253 11.7684 145.942 11.0573 144.811 11.3684C143.862 11.5906 143.862 12.2573 143.952 13.1906C143.952 13.635 143.907 14.0795 143.907 14.5239C142.641 16.9239 141.556 19.4572 140.2 21.8127C139.702 22.8793 139.612 21.2793 139.522 20.8793C139.341 18.3461 139.431 15.8128 139.341 13.2795C139.386 12.3462 139.25 11.2351 138.391 10.6129C138.12 10.3906 137.803 10.3018 137.487 10.3018Z" fill="#009FD3"/>
<path d="M128.552 0.390865C127.919 1.14641 127.332 3.10193 126.879 5.63522C126.427 8.25739 126.201 11.1907 126.111 14.1684C126.111 15.0573 126.111 15.9017 126.111 16.6572C126.066 18.435 126.066 20.3016 126.111 22.4349C126.201 24.6127 126.382 26.7015 127.151 27.4571C128.01 28.2126 129.502 28.1237 130.225 27.5015C131.039 26.746 131.31 24.6571 131.401 22.4349C131.401 20.5238 131.31 18.1239 131.31 16.6572C131.31 15.9017 131.31 15.1017 131.31 14.2573C131.401 11.1462 131.582 8.70183 131.717 5.99077C131.898 3.50192 131.943 1.5464 131.582 0.746415C130.994 -0.275789 129.05 -0.0980141 128.552 0.390865Z" fill="#009FD3"/>
<path d="M58.2832 35.0504C57.8825 35.0583 57.4982 35.0976 57.3591 35.2234C57.212 35.3807 57.2365 35.6401 57.351 35.7659C57.4818 35.8996 57.8498 35.9468 58.2423 35.9625C58.2341 35.9861 58.2341 36.0176 58.2259 36.0411C58.1442 36.505 58.1033 37.024 58.0869 37.5508C58.0869 37.7081 58.0869 37.8574 58.0869 37.9911C58.0787 38.3056 58.0787 38.6359 58.0869 39.0133C58.1033 39.3985 58.136 39.7681 58.275 39.9018C58.4304 40.0354 58.7002 40.0197 58.8392 39.9096C58.9782 39.776 59.0273 39.4064 59.0436 39.0133C59.0436 38.6752 59.0355 38.2506 59.0273 37.9911C59.0273 37.8574 59.0273 37.7159 59.0273 37.5665C59.0436 37.0161 59.0764 36.5837 59.1009 36.104C59.1091 36.049 59.1091 36.0018 59.1091 35.9468C59.1745 35.9468 59.2481 35.9547 59.3462 35.9625C59.5833 35.9704 59.8287 35.9704 60.0167 35.9547C60.2702 35.9468 60.4256 35.9153 60.4419 35.703C60.4419 35.5222 60.3438 35.3885 60.0903 35.302C59.6815 35.1527 59.3217 35.0976 58.9046 35.0662C58.7084 35.0504 58.5857 35.0504 58.2832 35.0504Z" fill="#003445"/>
<path d="M70.7725 36.7645C70.5436 36.7645 70.2983 36.8431 70.0857 36.969C70.0202 36.8667 69.9139 36.7802 69.7749 36.7724C69.6196 36.7409 69.4478 36.8274 69.3824 36.969C69.3334 37.0476 69.3007 37.8496 69.3007 38.3135C69.2925 38.7459 69.2843 39.2334 69.4642 39.6737C69.5133 39.831 69.6196 40.004 69.8076 39.9961C69.9385 40.004 70.0611 39.9096 70.0857 39.7917C70.1593 39.4614 70.1511 39.1234 70.1674 38.7853C70.1674 38.5887 70.1756 38.3056 70.1756 38.0147C70.1838 37.9832 70.192 37.9518 70.2001 37.9203C70.2983 37.6766 70.4945 37.3621 70.699 37.3306C70.748 37.3228 70.9443 37.3464 70.8952 37.5665C70.8134 37.9125 71.2141 38.0304 71.4104 37.9125C71.484 37.8732 71.5576 37.7867 71.5821 37.6058C71.6148 37.4093 71.5821 37.197 71.4431 37.0476C71.2632 36.8431 71.026 36.7567 70.7725 36.7645Z" fill="#003445"/>
<path d="M82.9 36.7802C82.8101 36.7802 82.7283 36.7881 82.6384 36.8117C82.3031 36.9375 82.0005 37.1577 81.7961 37.4486C81.6162 37.7238 81.4935 38.0383 81.4363 38.3607C81.4036 38.6909 81.4363 39.0526 81.5999 39.3514C81.8043 39.7445 82.1886 39.9883 82.6056 39.9961C82.9246 40.004 83.1862 39.9018 83.3988 39.7209C83.4479 39.8625 83.5624 40.004 83.7259 39.9961C83.8568 40.004 83.9794 39.9096 84.0039 39.7917C84.0775 39.4614 84.0694 39.1234 84.0857 38.7853C84.0857 38.4 84.1021 38.0147 84.0857 37.6373C84.0857 37.4171 83.9467 37.1734 83.7096 37.1498C83.6523 37.0869 83.5951 37.024 83.5215 36.969C83.3498 36.851 83.129 36.7802 82.9 36.7802ZM82.9246 37.6452C83.0309 37.653 83.1208 37.7316 83.1699 37.9439C83.2516 38.3685 83.1862 38.8324 82.9409 39.202C82.7365 39.4772 82.254 39.3514 82.2377 38.8403C82.1968 38.5179 82.2867 38.1798 82.4993 37.9282C82.6302 37.7788 82.7937 37.6452 82.9246 37.6452Z" fill="#003445"/>
<path d="M94.3704 36.7567C93.937 36.8038 93.9861 37.1105 94.0678 37.3385C94.444 38.227 94.9591 39.2806 95.5479 39.9883C96.1367 39.3042 96.6518 38.2978 97.028 37.4407C97.1097 37.2206 97.1588 36.9296 96.7254 36.8825C96.4965 36.8825 96.3902 37.0948 96.1775 37.425C95.9895 37.7238 95.6787 38.1798 95.5479 38.4786C95.4171 38.1641 95.1063 37.6294 94.9183 37.3228C94.7057 36.9768 94.6075 36.7567 94.3704 36.7567Z" fill="#003445"/>
<path d="M107.363 37.2127C107.077 37.5429 106.905 38.0147 106.889 38.4157C106.856 38.7066 106.881 39.0054 107.004 39.2727C107.175 39.6816 107.601 39.9489 108.018 39.9961C108.312 40.0197 108.639 39.9332 108.852 39.7602C109.072 39.5715 109.244 39.2334 109.032 39.1469C108.893 39.0998 108.606 39.3435 108.304 39.3435C107.797 39.3356 107.723 38.9504 107.748 38.6516C108.23 38.6123 108.745 38.4 109.023 38.0619C109.211 37.8496 109.359 37.3464 109.089 37.0476C108.639 36.5444 107.78 36.7724 107.363 37.2127ZM108.533 37.5665C108.492 37.7316 107.952 38.0619 107.789 38.1405C107.813 37.9046 108.075 37.3778 108.336 37.3306C108.394 37.3228 108.59 37.3464 108.533 37.5665Z" fill="#003445"/>
<path d="M119.825 35.1133C119.711 35.247 119.604 35.593 119.523 36.0411C119.441 36.505 119.4 37.024 119.384 37.5508C119.384 37.7081 119.384 37.8574 119.384 37.9911C119.376 38.3056 119.376 38.6359 119.384 39.0133C119.4 39.3985 119.433 39.7681 119.572 39.9018C119.727 40.0354 119.997 40.0197 120.128 39.9096C120.275 39.776 120.324 39.4064 120.34 39.0133C120.34 38.6752 120.324 38.2506 120.324 37.9911C120.324 37.8574 120.324 37.7159 120.324 37.5665C120.34 37.0161 120.373 36.5837 120.398 36.104C120.43 35.6637 120.439 35.3178 120.373 35.1762C120.267 34.9954 119.915 35.0268 119.825 35.1133Z" fill="#003445"/>
<path d="M131.404 39.9883C131.682 39.9961 131.919 39.9018 132.156 39.7445C132.287 39.6423 132.394 39.5086 132.459 39.3592C132.549 39.1234 132.533 38.8796 132.443 38.6437C132.295 38.282 131.985 38.0226 131.649 37.7474C131.584 37.6766 131.502 37.598 131.486 37.5115C131.47 37.4171 131.535 37.3149 131.633 37.3071C131.927 37.3149 131.911 37.8024 132.066 37.8103C132.246 37.8574 132.402 37.7081 132.459 37.5744C132.492 37.5036 132.5 37.2441 132.41 37.1183C132.246 36.8825 131.927 36.7409 131.617 36.7645C131.306 36.7724 131.036 36.9532 130.873 37.1734C130.685 37.4171 130.668 37.7552 130.807 38.0226C130.979 38.3843 131.355 38.6201 131.592 38.9346C131.674 39.0369 131.756 39.1941 131.625 39.2963C131.51 39.4143 131.339 39.43 131.183 39.3278C131.061 39.2177 130.995 39.084 131.036 38.9425C131.11 38.6594 130.546 38.7931 130.521 39.1784C130.513 39.4143 130.644 39.6895 130.881 39.8467C131.036 39.9332 131.224 39.9804 131.404 39.9883Z" fill="#003445"/>
<path d="M24.1547 5.74995C23.738 5.77261 23.4773 5.83361 23.3798 5.92424C23.2823 6.01487 23.1227 6.09853 23.066 6.03753C23.0496 6.01445 23.0382 5.98833 23.0324 5.96076C23.0266 5.9332 23.0266 5.90476 23.0323 5.87718C23.0827 5.67397 23.2014 5.49342 23.3692 5.36477L24.0004 5.2846L23.9135 5.22359C23.9135 5.22359 23.9986 5.14342 24.1103 5.0249L24.6582 5.74995C24.5518 5.74995 24.3586 5.74995 24.1547 5.74995Z" fill="#009FD3"/>
<path d="M24.1303 5.01801C24.3253 4.80712 24.5753 4.49514 24.5523 4.23893C24.5008 3.67945 25.6604 3.56965 25.6728 3.56791L25.7668 3.55919L25.6959 3.49819C25.6445 3.45113 25.5665 3.35876 25.5806 3.30124C25.5806 3.27684 25.6126 3.25593 25.6622 3.24198C25.8891 3.1775 26.1072 2.88469 26.1852 2.7714L26.4973 3.09907L27.0824 2.95789C27.0824 2.95789 27.3413 2.71563 27.5345 2.52391C27.6108 2.46538 27.7056 2.43514 27.8023 2.4385C27.9662 2.43479 28.13 2.45118 28.2899 2.4873L28.8218 2.94569L28.8023 3.37619H28.8448C28.9814 3.37619 29.3768 3.4215 29.4193 3.57488C29.4619 3.72826 29.3892 4.1849 29.4051 4.46899L27.8572 5.22716L27.2863 5.50777L26.437 5.12084L26.4157 5.14176C26.2957 5.22456 26.1509 5.26565 26.0044 5.25853C25.5647 5.2598 25.1261 5.2154 24.6959 5.12607L24.1303 5.01801Z" fill="#009FD3"/>
<path d="M26.0271 5.57569C26.0301 5.55966 26.0374 5.54472 26.0484 5.53245C26.0593 5.52018 26.0734 5.51104 26.0891 5.50598C26.1827 5.47132 26.2817 5.45303 26.3817 5.45195C26.6001 5.4453 26.8187 5.45345 27.036 5.47635L27.2842 5.50423L25.5572 6.35303L25.52 6.3722C25.35 6.31621 25.1832 6.25164 25.02 6.17874C25.0235 6.10498 25.0467 6.03345 25.0874 5.97133C25.1069 5.99359 25.1225 6.01893 25.1335 6.04628C25.1796 6.1404 25.2842 6.18397 25.4455 6.17525C25.7068 6.13875 25.9606 6.06168 26.1973 5.94693L26.2505 5.92253L26.2079 5.88244C26.1512 5.8319 26.0129 5.67678 26.0271 5.57569Z" fill="#009FD3"/>
<path d="M23.5626 30.9456C23.4531 30.9475 23.3457 30.916 23.2551 30.8556C23.1644 30.7952 23.095 30.7087 23.0562 30.6081C23.0174 30.5074 23.0112 30.3974 23.0383 30.2931C23.0655 30.1888 23.1248 30.0953 23.208 30.0254L27.5183 27.1775L23.7009 23.4598L24.6619 22.9875L29.2364 25.6489L35.0786 22.069L37.4652 20.6067L35.2524 18.4507L34.6566 17.8703L28.2364 11.615L30.5414 10.4839L36.5698 14.2625L38.2258 15.2978L42.4067 17.9122L51.7347 15.1409C53.0291 15.1392 53.7454 16.8002 52.6585 17.7013L44.99 23.1426L44.4581 28.2476L43.5148 37.1365L41.2099 38.2676L40.7311 33.7535L40.5538 32.0559L40.2577 29.2794L39.8464 25.3962L37.834 26.1614L30.8197 28.8298L30.0786 34.1003L29.1194 34.5726L28.708 30.6982L28.5555 29.2585L23.6743 30.9282C23.6377 30.9373 23.6003 30.9432 23.5626 30.9456Z" fill="#009FD3"/>
<path d="M42.6301 11.0834C41.7404 9.47171 40.6156 7.99669 39.2914 6.70516L39.1141 6.54133L40.3446 9.07203C40.5063 9.33519 40.6405 9.61373 40.7453 9.9034L39.7825 9.30036L33.7541 5.52173L30.8942 3.73002L29.896 4.22152C30.0733 3.95659 30.2506 3.65856 30.208 3.58884L31.5307 3.30997L31.4758 3.25769C31.4758 3.25769 31.0857 2.8725 31.2559 2.58841C31.302 2.50824 31.4456 2.45943 31.669 2.44723C31.9308 2.43982 32.1928 2.45792 32.4509 2.50126L32.8552 2.56227L32.4722 2.42283C30.1045 1.55702 27.5848 1.16475 25.0608 1.26903C24.9681 1.27636 24.878 1.3031 24.7966 1.34746C24.5608 1.51129 24.1335 2.15442 24.0874 2.21891C24.0413 2.2834 21.4278 4.4847 20.77 4.51433C20.6859 4.5198 20.6014 4.51156 20.52 4.48992L20.3853 3.79276H20.3463C20.3463 3.79276 20.0768 3.82588 19.887 3.83808C19.7558 3.83808 21.5573 2.35312 21.5537 2.35312C21.5218 2.28485 21.4992 2.21278 21.4863 2.13874L21.4775 2.10214H21.4385C21.4385 2.10214 21.0626 2.15965 20.9066 2.17185C21.0056 2.0566 21.1201 1.95516 21.247 1.87033L21.4243 1.74484L21.2097 1.79713C19.6669 2.17148 18.1778 2.73416 16.7771 3.47206H16.7682L16.6654 3.67599L16.6033 3.96008L15.8533 4.36792L16.0661 4.60844L15.2469 5.29689L14.9402 5.25855L14.4916 5.66813L13.981 5.72739L14.0235 5.78316C14.1122 5.89645 14.2363 6.10734 14.2008 6.191C14.2008 6.20146 14.1778 6.23283 14.0909 6.23109C13.7044 6.23109 12.7115 7.20363 12.6725 7.24372L12.5874 7.31867L13.4739 7.29775L12.3941 9.12084L11.9473 9.09121L11.7487 9.54262L11.6547 9.38227L11.3409 9.3997L11.3143 8.93609L11.8959 7.60625L11.4703 7.6289L11.4579 7.64285C10.6218 8.57604 9.88173 9.58839 9.24869 10.6651L9.31606 10.7104L10.3799 9.41713C10.4524 9.38881 10.529 9.37175 10.6068 9.36659C10.8161 9.35439 10.9242 9.45547 10.9384 9.67508C10.9384 9.7204 11.4118 9.73085 11.7859 9.73957C11.5235 9.68902 11.27 9.61931 11.3001 9.54088L11.832 9.74131C11.9678 9.73752 12.1037 9.74569 12.2381 9.76571C12.2448 9.78925 12.2599 9.80964 12.2806 9.82323C12.2044 9.81103 12.043 9.78663 11.8746 9.757L12.9065 10.1422L13.903 11.0311L16.8179 11.472L15.6016 12.6136C15.6016 12.6328 15.7984 14.1927 15.4243 15.2175C15.0696 16.1971 12.692 17.309 12.7168 17.4328C12.6671 17.5408 11.0005 18.4367 10.6583 18.6023C10.3161 18.7678 10.4118 19.2994 10.4491 19.4423C10.2717 19.5312 9.47564 19.9827 9.25401 20.5456C9.2079 20.6624 9.15294 20.7199 9.09266 20.7199C8.94727 20.7199 8.73804 20.4166 8.64939 20.2197L8.63698 20.1953L8.13166 20.2232L7.52882 19.6672L7.10151 20.2423L6.69016 20.3086V20.3905L6.77527 21.8667C7.021 24.4061 7.7921 26.8692 9.04124 29.105C10.9331 27.2436 8.63875 26.6894 8.63875 26.6894C8.63875 26.6894 7.66712 24.1918 9.09266 24.5107C10.5182 24.8297 10.8905 23.3186 11.1388 23.0362L11.1991 24.9116C11.1991 24.9116 12.5785 24.2545 12.2203 25.5791C11.8622 26.9037 10.5342 25.729 10.6459 26.8602C10.7576 27.9913 12.1973 28.7565 12.1973 28.7565L11.3108 30.5691C11.3108 30.5691 11.2948 31.2976 11.3001 32.0157C10.7381 32.1482 10.2061 32.251 9.69373 32.3259C6.68839 28.8401 5.42065 24.9865 5.42065 20.0541C5.42181 15.5206 6.98519 11.1213 9.8559 7.57314C12.7266 4.02502 16.7354 1.53743 21.2286 0.515898C25.7219 -0.505635 30.4347 -0.000861176 34.5987 1.94793C38.7628 3.89672 42.1324 7.17459 44.1584 11.2472L43.3003 11.5017L42.6301 11.0834Z" fill="#009FD3"/>
<path d="M15.6742 36.1272C18.2647 37.9137 20.4207 38.3599 23.5413 38.7241L23.676 39.9999C19.7983 39.6008 17.059 38.8026 14.137 36.5716C14.4112 36.4984 14.6919 36.42 14.9792 36.3363C15.2114 36.2684 15.4437 36.1987 15.6742 36.1272Z" fill="#009FD3"/>
<path d="M2.14062 24.3555C2.19098 24.2862 2.25714 24.2295 2.3338 24.1898C2.41046 24.1502 2.49551 24.1287 2.58212 24.1272C2.71449 24.1393 2.84113 24.1861 2.94883 24.2628C3.05652 24.3394 3.14132 24.443 3.19439 24.5628C3.24746 24.6826 3.26685 24.8143 3.25053 24.944C3.23421 25.0737 3.18279 25.1967 3.10163 25.3002C1.9119 26.7538 1.00764 28.4705 1.4846 30.3808C1.81439 31.7036 2.77538 32.6657 3.97929 33.281C5.29881 33.9304 6.75923 34.2546 8.23463 34.2256C9.19567 34.2179 10.1538 34.121 11.0963 33.9363C11.5928 33.8439 12.0822 33.7324 12.5644 33.6086C12.8765 33.5284 13.1838 33.4436 13.4864 33.3542C16.0911 32.589 18.6496 31.6339 21.2205 30.7677C21.2933 30.7418 21.3701 30.7282 21.4475 30.7276C22.1088 30.7276 22.334 31.8065 21.5822 32.0574C19.0113 32.9289 16.4528 33.877 13.8481 34.6422L13.7808 34.6631C13.2878 34.806 12.7896 34.9402 12.2843 35.0587C11.0085 35.3761 9.69941 35.5457 8.38357 35.5642C8.16725 35.5642 7.94917 35.5642 7.73285 35.5467C4.64596 35.3724 1.05906 34.0548 0.19381 30.8095C-0.456903 28.3799 0.617567 26.2152 2.14062 24.3555Z" fill="#009FD3"/>
</svg>
