<svg width="1920" height="800" viewBox="0 0 1920 800" fill="none" xmlns="http://www.w3.org/2000/svg">
<path d="M0 0L1920 0V800H0L0 0Z" fill="url(#paint0_linear_15205_27323)"/>
<circle cx="1810" cy="170" r="47" fill="url(#paint1_linear_15205_27323)"/>
<circle cx="1776" cy="205" r="24" fill="url(#paint2_linear_15205_27323)"/>
<g opacity="0.4" clip-path="url(#clip0_15205_27323)">
<g opacity="0.15">
<path d="M226.591 442.46L198.394 458.715L169.992 442.46L198.394 426L226.591 442.46Z" fill="#FF7300"/>
<path d="M226.591 442.461V996.552L198.395 1013.01V458.715L226.591 442.461Z" fill="url(#paint3_linear_15205_27323)"/>
<path d="M198.394 458.715V1013.01L169.992 996.552V442.461L198.394 458.715Z" fill="url(#paint4_linear_15205_27323)"/>
</g>
<g opacity="0.1">
<path d="M133.73 572.181L111.945 584.739L90 572.181L111.945 559.463L133.73 572.181Z" fill="#FF7300"/>
<path d="M133.73 572.182V1000.29L111.944 1013.01V584.74L133.73 572.182Z" fill="url(#paint5_linear_15205_27323)"/>
<path d="M111.945 584.74V1013.01L90 1000.29V572.182L111.945 584.74Z" fill="url(#paint6_linear_15205_27323)"/>
</g>
<g opacity="0.05">
<path d="M292.773 640.51L277.942 649.06L263.002 640.51L277.942 631.852L292.773 640.51Z" fill="#FF7300"/>
<path d="M292.774 640.51V931.967L277.942 940.625V649.06L292.774 640.51Z" fill="url(#paint7_linear_15205_27323)"/>
<path d="M277.942 649.06V940.625L263.002 931.967V640.51L277.942 649.06Z" fill="url(#paint8_linear_15205_27323)"/>
</g>
</g>
<path opacity="0.1" d="M125.002 277.65L91.291 225.021L148.01 225.505L125.002 277.65Z" stroke="#FF7300" stroke-width="2"/>
<path opacity="0.1" d="M144.211 289.098L110.5 236.469L167.219 236.952L144.211 289.098Z" stroke="#FF7300" stroke-width="2"/>
<defs>
<linearGradient id="paint0_linear_15205_27323" x1="960" y1="0" x2="960" y2="800" gradientUnits="userSpaceOnUse">
<stop stop-color="#FFEFE7" stop-opacity="0.2"/>
<stop offset="1" stop-color="#FFEFE7"/>
</linearGradient>
<linearGradient id="paint1_linear_15205_27323" x1="1849.95" y1="119.24" x2="1782.74" y2="201.96" gradientUnits="userSpaceOnUse">
<stop stop-color="#FFEFE7"/>
<stop offset="1" stop-color="#FFF1EA" stop-opacity="0"/>
</linearGradient>
<linearGradient id="paint2_linear_15205_27323" x1="1796.4" y1="179.08" x2="1762.08" y2="221.32" gradientUnits="userSpaceOnUse">
<stop stop-color="#FFEFE7"/>
<stop offset="1" stop-color="#FFF1EA" stop-opacity="0"/>
</linearGradient>
<linearGradient id="paint3_linear_15205_27323" x1="219.045" y1="496.88" x2="254.457" y2="712.919" gradientUnits="userSpaceOnUse">
<stop stop-color="#FF7300"/>
<stop offset="1" stop-color="#FF7300" stop-opacity="0"/>
</linearGradient>
<linearGradient id="paint4_linear_15205_27323" x1="190.793" y1="496.88" x2="225.962" y2="713.001" gradientUnits="userSpaceOnUse">
<stop stop-color="#FF7300"/>
<stop offset="1" stop-color="#FF7300" stop-opacity="0"/>
</linearGradient>
<linearGradient id="paint5_linear_15205_27323" x1="127.899" y1="614.228" x2="155.26" y2="781.148" gradientUnits="userSpaceOnUse">
<stop stop-color="#FF7300"/>
<stop offset="1" stop-color="#FF7300" stop-opacity="0"/>
</linearGradient>
<linearGradient id="paint6_linear_15205_27323" x1="106.071" y1="614.228" x2="133.244" y2="781.211" gradientUnits="userSpaceOnUse">
<stop stop-color="#FF7300"/>
<stop offset="1" stop-color="#FF7300" stop-opacity="0"/>
</linearGradient>
<linearGradient id="paint7_linear_15205_27323" x1="288.804" y1="669.135" x2="307.432" y2="782.773" gradientUnits="userSpaceOnUse">
<stop stop-color="#FF7300"/>
<stop offset="1" stop-color="#FF7300" stop-opacity="0"/>
</linearGradient>
<linearGradient id="paint8_linear_15205_27323" x1="273.943" y1="669.135" x2="292.442" y2="782.816" gradientUnits="userSpaceOnUse">
<stop stop-color="#FF7300"/>
<stop offset="1" stop-color="#FF7300" stop-opacity="0"/>
</linearGradient>
<clipPath id="clip0_15205_27323">
<rect width="203" height="374" fill="white" transform="translate(90 426)"/>
</clipPath>
</defs>
</svg>
