<svg width="213" height="30" viewBox="0 0 213 30" fill="none" xmlns="http://www.w3.org/2000/svg">
<path d="M43.2852 23.0717V6.91855H45.7375V21.1333H53.0945V23.0717H43.2852Z" fill="#051F39"/>
<path d="M57.0295 9.45691C56.5668 9.45691 56.1812 9.31845 55.8728 9.04154C55.5797 8.74924 55.4332 8.38772 55.4332 7.95697C55.4332 7.52622 55.5797 7.17239 55.8728 6.89547C56.1812 6.60318 56.5668 6.45703 57.0295 6.45703C57.4922 6.45703 57.8701 6.60318 58.1632 6.89547C58.4716 7.17239 58.6259 7.52622 58.6259 7.95697C58.6259 8.38772 58.4716 8.74924 58.1632 9.04154C57.8701 9.31845 57.4922 9.45691 57.0295 9.45691ZM55.8034 23.0717V11.626H58.2557V23.0717H55.8034Z" fill="#051F39"/>
<path d="M61.493 23.0717V11.626H63.6677L63.8528 13.6337C64.2076 12.926 64.7243 12.3722 65.4029 11.9722C66.097 11.5568 66.8913 11.3491 67.7858 11.3491C69.174 11.3491 70.2613 11.7799 71.0479 12.6414C71.8499 13.5029 72.251 14.7875 72.251 16.4951V23.0717H69.8217V16.7489C69.8217 14.5336 68.9118 13.426 67.0918 13.426C66.1818 13.426 65.426 13.749 64.8245 14.3952C64.2384 15.0413 63.9454 15.9643 63.9454 17.1643V23.0717H61.493Z" fill="#051F39"/>
<path d="M75.1393 23.0717V6.45703H77.5916V16.3566L81.9873 11.626H84.9255L80.0439 16.8181L85.6427 23.0717H82.5426L77.5916 17.2104V23.0717H75.1393Z" fill="#051F39"/>
<path d="M87.566 23.0717V6.91855H94.067C95.7482 6.91855 97.0283 7.31084 97.9075 8.09542C98.8021 8.86462 99.2493 9.85689 99.2493 11.0722C99.2493 12.0876 98.9717 12.9029 98.4165 13.5183C97.8766 14.1183 97.2134 14.5259 96.4268 14.7413C97.3522 14.9259 98.1157 15.3874 98.7172 16.1259C99.3187 16.8489 99.6195 17.695 99.6195 18.6642C99.6195 19.9411 99.1568 20.9949 98.2314 21.8256C97.306 22.6564 95.995 23.0717 94.2984 23.0717H87.566ZM90.5273 13.7029H93.6275C94.4603 13.7029 95.1004 13.5106 95.5477 13.126C95.995 12.7414 96.2186 12.1953 96.2186 11.4876C96.2186 10.8107 95.995 10.28 95.5477 9.89535C95.1158 9.49537 94.4603 9.29538 93.5812 9.29538H90.5273V13.7029ZM90.5273 20.6718H93.8357C94.7148 20.6718 95.3935 20.4718 95.8716 20.0719C96.3651 19.6565 96.6119 19.0796 96.6119 18.3412C96.6119 17.5873 96.3574 16.9951 95.8484 16.5643C95.3395 16.1336 94.6531 15.9182 93.7894 15.9182H90.5273V20.6718Z" fill="#051F39"/>
<path d="M106.395 23.3486C104.961 23.3486 103.85 22.9025 103.063 22.0102C102.292 21.118 101.907 19.8103 101.907 18.0873V11.626H104.845V17.8104C104.845 18.795 105.045 19.5488 105.446 20.0719C105.847 20.5949 106.48 20.8564 107.343 20.8564C108.161 20.8564 108.832 20.5641 109.356 19.9795C109.896 19.395 110.166 18.5796 110.166 17.5335V11.626H113.127V23.0717H110.513L110.282 21.1333C109.927 21.8102 109.41 22.3487 108.732 22.7487C108.068 23.1486 107.289 23.3486 106.395 23.3486Z" fill="#051F39"/>
<path d="M117.764 9.8492C117.224 9.8492 116.776 9.68767 116.422 9.3646C116.082 9.04154 115.913 8.63386 115.913 8.14158C115.913 7.64929 116.082 7.24931 116.422 6.94163C116.776 6.61856 117.224 6.45703 117.764 6.45703C118.303 6.45703 118.743 6.61856 119.082 6.94163C119.437 7.24931 119.614 7.64929 119.614 8.14158C119.614 8.63386 119.437 9.04154 119.082 9.3646C118.743 9.68767 118.303 9.8492 117.764 9.8492ZM116.283 23.0717V11.626H119.244V23.0717H116.283Z" fill="#051F39"/>
<path d="M122.335 23.0717V6.45703H125.296V23.0717H122.335Z" fill="#051F39"/>
<path d="M133.597 23.3486C132.518 23.3486 131.554 23.0871 130.705 22.5641C129.857 22.041 129.186 21.3256 128.692 20.418C128.199 19.5103 127.952 18.4796 127.952 17.3258C127.952 16.172 128.199 15.149 128.692 14.2567C129.186 13.3491 129.857 12.6414 130.705 12.1337C131.554 11.6107 132.518 11.3491 133.597 11.3491C134.461 11.3491 135.217 11.5107 135.864 11.8337C136.512 12.1568 137.037 12.6106 137.438 13.1952V6.45703H140.399V23.0717H137.762L137.438 21.4333C137.067 21.941 136.574 22.3871 135.957 22.7717C135.355 23.1563 134.569 23.3486 133.597 23.3486ZM134.222 20.7641C135.178 20.7641 135.957 20.4488 136.558 19.818C137.175 19.1719 137.484 18.3488 137.484 17.3489C137.484 16.3489 137.175 15.5336 136.558 14.9028C135.957 14.2567 135.178 13.9336 134.222 13.9336C133.281 13.9336 132.502 14.249 131.885 14.8798C131.268 15.5105 130.96 16.3259 130.96 17.3258C130.96 18.3258 131.268 19.1488 131.885 19.7949C132.502 20.4411 133.281 20.7641 134.222 20.7641Z" fill="#051F39"/>
<path d="M148.99 23.3486C147.833 23.3486 146.808 23.1025 145.913 22.6102C145.019 22.1179 144.317 21.4256 143.808 20.5334C143.299 19.6411 143.044 18.6104 143.044 17.4412C143.044 16.2566 143.291 15.2028 143.785 14.2798C144.294 13.3567 144.988 12.6414 145.867 12.1337C146.761 11.6107 147.81 11.3491 149.013 11.3491C150.139 11.3491 151.134 11.5953 151.998 12.0876C152.861 12.5799 153.532 13.2568 154.01 14.1183C154.504 14.9644 154.751 15.9105 154.751 16.9566C154.751 17.1258 154.743 17.3027 154.728 17.4873C154.728 17.672 154.72 17.8643 154.705 18.0642H145.983C146.044 18.9565 146.353 19.6565 146.908 20.1642C147.479 20.6718 148.165 20.9257 148.967 20.9257C149.569 20.9257 150.07 20.7949 150.471 20.5334C150.887 20.2565 151.196 19.9026 151.396 19.4719H154.404C154.188 20.1949 153.825 20.8564 153.316 21.4564C152.823 22.041 152.206 22.5025 151.466 22.841C150.741 23.1794 149.916 23.3486 148.99 23.3486ZM149.013 13.749C148.288 13.749 147.648 13.9567 147.093 14.3721C146.538 14.7721 146.183 15.3874 146.029 16.2182H151.743C151.697 15.4644 151.419 14.8644 150.91 14.4182C150.401 13.9721 149.769 13.749 149.013 13.749Z" fill="#051F39"/>
<path d="M157.241 23.0717V11.626H159.879L160.157 13.7721C160.573 13.0337 161.136 12.4491 161.845 12.0183C162.57 11.5722 163.419 11.3491 164.39 11.3491V14.4644H163.557C162.91 14.4644 162.331 14.5644 161.822 14.7644C161.313 14.9644 160.912 15.3105 160.619 15.8028C160.342 16.2951 160.203 16.9797 160.203 17.8566V23.0717H157.241Z" fill="#051F39"/>
<path d="M166.484 23.0717V6.91855H172.476C173.771 6.91855 174.843 7.13393 175.692 7.56468C176.54 7.99543 177.172 8.58771 177.589 9.34153C178.005 10.0953 178.213 10.9415 178.213 11.8799C178.213 12.7722 178.013 13.5952 177.612 14.349C177.211 15.0874 176.586 15.6874 175.738 16.1489C174.89 16.5951 173.802 16.8181 172.476 16.8181H169.445V23.0717H166.484ZM169.445 14.4182H172.291C173.324 14.4182 174.064 14.1952 174.512 13.749C174.974 13.2875 175.206 12.6645 175.206 11.8799C175.206 11.0799 174.974 10.4569 174.512 10.0107C174.064 9.54921 173.324 9.31845 172.291 9.31845H169.445V14.4182Z" fill="#051F39"/>
<path d="M180.467 23.0717V11.626H183.105L183.382 13.7721C183.799 13.0337 184.362 12.4491 185.071 12.0183C185.796 11.5722 186.644 11.3491 187.616 11.3491V14.4644H186.783C186.135 14.4644 185.557 14.5644 185.048 14.7644C184.539 14.9644 184.138 15.3105 183.845 15.8028C183.567 16.2951 183.429 16.9797 183.429 17.8566V23.0717H180.467Z" fill="#051F39"/>
<path d="M194.943 23.3486C193.832 23.3486 192.83 23.0948 191.935 22.5871C191.056 22.0795 190.354 21.3795 189.83 20.4872C189.321 19.5796 189.066 18.5335 189.066 17.3489C189.066 16.1643 189.329 15.1259 189.853 14.2336C190.377 13.326 191.079 12.6183 191.958 12.1106C192.853 11.603 193.855 11.3491 194.966 11.3491C196.061 11.3491 197.048 11.603 197.927 12.1106C198.822 12.6183 199.524 13.326 200.033 14.2336C200.557 15.1259 200.819 16.1643 200.819 17.3489C200.819 18.5335 200.557 19.5796 200.033 20.4872C199.524 21.3795 198.822 22.0795 197.927 22.5871C197.033 23.0948 196.038 23.3486 194.943 23.3486ZM194.943 20.7872C195.714 20.7872 196.385 20.5026 196.956 19.9334C197.526 19.3488 197.812 18.4873 197.812 17.3489C197.812 16.2105 197.526 15.3567 196.956 14.7875C196.385 14.2029 195.722 13.9106 194.966 13.9106C194.179 13.9106 193.501 14.2029 192.93 14.7875C192.375 15.3567 192.097 16.2105 192.097 17.3489C192.097 18.4873 192.375 19.3488 192.93 19.9334C193.501 20.5026 194.172 20.7872 194.943 20.7872Z" fill="#051F39"/>
<path d="M208.21 23.3486C207.192 23.3486 206.297 23.1871 205.526 22.864C204.755 22.5256 204.138 22.0641 203.675 21.4795C203.212 20.8949 202.935 20.218 202.842 19.4488H205.827C205.919 19.8949 206.166 20.2795 206.567 20.6026C206.984 20.9103 207.516 21.0641 208.163 21.0641C208.811 21.0641 209.282 20.9334 209.575 20.6718C209.883 20.4103 210.037 20.1103 210.037 19.7719C210.037 19.2796 209.821 18.9488 209.39 18.7796C208.958 18.595 208.356 18.4181 207.585 18.2489C207.091 18.1412 206.59 18.0104 206.081 17.8566C205.572 17.7027 205.102 17.5104 204.67 17.2797C204.254 17.0335 203.914 16.7258 203.652 16.3566C203.39 15.972 203.259 15.5028 203.259 14.949C203.259 13.9336 203.66 13.0798 204.462 12.3876C205.279 11.6953 206.421 11.3491 207.886 11.3491C209.243 11.3491 210.323 11.6645 211.125 12.2953C211.942 12.926 212.428 13.7952 212.582 14.9028H209.783C209.613 14.0567 208.973 13.6337 207.863 13.6337C207.307 13.6337 206.876 13.7413 206.567 13.9567C206.274 14.1721 206.128 14.4413 206.128 14.7644C206.128 15.1028 206.351 15.372 206.798 15.572C207.246 15.772 207.84 15.9566 208.58 16.1259C209.382 16.3105 210.115 16.5182 210.778 16.7489C211.456 16.9643 211.996 17.295 212.397 17.7412C212.798 18.1719 212.999 18.795 212.999 19.6103C213.014 20.318 212.829 20.9564 212.443 21.5256C212.058 22.0948 211.503 22.541 210.778 22.864C210.053 23.1871 209.197 23.3486 208.21 23.3486Z" fill="#051F39"/>
<g clip-path="url(#clip0_15503_23135)">
<path fill-rule="evenodd" clip-rule="evenodd" d="M6.20148 10.7228C6.20148 10.7228 4.54775 12.3723 2.68731 14.228C0.930222 15.9806 0 18.2486 0 20.7228C0 23.094 0.930222 25.4651 2.68731 27.1146C2.79067 27.2177 2.79067 27.2177 2.89402 27.3208C4.65111 29.0734 6.92499 30.0012 9.30222 30.0012C11.6795 30.0012 14.0567 29.0734 15.8138 27.3208C17.6742 25.4651 19.3279 23.8156 19.3279 23.8156C20.1548 22.9909 20.1548 21.7538 19.3279 20.929C18.5011 20.1043 17.2608 20.1043 16.4339 20.929C16.4339 20.929 14.7802 22.5785 12.9197 24.4342C11.9895 25.362 10.6459 25.8775 9.30222 25.8775C7.95857 25.8775 6.61491 25.362 5.68469 24.4342L5.47797 24.228C4.54775 23.3002 4.03096 21.96 4.03096 20.6197C4.03096 19.2795 4.54775 17.9393 5.47797 17.0115C7.33842 15.1558 8.99215 13.5063 8.99215 13.5063C9.81901 12.6816 9.81901 11.4445 8.99215 10.6197C8.26864 10.0012 7.02834 10.0012 6.20148 10.7228Z" fill="#FF7300"/>
<path fill-rule="evenodd" clip-rule="evenodd" d="M18.1921 8.96897L8.99319 18.1442C8.16633 18.969 8.16633 20.2061 8.99319 21.0308C9.82006 21.8556 11.0604 21.8556 11.8872 21.0308L21.0861 11.8556C21.9129 11.0308 21.9129 9.79371 21.0861 8.96897C20.2592 8.24732 19.0189 8.24732 18.1921 8.96897Z" fill="#0061BF"/>
<path fill-rule="evenodd" clip-rule="evenodd" d="M23.8775 19.2783C23.8775 19.2783 25.5312 17.6289 27.3916 15.7732C29.1487 14.0206 30.079 11.7526 30.079 9.38144C30.079 7.01031 29.1487 4.63917 27.3916 2.98969C27.2883 2.8866 27.2883 2.8866 27.1849 2.78351C25.5312 0.927835 23.154 0 20.7767 0C18.3995 0 16.0223 0.927835 14.2652 2.68041C12.4047 4.53608 10.751 6.18557 10.751 6.18557C9.92414 7.01031 9.92414 8.24742 10.751 9.07216C11.5779 9.89691 12.8182 9.89691 13.645 9.07216C13.645 9.07216 15.2988 7.42268 17.1592 5.56701C18.0894 4.63918 19.4331 4.12371 20.7767 4.12371C22.1204 4.12371 23.464 4.63918 24.3943 5.56701L24.601 5.7732C25.5312 6.70103 26.048 8.04124 26.048 9.38144C26.048 10.7216 25.5312 12.0619 24.601 12.9897C22.7405 14.8454 21.0868 16.4948 21.0868 16.4948C20.2599 17.3196 20.2599 18.5567 21.0868 19.3814C21.8103 20.1031 23.0506 20.1031 23.8775 19.2783Z" fill="#FF7300"/>
</g>
<defs>
<clipPath id="clip0_15503_23135">
<rect width="30.0772" height="30" fill="white"/>
</clipPath>
</defs>
</svg>
