<svg width="169" height="48" viewBox="0 0 169 48" fill="none" xmlns="http://www.w3.org/2000/svg">
<g clip-path="url(#clip0_15403_11606)">
<path d="M25.3215 4.12121L21.4022 2.99023L18.0993 16.2649L15.1175 4.28044L11.1981 5.41141L14.4198 18.3597L6.39523 9.71792L3.52607 12.8078L12.328 22.2869L1.36659 19.1238L0.316406 23.3446L12.2931 26.8006C12.156 26.1637 12.0835 25.5001 12.0835 24.8182C12.0835 19.9915 15.7168 16.0787 20.1987 16.0787C24.6806 16.0787 28.3139 19.9915 28.3139 24.8182C28.3139 25.4957 28.2423 26.1552 28.1068 26.7884L38.9915 29.9293L40.0416 25.7085L28.0173 22.2387L38.9794 19.0754L37.9292 14.8546L25.9053 18.3242L33.9299 9.68244L31.0607 6.59258L22.3809 15.9402L25.3215 4.12121Z" fill="white" fill-opacity="0.5"/>
<path d="M28.0954 26.8376C27.7594 28.3675 27.0499 29.7419 26.0765 30.8431L33.962 39.3352L36.8311 36.2453L28.0954 26.8376Z" fill="white" fill-opacity="0.5"/>
<path d="M25.9969 30.9318C25.0118 32.0154 23.7668 32.8241 22.3707 33.2408L25.2401 44.7731L29.1594 43.642L25.9969 30.9318Z" fill="white" fill-opacity="0.5"/>
<path d="M22.2243 33.283C21.5766 33.4623 20.8977 33.5576 20.198 33.5576C19.4484 33.5576 18.7226 33.4481 18.0335 33.2433L15.1615 44.7861L19.0808 45.917L22.2243 33.283Z" fill="white" fill-opacity="0.5"/>
<path d="M17.8949 33.2007C16.5201 32.7633 15.2973 31.9443 14.3323 30.8577L6.42743 39.3706L9.29658 42.4604L17.8949 33.2007Z" fill="white" fill-opacity="0.5"/>
<path d="M14.2671 30.7824C13.3186 29.6888 12.6278 28.3328 12.2989 26.8265L1.37873 29.9776L2.42891 34.1984L14.2671 30.7824Z" fill="white" fill-opacity="0.5"/>
</g>
<path d="M63.6262 12.9092V28.1192L54.5726 12.9092H50.9512V33.9092H54.5726V18.8192L63.6262 33.9092H67.2476V12.9092H63.6262Z" fill="white" fill-opacity="0.5"/>
<path d="M68.8794 16.8392H72.6123V12.9092H68.8794V16.8392ZM68.9351 33.9092V18.9092H72.5566V33.9092H68.9351Z" fill="white" fill-opacity="0.5"/>
<path d="M88.1381 26.4092C88.1381 21.2192 84.7116 18.7592 81.0902 18.7292C77.4409 18.6992 74.0702 21.2192 74.0702 26.4092C74.0702 31.5992 77.4409 34.1192 81.0902 34.0892C84.4052 34.0592 86.6895 32.4092 87.7481 29.6792L84.9345 28.4192C84.0709 30.2792 82.7059 30.9392 81.0902 30.9692C79.6973 30.9992 78.1095 30.2792 77.7752 27.6092H88.0545C88.1102 27.2192 88.1381 26.8292 88.1381 26.4092ZM81.0902 21.8192C82.4831 21.8492 83.9038 22.6592 84.3495 24.8192H77.8309C78.3045 22.6292 79.7252 21.7892 81.0902 21.8192Z" fill="white" fill-opacity="0.5"/>
<path d="M96.5074 21.6992V18.7292H94.2231V14.7092L90.6017 15.9092V18.7292H88.3174V21.6992H90.6017V29.4692C90.6017 32.4092 90.8245 33.9092 95.0588 33.9092H96.0338V30.4892H95.0588C94.3902 30.4892 94.2231 30.3692 94.2231 29.4692V21.6992H96.5074Z" fill="white" fill-opacity="0.5"/>
<path d="M101.889 30.6392L109.577 22.1792V18.9092H98.0443V22.1792H105.51L97.8215 30.6392V33.9092H109.661V30.6392H101.889Z" fill="white" fill-opacity="0.5"/>
<path d="M110.959 29.6792L114.608 29.0792C114.859 30.5792 116.503 31.1492 117.506 31.1492C118.536 31.1492 120.319 30.9092 120.319 29.1092C120.319 25.5992 111.377 29.9792 111.377 23.2592C111.377 18.9392 116.029 18.6992 117.506 18.6992C118.898 18.6992 122.938 18.9392 123.773 22.4192L120.319 23.1992C120.013 21.6092 118.453 21.3092 117.617 21.3092C116.781 21.3092 114.998 21.5192 114.998 23.2592C114.998 26.7392 123.941 22.2992 123.941 29.1092C123.941 33.6992 119.038 34.0892 117.506 34.0892C116.113 34.0892 111.683 33.6992 110.959 29.6792Z" fill="white" fill-opacity="0.5"/>
<path d="M128.645 26.4092C128.645 30.0692 130.456 31.1792 132.35 31.1492C134.049 31.1192 135.219 30.3692 135.916 28.2692L138.897 29.8292C137.81 32.8892 135.164 34.0592 132.35 34.0892C128.701 34.1192 125.024 31.5992 125.024 26.4092C125.024 21.2192 128.701 18.6992 132.35 18.7292C135.164 18.7592 137.81 19.9292 138.897 22.9892L135.916 24.5492C135.219 22.4492 134.049 21.6992 132.35 21.6692C130.456 21.6392 128.645 22.7492 128.645 26.4092Z" fill="white" fill-opacity="0.5"/>
<path d="M148.618 18.6692C146.752 18.6692 145.053 19.7192 143.966 21.9692V12.9092H140.345V33.9092H143.966V28.5992C143.966 21.7292 146.613 21.1592 147.588 21.1592C149.148 21.1592 149.371 22.8992 149.371 25.4492V33.9092H152.992V25.4492C152.992 22.2692 152.518 18.6692 148.618 18.6692Z" fill="white" fill-opacity="0.5"/>
<path d="M168.282 26.4092C168.282 21.2192 164.855 18.7592 161.234 18.7292C157.585 18.6992 154.214 21.2192 154.214 26.4092C154.214 31.5992 157.585 34.1192 161.234 34.0892C164.549 34.0592 166.833 32.4092 167.892 29.6792L165.078 28.4192C164.215 30.2792 162.85 30.9392 161.234 30.9692C159.841 30.9992 158.253 30.2792 157.919 27.6092H168.198C168.254 27.2192 168.282 26.8292 168.282 26.4092ZM161.234 21.8192C162.627 21.8492 164.047 22.6592 164.493 24.8192H157.975C158.448 22.6292 159.869 21.7892 161.234 21.8192Z" fill="white" fill-opacity="0.5"/>
<defs>
<clipPath id="clip0_15403_11606">
<rect width="40.8571" height="44" fill="white" transform="translate(0 2)"/>
</clipPath>
</defs>
</svg>
