<svg width="169" height="48" viewBox="0 0 169 48" fill="none" xmlns="http://www.w3.org/2000/svg">
<path opacity="0.8" d="M30.9889 11.1628C30.62 10.7306 30.2511 10.2984 29.8822 9.86617C28.7754 8.48307 27.5949 7.09997 26.1192 6.23553C24.4222 5.1982 22.5777 5.45752 20.7331 5.45752C17.9293 5.45752 10.9199 5.45752 6.78809 5.45752L9.59184 9.86617C14.6829 9.86617 22.6514 9.86617 26.3406 9.86617C27.89 9.86617 29.2181 10.2119 30.4724 11.1628C30.6938 11.2493 30.9151 11.2493 30.9889 11.1628Z" fill="white" fill-opacity="0.5"/>
<path opacity="0.9" d="M34.0879 18.2517C33.719 17.8195 33.3501 17.3873 32.9812 16.955C31.8744 15.5719 30.6939 14.1888 29.2182 13.3244C27.5212 12.2871 25.6766 12.5464 23.8321 12.5464C21.3972 12.5464 15.5684 12.5464 11.4365 12.5464L14.2403 16.955C19.2575 16.955 26.1193 16.955 29.5134 16.955C31.0628 16.955 32.3909 17.3008 33.6452 18.2517C33.7928 18.3381 33.9403 18.3381 34.0879 18.2517Z" fill="white" fill-opacity="0.5"/>
<path d="M37.5559 25.1667C37.187 24.7345 36.8181 24.3023 36.4492 23.8701C35.3424 22.487 34.1619 21.1039 32.6862 20.2394C30.9892 19.2021 29.1447 19.4614 27.3001 19.4614C25.0128 19.4614 19.9956 19.4614 15.9375 19.4614L18.7412 23.8701C23.6109 23.8701 29.8087 23.8701 32.9076 23.8701C34.457 23.8701 35.7851 24.2159 37.0394 25.1667C37.2608 25.2532 37.4083 25.3396 37.5559 25.1667Z" fill="white" fill-opacity="0.5"/>
<path opacity="0.8" d="M6.49316 36.8373C6.86208 37.2695 7.23099 37.7017 7.59991 38.134C8.70665 39.5171 9.88718 40.9001 11.3628 41.7646C13.0598 42.8019 14.9044 42.5426 16.749 42.5426H30.694L27.8902 38.134C22.7992 38.134 14.8306 38.134 11.1415 38.134C9.59205 38.134 8.26395 37.7882 7.00964 36.8373C6.78829 36.7508 6.64073 36.7508 6.49316 36.8373Z" fill="white" fill-opacity="0.5"/>
<path opacity="0.9" d="M3.39453 29.7484C3.76345 30.1806 4.13236 30.6129 4.50128 31.0451C5.60802 32.4282 6.78854 33.8113 8.2642 34.6757C9.96121 35.7131 11.8058 35.4537 13.6504 35.4537H26.0459L23.2422 31.0451C18.2249 31.0451 11.3631 31.0451 7.96908 31.0451C6.41963 31.0451 5.09153 30.6993 3.83722 29.7484C3.68966 29.662 3.5421 29.662 3.39453 29.7484Z" fill="white" fill-opacity="0.5"/>
<path d="M0 22.7465C0.368915 23.1787 0.73783 23.6109 1.10675 24.0431C2.21349 25.4262 3.39402 26.8094 4.86968 27.6738C6.56669 28.7111 8.41126 28.4518 10.2558 28.4518H21.6184L18.8147 24.0431C13.945 24.0431 7.74722 24.0431 4.64833 24.0431C3.09889 24.0431 1.77079 23.6974 0.516479 22.7465C0.29513 22.66 0.147566 22.66 0 22.7465Z" fill="white" fill-opacity="0.5"/>
<path d="M46.0332 14.0078V33.9998H49.7853V25.7398H56.9311V22.3238H49.7853V17.7038H58.0305V14.0078H46.0332Z" fill="white" fill-opacity="0.5"/>
<path d="M67.4413 25.2078H61.9206C61.9365 24.9278 61.9843 24.6105 62.064 24.2558C62.1596 23.9011 62.311 23.5651 62.5181 23.2478C62.7411 22.9305 63.0279 22.6691 63.3785 22.4638C63.7449 22.2398 64.199 22.1278 64.7407 22.1278C65.5692 22.1278 66.1826 22.3891 66.5809 22.9118C66.9952 23.4345 67.282 24.1998 67.4413 25.2078ZM61.9206 27.7278H70.8349C70.8987 26.6078 70.819 25.5345 70.5959 24.5078C70.3729 23.4811 70.0064 22.5665 69.4966 21.7638C69.0027 20.9611 68.3654 20.3265 67.5847 19.8598C66.804 19.3745 65.8878 19.1318 64.8363 19.1318C63.8963 19.1318 63.0359 19.3278 62.2552 19.7198C61.4904 20.1118 60.8292 20.6531 60.2716 21.3438C59.7139 22.0158 59.2838 22.8185 58.981 23.7518C58.6783 24.6851 58.527 25.6931 58.527 26.7758C58.527 27.8958 58.6704 28.9225 58.9571 29.8558C59.2599 30.7891 59.6821 31.5918 60.2238 32.2638C60.7655 32.9358 61.4267 33.4585 62.2074 33.8318C62.9881 34.1865 63.8644 34.3638 64.8363 34.3638C66.2384 34.3638 67.4333 33.9905 68.4211 33.2438C69.409 32.4971 70.1419 31.2558 70.6198 29.5198H67.6325C67.5209 29.9678 67.2182 30.3971 66.7243 30.8078C66.2304 31.1998 65.6409 31.3958 64.9558 31.3958C63.9998 31.3958 63.2669 31.1065 62.7571 30.5278C62.2472 29.9491 61.9684 29.0158 61.9206 27.7278Z" fill="white" fill-opacity="0.5"/>
<path d="M71.9873 23.9758C72.0351 23.0425 72.2343 22.2678 72.5848 21.6518C72.9353 21.0358 73.3814 20.5411 73.9231 20.1678C74.4648 19.7945 75.0703 19.5331 75.7395 19.3838C76.4246 19.2158 77.1097 19.1318 77.7948 19.1318C78.4161 19.1318 79.0455 19.1878 79.6828 19.2998C80.3201 19.3931 80.9016 19.5891 81.4274 19.8878C81.9532 20.1865 82.3834 20.6065 82.718 21.1478C83.0525 21.6705 83.2198 22.3705 83.2198 23.2478V30.7798C83.2198 31.4331 83.2517 32.0585 83.3154 32.6558C83.3792 33.2531 83.4907 33.7011 83.65 33.9998H80.2086C80.1448 33.7758 80.0891 33.5518 80.0413 33.3278C80.0094 33.0851 79.9855 32.8425 79.9696 32.5998C79.4279 33.2531 78.7906 33.7105 78.0577 33.9718C77.3248 34.2331 76.5759 34.3638 75.8112 34.3638C75.2216 34.3638 74.672 34.2798 74.1621 34.1118C73.6523 33.9438 73.2062 33.6825 72.8238 33.3278C72.4414 32.9731 72.1387 32.5251 71.9156 31.9838C71.7085 31.4425 71.6049 30.7985 71.6049 30.0518C71.6049 29.2305 71.7244 28.5585 71.9634 28.0358C72.2183 27.4945 72.537 27.0651 72.9194 26.7478C73.3177 26.4305 73.7638 26.1971 74.2577 26.0478C74.7676 25.8798 75.2774 25.7491 75.7873 25.6558C76.2971 25.5625 76.799 25.4878 77.2929 25.4318C77.7868 25.3758 78.225 25.2918 78.6073 25.1798C78.9897 25.0678 79.2924 24.9091 79.5155 24.7038C79.7386 24.4798 79.8421 24.1625 79.8262 23.7518C79.8262 23.3225 79.7625 22.9865 79.635 22.7438C79.5235 22.4825 79.3641 22.2865 79.157 22.1558C78.9658 22.0065 78.7348 21.9131 78.4639 21.8758C78.209 21.8198 77.9302 21.7918 77.6275 21.7918C76.9583 21.7918 76.4325 21.9598 76.0501 22.2958C75.6678 22.6318 75.4447 23.1918 75.381 23.9758H71.9873ZM79.8262 26.9158C79.6828 27.0651 79.4996 27.1865 79.2765 27.2798C79.0694 27.3545 78.8384 27.4198 78.5834 27.4758C78.3444 27.5318 78.0895 27.5785 77.8187 27.6158C77.5478 27.6531 77.277 27.6998 77.0061 27.7558C76.7512 27.8118 76.4963 27.8865 76.2413 27.9798C76.0023 28.0731 75.7873 28.2038 75.5961 28.3718C75.4208 28.5211 75.2774 28.7171 75.1659 28.9598C75.0544 29.2025 74.9986 29.5105 74.9986 29.8838C74.9986 30.2385 75.0544 30.5371 75.1659 30.7798C75.2774 31.0225 75.4288 31.2185 75.62 31.3678C75.8112 31.4985 76.0342 31.5918 76.2891 31.6478C76.5441 31.7038 76.8069 31.7318 77.0778 31.7318C77.747 31.7318 78.2648 31.6011 78.6312 31.3398C78.9977 31.0785 79.2685 30.7705 79.4438 30.4158C79.6191 30.0425 79.7226 29.6691 79.7545 29.2958C79.8023 28.9225 79.8262 28.6238 79.8262 28.3998V26.9158Z" fill="white" fill-opacity="0.5"/>
<path d="M89.4388 19.5238V15.1838H86.0451V19.5238H83.9898V22.1838H86.0451V30.7238C86.0451 31.4518 86.1487 32.0398 86.3558 32.4878C86.563 32.9358 86.8418 33.2811 87.1923 33.5238C87.5587 33.7665 87.973 33.9251 88.435 33.9998C88.913 34.0931 89.4149 34.1398 89.9407 34.1398C90.2753 34.1398 90.6178 34.1305 90.9683 34.1118C91.3189 34.0931 91.6375 34.0558 91.9243 33.9998V30.9198C91.765 30.9571 91.5977 30.9851 91.4224 31.0038C91.2472 31.0225 91.0639 31.0318 90.8727 31.0318C90.2992 31.0318 89.9168 30.9198 89.7256 30.6958C89.5344 30.4718 89.4388 30.0238 89.4388 29.3518V22.1838H91.9243V19.5238H89.4388Z" fill="white" fill-opacity="0.5"/>
<path d="M92.822 14.0078V33.9998H96.2157V26.4118C96.2157 24.9371 96.4228 23.8825 96.837 23.2478C97.2513 22.5945 97.9205 22.2678 98.8445 22.2678C99.6571 22.2678 100.223 22.5665 100.541 23.1638C100.86 23.7425 101.019 24.6291 101.019 25.8238V33.9998H104.413V25.0958C104.413 24.1998 104.341 23.3878 104.198 22.6598C104.07 21.9131 103.839 21.2878 103.505 20.7838C103.17 20.2611 102.708 19.8598 102.119 19.5798C101.545 19.2811 100.804 19.1318 99.8961 19.1318C99.2588 19.1318 98.6056 19.3278 97.9364 19.7198C97.2672 20.0931 96.7175 20.6998 96.2874 21.5398H96.2157V14.0078H92.822Z" fill="white" fill-opacity="0.5"/>
<path d="M114.589 25.2078H109.068C109.084 24.9278 109.132 24.6105 109.211 24.2558C109.307 23.9011 109.458 23.5651 109.665 23.2478C109.888 22.9305 110.175 22.6691 110.526 22.4638C110.892 22.2398 111.346 22.1278 111.888 22.1278C112.716 22.1278 113.33 22.3891 113.728 22.9118C114.142 23.4345 114.429 24.1998 114.589 25.2078ZM109.068 27.7278H117.982C118.046 26.6078 117.966 25.5345 117.743 24.5078C117.52 23.4811 117.154 22.5665 116.644 21.7638C116.15 20.9611 115.513 20.3265 114.732 19.8598C113.951 19.3745 113.035 19.1318 111.984 19.1318C111.044 19.1318 110.183 19.3278 109.402 19.7198C108.638 20.1118 107.977 20.6531 107.419 21.3438C106.861 22.0158 106.431 22.8185 106.128 23.7518C105.826 24.6851 105.674 25.6931 105.674 26.7758C105.674 27.8958 105.818 28.9225 106.104 29.8558C106.407 30.7891 106.829 31.5918 107.371 32.2638C107.913 32.9358 108.574 33.4585 109.355 33.8318C110.135 34.1865 111.012 34.3638 111.984 34.3638C113.386 34.3638 114.581 33.9905 115.568 33.2438C116.556 32.4971 117.289 31.2558 117.767 29.5198H114.78C114.668 29.9678 114.366 30.3971 113.872 30.8078C113.378 31.1998 112.788 31.3958 112.103 31.3958C111.147 31.3958 110.414 31.1065 109.904 30.5278C109.395 29.9491 109.116 29.0158 109.068 27.7278Z" fill="white" fill-opacity="0.5"/>
<path d="M119.278 19.5238V33.9998H122.672V27.4758C122.672 26.8225 122.727 26.2158 122.839 25.6558C122.95 25.0958 123.134 24.6105 123.389 24.1998C123.659 23.7705 124.01 23.4345 124.44 23.1918C124.87 22.9491 125.396 22.8278 126.018 22.8278C126.225 22.8278 126.44 22.8465 126.663 22.8838C126.886 22.9025 127.077 22.9305 127.236 22.9678V19.2718C126.965 19.1785 126.719 19.1318 126.495 19.1318C126.065 19.1318 125.651 19.2065 125.253 19.3558C124.854 19.5051 124.48 19.7198 124.129 19.9998C123.779 20.2611 123.468 20.5878 123.197 20.9798C122.927 21.3531 122.711 21.7638 122.552 22.2118H122.504V19.5238H119.278Z" fill="white" fill-opacity="0.5"/>
<path d="M131.961 30.3038V17.7038H134.637C135.561 17.7038 136.334 17.8625 136.955 18.1798C137.593 18.4785 138.103 18.9171 138.485 19.4958C138.867 20.0745 139.138 20.7745 139.298 21.5958C139.473 22.3985 139.56 23.3038 139.56 24.3118C139.56 25.4131 139.441 26.3465 139.202 27.1118C138.963 27.8771 138.644 28.5025 138.246 28.9878C137.848 29.4545 137.394 29.7905 136.884 29.9958C136.374 30.2011 135.848 30.3038 135.306 30.3038H131.961ZM128.208 14.0078V33.9998H135.569C136.876 33.9998 138.007 33.7478 138.963 33.2438C139.935 32.7211 140.739 32.0118 141.377 31.1158C142.03 30.2198 142.516 29.1558 142.835 27.9238C143.153 26.6918 143.313 25.3478 143.313 23.8918C143.313 22.2305 143.113 20.7838 142.715 19.5518C142.333 18.3198 141.791 17.2931 141.09 16.4718C140.405 15.6505 139.584 15.0345 138.628 14.6238C137.688 14.2131 136.669 14.0078 135.569 14.0078H128.208Z" fill="white" fill-opacity="0.5"/>
<path d="M153.164 25.2078H147.643C147.659 24.9278 147.707 24.6105 147.787 24.2558C147.882 23.9011 148.034 23.5651 148.241 23.2478C148.464 22.9305 148.751 22.6691 149.101 22.4638C149.468 22.2398 149.922 22.1278 150.463 22.1278C151.292 22.1278 151.905 22.3891 152.304 22.9118C152.718 23.4345 153.005 24.1998 153.164 25.2078ZM147.643 27.7278H156.558C156.621 26.6078 156.542 25.5345 156.319 24.5078C156.096 23.4811 155.729 22.5665 155.219 21.7638C154.725 20.9611 154.088 20.3265 153.307 19.8598C152.527 19.3745 151.611 19.1318 150.559 19.1318C149.619 19.1318 148.759 19.3278 147.978 19.7198C147.213 20.1118 146.552 20.6531 145.994 21.3438C145.437 22.0158 145.006 22.8185 144.704 23.7518C144.401 24.6851 144.25 25.6931 144.25 26.7758C144.25 27.8958 144.393 28.9225 144.68 29.8558C144.983 30.7891 145.405 31.5918 145.946 32.2638C146.488 32.9358 147.149 33.4585 147.93 33.8318C148.711 34.1865 149.587 34.3638 150.559 34.3638C151.961 34.3638 153.156 33.9905 154.144 33.2438C155.132 32.4971 155.865 31.2558 156.343 29.5198H153.355C153.244 29.9678 152.941 30.3971 152.447 30.8078C151.953 31.1998 151.364 31.3958 150.678 31.3958C149.722 31.3958 148.99 31.1065 148.48 30.5278C147.97 29.9491 147.691 29.0158 147.643 27.7278Z" fill="white" fill-opacity="0.5"/>
<path d="M164.688 33.9998L168.871 19.5238H165.501L162.896 29.4078H162.848L160.243 19.5238H156.682L160.912 33.9998H164.688Z" fill="white" fill-opacity="0.5"/>
</svg>
