<svg width="169" height="48" viewBox="0 0 169 48" fill="none" xmlns="http://www.w3.org/2000/svg">
<path fill-rule="evenodd" clip-rule="evenodd" d="M0 24C11.6991 24 18.4059 15.9836 18.4059 2C18.4059 15.9836 25.1127 24 36.8119 24C25.1127 24 18.4059 32.0164 18.4059 46C18.4059 32.0164 11.6991 24 0 24Z" fill="white" fill-opacity="0.5"/>
<path d="M44.082 33.9088L50.5074 12.9088H54.1216L60.547 33.9088H57.1335L55.728 29.0488H48.8759L47.4453 33.9088H44.082ZM49.7544 26.0488H54.8495L52.2894 17.3188L49.7544 26.0488Z" fill="white" fill-opacity="0.5"/>
<path d="M66.9908 34.2688C65.7191 34.2688 64.598 33.9388 63.6275 33.2788C62.657 32.6188 61.8873 31.6988 61.3184 30.5188C60.7662 29.3388 60.4901 27.9888 60.4901 26.4688C60.4901 24.9488 60.7662 23.5988 61.3184 22.4188C61.8873 21.2388 62.657 20.3188 63.6275 19.6588C64.598 18.9988 65.7191 18.6688 66.9908 18.6688C68.5804 18.6688 69.919 19.1688 71.0066 20.1688C72.0942 21.1488 72.7886 22.5088 73.0898 24.2488H69.7014C69.5341 23.5288 69.1995 22.9688 68.6975 22.5688C68.2122 22.1488 67.635 21.9388 66.9657 21.9388C66.0788 21.9388 65.3259 22.3388 64.7067 23.1388C64.0876 23.9388 63.7781 25.0488 63.7781 26.4688C63.7781 27.8888 64.0876 28.9988 64.7067 29.7988C65.3259 30.5988 66.0788 30.9988 66.9657 30.9988C67.635 30.9988 68.2122 30.7988 68.6975 30.3988C69.1995 29.9988 69.5341 29.4288 69.7014 28.6888H73.0898C72.7886 30.3688 72.0942 31.7188 71.0066 32.7388C69.919 33.7588 68.5804 34.2688 66.9908 34.2688Z" fill="white" fill-opacity="0.5"/>
<path d="M74.6863 33.9088V19.0288H77.5225L77.7986 21.0388C78.2002 20.3188 78.7273 19.7488 79.3799 19.3288C80.0492 18.8888 80.8189 18.6688 81.689 18.6688C83.6132 18.6688 84.9769 19.5588 85.7801 21.3388C86.2319 20.5188 86.8343 19.8688 87.5872 19.3888C88.3569 18.9088 89.1936 18.6688 90.0971 18.6688C91.7202 18.6688 92.9668 19.2488 93.8369 20.4088C94.707 21.5688 95.142 23.2688 95.142 25.5088V33.9088H91.9294V25.8688C91.9294 24.5888 91.7202 23.6088 91.3019 22.9288C90.9003 22.2488 90.2728 21.9088 89.4195 21.9088C88.5494 21.9088 87.8466 22.2888 87.3111 23.0488C86.7924 23.8088 86.5331 24.8688 86.5331 26.2288V33.9088H83.3204V25.8688C83.3204 24.5888 83.1112 23.6088 82.6929 22.9288C82.2746 22.2488 81.6304 21.9088 80.7603 21.9088C79.9069 21.9088 79.2125 22.2888 78.6771 23.0488C78.1584 23.8088 77.899 24.8688 77.899 26.2288V33.9088H74.6863Z" fill="white" fill-opacity="0.5"/>
<path d="M102.986 34.2688C101.731 34.2688 100.618 33.9488 99.6479 33.3088C98.6774 32.6688 97.9161 31.7688 97.3639 30.6088C96.8117 29.4488 96.5356 28.1088 96.5356 26.5888C96.5356 25.0488 96.8033 23.6788 97.3388 22.4788C97.891 21.2788 98.6439 20.3488 99.5977 19.6888C100.568 19.0088 101.706 18.6688 103.011 18.6688C104.233 18.6688 105.312 18.9888 106.249 19.6288C107.186 20.2688 107.914 21.1488 108.433 22.2688C108.968 23.3688 109.236 24.5988 109.236 25.9588C109.236 26.1788 109.227 26.4088 109.211 26.6488C109.211 26.8888 109.202 27.1388 109.186 27.3988H99.7232C99.7901 28.5588 100.125 29.4688 100.727 30.1288C101.346 30.7888 102.091 31.1188 102.961 31.1188C103.614 31.1188 104.157 30.9488 104.592 30.6088C105.044 30.2488 105.379 29.7888 105.596 29.2288H108.859C108.625 30.1688 108.232 31.0288 107.68 31.8088C107.144 32.5688 106.475 33.1688 105.672 33.6088C104.885 34.0488 103.99 34.2688 102.986 34.2688ZM103.011 21.7888C102.225 21.7888 101.53 22.0588 100.928 22.5988C100.326 23.1188 99.9407 23.9188 99.7734 24.9988H105.973C105.923 24.0188 105.621 23.2388 105.069 22.6588C104.517 22.0788 103.831 21.7888 103.011 21.7888Z" fill="white" fill-opacity="0.5"/>
<path d="M123.44 34.2688C121.667 34.2688 120.144 33.8188 118.872 32.9188C117.6 31.9988 116.622 30.7288 115.936 29.1088C115.25 27.4688 114.907 25.5788 114.907 23.4388C114.907 21.2988 115.25 19.4088 115.936 17.7688C116.622 16.1288 117.6 14.8488 118.872 13.9288C120.144 13.0088 121.667 12.5488 123.44 12.5488C125.549 12.5488 127.272 13.1788 128.611 14.4388C129.966 15.6788 130.811 17.4288 131.146 19.6888H127.607C127.389 18.5488 126.921 17.6588 126.201 17.0188C125.498 16.3588 124.561 16.0288 123.39 16.0288C121.767 16.0288 120.495 16.6888 119.575 18.0088C118.655 19.3288 118.194 21.1388 118.194 23.4388C118.194 25.7388 118.655 27.5488 119.575 28.8688C120.495 30.1688 121.767 30.8188 123.39 30.8188C124.561 30.8188 125.498 30.5188 126.201 29.9188C126.921 29.2988 127.389 28.4488 127.607 27.3688H131.146C130.811 29.5288 129.966 31.2188 128.611 32.4388C127.272 33.6588 125.549 34.2688 123.44 34.2688Z" fill="white" fill-opacity="0.5"/>
<path d="M138.633 34.2688C137.428 34.2688 136.34 33.9388 135.37 33.2788C134.416 32.6188 133.655 31.7088 133.086 30.5488C132.534 29.3688 132.258 28.0088 132.258 26.4688C132.258 24.9288 132.542 23.5788 133.111 22.4188C133.68 21.2388 134.441 20.3188 135.395 19.6588C136.365 18.9988 137.453 18.6688 138.658 18.6688C139.846 18.6688 140.917 18.9988 141.87 19.6588C142.841 20.3188 143.602 21.2388 144.155 22.4188C144.723 23.5788 145.008 24.9288 145.008 26.4688C145.008 28.0088 144.723 29.3688 144.155 30.5488C143.602 31.7088 142.841 32.6188 141.87 33.2788C140.9 33.9388 139.821 34.2688 138.633 34.2688ZM138.633 30.9388C139.469 30.9388 140.197 30.5688 140.816 29.8288C141.435 29.0688 141.745 27.9488 141.745 26.4688C141.745 24.9888 141.435 23.8788 140.816 23.1388C140.197 22.3788 139.478 21.9988 138.658 21.9988C137.804 21.9988 137.068 22.3788 136.449 23.1388C135.847 23.8788 135.546 24.9888 135.546 26.4688C135.546 27.9488 135.847 29.0688 136.449 29.8288C137.068 30.5688 137.796 30.9388 138.633 30.9388Z" fill="white" fill-opacity="0.5"/>
<path d="M146.625 33.9088V19.0288H149.487L149.788 21.8188C150.24 20.8588 150.85 20.0988 151.62 19.5388C152.407 18.9588 153.327 18.6688 154.381 18.6688V22.7188H153.477C152.775 22.7188 152.147 22.8488 151.595 23.1088C151.043 23.3688 150.608 23.8188 150.29 24.4588C149.989 25.0988 149.838 25.9888 149.838 27.1288V33.9088H146.625Z" fill="white" fill-opacity="0.5"/>
<path d="M155.322 40.5088V19.0288H158.183L158.534 21.1588C158.936 20.4988 159.463 19.9188 160.116 19.4188C160.785 18.9188 161.647 18.6688 162.701 18.6688C163.872 18.6688 164.918 19.0088 165.838 19.6888C166.759 20.3688 167.486 21.2988 168.022 22.4788C168.557 23.6588 168.825 24.9988 168.825 26.4988C168.825 27.9988 168.557 29.3388 168.022 30.5188C167.486 31.6788 166.759 32.5988 165.838 33.2788C164.918 33.9388 163.872 34.2688 162.701 34.2688C161.764 34.2688 160.944 34.0588 160.241 33.6388C159.538 33.2188 158.97 32.6288 158.534 31.8688V40.5088H155.322ZM162.023 30.9088C163.044 30.9088 163.889 30.4988 164.558 29.6788C165.228 28.8588 165.562 27.7988 165.562 26.4988C165.562 25.1988 165.228 24.1288 164.558 23.2888C163.889 22.4488 163.044 22.0288 162.023 22.0288C160.986 22.0288 160.132 22.4488 159.463 23.2888C158.811 24.1088 158.484 25.1688 158.484 26.4688C158.484 27.7688 158.811 28.8388 159.463 29.6788C160.132 30.4988 160.986 30.9088 162.023 30.9088Z" fill="white" fill-opacity="0.5"/>
</svg>
