<svg width="169" height="48" viewBox="0 0 169 48" fill="none" xmlns="http://www.w3.org/2000/svg">
<path d="M34.9775 24C34.9775 33.5374 27.6743 41 18.9888 41C10.3032 41 3 33.5374 3 24C3 14.4626 10.3032 7 18.9888 7C27.6743 7 34.9775 14.4626 34.9775 24Z" stroke="white" stroke-opacity="0.5" stroke-width="6"/>
<path d="M62.838 20.4135C62.838 21.4588 62.5988 22.4388 62.1203 23.3535C61.6595 24.2681 60.924 25.0055 59.9138 25.5655C58.9213 26.1255 57.663 26.4055 56.1388 26.4055H53.0284V33.9095H49.3066V14.3655H56.1388C57.5743 14.3655 58.7972 14.6268 59.8074 15.1495C60.8176 15.6721 61.5708 16.3908 62.0671 17.3055C62.581 18.2201 62.838 19.2561 62.838 20.4135ZM55.9793 23.2415C57.0072 23.2415 57.7693 22.9988 58.2655 22.5135C58.7618 22.0095 59.0099 21.3095 59.0099 20.4135C59.0099 18.5095 57.9997 17.5575 55.9793 17.5575H53.0284V23.2415H55.9793Z" fill="white" fill-opacity="0.5"/>
<path d="M70.9568 34.1615C69.539 34.1615 68.263 33.8348 67.1287 33.1815C65.9944 32.5095 65.0994 31.5668 64.4437 30.3535C63.8057 29.1401 63.4866 27.7401 63.4866 26.1535C63.4866 24.5668 63.8145 23.1668 64.4703 21.9535C65.1437 20.7401 66.0565 19.8068 67.2084 19.1535C68.3604 18.4815 69.6453 18.1455 71.0632 18.1455C72.481 18.1455 73.7659 18.4815 74.9179 19.1535C76.0699 19.8068 76.9737 20.7401 77.6295 21.9535C78.3029 23.1668 78.6397 24.5668 78.6397 26.1535C78.6397 27.7401 78.2941 29.1401 77.6029 30.3535C76.9294 31.5668 76.0078 32.5095 74.8381 33.1815C73.6861 33.8348 72.3924 34.1615 70.9568 34.1615ZM70.9568 30.7455C71.6303 30.7455 72.2595 30.5775 72.8443 30.2415C73.4469 29.8868 73.9254 29.3641 74.2799 28.6735C74.6343 27.9828 74.8115 27.1428 74.8115 26.1535C74.8115 24.6788 74.4394 23.5495 73.695 22.7655C72.9684 21.9628 72.0734 21.5615 71.01 21.5615C69.9466 21.5615 69.0516 21.9628 68.325 22.7655C67.6161 23.5495 67.2616 24.6788 67.2616 26.1535C67.2616 27.6281 67.6072 28.7668 68.2984 29.5695C69.0073 30.3535 69.8935 30.7455 70.9568 30.7455Z" fill="white" fill-opacity="0.5"/>
<path d="M84.0282 13.1895V33.9095H80.3064V13.1895H84.0282Z" fill="white" fill-opacity="0.5"/>
<path d="M100.732 18.3975L91.6132 41.2455H87.6522L90.8423 33.5175L84.9406 18.3975H89.1143L92.9158 29.2335L96.7706 18.3975H100.732Z" fill="white" fill-opacity="0.5"/>
<path d="M119.964 18.1735C121.772 18.1735 123.225 18.7615 124.324 19.9375C125.441 21.0948 125.999 22.7188 125.999 24.8095V33.9095H122.277V25.3415C122.277 24.1281 121.985 23.2041 121.4 22.5695C120.815 21.9161 120.018 21.5895 119.007 21.5895C117.997 21.5895 117.191 21.9161 116.588 22.5695C116.003 23.2041 115.711 24.1281 115.711 25.3415V33.9095H111.989V25.3415C111.989 24.1281 111.697 23.2041 111.112 22.5695C110.527 21.9161 109.73 21.5895 108.719 21.5895C107.691 21.5895 106.876 21.9161 106.274 22.5695C105.689 23.2041 105.396 24.1281 105.396 25.3415V33.9095H101.675V18.3975H105.396V20.2735C105.875 19.6201 106.486 19.1068 107.231 18.7335C107.993 18.3601 108.826 18.1735 109.73 18.1735C110.882 18.1735 111.909 18.4348 112.813 18.9575C113.717 19.4615 114.417 20.1895 114.913 21.1415C115.392 20.2455 116.083 19.5268 116.987 18.9855C117.909 18.4441 118.901 18.1735 119.964 18.1735Z" fill="white" fill-opacity="0.5"/>
<path d="M127.51 26.0975C127.51 24.5295 127.803 23.1388 128.388 21.9255C128.99 20.7121 129.797 19.7788 130.807 19.1255C131.835 18.4721 132.978 18.1455 134.236 18.1455C135.335 18.1455 136.292 18.3788 137.107 18.8455C137.94 19.3121 138.605 19.9001 139.101 20.6095V18.3975H142.85V33.9095H139.101V31.6415C138.623 32.3695 137.958 32.9761 137.107 33.4615C136.274 33.9281 135.309 34.1615 134.21 34.1615C132.969 34.1615 131.835 33.8255 130.807 33.1535C129.797 32.4815 128.99 31.5388 128.388 30.3255C127.803 29.0935 127.51 27.6841 127.51 26.0975ZM139.101 26.1535C139.101 25.2015 138.924 24.3895 138.57 23.7175C138.215 23.0268 137.737 22.5041 137.134 22.1495C136.531 21.7761 135.885 21.5895 135.193 21.5895C134.502 21.5895 133.864 21.7668 133.279 22.1215C132.694 22.4761 132.216 22.9988 131.844 23.6895C131.489 24.3615 131.312 25.1641 131.312 26.0975C131.312 27.0308 131.489 27.8521 131.844 28.5615C132.216 29.2521 132.694 29.7841 133.279 30.1575C133.882 30.5308 134.52 30.7175 135.193 30.7175C135.885 30.7175 136.531 30.5401 137.134 30.1855C137.737 29.8121 138.215 29.2895 138.57 28.6175C138.924 27.9268 139.101 27.1055 139.101 26.1535Z" fill="white" fill-opacity="0.5"/>
<path d="M149.754 21.6175V29.1215C149.754 29.6441 149.87 30.0268 150.1 30.2695C150.348 30.4935 150.756 30.6055 151.323 30.6055H153.051V33.9095H150.711C147.575 33.9095 146.006 32.3041 146.006 29.0935V21.6175H144.251V18.3975H146.006V14.5615H149.754V18.3975H153.051V21.6175H149.754Z" fill="white" fill-opacity="0.5"/>
<path d="M162.959 18.1735C164.075 18.1735 165.068 18.4348 165.936 18.9575C166.805 19.4615 167.478 20.2175 167.957 21.2255C168.453 22.2148 168.701 23.4095 168.701 24.8095V33.9095H164.979V25.3415C164.979 24.1095 164.687 23.1668 164.102 22.5135C163.517 21.8415 162.719 21.5055 161.709 21.5055C160.681 21.5055 159.866 21.8415 159.264 22.5135C158.679 23.1668 158.386 24.1095 158.386 25.3415V33.9095H154.664V13.1895H158.386V20.3295C158.865 19.6575 159.503 19.1348 160.3 18.7615C161.098 18.3695 161.984 18.1735 162.959 18.1735Z" fill="white" fill-opacity="0.5"/>
</svg>
