<svg width="86" height="86" viewBox="0 0 86 86" fill="none" xmlns="http://www.w3.org/2000/svg">
<circle cx="43" cy="43" r="43" fill="#D3F4FF"/>
<path d="M43.8168 30.6122L57.4932 38.559C58.0253 38.8684 58.0253 39.6357 57.4932 39.945L43.8168 47.8919C42.9764 48.3801 41.9392 48.3801 41.0999 47.8919L27.4235 39.945C26.8914 39.6357 26.8914 38.8684 27.4235 38.559L41.0999 30.6122C41.9392 30.125 42.9764 30.125 43.8168 30.6122Z" fill="#009FD3"/>
<path d="M43.8168 30.6122L57.4932 38.559C58.0253 38.8684 58.0253 39.6357 57.4932 39.945L43.8168 47.8919C42.9764 48.3801 41.9392 48.3801 41.0999 47.8919L27.4235 39.945C26.8914 39.6357 26.8914 38.8684 27.4235 38.559L41.0999 30.6122C41.9392 30.125 42.9764 30.125 43.8168 30.6122Z" fill="#009FD3"/>
<path d="M57.4888 39.9507L52.8427 42.6506L43.8203 47.893C42.9766 48.3768 41.9416 48.3768 41.0978 47.893L32.0755 42.6506L27.418 39.9507C26.8893 39.6357 26.8893 38.8707 27.418 38.5557L41.0978 30.6133C41.9416 30.1296 42.9766 30.1296 43.8203 30.6133L57.4888 38.5557C58.0288 38.8707 58.0288 39.6357 57.4888 39.9507Z" fill="#009FD3"/>
<path d="M44.6683 49.3521C43.9899 49.7402 43.2294 49.9438 42.4588 49.9438C41.6882 49.9438 40.9277 49.7402 40.2583 49.3577L32.0752 44.6024V48.8267C32.0752 49.7717 32.5702 50.638 33.3914 51.1104L39.0951 54.4066C41.1763 55.5991 43.7413 55.5991 45.8112 54.4066L51.5262 51.1104C52.3361 50.638 52.8424 49.7717 52.8424 48.8267V44.6024L44.6683 49.3521Z" fill="#009FD3"/>
<path d="M57.7366 50.3197V41.7585L55.7105 42.9353V50.3185C55.2346 50.6425 54.9219 51.1882 54.9219 51.8069C54.9219 52.8014 55.7285 53.608 56.723 53.608C57.7175 53.608 58.5241 52.8025 58.5241 51.808C58.5241 51.1893 58.2113 50.6448 57.7366 50.3197Z" fill="#009FD3"/>
</svg>
