<svg width="86" height="86" viewBox="0 0 86 86" fill="none" xmlns="http://www.w3.org/2000/svg">
<circle cx="43" cy="43" r="43" fill="#D3F4FF"/>
<g clip-path="url(#clip0_165_79601)">
<path d="M43.0014 39.2078C46.9185 39.2078 50.1052 36.021 50.1052 32.1039C50.1052 28.1867 46.9185 25 43.0014 25C39.0842 25 35.8975 28.1867 35.8975 32.1039C35.8975 36.021 39.0842 39.2078 43.0014 39.2078Z" fill="#009FD3"/>
<path d="M52.5336 42.6504C52.5306 42.6494 52.5248 42.6472 52.5217 42.6465C51.5968 42.4206 48.7644 42.0243 48.7644 42.0243C48.4446 41.9259 48.1029 42.0952 47.9879 42.4108L43.7244 54.1086C43.4785 54.7834 42.5241 54.7834 42.2781 54.1086L38.0147 42.4108C37.9218 42.156 37.6814 41.9962 37.4237 41.9962C37.3626 41.9962 34.4503 42.4046 33.4807 42.6457C30.8313 43.3044 29.1602 45.9097 29.1602 48.6248V58.3583C29.1602 59.8169 30.3427 60.9995 31.8013 60.9995H54.1988C55.6575 60.9995 56.84 59.8169 56.84 58.3583V48.5925C56.8399 45.8891 55.1033 43.49 52.5336 42.6504Z" fill="#009FD3"/>
<path d="M44.6093 41.8014C44.4391 41.6159 44.1904 41.5227 43.9387 41.5227H42.0618C41.8102 41.5227 41.5613 41.616 41.3913 41.8014C41.1279 42.0884 41.0896 42.5031 41.2766 42.827L42.28 44.3396L41.8103 48.302L42.7352 50.7626C42.8254 51.0101 43.1754 51.0101 43.2655 50.7626L44.1905 48.302L43.7208 44.3396L44.7242 42.827C44.911 42.5031 44.8727 42.0884 44.6093 41.8014Z" fill="#009FD3"/>
</g>
<defs>
<clipPath id="clip0_165_79601">
<rect width="35.9995" height="35.9995" fill="white" transform="translate(25 25)"/>
</clipPath>
</defs>
</svg>
