<svg width="86" height="86" viewBox="0 0 86 86" fill="none" xmlns="http://www.w3.org/2000/svg">
<circle cx="43" cy="43" r="43" fill="#D3F4FF"/>
<g clip-path="url(#clip0_162_28369)">
<path d="M54.9264 34.107H50.2999V33.6317C50.2999 31.5083 48.5765 29.7849 46.4531 29.7849H39.0954C36.9711 29.7849 35.2486 31.5083 35.2486 33.6317V34.107H30.6212C28.4969 34.107 26.7744 35.8296 26.7744 37.9539V51.917C26.7744 54.0405 28.4969 55.7638 30.6212 55.7638H54.9281C57.0524 55.7638 58.7749 54.0405 58.7749 51.917V37.9539C58.7732 35.8287 57.0507 34.107 54.9264 34.107ZM42.773 51.7734C38.7654 51.7734 35.5067 48.5147 35.5067 44.5072C35.5067 40.5005 38.7654 37.2409 42.773 37.2409C46.7805 37.2409 50.0392 40.4996 50.0392 44.5072C50.0392 48.5147 46.7796 51.7734 42.773 51.7734ZM46.6198 44.5072C46.6198 46.6263 44.893 48.354 42.773 48.354C40.6529 48.354 38.9261 46.6263 38.9261 44.5072C38.9261 42.3871 40.6529 40.6603 42.773 40.6603C44.893 40.6603 46.6198 42.3871 46.6198 44.5072Z" fill="#009FD3"/>
</g>
<defs>
<clipPath id="clip0_162_28369">
<rect width="32.0005" height="32.0005" fill="white" transform="translate(26.7744 26.7742)"/>
</clipPath>
</defs>
</svg>
