<svg width="86" height="86" viewBox="0 0 86 86" fill="none" xmlns="http://www.w3.org/2000/svg">
<circle cx="43" cy="43" r="43" fill="#D3F4FF"/>
<g clip-path="url(#clip0_162_28356)">
<path d="M42.9995 45.9997C43.8433 45.9997 45.0794 43.3266 45.2216 39.2498H40.7773C40.9195 43.3265 42.1557 45.9997 42.9995 45.9997Z" fill="#009FD3"/>
<path d="M45.4014 31.4302C46.2063 33.0019 46.6585 35.3429 46.736 37.7498H50.4237C50.1244 34.7937 48.1247 32.3592 45.4014 31.4302Z" fill="#009FD3"/>
<path d="M35.5762 37.7498H39.2639C39.3414 35.3429 39.7936 33.0019 40.5985 31.4302C37.8752 32.3592 35.8755 34.7937 35.5762 37.7498Z" fill="#009FD3"/>
<path d="M42.9995 31C42.1557 31 40.9195 33.6731 40.7773 37.7499H45.2216C45.0794 33.6732 43.8433 31 42.9995 31Z" fill="#009FD3"/>
<path d="M53.4996 25H32.5C30.8454 25 29.5 26.3454 29.5 28V57.9996C29.5 59.6541 30.8454 60.9995 32.5 60.9995H53.4997C55.1542 60.9995 56.4996 59.6541 56.4996 57.9995V28C56.4996 26.3454 55.1542 25 53.4996 25ZM48.2497 56.4995H37.7499C37.3353 56.4995 36.9998 56.1641 36.9998 55.7495C36.9998 55.335 37.3353 54.9995 37.7499 54.9995H48.2497C48.6642 54.9995 48.9997 55.335 48.9997 55.7495C48.9997 56.1641 48.6643 56.4995 48.2497 56.4995ZM51.2497 51.9996H34.7499C34.3354 51.9996 33.9999 51.6641 33.9999 51.2496C33.9999 50.835 34.3354 50.4996 34.7499 50.4996H51.2497C51.6643 50.4996 51.9997 50.835 51.9997 51.2496C51.9997 51.6641 51.6642 51.9996 51.2497 51.9996ZM42.9998 47.4997C38.037 47.4997 33.9999 43.4626 33.9999 38.4998C33.9999 33.537 38.037 29.4999 42.9998 29.4999C47.9626 29.4999 51.9997 33.537 51.9997 38.4998C51.9997 43.4626 47.9626 47.4997 42.9998 47.4997Z" fill="#009FD3"/>
<path d="M45.4014 45.5694C48.1247 44.6403 50.1244 42.2058 50.4237 39.2498H46.736C46.6585 41.6567 46.2063 43.9977 45.4014 45.5694Z" fill="#009FD3"/>
<path d="M35.5762 39.2498C35.8755 42.2059 37.8752 44.6404 40.5985 45.5694C39.7936 43.9977 39.3414 41.6567 39.2639 39.2498H35.5762Z" fill="#009FD3"/>
</g>
<defs>
<clipPath id="clip0_162_28356">
<rect width="35.9995" height="35.9995" fill="white" transform="translate(25 25)"/>
</clipPath>
</defs>
</svg>
