<svg width="86" height="86" viewBox="0 0 86 86" fill="none" xmlns="http://www.w3.org/2000/svg">
<circle cx="43" cy="43" r="43" fill="#D3F4FF"/>
<path d="M41.6492 39.962V27.0247H31.2432C31.0194 27.0247 30.8048 27.1136 30.6465 27.2718C30.4883 27.43 30.3994 27.6446 30.3994 27.8684V57.6805C30.3994 57.9042 30.4883 58.1188 30.6465 58.2771C30.8048 58.4353 31.0194 58.5242 31.2432 58.5242H54.3053C54.5291 58.5242 54.7437 58.4353 54.9019 58.2771C55.0602 58.1188 55.149 57.9042 55.149 57.6805V40.5245H42.2117C42.0626 40.5245 41.9195 40.4652 41.814 40.3597C41.7085 40.2542 41.6492 40.1111 41.6492 39.962Z" fill="#009FD3"/>
<path d="M43.8994 27.7059V37.9932C43.8994 38.0678 43.929 38.1393 43.9818 38.1921C44.0345 38.2448 44.1061 38.2744 44.1807 38.2744H54.4679C54.4957 38.2745 54.5229 38.2662 54.546 38.2508C54.5691 38.2354 54.5872 38.2135 54.5979 38.1879C54.6085 38.1622 54.6114 38.134 54.606 38.1067C54.6007 38.0794 54.5874 38.0544 54.5678 38.0347L44.1392 27.6061C44.1195 27.5865 44.0944 27.5732 44.0671 27.5678C44.0399 27.5625 44.0116 27.5653 43.986 27.576C43.9603 27.5867 43.9384 27.6047 43.923 27.6278C43.9076 27.651 43.8994 27.6781 43.8994 27.7059Z" fill="#009FD3"/>
</svg>
