<svg width="86" height="86" viewBox="0 0 86 86" fill="none" xmlns="http://www.w3.org/2000/svg">
<circle cx="43" cy="43" r="43" fill="#D3F4FF"/>
<path d="M38.2071 36.4858H47.342C47.8067 36.4865 48.2526 36.3025 48.5817 35.9745C48.9108 35.6464 49.0961 35.2011 49.097 34.7364V33.5439C49.0964 33.0787 48.9113 32.6326 48.5823 32.3037C48.2533 31.9747 47.8073 31.7896 47.342 31.789H45.6658C45.5283 31.1238 45.1656 30.5263 44.6389 30.0974C44.1123 29.6684 43.4538 29.4342 42.7745 29.4342C42.0953 29.4342 41.4368 29.6685 40.9101 30.0974C40.3834 30.5264 40.0208 31.1239 39.8833 31.7891L38.2071 31.789C37.7419 31.7896 37.2958 31.9747 36.9668 32.3037C36.6378 32.6326 36.4527 33.0787 36.4521 33.5439V34.7364C36.453 35.2011 36.6383 35.6464 36.9674 35.9745C37.2965 36.3025 37.7424 36.4865 38.2071 36.4858Z" fill="#009FD3"/>
<path d="M56.1727 33.5776H50.2216V34.7364C50.2199 35.4991 49.9157 36.2301 49.3758 36.7689C48.836 37.3078 48.1044 37.6105 47.3416 37.6107H38.2067C37.444 37.6105 36.7124 37.3078 36.1725 36.7689C35.6326 36.2301 35.3285 35.4991 35.3268 34.7364V33.5776H29.3756C28.7528 33.577 28.1553 33.8238 27.7144 34.2636C27.2735 34.7035 27.0253 35.3004 27.0244 35.9232V53.7936C27.0253 54.4164 27.2735 55.0133 27.7144 55.4532C28.1553 55.893 28.7528 56.1398 29.3756 56.1392H56.1727C56.7955 56.1398 57.3931 55.893 57.834 55.4532C58.2749 55.0133 58.5231 54.4164 58.524 53.7936V35.9232C58.5231 35.3004 58.2749 34.7035 57.834 34.2636C57.3931 33.8238 56.7955 33.577 56.1727 33.5776ZM40.5523 51.2061C40.3768 51.6098 40.0865 51.953 39.7174 52.193C39.3484 52.4331 38.917 52.5593 38.4767 52.5561H33.0431C32.6065 52.5518 32.1803 52.4223 31.8151 52.183C31.45 51.9437 31.1611 51.6047 30.9829 51.2061C30.8046 50.8075 30.7445 50.3662 30.8096 49.9345C30.8746 49.5028 31.0622 49.0988 31.3501 48.7705C31.9743 48.0862 32.7563 47.5648 33.6281 47.2518C31.1388 45.3326 32.5739 41.1593 35.76 41.1995C38.9401 41.1623 40.3752 45.3324 37.886 47.2518C39.4734 47.8265 41.4031 49.3333 40.5523 51.2061ZM54.2209 51.3636H44.681C44.5334 51.3613 44.3925 51.3011 44.2889 51.1958C44.1853 51.0906 44.1272 50.9488 44.1272 50.8011C44.1272 50.6534 44.1853 50.5117 44.2889 50.4064C44.3925 50.3012 44.5334 50.2409 44.6811 50.2386H54.2209C54.3686 50.2409 54.5094 50.3012 54.613 50.4064C54.7167 50.5117 54.7747 50.6534 54.7747 50.8011C54.7747 50.9488 54.7167 51.0906 54.613 51.1958C54.5094 51.3011 54.3686 51.3613 54.2209 51.3636ZM54.2209 47.4374H44.681C44.5333 47.4352 44.3923 47.375 44.2887 47.2698C44.185 47.1645 44.1268 47.0227 44.1268 46.8749C44.1268 46.7272 44.185 46.5854 44.2887 46.4801C44.3924 46.3749 44.5333 46.3146 44.6811 46.3124H54.2209C54.3686 46.3146 54.5096 46.3749 54.6133 46.4801C54.717 46.5854 54.7751 46.7272 54.7751 46.8749C54.7751 47.0227 54.717 47.1645 54.6133 47.2698C54.5096 47.375 54.3686 47.4352 54.2209 47.4374ZM54.2209 43.5169H44.681C44.5333 43.5147 44.3923 43.4544 44.2887 43.3492C44.185 43.2439 44.1268 43.1021 44.1268 42.9544C44.1268 42.8066 44.185 42.6648 44.2887 42.5595C44.3924 42.4543 44.5333 42.3941 44.6811 42.3919H54.2209C54.3686 42.3941 54.5096 42.4543 54.6133 42.5596C54.717 42.6648 54.7751 42.8066 54.7751 42.9544C54.7751 43.1021 54.717 43.2439 54.6133 43.3492C54.5096 43.4544 54.3686 43.5147 54.2209 43.5169Z" fill="#009FD3"/>
<path d="M35.7598 48.0056C34.3692 47.95 31.3731 49.0658 31.9911 50.7449C32.0788 50.9505 32.2255 51.1256 32.4128 51.2477C32.6001 51.3699 32.8194 51.4338 33.043 51.4311H38.4767C38.6997 51.4344 38.9186 51.3708 39.1051 51.2485C39.2915 51.1262 39.4371 50.9508 39.5229 50.7449C40.1638 49.0915 37.1346 47.9373 35.7598 48.0056Z" fill="#009FD3"/>
<path d="M35.7599 46.8806C36.3606 46.8753 36.9348 46.6329 37.3577 46.2063C37.7806 45.7796 38.0178 45.2032 38.0178 44.6025C38.0178 44.0018 37.7806 43.4254 37.3577 42.9988C36.9348 42.5722 36.3605 42.3298 35.7599 42.3245C35.1592 42.3298 34.5849 42.5722 34.1621 42.9988C33.7392 43.4255 33.5019 44.0019 33.502 44.6026C33.502 45.2033 33.7392 45.7797 34.1621 46.2063C34.585 46.633 35.1592 46.8753 35.7599 46.8806Z" fill="#009FD3"/>
</svg>
