<svg width="86" height="86" viewBox="0 0 86 86" fill="none" xmlns="http://www.w3.org/2000/svg">
<circle cx="43" cy="43" r="43" fill="#D3F4FF"/>
<g clip-path="url(#clip0_162_28343)">
<path d="M58.7744 39.5246V36.6494C58.7746 35.9084 58.575 35.181 58.1969 34.5436C57.8187 33.9063 57.2758 33.3827 56.6253 33.0277L44.2503 26.2778C43.6445 25.9462 42.965 25.7725 42.2744 25.7725C41.5838 25.7725 40.9043 25.9462 40.2985 26.2778L27.9235 33.0277C27.273 33.3827 26.7301 33.9063 26.352 34.5436C25.9738 35.181 25.7743 35.9084 25.7744 36.6494V39.5246H29.8994V51.8996H27.1494V56.0246H25.7744V58.7746H58.7744V56.0246H57.3994V51.8996H54.6494V39.5246H58.7744ZM45.0244 39.5246V51.8996H39.5244V39.5246H45.0244ZM32.6494 39.5246H36.7744V51.8996H32.6494V39.5246ZM51.8994 51.8996H47.7744V39.5246H51.8994V51.8996Z" fill="#009FD3"/>
</g>
<defs>
<clipPath id="clip0_162_28343">
<rect width="33" height="33" fill="white" transform="translate(25.7744 25.7744)"/>
</clipPath>
</defs>
</svg>
