<svg width="86" height="86" viewBox="0 0 86 86" fill="none" xmlns="http://www.w3.org/2000/svg">
<circle cx="43" cy="43" r="43" fill="#D3F4FF"/>
<g clip-path="url(#clip0_165_79593)">
<path d="M44.5 45.9998V48.9997H41.5V45.9998H25V60.9997H61V45.9998H44.5Z" fill="#009FD3"/>
<path d="M61 42.9998V35.4998C61 34.3063 60.5259 33.1617 59.682 32.3178C58.8381 31.4739 57.6935 30.9998 56.5 30.9998H52V27.9998C52 27.2041 51.6839 26.441 51.1213 25.8784C50.5587 25.3158 49.7956 24.9998 49 24.9998H37C36.2044 24.9998 35.4413 25.3158 34.8787 25.8784C34.3161 26.441 34 27.2041 34 27.9998V30.9998H29.5C28.3065 30.9998 27.1619 31.4739 26.318 32.3178C25.4741 33.1617 25 34.3063 25 35.4998V42.9998H61ZM37 27.9998H49V30.9998H37V27.9998Z" fill="#009FD3"/>
</g>
<defs>
<clipPath id="clip0_165_79593">
<rect width="36" height="36" fill="white" transform="translate(25 24.9998)"/>
</clipPath>
</defs>
</svg>
