<svg width="86" height="86" viewBox="0 0 86 86" fill="none" xmlns="http://www.w3.org/2000/svg">
<circle cx="43" cy="43" r="43" fill="#D3F4FF"/>
<g clip-path="url(#clip0_165_79580)">
<path d="M48.7583 50.2293L50.4045 47.558L53.3753 46.5448L53.7044 43.4246L55.9395 41.2242L54.8768 38.2707L55.9395 35.3172L53.7045 33.1168L53.3753 29.9966L50.4045 28.9834L48.7583 26.3121L45.6446 26.688L42.9995 25L40.3545 26.6882L37.2408 26.3122L35.5946 28.9835L32.6238 29.9967L32.2947 33.1168L30.0596 35.3172L31.1223 38.2708L30.0596 41.2244L32.2946 43.4247L32.6238 46.5449L35.5946 47.5581L37.2408 50.2294L40.3545 49.8535L42.9995 51.5416L45.6446 49.8535L48.7583 50.2293ZM33.8992 38.2708C33.8992 33.2529 37.9816 29.1705 42.9995 29.1705C48.0175 29.1705 52.0999 33.2529 52.0999 38.2708C52.0999 43.2887 48.0175 47.3711 42.9995 47.3711C37.9816 47.3711 33.8992 43.2887 33.8992 38.2708Z" fill="#009FD3"/>
<path d="M42.9994 31.2811C39.1453 31.2811 36.0098 34.4167 36.0098 38.2708C36.0098 42.1249 39.1453 45.2605 42.9994 45.2605C46.8535 45.2605 49.9891 42.1249 49.9891 38.2708C49.9891 34.4167 46.8535 31.2811 42.9994 31.2811Z" fill="#009FD3"/>
<path d="M39.857 52.0395L36.153 52.4867L34.196 49.3109L33.5308 49.0841L30.6611 58.0535L35.8273 57.7693L39.8691 60.9994L42.2476 53.5653L39.857 52.0395Z" fill="#009FD3"/>
<path d="M51.8035 49.311L49.8465 52.4867L46.1425 52.0395L43.752 53.5653L46.1304 60.9994L50.1723 57.7693L55.3384 58.0535L52.4688 49.0841L51.8035 49.311Z" fill="#009FD3"/>
</g>
<defs>
<clipPath id="clip0_165_79580">
<rect width="35.9995" height="35.9995" fill="white" transform="translate(25 25)"/>
</clipPath>
</defs>
</svg>
