<svg width="497" height="411" viewBox="0 0 497 411" fill="none" xmlns="http://www.w3.org/2000/svg">
<ellipse cx="208" cy="205.5" rx="208" ry="205.5" transform="matrix(-1 0 0 1 461 0)" fill="url(#paint0_linear_15176_32878)"/>
<path opacity="0.2" d="M455.625 22.4594L456.689 21.3954C459.802 24.5092 464.844 24.5144 467.95 21.4086L469.016 22.475C465.91 25.5815 465.916 30.6231 469.03 33.7368L467.966 34.8007C464.852 31.687 459.81 31.6811 456.704 34.7875L455.637 33.7211C458.744 30.6147 458.738 25.5724 455.625 22.4594Z" fill="url(#paint1_linear_15176_32878)"/>
<path d="M430.049 16.4938L430.315 16.2277C433.429 19.3414 438.471 19.3473 441.577 16.2415L441.844 16.5083C438.737 19.6148 438.743 24.657 441.857 27.7708L441.591 28.0369C438.477 24.9232 433.435 24.9173 430.328 28.0237L430.062 27.757C433.169 24.6498 433.163 19.6075 430.049 16.4938Z" fill="url(#paint2_linear_15176_32878)"/>
<path opacity="0.2" d="M456.532 60.1911C459.544 63.2036 464.422 63.2093 467.428 60.2038C464.422 63.2093 464.428 68.0876 467.441 71.1001C464.428 68.0876 459.55 68.0819 456.544 71.0873C459.549 68.0812 459.544 63.2036 456.532 60.1911Z" fill="url(#paint3_linear_15176_32878)"/>
<g clip-path="url(#clip0_15176_32878)">
<g opacity="0.5">
<path d="M89.0377 57.7823C90.3311 59.4561 91.7767 60.9778 93.4505 62.4234C95.1244 63.7929 96.9503 64.9341 98.8524 65.8471L101.82 60.8256C103.57 61.6625 105.472 62.1951 107.298 62.4995L106.993 68.3579C111.254 68.9665 115.591 68.51 119.623 67.0645L118.178 61.4343C119.928 60.7495 121.677 59.8366 123.275 58.6953L127.232 63.032C128.905 61.7386 130.427 60.293 131.873 58.6192C133.242 56.9454 134.383 55.1194 135.296 53.2173L130.275 50.2501C131.112 48.5001 131.644 46.5981 131.949 44.7721L137.807 45.0764C138.416 40.8157 137.959 36.479 136.514 32.4466L130.884 33.8921C130.199 32.1422 129.286 30.3923 128.144 28.7946L132.481 24.8382C131.188 23.1644 129.742 21.6427 128.068 20.1972C126.395 18.8277 124.569 17.6864 122.667 16.7734L119.699 21.7949C117.949 20.958 116.047 20.4254 114.221 20.1211L114.526 14.2627C110.265 13.654 105.928 14.1105 101.896 15.5561L103.341 21.1862C101.591 21.871 99.8415 22.784 98.2438 23.9252L94.2874 19.5885C92.6136 20.8819 91.0919 22.3275 89.6464 24.0013C88.2769 25.6752 87.1356 27.5012 86.2226 29.4032L91.2441 32.3705C90.4072 34.1204 89.8746 36.0225 89.5703 37.8485L83.7119 37.5441C83.1032 41.8048 83.5597 46.1416 85.0053 50.174L90.6354 48.7284C91.3202 50.4783 92.2332 52.2282 93.3745 53.826L89.0377 57.7823ZM100.602 32.9031C105.243 27.2729 113.537 26.436 119.167 31.0771C124.797 35.7181 125.634 44.0112 120.993 49.6414C116.352 55.2715 108.059 56.1085 102.428 51.4674C96.8743 46.8263 96.0374 38.5332 100.602 32.9031ZM104.102 35.7942C107.146 32.0661 112.624 31.5336 116.276 34.5769C120.004 37.6202 120.536 43.0982 117.493 46.7502C114.449 50.4783 108.971 51.0109 105.319 47.9676C101.591 44.9242 101.059 39.4462 104.102 35.7942Z" fill="url(#paint4_linear_15176_32878)"/>
<path d="M171.511 56.2616C172.348 55.2725 173.033 54.2834 173.642 53.0661C174.25 51.8488 174.707 50.7075 174.935 49.4902L171.664 48.3489C171.892 47.2077 171.968 46.0664 171.968 44.9252L175.392 44.3165C175.163 41.7297 174.403 39.295 173.033 37.0886L169.914 38.6103C169.305 37.6212 168.544 36.7843 167.707 36.0235L169.685 33.2084C168.696 32.3715 167.707 31.6867 166.49 31.078C165.349 30.4694 164.131 30.0129 162.914 29.7846L161.773 33.0562C160.632 32.828 159.49 32.7519 158.349 32.7519L157.74 29.3281C155.154 29.5564 152.719 30.3172 150.512 31.6867L152.034 34.8061C151.045 35.4148 150.208 36.1756 149.447 37.0125L146.632 35.0344C145.795 36.0235 145.111 37.0125 144.502 38.2299C143.893 39.3711 143.437 40.5884 143.208 41.8058L146.48 42.947C146.252 44.0883 146.176 45.2295 146.176 46.3708L142.752 46.9794C142.98 49.5663 143.741 52.0009 145.111 54.2074L148.23 52.6857C148.839 53.6748 149.599 54.5117 150.436 55.2725L148.458 58.0876C149.447 58.9245 150.436 59.6093 151.654 60.2179C152.795 60.8266 154.012 61.2831 155.23 61.5114L156.371 58.2398C157.512 58.468 158.653 58.5441 159.795 58.5441L160.403 61.9678C162.99 61.7396 165.425 60.9788 167.631 59.6093L166.11 56.4899C167.099 55.8812 167.936 55.1204 168.696 54.2834L171.511 56.2616ZM155.534 52.6857C151.654 50.7075 150.132 45.9904 152.11 42.1101C154.088 38.2299 158.806 36.7082 162.686 38.6864C166.566 40.6645 168.088 45.3817 166.11 49.2619C164.131 53.1422 159.414 54.6639 155.534 52.6857Z" fill="url(#paint5_linear_15176_32878)"/>
</g>
<g filter="url(#filter0_d_15176_32878)">
<path d="M100.866 253.929H423.782C426.66 253.929 429.091 251.779 429.46 248.908L455.54 45.6345C456.265 39.988 451.892 34.9863 446.23 34.9863H127.48C124.602 34.9863 122.171 37.1359 121.802 40.0069L95.1886 247.434C94.7467 250.878 97.4137 253.929 100.866 253.929Z" fill="white"/>
</g>
<path d="M136.303 234.42C141.334 234.42 145.603 230.73 146.331 225.751L156.63 155.324C157.525 149.207 152.782 143.721 146.6 143.721C141.569 143.721 137.299 147.412 136.571 152.391L126.274 222.819C125.38 228.935 130.122 234.42 136.303 234.42Z" fill="#EAF4FE"/>
<path d="M174.215 234.419C179.248 234.419 183.516 230.719 184.23 225.737L197.802 131.017C198.676 124.92 193.945 119.463 187.786 119.463C182.752 119.463 178.483 123.163 177.769 128.147L164.2 222.867C163.327 228.963 168.056 234.419 174.215 234.419Z" fill="#F2F5F6"/>
<path d="M210.201 234.419C215.123 234.419 219.318 230.851 220.107 225.993L235.531 131.111C236.523 125.005 231.81 119.463 225.624 119.463C220.702 119.463 216.506 123.032 215.716 127.89L200.295 222.773C199.303 228.878 204.016 234.419 210.201 234.419Z" fill="#EAF4FE"/>
<path d="M247.963 234.418C252.895 234.418 257.087 230.812 257.824 225.935L274.717 114.051C275.628 108.018 270.956 102.588 264.855 102.588C259.921 102.588 255.729 106.195 254.992 111.073L238.101 222.957C237.191 228.989 241.862 234.418 247.963 234.418Z" fill="#F2F5F6"/>
<path d="M288.148 234.42C293.134 234.42 297.37 230.773 298.111 225.842L315.84 107.835C316.755 101.742 312.037 96.2617 305.876 96.2617C300.889 96.2617 296.652 99.9095 295.912 104.841L278.185 222.849C277.27 228.941 281.988 234.42 288.148 234.42Z" fill="#F2F5F6"/>
<path d="M324.1 234.419C329.061 234.419 333.285 230.809 334.058 225.908L355.817 87.8753C356.782 81.7563 352.052 76.2227 345.858 76.2227C340.895 76.2227 336.671 79.8335 335.898 84.7354L314.141 222.768C313.177 228.887 317.906 234.419 324.1 234.419Z" fill="#F2F5F6"/>
<path d="M362.09 234.42C367.117 234.42 371.39 230.745 372.141 225.774L389.636 110.058C390.566 103.907 385.803 98.3711 379.583 98.3711C374.554 98.3711 370.281 102.047 369.53 107.019L352.038 222.735C351.108 228.885 355.87 234.42 362.09 234.42Z" fill="#EAF4FE"/>
<path d="M400.929 234.42C405.865 234.42 410.062 230.815 410.807 225.935L430.779 95.1074C431.703 89.0572 427.02 83.6055 420.9 83.6055C415.963 83.6055 411.766 87.2106 411.021 92.0912L391.05 222.919C390.127 228.969 394.809 234.42 400.929 234.42Z" fill="#F2F5F6"/>
<path d="M267.888 105.915C267.676 105.915 267.473 105.831 267.324 105.681L253.838 92.1949C253.526 91.8832 253.526 91.3774 253.838 91.0656C254.15 90.7538 254.655 90.7538 254.967 91.0656L267.888 103.987L308.494 63.3811C308.794 63.0816 309.324 63.0816 309.624 63.3811L326.557 80.3143L352.468 54.4038C352.78 54.092 353.285 54.092 353.597 54.4038C353.909 54.7155 353.909 55.2213 353.597 55.5331L327.121 82.0086C326.822 82.3081 326.292 82.3081 325.992 82.0086L309.059 65.0754L268.453 105.681C268.303 105.831 268.1 105.915 267.888 105.915Z" fill="#D8DEE6"/>
<path d="M129.226 166.478C129.022 166.478 128.818 166.4 128.662 166.244C128.35 165.932 128.35 165.426 128.662 165.114L163.841 129.935C164.141 129.635 164.671 129.635 164.971 129.934L183.411 148.374L240.254 91.5308C240.566 91.219 241.071 91.2188 241.383 91.5308C241.695 91.8426 241.695 92.3484 241.383 92.6601L183.975 150.068C183.663 150.38 183.158 150.38 182.846 150.068L164.406 131.628L129.791 166.243C129.635 166.399 129.431 166.478 129.226 166.478Z" fill="#D8DEE6"/>
<path d="M164.404 133.926C166.298 133.926 167.833 132.391 167.833 130.497C167.833 128.604 166.298 127.068 164.404 127.068C162.51 127.068 160.975 128.604 160.975 130.497C160.975 132.391 162.51 133.926 164.404 133.926Z" fill="#F2F5F6"/>
<path d="M164.405 127.07C166.299 127.07 167.834 128.605 167.834 130.498C167.834 132.392 166.299 133.928 164.405 133.928C162.511 133.928 160.976 132.392 160.976 130.498C160.976 128.605 162.511 127.07 164.405 127.07ZM164.405 125.473C161.634 125.473 159.379 127.727 159.379 130.499C159.379 133.27 161.634 135.525 164.405 135.525C167.176 135.525 169.431 133.27 169.431 130.499C169.431 127.727 167.176 125.473 164.405 125.473Z" fill="#D8DEE6"/>
<path d="M267.995 108.403C269.889 108.403 271.425 106.868 271.425 104.974C271.425 103.08 269.889 101.545 267.995 101.545C266.102 101.545 264.566 103.08 264.566 104.974C264.566 106.868 266.102 108.403 267.995 108.403Z" fill="#F2F5F6"/>
<path d="M267.997 101.546C269.891 101.546 271.426 103.082 271.426 104.976C271.426 106.869 269.891 108.404 267.997 108.404C266.103 108.404 264.568 106.869 264.568 104.976C264.568 103.082 266.103 101.546 267.997 101.546ZM267.997 99.9492C265.225 99.9492 262.971 102.204 262.971 104.975C262.971 107.747 265.225 110.001 267.997 110.001C270.768 110.001 273.023 107.747 273.023 104.975C273.023 102.204 270.769 99.9492 267.997 99.9492Z" fill="#D8DEE6"/>
<path d="M309.411 66.9866C311.305 66.9866 312.84 65.4514 312.84 63.5577C312.84 61.664 311.305 60.1289 309.411 60.1289C307.518 60.1289 305.982 61.664 305.982 63.5577C305.982 65.4514 307.518 66.9866 309.411 66.9866Z" fill="#F2F5F6"/>
<path d="M309.413 60.1305C311.307 60.1305 312.842 61.6657 312.842 63.5593C312.842 65.4531 311.307 66.9884 309.413 66.9884C307.519 66.9884 305.984 65.4531 305.984 63.5593C305.984 61.6657 307.519 60.1305 309.413 60.1305ZM309.413 58.5332C306.641 58.5332 304.387 60.788 304.387 63.5593C304.387 66.3308 306.641 68.5854 309.413 68.5854C312.184 68.5854 314.439 66.3305 314.439 63.5593C314.439 60.788 312.184 58.5332 309.413 58.5332Z" fill="#D8DEE6"/>
<path d="M327.042 84.614C328.936 84.614 330.471 83.0787 330.471 81.1849C330.471 79.2911 328.936 77.7559 327.042 77.7559C325.149 77.7559 323.613 79.2911 323.613 81.1849C323.613 83.0787 325.149 84.614 327.042 84.614Z" fill="#F2F5F6"/>
<path d="M327.044 77.7574C328.937 77.7574 330.472 79.2927 330.472 81.1865C330.472 83.0801 328.937 84.6153 327.044 84.6153C325.15 84.6153 323.615 83.0801 323.615 81.1865C323.615 79.2927 325.15 77.7574 327.044 77.7574ZM327.044 76.1602C324.272 76.1602 322.018 78.4148 322.018 81.1862C322.018 83.9577 324.272 86.2123 327.044 86.2123C329.815 86.2123 332.07 83.9575 332.07 81.1862C332.07 78.415 329.815 76.1602 327.044 76.1602Z" fill="#D8DEE6"/>
<path d="M352.241 59.4143C354.135 59.4143 355.67 57.8792 355.67 55.9855C355.67 54.0918 354.135 52.5566 352.241 52.5566C350.348 52.5566 348.812 54.0918 348.812 55.9855C348.812 57.8792 350.348 59.4143 352.241 59.4143Z" fill="#F2F5F6"/>
<path d="M352.243 52.5562C354.137 52.5562 355.672 54.0915 355.672 55.9851C355.672 57.8789 354.137 59.4139 352.243 59.4139C350.349 59.4139 348.814 57.8787 348.814 55.9851C348.814 54.0915 350.349 52.5562 352.243 52.5562ZM352.243 50.959C349.471 50.959 347.217 53.2138 347.217 55.9851C347.217 58.7566 349.471 61.0112 352.243 61.0112C355.014 61.0112 357.269 58.7563 357.269 55.9851C357.269 53.2138 355.014 50.959 352.243 50.959Z" fill="#D8DEE6"/>
<path d="M183.726 152.535C185.619 152.535 187.155 151 187.155 149.107C187.155 147.213 185.619 145.678 183.726 145.678C181.832 145.678 180.297 147.213 180.297 149.107C180.297 151 181.832 152.535 183.726 152.535Z" fill="#F2F5F6"/>
<path d="M183.727 145.677C185.621 145.677 187.156 147.213 187.156 149.106C187.156 151 185.621 152.535 183.727 152.535C181.834 152.535 180.298 151 180.298 149.106C180.298 147.213 181.834 145.677 183.727 145.677ZM183.727 144.08C180.956 144.08 178.701 146.335 178.701 149.106C178.701 151.878 180.956 154.132 183.727 154.132C186.499 154.132 188.753 151.877 188.753 149.106C188.753 146.335 186.499 144.08 183.727 144.08Z" fill="#D8DEE6"/>
<path d="M247.835 88.7639C249.729 88.7639 251.264 87.2288 251.264 85.3351C251.264 83.4414 249.729 81.9062 247.835 81.9062C245.941 81.9062 244.406 83.4414 244.406 85.3351C244.406 87.2288 245.941 88.7639 247.835 88.7639Z" fill="#F2F5F6"/>
<path d="M247.837 81.9058C249.73 81.9058 251.265 83.4411 251.265 85.3347C251.265 87.2285 249.73 88.7637 247.837 88.7637C245.943 88.7637 244.408 87.2285 244.408 85.3347C244.408 83.4411 245.943 81.9058 247.837 81.9058ZM247.837 80.3086C245.065 80.3086 242.811 82.5634 242.811 85.3347C242.811 88.1062 245.065 90.3608 247.837 90.3608C250.608 90.3608 252.863 88.1059 252.863 85.3347C252.863 82.5634 250.608 80.3086 247.837 80.3086Z" fill="#D8DEE6"/>
<path d="M128.451 169.372C130.344 169.372 131.88 167.837 131.88 165.943C131.88 164.049 130.344 162.514 128.451 162.514C126.557 162.514 125.021 164.049 125.021 165.943C125.021 167.837 126.557 169.372 128.451 169.372Z" fill="#F2F5F6"/>
<path d="M128.452 162.515C130.346 162.515 131.881 164.05 131.881 165.944C131.881 167.838 130.346 169.373 128.452 169.373C126.558 169.373 125.023 167.838 125.023 165.944C125.023 164.05 126.558 162.515 128.452 162.515ZM128.452 160.918C125.68 160.918 123.426 163.173 123.426 165.944C123.426 168.716 125.68 170.97 128.452 170.97C131.223 170.97 133.478 168.715 133.478 165.944C133.478 163.173 131.223 160.918 128.452 160.918Z" fill="#D8DEE6"/>
<circle cx="137.764" cy="52.494" r="3.69126" fill="#FF6259"/>
<circle cx="150.42" cy="52.494" r="3.69126" fill="#FFBE2F"/>
<circle cx="163.074" cy="52.494" r="3.69126" fill="#29CD41"/>
<path d="M420.633 56.5017L423.498 53.6366C423.836 53.2982 423.836 52.7445 423.498 52.4061L420.633 49.541" stroke="#495B6D" stroke-width="1.58197" stroke-miterlimit="10" stroke-linecap="round" stroke-linejoin="round"/>
<path d="M35.9922 345.904L38.1179 362.804L51.8119 364.144V344.105L35.9922 345.904Z" fill="#F2BFB7"/>
<path d="M35.9927 374.303C35.9638 376.04 37.2848 377.565 39.168 377.959C45.7183 379.329 60.4732 382.379 64.6821 382.943C70.1448 383.673 76.8585 382.169 79.7444 379.298C82.6303 376.427 73.2812 369.57 68.8441 367.076C62.2525 363.37 55.9199 356.046 53.2648 355.716C50.6093 355.387 45.6526 362.31 45.6526 362.31L37.5501 359.252C37.5501 359.252 36.1382 365.491 35.9927 374.303Z" fill="#202F87"/>
<path d="M81.1309 342.678L82.4487 361.657H93.0303L93.5223 342.678H81.1309Z" fill="#F2BFB7"/>
<path d="M78.1762 371.139C78.1474 372.876 79.4684 374.401 81.3516 374.795C87.9019 376.165 102.657 379.215 106.866 379.779C112.328 380.509 119.042 379.005 121.928 376.134C124.814 373.263 115.465 366.406 111.028 363.912C104.436 360.206 98.1035 352.882 95.4483 352.552C92.7929 352.223 87.8362 359.146 87.8362 359.146L79.7337 356.087C79.7337 356.087 78.3217 362.327 78.1762 371.139Z" fill="#202F87"/>
<path d="M36.9396 218.946C36.9396 218.946 33.6608 278.278 31.9448 298.76C30.2289 319.242 33.882 352.165 33.882 352.165L54.6235 351.307C54.6235 351.307 53.4102 311.276 54.6235 300.16C54.6235 300.16 61.5227 285.09 63.5676 271.65C65.6125 258.209 72.578 236.98 72.578 236.98C72.578 236.98 77.1046 342.941 77.6497 351.265C77.6497 351.265 90.8328 350.432 97.688 348.947C97.688 348.947 104.316 310.31 103.148 289.289C101.98 268.268 103.263 216.039 103.263 216.039L36.9396 218.946Z" fill="#3A67B3"/>
<path d="M121.414 127.902C121.942 128.429 119.496 134.204 137.761 133.703C156.026 133.202 166.639 114.475 166.639 114.475C166.639 114.475 172.947 103.839 177.734 99.9934C182.521 96.1481 183.272 95.6406 183.272 95.6406C183.272 95.6406 184.772 97.6404 183.272 99.9934C181.771 102.346 177.627 106.749 177.627 106.749C177.627 106.749 183.588 108.444 181.529 113.664C179.161 119.668 173.092 118.41 173.092 118.41C173.092 118.41 157.551 179.953 101.584 151.462L121.414 127.902Z" fill="#FFCBC2"/>
<path d="M17.9062 151.462C17.9062 151.462 23.3872 116.084 42.7517 107.38C62.1161 98.6756 88.3139 99.8858 95.5379 104.233C102.762 108.58 121.414 127.902 121.414 127.902L104.953 151.462C104.953 151.462 108.756 213.991 105.749 230.499C105.749 230.499 87.2391 232.657 79.3887 229.565C71.538 226.474 45.7251 222.142 33.386 227.811L35.6283 148.644L17.9062 151.462Z" fill="url(#paint6_linear_15176_32878)"/>
<path d="M108.826 176.189H71.1445L82.9469 134.098H120.629L108.826 176.189Z" fill="#202F87"/>
<path d="M18.0587 151.463L40.2979 143.074C40.2979 143.074 35.3707 175.519 73.9548 160.597C73.9548 160.597 72.5503 153.097 75.5368 151.106C77.1188 150.051 78.9358 149.324 78.0444 152.16C77.5472 153.742 77.8045 154.471 78.1734 155.324C80.4875 160.676 87.9484 157.59 93.3922 156.037C98.8358 154.483 105.982 155.5 93.3922 162.445C80.8029 169.389 83.003 162.605 78.0444 166.292C68.6817 173.253 61.9669 188.788 41.9634 184.009C17.3588 178.131 18.0587 151.463 18.0587 151.463Z" fill="#FFCBC2"/>
<path d="M72.1352 91.2566C70.4878 92.7648 67.2677 94.6068 64.7471 93.3375C62.8705 92.3925 61.8224 89.9439 61.8873 87.1391C61.0186 87.21 59.8791 87.149 59.0661 86.4306C57.8147 85.3247 58.049 83.2894 58.0977 81.952C58.3236 75.779 54.7377 74.8321 55.6151 70.6429C56.3045 67.3504 58.8909 65.389 59.3743 65.0222C61.8159 63.1701 63.4699 63.7678 67.5741 62.6928C74.4815 60.8837 74.7013 57.9063 79.2523 57.8926C79.5156 57.8919 85.7086 57.9601 87.8107 62.2389C89.5202 65.7189 87.5235 69.9481 85.4589 72.1704C82.7856 75.0478 80.8662 73.626 78.1833 76.0394C73.4733 80.2752 77.0295 86.7764 72.1352 91.2566Z" fill="#202F87"/>
<path d="M85.9181 80.2414L85.6459 80.0066C84.2794 78.8287 82.8561 77.4609 82.4932 75.6933C80.9507 68.1793 74.0675 65.4515 73.7501 72.3511C73.67 74.0924 67.3116 74.0019 68.066 75.8299C70.0332 80.5944 70.0766 79.3125 67.3003 81.0683C66.9854 81.0814 66.6738 81.1499 66.379 81.2875C64.9555 81.9511 64.4513 83.8837 65.2532 85.6045C65.7402 86.649 66.5973 87.3678 67.5131 87.6289V95.1567C67.5131 97.9786 65.8066 100.52 63.1943 101.588L60.6523 102.627C60.6523 102.627 72.5052 110.363 84.5354 101.87L82.9297 101.149C80.1022 99.8811 78.246 97.1104 78.1486 94.0129L78.1355 92.5414C78.9444 92.6133 79.728 92.5585 80.4514 92.3481C83.8165 91.3691 84.9341 87.4919 84.3617 82.6721L85.7314 81.9361C86.3713 81.593 86.4676 80.7153 85.9181 80.2414Z" fill="#FFCBC2"/>
<path opacity="0.15" d="M82.3936 391.563C41.6211 391.563 8.56848 383.064 8.56848 372.579C8.56848 362.095 41.6211 353.596 82.3936 353.596C123.166 353.596 156.219 362.095 156.219 372.579C156.219 383.064 123.166 391.563 82.3936 391.563Z" fill="#FF7300"/>
<g filter="url(#filter1_d_15176_32878)">
<path d="M206.693 327.228H376.747C378.263 327.228 379.544 326.151 379.738 324.713L393.472 222.879C393.854 220.051 391.551 217.545 388.57 217.545H220.709C219.193 217.545 217.912 218.622 217.718 220.06L203.703 323.975C203.47 325.7 204.875 327.228 206.693 327.228Z" fill="white"/>
</g>
<path d="M284.317 272.387H371.233C372.008 272.387 372.662 271.952 372.762 271.371L379.782 230.246C379.977 229.104 378.799 228.092 377.276 228.092H291.48C290.705 228.092 290.051 228.527 289.952 229.108L282.788 271.073C282.669 271.77 283.387 272.387 284.317 272.387Z" fill="#F2F5F6"/>
<rect x="286.994" y="283.988" width="84.3716" height="4.21858" rx="2.10929" fill="#F2F5F6"/>
<rect x="283.83" y="293.48" width="84.3716" height="4.21858" rx="2.10929" fill="#F2F5F6"/>
<rect x="281.721" y="301.918" width="84.3716" height="4.21858" rx="2.10929" fill="#F2F5F6"/>
<rect x="279.611" y="310.354" width="84.3716" height="4.21858" rx="2.10929" fill="#F2F5F6"/>
<path d="M217.32 316.682H273.06C273.557 316.682 273.977 316.341 274.041 315.884L278.542 283.572C278.668 282.674 277.913 281.879 276.935 281.879H221.914C221.417 281.879 220.998 282.221 220.934 282.677L216.34 315.65C216.264 316.197 216.724 316.682 217.32 316.682Z" fill="#F2F5F6"/>
<path d="M323.618 250.24C322.924 249.405 322.502 248.333 322.502 247.164C322.502 244.51 324.673 242.33 327.336 242.33H331.73C334.384 242.33 336.564 244.51 336.564 247.164C336.564 249.818 334.393 251.998 331.73 251.998H329.533" stroke="#FF7300" stroke-width="1.58197" stroke-linecap="round" stroke-linejoin="round"/>
<path d="M338.963 250.24C339.658 251.075 340.08 252.147 340.08 253.316C340.08 255.97 337.909 258.15 335.246 258.15H330.851C328.197 258.15 326.018 255.97 326.018 253.316C326.018 250.662 328.188 248.482 330.851 248.482H333.049" stroke="#0061BF" stroke-width="1.58197" stroke-linecap="round" stroke-linejoin="round"/>
<path d="M41.4964 102.428C39.0741 102.428 37.1035 100.458 37.1035 98.0354C37.1035 95.6131 39.0741 93.6426 41.4964 93.6426C43.9187 93.6426 45.8895 95.6131 45.8895 98.0354C45.8895 100.458 43.9187 102.428 41.4964 102.428ZM41.4964 95.2396C39.9549 95.2396 38.7008 96.4937 38.7008 98.0354C38.7008 99.5772 39.9549 100.831 41.4964 100.831C43.0379 100.831 44.2923 99.5772 44.2923 98.0354C44.2923 96.4937 43.0379 95.2396 41.4964 95.2396Z" fill="#EDF6FE"/>
<path d="M460.475 192.499C460.271 192.499 460.067 192.421 459.911 192.265L458.08 190.434C457.768 190.122 457.768 189.616 458.08 189.304C458.392 188.992 458.897 188.992 459.209 189.304L461.04 191.135C461.352 191.447 461.352 191.953 461.04 192.265C460.884 192.421 460.68 192.499 460.475 192.499Z" fill="#FF7300"/>
<path d="M467.392 199.415C467.187 199.415 466.983 199.337 466.827 199.181L464.996 197.35C464.684 197.038 464.684 196.532 464.996 196.22C465.308 195.908 465.813 195.908 466.125 196.22L467.956 198.051C468.268 198.363 468.268 198.869 467.956 199.181C467.8 199.337 467.596 199.415 467.392 199.415Z" fill="#FF7300"/>
<path d="M458.644 199.415C458.44 199.415 458.236 199.337 458.08 199.181C457.768 198.869 457.768 198.363 458.08 198.051L459.911 196.22C460.223 195.908 460.728 195.908 461.04 196.22C461.352 196.532 461.352 197.038 461.04 197.35L459.209 199.181C459.053 199.337 458.849 199.415 458.644 199.415Z" fill="#FF7300"/>
<path d="M465.56 192.499C465.356 192.499 465.152 192.421 464.996 192.265C464.684 191.953 464.684 191.447 464.996 191.135L466.827 189.304C467.139 188.992 467.644 188.992 467.956 189.304C468.268 189.616 468.268 190.122 467.956 190.434L466.125 192.265C465.969 192.421 465.765 192.499 465.56 192.499Z" fill="#FF7300"/>
<path d="M156.739 278.977C156.535 278.977 156.33 278.899 156.174 278.743L154.343 276.912C154.031 276.6 154.031 276.095 154.343 275.783C154.655 275.471 155.161 275.471 155.473 275.783L157.304 277.614C157.616 277.926 157.616 278.432 157.304 278.743C157.148 278.899 156.944 278.977 156.739 278.977Z" fill="#0061BF"/>
<path d="M163.655 285.893C163.451 285.893 163.246 285.815 163.09 285.659L161.259 283.828C160.947 283.516 160.947 283.011 161.259 282.699C161.571 282.387 162.077 282.387 162.389 282.699L164.22 284.53C164.532 284.842 164.532 285.348 164.22 285.659C164.064 285.815 163.86 285.893 163.655 285.893Z" fill="#0061BF"/>
<path d="M154.908 285.893C154.704 285.893 154.5 285.815 154.343 285.659C154.031 285.348 154.031 284.842 154.343 284.53L156.174 282.699C156.486 282.387 156.992 282.387 157.304 282.699C157.616 283.011 157.616 283.516 157.304 283.828L155.473 285.659C155.317 285.815 155.112 285.893 154.908 285.893Z" fill="#0061BF"/>
<path d="M161.824 278.977C161.62 278.977 161.416 278.899 161.259 278.743C160.947 278.432 160.947 277.926 161.259 277.614L163.09 275.783C163.403 275.471 163.908 275.471 164.22 275.783C164.532 276.095 164.532 276.6 164.22 276.912L162.389 278.743C162.233 278.899 162.028 278.977 161.824 278.977Z" fill="#0061BF"/>
<path opacity="0.5" d="M257.697 247.698L256.601 247.691C256.601 247.691 253.976 244.37 252.202 244.186L252.037 234.828C258.833 234.851 264.83 238.68 267.561 244.338L257.697 247.698Z" fill="#FF7300"/>
<path opacity="0.4" d="M244.588 251.846C245.145 254.921 247.946 257.338 251.377 257.445C252.222 257.471 253.207 256.965 253.207 256.965C253.207 256.965 254.111 257.014 254.265 256.954L259.622 265.247C257.132 266.371 254.319 266.922 251.377 266.753C242.821 266.261 236.095 259.821 235.348 252.067L244.588 251.846Z" fill="#FF7300"/>
<path opacity="0.5" d="M261.298 264.375L260.227 264.412L255.893 256.057C257.51 254.86 258.549 252.997 258.549 250.884C258.549 250.373 258.487 249.875 258.372 249.396L267.2 246.064L268.273 246.077C268.805 247.636 269.092 249.295 269.092 251.013C269.092 256.703 265.97 261.602 261.298 264.375Z" fill="#0061BF"/>
<path d="M250.328 244.227C247.203 244.692 244.8 247.113 244.514 250.106L229.405 250.544C229.405 250.541 229.405 250.538 229.405 250.534C229.405 250.534 229.405 250.53 229.405 250.525C229.405 250.513 227.127 250.159 227.127 250.157C227.128 250.053 247.768 228.357 247.768 228.357L250.057 228.734C250.057 228.734 250.237 239.062 250.328 244.227Z" fill="#AAB4BE"/>
<path d="M256.615 247.699C255.521 245.785 253.485 244.433 251.119 244.188L250.955 234.83C257.75 234.853 263.748 238.682 266.479 244.34L256.615 247.699Z" fill="#FF7300"/>
<path d="M243.507 251.846C244.065 254.921 246.866 257.338 250.297 257.445C251.32 257.476 252.298 257.3 253.185 256.954L258.542 265.247C256.052 266.371 253.239 266.922 250.297 266.753C241.741 266.261 235.015 259.821 234.268 252.067L243.507 251.846Z" fill="#FF7300"/>
<path d="M260.22 264.374L254.814 256.056C256.431 254.859 257.471 252.996 257.471 250.883C257.471 250.372 257.409 249.874 257.294 249.395L267.195 246.076C267.727 247.635 268.014 249.294 268.014 251.012C268.014 256.702 264.892 261.601 260.22 264.374Z" fill="#0061BF"/>
<path d="M248.05 243.833C244.925 244.298 242.522 246.72 242.237 249.712L227.127 250.15C227.127 250.144 227.127 250.137 227.127 250.131C227.127 239.047 235.959 229.561 247.779 228.34L248.05 243.833Z" fill="#EBEFF2"/>
<path d="M488.79 377.777H350.332" stroke="#EBEFF2" stroke-width="1.05464"/>
<path d="M453.178 341.626C450.117 336.154 450.497 333.588 451.37 332.258C452.926 329.888 456.403 330.887 457.945 328.313C459.53 325.666 456.657 323.262 457.725 319.868C458.989 315.855 465.26 312.069 469.285 314.343C472.727 316.288 473.633 322.159 471.586 325.191C469.314 328.556 464.308 327.086 462.898 330.222C461.6 333.107 465.168 335.839 464.026 338.503C463.37 340.032 461.084 341.726 453.178 341.626Z" fill="#B7DBFF"/>
<path d="M452.603 344.369C452.548 344.369 452.491 344.36 452.436 344.341C452.171 344.249 452.03 343.959 452.122 343.694C457.75 327.434 465.129 322.166 465.44 321.95C465.672 321.79 465.989 321.847 466.149 322.078C466.309 322.309 466.252 322.625 466.022 322.786C465.948 322.837 458.59 328.119 453.083 344.027C453.011 344.237 452.814 344.369 452.603 344.369Z" fill="#3588D8"/>
<path d="M448.43 339.736C448.397 334.625 449.86 331.513 451.204 329.616C453.655 326.154 456.37 325.798 457.305 322.454C458.189 319.295 456.121 318.339 456.814 314.781C457.638 310.545 460.89 310.253 461.728 306.765C462.747 302.52 458.552 300.372 456.445 294.412C453.719 286.701 458.238 283.212 457.205 276.011C455.528 264.324 440.761 253.553 434.445 256.489C428.49 259.257 428.057 275.14 432.869 286.679C437.999 298.979 445.946 298.802 447.101 309.083C447.899 316.188 444.563 320.352 446.279 331.271C446.86 334.968 447.78 337.906 448.43 339.736Z" fill="#B7DBFF"/>
<path d="M449.993 344.6C449.8 344.6 449.616 344.49 449.53 344.303C446.446 337.569 447.694 330.21 449.275 320.892C450.103 316.01 451.041 310.476 451.404 304.386C452.414 287.436 438.245 266.915 438.101 266.71C437.941 266.48 437.997 266.163 438.227 266.002C438.458 265.841 438.775 265.898 438.936 266.128C439.081 266.336 453.451 287.148 452.42 304.447C452.054 310.592 451.111 316.155 450.278 321.063C448.727 330.208 447.502 337.431 450.456 343.88C450.572 344.136 450.46 344.437 450.205 344.555C450.136 344.586 450.064 344.6 449.993 344.6Z" fill="#3588D8"/>
<path d="M444.662 340.981C443.975 337.729 443.252 332.938 443.493 327.16C443.885 317.741 446.501 313.732 443.873 310.213C440.976 306.332 436.099 308.93 432.645 304.314C430.291 301.167 431.471 298.508 428.237 295.546C427.621 294.982 425.615 293.193 422.784 292.974C420.158 292.77 419.23 294.104 415.879 295.273C409.808 297.391 407.101 295.019 404.869 297.247C402.893 299.219 402.499 303.589 404.384 305.998C407.934 310.537 417.324 305.252 420.847 309.556C423.856 313.232 418.669 319.118 421.962 323.215C424.929 326.907 430.869 324.282 433.303 328.146C435.164 331.101 432.558 334.01 434.283 337.09C436.082 340.302 441.034 340.918 444.662 340.981Z" fill="#B7DBFF"/>
<path d="M446.922 344.456C446.813 344.456 446.703 344.421 446.611 344.349C443.49 341.937 442.419 337.955 440.798 331.928C439.58 327.4 438.065 321.765 435.136 314.866C428.594 299.454 410.752 301.226 410.572 301.246C410.292 301.276 410.042 301.075 410.011 300.796C409.98 300.516 410.182 300.265 410.461 300.234C410.652 300.213 415.201 299.738 420.658 301.236C425.717 302.625 432.498 306.048 436.073 314.468C439.029 321.433 440.555 327.105 441.781 331.663C443.348 337.491 444.384 341.341 447.233 343.544C447.455 343.716 447.496 344.036 447.324 344.258C447.224 344.388 447.074 344.456 446.922 344.456Z" fill="#3588D8"/>
<path d="M438.122 375.16C438.336 376.305 439.43 377.221 440.595 377.22C445.1 377.218 455.611 377.209 459.838 377.169C460.857 377.159 461.673 376.401 461.79 375.389L465.166 346.209C465.311 344.956 464.331 343.857 463.07 343.857H434.634C433.308 343.857 432.307 345.053 432.561 346.355C433.795 352.695 437.027 369.319 438.122 375.16Z" fill="#4991FF"/>
</g>
<defs>
<filter id="filter0_d_15176_32878" x="52.9548" y="3.34698" width="444.85" height="303.313" filterUnits="userSpaceOnUse" color-interpolation-filters="sRGB">
<feFlood flood-opacity="0" result="BackgroundImageFix"/>
<feColorMatrix in="SourceAlpha" type="matrix" values="0 0 0 0 0 0 0 0 0 0 0 0 0 0 0 0 0 0 127 0" result="hardAlpha"/>
<feOffset dy="10.5464"/>
<feGaussianBlur stdDeviation="21.0929"/>
<feComposite in2="hardAlpha" operator="out"/>
<feColorMatrix type="matrix" values="0 0 0 0 0.117647 0 0 0 0 0.129412 0 0 0 0 0.176471 0 0 0 0.1 0"/>
<feBlend mode="normal" in2="BackgroundImageFix" result="effect1_dropShadow_15176_32878"/>
<feBlend mode="normal" in="SourceGraphic" in2="effect1_dropShadow_15176_32878" result="shape"/>
</filter>
<filter id="filter1_d_15176_32878" x="166.765" y="196.452" width="253.115" height="172.962" filterUnits="userSpaceOnUse" color-interpolation-filters="sRGB">
<feFlood flood-opacity="0" result="BackgroundImageFix"/>
<feColorMatrix in="SourceAlpha" type="matrix" values="0 0 0 0 0 0 0 0 0 0 0 0 0 0 0 0 0 0 127 0" result="hardAlpha"/>
<feOffset dx="-5.27322" dy="10.5464"/>
<feGaussianBlur stdDeviation="15.8197"/>
<feComposite in2="hardAlpha" operator="out"/>
<feColorMatrix type="matrix" values="0 0 0 0 0.117647 0 0 0 0 0.129412 0 0 0 0 0.176471 0 0 0 0.09 0"/>
<feBlend mode="normal" in2="BackgroundImageFix" result="effect1_dropShadow_15176_32878"/>
<feBlend mode="normal" in="SourceGraphic" in2="effect1_dropShadow_15176_32878" result="shape"/>
</filter>
<linearGradient id="paint0_linear_15176_32878" x1="361.543" y1="1.09633e-05" x2="88.2206" y2="324.458" gradientUnits="userSpaceOnUse">
<stop stop-color="#EAF4FE"/>
<stop offset="1" stop-color="#DCEDFF" stop-opacity="0"/>
</linearGradient>
<linearGradient id="paint1_linear_15176_32878" x1="468.55" y1="22.017" x2="456.23" y2="34.3363" gradientUnits="userSpaceOnUse">
<stop stop-color="#FAB882"/>
<stop offset="1" stop-color="#FF7300"/>
</linearGradient>
<linearGradient id="paint2_linear_15176_32878" x1="441.772" y1="16.4449" x2="430.251" y2="27.9667" gradientUnits="userSpaceOnUse">
<stop stop-color="#FAB882"/>
<stop offset="1" stop-color="#FF7300"/>
</linearGradient>
<linearGradient id="paint3_linear_15176_32878" x1="467.486" y1="60.27" x2="456.597" y2="71.1595" gradientUnits="userSpaceOnUse">
<stop stop-color="#FAB882"/>
<stop offset="1" stop-color="#FF7300"/>
</linearGradient>
<linearGradient id="paint4_linear_15176_32878" x1="103.992" y1="11.3371" x2="123.013" y2="58.1283" gradientUnits="userSpaceOnUse">
<stop stop-color="#A2CEFA"/>
<stop offset="1" stop-color="#DCEDFF" stop-opacity="0"/>
</linearGradient>
<linearGradient id="paint5_linear_15176_32878" x1="155.028" y1="27.7368" x2="166.394" y2="55.698" gradientUnits="userSpaceOnUse">
<stop stop-color="#A2CEFA"/>
<stop offset="1" stop-color="#DCEDFF" stop-opacity="0"/>
</linearGradient>
<linearGradient id="paint6_linear_15176_32878" x1="121.378" y1="166.804" x2="17.813" y2="166.804" gradientUnits="userSpaceOnUse">
<stop stop-color="#FAB882"/>
<stop offset="1" stop-color="#FF7300"/>
</linearGradient>
<clipPath id="clip0_15176_32878">
<rect width="496.738" height="386" fill="white" transform="translate(0.130859 14)"/>
</clipPath>
</defs>
</svg>
