<svg width="628" height="435" viewBox="0 0 628 435" fill="none" xmlns="http://www.w3.org/2000/svg">
<path opacity="0.2" d="M602.736 69.3027H604.24C604.24 73.7062 607.802 77.2748 612.194 77.2748V78.783C607.801 78.783 604.24 82.3526 604.24 86.7561H602.736C602.736 82.3526 599.174 78.783 594.781 78.783V77.2748C599.174 77.2748 602.736 73.7052 602.736 69.3027Z" fill="url(#paint0_linear_15142_38586)"/>
<path d="M588.869 47H589.246C589.246 51.4035 592.807 54.9731 597.199 54.9731V55.3504C592.806 55.3504 589.245 58.92 589.245 63.3234H588.869C588.869 58.92 585.307 55.3504 580.914 55.3504V54.9731C585.308 54.9731 588.869 51.4035 588.869 47Z" fill="url(#paint1_linear_15142_38586)"/>
<path opacity="0.2" d="M576.696 96.625C576.696 100.885 580.141 104.339 584.392 104.339C580.141 104.339 576.696 107.792 576.696 112.053C576.696 107.792 573.25 104.339 569 104.339C573.25 104.338 576.696 100.885 576.696 96.625Z" fill="url(#paint2_linear_15142_38586)"/>
<path opacity="0.08" fill-rule="evenodd" clip-rule="evenodd" d="M163.739 100.35C243.52 14.9641 310.006 -28.6358 419.809 22.6087C536.36 77.0024 552.94 147.912 530.646 271.583C511.639 377.017 371.812 335.104 265.905 351.847C153.627 369.597 135.507 387.276 87.4723 281.454C45.0613 188.02 96.1615 172.676 163.739 100.35Z" fill="url(#paint3_linear_15142_38586)"/>
<g filter="url(#filter0_d_15142_38586)">
<rect x="73.0586" y="28.4004" width="329.421" height="252.398" rx="11.8497" fill="white"/>
</g>
<rect x="118.09" y="210.889" width="232.253" height="9.47974" rx="4.73987" fill="#EBEFF2"/>
<rect x="118.09" y="229.848" width="266.618" height="4.73987" rx="2.36993" fill="#EBEFF2"/>
<rect x="118.09" y="244.068" width="225.144" height="4.73987" rx="2.36993" fill="#EBEFF2"/>
<rect x="118.09" y="258.287" width="135.086" height="4.73987" rx="2.36993" fill="#EBEFF2"/>
<rect x="92.1668" y="212.221" width="17.0511" height="17.0511" rx="2.66557" stroke="#EBEFF2" stroke-width="2.66557"/>
<path d="M370.486 78.168H105.054C98.3504 78.168 94.9988 78.168 92.9164 80.2504C90.834 82.3328 90.834 85.6844 90.834 92.3876V178.89C90.834 185.593 90.834 188.945 92.9164 191.027C94.9988 193.11 98.3504 193.11 105.054 193.11H370.486C377.189 193.11 380.541 193.11 382.623 191.027C384.706 188.945 384.706 185.593 384.706 178.89V92.3876C384.706 85.6844 384.706 82.3328 382.623 80.2504C380.541 78.168 377.189 78.168 370.486 78.168Z" fill="#F2F5F6"/>
<path d="M116.904 178.893V158.476C116.904 155.858 114.781 153.736 112.164 153.736C109.546 153.736 107.424 155.858 107.424 158.476V178.893C107.424 181.51 109.546 183.632 112.164 183.632C114.781 183.632 116.904 181.51 116.904 178.893Z" fill="#D8DEE6"/>
<path d="M142.973 178.301V135.467C142.973 132.522 140.586 130.135 137.641 130.135C134.696 130.135 132.309 132.522 132.309 135.467V178.301C132.309 181.246 134.696 183.633 137.641 183.633C140.586 183.633 142.973 181.246 142.973 178.301Z" fill="#FF7300"/>
<path d="M167.857 178.892V153.755C167.857 151.138 165.735 149.016 163.117 149.016C160.499 149.016 158.377 151.138 158.377 153.755V178.892C158.377 181.51 160.499 183.632 163.117 183.632C165.735 183.632 167.857 181.51 167.857 178.892Z" fill="#0061BF"/>
<path d="M192.74 178.892V111.271C192.74 108.653 190.617 106.531 188 106.531C185.382 106.531 183.26 108.653 183.26 111.271V178.892C183.26 181.51 185.382 183.632 188 183.632C190.617 183.632 192.74 181.51 192.74 178.892Z" fill="#D8DEE6"/>
<path d="M218.811 178.301V135.467C218.811 132.522 216.424 130.135 213.479 130.135C210.534 130.135 208.146 132.522 208.146 135.467V178.301C208.146 181.246 210.534 183.633 213.479 183.633C216.424 183.633 218.811 181.246 218.811 178.301Z" fill="#D8DEE6"/>
<path d="M243.696 178.302V103.998C243.696 101.053 241.309 98.666 238.364 98.666C235.419 98.666 233.031 101.053 233.031 103.998V178.302C233.031 181.247 235.419 183.634 238.364 183.634C241.309 183.634 243.696 181.247 243.696 178.302Z" fill="#D8DEE6"/>
<path d="M293.464 178.302V103.998C293.464 101.053 291.076 98.666 288.131 98.666C285.186 98.666 282.799 101.053 282.799 103.998V178.302C282.799 181.247 285.186 183.634 288.131 183.634C291.076 183.634 293.464 181.247 293.464 178.302Z" fill="#D8DEE6"/>
<path d="M318.35 178.3V118.159C318.35 115.214 315.963 112.826 313.018 112.826C310.073 112.826 307.686 115.214 307.686 118.159V178.3C307.686 181.245 310.073 183.633 313.018 183.633C315.963 183.633 318.35 181.245 318.35 178.3Z" fill="#D8DEE6"/>
<path d="M343.233 178.302V103.998C343.233 101.053 340.846 98.666 337.901 98.666C334.956 98.666 332.568 101.053 332.568 103.998V178.302C332.568 181.247 334.956 183.634 337.901 183.634C340.846 183.634 343.233 181.247 343.233 178.302Z" fill="#D8DEE6"/>
<path d="M368.118 178.3V118.159C368.118 115.214 365.73 112.826 362.785 112.826C359.84 112.826 357.453 115.214 357.453 118.159V178.3C357.453 181.245 359.84 183.633 362.785 183.633C365.73 183.633 368.118 181.245 368.118 178.3Z" fill="#D8DEE6"/>
<path d="M268.579 178.893V92.3903C268.579 89.7725 266.457 87.6504 263.839 87.6504C261.222 87.6504 259.1 89.7725 259.1 92.3903V178.893C259.1 181.511 261.222 183.633 263.839 183.633C266.457 183.633 268.579 181.511 268.579 178.893Z" fill="#D8DEE6"/>
<path d="M73.0586 35.5102C73.0586 31.5836 76.2418 28.4004 80.1684 28.4004H395.37C399.296 28.4004 402.479 31.5836 402.479 35.5102V60.3945H73.0586V35.5102Z" fill="#EAF4FE"/>
<path d="M96.3378 44.7631C96.3378 47.2546 94.3095 49.2743 91.8076 49.2743C89.3056 49.2743 87.2773 47.2546 87.2773 44.7631C87.2773 42.2717 89.3056 40.252 91.8076 40.252C94.3095 40.252 96.3378 42.2717 96.3378 44.7631Z" fill="#FF6259"/>
<path d="M111.324 44.7631C111.324 47.2546 109.296 49.2743 106.794 49.2743C104.292 49.2743 102.264 47.2546 102.264 44.7631C102.264 42.2717 104.292 40.252 106.794 40.252C109.296 40.252 111.324 42.2717 111.324 44.7631Z" fill="#FFBE2F"/>
<path d="M126.31 44.7631C126.31 47.2546 124.282 49.2743 121.78 49.2743C119.278 49.2743 117.25 47.2546 117.25 44.7631C117.25 42.2717 119.278 40.252 121.78 40.252C124.282 40.252 126.31 42.2717 126.31 44.7631Z" fill="#29CD41"/>
<g filter="url(#filter1_d_15142_38586)">
<rect width="143.381" height="190.78" rx="11.8497" transform="matrix(-1 0 0 1 557.713 94.7578)" fill="white"/>
</g>
<path d="M526.906 146.894C526.906 136.839 523.146 127.147 516.364 119.722C509.582 112.298 500.269 107.678 490.254 106.77L488.863 122.116C495.047 122.677 500.798 125.53 504.986 130.115C509.174 134.7 511.497 140.685 511.497 146.894H526.906Z" fill="#FF7300"/>
<path d="M490.234 106.768C480.219 105.865 470.228 108.741 462.225 114.829C454.222 120.917 448.784 129.777 446.981 139.67L465.87 143.113C466.814 137.935 469.66 133.297 473.849 130.11C478.038 126.923 483.268 125.418 488.51 125.891L490.234 106.768Z" fill="#7799D0"/>
<path d="M460.709 177.749C468.429 184.231 478.298 187.583 488.369 187.145C498.439 186.707 507.98 182.509 515.107 175.381L504.492 164.767C500.02 169.239 494.034 171.873 487.716 172.148C481.398 172.423 475.206 170.319 470.362 166.252L460.709 177.749Z" fill="#5379BC"/>
<path d="M446.986 139.642C445.705 146.642 446.301 153.855 448.713 160.55C451.125 167.244 455.266 173.181 460.717 177.755L470.371 166.251C466.953 163.382 464.355 159.659 462.842 155.46C461.329 151.261 460.956 146.736 461.759 142.346L446.986 139.642Z" fill="#FF4E3E"/>
<path d="M515.106 175.383C518.847 171.642 521.814 167.2 523.839 162.312C525.864 157.424 526.906 152.185 526.906 146.894H509.359C509.359 149.881 508.771 152.838 507.628 155.597C506.485 158.357 504.81 160.864 502.698 162.975L515.106 175.383Z" fill="#F9A11B"/>
<rect x="421.441" y="199.037" width="62.8032" height="4.73987" rx="2.36993" fill="#EBEFF2"/>
<rect x="491.354" y="199.037" width="59.2483" height="4.73987" rx="2.36993" fill="#EBEFF2"/>
<rect x="421.441" y="210.887" width="62.8032" height="4.73987" rx="2.36993" fill="#EBEFF2"/>
<rect x="491.354" y="210.887" width="59.2483" height="4.73987" rx="2.36993" fill="#EBEFF2"/>
<rect x="421.441" y="222.732" width="62.8032" height="4.73987" rx="2.36993" fill="#EBEFF2"/>
<rect x="491.354" y="222.732" width="59.2483" height="4.73987" rx="2.36993" fill="#EBEFF2"/>
<rect x="421.441" y="235.768" width="62.8032" height="37.9189" rx="7.1098" fill="#F2F5F6"/>
<path d="M455.059 258.527H456.177C458.414 258.527 460.25 256.82 460.25 254.726C460.25 252.638 458.421 250.924 456.177 250.924H455.059" stroke="#0061BF" stroke-width="1.77745" stroke-linecap="round" stroke-linejoin="round"/>
<path d="M450.622 250.924H449.511C447.267 250.924 445.438 252.631 445.438 254.726C445.438 256.813 447.267 258.527 449.511 258.527H450.622" stroke="#0061BF" stroke-width="1.77745" stroke-linecap="round" stroke-linejoin="round"/>
<path d="M449.883 254.727H455.808" stroke="#0061BF" stroke-width="1.77745" stroke-linecap="round" stroke-linejoin="round"/>
<rect x="491.354" y="235.768" width="59.2483" height="37.9189" rx="7.1098" fill="#F2F5F6"/>
<path d="M523.785 258.527H524.903C527.14 258.527 528.977 256.82 528.977 254.726C528.977 252.638 527.147 250.924 524.903 250.924H523.785" stroke="#FF7300" stroke-width="1.77745" stroke-linecap="round" stroke-linejoin="round"/>
<path d="M519.348 250.924H518.237C515.993 250.924 514.164 252.631 514.164 254.726C514.164 256.813 515.993 258.527 518.237 258.527H519.348" stroke="#FF7300" stroke-width="1.77745" stroke-linecap="round" stroke-linejoin="round"/>
<path d="M518.609 254.727H524.534" stroke="#FF7300" stroke-width="1.77745" stroke-linecap="round" stroke-linejoin="round"/>
<g filter="url(#filter2_d_15142_38586)">
<rect width="143.381" height="54.5085" rx="11.8497" transform="matrix(-1 0 0 1 557.713 28.4004)" fill="white"/>
</g>
<rect x="424.996" y="60.3926" width="122.052" height="3.5549" rx="1.77745" fill="#EBEFF2"/>
<rect x="424.996" y="69.8828" width="90.0527" height="3.5549" rx="1.77745" fill="#EBEFF2"/>
<path d="M432.11 37.8809L433.706 42.7936L438.872 42.7936L434.693 45.8299L436.289 50.7426L432.11 47.7064L427.931 50.7426L429.527 45.8299L425.348 42.7936L430.514 42.7936L432.11 37.8809Z" fill="#FFB525"/>
<path d="M449.883 37.8809L451.479 42.7936L456.645 42.7936L452.466 45.8299L454.062 50.7426L449.883 47.7064L445.704 50.7426L447.3 45.8299L443.121 42.7936L448.287 42.7936L449.883 37.8809Z" fill="#FFB525"/>
<path d="M467.661 37.8809L469.257 42.7936L474.422 42.7936L470.243 45.8299L471.84 50.7426L467.661 47.7064L463.482 50.7426L465.078 45.8299L460.899 42.7936L466.064 42.7936L467.661 37.8809Z" fill="#FFB525"/>
<path d="M485.434 37.8809L487.03 42.7936L492.196 42.7936L488.017 45.8299L489.613 50.7426L485.434 47.7064L481.255 50.7426L482.851 45.8299L478.672 42.7936L483.838 42.7936L485.434 37.8809Z" fill="#FFB525"/>
<path d="M503.207 37.8809L504.804 42.7936L509.969 42.7936L505.79 45.8299L507.386 50.7426L503.207 47.7064L499.028 50.7426L500.625 45.8299L496.446 42.7936L501.611 42.7936L503.207 37.8809Z" fill="#FFB525"/>
<path d="M476.164 327.897H456.604V317.228C456.604 315.436 458.053 313.979 459.836 313.979H472.932C474.714 313.979 476.164 315.436 476.164 317.228V327.897ZM457.632 326.862H475.135V317.228C475.135 316.007 474.147 315.013 472.932 315.013H459.836C458.621 315.013 457.632 316.007 457.632 317.228V326.862Z" fill="#AAB4BE"/>
<path d="M490.846 324.066H441.933C438.66 324.066 436.008 326.719 436.008 329.991V361.307C436.008 364.579 438.66 367.232 441.933 367.232H490.846C494.118 367.232 496.77 364.579 496.77 361.307V329.991C496.77 326.719 494.118 324.066 490.846 324.066Z" fill="white"/>
<path d="M497.283 367.746H441.417C438.145 367.746 435.492 365.094 435.492 361.821V329.472C435.492 326.2 438.145 323.547 441.417 323.547H491.358C494.631 323.547 497.283 326.2 497.283 329.472V367.746C497.283 367.746 497.283 367.746 497.283 367.746ZM436.521 360.787C436.521 364.059 439.174 366.712 442.446 366.712H490.33C493.602 366.712 496.254 364.059 496.254 360.787V330.506C496.254 327.234 493.602 324.581 490.33 324.581H442.446C439.174 324.581 436.521 327.234 436.521 330.506V360.787Z" fill="#AAB4BE"/>
<path d="M496.565 345.154H436.209V346.188H496.565V345.154Z" fill="#AAB4BE"/>
<path d="M468.295 349.897H464.474C463.637 349.897 462.955 349.213 462.955 348.37V342.978C462.955 342.136 463.637 341.451 464.474 341.451H468.295C469.132 341.451 469.814 342.136 469.814 342.978V348.37C469.814 349.213 469.132 349.897 468.295 349.897ZM464.474 342.486C464.204 342.486 463.984 342.707 463.984 342.979V348.37C463.984 348.642 464.204 348.863 464.474 348.863H468.295C468.565 348.863 468.785 348.642 468.785 348.37V342.979C468.785 342.707 468.565 342.486 468.295 342.486H464.474Z" fill="#AAB4BE"/>
<path opacity="0.7" d="M363.998 286.615C363.998 286.615 373.884 268.57 366.63 267.785C359.375 266.998 363.859 286.693 363.859 286.693" fill="#FF7300"/>
<path opacity="0.7" d="M360.984 297.137C360.984 297.137 380.131 289.605 375.062 284.356C369.992 279.107 360.827 297.107 360.827 297.107" fill="#FF7300"/>
<path opacity="0.7" d="M361.414 309.997C361.414 309.997 380.677 302.769 375.692 297.44C370.705 292.111 361.258 309.965 361.258 309.965" fill="#FF7300"/>
<path opacity="0.7" d="M365.468 324.753C365.468 324.753 384.721 317.497 379.728 312.175C374.734 306.854 365.311 324.722 365.311 324.722" fill="#FF7300"/>
<path opacity="0.7" d="M371.032 337.528C371.032 337.528 389.457 328.372 383.954 323.58C378.451 318.788 370.874 337.512 370.874 337.512" fill="#FF7300"/>
<path opacity="0.7" d="M377.477 348.741C377.477 348.741 395.425 338.679 389.69 334.167C383.954 329.655 377.317 348.733 377.317 348.733" fill="#FF7300"/>
<path opacity="0.7" d="M384.798 359.975C384.798 359.975 402.745 349.914 397.01 345.402C391.275 340.889 384.638 359.967 384.638 359.967" fill="#FF7300"/>
<path opacity="0.7" d="M360.826 297.278C360.826 297.278 357.82 276.924 351.561 280.674C345.301 284.425 360.762 297.424 360.762 297.424" fill="#FF7300"/>
<path opacity="0.7" d="M361.717 310.246C361.717 310.246 354.182 291.101 348.933 296.171C343.685 301.242 361.687 310.404 361.687 310.404" fill="#FF7300"/>
<path opacity="0.7" d="M365.628 325.009C365.628 325.009 353.747 308.212 349.858 314.387C345.97 320.562 365.637 325.168 365.637 325.168" fill="#FF7300"/>
<path opacity="0.7" d="M371.227 337.894C371.227 337.894 356.982 323.047 354.054 329.732C351.126 336.416 371.26 338.05 371.26 338.05" fill="#FF7300"/>
<path opacity="0.7" d="M377.652 348.597C377.652 348.597 359.214 339.466 358.728 346.747C358.242 354.029 377.736 348.733 377.736 348.733" fill="#FF7300"/>
<path opacity="0.7" d="M384.589 360.246C384.589 360.246 366.151 351.114 365.665 358.396C365.179 365.677 384.672 360.382 384.672 360.382" fill="#FF7300"/>
<path opacity="0.8" d="M390.738 367.954C390.958 367.716 390.982 367.348 390.777 367.081C368.566 338.182 362.665 317.529 361.626 305.292C360.505 292.088 364.655 285.603 364.697 285.539C364.902 285.226 364.817 284.805 364.505 284.599C364.192 284.392 363.768 284.479 363.567 284.79C363.385 285.062 359.144 291.631 360.262 305.245C361.282 317.684 367.22 338.655 389.704 367.908C389.932 368.205 390.358 368.261 390.654 368.033C390.684 368.009 390.712 367.982 390.738 367.954Z" fill="#FF7300"/>
<path d="M400.275 316.28C400.275 316.28 394.761 306.217 398.808 305.778C402.853 305.34 400.353 316.323 400.353 316.323" fill="#8FBFED"/>
<path d="M401.955 322.145C401.955 322.145 391.278 317.944 394.105 315.017C396.932 312.09 402.043 322.128 402.043 322.128" fill="#8FBFED"/>
<path d="M401.719 329.321C401.719 329.321 390.976 325.289 393.757 322.317C396.537 319.346 401.807 329.303 401.807 329.303" fill="#8FBFED"/>
<path d="M399.457 337.55C399.457 337.55 388.72 333.503 391.505 330.536C394.29 327.569 399.545 337.532 399.545 337.532" fill="#8FBFED"/>
<path d="M396.351 344.673C396.351 344.673 386.076 339.567 389.145 336.895C392.214 334.222 396.439 344.664 396.439 344.664" fill="#8FBFED"/>
<path d="M392.761 350.925C392.761 350.925 382.752 345.314 385.951 342.797C389.149 340.28 392.85 350.92 392.85 350.92" fill="#8FBFED"/>
<path d="M388.679 357.189C388.679 357.189 378.67 351.578 381.869 349.061C385.067 346.544 388.768 357.184 388.768 357.184" fill="#8FBFED"/>
<path d="M402.045 322.226C402.045 322.226 403.722 310.875 407.213 312.966C410.704 315.058 402.082 322.307 402.082 322.307" fill="#8FBFED"/>
<path d="M401.547 329.455C401.547 329.455 405.749 318.778 408.676 321.605C411.603 324.433 401.564 329.542 401.564 329.542" fill="#8FBFED"/>
<path d="M399.367 337.69C399.367 337.69 405.993 328.323 408.161 331.766C410.33 335.21 399.362 337.779 399.362 337.779" fill="#8FBFED"/>
<path d="M396.245 344.875C396.245 344.875 404.189 336.596 405.822 340.324C407.455 344.052 396.227 344.963 396.227 344.963" fill="#8FBFED"/>
<path d="M392.662 350.845C392.662 350.845 402.944 345.753 403.216 349.814C403.487 353.875 392.616 350.92 392.616 350.92" fill="#8FBFED"/>
<path d="M388.795 357.343C388.795 357.343 399.077 352.251 399.349 356.312C399.62 360.373 388.749 357.42 388.749 357.42" fill="#8FBFED"/>
<path d="M385.365 361.643C385.243 361.51 385.229 361.304 385.344 361.156C397.73 345.04 401.021 333.522 401.6 326.698C402.225 319.335 399.911 315.718 399.888 315.682C399.773 315.508 399.821 315.274 399.996 315.159C400.17 315.043 400.407 315.092 400.519 315.264C400.62 315.417 402.986 319.08 402.362 326.671C401.793 333.609 398.482 345.303 385.943 361.617C385.816 361.782 385.578 361.813 385.413 361.686C385.394 361.672 385.379 361.658 385.365 361.643Z" fill="#0061BF"/>
<path d="M347.975 367.303L627.627 367.303" stroke="#D8DEE6" stroke-width="1.18497"/>
<path d="M599.185 337.682L596.815 354.864L579.193 361.296L613.405 356.642L614.59 335.312" fill="#FFC6AD"/>
<path d="M594.17 350.606C593.08 350.979 593.872 351.731 592.046 353.927C590.222 356.123 579.425 360.364 574.333 361.897C569.408 363.379 570.474 367.625 572.151 367.625C572.151 367.625 596.677 367.625 598.622 367.625C600.566 367.625 601.979 366.052 603.483 366.052C603.891 366.052 604.734 365.768 604.971 366.062C605.341 366.517 605.304 367.625 605.304 367.625H614.28C615.288 367.625 615.879 366.979 615.811 366.229L614.846 353.489C614.846 353.489 603.885 354.978 600.799 354.077C599.552 353.712 600.859 352.76 600.336 352.237C599.812 351.714 595.259 350.235 594.17 350.606Z" fill="#292466"/>
<path d="M542.31 337.682L539.94 354.864L522.318 361.296L556.53 356.642L557.715 335.312" fill="#FFC6AD"/>
<path d="M538.477 350.606C537.387 350.979 538.177 351.731 536.353 353.927C534.528 356.123 523.731 360.364 518.64 361.897C513.714 363.379 514.781 367.625 516.458 367.625C516.458 367.625 540.984 367.625 542.928 367.625C544.874 367.625 546.286 366.052 547.79 366.052C548.198 366.052 549.04 365.768 549.278 366.062C549.648 366.517 549.611 367.625 549.611 367.625H558.586C559.595 367.625 560.185 366.979 560.116 366.229L559.151 353.489C559.151 353.489 548.19 354.978 545.104 354.077C543.857 353.712 545.164 352.76 544.641 352.237C544.117 351.714 539.566 350.235 538.477 350.606Z" fill="#292466"/>
<path d="M607.842 202.023C607.842 202.023 617.552 306.779 617.552 344.791C602.654 344.791 597.763 344.791 592.075 344.791C592.075 336.403 571.434 230.618 571.434 230.618C571.434 230.618 560.473 266.822 557.341 269.445C557.341 269.445 560.674 335.311 561.267 343.606C553.412 343.606 550.009 343.606 538.751 343.606C538.751 319.906 519.201 296.799 525.5 265.772C525.5 265.772 532.286 231.668 544.03 198.874L573 191.791L607.842 202.023Z" fill="#3A67B3"/>
<path d="M528.376 123.53C528.376 123.53 527.495 109.179 526.712 105.467C525.93 101.755 523.189 109.014 523.189 109.014C523.189 109.014 521.428 99.6934 519.568 99.6111C517.709 99.5287 517.219 102.498 517.219 102.498C517.219 102.498 514.772 97.0543 513.206 101.343C513.206 101.343 510.27 99.034 510.172 105.055C510.172 105.055 501.364 99.3641 512.456 129.14L522.406 131.944L528.376 123.53Z" fill="#FFC6AD"/>
<path d="M583.705 123.85L610.587 158.742L607.846 202.029L544.035 198.88L554.214 139.459L583.705 123.85Z" fill="#80BFFE"/>
<path d="M583.708 123.849C569.053 114.901 559.697 120.964 543.125 140.771C543.125 140.771 531.772 131.589 528.379 121.751L512.459 128.44C512.459 128.44 520.811 170.94 555.522 170.285C573.121 145.716 601.813 134.904 583.708 123.849Z" fill="#5BA7F4"/>
<path d="M554.477 158.696L542.356 161.055C541.156 161.288 540.42 162.513 540.772 163.689L548.051 188.004C548.359 189.034 549.399 189.656 550.447 189.437L562.688 186.878C563.878 186.629 564.597 185.404 564.239 184.236L556.841 160.121C556.531 159.109 555.511 158.495 554.477 158.696Z" fill="white"/>
<path d="M550.018 189.905C548.94 189.905 547.972 189.206 547.649 188.128L540.37 163.812C540.169 163.137 540.26 162.404 540.623 161.801C540.986 161.198 541.588 160.775 542.275 160.641L554.397 158.282C555.641 158.046 556.868 158.777 557.243 159.998L564.641 184.112C564.846 184.783 564.759 185.514 564.405 186.117C564.05 186.721 563.455 187.149 562.773 187.291L550.532 189.851C550.36 189.888 550.186 189.905 550.018 189.905ZM554.871 159.081C554.768 159.081 554.663 159.091 554.558 159.112L542.436 161.471C541.98 161.559 541.581 161.838 541.341 162.237C541.097 162.643 541.038 163.115 541.174 163.568L548.452 187.883C548.7 188.71 549.525 189.198 550.362 189.025L562.602 186.465C563.06 186.369 563.444 186.093 563.681 185.688C563.921 185.283 563.975 184.811 563.837 184.361L556.44 160.247C556.223 159.543 555.58 159.081 554.871 159.081Z" fill="#3A67B3"/>
<path d="M548.838 162.567C547.629 162.764 546.77 163.677 546.919 164.607C547.069 165.537 548.171 166.131 549.38 165.934C550.59 165.738 551.449 164.824 551.299 163.895C551.15 162.965 550.048 162.371 548.838 162.567Z" fill="#3A67B3"/>
<path d="M576.399 171.595C576.399 171.595 551.377 167.397 549.615 168.676C547.854 169.955 551.475 172.021 551.475 172.021C551.475 172.021 545.211 171.332 548.832 174.874C548.832 174.874 545.7 177.038 552.257 180.58C552.257 180.58 542.308 184.876 580.313 193.107L591.111 183.531L576.399 171.595Z" fill="#FFC6AD"/>
<path d="M583.708 123.85C583.708 123.85 621.289 129.359 626.77 168.711C626.77 168.711 634.6 208.062 580.315 193.109L576.4 171.596C576.4 171.596 593.703 177.285 602.76 172.384C611.04 167.902 583.708 123.85 583.708 123.85Z" fill="#5BA7F4"/>
<path d="M576.042 113.924L575.452 124.162C575.26 127.485 577.769 130.329 581.075 130.522C584.368 130.714 587.199 128.18 587.391 124.858L587.981 114.619L576.042 113.924Z" fill="#FFC6AD"/>
<path d="M575.938 115.686L575.457 124.025C580.966 122.77 583.85 116.577 583.85 116.577L575.938 115.686Z" fill="#E9A182"/>
<path d="M572.853 99.8477C572.853 99.8477 567.777 117.788 575.338 118.701C582.899 119.614 586.787 115.778 586.787 115.778L588.883 105.506L583.699 100.858L572.853 99.8477Z" fill="#FFC6AD"/>
<path d="M586.747 112.775C586.544 108.644 585.546 105.361 582.966 103.767C582.676 103.588 581.432 103.849 581.044 103.849C580.266 103.849 579.489 103.811 578.716 103.728C577.168 103.562 575.592 103.233 574.19 102.531C571.519 101.193 569.731 97.3897 571.827 94.7139C572.24 94.1871 572.874 93.7139 573.543 93.5801C573.543 93.5801 573.661 96.4218 577.719 95.7367C581.777 95.052 591.13 90.5653 593.264 102.453C593.264 102.453 599.967 110.923 589.497 113.998L586.747 112.775Z" fill="#292466"/>
<path d="M590.409 111.062C589.299 109.913 587.272 110.081 585.882 111.437C584.492 112.793 584.264 114.824 585.374 115.974C586.483 117.123 588.51 116.955 589.9 115.599C591.291 114.243 591.518 112.211 590.409 111.062Z" fill="#FFC6AD"/>
<path opacity="0.15" d="M91.4264 364.768C41.1839 364.768 0.4543 356.649 0.4543 346.634C0.4543 336.619 41.1839 328.5 91.4264 328.5C141.669 328.5 182.398 336.619 182.398 346.634C182.398 356.649 141.669 364.768 91.4264 364.768Z" fill="#FF7300"/>
<path d="M76.6177 213.256C78.3951 212.664 81.7998 212.665 86.691 212.664C97.9471 212.661 95.1703 220.583 95.1703 220.583C97.5571 225.139 94.1664 231.668 94.1664 231.668H86.0765H86.0078H77.9179C77.9179 231.668 74.527 225.139 76.9138 220.583C76.9551 220.504 77.0069 220.437 77.0508 220.361C73.6552 218.589 74.8402 213.849 76.6177 213.256Z" fill="#202F87"/>
<path d="M39.2088 308.693H139.375V331.113H39.2088V308.693Z" fill="#507FCE"/>
<path d="M53.6854 326.032V343.819H131.508C133.086 343.819 134.627 343.374 135.965 342.536C141.992 338.758 157.721 327.013 148.043 312.297C146.162 309.437 142.725 308.015 139.376 308.692L53.6854 326.032Z" fill="#264B89"/>
<path d="M131.387 361.42L133.635 351.17L115.872 343.834L112.785 357.911L131.387 361.42Z" fill="#FFCBC2"/>
<path d="M116.358 359.818L42.252 344.199C40.7095 343.866 37.3235 342.296 36.1915 341.194C31.093 336.229 18.1814 321.426 30.7316 309.083C33.171 306.684 36.8294 306.019 39.9614 307.389L120.092 342.43" fill="#3A67B3"/>
<path d="M138.176 366.527C137.921 367.689 136.656 368.293 135.581 367.791C131.281 365.782 128.789 360.99 129.851 356.151C130.912 351.312 135.18 348.01 139.923 347.996C141.109 347.993 142.004 349.074 141.749 350.235L138.176 366.527Z" fill="#FBA661"/>
<path d="M43.1195 306.255L42.265 305.975C38.3643 304.696 36.2358 300.489 37.5108 296.577L44.8741 273.551L59.1719 280.932L52.491 301.487C51.2158 305.399 47.0201 307.534 43.1195 306.255Z" fill="#F2BFB7"/>
<path d="M76.7518 317.031L40.6557 305.492C37.9019 304.612 36.4468 301.596 37.4674 298.885C39.0001 294.813 48.601 294.102 52.6617 295.639L79.1582 310.637L76.7518 317.031Z" fill="#F2BFB7"/>
<path d="M130.768 306.255L131.622 305.975C135.523 304.696 137.651 300.489 136.376 296.577L129.013 273.551L114.715 280.932L121.396 301.487C122.671 305.399 126.867 307.534 130.768 306.255Z" fill="#F2BFB7"/>
<path d="M97.135 317.031L133.231 305.492C135.985 304.612 137.44 301.596 136.419 298.885C134.887 294.813 125.286 294.102 121.225 295.639L94.7286 310.637L97.135 317.031Z" fill="#F2BFB7"/>
<path d="M78.9855 257.103L93.2051 255.86L92.0745 239.328H80.7505L78.9855 257.103Z" fill="#F2BFB7"/>
<path d="M42.2492 273.227L48.9271 260.218C53.4922 251.325 62.5836 246.296 71.9265 246.498C72.777 246.365 79.2791 246.438 80.1692 246.438C80.1692 246.438 81.6006 253.738 86.7629 253.671C91.7671 253.606 92.6114 246.438 92.6114 246.438C93.4998 246.438 100.307 246.365 101.156 246.497C110.376 246.426 119.3 251.435 123.808 260.218L130.486 273.227L113.714 281.886L112.239 317.654C112.195 318.726 111.316 319.572 110.247 319.572H62.84C61.7706 319.572 60.8918 318.726 60.8475 317.654L59.3806 282.071L42.2492 273.227Z" fill="url(#paint4_linear_15142_38586)"/>
<path d="M78.7158 230.436L78.8305 230.394C79.6009 230.114 80.0906 229.354 80.0278 228.534L79.8923 226.766C79.7894 225.426 80.8463 224.281 82.1871 224.281H90.3179C91.6208 224.281 92.664 225.365 92.6182 226.671L92.543 228.816C92.517 229.557 92.9841 230.226 93.6876 230.454C93.7483 230.449 93.8067 230.436 93.8687 230.436C95.0534 230.436 96.0137 231.399 96.0137 232.587C96.0137 233.775 95.0533 234.738 93.8687 234.738C93.8067 234.738 93.7483 234.725 93.6876 234.72V234.968C93.6876 239.114 90.336 242.475 86.2018 242.475C82.0676 242.475 78.716 239.114 78.716 234.968V234.738C77.5313 234.738 76.5711 233.775 76.5711 232.587C76.5709 231.399 77.5313 230.436 78.7158 230.436Z" fill="#FFCBC2"/>
<path d="M62.7716 321.255H111.684C112.605 321.255 113.374 320.552 113.459 319.633L117.174 279.457C117.271 278.409 116.448 277.504 115.399 277.504H58.3503C57.2883 277.504 56.4618 278.429 56.5782 279.488L60.9995 319.664C61.0993 320.569 61.8627 321.255 62.7716 321.255Z" fill="#BBE0F8"/>
<path d="M86.8643 304.364C84.1206 304.364 81.8965 302.134 81.8965 299.382C81.8965 296.631 84.1206 294.4 86.8643 294.4C89.6079 294.4 91.832 296.631 91.832 299.382C91.832 302.134 89.6079 304.364 86.8643 304.364Z" fill="#72C4F4"/>
<g filter="url(#filter3_d_15142_38586)">
<path d="M273.294 332.334L249.526 290.786C249.132 290.06 248.312 289.865 247.585 290.259L223.475 303.568L221.526 317.132L240.085 350.017C240.833 351.36 242.513 351.858 243.857 351.11L272.711 334.795C273.506 334.25 273.839 333.13 273.294 332.334Z" fill="white"/>
</g>
<path d="M223.477 303.569L229.052 313.219L221.528 317.133L223.477 303.569Z" fill="#D8DEE6"/>
<path d="M232.849 309.687C232.959 309.646 232.959 309.646 233.068 309.605L247.613 301.092C247.832 301.011 247.929 300.601 247.848 300.382C247.767 300.163 247.357 300.065 247.138 300.147L232.593 308.66C232.374 308.741 232.277 309.151 232.358 309.37C232.37 309.74 232.63 309.768 232.849 309.687Z" fill="#D8DEE6"/>
<path d="M229.818 320.664C229.927 320.623 229.927 320.623 230.037 320.583L251.217 308.112C251.436 308.03 251.533 307.62 251.452 307.401C251.37 307.182 250.96 307.085 250.741 307.166L229.561 319.637C229.342 319.718 229.245 320.128 229.326 320.348C229.339 320.717 229.598 320.745 229.818 320.664Z" fill="#D8DEE6"/>
<path d="M235.068 329.439C235.177 329.399 235.177 329.399 235.287 329.358L256.467 316.887C256.686 316.806 256.783 316.396 256.702 316.177C256.62 315.957 256.21 315.86 255.991 315.942L234.811 328.412C234.592 328.494 234.495 328.904 234.576 329.123C234.658 329.342 234.848 329.521 235.068 329.439Z" fill="#D8DEE6"/>
<path d="M239.693 337.195C239.802 337.155 239.802 337.155 239.912 337.114L261.092 324.643C261.311 324.562 261.408 324.152 261.327 323.932C261.245 323.713 260.835 323.616 260.616 323.697L239.436 336.168C239.217 336.25 239.12 336.66 239.201 336.879C239.214 337.248 239.473 337.277 239.693 337.195Z" fill="#D8DEE6"/>
<path d="M243.435 343.912C243.544 343.871 243.544 343.871 243.654 343.831L264.834 331.36C265.053 331.279 265.15 330.868 265.069 330.649C264.988 330.43 264.577 330.333 264.358 330.414L243.179 342.885C242.959 342.966 242.862 343.377 242.943 343.596C242.915 343.856 243.175 343.884 243.435 343.912Z" fill="#D8DEE6"/>
<defs>
<filter id="filter0_d_15142_38586" x="43.2285" y="13.4853" width="389.08" height="312.059" filterUnits="userSpaceOnUse" color-interpolation-filters="sRGB">
<feFlood flood-opacity="0" result="BackgroundImageFix"/>
<feColorMatrix in="SourceAlpha" type="matrix" values="0 0 0 0 0 0 0 0 0 0 0 0 0 0 0 0 0 0 127 0" result="hardAlpha"/>
<feOffset dy="14.9151"/>
<feGaussianBlur stdDeviation="14.9151"/>
<feComposite in2="hardAlpha" operator="out"/>
<feColorMatrix type="matrix" values="0 0 0 0 0.117647 0 0 0 0 0.129412 0 0 0 0 0.176471 0 0 0 0.06 0"/>
<feBlend mode="normal" in2="BackgroundImageFix" result="effect1_dropShadow_15142_38586"/>
<feBlend mode="normal" in="SourceGraphic" in2="effect1_dropShadow_15142_38586" result="shape"/>
</filter>
<filter id="filter1_d_15142_38586" x="384.502" y="79.8427" width="203.041" height="250.44" filterUnits="userSpaceOnUse" color-interpolation-filters="sRGB">
<feFlood flood-opacity="0" result="BackgroundImageFix"/>
<feColorMatrix in="SourceAlpha" type="matrix" values="0 0 0 0 0 0 0 0 0 0 0 0 0 0 0 0 0 0 127 0" result="hardAlpha"/>
<feOffset dy="14.9151"/>
<feGaussianBlur stdDeviation="14.9151"/>
<feComposite in2="hardAlpha" operator="out"/>
<feColorMatrix type="matrix" values="0 0 0 0 0.117647 0 0 0 0 0.129412 0 0 0 0 0.176471 0 0 0 0.06 0"/>
<feBlend mode="normal" in2="BackgroundImageFix" result="effect1_dropShadow_15142_38586"/>
<feBlend mode="normal" in="SourceGraphic" in2="effect1_dropShadow_15142_38586" result="shape"/>
</filter>
<filter id="filter2_d_15142_38586" x="384.502" y="13.4853" width="203.041" height="114.168" filterUnits="userSpaceOnUse" color-interpolation-filters="sRGB">
<feFlood flood-opacity="0" result="BackgroundImageFix"/>
<feColorMatrix in="SourceAlpha" type="matrix" values="0 0 0 0 0 0 0 0 0 0 0 0 0 0 0 0 0 0 127 0" result="hardAlpha"/>
<feOffset dy="14.9151"/>
<feGaussianBlur stdDeviation="14.9151"/>
<feComposite in2="hardAlpha" operator="out"/>
<feColorMatrix type="matrix" values="0 0 0 0 0.117647 0 0 0 0 0.129412 0 0 0 0 0.176471 0 0 0 0.06 0"/>
<feBlend mode="normal" in2="BackgroundImageFix" result="effect1_dropShadow_15142_38586"/>
<feBlend mode="normal" in="SourceGraphic" in2="effect1_dropShadow_15142_38586" result="shape"/>
</filter>
<filter id="filter3_d_15142_38586" x="179.929" y="264.061" width="135.229" height="144.592" filterUnits="userSpaceOnUse" color-interpolation-filters="sRGB">
<feFlood flood-opacity="0" result="BackgroundImageFix"/>
<feColorMatrix in="SourceAlpha" type="matrix" values="0 0 0 0 0 0 0 0 0 0 0 0 0 0 0 0 0 0 127 0" result="hardAlpha"/>
<feOffset dy="15.5985"/>
<feGaussianBlur stdDeviation="20.798"/>
<feComposite in2="hardAlpha" operator="out"/>
<feColorMatrix type="matrix" values="0 0 0 0 0.117647 0 0 0 0 0.129412 0 0 0 0 0.176471 0 0 0 0.09 0"/>
<feBlend mode="normal" in2="BackgroundImageFix" result="effect1_dropShadow_15142_38586"/>
<feBlend mode="normal" in="SourceGraphic" in2="effect1_dropShadow_15142_38586" result="shape"/>
</filter>
<linearGradient id="paint0_linear_15142_38586" x1="612.188" y1="78.1292" x2="594.766" y2="78.1292" gradientUnits="userSpaceOnUse">
<stop stop-color="#FAB882"/>
<stop offset="1" stop-color="#FF7300"/>
</linearGradient>
<linearGradient id="paint1_linear_15142_38586" x1="597.194" y1="55.2551" x2="580.899" y2="55.2551" gradientUnits="userSpaceOnUse">
<stop stop-color="#FAB882"/>
<stop offset="1" stop-color="#FF7300"/>
</linearGradient>
<linearGradient id="paint2_linear_15142_38586" x1="584.386" y1="104.427" x2="568.986" y2="104.427" gradientUnits="userSpaceOnUse">
<stop stop-color="#FAB882"/>
<stop offset="1" stop-color="#FF7300"/>
</linearGradient>
<linearGradient id="paint3_linear_15142_38586" x1="397.753" y1="-59.1048" x2="221.594" y2="383.696" gradientUnits="userSpaceOnUse">
<stop stop-color="#FF7300"/>
<stop offset="1" stop-color="#FF7300" stop-opacity="0"/>
</linearGradient>
<linearGradient id="paint4_linear_15142_38586" x1="42.2798" y1="283.413" x2="130.566" y2="283.413" gradientUnits="userSpaceOnUse">
<stop stop-color="#FAB882"/>
<stop offset="1" stop-color="#FF7300"/>
</linearGradient>
</defs>
</svg>
