<svg width="520" height="520" viewBox="0 0 520 520" fill="none" xmlns="http://www.w3.org/2000/svg">
<circle cx="260" cy="260" r="260" transform="matrix(-1 0 0 1 520 0)" fill="url(#paint0_linear_15064_27231)"/>
<path d="M91.1702 451H496.83C498.567 451 500 449.644 500 448C500 446.356 498.567 445 496.83 445H91.1702C89.4331 445 88 446.356 88 448C88 449.644 89.4331 451 91.1702 451Z" fill="#FFF1EA"/>
<path d="M212.843 124.965C213.4 126.767 202.719 130.549 199.648 131.483C196.6 132.418 193.284 133.107 192.661 131.083C192.038 129.058 195.198 127.79 198.246 126.878C201.295 125.944 212.287 123.141 212.843 124.965Z" fill="#FAC7AF"/>
<path d="M210.705 126.142C211.818 128.077 214.844 125.741 215.979 125.007C217.447 124.051 216.735 121.737 216.224 121.07C215.69 120.402 213.998 122.627 213.754 122.582C213.509 122.538 215.155 120.736 214.599 120.135C214.043 119.557 211.528 121.67 210.861 122.872C210.171 124.095 209.993 124.941 210.705 126.142Z" fill="#FAC7AF"/>
<path d="M210.839 122.896C211.506 121.673 214.021 119.559 214.577 120.16C215.133 120.738 213.464 122.54 213.731 122.607L210.416 123.853C210.527 123.519 210.661 123.23 210.839 122.896Z" fill="#FAC7AF"/>
<path d="M214.652 38H212.887V166.789H214.652V38Z" fill="url(#paint1_linear_15064_27231)"/>
<path d="M241.115 237.936C244.852 237.405 248.304 236.079 251.286 234.141L255.187 261.907C255.779 266.171 252.818 270.108 248.549 270.7L220.854 274.597C222.713 277.534 224 280.88 224.51 284.532C226.451 298.303 216.831 311.033 203.045 312.971C189.259 314.91 176.514 305.301 174.574 291.53C174.064 287.878 174.37 284.308 175.35 280.982L147.656 284.879C143.387 285.471 139.445 282.512 138.853 278.248L124.679 177.466C124.087 173.202 127.048 169.265 131.317 168.673L232.21 154.515C236.479 153.923 240.42 156.881 241.013 161.145L244.914 188.911C241.503 187.85 237.827 187.544 234.089 188.054C220.303 189.993 210.683 202.723 212.624 216.514C214.564 230.285 227.329 239.874 241.115 237.936Z" fill="url(#paint2_linear_15064_27231)"/>
<path opacity="0.2" d="M91.9487 235.625H93.4182C93.4182 239.895 96.8965 243.355 101.186 243.355V244.818C96.8955 244.818 93.4182 248.279 93.4182 252.549H91.9487C91.9487 248.279 88.4705 244.818 84.1797 244.818V243.355C88.4705 243.355 91.9487 239.894 91.9487 235.625Z" fill="url(#paint3_linear_15064_27231)"/>
<path d="M78.4067 214H78.7743C78.7743 218.27 82.2525 221.731 86.5424 221.731V222.097C82.2516 222.097 78.7733 225.558 78.7733 229.828H78.4057C78.4057 225.558 74.9275 222.097 70.6367 222.097V221.731C74.9284 221.731 78.4067 218.27 78.4067 214Z" fill="url(#paint4_linear_15064_27231)"/>
<path opacity="0.2" d="M66.5164 262.12C66.5164 266.251 69.8815 269.6 74.0328 269.6C69.8815 269.6 66.5164 272.949 66.5164 277.08C66.5164 272.949 63.1513 269.6 59 269.6C63.1513 269.599 66.5164 266.251 66.5164 262.12Z" fill="url(#paint5_linear_15064_27231)"/>
<path d="M406.164 234.901C406.231 232.898 421.073 232.876 425.256 233.01C429.439 233.165 433.845 233.633 433.756 235.879C433.667 238.126 429.239 238.282 425.056 238.126C420.895 237.993 406.098 236.903 406.164 234.901Z" fill="#FAC7AF"/>
<path d="M409.991 234.945C410.08 237.325 405.874 237.014 404.428 236.836C402.092 236.569 400.289 233.632 400.378 232.72C400.467 231.808 405.184 233.276 405.362 233.099C405.563 232.898 402.87 232.587 403.048 231.741C403.226 230.896 406.675 231.386 407.988 232.097C409.301 232.787 409.946 233.454 409.991 234.945Z" fill="#FAC7AF"/>
<path d="M318.115 265.553C316.891 269.491 316.58 273.495 317.114 277.344L287.92 268.245C283.447 266.843 280.933 262.083 282.335 257.611L291.391 228.513C287.631 228.98 283.737 228.691 279.887 227.49C265.401 222.974 257.324 207.579 261.841 193.097C266.358 178.614 281.756 170.539 296.242 175.055C300.091 176.256 303.451 178.236 306.277 180.75L315.334 151.652C316.735 147.18 321.497 144.666 325.97 146.068L431.953 179.059C436.426 180.461 438.94 185.222 437.538 189.693L404.539 295.652C403.138 300.124 398.376 302.638 393.903 301.236L364.709 292.137C367.335 289.268 369.36 285.797 370.584 281.882C375.101 267.399 367.001 252.005 352.516 247.489C338.03 242.995 322.632 251.071 318.115 265.553Z" fill="url(#paint6_linear_15064_27231)"/>
<path d="M278.885 354.716C274.769 354.716 270.852 355.628 267.337 357.275V326.686C267.337 321.992 271.142 318.188 275.837 318.188H306.321C304.764 314.74 303.874 310.936 303.874 306.909C303.874 291.737 316.179 279.457 331.332 279.457C346.507 279.457 358.79 291.759 358.79 306.909C358.79 310.936 357.9 314.74 356.342 318.188H386.827C391.522 318.188 395.327 321.992 395.327 326.686V437.651C395.327 442.345 391.522 446.149 386.827 446.149H275.815C271.119 446.149 267.314 442.345 267.314 437.651V407.084C270.83 408.73 274.746 409.643 278.863 409.643C294.038 409.643 306.343 397.34 306.343 382.168C306.366 366.996 294.061 354.716 278.885 354.716Z" fill="url(#paint7_linear_15064_27231)"/>
<path d="M108.574 406.73C111.867 406.618 113.046 388.31 112.957 380.523C112.846 372.715 111.311 366.597 107.305 366.731C103.3 366.864 102.143 373.071 102.543 380.857C102.944 388.621 105.28 406.819 108.574 406.73Z" fill="#FAC7AF"/>
<path d="M119.054 404.817C122.347 404.706 123.527 386.397 123.438 378.611C123.326 370.803 121.791 364.685 117.786 364.819C113.78 364.952 112.623 371.159 113.024 378.945C113.424 386.731 115.783 404.929 119.054 404.817Z" fill="#FAC7AF"/>
<path d="M116.251 443.327L116.117 446.241C116.117 446.664 116.451 446.997 116.874 446.997H124.751C125.463 446.997 125.774 446.085 125.196 445.663C124.016 444.773 122.348 443.749 120.812 443.46C120.679 443.438 119.566 418.789 118.365 418.789C117.274 418.767 116.251 443.327 116.251 443.327Z" fill="#FAC7AF"/>
<path d="M118.187 444.373C121.102 444.373 121.903 418.612 121.903 412.828C121.903 407.043 121.458 400.926 118.187 400.926C114.916 400.926 114.471 407.043 114.471 412.828C114.471 418.612 115.272 444.373 118.187 444.373Z" fill="#FAC7AF"/>
<path d="M116.117 443.86V446.596C116.117 446.863 116.34 447.086 116.607 447.086H125.418C126.197 447.086 126.509 446.107 125.908 445.64C124.617 444.683 122.57 443.726 121.057 442.992C120.701 443.304 120.145 444.283 119.522 444.416C118.899 444.549 116.117 443.86 116.117 443.86Z" fill="url(#paint8_linear_15064_27231)"/>
<path d="M103.232 444.573C103.232 444.573 103.232 444.706 103.232 444.929V447.331C103.232 447.576 103.811 448.666 104.367 448.888C106.348 449.734 110.153 449.222 110.308 448.555C110.464 447.865 109.396 446.375 108.551 445.307C107.994 444.617 107.549 444.105 107.549 444.105C107.549 444.105 106.481 420.191 105.346 420.213C104.1 420.257 103.232 444.573 103.232 444.573Z" fill="#FAC7AF"/>
<path d="M105.168 445.663C108.083 445.93 110.731 420.324 111.265 414.562C111.799 408.8 111.91 402.661 108.639 402.371C105.391 402.082 104.389 408.111 103.855 413.895C103.321 419.657 102.253 445.396 105.168 445.663Z" fill="#FAC7AF"/>
<path d="M103.232 444.951V447.354C103.232 447.599 103.811 448.689 104.367 448.911C106.348 449.756 110.153 449.245 110.308 448.577C110.464 447.888 109.396 446.397 108.551 445.329C108.15 444.973 106.058 445.174 105.702 445.352C105.346 445.53 104.523 446.019 104.367 445.997C104.167 445.93 103.232 444.951 103.232 444.951Z" fill="url(#paint9_linear_15064_27231)"/>
<path d="M175.484 346.687C175.528 344.596 160.086 343.64 155.724 343.528C151.363 343.417 146.735 343.64 146.69 345.998C146.623 348.356 151.229 348.779 155.591 348.89C159.952 349.001 175.439 348.779 175.484 346.687Z" fill="#FAC7AF"/>
<path d="M152.32 348.066C153.433 345.997 141.973 338.455 136.878 335.63C131.782 332.805 127.243 331.47 125.908 334.006C124.55 336.542 128.177 339.545 133.384 342.193C138.569 344.84 151.23 350.135 152.32 348.066Z" fill="#FAC7AF"/>
<path d="M171.568 346.309C170.967 348.645 175.061 349.135 176.485 349.424C178.332 349.802 179.556 347.466 179.667 346.554C179.778 345.642 176.774 346.087 176.619 345.842C176.463 345.62 179.111 345.486 179.133 344.596C179.133 343.729 175.617 343.462 174.171 343.884C172.725 344.329 171.946 344.841 171.568 346.309Z" fill="#FAC7AF"/>
<path d="M174.171 343.906C175.617 343.483 179.155 343.75 179.133 344.618C179.133 345.485 176.463 345.619 176.618 345.864L173.125 344.306C173.414 344.151 173.77 344.017 174.171 343.906Z" fill="#FAC7AF"/>
<path d="M179.6 346.311C179.355 345.933 178.443 345.688 177.909 345.71C177.375 345.733 176.774 346.556 176.329 347.357C175.884 348.157 177.619 349.203 177.619 349.203L178.843 347.979L179.6 346.311Z" fill="#FAC7AF"/>
<path d="M122.346 327.732L122.903 332.026L125.573 330.758L126.374 330.357C126.374 330.357 129.623 331.959 130.735 332.493C131.848 333.027 141.015 336.942 149.115 342.571C149.115 342.571 167.361 343.861 168.407 344.039C169.453 344.217 169.942 344.551 169.942 344.551L171.455 344.773V348.844H169.831C169.831 348.844 168.585 349.712 166.048 349.779C163.512 349.845 153.142 350.068 148.403 348.911C143.663 347.754 130.157 343.883 130.157 343.883L117.985 340.791L115.471 329.401L122.346 327.732Z" fill="#5BA7F4"/>
<path d="M231.378 329.872C231.378 325.756 230.466 321.841 228.819 318.326H259.392C264.087 318.326 267.892 322.13 267.892 326.824V357.302C271.341 355.745 275.146 354.855 279.174 354.855C294.349 354.855 306.632 367.157 306.632 382.307C306.632 397.479 294.327 409.759 279.174 409.759C275.146 409.759 271.341 408.869 267.892 407.312V437.789C267.892 442.483 264.087 446.287 259.392 446.287H148.402C143.707 446.287 139.902 442.483 139.902 437.789V326.824C139.902 322.13 143.707 318.326 148.402 318.326H178.976C177.329 321.841 176.417 325.756 176.417 329.872C176.417 345.044 188.722 357.346 203.897 357.346C219.073 357.346 231.378 345.044 231.378 329.872Z" fill="url(#paint10_linear_15064_27231)"/>
<path d="M102.833 373.628L121.925 370.514L127.287 343.128L129.846 333.095L121.48 327.089L115.316 326.51C111.823 326.177 109.508 328.335 108.641 331.738C108.641 331.738 103.456 350.025 102.967 356.209C102.232 365.775 102.833 373.628 102.833 373.628Z" fill="#FFC6AD"/>
<path d="M121.324 322.955L119.633 327.582C119.633 327.582 120.656 329.874 123.527 330.697C125.084 331.142 125.641 330.519 125.641 330.519L126.264 328.361L121.324 322.955Z" fill="#FFC6AD"/>
<path d="M129.714 319.68C130.271 320.014 129.915 322.061 129.826 322.016C129.714 321.972 129.803 320.303 129.358 319.903C128.891 319.524 129.714 319.68 129.714 319.68Z" fill="#F3B59C"/>
<path d="M131.895 320.414C131.45 320.726 131.294 322.238 131.272 322.372C131.25 322.505 131.94 320.681 131.94 320.681L131.895 320.414Z" fill="#F3B59C"/>
<path d="M127.2 319.035L127.133 319.258C127.133 319.258 129.625 319.992 129.647 319.969C129.669 319.947 129.803 319.769 129.736 319.68C129.358 319.146 127.2 319.035 127.2 319.035Z" fill="#424042"/>
<path d="M133.697 320.926L133.63 321.171C133.63 321.171 131.895 320.659 131.895 320.637C131.872 320.637 131.895 320.392 131.984 320.347C132.407 320.036 133.697 320.926 133.697 320.926Z" fill="#424042"/>
<path d="M127.666 320.857C127.577 321.124 127.755 321.414 128.022 321.503C128.289 321.592 128.578 321.414 128.667 321.147C128.756 320.88 128.578 320.591 128.311 320.502C128.022 320.413 127.732 320.568 127.666 320.857Z" fill="#424042"/>
<path d="M127.244 320.304C127.533 320.238 127.956 320.193 128.357 320.327C128.779 320.438 129.091 320.705 129.314 320.927L127.244 320.304Z" fill="#424042"/>
<path d="M131.783 322.063C131.694 322.33 131.872 322.619 132.139 322.708C132.406 322.797 132.695 322.619 132.784 322.352C132.873 322.085 132.695 321.796 132.428 321.707C132.139 321.618 131.85 321.773 131.783 322.063Z" fill="#424042"/>
<path d="M131.672 321.595C131.894 321.506 132.184 321.439 132.473 321.506C132.762 321.595 132.962 321.817 133.118 321.995L131.672 321.595Z" fill="#424042"/>
<path d="M130.071 324.285C129.582 324.129 129.181 323.974 129.137 324.107C129.092 324.241 129.448 324.53 129.96 324.663C130.449 324.819 130.917 324.752 130.961 324.619C130.983 324.508 130.561 324.441 130.071 324.285Z" fill="#E0BD95"/>
<path d="M129.469 326.33C129.113 326.219 128.823 326.107 128.779 326.196C128.757 326.308 128.979 326.619 129.357 326.708C129.713 326.819 130.092 326.664 130.114 326.575C130.136 326.486 129.847 326.441 129.469 326.33Z" fill="#F3B59C"/>
<path d="M131.404 326.019C131.449 326.042 131.493 326.086 131.493 326.131C131.493 326.197 131.449 326.242 131.382 326.242C131.337 326.242 130.447 326.242 129.602 325.997C128.756 325.753 127.977 325.263 127.933 325.241C127.866 325.196 127.866 325.13 127.888 325.085C127.933 325.018 128 325.018 128.044 325.041C128.044 325.041 128.845 325.53 129.646 325.753C130.447 325.975 131.337 325.997 131.36 325.997C131.382 325.997 131.382 326.019 131.404 326.019Z" fill="#F3B59C"/>
<path d="M121.924 318.41C121.879 318.633 121.835 318.833 121.79 319.011C121.768 319.078 121.746 319.144 121.724 319.211C120.567 322.615 121.724 326.975 124.906 328.443C124.906 328.443 124.928 328.466 124.972 328.488C124.995 328.488 125.039 328.51 125.084 328.532C125.773 328.822 128.288 329.8 129.534 329.022C131.003 328.11 132.627 326.152 133.072 324.639C133.517 323.104 133.339 322.659 133.517 322.037C133.65 321.547 134.362 320.123 134.54 319.456C135.453 316.386 134.273 312.715 130.58 311.647C125.084 310.046 122.836 314.651 121.924 318.41Z" fill="#FFC6AD"/>
<path d="M124.372 319.458C124.928 318.368 126.108 318.124 126.909 317.301C127.243 316.945 127.287 316.544 127.487 316.099C128.177 314.497 129.534 315.098 130.847 315.61C131.604 315.899 132.316 316.411 133.117 316.633C134.341 316.989 135.587 316.522 136.722 316.077C137.745 315.699 138.279 315.076 138.19 313.919C138.146 313.296 137.834 312.718 137.278 312.406C136.766 312.117 136.254 312.184 135.676 312.206C134.897 312.251 134.652 311.939 134.118 311.405C133.651 310.938 133.228 310.404 132.583 310.271C132.049 310.159 131.559 310.337 131.025 310.337C130.425 310.337 130.002 310.093 129.49 309.804C125.485 307.601 122.147 312.562 121.101 315.832C120.256 318.457 120.434 321.194 120.99 323.841L123.504 319.347L124.372 319.458Z" fill="#1E1A57"/>
<path d="M123.526 318.921C123.125 318.698 122.191 318.031 121.924 319.61C121.479 322.369 123.081 322.636 123.081 322.636C123.103 322.235 123.103 321.657 123.17 321.012C123.659 320.878 123.214 320.389 123.281 320.078C123.281 320.011 123.303 319.944 123.303 319.877C123.37 319.588 123.437 319.277 123.526 318.921Z" fill="#FFC6AD"/>
<path d="M123.346 319.902C123.346 319.902 122.99 319.279 122.568 319.368C122.145 319.457 122.167 320.369 122.301 320.97C122.434 321.57 122.746 321.704 122.857 321.57C122.946 321.437 122.39 320.97 122.701 320.792C122.99 320.614 123.257 320.636 123.257 320.503C123.28 320.369 123.346 319.902 123.346 319.902Z" fill="#F4B9A0"/>
<path d="M124.839 318.1C124.528 318.789 124.35 319.546 124.149 320.258C124.038 320.658 123.971 321.103 123.816 321.481C123.727 321.681 123.593 322.371 123.348 322.393C122.97 322.438 123.282 320.48 123.304 320.213C123.326 320.08 123.348 318.567 123.46 318.522C123.46 318.545 124.839 318.1 124.839 318.1Z" fill="url(#paint11_linear_15064_27231)"/>
<path d="M126.931 329.136C125.24 328.735 123.482 326.444 123.081 325.532C122.681 324.62 122.903 322.617 122.903 322.617C122.903 322.617 122.391 322.551 122.169 321.928C122.169 321.928 121.969 322.773 122.213 323.151C122.458 323.529 122.658 323.641 122.658 323.885C122.681 324.108 122.302 326.844 123.46 327.979C124.639 329.091 126.931 329.136 126.931 329.136Z" fill="#F4B9A0"/>
<path d="M101.809 375.054C101.809 375.054 101.742 397.3 101.742 399.77C101.742 402.239 102.143 434.407 102.788 443.306C102.788 443.306 105.08 444.307 108.351 443.306C108.351 443.306 111.555 414.608 111.844 407.712C112.111 401.193 113.357 387.69 113.357 387.69C113.357 387.69 114.047 396.989 113.914 400.059C113.78 403.129 113.825 432.538 115.405 442.794C115.405 442.794 118.431 443.617 121.056 442.238C121.056 442.238 122.414 407.311 122.948 400.392C123.504 393.496 123.905 373.63 123.905 373.63L102.632 372.852L101.809 375.054Z" fill="#3A67B3"/>
<path d="M101.386 374.987C116.962 377.834 124.661 374.987 124.661 374.987C124.661 374.987 126.196 352.83 127.064 349.137C127.932 345.444 131.025 337.524 130.58 334.766C130.135 332.007 128.31 331.073 126.886 330.561C126.886 330.561 126.931 330.072 125.907 329.627L125.551 330.872L123.259 332.83L122.525 328.781L122.347 327.713L121.813 328.47C120.589 328.003 119.276 327.18 117.986 326.757C115.827 326.023 113.802 325.8 112.645 325.778C109.241 325.689 106.415 334.499 103.811 347.513C101.252 360.527 101.386 374.987 101.386 374.987Z" fill="#80BFFE"/>
<path d="M126.997 329.377L125.551 330.845L125.573 330.734L126.085 329.043L126.463 329.087L126.997 329.377Z" fill="url(#paint12_linear_15064_27231)"/>
<path d="M122.346 327.733L120.61 330.224C119.497 328.667 117.984 326.776 117.984 326.776L119.386 325.107L122.346 327.733Z" fill="url(#paint13_linear_15064_27231)"/>
<path d="M126.931 330.336L126.798 332.004L125.529 330.892L125.552 330.847L126.998 329.379L126.931 330.336Z" fill="url(#paint14_linear_15064_27231)"/>
<path d="M120.432 355.543C122.702 354.854 119.92 341.306 118.296 335.655C116.694 330.004 114.402 325.822 111.643 326.667C108.884 327.513 109.307 332.251 111.131 337.835C112.934 343.441 118.163 356.233 120.432 355.543Z" fill="#FAC7AF"/>
<path d="M146.934 356.477C147.156 354.386 131.847 352.139 127.508 351.65C123.169 351.182 118.541 350.982 118.296 353.34C118.029 355.676 122.591 356.499 126.93 356.989C131.269 357.434 146.711 358.546 146.934 356.477Z" fill="#FAC7AF"/>
<path d="M142.973 355.921C142.528 358.368 146.911 358.679 148.425 358.724C150.872 358.813 150.917 356.121 150.961 355.164C151.006 354.208 148.291 355.32 148.135 355.098C147.957 354.875 150.672 354.541 150.627 353.652C150.583 352.762 146.934 352.74 145.487 353.273C144.019 353.83 143.262 354.408 142.973 355.921Z" fill="#FAC7AF"/>
<path d="M112.535 325.801C109.019 326.046 108.04 329.427 109.064 333.387C110.087 337.324 115.65 353.231 118.298 355.833C120.946 358.436 139.147 358.992 140.371 358.748C141.595 358.503 141.818 357.991 141.818 357.991L143.353 357.836C143.353 357.836 144.488 355.166 143.153 354.054L141.417 353.698C141.417 353.698 140.772 352.919 139.504 352.741C138.235 352.563 122.926 350.583 122.926 350.583C122.926 350.583 119.766 337.324 118.654 333.632C117.519 329.939 116.095 325.556 112.535 325.801Z" fill="#5BA7F4"/>
<path d="M199.456 163.703C200.09 160.862 184.719 155.794 178.015 154.139C171.331 152.484 165.751 152.443 164.954 155.897C164.177 159.35 169.226 161.721 175.971 163.11C182.736 164.52 198.802 166.543 199.456 163.703Z" fill="#FAC7AF"/>
<path d="M196.695 171.264C197.594 168.505 182.735 162.048 176.214 159.8C169.694 157.552 164.155 157 163.051 160.372C161.968 163.744 166.771 166.543 173.373 168.546C179.975 170.549 195.795 174.022 196.695 171.264Z" fill="#FAC7AF"/>
<path d="M195.836 199.642L195.713 202.217C195.713 202.585 196.019 202.871 196.387 202.871H203.337C203.97 202.871 204.236 202.074 203.725 201.686C202.683 200.909 201.211 199.99 199.862 199.745C199.739 199.724 198.758 177.961 197.696 177.961C196.755 177.961 195.836 199.642 195.836 199.642Z" fill="#FAC7AF"/>
<path d="M197.552 200.585C200.128 200.585 200.843 177.841 200.843 172.732C200.843 167.623 200.455 162.229 197.552 162.229C194.65 162.229 194.262 167.623 194.262 172.732C194.262 177.841 194.977 200.585 197.552 200.585Z" fill="#FAC7AF"/>
<path d="M195.713 200.115V202.526C195.713 202.771 195.917 202.975 196.163 202.975H203.95C204.625 202.975 204.931 202.117 204.379 201.708C203.255 200.871 201.436 200.033 200.087 199.379C199.76 199.665 199.29 200.523 198.738 200.625C198.166 200.728 195.713 200.115 195.713 200.115Z" fill="url(#paint15_linear_15064_27231)"/>
<path d="M189.848 206.575C189.848 206.575 189.848 206.697 189.848 206.902V209.006C189.848 209.231 190.359 210.171 190.849 210.396C192.607 211.132 195.959 210.702 196.082 210.089C196.225 209.476 195.285 208.169 194.528 207.208C194.038 206.595 193.629 206.145 193.629 206.145C193.629 206.145 192.689 185.016 191.687 185.057C190.624 185.098 189.848 206.575 189.848 206.575Z" fill="#FAC7AF"/>
<path d="M191.565 207.513C194.12 207.738 196.491 185.137 196.961 180.048C197.431 174.96 197.533 169.545 194.651 169.279C191.769 169.013 190.891 174.347 190.42 179.456C189.95 184.544 188.99 207.288 191.565 207.513Z" fill="#FAC7AF"/>
<path d="M189.848 206.879V208.984C189.848 209.208 190.359 210.149 190.849 210.373C192.607 211.109 195.959 210.68 196.082 210.067C196.225 209.454 195.285 208.146 194.528 207.185C194.16 206.879 192.321 207.042 192.014 207.206C191.708 207.349 190.972 207.798 190.829 207.778C190.686 207.758 189.848 206.879 189.848 206.879Z" fill="url(#paint16_linear_15064_27231)"/>
<path d="M177.728 153.814C177.728 153.814 189.399 156.756 195.244 159.638C201.09 162.519 201.54 164.644 201.724 170.693C201.908 176.721 200.559 198.832 200.559 198.832C200.559 198.832 199.128 200.017 195.122 199.669C195.122 199.669 192.996 176.885 192.955 171.858C192.914 166.81 167.978 163.377 167.978 163.377C167.978 163.377 164.564 157.349 168.489 155.346C172.454 153.344 177.728 153.814 177.728 153.814Z" fill="url(#paint17_linear_15064_27231)"/>
<path d="M161.743 156.838C161.518 167.566 169.571 170.243 177.911 171.837C186.27 173.431 188.764 173.635 188.887 173.942C189.009 174.269 188.887 206.249 188.887 206.249C188.887 206.249 191.564 207.864 194.262 205.616C194.262 205.616 197.594 182.361 197.553 175.822C197.492 169.262 195.713 168.179 193.526 167.096C191.339 166.013 173.557 155.162 173.557 155.162L161.743 156.838Z" fill="url(#paint18_linear_15064_27231)"/>
<path d="M163.993 104.277C163.339 109.55 162.664 121.525 162.664 121.525L176.399 121.545L175.398 102.806L170.39 100.211L163.993 104.277Z" fill="#202F87"/>
<path d="M196.114 131.945C195.133 133.641 184.044 129.103 179.813 126.733C175.582 124.362 172.66 121.726 173.865 119.662C175.071 117.598 178.791 118.845 182.941 121.379C187.09 123.913 197.095 130.269 196.114 131.945Z" fill="#FAC7AF"/>
<path d="M161.968 156.529L180.956 154.67C180.956 154.67 179.403 148.049 179.321 144.984C179.26 142.47 178.258 134.48 178.258 134.48C178.258 134.48 180.568 131.006 180.547 129.208C180.527 126.47 175.887 118.97 175.887 118.97L169.183 116.906L164.625 117.989C161.784 118.541 161.682 121.238 161.682 124.14C161.682 132.907 165.361 138.833 165.013 143.86C164.809 147.068 161.968 156.529 161.968 156.529Z" fill="#FAC7AF"/>
<path d="M158.637 142.674C160.538 143.124 164.176 132.314 165.382 127.593C166.588 122.893 166.69 118.97 164.38 118.418C162.05 117.866 160.394 121.422 159.352 126.163C158.33 130.924 156.736 142.224 158.637 142.674Z" fill="#FAC7AF"/>
<path d="M166.996 111.285V118.131C166.996 118.131 168.222 118.867 171.084 118.867C172.637 118.867 172.985 118.131 172.985 118.131V115.985L166.996 111.285Z" fill="#FAC7AF"/>
<path d="M172.863 106.957C173.456 107.121 173.681 109.082 173.579 109.082C173.477 109.082 173.109 107.509 172.577 107.264C172.066 107.018 172.863 106.957 172.863 106.957Z" fill="#F3B59C"/>
<path d="M175.274 106.957C174.866 107.264 175.009 108.878 175.029 109.001C175.049 109.123 175.295 107.182 175.295 107.182L175.274 106.957Z" fill="#F3B59C"/>
<path d="M171.289 108.57C171.289 108.857 171.514 109.061 171.78 109.061C172.066 109.061 172.27 108.836 172.27 108.57C172.27 108.284 172.045 108.08 171.78 108.08C171.514 108.08 171.289 108.305 171.289 108.57Z" fill="#424042"/>
<path d="M170.758 108.163C171.024 108.02 171.391 107.877 171.8 107.877C172.209 107.877 172.577 108.02 172.843 108.163H170.758Z" fill="#424042"/>
<path d="M175.396 108.57C175.396 108.857 175.621 109.061 175.887 109.061C176.153 109.061 176.378 108.836 176.378 108.57C176.378 108.284 176.153 108.08 175.887 108.08C175.621 108.08 175.396 108.305 175.396 108.57Z" fill="#424042"/>
<path d="M175.174 108.163C175.358 108.02 175.603 107.877 175.889 107.877C176.175 107.877 176.441 108.02 176.605 108.163H175.174Z" fill="#424042"/>
<path d="M174.417 111.289C173.926 111.289 173.518 111.248 173.518 111.391C173.518 111.534 173.926 111.697 174.417 111.697C174.907 111.697 175.316 111.534 175.316 111.391C175.337 111.248 174.928 111.289 174.417 111.289Z" fill="#E0BD95"/>
<path d="M174.417 113.352C174.049 113.352 173.742 113.331 173.742 113.413C173.742 113.515 174.049 113.74 174.417 113.74C174.785 113.74 175.091 113.515 175.091 113.413C175.091 113.311 174.785 113.352 174.417 113.352Z" fill="#F3B59C"/>
<path d="M172.516 112.494C172.475 112.494 172.414 112.534 172.414 112.575C172.393 112.637 172.434 112.698 172.495 112.718C172.536 112.739 173.354 112.964 174.192 112.964C175.03 112.964 175.888 112.739 175.929 112.718C175.99 112.698 176.031 112.637 176.011 112.575C175.99 112.514 175.929 112.473 175.868 112.494C175.868 112.494 175.009 112.739 174.192 112.739C173.395 112.739 172.557 112.514 172.557 112.494C172.536 112.494 172.536 112.494 172.516 112.494Z" fill="#F3B59C"/>
<path d="M172.883 107.182C173.087 107.08 172.781 106.834 172.351 106.855C171.943 106.875 170.819 106.814 170.287 107.304C170.287 107.304 170.348 107.345 170.594 107.263C170.859 107.161 172.719 107.263 172.883 107.182Z" fill="#855F41"/>
<path d="M175.234 107.182C175.091 107.08 175.316 106.834 175.581 106.855C175.868 106.875 176.624 106.814 176.992 107.304C176.992 107.304 176.951 107.345 176.787 107.263C176.603 107.161 175.336 107.263 175.234 107.182Z" fill="#855F41"/>
<path d="M166.874 107.692C166.895 107.896 166.895 108.1 166.915 108.284C166.915 108.346 166.915 108.427 166.915 108.489C166.772 111.942 167.14 114.619 171.065 116.009C171.78 116.09 174.274 116.642 175.214 115.6C176.317 114.374 177.196 111.227 177.196 110.123V110.083C177.176 109 177.033 108.713 177.033 108.1C177.033 107.61 177.299 106.098 177.299 105.444C177.299 104.361 176.89 103.053 176.42 102.113C175.52 100.356 173.967 99.293 171.555 99.293C166.016 99.293 166.711 103.973 166.874 107.692Z" fill="#FAC7AF"/>
<path d="M170.287 102.417C172.597 104.42 176.746 104.359 177.196 106.79L177.032 107.874C177.032 107.874 177.625 106.545 177.747 106.075C178.054 105.074 177.42 102.928 176.214 101.416C173.925 98.5144 169.101 97.8809 167.098 100.599C167.098 100.599 164.298 100.047 163.951 104.318C163.705 107.26 166.955 117.478 166.955 117.478C166.955 117.478 167.712 116.824 167.957 115.761C168.938 111.654 169.878 104.502 170.389 101.682" fill="#202F87"/>
<path d="M172.29 116.17C171.166 116.027 169.224 115.353 168.305 114.311C168.305 114.311 168.509 115.312 169.511 115.843C170.492 116.374 172.29 116.17 172.29 116.17Z" fill="#F3B59C"/>
<path d="M181.222 154.833L178.708 134.418C179.73 133.09 180.752 130.107 180.752 128.778C180.752 128.104 179.832 125.754 178.83 123.486C178.544 122.811 181.549 120.298 181.549 120.298C181.549 120.298 179.812 119.317 178.156 118.622C176.97 118.132 172.985 118.111 172.985 118.111C175.213 118.745 175.744 121.83 175.417 122.076C175.09 122.321 170.798 122.239 170.001 122.076C169.203 121.912 167.752 118.05 165.667 117.723C165.667 117.723 164.257 117.539 162.683 118.5C161.13 119.48 160.23 122.219 160.23 122.219C160.23 122.219 166.24 122.076 165.892 125.447C165.892 125.529 165.872 125.611 165.872 125.693C165.422 129.126 163.01 135.215 163.01 135.215C163.01 135.215 163.971 138.853 163.991 142.899C164.012 146.945 161.784 156.856 161.784 156.856L181.222 154.833Z" fill="url(#paint19_linear_15064_27231)"/>
<path d="M181.61 141.635C181.61 139.898 168.835 139.469 165.218 139.469C161.62 139.489 157.798 139.755 157.818 141.696C157.818 143.637 161.641 143.903 165.238 143.883C168.835 143.883 181.61 143.372 181.61 141.635Z" fill="#FAC7AF"/>
<path d="M178.299 141.55C178.156 143.593 181.794 143.45 183.021 143.348C185.044 143.185 187.272 141.509 187.231 140.733C187.19 139.956 182.612 140.569 182.448 140.406C182.285 140.242 184.472 139.731 184.349 138.996C184.227 138.26 181.242 138.587 180.098 139.159C178.953 139.731 178.381 140.283 178.299 141.55Z" fill="#FAC7AF"/>
<path d="M387.429 414.895C384.492 414.65 384.292 398.544 384.737 391.714C385.182 384.885 386.851 379.568 390.433 379.857C394.016 380.146 394.75 385.663 394.016 392.471C393.304 399.3 390.366 415.14 387.429 414.895Z" fill="#FAC7AF"/>
<path d="M401.403 444.638C398.977 445.595 390.099 424.75 388.163 420.034C386.227 415.318 384.558 410.201 387.251 409.111C389.965 408.043 392.368 412.87 394.327 417.587C396.262 422.303 403.828 443.682 401.403 444.638Z" fill="#FAC7AF"/>
<path d="M402.914 447.152C401.335 448.22 398.041 448.909 397.752 448.375C397.441 447.842 397.975 446.307 398.42 445.194C398.553 444.861 398.687 444.571 398.776 444.371C398.887 444.104 398.976 443.948 398.976 443.948C398.976 443.948 393.725 423.571 394.704 423.304C395.75 423.015 402.781 443.259 402.781 443.259C402.781 443.259 402.825 443.392 402.87 443.57L402.959 443.837L403.493 445.595C403.56 445.773 404.072 446.396 402.914 447.152Z" fill="#FAC7AF"/>
<path d="M402.916 447.153C401.336 448.221 398.042 448.911 397.753 448.377C397.442 447.843 397.976 446.308 398.421 445.196C398.554 444.862 398.688 444.573 398.777 444.373C398.866 444.573 399.022 444.884 399.155 445.151C399.355 445.618 399.622 445.618 400.601 444.995C401.291 444.551 402.359 444.083 402.96 443.816C402.96 443.816 403.583 445.107 403.761 445.552C403.828 445.752 404.073 446.397 402.916 447.153Z" fill="url(#paint20_linear_15064_27231)"/>
<path d="M401.492 370.892C399.534 371.692 393.748 360.97 391.657 356.231C389.543 351.493 388.742 347.399 391.145 346.421C393.526 345.442 395.929 348.89 397.865 353.695C399.756 358.5 403.45 370.091 401.492 370.892Z" fill="#FAC7AF"/>
<path d="M390.433 390.715C388.719 389.936 394.015 377.389 395.64 373.897C397.264 370.404 399.244 366.845 401.158 367.712C403.072 368.58 401.625 372.362 400.001 375.854C398.376 379.347 392.146 391.471 390.433 390.715Z" fill="#FAC7AF"/>
<path d="M391.856 387.492C393.948 388.249 392.168 391.697 391.5 392.854C390.432 394.745 387.473 395.657 386.738 395.279C385.982 394.878 388.719 390.807 388.63 390.562C388.541 390.318 387.295 392.653 386.627 392.209C385.96 391.764 387.606 389.005 388.696 388.16C389.765 387.314 390.543 387.003 391.856 387.492Z" fill="#FAC7AF"/>
<path d="M386.494 445.372C386.583 445.995 386.561 446.551 386.249 446.951C385.559 447.819 384.269 447.708 383.401 447.241C383 447.018 382.822 446.862 382.689 446.462C382.199 445.038 382.132 443.436 381.91 441.946C381.554 439.543 381.22 437.119 380.886 434.694C380.575 432.402 380.286 430.089 380.108 427.797C380.085 427.486 379.707 424.75 380.197 424.638C380.441 424.594 380.753 425.484 380.797 425.617C381.443 427.197 381.932 428.865 382.422 430.511C383.089 432.714 383.712 434.938 384.313 437.163C384.847 439.098 385.359 441.034 385.871 442.992C386.004 443.614 386.36 444.527 386.494 445.372Z" fill="#FAC7AF"/>
<path d="M373.454 415.765C370.584 415.142 372.52 399.147 373.877 392.429C375.235 385.71 377.593 380.661 381.087 381.417C384.602 382.173 384.58 387.713 382.978 394.387C381.354 401.038 376.325 416.366 373.454 415.765Z" fill="#FAC7AF"/>
<path d="M385.224 446.239C382.732 446.995 375.167 425.638 373.609 420.767C372.052 415.917 370.806 410.667 373.587 409.821C376.368 408.954 378.393 413.959 379.951 418.809C381.508 423.681 387.717 445.482 385.224 446.239Z" fill="#FAC7AF"/>
<path d="M386.694 445.949L386.761 448.351C386.761 448.596 386.583 448.796 386.315 448.796L378.438 448.93C377.749 448.952 377.437 448.084 377.971 447.684C379.106 446.839 380.908 445.949 382.243 445.281C382.577 445.548 383.089 446.416 383.645 446.505C384.224 446.616 386.694 445.949 386.694 445.949Z" fill="url(#paint21_linear_15064_27231)"/>
<path d="M352.826 355.498C354.05 354.119 364.708 362.617 367.601 365.131C370.516 367.645 373.387 370.492 372.007 372.027C370.627 373.562 367.379 371.137 364.464 368.623C361.571 366.132 351.602 356.877 352.826 355.498Z" fill="#FAC7AF"/>
<path d="M394.08 386.285L375.834 385.551L375.033 354.895L376.302 347.198L384.735 344.15L390.164 345.174C393.257 345.752 395.438 348.444 395.326 351.536L393.346 373.226L394.08 386.285Z" fill="#FAC7AF"/>
<path d="M386.76 340.371V346.533C386.76 346.533 385.425 347.312 382.332 347.312C380.663 347.312 380.285 346.533 380.285 346.533V344.264L386.76 340.371Z" fill="#FAC7AF"/>
<path d="M387.495 335.764C387.472 335.986 387.472 336.187 387.45 336.387C387.45 336.454 387.45 336.52 387.45 336.609C387.606 340.258 385.225 344.173 381.62 344.707C381.62 344.707 381.598 344.707 381.531 344.729C381.509 344.729 381.465 344.729 381.398 344.729C380.619 344.818 377.838 345.041 376.814 343.951C375.612 342.66 374.567 340.28 374.567 338.656C374.567 337.032 374.856 336.654 374.856 335.986C374.856 335.475 374.567 333.873 374.567 333.183C374.544 329.913 376.769 326.688 380.752 326.688C386.76 326.688 387.673 331.826 387.495 335.764Z" fill="#FAC7AF"/>
<path d="M375.747 346.98C374.478 348.137 373.499 350.161 373.255 354.299C373.188 355.456 372.32 358.637 373.9 362.486C376.681 369.293 374.968 377.747 374.968 377.747L393.859 378.436C393.859 378.436 394.26 365.978 394.905 362.018C396.863 350.028 394.883 346.179 391.501 345.245C386.405 343.843 377.015 345.823 375.747 346.98Z" fill="url(#paint22_linear_15064_27231)"/>
<path d="M371.05 372.495C369.026 371.983 370.961 360.103 372.185 355.12C373.387 350.137 375.256 346.422 377.748 347.045C380.24 347.668 380.04 351.806 378.638 356.744C377.236 361.683 373.098 373.006 371.05 372.495Z" fill="#FAC7AF"/>
<path d="M349.044 351.358C349.534 350.824 352.182 353.382 353.05 354.05C353.183 354.161 353.272 354.205 353.294 354.205C353.339 354.205 353.317 354.161 353.294 354.094C353.161 353.694 352.115 352.248 352.627 351.803C353.183 351.313 355.275 353.249 355.987 354.495C356.031 354.561 356.076 354.628 356.098 354.695C356.677 355.918 356.788 356.741 356.031 357.854C354.808 359.634 351.826 357.142 350.847 356.252C350.024 355.496 349.423 354.383 349.111 353.382C348.822 352.47 348.777 351.647 349.044 351.358Z" fill="#FAC7AF"/>
<path d="M373.498 331.181C373.521 331.382 373.565 331.56 373.61 331.782C374.01 333.428 375.323 334.363 375.19 336.142C375.056 337.833 375.323 339.257 376.213 340.77C378.216 344.107 375.457 343.372 376.013 348.511C376.28 351.025 378.728 352.071 383.534 352.004C388.34 351.937 393.636 351.87 393.503 348.311C393.458 346.932 392.946 345.908 392.167 344.774C391.233 343.395 390.454 342.238 390.944 340.547C391.144 339.835 391.455 339.146 391.5 338.411C391.611 336.632 390.298 336.053 389.297 334.897C388.207 333.651 388.852 331.537 388.474 330.047C387.294 325.175 382.154 324.596 377.971 325.909C375.412 326.71 373.098 328.289 373.498 331.181Z" fill="url(#paint23_linear_15064_27231)"/>
<path d="M394.059 373.562C393.903 377.456 396.885 382.572 397.352 386.443C398.286 394.207 392.813 408.778 392.813 409.713C392.813 410.647 397.93 423.283 399.911 430.98C399.911 430.98 398.798 432.56 393.436 433.516C393.436 433.516 385.203 415.92 384.446 411.96C383.689 408 384.624 374.297 384.624 374.297L394.059 373.562Z" fill="url(#paint24_linear_15064_27231)"/>
<path d="M385.738 374.205H375.391C375.391 374.205 373.01 383.415 371.474 395.873C369.939 408.331 370.429 412.024 370.718 414.004C371.007 415.984 377.994 434.737 377.994 434.737C377.994 434.737 381.554 435.227 385.204 433.091C385.204 433.091 382.845 422.413 380.82 417.474C378.795 412.535 378.573 411.445 378.573 411.445C378.573 411.445 384.403 399.254 385.849 390.556C387.295 381.925 385.738 374.205 385.738 374.205Z" fill="url(#paint25_linear_15064_27231)"/>
<path d="M216.068 120.78C215.668 120.691 214.911 121.113 214.555 121.491C214.221 121.847 214.355 122.782 214.6 123.605C214.844 124.428 216.647 123.983 216.647 123.983" fill="#FAC7AF"/>
<path d="M417.179 269.159C415.666 266.133 431.576 256.078 438.674 252.34C445.75 248.603 452.047 246.979 453.894 250.65C455.741 254.32 450.712 258.414 443.48 261.884C436.248 265.354 418.692 272.184 417.179 269.159Z" fill="#FAC7AF"/>
<path d="M459.479 285.622C456.119 285.933 452.603 267.424 451.713 259.46C450.823 251.496 451.624 245.067 455.74 244.688C459.857 244.31 461.793 250.495 462.371 258.503C462.928 266.467 462.839 285.31 459.479 285.622Z" fill="#FAC7AF"/>
<path d="M462.615 325.464C459.633 325.731 456.896 299.302 456.34 293.362C455.806 287.445 455.672 281.149 459.032 280.837C462.37 280.526 463.416 286.733 463.95 292.672C464.506 298.59 465.596 325.197 462.615 325.464Z" fill="#FAC7AF"/>
<path d="M464.508 324.197C464.508 324.197 464.508 324.353 464.508 324.575V327.112C464.508 327.378 463.106 328.535 462.528 328.78C460.436 329.67 457.187 329.114 457.031 328.402C456.876 327.668 459.056 325.087 459.056 325.087C459.635 324.353 459.946 323.708 459.946 323.708C459.946 323.708 461.081 298.458 462.26 298.48C463.573 298.503 464.508 324.197 464.508 324.197Z" fill="#FAC7AF"/>
<path d="M438.584 306.511C435.914 307.846 423.209 284.465 420.539 279.148C417.868 273.831 415.465 268.025 418.447 266.512C421.451 264.999 424.677 270.405 427.347 275.722C430.04 281.039 441.255 305.176 438.584 306.511Z" fill="#FAC7AF"/>
<path d="M439.963 304.55L441.365 307.309C441.543 307.709 441.365 308.177 440.964 308.355L433.399 311.78C432.709 312.092 431.196 311.269 431.619 310.646C432.531 309.289 434.289 307.153 435.313 305.996C435.402 305.885 426.078 282.415 427.213 281.881C428.281 281.37 439.963 304.55 439.963 304.55Z" fill="#FAC7AF"/>
<path d="M432.198 312.338L441.499 308.133C441.61 308.089 441.677 307.933 441.61 307.822L440.943 306.354C439.074 307.221 434.846 309.201 434.557 309.268C434.267 309.335 432.977 308.778 432.732 308.6C432.176 309.335 431.397 310.447 431.019 311.092C430.618 311.848 431.397 312.694 432.198 312.338Z" fill="url(#paint26_linear_15064_27231)"/>
<path d="M462.504 328.756C463.083 328.511 464.485 327.354 464.485 327.087V325.753L462.504 326.932C461.102 325.441 458.499 325.018 457.854 326.309C457.32 327.11 456.919 327.888 457.03 328.355C457.186 329.112 460.413 329.646 462.504 328.756Z" fill="url(#paint27_linear_15064_27231)"/>
<path d="M441.455 249.468C441.455 249.468 419.47 263.683 417.067 266.241C414.686 268.8 422.786 291.179 433.155 304.349C433.155 304.349 437.383 303.66 440.008 301.791L427.125 270.98L448.642 262.126C448.642 262.126 453.003 281.458 453.448 284.973C453.893 288.465 458.811 320.478 458.811 320.478C458.811 320.478 462.749 321.79 465.798 320.478L462.927 261.191L461.97 249.445H441.455V249.468Z" fill="url(#paint28_linear_15064_27231)"/>
<path d="M428.616 238.461C426.881 237.015 434.379 226.203 437.895 221.865C441.411 217.527 444.971 214.724 447.063 216.481C449.177 218.239 447.018 222.221 443.347 226.448C439.697 230.674 430.352 239.907 428.616 238.461Z" fill="#FAC7AF"/>
<path d="M447.196 214.21C448.821 215.411 448.62 218.214 446.239 222.063C443.859 225.934 437.45 233.965 437.45 233.965L431.531 229.582C431.531 229.582 438.407 219.327 440.343 216.568C442.279 213.854 444.971 212.586 447.196 214.21Z" fill="url(#paint29_linear_15064_27231)"/>
<path d="M461.393 252.694L440.633 251.226L441.701 223.173L443.904 213.874L454.184 211.494L459.903 213.007C463.151 213.874 465.287 216.967 464.931 220.326L461.149 243.796L461.393 252.694Z" fill="#FAC7AF"/>
<path d="M456.675 207.18L456.207 213.876C456.207 213.876 454.739 214.632 451.423 214.388C449.643 214.254 449.287 213.386 449.287 213.386L449.465 210.917L456.675 207.18Z" fill="#FAC7AF"/>
<path d="M449.22 200.572C448.53 200.706 448.085 202.975 448.219 202.953C448.352 202.93 448.909 201.173 449.51 200.928C450.133 200.728 449.22 200.572 449.22 200.572Z" fill="#F3B59C"/>
<path d="M446.661 200.486C446.995 200.976 446.594 202.622 446.572 202.755C446.55 202.911 446.527 200.731 446.527 200.731L446.661 200.486Z" fill="#F3B59C"/>
<path d="M452.091 200.863L452.069 201.13C452.069 201.13 449.198 200.929 449.198 200.907C449.176 200.885 449.109 200.64 449.221 200.574C449.799 200.151 452.091 200.863 452.091 200.863Z" fill="#424042"/>
<path d="M444.614 200.33L444.592 200.619C444.592 200.619 446.594 200.752 446.617 200.73C446.639 200.73 446.706 200.485 446.639 200.396C446.283 199.907 444.614 200.33 444.614 200.33Z" fill="#424042"/>
<path d="M450.889 202.575C450.867 202.887 450.6 203.132 450.266 203.109C449.954 203.087 449.71 202.82 449.732 202.487C449.754 202.175 450.021 201.93 450.355 201.953C450.689 201.997 450.911 202.264 450.889 202.575Z" fill="#424042"/>
<path d="M451.557 202.155C451.268 201.977 450.868 201.777 450.378 201.732C449.911 201.688 449.466 201.844 449.154 201.977L451.557 202.155Z" fill="#424042"/>
<path d="M446.149 202.243C446.126 202.555 445.859 202.8 445.526 202.777C445.214 202.755 444.969 202.488 444.992 202.154C445.014 201.843 445.281 201.598 445.615 201.621C445.926 201.643 446.171 201.932 446.149 202.243Z" fill="#424042"/>
<path d="M446.438 201.797C446.238 201.619 445.971 201.419 445.637 201.397C445.304 201.374 444.992 201.53 444.77 201.664L446.438 201.797Z" fill="#424042"/>
<path d="M447.085 205.223C447.663 205.267 448.131 205.245 448.131 205.401C448.108 205.556 447.641 205.712 447.063 205.668C446.484 205.623 446.039 205.401 446.039 205.245C446.039 205.111 446.506 205.178 447.085 205.223Z" fill="#E0BD95"/>
<path d="M446.905 207.581C447.328 207.603 447.684 207.603 447.661 207.715C447.661 207.826 447.283 208.071 446.86 208.048C446.438 208.026 446.104 207.737 446.126 207.603C446.148 207.492 446.482 207.559 446.905 207.581Z" fill="#F3B59C"/>
<path d="M445.036 206.512C444.969 206.512 444.925 206.534 444.903 206.601C444.88 206.667 444.903 206.734 444.992 206.779C445.036 206.801 445.971 207.135 446.927 207.201C447.884 207.268 448.908 207.068 448.952 207.068C449.019 207.046 449.064 206.979 449.064 206.912C449.041 206.845 448.975 206.801 448.908 206.801C448.908 206.801 447.884 207.001 446.972 206.934C446.037 206.868 445.103 206.534 445.103 206.534C445.058 206.512 445.036 206.512 445.036 206.512Z" fill="#F3B59C"/>
<path d="M457.81 202.242C457.788 202.487 457.743 202.71 457.721 202.932C457.721 203.021 457.721 203.088 457.721 203.177C457.61 207.159 454.739 211.252 450.845 211.564C450.845 211.564 450.823 211.564 450.756 211.564C450.734 211.564 450.667 211.564 450.623 211.564C449.8 211.608 446.796 211.63 445.794 210.362C444.615 208.872 443.658 206.202 443.792 204.422C443.925 202.665 444.259 202.265 444.326 201.553C444.37 200.997 444.192 199.239 444.237 198.483C444.459 194.923 447.107 191.564 451.357 191.876C457.721 192.32 458.3 197.971 457.81 202.242Z" fill="#FAC7AF"/>
<path d="M454.85 202.397C454.672 200.929 453.515 200.306 453.426 199.394C453.337 198.504 453.337 197.258 453.07 196.368C452.781 195.479 449.599 195.434 448.531 195.568C447.463 195.679 445.304 195.634 444.459 195.123C443.613 194.611 443.079 192.409 443.947 191.496L444.303 191.897C444.303 191.897 445.95 190.228 447.574 190.117L447.196 190.985C447.196 190.985 451.735 190.807 453.382 191.163C455.028 191.519 456.386 193.076 456.386 193.076C456.386 193.076 458.366 192.52 459.056 194.589C459.456 195.745 461.125 201.441 456.586 208.27L455.696 202.62L454.85 202.397Z" fill="#202F87"/>
<path d="M455.942 202.154C456.454 202.065 457.678 201.732 457.344 203.489C456.743 206.515 454.963 206.203 454.963 206.203C455.096 205.781 455.297 205.18 455.497 204.468C455.03 204.134 455.675 203.801 455.719 203.445C455.742 203.378 455.764 203.311 455.764 203.222C455.853 202.911 455.897 202.555 455.942 202.154Z" fill="#FAC7AF"/>
<path d="M455.763 203.269C455.763 203.269 456.364 202.757 456.765 203.002C457.165 203.247 456.809 204.203 456.431 204.759C456.053 205.315 455.674 205.338 455.63 205.182C455.585 205.026 456.342 204.715 456.097 204.426C455.852 204.136 455.585 204.07 455.63 203.914C455.652 203.758 455.763 203.269 455.763 203.269Z" fill="#F3B59C"/>
<path d="M454.895 200.797C454.962 201.954 454.539 205.936 454.539 205.936L455.051 205.958L456.163 201.82L454.895 200.797Z" fill="#202F87"/>
<path d="M448.486 211.471C450.4 211.694 453.115 210.003 453.893 209.18C454.672 208.379 455.184 206.199 455.184 206.199C455.184 206.199 455.74 206.31 456.23 205.754C456.23 205.754 456.119 206.71 455.718 207C455.318 207.289 455.073 207.356 454.961 207.578C454.85 207.801 454.205 210.804 452.558 211.538C450.889 212.294 448.486 211.471 448.486 211.471Z" fill="#F3B59C"/>
<path d="M448.465 211.718L449.288 213.52V213.409L449.399 211.718L449.043 211.629L448.465 211.718Z" fill="#FF7300"/>
<path d="M461.837 213.455C459.79 212.632 457.409 212.343 457.409 212.343C457.409 212.343 455.429 213.544 453.916 214.567L453.181 211.742L450.422 216.481L449.265 213.388V213.5V213.544L447.774 214.123L448.197 212.588L443.636 213.678C443.636 213.678 441.677 217.17 441.099 221.642C440.943 222.888 440.698 226.514 440.409 231.052C440.298 233.032 438.495 251.897 438.117 251.674C449.643 257.636 463.016 262.264 463.016 262.264C463.016 262.264 461.77 244.111 465.064 220.263C465.865 214.745 461.837 213.455 461.837 213.455Z" fill="url(#paint30_linear_15064_27231)"/>
<path d="M448.176 241.754C446.173 240.686 451.247 228.451 453.783 223.423C456.32 218.395 459.213 214.88 461.683 216.171C464.13 217.461 462.884 221.844 460.147 226.782C457.41 231.699 450.179 242.8 448.176 241.754Z" fill="#FAC7AF"/>
<path d="M425.255 248.292C424.566 246.401 438.339 240.862 442.278 239.46C446.216 238.059 450.489 236.835 451.245 238.971C452.002 241.107 447.952 242.886 444.013 244.288C440.075 245.689 425.945 250.183 425.255 248.292Z" fill="#FAC7AF"/>
<path d="M428.839 246.889C429.818 249.069 425.768 250.337 424.389 250.715C422.119 251.338 419.827 249.447 419.56 248.558C419.315 247.69 424.01 247.178 424.122 246.911C424.233 246.667 421.362 247.312 421.207 246.466C421.051 245.621 424.433 244.776 425.924 244.954C427.415 245.132 428.238 245.532 428.839 246.889Z" fill="#FAC7AF"/>
<path d="M462.305 213.765C464.108 214.655 464.397 217.458 462.75 221.662C461.104 225.889 456.208 234.943 456.208 234.943L449.6 231.696C449.6 231.696 454.562 220.394 455.986 217.347C457.41 214.254 459.835 212.541 462.305 213.765Z" fill="url(#paint31_linear_15064_27231)"/>
<path d="M453.181 211.764C453.181 211.764 452.402 215.635 453.915 214.589C455.428 213.544 457.409 212.365 457.409 212.365L456.43 210.496L453.181 211.764Z" fill="#FF7300"/>
<path d="M448.22 212.611C448.22 212.611 447.3 213.749 447.774 214.168C448.245 214.583 449.265 213.567 449.265 213.567L449.288 213.523L448.464 211.721L448.22 212.611Z" fill="#FF7300"/>
<path d="M470.959 446.709C470.38 446.709 469.868 446.308 469.757 445.73L437.048 290.406C436.914 289.85 437.159 289.272 437.693 289.005C438.294 288.693 439.028 288.938 439.339 289.539L439.362 289.561C439.406 289.65 439.451 289.761 439.473 289.85L472.205 445.218C472.338 445.886 471.916 446.531 471.248 446.687C471.137 446.709 471.048 446.709 470.959 446.709Z" fill="#EBEFF2"/>
<path d="M491.253 446.707C490.674 446.707 490.162 446.306 490.051 445.728L457.52 291.316H438.25C437.56 291.316 437.004 290.76 437.004 290.093C437.004 289.403 437.56 288.869 438.228 288.869H458.499C458.966 288.869 459.389 289.136 459.611 289.559C459.656 289.648 459.7 289.781 459.723 289.87L492.454 445.239C492.588 445.906 492.165 446.551 491.498 446.707C491.409 446.707 491.32 446.707 491.253 446.707Z" fill="#EBEFF2"/>
<path d="M462.55 310.537H442.279C441.589 310.537 441.055 309.981 441.055 309.313C441.055 308.624 441.611 308.09 442.279 308.09H462.55C463.239 308.09 463.773 308.646 463.773 309.313C463.796 309.981 463.239 310.537 462.55 310.537Z" fill="#EBEFF2"/>
<path d="M466.643 329.982H446.372C445.682 329.982 445.148 329.426 445.148 328.759C445.148 328.069 445.705 327.535 446.372 327.535H466.643C467.333 327.535 467.867 328.091 467.867 328.759C467.889 329.448 467.333 329.982 466.643 329.982Z" fill="#EBEFF2"/>
<path d="M470.761 349.447H450.489C449.8 349.447 449.266 348.891 449.266 348.224C449.266 347.534 449.822 347 450.489 347H470.761C471.45 347 471.984 347.556 471.984 348.224C471.984 348.891 471.428 349.447 470.761 349.447Z" fill="#EBEFF2"/>
<path d="M474.854 368.912H454.583C453.893 368.912 453.359 368.356 453.359 367.688C453.359 366.999 453.916 366.465 454.583 366.465H474.854C475.544 366.465 476.078 367.021 476.078 367.688C476.078 368.356 475.522 368.912 474.854 368.912Z" fill="#EBEFF2"/>
<path d="M478.948 388.353H458.677C457.987 388.353 457.453 387.797 457.453 387.13C457.453 386.44 458.009 385.906 458.677 385.906H478.948C479.638 385.906 480.172 386.462 480.172 387.13C480.172 387.797 479.638 388.353 478.948 388.353Z" fill="#EBEFF2"/>
<path d="M483.044 407.822H462.773C462.083 407.822 461.549 407.266 461.549 406.599C461.549 405.909 462.105 405.375 462.773 405.375H483.044C483.733 405.375 484.268 405.931 484.268 406.599C484.29 407.266 483.733 407.822 483.044 407.822Z" fill="#EBEFF2"/>
<path d="M487.137 427.265H466.866C466.177 427.265 465.643 426.709 465.643 426.042C465.643 425.352 466.199 424.818 466.866 424.818H487.137C487.827 424.818 488.361 425.374 488.361 426.042C488.384 426.709 487.827 427.265 487.137 427.265Z" fill="#EBEFF2"/>
<path d="M425.789 446.704C425.7 446.704 425.611 446.704 425.544 446.682C424.877 446.549 424.454 445.881 424.587 445.214L457.008 291.314C445.749 291.292 441.009 291.292 439.251 291.292L406.72 445.726C406.586 446.393 405.919 446.816 405.251 446.682C404.583 446.549 404.161 445.881 404.294 445.214L437.004 289.912C437.026 289.801 437.048 289.712 437.093 289.601C437.426 288.8 437.426 288.8 446.06 288.822C450.243 288.822 455.005 288.845 457.23 288.845H458.499C459.188 288.845 459.745 289.401 459.745 290.068C459.745 290.157 459.745 290.268 459.722 290.357L426.991 445.726C426.879 446.326 426.368 446.704 425.789 446.704Z" fill="#EBEFF2"/>
<path d="M454.471 310.533H434.2C433.511 310.533 432.977 309.977 432.977 309.309C432.977 308.62 433.533 308.086 434.2 308.086H454.471C455.161 308.086 455.695 308.642 455.695 309.309C455.718 309.977 455.161 310.533 454.471 310.533Z" fill="#EBEFF2"/>
<path d="M450.378 329.978H430.107C429.417 329.978 428.883 329.422 428.883 328.755C428.883 328.065 429.439 327.531 430.107 327.531H450.378C451.067 327.531 451.602 328.087 451.602 328.755C451.602 329.444 451.067 329.978 450.378 329.978Z" fill="#EBEFF2"/>
<path d="M446.284 349.443H426.013C425.323 349.443 424.789 348.887 424.789 348.22C424.789 347.53 425.345 346.996 426.013 346.996H446.284C446.974 346.996 447.508 347.552 447.508 348.22C447.508 348.887 446.951 349.443 446.284 349.443Z" fill="#EBEFF2"/>
<path d="M442.188 368.908H421.917C421.227 368.908 420.693 368.352 420.693 367.684C420.693 366.995 421.25 366.461 421.917 366.461H442.188C442.878 366.461 443.412 367.017 443.412 367.684C443.412 368.352 442.856 368.908 442.188 368.908Z" fill="#EBEFF2"/>
<path d="M438.071 388.349H417.8C417.11 388.349 416.576 387.793 416.576 387.126C416.576 386.436 417.132 385.902 417.8 385.902H438.071C438.761 385.902 439.295 386.458 439.295 387.126C439.317 387.793 438.761 388.349 438.071 388.349Z" fill="#EBEFF2"/>
<path d="M433.977 407.818H413.706C413.016 407.818 412.482 407.262 412.482 406.595C412.482 405.905 413.039 405.371 413.706 405.371H433.977C434.667 405.371 435.201 405.927 435.201 406.595C435.223 407.262 434.667 407.818 433.977 407.818Z" fill="#EBEFF2"/>
<path d="M429.884 427.262H409.612C408.923 427.262 408.389 426.705 408.389 426.038C408.389 425.348 408.945 424.814 409.612 424.814H429.884C430.573 424.814 431.107 425.371 431.107 426.038C431.107 426.705 430.573 427.262 429.884 427.262Z" fill="#EBEFF2"/>
<path d="M213.844 173.499C209.016 173.499 205.1 169.583 205.1 164.756C205.1 164.044 205.678 163.488 206.368 163.488C207.08 163.488 207.636 164.066 207.636 164.756C207.636 168.159 210.418 170.94 213.822 170.94C217.227 170.94 220.008 168.159 220.008 164.756C220.008 161.352 217.227 158.571 213.822 158.571C213.11 158.571 212.554 157.993 212.554 157.303C212.554 156.591 213.132 156.035 213.822 156.035C218.651 156.035 222.567 159.951 222.567 164.778C222.567 169.583 218.651 173.499 213.844 173.499Z" fill="#B3DFF2"/>
<path d="M220.541 134.836H206.256V157.216H220.541V134.836Z" fill="#B3DFF2"/>
<path d="M218.895 166.447C218.895 169.25 216.625 171.519 213.821 171.519C211.018 171.519 208.748 169.25 208.748 166.447C208.748 163.644 211.018 161.375 213.821 161.375C216.625 161.375 218.895 163.644 218.895 166.447Z" fill="#0061BF"/>
<path d="M358.665 92H436.969C438.968 92 440.634 93.6717 440.634 95.6778V133.682C440.634 135.688 438.968 137.36 436.969 137.36H358.665C356.666 137.36 355 135.688 355 133.682V95.6778C355.111 93.6717 356.666 92 358.665 92Z" fill="#C6E2FD"/>
<g filter="url(#filter0_d_15064_27231)">
<path d="M355 103.34V139.94C355 141.906 356.668 143.545 358.67 143.545H436.964C438.966 143.545 440.634 141.906 440.634 139.94V103.34H355Z" fill="white"/>
</g>
<path opacity="0.2" d="M366.35 97.671C366.35 99.1143 365.215 100.248 363.771 100.248C362.326 100.248 361.191 99.1143 361.191 97.671C361.191 96.2277 362.326 95.0938 363.771 95.0938C365.215 95.0938 366.35 96.2277 366.35 97.671Z" fill="#0061BF"/>
<path opacity="0.2" d="M373.571 97.671C373.571 99.1143 372.436 100.248 370.991 100.248C369.547 100.248 368.412 99.1143 368.412 97.671C368.412 96.2277 369.547 95.0938 370.991 95.0938C372.436 95.0938 373.571 96.2277 373.571 97.671Z" fill="#0061BF"/>
<path d="M412.059 114.68H400.469C399.652 114.68 398.84 114.833 398.066 115.133C399.588 115.728 400.898 116.865 401.798 118.371H412.063C412.612 118.36 413.157 118.472 413.666 118.701C414.176 118.93 414.64 119.271 415.031 119.705C415.422 120.138 415.733 120.656 415.945 121.226C416.157 121.797 416.267 122.409 416.267 123.028C416.267 123.647 416.157 124.259 415.945 124.83C415.733 125.4 415.422 125.917 415.031 126.351C414.64 126.784 414.176 127.125 413.666 127.354C413.157 127.583 412.612 127.695 412.063 127.684H400.469C399.597 127.683 398.747 127.369 398.042 126.789C397.337 126.208 396.814 125.39 396.547 124.453C396.28 123.516 396.283 122.507 396.556 121.572C396.829 120.637 397.358 119.824 398.066 119.249C397.366 118.678 396.524 118.372 395.661 118.373H394.336C393.514 119.749 393.074 121.37 393.074 123.029C393.074 124.689 393.514 126.31 394.336 127.686C395.011 128.823 395.925 129.755 396.996 130.399C398.066 131.043 399.261 131.379 400.475 131.377H412.065C414.028 131.377 415.91 130.498 417.298 128.932C418.686 127.366 419.465 125.243 419.465 123.029C419.465 120.814 418.686 118.691 417.298 117.125C415.91 115.559 414.028 114.68 412.065 114.68H412.059Z" fill="#0061BF"/>
<path d="M403.055 123.03C403.056 124.69 402.616 126.312 401.793 127.687H400.469C399.606 127.687 398.765 127.38 398.066 126.81C398.774 126.235 399.303 125.421 399.576 124.486C399.849 123.55 399.852 122.542 399.585 121.604C399.317 120.667 398.793 119.849 398.088 119.269C397.383 118.688 396.533 118.375 395.66 118.375H384.068C382.987 118.397 381.956 118.897 381.198 119.768C380.44 120.639 380.015 121.81 380.015 123.031C380.015 124.251 380.44 125.423 381.198 126.294C381.956 127.165 382.987 127.665 384.068 127.687H394.335C395.236 129.194 396.545 130.33 398.067 130.926C397.292 131.225 396.479 131.378 395.66 131.377H384.068C383.097 131.377 382.134 131.162 381.236 130.742C380.339 130.322 379.523 129.707 378.836 128.932C378.148 128.157 377.603 127.236 377.231 126.224C376.859 125.211 376.668 124.125 376.668 123.029C376.668 121.932 376.859 120.847 377.231 119.834C377.603 118.821 378.148 117.9 378.836 117.125C379.523 116.35 380.339 115.735 381.236 115.315C382.134 114.896 383.097 114.68 384.068 114.68H395.66C397.622 114.683 399.503 115.563 400.89 117.128C402.277 118.693 403.058 120.815 403.06 123.029L403.055 123.03Z" fill="#FF7300"/>
<ellipse cx="27.3677" cy="27.3455" rx="27.3677" ry="27.3455" transform="matrix(-1 0 0 1 294.736 48)" fill="url(#paint32_linear_15064_27231)"/>
<defs>
<filter id="filter0_d_15064_27231" x="315" y="78.3398" width="165.635" height="120.205" filterUnits="userSpaceOnUse" color-interpolation-filters="sRGB">
<feFlood flood-opacity="0" result="BackgroundImageFix"/>
<feColorMatrix in="SourceAlpha" type="matrix" values="0 0 0 0 0 0 0 0 0 0 0 0 0 0 0 0 0 0 127 0" result="hardAlpha"/>
<feOffset dy="15"/>
<feGaussianBlur stdDeviation="20"/>
<feComposite in2="hardAlpha" operator="out"/>
<feColorMatrix type="matrix" values="0 0 0 0 0.117647 0 0 0 0 0.129412 0 0 0 0 0.176471 0 0 0 0.05 0"/>
<feBlend mode="normal" in2="BackgroundImageFix" result="effect1_dropShadow_15064_27231"/>
<feBlend mode="normal" in="SourceGraphic" in2="effect1_dropShadow_15064_27231" result="shape"/>
</filter>
<linearGradient id="paint0_linear_15064_27231" x1="480" y1="-69.5" x2="131.024" y2="461.142" gradientUnits="userSpaceOnUse">
<stop stop-color="#EAF4FE"/>
<stop offset="1" stop-color="#DCEDFF" stop-opacity="0"/>
</linearGradient>
<linearGradient id="paint1_linear_15064_27231" x1="213.77" y1="38" x2="213.77" y2="166.789" gradientUnits="userSpaceOnUse">
<stop stop-color="#B3DFF2" stop-opacity="0"/>
<stop offset="0.875664" stop-color="#B3DFF2"/>
</linearGradient>
<linearGradient id="paint2_linear_15064_27231" x1="124.614" y1="233.917" x2="255.158" y2="233.917" gradientUnits="userSpaceOnUse">
<stop stop-color="#BBD7F1"/>
<stop offset="1" stop-color="#5EA9F2"/>
</linearGradient>
<linearGradient id="paint3_linear_15064_27231" x1="101.18" y1="244.184" x2="84.1644" y2="244.184" gradientUnits="userSpaceOnUse">
<stop stop-color="#FAB882"/>
<stop offset="1" stop-color="#FF7300"/>
</linearGradient>
<linearGradient id="paint4_linear_15064_27231" x1="86.5368" y1="222.005" x2="70.6224" y2="222.005" gradientUnits="userSpaceOnUse">
<stop stop-color="#FAB882"/>
<stop offset="1" stop-color="#FF7300"/>
</linearGradient>
<linearGradient id="paint5_linear_15064_27231" x1="74.0276" y1="269.686" x2="58.9865" y2="269.686" gradientUnits="userSpaceOnUse">
<stop stop-color="#FAB882"/>
<stop offset="1" stop-color="#FF7300"/>
</linearGradient>
<linearGradient id="paint6_linear_15064_27231" x1="349.261" y1="145.703" x2="349.261" y2="301.642" gradientUnits="userSpaceOnUse">
<stop stop-color="#9079BD" stop-opacity="0.6"/>
<stop offset="1" stop-color="#624E9B"/>
</linearGradient>
<linearGradient id="paint7_linear_15064_27231" x1="267.302" y1="362.768" x2="395.327" y2="362.768" gradientUnits="userSpaceOnUse">
<stop stop-color="#FEC08E"/>
<stop offset="1" stop-color="#FC9A49"/>
</linearGradient>
<linearGradient id="paint8_linear_15064_27231" x1="121.175" y1="443.017" x2="121.175" y2="447.096" gradientUnits="userSpaceOnUse">
<stop stop-color="#642F88"/>
<stop offset="0.0342" stop-color="#602E86"/>
<stop offset="0.2569" stop-color="#4B2D7D"/>
<stop offset="0.4877" stop-color="#3C2C77"/>
<stop offset="0.7295" stop-color="#322B73"/>
<stop offset="1" stop-color="#2E2B71"/>
</linearGradient>
<linearGradient id="paint9_linear_15064_27231" x1="106.772" y1="444.945" x2="106.772" y2="449.342" gradientUnits="userSpaceOnUse">
<stop stop-color="#642F88"/>
<stop offset="0.0342" stop-color="#602E86"/>
<stop offset="0.2569" stop-color="#4B2D7D"/>
<stop offset="0.4877" stop-color="#3C2C77"/>
<stop offset="0.7295" stop-color="#322B73"/>
<stop offset="1" stop-color="#2E2B71"/>
</linearGradient>
<linearGradient id="paint10_linear_15064_27231" x1="139.951" y1="382.333" x2="306.612" y2="382.333" gradientUnits="userSpaceOnUse">
<stop stop-color="#BAF6FA"/>
<stop offset="1" stop-color="#A2DAF9"/>
</linearGradient>
<linearGradient id="paint11_linear_15064_27231" x1="123.993" y1="310.062" x2="123.993" y2="321.773" gradientUnits="userSpaceOnUse">
<stop stop-color="#642F88"/>
<stop offset="0.0342" stop-color="#602E86"/>
<stop offset="0.2569" stop-color="#4B2D7D"/>
<stop offset="0.4877" stop-color="#3C2C77"/>
<stop offset="0.7295" stop-color="#322B73"/>
<stop offset="1" stop-color="#2E2B71"/>
</linearGradient>
<linearGradient id="paint12_linear_15064_27231" x1="126.272" y1="329.033" x2="126.272" y2="330.855" gradientUnits="userSpaceOnUse">
<stop stop-color="#BDE1F3"/>
<stop offset="0.9789" stop-color="#95D3F4"/>
</linearGradient>
<linearGradient id="paint13_linear_15064_27231" x1="120.178" y1="325.091" x2="120.178" y2="330.217" gradientUnits="userSpaceOnUse">
<stop stop-color="#BDE1F3"/>
<stop offset="0.00766028" stop-color="#BCE0F3"/>
<stop offset="0.4146" stop-color="#99CFF0"/>
<stop offset="0.7529" stop-color="#81C6EE"/>
<stop offset="0.9789" stop-color="#77C2ED"/>
</linearGradient>
<linearGradient id="paint14_linear_15064_27231" x1="126.267" y1="329.378" x2="126.267" y2="332.009" gradientUnits="userSpaceOnUse">
<stop stop-color="#BDE1F3"/>
<stop offset="0.00766028" stop-color="#BCE0F3"/>
<stop offset="0.4146" stop-color="#99CFF0"/>
<stop offset="0.7529" stop-color="#81C6EE"/>
<stop offset="0.9789" stop-color="#77C2ED"/>
</linearGradient>
<linearGradient id="paint15_linear_15064_27231" x1="200.188" y1="199.376" x2="200.188" y2="202.978" gradientUnits="userSpaceOnUse">
<stop stop-color="#A08EC3"/>
<stop offset="1" stop-color="#7859A1"/>
</linearGradient>
<linearGradient id="paint16_linear_15064_27231" x1="192.985" y1="206.884" x2="192.985" y2="210.767" gradientUnits="userSpaceOnUse">
<stop stop-color="#A08EC3"/>
<stop offset="1" stop-color="#7859A1"/>
</linearGradient>
<linearGradient id="paint17_linear_15064_27231" x1="184.202" y1="135.091" x2="184.202" y2="181.045" gradientUnits="userSpaceOnUse">
<stop stop-color="#5C448C"/>
<stop offset="1" stop-color="#2D2E7E"/>
</linearGradient>
<linearGradient id="paint18_linear_15064_27231" x1="179.645" y1="155.156" x2="179.645" y2="206.817" gradientUnits="userSpaceOnUse">
<stop stop-color="#5C448C"/>
<stop offset="1" stop-color="#2D2E7E"/>
</linearGradient>
<linearGradient id="paint19_linear_15064_27231" x1="181.542" y1="137.311" x2="160.211" y2="137.311" gradientUnits="userSpaceOnUse">
<stop stop-color="#FAB882"/>
<stop offset="1" stop-color="#FF7300" stop-opacity="0.8"/>
</linearGradient>
<linearGradient id="paint20_linear_15064_27231" x1="400.749" y1="443.804" x2="400.749" y2="448.564" gradientUnits="userSpaceOnUse">
<stop stop-color="#642F88"/>
<stop offset="0.0342" stop-color="#602E86"/>
<stop offset="0.2569" stop-color="#4B2D7D"/>
<stop offset="0.4877" stop-color="#3C2C77"/>
<stop offset="0.7295" stop-color="#322B73"/>
<stop offset="1" stop-color="#2E2B71"/>
</linearGradient>
<linearGradient id="paint21_linear_15064_27231" x1="382.233" y1="445.298" x2="382.233" y2="448.953" gradientUnits="userSpaceOnUse">
<stop stop-color="#642F88"/>
<stop offset="0.0342" stop-color="#602E86"/>
<stop offset="0.2569" stop-color="#4B2D7D"/>
<stop offset="0.4877" stop-color="#3C2C77"/>
<stop offset="0.7295" stop-color="#322B73"/>
<stop offset="1" stop-color="#2E2B71"/>
</linearGradient>
<linearGradient id="paint22_linear_15064_27231" x1="384.312" y1="344.758" x2="384.312" y2="378.432" gradientUnits="userSpaceOnUse">
<stop stop-color="#ED6A7E"/>
<stop offset="1" stop-color="#DE2377"/>
</linearGradient>
<linearGradient id="paint23_linear_15064_27231" x1="383.476" y1="325.291" x2="383.476" y2="351.989" gradientUnits="userSpaceOnUse">
<stop stop-color="#642F88"/>
<stop offset="0.0342" stop-color="#602E86"/>
<stop offset="0.2569" stop-color="#4B2D7D"/>
<stop offset="0.4877" stop-color="#3C2C77"/>
<stop offset="0.7295" stop-color="#322B73"/>
<stop offset="1" stop-color="#2E2B71"/>
</linearGradient>
<linearGradient id="paint24_linear_15064_27231" x1="392.023" y1="373.573" x2="392.023" y2="433.537" gradientUnits="userSpaceOnUse">
<stop stop-color="#642F88"/>
<stop offset="0.0342" stop-color="#602E86"/>
<stop offset="0.2569" stop-color="#4B2D7D"/>
<stop offset="0.4877" stop-color="#3C2C77"/>
<stop offset="0.7295" stop-color="#322B73"/>
<stop offset="1" stop-color="#2E2B71"/>
</linearGradient>
<linearGradient id="paint25_linear_15064_27231" x1="378.438" y1="374.21" x2="378.438" y2="434.813" gradientUnits="userSpaceOnUse">
<stop stop-color="#642F88"/>
<stop offset="0.0342" stop-color="#602E86"/>
<stop offset="0.2569" stop-color="#4B2D7D"/>
<stop offset="0.4877" stop-color="#3C2C77"/>
<stop offset="0.7295" stop-color="#322B73"/>
<stop offset="1" stop-color="#2E2B71"/>
</linearGradient>
<linearGradient id="paint26_linear_15064_27231" x1="436.275" y1="306.336" x2="436.275" y2="312.411" gradientUnits="userSpaceOnUse">
<stop stop-color="#3E77BB"/>
<stop offset="1" stop-color="#3F4C9B"/>
</linearGradient>
<linearGradient id="paint27_linear_15064_27231" x1="460.751" y1="325.57" x2="460.751" y2="329.223" gradientUnits="userSpaceOnUse">
<stop stop-color="#3E77BB"/>
<stop offset="1" stop-color="#3F4C9B"/>
</linearGradient>
<linearGradient id="paint28_linear_15064_27231" x1="441.245" y1="249.468" x2="441.245" y2="321.079" gradientUnits="userSpaceOnUse">
<stop stop-color="#3E77BB"/>
<stop offset="1" stop-color="#3F4C9B"/>
</linearGradient>
<linearGradient id="paint29_linear_15064_27231" x1="448.246" y1="223.742" x2="431.516" y2="223.742" gradientUnits="userSpaceOnUse">
<stop stop-color="#FAB882"/>
<stop offset="0.791667" stop-color="#FF7300" stop-opacity="0.8"/>
</linearGradient>
<linearGradient id="paint30_linear_15064_27231" x1="465.16" y1="237.04" x2="438.093" y2="237.04" gradientUnits="userSpaceOnUse">
<stop stop-color="#FAB882"/>
<stop offset="1" stop-color="#FF7300" stop-opacity="0.8"/>
</linearGradient>
<linearGradient id="paint31_linear_15064_27231" x1="463.831" y1="224.171" x2="449.587" y2="224.171" gradientUnits="userSpaceOnUse">
<stop stop-color="#FAB882"/>
<stop offset="0.791667" stop-color="#FF7300" stop-opacity="0.8"/>
</linearGradient>
<linearGradient id="paint32_linear_15064_27231" x1="50.5249" y1="-7.30967" x2="20.7733" y2="46.981" gradientUnits="userSpaceOnUse">
<stop stop-color="#BBDDFF"/>
<stop offset="1" stop-color="#DCEDFF" stop-opacity="0"/>
</linearGradient>
</defs>
</svg>
