<svg width="568" height="434" viewBox="0 0 568 434" fill="none" xmlns="http://www.w3.org/2000/svg">
<g clip-path="url(#clip0_15064_24836)">
<path opacity="0.1" d="M475.019 86.413C471.336 79.5633 458.715 64.4846 454.303 58.0262C402.658 -15.8728 232.485 -19.31 163.965 57.1016C147.628 75.3109 141.939 97.3155 130.92 118.206C105.927 165.705 59.2543 194.113 29.9159 238.059C7.21786 272.154 10.2413 315.858 22.906 352.718C36.6682 392.775 60.8891 420.751 99.6337 442.02C143.07 465.853 189.519 459.24 236.471 450.945C257.579 447.213 279.348 443.407 300.937 444.827C327.969 446.614 354.687 453.795 381.472 457.285C409.355 460.912 438.29 461.774 465.154 453.858C551.187 428.531 571.533 309.824 536.193 241.77C523.674 217.694 544.557 162.036 524.849 143.186C503.596 122.884 488.904 111.666 475.019 86.413Z" fill="url(#paint0_linear_15064_24836)"/>
<g filter="url(#filter0_d_15064_24836)">
<path d="M489.355 54.3867H122.406L121.358 262.032C121.297 274.089 131.095 283.895 143.204 283.895H467.509C479.574 283.895 489.355 274.156 489.355 262.141V54.3867Z" fill="white"/>
</g>
<path opacity="0.2" d="M89.5223 70.7617H91.2252C91.2252 75.713 95.2558 79.7256 100.227 79.7256V81.4214C95.2548 81.4214 91.2252 85.4351 91.2252 90.3864H89.5223C89.5223 85.4351 85.4917 81.4214 80.5195 81.4214V79.7256C85.4917 79.7256 89.5223 75.7119 89.5223 70.7617Z" fill="url(#paint1_linear_15064_24836)"/>
<path d="M73.8281 45.6855H74.2541C74.2541 50.6368 78.2847 54.6505 83.2558 54.6505V55.0747C78.2836 55.0747 74.253 59.0884 74.253 64.0397H73.827C73.827 59.0884 69.7964 55.0747 64.8242 55.0747V54.6505C69.7975 54.6505 73.8281 50.6368 73.8281 45.6855Z" fill="url(#paint2_linear_15064_24836)"/>
<path opacity="0.2" d="M60.0499 101.484C60.0499 106.275 63.9494 110.158 68.76 110.158C63.9494 110.158 60.0499 114.041 60.0499 118.831C60.0499 114.041 56.1504 110.158 51.3398 110.158C56.1504 110.157 60.0499 106.275 60.0499 101.484Z" fill="url(#paint3_linear_15064_24836)"/>
<g filter="url(#filter1_d_15064_24836)">
<path fill-rule="evenodd" clip-rule="evenodd" d="M259.057 76.6855H373.39C377.011 76.6855 379.783 76.6855 381.932 76.9732C384.105 77.2642 385.722 77.8582 386.976 79.1074C388.231 80.3566 388.827 81.9665 389.119 84.1305C389.408 86.2702 389.408 89.0309 389.408 92.6359V124.911C389.408 128.516 389.408 131.276 389.119 133.416C388.827 135.58 388.231 137.19 386.976 138.439C385.722 139.688 384.105 140.282 381.932 140.573C379.783 140.861 377.011 140.861 373.39 140.861H259.057C255.437 140.861 252.664 140.861 250.515 140.573C248.342 140.282 246.726 139.688 245.471 138.439C244.217 137.19 243.62 135.58 243.328 133.416C243.039 131.276 243.039 128.515 243.039 124.91V92.6361C243.039 89.0311 243.039 86.2702 243.328 84.1305C243.62 81.9665 244.217 80.3566 245.471 79.1074C246.726 77.8582 248.342 77.2642 250.515 76.9732C252.664 76.6855 255.437 76.6855 259.057 76.6855ZM250.661 78.0512C248.609 78.326 247.261 78.8632 246.244 79.8766C245.226 80.89 244.686 82.2321 244.411 84.2754C244.133 86.3343 244.131 89.0223 244.131 92.6793V124.867C244.131 128.524 244.133 131.212 244.411 133.271C244.686 135.314 245.226 136.657 246.244 137.67C247.261 138.683 248.609 139.221 250.661 139.495C252.729 139.772 255.428 139.773 259.1 139.773H373.347C377.019 139.773 379.719 139.772 381.786 139.495C383.838 139.221 385.186 138.683 386.204 137.67C387.221 136.657 387.761 135.314 388.037 133.271C388.315 131.212 388.316 128.524 388.316 124.867V92.6793C388.316 89.0223 388.315 86.3343 388.037 84.2754C387.761 82.2321 387.221 80.89 386.204 79.8766C385.186 78.8632 383.838 78.326 381.786 78.0512C379.719 77.7744 377.019 77.7733 373.347 77.7733H259.1C255.428 77.7733 252.729 77.7744 250.661 78.0512Z" fill="#D8DEE6"/>
</g>
<path d="M296.016 109.232C296.016 120.694 286.724 129.986 275.262 129.986C263.8 129.986 254.508 120.694 254.508 109.232C254.508 97.7703 263.8 88.4785 275.262 88.4785C286.724 88.4785 296.016 97.7703 296.016 109.232Z" fill="white" fill-opacity="0.8"/>
<path fill-rule="evenodd" clip-rule="evenodd" d="M275.261 89.0239C264.101 89.0239 255.053 98.0712 255.053 109.232C255.053 120.392 264.101 129.439 275.261 129.439C286.421 129.439 295.469 120.392 295.469 109.232C295.469 98.0712 286.421 89.0239 275.261 89.0239ZM253.961 109.232C253.961 97.468 263.497 87.9316 275.261 87.9316C287.025 87.9316 296.561 97.468 296.561 109.232C296.561 120.995 287.025 130.532 275.261 130.532C263.497 130.532 253.961 120.995 253.961 109.232Z" fill="#EBEFF2"/>
<path opacity="0.15" d="M275.435 107.997C275.326 107.986 275.194 107.986 275.074 107.997C272.475 107.91 270.41 105.78 270.41 103.158C270.41 100.482 272.573 98.3086 275.26 98.3086C277.936 98.3086 280.11 100.482 280.11 103.158C280.099 105.78 278.034 107.91 275.435 107.997Z" fill="#FF7300"/>
<path fill-rule="evenodd" clip-rule="evenodd" d="M275.449 109.709C277.555 109.709 279.703 110.238 281.363 111.346C282.855 112.339 283.709 113.731 283.709 115.229C283.709 116.727 282.855 118.122 281.363 119.12L281.363 119.12C279.698 120.234 277.548 120.766 275.441 120.766C273.334 120.766 271.184 120.234 269.519 119.121C268.027 118.128 267.172 116.736 267.172 115.237C267.172 113.74 268.027 112.345 269.518 111.347L269.521 111.345L269.521 111.345C271.19 110.238 273.342 109.709 275.449 109.709ZM270.428 112.709C269.277 113.48 268.81 114.412 268.81 115.237C268.81 116.063 269.277 116.992 270.427 117.757L270.429 117.758C271.768 118.654 273.583 119.127 275.441 119.127C277.298 119.127 279.113 118.654 280.452 117.758C281.604 116.987 282.071 116.055 282.071 115.229C282.071 114.404 281.605 113.475 280.454 112.709L280.453 112.709C279.12 111.818 277.308 111.347 275.449 111.347C273.591 111.347 271.773 111.818 270.428 112.709Z" fill="#FF7300"/>
<path d="M306.938 98.9406C306.938 96.7815 308.688 95.0312 310.847 95.0312H374.028C376.187 95.0312 377.938 96.7815 377.938 98.9406C377.938 101.1 376.187 102.85 374.028 102.85H310.847C308.688 102.85 306.938 101.1 306.938 98.9406Z" fill="#EBEFF2"/>
<path d="M306.938 110.495C306.938 109.289 307.916 108.311 309.122 108.311H324.414C325.621 108.311 326.599 109.289 326.599 110.495C326.599 111.702 325.621 112.68 324.414 112.68H309.122C307.916 112.68 306.938 111.702 306.938 110.495Z" fill="#EBEFF2"/>
<path d="M332.061 110.495C332.061 109.289 333.039 108.311 334.245 108.311H363.737C364.944 108.311 365.922 109.289 365.922 110.495C365.922 111.702 364.944 112.68 363.737 112.68H334.245C333.039 112.68 332.061 111.702 332.061 110.495Z" fill="#EBEFF2"/>
<path d="M306.938 120.327C306.938 119.121 307.916 118.143 309.122 118.143H369.199C370.406 118.143 371.384 119.121 371.384 120.327C371.384 121.534 370.406 122.512 369.199 122.512H309.122C307.916 122.512 306.938 121.534 306.938 120.327Z" fill="#EBEFF2"/>
<path fill-rule="evenodd" clip-rule="evenodd" d="M242.541 178.257C242.541 178.257 241.544 178.257 240.423 178.257C239.364 178.257 238.398 178.66 237.65 179.405C236.934 180.118 236.498 181.111 236.529 182.134C236.529 182.196 236.529 182.196 236.529 182.258C236.529 183.313 236.934 184.275 237.65 184.988C238.367 185.702 239.364 186.136 240.423 186.136C241.544 186.136 242.541 186.136 242.541 186.136C243.04 186.136 243.414 185.764 243.414 185.268C243.414 184.771 243.04 184.399 242.541 184.399C242.541 184.399 241.544 184.399 240.423 184.399C239.862 184.399 239.301 184.151 238.897 183.748C238.492 183.344 238.242 182.786 238.242 182.227L238.242 182.103C238.242 181.545 238.492 180.987 238.897 180.583C239.301 180.18 239.862 179.932 240.423 179.932C241.544 179.932 242.541 179.932 242.541 179.932C243.04 179.932 243.414 179.56 243.414 179.063C243.382 178.66 243.009 178.288 242.541 178.257Z" fill="#FF7300"/>
<path fill-rule="evenodd" clip-rule="evenodd" d="M246.687 181.327L241.141 181.327C240.643 181.327 240.269 181.699 240.269 182.195C240.269 182.692 240.643 183.064 241.141 183.064L246.687 183.064C247.185 183.064 247.559 182.692 247.559 182.195C247.528 181.73 247.154 181.358 246.687 181.327Z" fill="#FF7300"/>
<path fill-rule="evenodd" clip-rule="evenodd" d="M245.285 186.138C245.285 186.138 246.281 186.138 247.403 186.138C248.462 186.138 249.428 185.734 250.144 185.021C250.861 184.307 251.297 183.315 251.266 182.291C251.266 182.229 251.266 182.229 251.266 182.167C251.328 181.112 250.892 180.12 250.175 179.406C249.459 178.693 248.462 178.258 247.403 178.258C246.281 178.258 245.285 178.258 245.285 178.258C244.786 178.258 244.412 178.631 244.412 179.127C244.412 179.623 244.786 179.996 245.285 179.996C245.285 179.996 246.281 179.996 247.403 179.996C247.964 179.996 248.524 180.244 248.929 180.647C249.334 181.05 249.584 181.609 249.584 182.167L249.584 182.291C249.584 182.849 249.334 183.408 248.929 183.811C248.524 184.214 247.964 184.463 247.403 184.463C246.281 184.463 245.285 184.463 245.285 184.463C244.786 184.463 244.412 184.835 244.412 185.331C244.412 185.765 244.786 186.138 245.285 186.138Z" fill="#FF7300"/>
<g filter="url(#filter2_d_15064_24836)">
<path d="M189.646 204.666H162.978C155.664 204.666 152.007 204.666 149.735 202.404C147.463 200.141 147.463 196.5 147.463 189.216V177.522C147.463 170.239 147.463 166.597 149.735 164.335C152.007 162.072 155.664 162.072 162.978 162.072H203.687C211.001 162.072 214.657 162.072 216.93 164.335C219.202 166.597 219.202 170.239 219.202 177.522V189.216C219.202 196.5 219.202 200.141 216.93 202.404C214.657 204.666 211.001 204.666 203.687 204.666H197.673" fill="white"/>
</g>
<path fill-rule="evenodd" clip-rule="evenodd" d="M152.379 174.038C152.379 173.137 153.112 172.406 154.017 172.406H212.432C213.337 172.406 214.071 173.137 214.071 174.038C214.071 174.939 213.337 175.669 212.432 175.669H154.017C153.112 175.669 152.379 174.939 152.379 174.038Z" fill="#EBEFF2"/>
<path fill-rule="evenodd" clip-rule="evenodd" d="M152.379 183.827C152.379 182.926 153.112 182.195 154.017 182.195H207.54C208.445 182.195 209.179 182.926 209.179 183.827C209.179 184.728 208.445 185.458 207.54 185.458H154.017C153.112 185.458 152.379 184.728 152.379 183.827Z" fill="#EBEFF2"/>
<path fill-rule="evenodd" clip-rule="evenodd" d="M152.379 193.616C152.379 192.715 153.112 191.984 154.017 191.984H198.802C199.707 191.984 200.44 192.715 200.44 193.616C200.44 194.517 199.707 195.248 198.802 195.248H154.017C153.112 195.248 152.379 194.517 152.379 193.616Z" fill="#EBEFF2"/>
<g filter="url(#filter3_d_15064_24836)">
<path d="M332.132 162.072C336.122 162.072 339.356 165.293 339.356 169.265V189.216C339.356 196.5 339.356 200.141 337.084 202.404C334.812 204.666 331.155 204.666 323.841 204.666H283.132C275.818 204.666 272.161 204.666 269.889 202.404C267.617 200.141 267.617 196.5 267.617 189.216V177.522C267.617 170.239 267.617 166.597 269.889 164.335C272.161 162.072 275.818 162.072 283.132 162.072H325.252" fill="white"/>
</g>
<path fill-rule="evenodd" clip-rule="evenodd" d="M272.533 174.038C272.533 173.137 273.267 172.406 274.172 172.406H332.587C333.491 172.406 334.225 173.137 334.225 174.038C334.225 174.939 333.491 175.669 332.587 175.669H274.172C273.267 175.669 272.533 174.939 272.533 174.038Z" fill="#EBEFF2"/>
<path fill-rule="evenodd" clip-rule="evenodd" d="M272.533 183.827C272.533 182.926 273.267 182.195 274.172 182.195H327.695C328.6 182.195 329.333 182.926 329.333 183.827C329.333 184.728 328.6 185.458 327.695 185.458H274.172C273.267 185.458 272.533 184.728 272.533 183.827Z" fill="#EBEFF2"/>
<path fill-rule="evenodd" clip-rule="evenodd" d="M272.533 193.616C272.533 192.715 273.267 191.984 274.172 191.984H318.956C319.861 191.984 320.595 192.715 320.595 193.616C320.595 194.517 319.861 195.248 318.956 195.248H274.172C273.267 195.248 272.533 194.517 272.533 193.616Z" fill="#EBEFF2"/>
<g filter="url(#filter4_d_15064_24836)">
<path d="M443.993 162.072H403.285C395.971 162.072 392.314 162.072 390.042 164.335C387.77 166.597 387.77 170.239 387.77 177.522V189.216C387.77 196.5 387.77 200.141 390.042 202.404C392.314 204.666 395.971 204.666 403.285 204.666H443.993C451.307 204.666 454.964 204.666 457.236 202.404C459.508 200.141 459.508 196.5 459.508 189.216V177.522C459.508 170.239 459.508 166.597 457.236 164.335C454.964 162.072 451.307 162.072 443.993 162.072Z" fill="white"/>
</g>
<path fill-rule="evenodd" clip-rule="evenodd" d="M391.592 174.038C391.592 173.137 392.325 172.406 393.23 172.406H451.645C452.55 172.406 453.284 173.137 453.284 174.038C453.284 174.939 452.55 175.669 451.645 175.669H393.23C392.325 175.669 391.592 174.939 391.592 174.038Z" fill="#EBEFF2"/>
<path fill-rule="evenodd" clip-rule="evenodd" d="M391.592 183.827C391.592 182.926 392.325 182.195 393.23 182.195H446.753C447.658 182.195 448.392 182.926 448.392 183.827C448.392 184.728 447.658 185.458 446.753 185.458H393.23C392.325 185.458 391.592 184.728 391.592 183.827Z" fill="#EBEFF2"/>
<path fill-rule="evenodd" clip-rule="evenodd" d="M391.592 193.616C391.592 192.715 392.325 191.984 393.23 191.984H438.015C438.92 191.984 439.653 192.715 439.653 193.616C439.653 194.517 438.92 195.248 438.015 195.248H393.23C392.325 195.248 391.592 194.517 391.592 193.616Z" fill="#EBEFF2"/>
<g filter="url(#filter5_d_15064_24836)">
<path d="M313.728 236.035H287.501C280.188 236.035 276.531 236.035 274.258 238.298C271.986 240.56 271.986 244.202 271.986 251.485V254.585C271.986 261.868 271.986 265.51 274.258 267.772C276.531 270.035 280.188 270.035 287.501 270.035H313.728C321.041 270.035 324.698 270.035 326.97 267.772C329.243 265.51 329.243 261.868 329.243 254.585V251.485C329.243 244.202 329.243 240.56 326.97 238.298C324.698 236.035 321.041 236.035 313.728 236.035Z" fill="white"/>
</g>
<path d="M310.218 254.509C310.218 259.938 305.817 264.339 300.387 264.339C294.958 264.339 290.557 259.938 290.557 254.509C290.557 249.079 294.958 244.678 300.387 244.678C305.817 244.678 310.218 249.079 310.218 254.509Z" fill="white" fill-opacity="0.8"/>
<path fill-rule="evenodd" clip-rule="evenodd" d="M300.387 245.223C295.259 245.223 291.102 249.38 291.102 254.508C291.102 259.636 295.259 263.792 300.387 263.792C305.514 263.792 309.671 259.636 309.671 254.508C309.671 249.38 305.514 245.223 300.387 245.223ZM290.01 254.508C290.01 248.777 294.656 244.131 300.387 244.131C306.118 244.131 310.764 248.777 310.764 254.508C310.764 260.239 306.118 264.885 300.387 264.885C294.656 264.885 290.01 260.239 290.01 254.508Z" fill="#EBEFF2"/>
<path fill-rule="evenodd" clip-rule="evenodd" d="M297.115 253.575C297.328 253.789 297.327 254.134 297.113 254.347C296.165 255.291 296.167 256.829 297.115 257.781C298.059 258.73 299.596 258.728 300.549 257.78C301.498 256.835 301.5 255.298 300.548 254.346C300.335 254.133 300.335 253.787 300.548 253.574C300.762 253.361 301.107 253.361 301.321 253.574C302.698 254.951 302.699 257.181 301.32 258.554C299.944 259.923 297.715 259.932 296.341 258.552C294.971 257.176 294.962 254.947 296.343 253.573C296.556 253.36 296.902 253.361 297.115 253.575Z" fill="#0061BF"/>
<path fill-rule="evenodd" clip-rule="evenodd" d="M303.472 251.425C302.573 250.53 301.126 250.53 300.237 251.423C299.344 252.319 299.346 253.768 300.236 254.658C300.556 254.978 300.556 255.497 300.236 255.817C299.916 256.136 299.398 256.136 299.078 255.817C297.546 254.285 297.548 251.801 299.076 250.266C300.61 248.727 303.095 248.737 304.628 250.264C306.168 251.797 306.157 254.282 304.63 255.815C304.311 256.136 303.792 256.137 303.472 255.818C303.151 255.499 303.15 254.98 303.469 254.659C304.364 253.761 304.364 252.313 303.472 251.425Z" fill="#FF7300"/>
<path fill-rule="evenodd" clip-rule="evenodd" d="M362.698 179.345C362.698 179.345 361.701 179.345 360.579 179.345C359.52 179.345 358.554 179.748 357.807 180.492C357.09 181.206 356.654 182.199 356.685 183.222C356.685 183.284 356.685 183.284 356.685 183.346C356.685 184.401 357.09 185.363 357.807 186.076C358.523 186.79 359.52 187.224 360.579 187.224C361.701 187.224 362.698 187.224 362.698 187.224C363.196 187.224 363.57 186.852 363.57 186.355C363.57 185.859 363.196 185.487 362.698 185.487C362.698 185.487 361.701 185.487 360.579 185.487C360.018 185.487 359.458 185.239 359.053 184.835C358.648 184.432 358.399 183.874 358.399 183.315L358.399 183.191C358.399 182.633 358.648 182.075 359.053 181.671C359.458 181.268 360.018 181.02 360.579 181.02C361.701 181.02 362.698 181.02 362.698 181.02C363.196 181.02 363.57 180.648 363.57 180.151C363.539 179.748 363.165 179.376 362.698 179.345Z" fill="#FF7300"/>
<path fill-rule="evenodd" clip-rule="evenodd" d="M366.839 182.415L361.294 182.415C360.795 182.415 360.422 182.787 360.422 183.283C360.422 183.78 360.795 184.152 361.294 184.152L366.839 184.152C367.337 184.152 367.711 183.78 367.711 183.283C367.68 182.818 367.306 182.446 366.839 182.415Z" fill="#FF7300"/>
<path fill-rule="evenodd" clip-rule="evenodd" d="M365.439 187.226C365.439 187.226 366.436 187.226 367.557 187.226C368.616 187.226 369.582 186.822 370.299 186.109C371.015 185.395 371.451 184.403 371.42 183.379C371.42 183.317 371.42 183.317 371.42 183.255C371.482 182.2 371.046 181.208 370.33 180.494C369.613 179.781 368.616 179.346 367.557 179.346C366.436 179.346 365.439 179.346 365.439 179.346C364.94 179.346 364.567 179.718 364.567 180.215C364.567 180.711 364.94 181.083 365.439 181.083C365.439 181.083 366.436 181.083 367.557 181.083C368.118 181.083 368.679 181.332 369.084 181.735C369.489 182.138 369.738 182.697 369.738 183.255L369.738 183.379C369.738 183.937 369.489 184.496 369.084 184.899C368.679 185.302 368.118 185.55 367.557 185.55C366.436 185.55 365.439 185.55 365.439 185.55C364.94 185.55 364.567 185.923 364.567 186.419C364.567 186.853 364.94 187.226 365.439 187.226Z" fill="#FF7300"/>
<path fill-rule="evenodd" clip-rule="evenodd" d="M306.434 227.388L302.958 230.863C302.745 231.077 302.399 231.077 302.186 230.863L298.71 227.388C298.497 227.174 298.497 226.829 298.71 226.615C298.923 226.402 299.269 226.402 299.482 226.615L302.026 229.159L302.026 210.816C302.026 210.514 302.27 210.27 302.572 210.27C302.874 210.27 303.118 210.514 303.118 210.816L303.118 229.159L305.661 226.615C305.875 226.402 306.22 226.402 306.434 226.615C306.647 226.829 306.647 227.174 306.434 227.388Z" fill="#D8DEE6"/>
<path fill-rule="evenodd" clip-rule="evenodd" d="M309.709 156.389L306.233 159.865C306.02 160.078 305.674 160.078 305.461 159.865L301.985 156.389C301.772 156.176 301.772 155.83 301.985 155.617C302.199 155.403 302.544 155.403 302.758 155.617L305.301 158.16L305.301 145.279C305.301 144.977 305.546 144.732 305.847 144.732C306.149 144.732 306.393 144.977 306.393 145.279L306.393 158.16L308.937 155.617C309.15 155.403 309.496 155.403 309.709 155.617C309.922 155.83 309.922 156.176 309.709 156.389Z" fill="#D8DEE6"/>
<path fill-rule="evenodd" clip-rule="evenodd" d="M215.771 116.804C226.145 111.807 237.233 110.719 241.36 110.408L241.442 111.493C237.347 111.801 226.429 112.879 216.247 117.784C206.24 122.604 196.989 131.092 195.574 146.183C195.614 146.17 195.657 146.156 195.701 146.141C196.027 146.03 196.408 145.867 196.824 145.661C197.656 145.25 198.599 144.686 199.488 144.084C200.378 143.482 201.2 142.852 201.793 142.313C202.091 142.043 202.319 141.807 202.467 141.618C202.542 141.523 202.587 141.451 202.612 141.402C202.625 141.376 202.629 141.364 202.629 141.364C202.629 141.363 202.624 141.379 202.624 141.407H203.717C203.717 141.595 203.652 141.764 203.587 141.892C203.519 142.026 203.428 142.159 203.328 142.288C203.126 142.544 202.849 142.827 202.529 143.117C201.887 143.701 201.021 144.362 200.102 144.984C199.183 145.606 198.197 146.197 197.31 146.636C196.866 146.855 196.44 147.04 196.053 147.171C195.675 147.299 195.299 147.389 194.969 147.389H194.749L194.59 147.237C193.585 146.272 192.22 144.591 191.225 142.871C190.727 142.011 190.309 141.12 190.08 140.288C189.855 139.469 189.79 138.624 190.111 137.919L191.106 138.368C190.94 138.732 190.935 139.277 191.134 140C191.329 140.71 191.699 141.512 192.171 142.328C192.863 143.524 193.746 144.701 194.534 145.597C196.147 130.32 205.64 121.684 215.771 116.804Z" fill="#EBEFF2"/>
<path fill-rule="evenodd" clip-rule="evenodd" d="M416.906 117.398C407.329 111.937 397.091 110.748 393.281 110.408L393.184 111.492C396.951 111.827 406.996 113.001 416.363 118.342C425.566 123.59 434.128 132.863 435.427 149.411C435.416 149.407 435.404 149.402 435.393 149.397C435.097 149.278 434.75 149.102 434.368 148.879C433.605 148.432 432.738 147.818 431.919 147.162C431.1 146.506 430.344 145.82 429.797 145.233C429.523 144.938 429.312 144.68 429.174 144.471C429.058 144.296 429.025 144.204 429.016 144.178C429.013 144.169 429.013 144.168 429.013 144.175H427.92C427.92 144.498 428.097 144.821 428.262 145.07C428.446 145.348 428.701 145.655 428.996 145.972C429.588 146.609 430.387 147.331 431.235 148.01C432.083 148.689 432.994 149.336 433.815 149.817C434.225 150.057 434.622 150.26 434.984 150.406C435.335 150.547 435.697 150.652 436.025 150.652H436.272L436.435 150.466C437.361 149.415 438.617 147.584 439.531 145.715C439.988 144.779 440.369 143.815 440.577 142.92C440.782 142.038 440.835 141.153 440.553 140.42L439.533 140.81C439.7 141.243 439.699 141.874 439.513 142.675C439.33 143.462 438.985 144.346 438.549 145.238C437.937 146.489 437.164 147.721 436.462 148.682C434.961 132.125 426.254 122.728 416.906 117.398Z" fill="#EBEFF2"/>
<g filter="url(#filter6_d_15064_24836)">
<path d="M150.74 92.6784C150.74 85.3953 150.74 81.7537 153.012 79.4911C155.284 77.2285 158.941 77.2285 166.255 77.2285H203.221C210.535 77.2285 214.192 77.2285 216.464 79.4911C218.736 81.7537 218.736 85.3953 218.736 92.6784V107.463C218.736 114.746 218.736 118.388 216.464 120.65C214.192 122.913 210.535 122.913 203.221 122.913H166.255C158.941 122.913 155.284 122.913 153.012 120.65C150.74 118.388 150.74 114.746 150.74 107.463V92.6784Z" fill="white"/>
</g>
<path opacity="0.3" d="M150.74 83.211C150.74 79.907 153.43 77.2285 156.748 77.2285H212.729C216.047 77.2285 218.736 79.907 218.736 83.211V86.2022H150.74V83.211Z" fill="#80BFFE"/>
<path opacity="0.4" d="M159.752 81.7153C159.752 82.8574 158.851 83.7547 157.704 83.7547C156.557 83.7547 155.656 82.8574 155.656 81.7153C155.656 80.5731 156.557 79.6758 157.704 79.6758C158.851 79.6758 159.752 80.5731 159.752 81.7153Z" fill="#0061BF"/>
<path opacity="0.4" d="M165.487 81.7153C165.487 82.8574 164.586 83.7547 163.439 83.7547C162.292 83.7547 161.391 82.8574 161.391 81.7153C161.391 80.5731 162.292 79.6758 163.439 79.6758C164.586 79.6758 165.487 80.5731 165.487 81.7153Z" fill="#0061BF"/>
<path d="M158.934 98.8461C158.934 97.7197 159.851 96.8066 160.982 96.8066L-nan -nanL160.982 96.8066C162.113 96.8066 163.03 97.7197 163.03 98.8461V113.938H158.934V98.8461Z" fill="#EBEFF2"/>
<path d="M166.307 100.477C166.307 99.3506 167.224 98.4375 168.355 98.4375L-nan -nanL168.355 98.4375C169.486 98.4375 170.403 99.3506 170.403 100.477V113.938H166.307V100.477Z" fill="#EBEFF2"/>
<path d="M173.68 102.924C173.68 101.798 174.597 100.885 175.728 100.885L-nan -nanL175.728 100.885C176.859 100.885 177.776 101.798 177.776 102.924V113.937H173.68V102.924Z" fill="#EBEFF2"/>
<path fill-rule="evenodd" clip-rule="evenodd" d="M156.462 92.1836C156.764 92.1836 157.008 92.4271 157.008 92.7275V116.52H181.274C181.575 116.52 181.82 116.763 181.82 117.064C181.82 117.364 181.575 117.608 181.274 117.608H156.462C156.161 117.608 155.916 117.364 155.916 117.064V92.7275C155.916 92.4271 156.161 92.1836 156.462 92.1836Z" fill="#EBEFF2"/>
<path fill-rule="evenodd" clip-rule="evenodd" d="M156.462 92.1836C156.607 92.1836 156.746 92.2409 156.848 92.3429L158.474 93.9619C158.687 94.1743 158.687 94.5186 158.474 94.731C158.261 94.9434 157.915 94.9434 157.702 94.731L156.462 93.4967L155.223 94.7309C155.01 94.9433 154.664 94.9434 154.451 94.7311C154.238 94.5188 154.238 94.1744 154.451 93.962L156.076 92.343C156.178 92.2409 156.317 92.1836 156.462 92.1836Z" fill="#EBEFF2"/>
<path d="M191.701 98.8461C191.701 97.7197 192.618 96.8066 193.749 96.8066L-nan -nanL193.749 96.8066C194.88 96.8066 195.797 97.7197 195.797 98.8461V113.938H191.701V98.8461Z" fill="#EBEFF2"/>
<path d="M199.074 100.477C199.074 99.3506 199.991 98.4375 201.122 98.4375L-nan -nanL201.122 98.4375C202.253 98.4375 203.17 99.3506 203.17 100.477V113.938H199.074V100.477Z" fill="#EBEFF2"/>
<path d="M206.447 102.924C206.447 101.798 207.364 100.885 208.495 100.885L-nan -nanL208.495 100.885C209.626 100.885 210.543 101.798 210.543 102.924V113.937H206.447V102.924Z" fill="#EBEFF2"/>
<path fill-rule="evenodd" clip-rule="evenodd" d="M189.23 92.1836C189.531 92.1836 189.776 92.4271 189.776 92.7275V116.52H214.041C214.343 116.52 214.587 116.763 214.587 117.064C214.587 117.364 214.343 117.608 214.041 117.608H189.23C188.928 117.608 188.684 117.364 188.684 117.064V92.7275C188.684 92.4271 188.928 92.1836 189.23 92.1836Z" fill="#EBEFF2"/>
<path fill-rule="evenodd" clip-rule="evenodd" d="M189.23 92.1836C189.375 92.1836 189.513 92.2409 189.616 92.3429L191.242 93.9619C191.455 94.1743 191.455 94.5186 191.242 94.731C191.028 94.9434 190.683 94.9434 190.469 94.731L189.23 93.4967L187.991 94.7309C187.778 94.9433 187.432 94.9434 187.219 94.7311C187.005 94.5188 187.005 94.1744 187.218 93.962L188.843 92.343C188.946 92.2409 189.085 92.1836 189.23 92.1836Z" fill="#EBEFF2"/>
<g clip-path="url(#clip1_15064_24836)">
<path d="M444.647 86.8282L444.629 85.4733H443.268C443.173 85.4724 443.078 85.4724 442.983 85.4733C434.741 85.5517 428.122 92.2694 428.201 100.478C428.28 108.686 435.026 115.276 443.268 115.198C451.507 115.189 458.184 108.541 458.194 100.336V98.9815H444.629L444.647 86.8282Z" fill="#0061BF"/>
<path opacity="0.3" d="M447.375 82.7676V96.2743H460.937C460.902 88.8298 454.851 82.8032 447.375 82.7676Z" fill="#495B6D"/>
</g>
<path d="M481.552 27.1934H129.052C124.742 27.1934 121.248 30.4781 121.248 34.5301V59.8249H489.356V34.5301C489.356 30.4781 485.862 27.1934 481.552 27.1934Z" fill="#EAF4FE"/>
<path d="M141.423 42.9652C141.423 45.0678 139.712 46.7722 137.6 46.7722C135.489 46.7722 133.777 45.0678 133.777 42.9652C133.777 40.8627 135.489 39.1582 137.6 39.1582C139.712 39.1582 141.423 40.8627 141.423 42.9652Z" fill="#FF6259"/>
<path d="M154.531 42.9652C154.531 45.0678 152.819 46.7722 150.708 46.7722C148.596 46.7722 146.885 45.0678 146.885 42.9652C146.885 40.8627 148.596 39.1582 150.708 39.1582C152.819 39.1582 154.531 40.8627 154.531 42.9652Z" fill="#FFBE2F"/>
<path d="M167.638 42.9652C167.638 45.0678 165.927 46.7722 163.815 46.7722C161.704 46.7722 159.992 45.0678 159.992 42.9652C159.992 40.8627 161.704 39.1582 163.815 39.1582C165.927 39.1582 167.638 40.8627 167.638 42.9652Z" fill="#29CD41"/>
<ellipse opacity="0.1" cx="122.884" cy="409.07" rx="62.8077" ry="4.91538" fill="#FF7300"/>
<path d="M94.2285 156.77C94.2285 156.77 94.4744 167.148 94.8433 169.953C95.2122 172.756 103.161 178.42 109.138 171.957L107.349 156.363C107.349 156.363 99.8476 152.873 94.2285 156.77Z" fill="#FFC6AD"/>
<path d="M106.583 132.924C106.583 132.924 109.62 136.651 111.32 146.901C113.02 157.15 112.881 159.389 108.178 160.694C103.475 161.997 93.9971 160.658 87.6862 156.592C81.3755 152.523 81.5446 133.255 91.1705 130.654C100.795 128.055 106.583 132.924 106.583 132.924Z" fill="#FFC6AD"/>
<path d="M111.846 158.14C111.262 159.471 110.104 160.161 108.179 160.695C103.476 161.998 93.998 160.659 87.6872 156.593C83.367 153.808 82.0852 143.899 84.7931 137.092L95.9776 145.477C95.9776 145.477 96.328 152.587 104.549 150.923C104.549 150.923 107.435 162.129 111.846 158.14Z" fill="#FFC6AD"/>
<path d="M102.625 152.494C95.5923 153.109 93.6911 146.795 96.7235 144.772C99.7559 142.75 102.747 146.255 102.747 146.255C102.747 146.255 103.983 147.643 105.052 147.6C106.12 147.557 105.948 143.161 105.695 137.658C105.695 137.658 111.109 137.859 113.064 132.4C115.021 126.942 111.455 119.746 98.6785 124.637C98.6785 124.637 78.7766 123.788 83.5302 134.369C83.5302 134.369 77.2841 134.465 79.5112 145.281C81.7383 156.098 94.3751 168.232 102.625 152.494Z" fill="#292466"/>
<path d="M65.9248 366.563L59.0977 386.84C59.0977 386.84 59.1115 392.963 63.9529 395.025C68.7958 397.09 72.6689 391.769 72.6689 391.769L81.7015 372.821C81.7015 372.821 80.3506 365.602 65.9248 366.563Z" fill="#FFC6AD"/>
<path d="M59.0964 386.84C59.0964 386.84 64.9535 393.081 73.9508 389.423C73.9508 389.423 86.105 400.571 90.1595 403.193C90.1595 403.193 90.1256 407.653 86.7998 406.796C83.4723 405.938 58.8935 399.6 56.9216 399.091C54.9511 398.582 53.714 394.717 59.0964 386.84Z" fill="#FFB156"/>
<path d="M90.1627 403.193C90.1627 403.193 90.1289 407.653 86.8031 406.795C83.477 405.937 58.8967 399.599 56.9248 399.09C55.703 398.775 54.7639 397.168 55.5093 394.115C55.4555 394.53 55.8013 396.854 68.8777 400.226C83.3434 403.956 84.8711 404.35 84.8711 404.35C84.8711 404.35 86.8583 405.035 90.1627 403.193Z" fill="#FFB156"/>
<path d="M130.037 374.174L131.9 395.267C131.9 395.267 135.19 400.947 140.452 400.737C145.711 400.526 146.93 394.059 146.93 394.059L146.974 373.069C146.974 373.069 142.66 367.125 130.037 374.174Z" fill="#FFC6AD"/>
<path d="M131.899 395.267C131.899 395.267 139.131 399.847 146.929 394.059C146.929 394.059 161.482 401.819 166.063 403.345C166.063 403.345 167.145 407.671 163.708 407.671C160.273 407.671 134.89 407.671 132.854 407.671C130.817 407.671 128.655 404.236 131.899 395.267Z" fill="#FFB156"/>
<path d="M166.062 403.346C166.062 403.346 167.144 407.672 163.707 407.672C160.272 407.672 134.889 407.672 132.853 407.672C131.591 407.672 130.28 406.35 130.24 403.207C130.291 403.624 131.207 405.786 144.711 405.786C159.65 405.786 161.227 405.786 161.227 405.786C161.227 405.786 163.321 405.955 166.062 403.346Z" fill="#FFB156"/>
<path d="M83.0631 250.392C83.0631 250.392 79.0303 259.875 80.5857 274.669C82.1409 289.466 82.5958 316.853 82.5958 316.853C82.5958 316.853 67.6475 350.827 60.5039 378.773L76.6847 385.271C76.6847 385.271 101.548 333.77 105.506 323.6C109.462 313.431 113.107 255.035 114.744 239.304C116.381 223.575 90.8692 230.206 83.0631 250.392Z" fill="#3A67B3"/>
<g opacity="0.7" filter="url(#filter7_f_15064_24836)">
<path d="M113.429 248.102L109.481 283.836L95.7539 250.791L113.429 248.102Z" fill="#051F39"/>
</g>
<path d="M130.708 243.112C130.708 243.112 138.623 272.89 142.412 310.341C146.199 347.791 147.671 388.608 147.671 388.608H129.998C129.998 388.608 122.214 324.437 120.32 316.232C118.426 308.026 101.043 255.939 98.6489 245.117C96.2543 234.294 118.847 221.553 130.708 243.112Z" fill="#3A67B3"/>
<path d="M57.9883 253.308L59.2363 260.346C59.2363 260.346 58.4323 262.651 58.8766 265.319C59.3222 267.989 59.8156 271.498 62.9294 271.893C66.045 272.288 72.8151 270.311 73.9526 269.274C75.0897 268.236 72.9151 262.453 72.9151 262.453C72.9151 262.453 74.1508 262.7 74.8424 261.81C75.5341 260.92 74.7439 259.783 72.371 258.498C69.9994 257.213 70.6141 257.53 70.6141 257.53L69.9257 251.038C69.9257 251.038 62.115 248.588 57.9883 253.308Z" fill="#FFC6AD"/>
<path d="M57.9883 253.308L59.2363 260.344C59.2363 260.344 58.4323 262.651 58.8782 265.319C58.8782 265.319 60.6441 261.08 63.011 259.871C65.3164 258.692 70.3407 257.588 70.6035 257.531C70.4605 257.45 70.6141 257.53 70.6141 257.53L69.9257 251.038C69.9257 251.038 62.115 248.588 57.9883 253.308Z" fill="#FFC6AD"/>
<path d="M76.9997 172.742C76.9997 172.742 71.9645 177.977 65.5586 188.897C59.1526 199.819 52.888 214.008 51.7876 216.704C50.6871 219.399 50.7362 222.297 51.958 231.922C53.1799 241.547 58.2149 258.999 58.2149 258.999L71.4619 256.649L67.7978 222.089C67.7978 222.089 82.6739 204.219 90.0313 193.228C97.3873 182.238 87.6415 164.085 76.9997 172.742Z" fill="url(#paint4_linear_15064_24836)"/>
<path d="M69.7323 256.956L71.4631 256.649L67.799 222.089C67.799 222.089 79.572 207.948 87.3505 197.088C85.1988 192.139 80.534 189.778 72.0178 192.06L71.5338 211.848L61.8555 225.683C61.8555 225.683 64.6958 225.077 65.4581 225.183C66.2204 225.288 67.4315 234.494 68.0632 238.385C68.5844 241.605 69.4497 253.083 69.7323 256.956Z" fill="url(#paint5_linear_15064_24836)"/>
<path d="M182.959 150.457L186.31 144.145C186.31 144.145 188.363 142.823 189.656 140.447C190.949 138.069 192.721 135 190.51 132.771C188.3 130.543 181.748 127.93 180.213 128.047C178.679 128.165 176.83 134.061 176.83 134.061C176.83 134.061 176.009 133.105 174.917 133.38C173.824 133.655 173.746 135.037 174.824 137.511C175.902 139.984 175.611 139.356 175.611 139.356L172.156 144.895C172.156 144.895 176.801 151.634 182.959 150.457Z" fill="#FFC6AD"/>
<path d="M182.959 150.457L186.31 144.145C186.31 144.145 188.363 142.823 189.656 140.447C189.656 140.447 185.654 142.698 183.042 142.194C180.502 141.702 175.863 139.477 175.622 139.361C175.683 139.512 175.611 139.355 175.611 139.355L172.156 144.894C172.156 144.894 176.801 151.634 182.959 150.457Z" fill="#FFC6AD"/>
<path d="M77.0001 172.741C77.0001 172.741 87.2423 165.45 95.2651 163.847C97.8533 163.329 105.472 164.735 113.681 165.974L154.136 172.082C154.136 172.082 169.835 146.888 174.612 139.752L186.318 145.978C186.318 145.978 176.51 167.754 170.984 177.655C165.457 187.556 165.908 189.572 152.954 189.723C140.001 189.873 123.512 188.839 123.512 188.839C123.512 188.839 131.976 242.949 130.707 243.112C129.437 243.275 103.403 252.624 83.0632 250.394C83.0632 250.394 76.001 216.655 73.0008 203.91C70.0005 191.166 74.209 175.69 77.0001 172.741Z" fill="url(#paint6_linear_15064_24836)"/>
<path d="M92.1925 164.683C92.1925 164.683 91.9773 163.091 95.1864 162.353C98.394 161.617 107.073 162.933 109.494 163.458C111.913 163.984 111.984 165.713 111.984 165.713C111.984 165.713 97.9207 163.432 92.1925 164.683Z" fill="#FF9933"/>
<g filter="url(#filter8_d_15064_24836)">
<rect x="162.754" y="221.895" width="76.841" height="44.5965" rx="6.55385" fill="white"/>
</g>
<rect x="168.41" y="238.857" width="65.5276" height="3.77134" rx="1.88567" fill="#EBEFF2"/>
<rect x="168.41" y="244.986" width="44.2311" height="1.88567" rx="0.942834" fill="#EBEFF2"/>
<rect x="168.41" y="253.943" width="65.5276" height="3.77134" rx="1.88567" fill="#EBEFF2"/>
<rect x="168.41" y="260.07" width="44.2311" height="1.88567" rx="0.942834" fill="#EBEFF2"/>
<circle cx="170.06" cy="230.136" r="1.64996" fill="#D8DEE6"/>
<circle cx="175.716" cy="230.136" r="1.64996" fill="#D8DEE6"/>
<circle cx="181.375" cy="230.136" r="1.64996" fill="#D8DEE6"/>
<path d="M519.11 109.859H519.536C519.536 114.811 523.567 118.824 528.539 118.824V119.249C523.567 119.249 519.536 123.262 519.536 128.214H519.11C519.11 123.262 515.08 119.249 510.107 119.249V118.824C515.08 118.824 519.11 114.811 519.11 109.859Z" fill="url(#paint7_linear_15064_24836)"/>
<ellipse opacity="0.1" cx="338.068" cy="416.447" rx="60.6231" ry="3.27692" fill="#FF7300"/>
<path d="M389.118 361.99C393.298 355.665 408.295 358.982 426.185 344.951C436.518 336.771 441.175 329.372 444.874 317.851C448.027 308.171 459.591 275.796 474.879 275.875C481.051 275.911 487.21 277.149 492.343 280.271C499.45 284.685 504.748 291.256 508.193 298.349C511.733 305.45 513.515 313.081 514.912 320.764C516.802 331.411 518.121 338.915 515.755 349.352C511.683 367.11 497.713 381.921 477.922 384.359C457.936 386.866 440.349 383.834 417.189 381.505C408.33 380.713 380.428 375.126 389.118 361.99Z" fill="#D8DEE6"/>
<path d="M351.401 388.941C350.092 389.804 347.396 394.712 343.141 396.812C340.119 398.298 332.822 397.818 323.388 399.189C322.656 399.295 321.876 399.419 321.289 399.87C320.191 400.723 320.182 402.468 320.933 403.637C321.674 404.807 322.974 405.497 324.225 406.082C332.86 410.156 341.929 410.069 343.777 410.731C346.28 411.642 347.81 413.731 350.467 413.549C352.778 413.396 354.27 411.086 354.79 408.842C355.358 406.379 355.415 405.478 356.06 403.407C360.364 398.93 362.183 395.623 361.885 391.348C358.198 389.699 356.311 390.916 351.401 388.941Z" fill="#D79173"/>
<path d="M441.969 326.842C424.207 327.839 389.628 331.299 384.285 333.591C376.632 336.859 355.646 369.74 342.92 390.945C347.733 395.24 353.037 398.988 358.236 401.912C368.459 387.676 379.424 373.977 390.225 361.966C409.969 357.92 430.08 355.658 450.238 355.227C451.249 346.062 450.517 334.683 441.969 326.842Z" fill="#264B89"/>
<path d="M460.346 227.732C464.803 232.171 465.64 242.754 465.361 248.371C465.082 253.989 464.995 260.153 468.471 264.582C470.714 267.448 474.141 269.135 476.749 271.675C482.006 276.814 483.286 285.269 480.542 292.075C477.808 298.881 471.513 303.943 464.466 306.071C457.419 308.189 449.727 307.566 442.748 305.227C435.807 302.898 428.837 298.047 427.644 290.858C426.354 283.102 432.178 275.769 432.091 267.908C432.034 263.24 429.906 258.887 428.193 254.545C426.479 250.202 424.246 236.398 426.181 234.836C430.686 231.193 434.488 232.334 440.178 231.193C445.857 230.062 449.727 226.007 460.346 227.732Z" fill="#292466"/>
<path d="M343.074 388.943C340.485 390.947 337.895 392.95 335.257 394.772C326.122 392.059 326.757 392.711 317.621 389.988C316.909 389.777 316.158 389.566 315.436 389.729C314.079 390.036 313.337 391.618 313.52 392.998C313.703 394.379 314.579 395.539 315.465 396.603C321.568 403.927 329.837 407.656 331.224 409.036C333.111 410.915 333.611 413.446 336.095 414.404C338.251 415.238 340.764 413.887 342.006 411.95C343.247 410.004 343.536 407.627 343.652 406.007C346.453 403.361 349.553 401.022 351.998 398.913C349.341 395.845 346.694 392.787 343.074 388.943Z" fill="#FFC6AD"/>
<path d="M478.002 320.508C480.601 327.151 484.587 331.704 485.366 344.876C486.156 358.105 477.107 368.17 461.646 370.069C443.798 372.264 424.612 368.324 407.13 368.094C404.185 368.055 401.316 368.957 398.89 370.625C380.301 383.432 367.69 394.437 348.802 405.959C346.954 400.773 345.472 395.961 339.532 390.411C357.938 371.267 371.743 361.268 391.891 344.866C394.568 342.69 397.841 341.319 401.297 341.041C414.495 339.949 428.405 341.166 440.804 338.482C439.909 334.417 438.253 325.195 438.715 321.802C452.212 320.019 465.179 316.817 478.002 320.508Z" fill="#3A67B3"/>
<path d="M448.975 280.841C448.513 281.368 447.974 281.943 447.223 282.001C446.424 282.058 445.77 281.492 445.259 280.956C442.622 278.176 440.879 274.763 440.177 271.254C440.831 270.881 441.457 270.526 442.035 270.2C442.564 269.884 442.959 269.443 443.19 268.935C443.344 268.561 443.401 268.158 443.363 267.746C442.988 264.266 442.66 262.339 441.438 258.811C447.262 257.508 452.749 255.945 455.907 253.328C456.292 254.948 456.744 258.112 457.716 261.246C458.746 264.573 460.364 267.861 463.098 269.27C457.716 272.414 452.922 276.345 448.975 280.841Z" fill="#FFC6AD"/>
<path d="M475.652 275.931C479.185 280.542 481.226 315.072 479.503 324.524C467.845 329.931 450.96 329.231 438.079 326.537C438.407 319.894 436.25 308.505 434.46 303.712C431.745 294.826 429.925 290.828 427.711 278.702C431.697 276.008 436.491 273.334 440.178 271.244C440.881 274.762 442.623 278.175 445.261 280.945C445.771 281.482 446.435 282.047 447.225 281.99C447.975 281.942 448.515 281.357 448.977 280.83C452.933 276.324 457.718 272.404 463.089 269.24C463.301 269.346 463.503 269.47 463.725 269.557C471.638 272.595 473.756 273.458 475.652 275.931Z" fill="#80BFFE"/>
<path d="M443.355 267.736C443.394 268.148 443.346 268.551 443.182 268.925C446.629 273.085 454.33 267.65 457.699 261.227C456.727 258.092 456.274 254.929 455.889 253.309C452.741 255.935 447.245 257.488 441.421 258.792C442.653 262.32 442.99 264.256 443.355 267.736Z" fill="#FFB393"/>
<path d="M427.713 278.742C424.719 281.398 424.007 315.419 421.697 317.471C420.464 318.563 405.996 325.906 397.977 329.818C400.739 331.562 403.213 333.767 405.274 336.336C414.506 334.822 428.349 330.978 431.689 328.495C435.857 325.398 435.935 306.197 437.08 294.761C434.433 289.642 433.412 283.909 427.713 278.742Z" fill="#5BA7F4"/>
<path d="M428.878 334.418C431.968 335.674 432.17 335.799 435 334.025C437.542 332.434 439.525 330.708 439.525 325.484C439.525 307.989 436.627 287.1 441.777 270.344C437.108 272.932 432.728 274.792 428.637 277.802C427.405 278.713 427.077 280.237 427.077 281.771C427.068 311.133 427.848 316.07 428.878 334.418Z" fill="#80BFFE"/>
<path d="M445.819 338.722L445.857 340.966L415.119 341.646L374.052 337.649L373.908 334.533L445.819 338.722Z" fill="#292466"/>
<path d="M445.857 338.713L387.703 331.82L381.368 335.406L415.312 339L445.857 338.713Z" fill="#1A1740"/>
<path d="M346.781 299.152L348.176 297.445L393.537 299.152L416.555 339.011L415.351 340.171L346.781 299.152Z" fill="#1A1740"/>
<path d="M392.652 300.617L415.352 340.17L372.003 336.038L346.781 299.15L392.652 300.617Z" fill="#292466"/>
<path d="M432.44 247.258C429.542 245.801 426.25 246.462 425.095 248.734C423.939 251.016 425.345 254.045 428.252 255.502C431.15 256.959 434.442 256.298 435.597 254.026C436.752 251.744 435.337 248.715 432.44 247.258Z" fill="#FFC6AD"/>
<path d="M425.644 240.588C426.183 244.384 427.887 248.573 430.37 253.204C431.237 249.417 431.795 244.796 432.575 240.185C433.355 235.555 434.356 230.935 436.089 227.158C436.483 226.324 436.897 225.519 437.359 224.78C436.329 224.685 435.299 224.78 434.308 225.049C432.758 225.461 431.314 226.257 430.13 227.321C428.166 229.065 426.847 231.443 426.058 233.945C425.403 236.006 425.288 238.22 425.644 240.588Z" fill="#292466"/>
<path d="M428.559 244.509C428.588 245.256 428.636 246.014 428.703 246.78C429.762 259.07 434.941 267.506 442.874 267.506C454.07 267.506 461.328 255.005 461.328 242.745C461.328 230.656 453.896 221.914 445.194 222.93C440.178 223.505 436.511 225.163 433.911 227.598C432.188 229.218 430.946 231.174 430.099 233.388C429.127 235.881 428.665 238.699 428.569 241.738C428.569 241.748 428.559 241.757 428.559 241.767C428.511 242.658 428.52 243.579 428.559 244.509Z" fill="#FFC6AD"/>
<path d="M426.942 236.945C428.483 238.24 430.408 239.313 432.564 240.176C438.716 242.649 446.715 243.464 452.944 243.167C456.005 249.868 457.247 252.274 458.027 258.112C461.021 255.313 463.456 250.194 464.178 246.167C464.891 242.151 464.823 237.952 463.697 234.002C461.926 227.791 457.468 224.455 454.378 222.844C453.608 222.422 452.915 222.135 452.376 221.914C448.429 220.4 443.972 220.534 439.929 221.77C437.715 222.451 435.857 223.611 434.297 225.03C431.14 227.877 429.185 231.721 427.924 234.606C427.53 235.507 427.202 236.303 426.942 236.945Z" fill="#292466"/>
<path d="M464.207 250.501C463.023 248.239 459.721 247.616 456.842 249.111C453.964 250.606 452.587 253.655 453.771 255.917C454.955 258.18 458.257 258.803 461.136 257.307C464.024 255.812 465.391 252.763 464.207 250.501Z" fill="#FFC6AD"/>
<path d="M449.383 248.122C447.313 246.943 445.542 246.167 443.116 247.576" stroke="#292466" stroke-width="1.09231" stroke-miterlimit="10" stroke-linecap="round"/>
<path d="M435.443 247.77C433.672 246.456 431.4 246.677 430.033 248.124" stroke="#292466" stroke-width="1.09231" stroke-miterlimit="10" stroke-linecap="round"/>
<path d="M437.792 253.125C437.609 254.985 437.735 256.864 438.158 258.685" stroke="#292466" stroke-width="1.09231" stroke-miterlimit="10" stroke-linecap="round"/>
<path d="M439.448 261.343C442.336 261.764 444.3 260.882 445.85 258.773" stroke="#292466" stroke-width="1.09231" stroke-miterlimit="10" stroke-linecap="round"/>
<path d="M445.417 254.764C444.943 254.764 444.56 254.163 444.56 253.422C444.56 252.681 444.943 252.08 445.417 252.08C445.89 252.08 446.273 252.681 446.273 253.422C446.273 254.163 445.89 254.764 445.417 254.764Z" fill="#292466"/>
<path d="M433.923 254.764C433.449 254.764 433.066 254.163 433.066 253.422C433.066 252.681 433.449 252.08 433.923 252.08C434.396 252.08 434.779 252.681 434.779 253.422C434.779 254.163 434.396 254.764 433.923 254.764Z" fill="#292466"/>
<path d="M461.53 268.166C457.198 271.272 456.091 277.139 455.533 282.421C453.935 297.567 454.07 312.886 455.928 328.003C456.303 331.052 456.794 334.225 458.604 336.708C460.924 339.9 464.957 341.338 468.827 342.191C474.671 343.475 480.726 343.83 487.311 342.689C482.565 329.643 480.543 317.315 481.111 303.453C481.371 297.251 481.188 291.624 480.62 285.373C479.782 276.027 472.707 272.096 461.53 268.166Z" fill="#80BFFE"/>
<path d="M435.779 328.14C432.304 327.048 428.819 325.945 425.19 324.824C421.734 324.306 418.066 325.437 415.515 328.073C414.658 329.646 414.148 331.409 414.042 333.192C414.023 333.576 414.013 333.969 414.148 334.324C414.273 334.678 414.562 335.004 414.947 335.081C415.38 335.167 415.823 334.899 416.083 334.544C416.343 334.189 416.458 333.748 416.593 333.327C417.103 331.726 417.903 330.221 419.077 328.783C418.268 330.748 418.297 332.943 418.384 335.062C418.403 335.531 418.432 336.02 418.673 336.423C418.913 336.826 419.424 337.113 419.857 336.941C420.309 336.758 420.463 336.222 420.559 335.752C420.906 334.113 421.262 332.483 421.397 330.623C421.358 332.445 421.407 334.266 421.522 336.087C421.561 336.672 421.638 337.314 422.061 337.717C422.36 337.995 422.802 338.101 423.197 337.995C423.592 337.89 423.919 337.564 424.083 337.104C424.198 337.497 424.323 337.909 424.593 338.216C424.863 338.532 425.315 338.724 425.7 338.58C426.114 338.417 426.297 337.938 426.403 337.497C426.644 336.48 426.749 335.436 426.451 334.669C428.088 335.656 430.051 336.097 431.957 335.924C433.864 335.752 435.702 334.947 436.857 333.691C436.732 331.726 436.299 329.77 435.779 328.14Z" fill="#F5A48B"/>
<path d="M474.373 274.639C477.165 276.067 479.071 278.857 480.043 281.838C481.006 284.81 481.141 287.992 481.121 291.117C481.044 305.075 479.167 326.874 473.199 330.306C465.94 334.486 448.448 336.69 435.116 336.326C435.414 333.508 435.972 330.363 434.095 327.641C445.166 326.069 458.999 321.132 461.339 318.802C464.082 316.07 462.099 297.233 464.66 284.292C465.401 280.505 468.53 275.674 474.373 274.639Z" fill="#5BA7F4"/>
<path d="M373.634 318.712C374.029 320.545 376.001 321.854 378.104 321.854C380.208 321.854 381.654 320.414 381.259 318.581C380.865 316.749 378.893 315.439 376.79 315.439C374.686 315.439 373.24 316.879 373.634 318.712Z" fill="white"/>
<path d="M472.249 32.3326C479.091 32.3326 484.637 26.7994 484.637 19.9739C484.637 13.1484 479.091 7.61523 472.249 7.61523C465.408 7.61523 459.861 13.1484 459.861 19.9739C459.861 26.7994 465.408 32.3326 472.249 32.3326Z" fill="url(#paint8_linear_15064_24836)"/>
<path d="M477.486 21.25C477.486 24.1365 475.144 26.4728 472.251 26.4728C469.357 26.4728 467.016 24.1365 467.016 21.25H477.486Z" fill="white"/>
<path d="M470.035 18.2212C469.798 18.2212 469.611 18.0349 469.611 17.7979C469.611 16.8583 468.847 16.0965 467.905 16.0965C466.964 16.0965 466.2 16.8583 466.2 17.7979C466.2 18.0349 466.013 18.2212 465.776 18.2212C465.538 18.2212 465.352 18.0349 465.352 17.7979C465.352 16.3928 466.497 15.25 467.905 15.25C469.314 15.25 470.459 16.3928 470.459 17.7979C470.459 18.0349 470.273 18.2212 470.035 18.2212Z" fill="white"/>
<path d="M478.25 18.2212C478.012 18.2212 477.826 18.0349 477.826 17.7979C477.826 16.8583 477.062 16.0965 476.12 16.0965C475.179 16.0965 474.415 16.8583 474.415 17.7979C474.415 18.0349 474.228 18.2212 473.991 18.2212C473.753 18.2212 473.566 18.0349 473.566 17.7979C473.566 16.3928 474.712 15.25 476.12 15.25C477.529 15.25 478.674 16.3928 478.674 17.7979C478.674 18.0349 478.488 18.2212 478.25 18.2212Z" fill="white"/>
<path opacity="0.2" d="M271.936 294.832H273.639C273.639 299.783 277.67 303.796 282.641 303.796V305.492C277.669 305.492 273.639 309.505 273.639 314.457H271.936C271.936 309.505 267.906 305.492 262.934 305.492V303.796C267.906 303.796 271.936 299.782 271.936 294.832Z" fill="url(#paint9_linear_15064_24836)"/>
<path d="M256.242 269.756H256.668C256.668 274.707 260.699 278.721 265.67 278.721V279.145C260.698 279.145 256.667 283.159 256.667 288.11H256.241C256.241 283.159 252.21 279.145 247.238 279.145V278.721C252.212 278.721 256.242 274.707 256.242 269.756Z" fill="url(#paint10_linear_15064_24836)"/>
<path opacity="0.2" d="M242.464 325.555C242.464 330.345 246.364 334.228 251.174 334.228C246.364 334.228 242.464 338.111 242.464 342.902C242.464 338.111 238.564 334.228 233.754 334.228C238.564 334.227 242.464 330.345 242.464 325.555Z" fill="url(#paint11_linear_15064_24836)"/>
</g>
<defs>
<filter id="filter0_d_15064_24836" x="77.6651" y="27.079" width="455.383" height="316.892" filterUnits="userSpaceOnUse" color-interpolation-filters="sRGB">
<feFlood flood-opacity="0" result="BackgroundImageFix"/>
<feColorMatrix in="SourceAlpha" type="matrix" values="0 0 0 0 0 0 0 0 0 0 0 0 0 0 0 0 0 0 127 0" result="hardAlpha"/>
<feOffset dy="16.3846"/>
<feGaussianBlur stdDeviation="21.8462"/>
<feComposite in2="hardAlpha" operator="out"/>
<feColorMatrix type="matrix" values="0 0 0 0 0.117647 0 0 0 0 0.129412 0 0 0 0 0.176471 0 0 0 0.09 0"/>
<feBlend mode="normal" in2="BackgroundImageFix" result="effect1_dropShadow_15064_24836"/>
<feBlend mode="normal" in="SourceGraphic" in2="effect1_dropShadow_15064_24836" result="shape"/>
</filter>
<filter id="filter1_d_15064_24836" x="204.251" y="52.4433" width="223.944" height="141.751" filterUnits="userSpaceOnUse" color-interpolation-filters="sRGB">
<feFlood flood-opacity="0" result="BackgroundImageFix"/>
<feColorMatrix in="SourceAlpha" type="matrix" values="0 0 0 0 0 0 0 0 0 0 0 0 0 0 0 0 0 0 127 0" result="hardAlpha"/>
<feOffset dy="14.5454"/>
<feGaussianBlur stdDeviation="19.3938"/>
<feComposite in2="hardAlpha" operator="out"/>
<feColorMatrix type="matrix" values="0 0 0 0 0.117647 0 0 0 0 0.129412 0 0 0 0 0.176471 0 0 0 0.08 0"/>
<feBlend mode="normal" in2="BackgroundImageFix" result="effect1_dropShadow_15064_24836"/>
<feBlend mode="normal" in="SourceGraphic" in2="effect1_dropShadow_15064_24836" result="shape"/>
</filter>
<filter id="filter2_d_15064_24836" x="108.675" y="137.83" width="149.315" height="120.169" filterUnits="userSpaceOnUse" color-interpolation-filters="sRGB">
<feFlood flood-opacity="0" result="BackgroundImageFix"/>
<feColorMatrix in="SourceAlpha" type="matrix" values="0 0 0 0 0 0 0 0 0 0 0 0 0 0 0 0 0 0 127 0" result="hardAlpha"/>
<feOffset dy="14.5454"/>
<feGaussianBlur stdDeviation="19.3938"/>
<feComposite in2="hardAlpha" operator="out"/>
<feColorMatrix type="matrix" values="0 0 0 0 0.117647 0 0 0 0 0.129412 0 0 0 0 0.176471 0 0 0 0.08 0"/>
<feBlend mode="normal" in2="BackgroundImageFix" result="effect1_dropShadow_15064_24836"/>
<feBlend mode="normal" in="SourceGraphic" in2="effect1_dropShadow_15064_24836" result="shape"/>
</filter>
<filter id="filter3_d_15064_24836" x="228.83" y="137.83" width="149.315" height="120.169" filterUnits="userSpaceOnUse" color-interpolation-filters="sRGB">
<feFlood flood-opacity="0" result="BackgroundImageFix"/>
<feColorMatrix in="SourceAlpha" type="matrix" values="0 0 0 0 0 0 0 0 0 0 0 0 0 0 0 0 0 0 127 0" result="hardAlpha"/>
<feOffset dy="14.5454"/>
<feGaussianBlur stdDeviation="19.3938"/>
<feComposite in2="hardAlpha" operator="out"/>
<feColorMatrix type="matrix" values="0 0 0 0 0.117647 0 0 0 0 0.129412 0 0 0 0 0.176471 0 0 0 0.08 0"/>
<feBlend mode="normal" in2="BackgroundImageFix" result="effect1_dropShadow_15064_24836"/>
<feBlend mode="normal" in="SourceGraphic" in2="effect1_dropShadow_15064_24836" result="shape"/>
</filter>
<filter id="filter4_d_15064_24836" x="348.982" y="137.83" width="149.315" height="120.169" filterUnits="userSpaceOnUse" color-interpolation-filters="sRGB">
<feFlood flood-opacity="0" result="BackgroundImageFix"/>
<feColorMatrix in="SourceAlpha" type="matrix" values="0 0 0 0 0 0 0 0 0 0 0 0 0 0 0 0 0 0 127 0" result="hardAlpha"/>
<feOffset dy="14.5454"/>
<feGaussianBlur stdDeviation="19.3938"/>
<feComposite in2="hardAlpha" operator="out"/>
<feColorMatrix type="matrix" values="0 0 0 0 0.117647 0 0 0 0 0.129412 0 0 0 0 0.176471 0 0 0 0.08 0"/>
<feBlend mode="normal" in2="BackgroundImageFix" result="effect1_dropShadow_15064_24836"/>
<feBlend mode="normal" in="SourceGraphic" in2="effect1_dropShadow_15064_24836" result="shape"/>
</filter>
<filter id="filter5_d_15064_24836" x="233.199" y="211.793" width="134.831" height="111.575" filterUnits="userSpaceOnUse" color-interpolation-filters="sRGB">
<feFlood flood-opacity="0" result="BackgroundImageFix"/>
<feColorMatrix in="SourceAlpha" type="matrix" values="0 0 0 0 0 0 0 0 0 0 0 0 0 0 0 0 0 0 127 0" result="hardAlpha"/>
<feOffset dy="14.5454"/>
<feGaussianBlur stdDeviation="19.3938"/>
<feComposite in2="hardAlpha" operator="out"/>
<feColorMatrix type="matrix" values="0 0 0 0 0.117647 0 0 0 0 0.129412 0 0 0 0 0.176471 0 0 0 0.08 0"/>
<feBlend mode="normal" in2="BackgroundImageFix" result="effect1_dropShadow_15064_24836"/>
<feBlend mode="normal" in="SourceGraphic" in2="effect1_dropShadow_15064_24836" result="shape"/>
</filter>
<filter id="filter6_d_15064_24836" x="111.953" y="52.9862" width="145.571" height="123.259" filterUnits="userSpaceOnUse" color-interpolation-filters="sRGB">
<feFlood flood-opacity="0" result="BackgroundImageFix"/>
<feColorMatrix in="SourceAlpha" type="matrix" values="0 0 0 0 0 0 0 0 0 0 0 0 0 0 0 0 0 0 127 0" result="hardAlpha"/>
<feOffset dy="14.5454"/>
<feGaussianBlur stdDeviation="19.3938"/>
<feComposite in2="hardAlpha" operator="out"/>
<feColorMatrix type="matrix" values="0 0 0 0 0.117647 0 0 0 0 0.129412 0 0 0 0 0.176471 0 0 0 0.08 0"/>
<feBlend mode="normal" in2="BackgroundImageFix" result="effect1_dropShadow_15064_24836"/>
<feBlend mode="normal" in="SourceGraphic" in2="effect1_dropShadow_15064_24836" result="shape"/>
</filter>
<filter id="filter7_f_15064_24836" x="55.7539" y="208.102" width="97.6748" height="115.734" filterUnits="userSpaceOnUse" color-interpolation-filters="sRGB">
<feFlood flood-opacity="0" result="BackgroundImageFix"/>
<feBlend mode="normal" in="SourceGraphic" in2="BackgroundImageFix" result="shape"/>
<feGaussianBlur stdDeviation="20" result="effect1_foregroundBlur_15064_24836"/>
</filter>
<filter id="filter8_d_15064_24836" x="123.661" y="197.461" width="155.027" height="122.782" filterUnits="userSpaceOnUse" color-interpolation-filters="sRGB">
<feFlood flood-opacity="0" result="BackgroundImageFix"/>
<feColorMatrix in="SourceAlpha" type="matrix" values="0 0 0 0 0 0 0 0 0 0 0 0 0 0 0 0 0 0 127 0" result="hardAlpha"/>
<feOffset dy="14.6599"/>
<feGaussianBlur stdDeviation="19.5466"/>
<feComposite in2="hardAlpha" operator="out"/>
<feColorMatrix type="matrix" values="0 0 0 0 0.117647 0 0 0 0 0.129412 0 0 0 0 0.176471 0 0 0 0.08 0"/>
<feBlend mode="normal" in2="BackgroundImageFix" result="effect1_dropShadow_15064_24836"/>
<feBlend mode="normal" in="SourceGraphic" in2="effect1_dropShadow_15064_24836" result="shape"/>
</filter>
<linearGradient id="paint0_linear_15064_24836" x1="256.338" y1="16.1272" x2="256.338" y2="459.954" gradientUnits="userSpaceOnUse">
<stop stop-color="#FF7300"/>
<stop offset="1" stop-color="#FF7300" stop-opacity="0"/>
</linearGradient>
<linearGradient id="paint1_linear_15064_24836" x1="100.22" y1="80.6863" x2="80.5018" y2="80.6863" gradientUnits="userSpaceOnUse">
<stop stop-color="#FAB882"/>
<stop offset="1" stop-color="#FF7300"/>
</linearGradient>
<linearGradient id="paint2_linear_15064_24836" x1="83.2494" y1="54.9676" x2="64.8076" y2="54.9676" gradientUnits="userSpaceOnUse">
<stop stop-color="#FAB882"/>
<stop offset="1" stop-color="#FF7300"/>
</linearGradient>
<linearGradient id="paint3_linear_15064_24836" x1="68.7539" y1="110.257" x2="51.3241" y2="110.257" gradientUnits="userSpaceOnUse">
<stop stop-color="#FAB882"/>
<stop offset="1" stop-color="#FF7300"/>
</linearGradient>
<linearGradient id="paint4_linear_15064_24836" x1="92.5824" y1="215.243" x2="50.9625" y2="215.243" gradientUnits="userSpaceOnUse">
<stop stop-color="#FAB882"/>
<stop offset="1" stop-color="#FF7300"/>
</linearGradient>
<linearGradient id="paint5_linear_15064_24836" x1="87.3417" y1="224.447" x2="61.8325" y2="224.447" gradientUnits="userSpaceOnUse">
<stop stop-color="#FAB882"/>
<stop offset="1" stop-color="#FF7300"/>
</linearGradient>
<linearGradient id="paint6_linear_15064_24836" x1="186.279" y1="195.879" x2="71.8638" y2="195.879" gradientUnits="userSpaceOnUse">
<stop stop-color="#FAB882"/>
<stop offset="1" stop-color="#FF7300"/>
</linearGradient>
<linearGradient id="paint7_linear_15064_24836" x1="528.533" y1="119.141" x2="510.091" y2="119.141" gradientUnits="userSpaceOnUse">
<stop stop-color="#FAB882"/>
<stop offset="1" stop-color="#FF7300"/>
</linearGradient>
<linearGradient id="paint8_linear_15064_24836" x1="484.628" y1="20.1153" x2="459.839" y2="20.1153" gradientUnits="userSpaceOnUse">
<stop stop-color="#FAB882"/>
<stop offset="0.484375" stop-color="#FF7300"/>
</linearGradient>
<linearGradient id="paint9_linear_15064_24836" x1="282.634" y1="304.757" x2="262.916" y2="304.757" gradientUnits="userSpaceOnUse">
<stop stop-color="#FAB882"/>
<stop offset="1" stop-color="#FF7300"/>
</linearGradient>
<linearGradient id="paint10_linear_15064_24836" x1="265.663" y1="279.038" x2="247.222" y2="279.038" gradientUnits="userSpaceOnUse">
<stop stop-color="#FAB882"/>
<stop offset="1" stop-color="#FF7300"/>
</linearGradient>
<linearGradient id="paint11_linear_15064_24836" x1="251.168" y1="334.327" x2="233.738" y2="334.327" gradientUnits="userSpaceOnUse">
<stop stop-color="#FAB882"/>
<stop offset="1" stop-color="#FF7300"/>
</linearGradient>
<clipPath id="clip0_15064_24836">
<rect width="568" height="434" fill="white"/>
</clipPath>
<clipPath id="clip1_15064_24836">
<rect width="32.7692" height="32.6316" fill="white" transform="translate(428.186 82.666)"/>
</clipPath>
</defs>
</svg>
