<svg width="40" height="40" viewBox="0 0 40 40" fill="none" xmlns="http://www.w3.org/2000/svg">
<path d="M36.6668 7.78349V27.9002C36.6668 29.5002 35.3668 31.0001 33.7668 31.2001L33.2168 31.2669C29.5835 31.7502 23.9834 33.6001 20.7834 35.3668C20.3501 35.6168 19.6335 35.6168 19.1835 35.3668L19.1168 35.3335C15.9168 33.5835 10.3335 31.7502 6.71688 31.2669L6.23348 31.2001C4.63348 31.0001 3.3335 29.5002 3.3335 27.9002V7.7668C3.3335 5.78347 4.95012 4.28349 6.93345 4.45015C10.4335 4.73349 15.7334 6.5002 18.7001 8.3502L19.1168 8.60014C19.6001 8.90014 20.4002 8.90014 20.8835 8.60014L21.1669 8.41683C22.2169 7.76683 23.5502 7.11682 25.0002 6.53349V13.3335L28.3335 11.1168L31.6668 13.3335V4.63356C32.1168 4.55023 32.5502 4.50017 32.9502 4.46684H33.0502C35.0335 4.30017 36.6668 5.78349 36.6668 7.78349Z" stroke="#FF7300" stroke-width="2" stroke-linecap="round" stroke-linejoin="round"/>
<path d="M20 9.15039V34.1504" stroke="#FF7300" stroke-width="2" stroke-linecap="round" stroke-linejoin="round"/>
<path d="M31.6667 4.63281V13.3328L28.3333 11.1161L25 13.3328V6.53274C27.1833 5.66607 29.6167 4.96615 31.6667 4.63281Z" stroke="#0061BF" stroke-width="2" stroke-linecap="round" stroke-linejoin="round"/>
</svg>
